solid Untitled-563375a0
facet normal -0.0 -0.0 -1.0
  outer loop
    vertex 0.0072402954101542065 17.104833602905284 0.0
    vertex 0.0 1.9024391174316424 0.0
    vertex 0.0 16.939027786254893 0.0
  endloop
endfacet
facet normal -0.0 -0.0 -1.0
  outer loop
    vertex 0.0 1.9024391174316424 0.0
    vertex 0.0072402954101542065 17.104833602905284 0.0
    vertex 0.0072402954101542065 1.736631393432621 0.0
  endloop
endfacet
facet normal -0.0 -0.0 -1.0
  outer loop
    vertex 0.0072402954101542065 1.736631393432621 0.0
    vertex 0.0072402954101542065 17.104833602905284 0.0
    vertex 0.028900146484379885 17.269380569458015 0.0
  endloop
endfacet
facet normal -0.0 -0.0 -1.0
  outer loop
    vertex 0.0072402954101542065 1.736631393432621 0.0
    vertex 0.028900146484379885 17.269380569458015 0.0
    vertex 0.028900146484379885 1.5720844268798844 0.0
  endloop
endfacet
facet normal -0.0 -0.0 -1.0
  outer loop
    vertex 0.028900146484379885 1.5720844268798844 0.0
    vertex 0.028900146484379885 17.269380569458015 0.0
    vertex 0.06481933593749724 17.431413650512702 0.0
  endloop
endfacet
facet normal -0.0 -0.0 -1.0
  outer loop
    vertex 0.028900146484379885 1.5720844268798844 0.0
    vertex 0.06481933593749724 17.431413650512702 0.0
    vertex 0.06481933593749724 1.4100513458251978 0.0
  endloop
endfacet
facet normal -0.0 -0.0 -1.0
  outer loop
    vertex 0.06481933593749724 1.4100513458251978 0.0
    vertex 0.06481933593749724 17.431413650512702 0.0
    vertex 0.11473083496093722 17.589696884155284 0.0
  endloop
endfacet
facet normal -0.0 -0.0 -1.0
  outer loop
    vertex 0.06481933593749724 1.4100513458251978 0.0
    vertex 0.11473083496093722 17.589696884155284 0.0
    vertex 0.11473083496093722 1.2517662048339842 0.0
  endloop
endfacet
facet normal -0.0 -0.0 -1.0
  outer loop
    vertex 0.11473083496093722 1.2517662048339842 0.0
    vertex 0.11473083496093722 17.589696884155284 0.0
    vertex 0.17823791503906383 17.74303245544434 0.0
  endloop
endfacet
facet normal -0.0 -0.0 -1.0
  outer loop
    vertex 0.11473083496093722 1.2517662048339842 0.0
    vertex 0.17823791503906383 17.74303245544434 0.0
    vertex 0.17823791503906383 1.0984325408935547 0.0
  endloop
endfacet
facet normal -0.0 -0.0 -1.0
  outer loop
    vertex 0.17823791503906383 1.0984325408935547 0.0
    vertex 0.17823791503906383 17.74303245544434 0.0
    vertex 0.2548751831054674 17.890245437622085 0.0
  endloop
endfacet
facet normal -0.0 -0.0 -1.0
  outer loop
    vertex 0.17823791503906383 1.0984325408935547 0.0
    vertex 0.2548751831054674 17.890245437622085 0.0
    vertex 0.2548751831054674 0.9512195587158212 0.0
  endloop
endfacet
facet normal -0.0 -0.0 -1.0
  outer loop
    vertex 0.2548751831054674 0.9512195587158212 0.0
    vertex 0.2548751831054674 17.890245437622085 0.0
    vertex 0.34404754638671653 18.03022193908692 0.0
  endloop
endfacet
facet normal -0.0 -0.0 -1.0
  outer loop
    vertex 0.2548751831054674 0.9512195587158212 0.0
    vertex 0.34404754638671653 18.03022193908692 0.0
    vertex 0.34404754638671653 0.8112449645996106 0.0
  endloop
endfacet
facet normal -0.0 -0.0 -1.0
  outer loop
    vertex 0.34404754638671653 0.8112449645996106 0.0
    vertex 0.34404754638671653 18.03022193908692 0.0
    vertex 0.4450836181640581 18.161890029907223 0.0
  endloop
endfacet
facet normal -0.0 -0.0 -1.0
  outer loop
    vertex 0.34404754638671653 0.8112449645996106 0.0
    vertex 0.4450836181640581 18.161890029907223 0.0
    vertex 0.4450836181640581 0.6795749664306693 0.0
  endloop
endfacet
facet normal -0.0 -0.0 -1.0
  outer loop
    vertex 0.4450836181640581 0.6795749664306693 0.0
    vertex 0.4450836181640581 18.161890029907223 0.0
    vertex 0.5572052001953162 18.284254074096676 0.0
  endloop
endfacet
facet normal -0.0 -0.0 -1.0
  outer loop
    vertex 0.4450836181640581 0.6795749664306693 0.0
    vertex 0.5572052001953162 18.284254074096676 0.0
    vertex 0.5572052001953162 0.5572109222412158 0.0
  endloop
endfacet
facet normal -0.0 -0.0 -1.0
  outer loop
    vertex 0.5572052001953162 0.5572109222412158 0.0
    vertex 0.5572052001953162 18.284254074096676 0.0
    vertex 0.6795730590820322 18.39637947082521 0.0
  endloop
endfacet
facet normal -0.0 -0.0 -1.0
  outer loop
    vertex 0.5572052001953162 0.5572109222412158 0.0
    vertex 0.6795730590820322 18.39637947082521 0.0
    vertex 0.6795730590820322 0.4450855255126951 0.0
  endloop
endfacet
facet normal -0.0 -0.0 -1.0
  outer loop
    vertex 0.6795730590820322 0.4450855255126951 0.0
    vertex 0.6795730590820322 18.39637947082521 0.0
    vertex 0.8112411499023479 18.497411727905277 0.0
  endloop
endfacet
facet normal -0.0 -0.0 -1.0
  outer loop
    vertex 0.6795730590820322 0.4450855255126951 0.0
    vertex 0.8112411499023479 18.497411727905277 0.0
    vertex 0.8112411499023479 0.3440513610839848 0.0
  endloop
endfacet
facet normal -0.0 -0.0 -1.0
  outer loop
    vertex 0.8112411499023479 0.3440513610839848 0.0
    vertex 0.8112411499023479 18.497411727905277 0.0
    vertex 0.9512176513671842 18.5865879058838 0.0
  endloop
endfacet
facet normal -0.0 -0.0 -1.0
  outer loop
    vertex 0.8112411499023479 0.3440513610839848 0.0
    vertex 0.9512176513671842 18.5865879058838 0.0
    vertex 0.9512176513671842 0.25487899780273576 0.0
  endloop
endfacet
facet normal -0.0 -0.0 -1.0
  outer loop
    vertex 0.9512176513671842 0.25487899780273576 0.0
    vertex 0.9512176513671842 18.5865879058838 0.0
    vertex 1.098434448242186 18.66322135925293 0.0
  endloop
endfacet
facet normal -0.0 -0.0 -1.0
  outer loop
    vertex 0.9512176513671842 0.25487899780273576 0.0
    vertex 1.098434448242186 18.66322135925293 0.0
    vertex 1.098434448242186 0.1782436370849635 0.0
  endloop
endfacet
facet normal -0.0 -0.0 -1.0
  outer loop
    vertex 1.098434448242186 0.1782436370849635 0.0
    vertex 1.098434448242186 18.66322135925293 0.0
    vertex 1.2517623901367159 18.72673225402833 0.0
  endloop
endfacet
facet normal -0.0 -0.0 -1.0
  outer loop
    vertex 1.098434448242186 0.1782436370849635 0.0
    vertex 1.2517623901367159 18.72673225402833 0.0
    vertex 1.2517623901367159 0.11473083496093722 0.0
  endloop
endfacet
facet normal -0.0 -0.0 -1.0
  outer loop
    vertex 1.2517623901367159 0.11473083496093722 0.0
    vertex 1.2517623901367159 18.72673225402833 0.0
    vertex 1.4100494384765607 18.776639938354496 0.0
  endloop
endfacet
facet normal -0.0 -0.0 -1.0
  outer loop
    vertex 1.2517623901367159 0.11473083496093722 0.0
    vertex 1.4100494384765607 18.776639938354496 0.0
    vertex 1.4100494384765607 0.06482315063476558 0.0
  endloop
endfacet
facet normal -0.0 -0.0 -1.0
  outer loop
    vertex 1.4100494384765607 0.06482315063476558 0.0
    vertex 1.4100494384765607 18.776639938354496 0.0
    vertex 1.5720825195312473 18.812562942504886 0.0
  endloop
endfacet
facet normal -0.0 -0.0 -1.0
  outer loop
    vertex 1.4100494384765607 0.06482315063476558 0.0
    vertex 1.5720825195312473 18.812562942504886 0.0
    vertex 1.5720825195312473 0.02890205383301123 0.0
  endloop
endfacet
facet normal -0.0 -0.0 -1.0
  outer loop
    vertex 1.5720825195312473 0.02890205383301123 0.0
    vertex 1.5720825195312473 18.812562942504886 0.0
    vertex 1.7366256713867156 18.834226608276364 0.0
  endloop
endfacet
facet normal -0.0 -0.0 -1.0
  outer loop
    vertex 1.5720825195312473 0.02890205383301123 0.0
    vertex 1.7366256713867156 18.834226608276364 0.0
    vertex 1.7366256713867156 0.007238388061528499 0.0
  endloop
endfacet
facet normal -0.0 -0.0 -1.0
  outer loop
    vertex 1.7366256713867156 0.007238388061528499 0.0
    vertex 1.7366256713867156 18.834226608276364 0.0
    vertex 1.9024353027343797 18.84146690368653 0.0
  endloop
endfacet
facet normal -0.0 -0.0 -1.0
  outer loop
    vertex 1.7366256713867156 0.007238388061528499 0.0
    vertex 1.9024353027343797 18.84146690368653 0.0
    vertex 1.9024353027343797 0.0 0.0
  endloop
endfacet
facet normal -0.0 -0.0 -1.0
  outer loop
    vertex 1.9024353027343797 0.0 0.0
    vertex 1.9024353027343797 18.84146690368653 0.0
    vertex 3.1707305908203125 15.670732498168949 0.0
  endloop
endfacet
facet normal -0.0 -0.0 -1.0
  outer loop
    vertex 3.1707305908203125 15.670732498168949 0.0
    vertex 1.9024353027343797 18.84146690368653 0.0
    vertex 14.585365295410154 18.84146690368653 0.0
  endloop
endfacet
facet normal -0.0 -0.0 -1.0
  outer loop
    vertex 3.1707305908203125 15.670732498168949 0.0
    vertex 14.585365295410154 18.84146690368653 0.0
    vertex 6.341461181640625 15.670732498168949 0.0
  endloop
endfacet
facet normal -0.0 -0.0 -1.0
  outer loop
    vertex 6.341461181640625 15.670732498168949 0.0
    vertex 14.585365295410154 18.84146690368653 0.0
    vertex 10.14633941650391 15.670732498168949 0.0
  endloop
endfacet
facet normal -0.0 -0.0 -1.0
  outer loop
    vertex 6.341461181640625 15.670732498168949 0.0
    vertex 10.14633941650391 15.670732498168949 0.0
    vertex 6.341461181640625 3.1707324981689493 0.0
  endloop
endfacet
facet normal -0.0 -0.0 -1.0
  outer loop
    vertex 10.14633941650391 15.670732498168949 0.0
    vertex 14.585365295410154 18.84146690368653 0.0
    vertex 13.317070007324222 15.670732498168949 0.0
  endloop
endfacet
facet normal -0.0 -0.0 -1.0
  outer loop
    vertex 13.317070007324222 15.670732498168949 0.0
    vertex 14.585365295410154 18.84146690368653 0.0
    vertex 13.317070007324222 3.1707324981689493 0.0
  endloop
endfacet
facet normal -0.0 -0.0 -1.0
  outer loop
    vertex 1.9024353027343797 0.0 0.0
    vertex 3.1707305908203125 3.1707324981689493 0.0
    vertex 14.585365295410154 0.0 0.0
  endloop
endfacet
facet normal -0.0 -0.0 -1.0
  outer loop
    vertex 3.1707305908203125 3.1707324981689493 0.0
    vertex 1.9024353027343797 0.0 0.0
    vertex 3.1707305908203125 15.670732498168949 0.0
  endloop
endfacet
facet normal -0.0 -0.0 -1.0
  outer loop
    vertex 14.585365295410154 0.0 0.0
    vertex 3.1707305908203125 3.1707324981689493 0.0
    vertex 6.341461181640625 3.1707324981689493 0.0
  endloop
endfacet
facet normal -0.0 -0.0 -1.0
  outer loop
    vertex 14.585365295410154 0.0 0.0
    vertex 6.341461181640625 3.1707324981689493 0.0
    vertex 10.14633941650391 3.1707324981689493 0.0
  endloop
endfacet
facet normal -0.0 -0.0 -1.0
  outer loop
    vertex 10.14633941650391 3.1707324981689493 0.0
    vertex 6.341461181640625 3.1707324981689493 0.0
    vertex 10.14633941650391 15.670732498168949 0.0
  endloop
endfacet
facet normal -0.0 -0.0 -1.0
  outer loop
    vertex 14.585365295410154 0.0 0.0
    vertex 10.14633941650391 3.1707324981689493 0.0
    vertex 13.317070007324222 3.1707324981689493 0.0
  endloop
endfacet
facet normal -0.0 -0.0 -1.0
  outer loop
    vertex 14.585365295410154 0.0 0.0
    vertex 13.317070007324222 3.1707324981689493 0.0
    vertex 14.585365295410154 18.84146690368653 0.0
  endloop
endfacet
facet normal -0.0 -0.0 -1.0
  outer loop
    vertex 14.585365295410154 0.0 0.0
    vertex 14.585365295410154 18.84146690368653 0.0
    vertex 14.751174926757807 18.834226608276364 0.0
  endloop
endfacet
facet normal -0.0 -0.0 -1.0
  outer loop
    vertex 14.585365295410154 0.0 0.0
    vertex 14.751174926757807 18.834226608276364 0.0
    vertex 14.751174926757807 0.007238388061528499 0.0
  endloop
endfacet
facet normal -0.0 -0.0 -1.0
  outer loop
    vertex 14.751174926757807 0.007238388061528499 0.0
    vertex 14.751174926757807 18.834226608276364 0.0
    vertex 14.915718078613276 18.812562942504886 0.0
  endloop
endfacet
facet normal -0.0 -0.0 -1.0
  outer loop
    vertex 14.751174926757807 0.007238388061528499 0.0
    vertex 14.915718078613276 18.812562942504886 0.0
    vertex 14.915718078613276 0.02890205383301123 0.0
  endloop
endfacet
facet normal -0.0 -0.0 -1.0
  outer loop
    vertex 14.915718078613276 0.02890205383301123 0.0
    vertex 14.915718078613276 18.812562942504886 0.0
    vertex 15.077751159667963 18.776639938354496 0.0
  endloop
endfacet
facet normal -0.0 -0.0 -1.0
  outer loop
    vertex 14.915718078613276 0.02890205383301123 0.0
    vertex 15.077751159667963 18.776639938354496 0.0
    vertex 15.077751159667963 0.06482315063476558 0.0
  endloop
endfacet
facet normal -0.0 -0.0 -1.0
  outer loop
    vertex 15.077751159667963 0.06482315063476558 0.0
    vertex 15.077751159667963 18.776639938354496 0.0
    vertex 15.236038208007807 18.72673225402833 0.0
  endloop
endfacet
facet normal -0.0 -0.0 -1.0
  outer loop
    vertex 15.077751159667963 0.06482315063476558 0.0
    vertex 15.236038208007807 18.72673225402833 0.0
    vertex 15.236038208007807 0.11473083496093722 0.0
  endloop
endfacet
facet normal -0.0 -0.0 -1.0
  outer loop
    vertex 15.236038208007807 0.11473083496093722 0.0
    vertex 15.236038208007807 18.72673225402833 0.0
    vertex 15.389366149902337 18.66322135925293 0.0
  endloop
endfacet
facet normal -0.0 -0.0 -1.0
  outer loop
    vertex 15.236038208007807 0.11473083496093722 0.0
    vertex 15.389366149902337 18.66322135925293 0.0
    vertex 15.389366149902337 0.1782436370849635 0.0
  endloop
endfacet
facet normal -0.0 -0.0 -1.0
  outer loop
    vertex 15.389366149902337 0.1782436370849635 0.0
    vertex 15.389366149902337 18.66322135925293 0.0
    vertex 15.536582946777338 18.5865879058838 0.0
  endloop
endfacet
facet normal -0.0 -0.0 -1.0
  outer loop
    vertex 15.389366149902337 0.1782436370849635 0.0
    vertex 15.536582946777338 18.5865879058838 0.0
    vertex 15.536582946777338 0.25487899780273576 0.0
  endloop
endfacet
facet normal -0.0 -0.0 -1.0
  outer loop
    vertex 15.536582946777338 0.25487899780273576 0.0
    vertex 15.536582946777338 18.5865879058838 0.0
    vertex 15.676559448242188 18.497411727905277 0.0
  endloop
endfacet
facet normal -0.0 -0.0 -1.0
  outer loop
    vertex 15.536582946777338 0.25487899780273576 0.0
    vertex 15.676559448242188 18.497411727905277 0.0
    vertex 15.676559448242188 0.3440513610839848 0.0
  endloop
endfacet
facet normal -0.0 -0.0 -1.0
  outer loop
    vertex 15.676559448242188 0.3440513610839848 0.0
    vertex 15.676559448242188 18.497411727905277 0.0
    vertex 15.808227539062502 18.39637947082521 0.0
  endloop
endfacet
facet normal -0.0 -0.0 -1.0
  outer loop
    vertex 15.676559448242188 0.3440513610839848 0.0
    vertex 15.808227539062502 18.39637947082521 0.0
    vertex 15.808227539062502 0.4450855255126951 0.0
  endloop
endfacet
facet normal -0.0 -0.0 -1.0
  outer loop
    vertex 15.808227539062502 0.4450855255126951 0.0
    vertex 15.808227539062502 18.39637947082521 0.0
    vertex 15.930587768554682 18.284254074096676 0.0
  endloop
endfacet
facet normal -0.0 -0.0 -1.0
  outer loop
    vertex 15.808227539062502 0.4450855255126951 0.0
    vertex 15.930587768554682 18.284254074096676 0.0
    vertex 15.930587768554682 0.5572109222412158 0.0
  endloop
endfacet
facet normal -0.0 -0.0 -1.0
  outer loop
    vertex 15.930587768554682 0.5572109222412158 0.0
    vertex 15.930587768554682 18.284254074096676 0.0
    vertex 16.042716979980465 18.161890029907223 0.0
  endloop
endfacet
facet normal -0.0 -0.0 -1.0
  outer loop
    vertex 15.930587768554682 0.5572109222412158 0.0
    vertex 16.042716979980465 18.161890029907223 0.0
    vertex 16.042716979980465 0.6795749664306693 0.0
  endloop
endfacet
facet normal -0.0 -0.0 -1.0
  outer loop
    vertex 16.042716979980465 0.6795749664306693 0.0
    vertex 16.042716979980465 18.161890029907223 0.0
    vertex 16.143753051757805 18.03022193908692 0.0
  endloop
endfacet
facet normal -0.0 -0.0 -1.0
  outer loop
    vertex 16.042716979980465 0.6795749664306693 0.0
    vertex 16.143753051757805 18.03022193908692 0.0
    vertex 16.143753051757805 0.8112449645996106 0.0
  endloop
endfacet
facet normal -0.0 -0.0 -1.0
  outer loop
    vertex 16.143753051757805 0.8112449645996106 0.0
    vertex 16.143753051757805 18.03022193908692 0.0
    vertex 16.232925415039055 17.890245437622085 0.0
  endloop
endfacet
facet normal -0.0 -0.0 -1.0
  outer loop
    vertex 16.143753051757805 0.8112449645996106 0.0
    vertex 16.232925415039055 17.890245437622085 0.0
    vertex 16.232925415039055 0.9512195587158212 0.0
  endloop
endfacet
facet normal -0.0 -0.0 -1.0
  outer loop
    vertex 16.232925415039055 0.9512195587158212 0.0
    vertex 16.232925415039055 17.890245437622085 0.0
    vertex 16.309555053710934 17.74303245544434 0.0
  endloop
endfacet
facet normal -0.0 -0.0 -1.0
  outer loop
    vertex 16.232925415039055 0.9512195587158212 0.0
    vertex 16.309555053710934 17.74303245544434 0.0
    vertex 16.309555053710934 1.0984325408935547 0.0
  endloop
endfacet
facet normal -0.0 -0.0 -1.0
  outer loop
    vertex 16.309555053710934 1.0984325408935547 0.0
    vertex 16.309555053710934 17.74303245544434 0.0
    vertex 16.373069763183597 17.589696884155284 0.0
  endloop
endfacet
facet normal -0.0 -0.0 -1.0
  outer loop
    vertex 16.309555053710934 1.0984325408935547 0.0
    vertex 16.373069763183597 17.589696884155284 0.0
    vertex 16.373069763183597 1.2517662048339842 0.0
  endloop
endfacet
facet normal -0.0 -0.0 -1.0
  outer loop
    vertex 16.373069763183597 1.2517662048339842 0.0
    vertex 16.373069763183597 17.589696884155284 0.0
    vertex 16.422981262207028 17.431413650512702 0.0
  endloop
endfacet
facet normal -0.0 -0.0 -1.0
  outer loop
    vertex 16.373069763183597 1.2517662048339842 0.0
    vertex 16.422981262207028 17.431413650512702 0.0
    vertex 16.422981262207028 1.4100513458251978 0.0
  endloop
endfacet
facet normal -0.0 -0.0 -1.0
  outer loop
    vertex 16.422981262207028 1.4100513458251978 0.0
    vertex 16.422981262207028 17.431413650512702 0.0
    vertex 16.458900451660156 17.269380569458015 0.0
  endloop
endfacet
facet normal -0.0 -0.0 -1.0
  outer loop
    vertex 16.422981262207028 1.4100513458251978 0.0
    vertex 16.458900451660156 17.269380569458015 0.0
    vertex 16.458900451660156 1.5720844268798844 0.0
  endloop
endfacet
facet normal -0.0 -0.0 -1.0
  outer loop
    vertex 16.458900451660156 1.5720844268798844 0.0
    vertex 16.458900451660156 17.269380569458015 0.0
    vertex 16.480560302734368 17.104833602905284 0.0
  endloop
endfacet
facet normal -0.0 -0.0 -1.0
  outer loop
    vertex 16.458900451660156 1.5720844268798844 0.0
    vertex 16.480560302734368 17.104833602905284 0.0
    vertex 16.480560302734368 1.736631393432621 0.0
  endloop
endfacet
facet normal -0.0 -0.0 -1.0
  outer loop
    vertex 16.480560302734368 1.736631393432621 0.0
    vertex 16.480560302734368 17.104833602905284 0.0
    vertex 16.487800598144535 16.939027786254893 0.0
  endloop
endfacet
facet normal -0.0 -0.0 -1.0
  outer loop
    vertex 16.480560302734368 1.736631393432621 0.0
    vertex 16.487800598144535 16.939027786254893 0.0
    vertex 16.487800598144535 1.9024391174316424 0.0
  endloop
endfacet
facet normal 0.0 0.0 1.0
  outer loop
    vertex 0.0072402954101542065 1.736631393432621 1.9999999999999998
    vertex 0.0 16.939027786254893 1.9999999999999998
    vertex 0.0 1.9024391174316424 1.9999999999999998
  endloop
endfacet
facet normal 0.0 0.0 1.0
  outer loop
    vertex 0.0 16.939027786254893 1.9999999999999998
    vertex 0.0072402954101542065 1.736631393432621 1.9999999999999998
    vertex 0.0072402954101542065 17.104833602905284 1.9999999999999998
  endloop
endfacet
facet normal 0.0 0.0 1.0
  outer loop
    vertex 0.0072402954101542065 17.104833602905284 1.9999999999999998
    vertex 0.0072402954101542065 1.736631393432621 1.9999999999999998
    vertex 0.028900146484379885 1.5720844268798844 1.9999999999999998
  endloop
endfacet
facet normal 0.0 0.0 1.0
  outer loop
    vertex 0.0072402954101542065 17.104833602905284 1.9999999999999998
    vertex 0.028900146484379885 1.5720844268798844 1.9999999999999998
    vertex 0.028900146484379885 17.269380569458015 1.9999999999999998
  endloop
endfacet
facet normal 0.0 0.0 1.0
  outer loop
    vertex 0.028900146484379885 17.269380569458015 1.9999999999999998
    vertex 0.028900146484379885 1.5720844268798844 1.9999999999999998
    vertex 0.06481933593749724 1.4100513458251978 1.9999999999999998
  endloop
endfacet
facet normal 0.0 0.0 1.0
  outer loop
    vertex 0.028900146484379885 17.269380569458015 1.9999999999999998
    vertex 0.06481933593749724 1.4100513458251978 1.9999999999999998
    vertex 0.06481933593749724 17.431413650512702 1.9999999999999998
  endloop
endfacet
facet normal 0.0 0.0 1.0
  outer loop
    vertex 0.06481933593749724 17.431413650512702 1.9999999999999998
    vertex 0.06481933593749724 1.4100513458251978 1.9999999999999998
    vertex 0.11473083496093722 1.2517662048339842 1.9999999999999998
  endloop
endfacet
facet normal 0.0 0.0 1.0
  outer loop
    vertex 0.06481933593749724 17.431413650512702 1.9999999999999998
    vertex 0.11473083496093722 1.2517662048339842 1.9999999999999998
    vertex 0.11473083496093722 17.589696884155284 1.9999999999999998
  endloop
endfacet
facet normal 0.0 0.0 1.0
  outer loop
    vertex 0.11473083496093722 17.589696884155284 1.9999999999999998
    vertex 0.11473083496093722 1.2517662048339842 1.9999999999999998
    vertex 0.17823791503906383 1.0984325408935547 1.9999999999999998
  endloop
endfacet
facet normal 0.0 0.0 1.0
  outer loop
    vertex 0.11473083496093722 17.589696884155284 1.9999999999999998
    vertex 0.17823791503906383 1.0984325408935547 1.9999999999999998
    vertex 0.17823791503906383 17.74303245544434 1.9999999999999998
  endloop
endfacet
facet normal 0.0 0.0 1.0
  outer loop
    vertex 0.17823791503906383 17.74303245544434 1.9999999999999998
    vertex 0.17823791503906383 1.0984325408935547 1.9999999999999998
    vertex 0.2548751831054674 0.9512195587158212 1.9999999999999998
  endloop
endfacet
facet normal 0.0 0.0 1.0
  outer loop
    vertex 0.17823791503906383 17.74303245544434 1.9999999999999998
    vertex 0.2548751831054674 0.9512195587158212 1.9999999999999998
    vertex 0.2548751831054674 17.890245437622085 1.9999999999999998
  endloop
endfacet
facet normal 0.0 0.0 1.0
  outer loop
    vertex 0.2548751831054674 17.890245437622085 1.9999999999999998
    vertex 0.2548751831054674 0.9512195587158212 1.9999999999999998
    vertex 0.34404754638671653 0.8112449645996106 1.9999999999999998
  endloop
endfacet
facet normal 0.0 0.0 1.0
  outer loop
    vertex 0.2548751831054674 17.890245437622085 1.9999999999999998
    vertex 0.34404754638671653 0.8112449645996106 1.9999999999999998
    vertex 0.34404754638671653 18.03022193908692 1.9999999999999998
  endloop
endfacet
facet normal 0.0 0.0 1.0
  outer loop
    vertex 0.34404754638671653 18.03022193908692 1.9999999999999998
    vertex 0.34404754638671653 0.8112449645996106 1.9999999999999998
    vertex 0.4450836181640581 0.6795749664306693 1.9999999999999998
  endloop
endfacet
facet normal 0.0 0.0 1.0
  outer loop
    vertex 0.34404754638671653 18.03022193908692 1.9999999999999998
    vertex 0.4450836181640581 0.6795749664306693 1.9999999999999998
    vertex 0.4450836181640581 18.161890029907223 1.9999999999999998
  endloop
endfacet
facet normal 0.0 0.0 1.0
  outer loop
    vertex 0.4450836181640581 18.161890029907223 1.9999999999999998
    vertex 0.4450836181640581 0.6795749664306693 1.9999999999999998
    vertex 0.5572052001953162 0.5572109222412158 1.9999999999999998
  endloop
endfacet
facet normal 0.0 0.0 1.0
  outer loop
    vertex 0.4450836181640581 18.161890029907223 1.9999999999999998
    vertex 0.5572052001953162 0.5572109222412158 1.9999999999999998
    vertex 0.5572052001953162 18.284254074096676 1.9999999999999998
  endloop
endfacet
facet normal 0.0 0.0 1.0
  outer loop
    vertex 0.5572052001953162 18.284254074096676 1.9999999999999998
    vertex 0.5572052001953162 0.5572109222412158 1.9999999999999998
    vertex 0.6795730590820322 0.4450855255126951 1.9999999999999998
  endloop
endfacet
facet normal 0.0 0.0 1.0
  outer loop
    vertex 0.5572052001953162 18.284254074096676 1.9999999999999998
    vertex 0.6795730590820322 0.4450855255126951 1.9999999999999998
    vertex 0.6795730590820322 18.39637947082521 1.9999999999999998
  endloop
endfacet
facet normal 0.0 0.0 1.0
  outer loop
    vertex 0.6795730590820322 18.39637947082521 1.9999999999999998
    vertex 0.6795730590820322 0.4450855255126951 1.9999999999999998
    vertex 0.8112411499023479 0.3440513610839848 1.9999999999999998
  endloop
endfacet
facet normal 0.0 0.0 1.0
  outer loop
    vertex 0.6795730590820322 18.39637947082521 1.9999999999999998
    vertex 0.8112411499023479 0.3440513610839848 1.9999999999999998
    vertex 0.8112411499023479 18.497411727905277 1.9999999999999998
  endloop
endfacet
facet normal 0.0 0.0 1.0
  outer loop
    vertex 0.8112411499023479 18.497411727905277 1.9999999999999998
    vertex 0.8112411499023479 0.3440513610839848 1.9999999999999998
    vertex 0.9512176513671842 0.25487899780273576 1.9999999999999998
  endloop
endfacet
facet normal 0.0 0.0 1.0
  outer loop
    vertex 0.8112411499023479 18.497411727905277 1.9999999999999998
    vertex 0.9512176513671842 0.25487899780273576 1.9999999999999998
    vertex 0.9512176513671842 18.5865879058838 1.9999999999999998
  endloop
endfacet
facet normal 0.0 0.0 1.0
  outer loop
    vertex 0.9512176513671842 18.5865879058838 1.9999999999999998
    vertex 0.9512176513671842 0.25487899780273576 1.9999999999999998
    vertex 1.098434448242186 0.1782436370849635 1.9999999999999998
  endloop
endfacet
facet normal 0.0 0.0 1.0
  outer loop
    vertex 0.9512176513671842 18.5865879058838 1.9999999999999998
    vertex 1.098434448242186 0.1782436370849635 1.9999999999999998
    vertex 1.098434448242186 18.66322135925293 1.9999999999999998
  endloop
endfacet
facet normal 0.0 0.0 1.0
  outer loop
    vertex 1.098434448242186 18.66322135925293 1.9999999999999998
    vertex 1.098434448242186 0.1782436370849635 1.9999999999999998
    vertex 1.2517623901367159 0.11473083496093722 1.9999999999999998
  endloop
endfacet
facet normal 0.0 0.0 1.0
  outer loop
    vertex 1.098434448242186 18.66322135925293 1.9999999999999998
    vertex 1.2517623901367159 0.11473083496093722 1.9999999999999998
    vertex 1.2517623901367159 18.72673225402833 1.9999999999999998
  endloop
endfacet
facet normal 0.0 0.0 1.0
  outer loop
    vertex 1.2517623901367159 18.72673225402833 1.9999999999999998
    vertex 1.2517623901367159 0.11473083496093722 1.9999999999999998
    vertex 1.4100494384765607 0.06482315063476558 1.9999999999999998
  endloop
endfacet
facet normal 0.0 0.0 1.0
  outer loop
    vertex 1.2517623901367159 18.72673225402833 1.9999999999999998
    vertex 1.4100494384765607 0.06482315063476558 1.9999999999999998
    vertex 1.4100494384765607 18.776639938354496 1.9999999999999998
  endloop
endfacet
facet normal 0.0 0.0 1.0
  outer loop
    vertex 1.4100494384765607 18.776639938354496 1.9999999999999998
    vertex 1.4100494384765607 0.06482315063476558 1.9999999999999998
    vertex 1.5720825195312473 0.02890205383301123 1.9999999999999998
  endloop
endfacet
facet normal 0.0 0.0 1.0
  outer loop
    vertex 1.4100494384765607 18.776639938354496 1.9999999999999998
    vertex 1.5720825195312473 0.02890205383301123 1.9999999999999998
    vertex 1.5720825195312473 18.812562942504886 1.9999999999999998
  endloop
endfacet
facet normal 0.0 0.0 1.0
  outer loop
    vertex 1.5720825195312473 18.812562942504886 1.9999999999999998
    vertex 1.5720825195312473 0.02890205383301123 1.9999999999999998
    vertex 1.7366256713867156 0.007238388061528499 1.9999999999999998
  endloop
endfacet
facet normal 0.0 0.0 1.0
  outer loop
    vertex 1.5720825195312473 18.812562942504886 1.9999999999999998
    vertex 1.7366256713867156 0.007238388061528499 1.9999999999999998
    vertex 1.7366256713867156 18.834226608276364 1.9999999999999998
  endloop
endfacet
facet normal 0.0 0.0 1.0
  outer loop
    vertex 1.7366256713867156 18.834226608276364 1.9999999999999998
    vertex 1.7366256713867156 0.007238388061528499 1.9999999999999998
    vertex 1.9024353027343797 0.0 1.9999999999999998
  endloop
endfacet
facet normal 0.0 0.0 1.0
  outer loop
    vertex 1.7366256713867156 18.834226608276364 1.9999999999999998
    vertex 1.9024353027343797 0.0 1.9999999999999998
    vertex 1.9024353027343797 18.84146690368653 1.9999999999999998
  endloop
endfacet
facet normal 0.0 0.0 1.0
  outer loop
    vertex 1.9024353027343797 18.84146690368653 1.9999999999999998
    vertex 1.9024353027343797 0.0 1.9999999999999998
    vertex 3.1707305908203125 3.1707324981689493 1.9999999999999998
  endloop
endfacet
facet normal 0.0 0.0 1.0
  outer loop
    vertex 3.1707305908203125 3.1707324981689493 1.9999999999999998
    vertex 1.9024353027343797 0.0 1.9999999999999998
    vertex 14.585365295410154 0.0 1.9999999999999998
  endloop
endfacet
facet normal 0.0 0.0 1.0
  outer loop
    vertex 3.1707305908203125 3.1707324981689493 1.9999999999999998
    vertex 14.585365295410154 0.0 1.9999999999999998
    vertex 6.341461181640625 3.1707324981689493 1.9999999999999998
  endloop
endfacet
facet normal 0.0 0.0 1.0
  outer loop
    vertex 6.341461181640625 3.1707324981689493 1.9999999999999998
    vertex 14.585365295410154 0.0 1.9999999999999998
    vertex 10.14633941650391 3.1707324981689493 1.9999999999999998
  endloop
endfacet
facet normal 0.0 0.0 1.0
  outer loop
    vertex 6.341461181640625 3.1707324981689493 1.9999999999999998
    vertex 10.14633941650391 3.1707324981689493 1.9999999999999998
    vertex 6.341461181640625 15.670732498168949 1.9999999999999998
  endloop
endfacet
facet normal 0.0 0.0 1.0
  outer loop
    vertex 10.14633941650391 3.1707324981689493 1.9999999999999998
    vertex 14.585365295410154 0.0 1.9999999999999998
    vertex 13.317070007324222 3.1707324981689493 1.9999999999999998
  endloop
endfacet
facet normal 0.0 0.0 1.0
  outer loop
    vertex 13.317070007324222 3.1707324981689493 1.9999999999999998
    vertex 14.585365295410154 0.0 1.9999999999999998
    vertex 13.317070007324222 15.670732498168949 1.9999999999999998
  endloop
endfacet
facet normal 0.0 0.0 1.0
  outer loop
    vertex 1.9024353027343797 18.84146690368653 1.9999999999999998
    vertex 3.1707305908203125 15.670732498168949 1.9999999999999998
    vertex 14.585365295410154 18.84146690368653 1.9999999999999998
  endloop
endfacet
facet normal 0.0 0.0 1.0
  outer loop
    vertex 3.1707305908203125 15.670732498168949 1.9999999999999998
    vertex 1.9024353027343797 18.84146690368653 1.9999999999999998
    vertex 3.1707305908203125 3.1707324981689493 1.9999999999999998
  endloop
endfacet
facet normal 0.0 0.0 1.0
  outer loop
    vertex 14.585365295410154 18.84146690368653 1.9999999999999998
    vertex 3.1707305908203125 15.670732498168949 1.9999999999999998
    vertex 6.341461181640625 15.670732498168949 1.9999999999999998
  endloop
endfacet
facet normal 0.0 0.0 1.0
  outer loop
    vertex 14.585365295410154 18.84146690368653 1.9999999999999998
    vertex 6.341461181640625 15.670732498168949 1.9999999999999998
    vertex 10.14633941650391 15.670732498168949 1.9999999999999998
  endloop
endfacet
facet normal 0.0 0.0 1.0
  outer loop
    vertex 10.14633941650391 15.670732498168949 1.9999999999999998
    vertex 6.341461181640625 15.670732498168949 1.9999999999999998
    vertex 10.14633941650391 3.1707324981689493 1.9999999999999998
  endloop
endfacet
facet normal 0.0 0.0 1.0
  outer loop
    vertex 14.585365295410154 18.84146690368653 1.9999999999999998
    vertex 10.14633941650391 15.670732498168949 1.9999999999999998
    vertex 13.317070007324222 15.670732498168949 1.9999999999999998
  endloop
endfacet
facet normal 0.0 0.0 1.0
  outer loop
    vertex 14.585365295410154 18.84146690368653 1.9999999999999998
    vertex 13.317070007324222 15.670732498168949 1.9999999999999998
    vertex 14.585365295410154 0.0 1.9999999999999998
  endloop
endfacet
facet normal 0.0 0.0 1.0
  outer loop
    vertex 14.585365295410154 18.84146690368653 1.9999999999999998
    vertex 14.585365295410154 0.0 1.9999999999999998
    vertex 14.751174926757807 0.007238388061528499 1.9999999999999998
  endloop
endfacet
facet normal 0.0 0.0 1.0
  outer loop
    vertex 14.585365295410154 18.84146690368653 1.9999999999999998
    vertex 14.751174926757807 0.007238388061528499 1.9999999999999998
    vertex 14.751174926757807 18.834226608276364 1.9999999999999998
  endloop
endfacet
facet normal 0.0 0.0 1.0
  outer loop
    vertex 14.751174926757807 18.834226608276364 1.9999999999999998
    vertex 14.751174926757807 0.007238388061528499 1.9999999999999998
    vertex 14.915718078613276 0.02890205383301123 1.9999999999999998
  endloop
endfacet
facet normal 0.0 0.0 1.0
  outer loop
    vertex 14.751174926757807 18.834226608276364 1.9999999999999998
    vertex 14.915718078613276 0.02890205383301123 1.9999999999999998
    vertex 14.915718078613276 18.812562942504886 1.9999999999999998
  endloop
endfacet
facet normal 0.0 0.0 1.0
  outer loop
    vertex 14.915718078613276 18.812562942504886 1.9999999999999998
    vertex 14.915718078613276 0.02890205383301123 1.9999999999999998
    vertex 15.077751159667963 0.06482315063476558 1.9999999999999998
  endloop
endfacet
facet normal 0.0 0.0 1.0
  outer loop
    vertex 14.915718078613276 18.812562942504886 1.9999999999999998
    vertex 15.077751159667963 0.06482315063476558 1.9999999999999998
    vertex 15.077751159667963 18.776639938354496 1.9999999999999998
  endloop
endfacet
facet normal 0.0 0.0 1.0
  outer loop
    vertex 15.077751159667963 18.776639938354496 1.9999999999999998
    vertex 15.077751159667963 0.06482315063476558 1.9999999999999998
    vertex 15.236038208007807 0.11473083496093722 1.9999999999999998
  endloop
endfacet
facet normal 0.0 0.0 1.0
  outer loop
    vertex 15.077751159667963 18.776639938354496 1.9999999999999998
    vertex 15.236038208007807 0.11473083496093722 1.9999999999999998
    vertex 15.236038208007807 18.72673225402833 1.9999999999999998
  endloop
endfacet
facet normal 0.0 0.0 1.0
  outer loop
    vertex 15.236038208007807 18.72673225402833 1.9999999999999998
    vertex 15.236038208007807 0.11473083496093722 1.9999999999999998
    vertex 15.389366149902337 0.1782436370849635 1.9999999999999998
  endloop
endfacet
facet normal 0.0 0.0 1.0
  outer loop
    vertex 15.236038208007807 18.72673225402833 1.9999999999999998
    vertex 15.389366149902337 0.1782436370849635 1.9999999999999998
    vertex 15.389366149902337 18.66322135925293 1.9999999999999998
  endloop
endfacet
facet normal 0.0 0.0 1.0
  outer loop
    vertex 15.389366149902337 18.66322135925293 1.9999999999999998
    vertex 15.389366149902337 0.1782436370849635 1.9999999999999998
    vertex 15.536582946777338 0.25487899780273576 1.9999999999999998
  endloop
endfacet
facet normal 0.0 0.0 1.0
  outer loop
    vertex 15.389366149902337 18.66322135925293 1.9999999999999998
    vertex 15.536582946777338 0.25487899780273576 1.9999999999999998
    vertex 15.536582946777338 18.5865879058838 1.9999999999999998
  endloop
endfacet
facet normal 0.0 0.0 1.0
  outer loop
    vertex 15.536582946777338 18.5865879058838 1.9999999999999998
    vertex 15.536582946777338 0.25487899780273576 1.9999999999999998
    vertex 15.676559448242188 0.3440513610839848 1.9999999999999998
  endloop
endfacet
facet normal 0.0 0.0 1.0
  outer loop
    vertex 15.536582946777338 18.5865879058838 1.9999999999999998
    vertex 15.676559448242188 0.3440513610839848 1.9999999999999998
    vertex 15.676559448242188 18.497411727905277 1.9999999999999998
  endloop
endfacet
facet normal 0.0 0.0 1.0
  outer loop
    vertex 15.676559448242188 18.497411727905277 1.9999999999999998
    vertex 15.676559448242188 0.3440513610839848 1.9999999999999998
    vertex 15.808227539062502 0.4450855255126951 1.9999999999999998
  endloop
endfacet
facet normal 0.0 0.0 1.0
  outer loop
    vertex 15.676559448242188 18.497411727905277 1.9999999999999998
    vertex 15.808227539062502 0.4450855255126951 1.9999999999999998
    vertex 15.808227539062502 18.39637947082521 1.9999999999999998
  endloop
endfacet
facet normal 0.0 0.0 1.0
  outer loop
    vertex 15.808227539062502 18.39637947082521 1.9999999999999998
    vertex 15.808227539062502 0.4450855255126951 1.9999999999999998
    vertex 15.930587768554682 0.5572109222412158 1.9999999999999998
  endloop
endfacet
facet normal 0.0 0.0 1.0
  outer loop
    vertex 15.808227539062502 18.39637947082521 1.9999999999999998
    vertex 15.930587768554682 0.5572109222412158 1.9999999999999998
    vertex 15.930587768554682 18.284254074096676 1.9999999999999998
  endloop
endfacet
facet normal 0.0 0.0 1.0
  outer loop
    vertex 15.930587768554682 18.284254074096676 1.9999999999999998
    vertex 15.930587768554682 0.5572109222412158 1.9999999999999998
    vertex 16.042716979980465 0.6795749664306693 1.9999999999999998
  endloop
endfacet
facet normal 0.0 0.0 1.0
  outer loop
    vertex 15.930587768554682 18.284254074096676 1.9999999999999998
    vertex 16.042716979980465 0.6795749664306693 1.9999999999999998
    vertex 16.042716979980465 18.161890029907223 1.9999999999999998
  endloop
endfacet
facet normal 0.0 0.0 1.0
  outer loop
    vertex 16.042716979980465 18.161890029907223 1.9999999999999998
    vertex 16.042716979980465 0.6795749664306693 1.9999999999999998
    vertex 16.143753051757805 0.8112449645996106 1.9999999999999998
  endloop
endfacet
facet normal 0.0 0.0 1.0
  outer loop
    vertex 16.042716979980465 18.161890029907223 1.9999999999999998
    vertex 16.143753051757805 0.8112449645996106 1.9999999999999998
    vertex 16.143753051757805 18.03022193908692 1.9999999999999998
  endloop
endfacet
facet normal 0.0 0.0 1.0
  outer loop
    vertex 16.143753051757805 18.03022193908692 1.9999999999999998
    vertex 16.143753051757805 0.8112449645996106 1.9999999999999998
    vertex 16.232925415039055 0.9512195587158212 1.9999999999999998
  endloop
endfacet
facet normal 0.0 0.0 1.0
  outer loop
    vertex 16.143753051757805 18.03022193908692 1.9999999999999998
    vertex 16.232925415039055 0.9512195587158212 1.9999999999999998
    vertex 16.232925415039055 17.890245437622085 1.9999999999999998
  endloop
endfacet
facet normal 0.0 0.0 1.0
  outer loop
    vertex 16.232925415039055 17.890245437622085 1.9999999999999998
    vertex 16.232925415039055 0.9512195587158212 1.9999999999999998
    vertex 16.309555053710934 1.0984325408935547 1.9999999999999998
  endloop
endfacet
facet normal 0.0 0.0 1.0
  outer loop
    vertex 16.232925415039055 17.890245437622085 1.9999999999999998
    vertex 16.309555053710934 1.0984325408935547 1.9999999999999998
    vertex 16.309555053710934 17.74303245544434 1.9999999999999998
  endloop
endfacet
facet normal 0.0 0.0 1.0
  outer loop
    vertex 16.309555053710934 17.74303245544434 1.9999999999999998
    vertex 16.309555053710934 1.0984325408935547 1.9999999999999998
    vertex 16.373069763183597 1.2517662048339842 1.9999999999999998
  endloop
endfacet
facet normal 0.0 0.0 1.0
  outer loop
    vertex 16.309555053710934 17.74303245544434 1.9999999999999998
    vertex 16.373069763183597 1.2517662048339842 1.9999999999999998
    vertex 16.373069763183597 17.589696884155284 1.9999999999999998
  endloop
endfacet
facet normal 0.0 0.0 1.0
  outer loop
    vertex 16.373069763183597 17.589696884155284 1.9999999999999998
    vertex 16.373069763183597 1.2517662048339842 1.9999999999999998
    vertex 16.422981262207028 1.4100513458251978 1.9999999999999998
  endloop
endfacet
facet normal 0.0 0.0 1.0
  outer loop
    vertex 16.373069763183597 17.589696884155284 1.9999999999999998
    vertex 16.422981262207028 1.4100513458251978 1.9999999999999998
    vertex 16.422981262207028 17.431413650512702 1.9999999999999998
  endloop
endfacet
facet normal 0.0 0.0 1.0
  outer loop
    vertex 16.422981262207028 17.431413650512702 1.9999999999999998
    vertex 16.422981262207028 1.4100513458251978 1.9999999999999998
    vertex 16.458900451660156 1.5720844268798844 1.9999999999999998
  endloop
endfacet
facet normal 0.0 0.0 1.0
  outer loop
    vertex 16.422981262207028 17.431413650512702 1.9999999999999998
    vertex 16.458900451660156 1.5720844268798844 1.9999999999999998
    vertex 16.458900451660156 17.269380569458015 1.9999999999999998
  endloop
endfacet
facet normal 0.0 0.0 1.0
  outer loop
    vertex 16.458900451660156 17.269380569458015 1.9999999999999998
    vertex 16.458900451660156 1.5720844268798844 1.9999999999999998
    vertex 16.480560302734368 1.736631393432621 1.9999999999999998
  endloop
endfacet
facet normal 0.0 0.0 1.0
  outer loop
    vertex 16.458900451660156 17.269380569458015 1.9999999999999998
    vertex 16.480560302734368 1.736631393432621 1.9999999999999998
    vertex 16.480560302734368 17.104833602905284 1.9999999999999998
  endloop
endfacet
facet normal 0.0 0.0 1.0
  outer loop
    vertex 16.480560302734368 17.104833602905284 1.9999999999999998
    vertex 16.480560302734368 1.736631393432621 1.9999999999999998
    vertex 16.487800598144535 1.9024391174316424 1.9999999999999998
  endloop
endfacet
facet normal 0.0 0.0 1.0
  outer loop
    vertex 16.480560302734368 17.104833602905284 1.9999999999999998
    vertex 16.487800598144535 1.9024391174316424 1.9999999999999998
    vertex 16.487800598144535 16.939027786254893 1.9999999999999998
  endloop
endfacet
facet normal -0.8870033305613568 0.46176302534206903 0.0
  outer loop
    vertex 0.2548751831054674 17.890245437622085 1.9999999999999998
    vertex 0.17823791503906383 17.74303245544434 0.0
    vertex 0.17823791503906383 17.74303245544434 1.9999999999999998
  endloop
endfacet
facet normal -0.8870033305613568 0.46176302534206903 0.0
  outer loop
    vertex 0.17823791503906383 17.74303245544434 0.0
    vertex 0.2548751831054674 17.890245437622085 1.9999999999999998
    vertex 0.2548751831054674 17.890245437622085 0.0
  endloop
endfacet
facet normal -0.9238935770461598 0.3826495240985563 0.0
  outer loop
    vertex 0.17823791503906383 17.74303245544434 1.9999999999999998
    vertex 0.11473083496093722 17.589696884155284 0.0
    vertex 0.11473083496093722 17.589696884155284 1.9999999999999998
  endloop
endfacet
facet normal -0.9238935770461598 0.3826495240985563 0.0
  outer loop
    vertex 0.11473083496093722 17.589696884155284 0.0
    vertex 0.17823791503906383 17.74303245544434 1.9999999999999998
    vertex 0.17823791503906383 17.74303245544434 0.0
  endloop
endfacet
facet normal -0.9537083325859763 0.30073313145723907 0.0
  outer loop
    vertex 0.11473083496093722 17.589696884155284 1.9999999999999998
    vertex 0.06481933593749724 17.431413650512702 0.0
    vertex 0.06481933593749724 17.431413650512702 1.9999999999999998
  endloop
endfacet
facet normal -0.9537083325859763 0.30073313145723907 0.0
  outer loop
    vertex 0.06481933593749724 17.431413650512702 0.0
    vertex 0.11473083496093722 17.589696884155284 1.9999999999999998
    vertex 0.11473083496093722 17.589696884155284 0.0
  endloop
endfacet
facet normal -0.9762994189127455 0.2164242237611946 0.0
  outer loop
    vertex 0.06481933593749724 17.431413650512702 1.9999999999999998
    vertex 0.028900146484379885 17.269380569458015 0.0
    vertex 0.028900146484379885 17.269380569458015 1.9999999999999998
  endloop
endfacet
facet normal -0.9762994189127455 0.2164242237611946 0.0
  outer loop
    vertex 0.028900146484379885 17.269380569458015 0.0
    vertex 0.06481933593749724 17.431413650512702 1.9999999999999998
    vertex 0.06481933593749724 17.431413650512702 0.0
  endloop
endfacet
facet normal -0.9914473314243328 0.13050742895164671 0.0
  outer loop
    vertex 0.028900146484379885 17.269380569458015 1.9999999999999998
    vertex 0.0072402954101542065 17.104833602905284 0.0
    vertex 0.0072402954101542065 17.104833602905284 1.9999999999999998
  endloop
endfacet
facet normal -0.9914473314243328 0.13050742895164671 0.0
  outer loop
    vertex 0.0072402954101542065 17.104833602905284 0.0
    vertex 0.028900146484379885 17.269380569458015 1.9999999999999998
    vertex 0.028900146484379885 17.269380569458015 0.0
  endloop
endfacet
facet normal -0.9990479439900393 0.04362574479909276 0.0
  outer loop
    vertex 0.0072402954101542065 17.104833602905284 1.9999999999999998
    vertex 0.0 16.939027786254893 0.0
    vertex 0.0 16.939027786254893 1.9999999999999998
  endloop
endfacet
facet normal -0.9990479439900393 0.04362574479909276 0.0
  outer loop
    vertex 0.0 16.939027786254893 0.0
    vertex 0.0072402954101542065 17.104833602905284 1.9999999999999998
    vertex 0.0072402954101542065 17.104833602905284 0.0
  endloop
endfacet
facet normal -1.0 0.0 0.0
  outer loop
    vertex 0.0 16.939027786254893 1.9999999999999998
    vertex 0.0 1.9024391174316424 0.0
    vertex 0.0 1.9024391174316424 1.9999999999999998
  endloop
endfacet
facet normal -1.0 0.0 0.0
  outer loop
    vertex 0.0 1.9024391174316424 0.0
    vertex 0.0 16.939027786254893 1.9999999999999998
    vertex 0.0 16.939027786254893 0.0
  endloop
endfacet
facet normal -0.9990479658623608 -0.04362524391083157 0.0
  outer loop
    vertex 0.0 1.9024391174316424 1.9999999999999998
    vertex 0.0072402954101542065 1.736631393432621 0.0
    vertex 0.0072402954101542065 1.736631393432621 1.9999999999999998
  endloop
endfacet
facet normal -0.9990479658623608 -0.04362524391083157 0.0
  outer loop
    vertex 0.0072402954101542065 1.736631393432621 0.0
    vertex 0.0 1.9024391174316424 1.9999999999999998
    vertex 0.0 1.9024391174316424 0.0
  endloop
endfacet
facet normal -0.9914473314243335 -0.13050742895164233 0.0
  outer loop
    vertex 0.0072402954101542065 1.736631393432621 1.9999999999999998
    vertex 0.028900146484379885 1.5720844268798844 0.0
    vertex 0.028900146484379885 1.5720844268798844 1.9999999999999998
  endloop
endfacet
facet normal -0.9914473314243335 -0.13050742895164233 0.0
  outer loop
    vertex 0.028900146484379885 1.5720844268798844 0.0
    vertex 0.0072402954101542065 1.736631393432621 1.9999999999999998
    vertex 0.0072402954101542065 1.736631393432621 0.0
  endloop
endfacet
facet normal -0.9762994189127455 -0.2164242237611946 0.0
  outer loop
    vertex 0.028900146484379885 1.5720844268798844 1.9999999999999998
    vertex 0.06481933593749724 1.4100513458251978 0.0
    vertex 0.06481933593749724 1.4100513458251978 1.9999999999999998
  endloop
endfacet
facet normal -0.9762994189127455 -0.2164242237611946 0.0
  outer loop
    vertex 0.06481933593749724 1.4100513458251978 0.0
    vertex 0.028900146484379885 1.5720844268798844 1.9999999999999998
    vertex 0.028900146484379885 1.5720844268798844 0.0
  endloop
endfacet
facet normal -0.9537093719463573 -0.3007298353367771 0.0
  outer loop
    vertex 0.06481933593749724 1.4100513458251978 1.9999999999999998
    vertex 0.11473083496093722 1.2517662048339842 0.0
    vertex 0.11473083496093722 1.2517662048339842 1.9999999999999998
  endloop
endfacet
facet normal -0.9537093719463573 -0.3007298353367771 0.0
  outer loop
    vertex 0.11473083496093722 1.2517662048339842 0.0
    vertex 0.06481933593749724 1.4100513458251978 1.9999999999999998
    vertex 0.06481933593749724 1.4100513458251978 0.0
  endloop
endfacet
facet normal -0.9238918943008646 -0.38265358700155944 0.0
  outer loop
    vertex 0.11473083496093722 1.2517662048339842 1.9999999999999998
    vertex 0.17823791503906383 1.0984325408935547 0.0
    vertex 0.17823791503906383 1.0984325408935547 1.9999999999999998
  endloop
endfacet
facet normal -0.9238918943008646 -0.38265358700155944 0.0
  outer loop
    vertex 0.17823791503906383 1.0984325408935547 0.0
    vertex 0.11473083496093722 1.2517662048339842 1.9999999999999998
    vertex 0.11473083496093722 1.2517662048339842 0.0
  endloop
endfacet
facet normal -0.8870033305613425 -0.46176302534209696 0.0
  outer loop
    vertex 0.17823791503906383 1.0984325408935547 1.9999999999999998
    vertex 0.2548751831054674 0.9512195587158212 0.0
    vertex 0.2548751831054674 0.9512195587158212 1.9999999999999998
  endloop
endfacet
facet normal -0.8870033305613425 -0.46176302534209696 0.0
  outer loop
    vertex 0.2548751831054674 0.9512195587158212 0.0
    vertex 0.17823791503906383 1.0984325408935547 1.9999999999999998
    vertex 0.17823791503906383 1.0984325408935547 0.0
  endloop
endfacet
facet normal -0.8433949622836034 -0.5372940885535957 0.0
  outer loop
    vertex 0.2548751831054674 0.9512195587158212 1.9999999999999998
    vertex 0.34404754638671653 0.8112449645996106 0.0
    vertex 0.34404754638671653 0.8112449645996106 1.9999999999999998
  endloop
endfacet
facet normal -0.8433949622836034 -0.5372940885535957 0.0
  outer loop
    vertex 0.34404754638671653 0.8112449645996106 0.0
    vertex 0.2548751831054674 0.9512195587158212 1.9999999999999998
    vertex 0.2548751831054674 0.9512195587158212 0.0
  endloop
endfacet
facet normal -0.7933471458449547 -0.6087695016832432 0.0
  outer loop
    vertex 0.34404754638671653 0.8112449645996106 1.9999999999999998
    vertex 0.4450836181640581 0.6795749664306693 0.0
    vertex 0.4450836181640581 0.6795749664306693 1.9999999999999998
  endloop
endfacet
facet normal -0.7933471458449547 -0.6087695016832432 0.0
  outer loop
    vertex 0.4450836181640581 0.6795749664306693 0.0
    vertex 0.34404754638671653 0.8112449645996106 1.9999999999999998
    vertex 0.34404754638671653 0.8112449645996106 0.0
  endloop
endfacet
facet normal -0.7372905607977085 -0.6755757758820254 0.0
  outer loop
    vertex 0.4450836181640581 0.6795749664306693 1.9999999999999998
    vertex 0.5572052001953162 0.5572109222412158 0.0
    vertex 0.5572052001953162 0.5572109222412158 1.9999999999999998
  endloop
endfacet
facet normal -0.7372905607977085 -0.6755757758820254 0.0
  outer loop
    vertex 0.5572052001953162 0.5572109222412158 0.0
    vertex 0.4450836181640581 0.6795749664306693 1.9999999999999998
    vertex 0.4450836181640581 0.6795749664306693 0.0
  endloop
endfacet
facet normal -0.6755768217056243 -0.7372896025132372 0.0
  outer loop
    vertex 0.6795730590820322 0.4450855255126951 1.9999999999999998
    vertex 0.5572052001953162 0.5572109222412158 0.0
    vertex 0.6795730590820322 0.4450855255126951 0.0
  endloop
endfacet
facet normal -0.6755768217056243 -0.7372896025132372 0.0
  outer loop
    vertex 0.5572052001953162 0.5572109222412158 0.0
    vertex 0.6795730590820322 0.4450855255126951 1.9999999999999998
    vertex 0.5572052001953162 0.5572109222412158 1.9999999999999998
  endloop
endfacet
facet normal -0.6087678187912886 -0.7933484371977403 0.0
  outer loop
    vertex 0.8112411499023479 0.3440513610839848 1.9999999999999998
    vertex 0.6795730590820322 0.4450855255126951 0.0
    vertex 0.8112411499023479 0.3440513610839848 0.0
  endloop
endfacet
facet normal -0.6087678187912886 -0.7933484371977403 0.0
  outer loop
    vertex 0.6795730590820322 0.4450855255126951 0.0
    vertex 0.8112411499023479 0.3440513610839848 1.9999999999999998
    vertex 0.6795730590820322 0.4450855255126951 1.9999999999999998
  endloop
endfacet
facet normal -0.537288880786225 -0.8433982799268004 0.0
  outer loop
    vertex 0.9512176513671842 0.25487899780273576 1.9999999999999998
    vertex 0.8112411499023479 0.3440513610839848 0.0
    vertex 0.9512176513671842 0.25487899780273576 0.0
  endloop
endfacet
facet normal -0.537288880786225 -0.8433982799268004 0.0
  outer loop
    vertex 0.8112411499023479 0.3440513610839848 0.0
    vertex 0.9512176513671842 0.25487899780273576 1.9999999999999998
    vertex 0.8112411499023479 0.3440513610839848 1.9999999999999998
  endloop
endfacet
facet normal -0.4617445694155774 -0.8870129382456735 0.0
  outer loop
    vertex 1.098434448242186 0.1782436370849635 1.9999999999999998
    vertex 0.9512176513671842 0.25487899780273576 0.0
    vertex 1.098434448242186 0.1782436370849635 0.0
  endloop
endfacet
facet normal -0.4617445694155774 -0.8870129382456735 0.0
  outer loop
    vertex 0.9512176513671842 0.25487899780273576 0.0
    vertex 1.098434448242186 0.1782436370849635 1.9999999999999998
    vertex 0.9512176513671842 0.25487899780273576 1.9999999999999998
  endloop
endfacet
facet normal -0.3826952053385293 -0.9238746558981371 0.0
  outer loop
    vertex 1.2517623901367159 0.11473083496093722 1.9999999999999998
    vertex 1.098434448242186 0.1782436370849635 0.0
    vertex 1.2517623901367159 0.11473083496093722 0.0
  endloop
endfacet
facet normal -0.3826952053385293 -0.9238746558981371 0.0
  outer loop
    vertex 1.098434448242186 0.1782436370849635 0.0
    vertex 1.2517623901367159 0.11473083496093722 1.9999999999999998
    vertex 1.098434448242186 0.1782436370849635 1.9999999999999998
  endloop
endfacet
facet normal -0.3007056333896581 -0.9537170031239481 0.0
  outer loop
    vertex 1.4100494384765607 0.06482315063476558 1.9999999999999998
    vertex 1.2517623901367159 0.11473083496093722 0.0
    vertex 1.4100494384765607 0.06482315063476558 0.0
  endloop
endfacet
facet normal -0.3007056333896581 -0.9537170031239481 0.0
  outer loop
    vertex 1.2517623901367159 0.11473083496093722 0.0
    vertex 1.4100494384765607 0.06482315063476558 1.9999999999999998
    vertex 1.2517623901367159 0.11473083496093722 1.9999999999999998
  endloop
endfacet
facet normal -0.21643517778966384 -0.976296990579791 0.0
  outer loop
    vertex 1.5720825195312473 0.02890205383301123 1.9999999999999998
    vertex 1.4100494384765607 0.06482315063476558 0.0
    vertex 1.5720825195312473 0.02890205383301123 0.0
  endloop
endfacet
facet normal -0.21643517778966384 -0.976296990579791 0.0
  outer loop
    vertex 1.4100494384765607 0.06482315063476558 0.0
    vertex 1.5720825195312473 0.02890205383301123 1.9999999999999998
    vertex 1.4100494384765607 0.06482315063476558 1.9999999999999998
  endloop
endfacet
facet normal -0.1305329967124989 -0.9914439655216299 0.0
  outer loop
    vertex 1.7366256713867156 0.007238388061528499 1.9999999999999998
    vertex 1.5720825195312473 0.02890205383301123 0.0
    vertex 1.7366256713867156 0.007238388061528499 0.0
  endloop
endfacet
facet normal -0.1305329967124989 -0.9914439655216299 0.0
  outer loop
    vertex 1.5720825195312473 0.02890205383301123 0.0
    vertex 1.7366256713867156 0.007238388061528499 1.9999999999999998
    vertex 1.5720825195312473 0.02890205383301123 1.9999999999999998
  endloop
endfacet
facet normal -0.04361327260398161 -0.9990484885393556 0.0
  outer loop
    vertex 1.9024353027343797 0.0 1.9999999999999998
    vertex 1.7366256713867156 0.007238388061528499 0.0
    vertex 1.9024353027343797 0.0 0.0
  endloop
endfacet
facet normal -0.04361327260398161 -0.9990484885393556 0.0
  outer loop
    vertex 1.7366256713867156 0.007238388061528499 0.0
    vertex 1.9024353027343797 0.0 1.9999999999999998
    vertex 1.7366256713867156 0.007238388061528499 1.9999999999999998
  endloop
endfacet
facet normal 0.0 -1.0 0.0
  outer loop
    vertex 14.585365295410154 0.0 1.9999999999999998
    vertex 1.9024353027343797 0.0 0.0
    vertex 14.585365295410154 0.0 0.0
  endloop
endfacet
facet normal 0.0 -1.0 0.0
  outer loop
    vertex 1.9024353027343797 0.0 0.0
    vertex 14.585365295410154 0.0 1.9999999999999998
    vertex 1.9024353027343797 0.0 1.9999999999999998
  endloop
endfacet
facet normal 0.04361327260398457 -0.9990484885393555 0.0
  outer loop
    vertex 14.751174926757807 0.007238388061528499 1.9999999999999998
    vertex 14.585365295410154 0.0 0.0
    vertex 14.751174926757807 0.007238388061528499 0.0
  endloop
endfacet
facet normal 0.04361327260398457 -0.9990484885393555 0.0
  outer loop
    vertex 14.585365295410154 0.0 0.0
    vertex 14.751174926757807 0.007238388061528499 1.9999999999999998
    vertex 14.585365295410154 0.0 1.9999999999999998
  endloop
endfacet
facet normal 0.1305329967124989 -0.9914439655216299 0.0
  outer loop
    vertex 14.915718078613276 0.02890205383301123 1.9999999999999998
    vertex 14.751174926757807 0.007238388061528499 0.0
    vertex 14.915718078613276 0.02890205383301123 0.0
  endloop
endfacet
facet normal 0.1305329967124989 -0.9914439655216299 0.0
  outer loop
    vertex 14.751174926757807 0.007238388061528499 0.0
    vertex 14.915718078613276 0.02890205383301123 1.9999999999999998
    vertex 14.751174926757807 0.007238388061528499 1.9999999999999998
  endloop
endfacet
facet normal 0.21643517778966384 -0.976296990579791 0.0
  outer loop
    vertex 15.077751159667963 0.06482315063476558 1.9999999999999998
    vertex 14.915718078613276 0.02890205383301123 0.0
    vertex 15.077751159667963 0.06482315063476558 0.0
  endloop
endfacet
facet normal 0.21643517778966384 -0.976296990579791 0.0
  outer loop
    vertex 14.915718078613276 0.02890205383301123 0.0
    vertex 15.077751159667963 0.06482315063476558 1.9999999999999998
    vertex 14.915718078613276 0.02890205383301123 1.9999999999999998
  endloop
endfacet
facet normal 0.3007056333896581 -0.9537170031239481 0.0
  outer loop
    vertex 15.236038208007807 0.11473083496093722 1.9999999999999998
    vertex 15.077751159667963 0.06482315063476558 0.0
    vertex 15.236038208007807 0.11473083496093722 0.0
  endloop
endfacet
facet normal 0.3007056333896581 -0.9537170031239481 0.0
  outer loop
    vertex 15.077751159667963 0.06482315063476558 0.0
    vertex 15.236038208007807 0.11473083496093722 1.9999999999999998
    vertex 15.077751159667963 0.06482315063476558 1.9999999999999998
  endloop
endfacet
facet normal 0.3826952053385293 -0.9238746558981371 0.0
  outer loop
    vertex 15.389366149902337 0.1782436370849635 1.9999999999999998
    vertex 15.236038208007807 0.11473083496093722 0.0
    vertex 15.389366149902337 0.1782436370849635 0.0
  endloop
endfacet
facet normal 0.3826952053385293 -0.9238746558981371 0.0
  outer loop
    vertex 15.236038208007807 0.11473083496093722 0.0
    vertex 15.389366149902337 0.1782436370849635 1.9999999999999998
    vertex 15.236038208007807 0.11473083496093722 1.9999999999999998
  endloop
endfacet
facet normal 0.4617445694155774 -0.8870129382456735 0.0
  outer loop
    vertex 15.536582946777338 0.25487899780273576 1.9999999999999998
    vertex 15.389366149902337 0.1782436370849635 0.0
    vertex 15.536582946777338 0.25487899780273576 0.0
  endloop
endfacet
facet normal 0.4617445694155774 -0.8870129382456735 0.0
  outer loop
    vertex 15.389366149902337 0.1782436370849635 0.0
    vertex 15.536582946777338 0.25487899780273576 1.9999999999999998
    vertex 15.389366149902337 0.1782436370849635 1.9999999999999998
  endloop
endfacet
facet normal 0.5372888807861943 -0.8433982799268203 0.0
  outer loop
    vertex 15.676559448242188 0.3440513610839848 1.9999999999999998
    vertex 15.536582946777338 0.25487899780273576 0.0
    vertex 15.676559448242188 0.3440513610839848 0.0
  endloop
endfacet
facet normal 0.5372888807861943 -0.8433982799268203 0.0
  outer loop
    vertex 15.536582946777338 0.25487899780273576 0.0
    vertex 15.676559448242188 0.3440513610839848 1.9999999999999998
    vertex 15.536582946777338 0.25487899780273576 1.9999999999999998
  endloop
endfacet
facet normal 0.6087678187912886 -0.7933484371977403 0.0
  outer loop
    vertex 15.808227539062502 0.4450855255126951 1.9999999999999998
    vertex 15.676559448242188 0.3440513610839848 0.0
    vertex 15.808227539062502 0.4450855255126951 0.0
  endloop
endfacet
facet normal 0.6087678187912886 -0.7933484371977403 0.0
  outer loop
    vertex 15.676559448242188 0.3440513610839848 0.0
    vertex 15.808227539062502 0.4450855255126951 1.9999999999999998
    vertex 15.676559448242188 0.3440513610839848 1.9999999999999998
  endloop
endfacet
facet normal 0.675599718896922 -0.7372686212137338 0.0
  outer loop
    vertex 15.930587768554682 0.5572109222412158 1.9999999999999998
    vertex 15.808227539062502 0.4450855255126951 0.0
    vertex 15.930587768554682 0.5572109222412158 0.0
  endloop
endfacet
facet normal 0.675599718896922 -0.7372686212137338 0.0
  outer loop
    vertex 15.808227539062502 0.4450855255126951 0.0
    vertex 15.930587768554682 0.5572109222412158 1.9999999999999998
    vertex 15.808227539062502 0.4450855255126951 1.9999999999999998
  endloop
endfacet
facet normal 0.7372676636064472 -0.6756007639133416 0.0
  outer loop
    vertex 16.042716979980465 0.6795749664306693 0.0
    vertex 15.930587768554682 0.5572109222412158 1.9999999999999998
    vertex 15.930587768554682 0.5572109222412158 0.0
  endloop
endfacet
facet normal 0.7372676636064472 -0.6756007639133416 0.0
  outer loop
    vertex 15.930587768554682 0.5572109222412158 1.9999999999999998
    vertex 16.042716979980465 0.6795749664306693 0.0
    vertex 16.042716979980465 0.6795749664306693 1.9999999999999998
  endloop
endfacet
facet normal 0.7933471458449547 -0.6087695016832432 0.0
  outer loop
    vertex 16.143753051757805 0.8112449645996106 0.0
    vertex 16.042716979980465 0.6795749664306693 1.9999999999999998
    vertex 16.042716979980465 0.6795749664306693 0.0
  endloop
endfacet
facet normal 0.7933471458449547 -0.6087695016832432 0.0
  outer loop
    vertex 16.042716979980465 0.6795749664306693 1.9999999999999998
    vertex 16.143753051757805 0.8112449645996106 0.0
    vertex 16.143753051757805 0.8112449645996106 1.9999999999999998
  endloop
endfacet
facet normal 0.8433949622836034 -0.5372940885535957 0.0
  outer loop
    vertex 16.232925415039055 0.9512195587158212 0.0
    vertex 16.143753051757805 0.8112449645996106 1.9999999999999998
    vertex 16.143753051757805 0.8112449645996106 0.0
  endloop
endfacet
facet normal 0.8433949622836034 -0.5372940885535957 0.0
  outer loop
    vertex 16.143753051757805 0.8112449645996106 1.9999999999999998
    vertex 16.232925415039055 0.9512195587158212 0.0
    vertex 16.232925415039055 0.9512195587158212 1.9999999999999998
  endloop
endfacet
facet normal 0.8870221586323909 -0.4617268565885394 0.0
  outer loop
    vertex 16.309555053710934 1.0984325408935547 0.0
    vertex 16.232925415039055 0.9512195587158212 1.9999999999999998
    vertex 16.232925415039055 0.9512195587158212 0.0
  endloop
endfacet
facet normal 0.8870221586323909 -0.4617268565885394 0.0
  outer loop
    vertex 16.232925415039055 0.9512195587158212 1.9999999999999998
    vertex 16.309555053710934 1.0984325408935547 0.0
    vertex 16.309555053710934 1.0984325408935547 1.9999999999999998
  endloop
endfacet
facet normal 0.9238756419836796 -0.3826928247945657 0.0
  outer loop
    vertex 16.373069763183597 1.2517662048339842 0.0
    vertex 16.309555053710934 1.0984325408935547 1.9999999999999998
    vertex 16.309555053710934 1.0984325408935547 0.0
  endloop
endfacet
facet normal 0.9238756419836796 -0.3826928247945657 0.0
  outer loop
    vertex 16.309555053710934 1.0984325408935547 1.9999999999999998
    vertex 16.373069763183597 1.2517662048339842 0.0
    vertex 16.373069763183597 1.2517662048339842 1.9999999999999998
  endloop
endfacet
facet normal 0.9537093719463766 -0.3007298353367152 0.0
  outer loop
    vertex 16.422981262207028 1.4100513458251978 0.0
    vertex 16.373069763183597 1.2517662048339842 1.9999999999999998
    vertex 16.373069763183597 1.2517662048339842 0.0
  endloop
endfacet
facet normal 0.9537093719463766 -0.3007298353367152 0.0
  outer loop
    vertex 16.373069763183597 1.2517662048339842 1.9999999999999998
    vertex 16.422981262207028 1.4100513458251978 0.0
    vertex 16.422981262207028 1.4100513458251978 1.9999999999999998
  endloop
endfacet
facet normal 0.9762994189127312 -0.21642422376125942 0.0
  outer loop
    vertex 16.458900451660156 1.5720844268798844 0.0
    vertex 16.422981262207028 1.4100513458251978 1.9999999999999998
    vertex 16.422981262207028 1.4100513458251978 0.0
  endloop
endfacet
facet normal 0.9762994189127312 -0.21642422376125942 0.0
  outer loop
    vertex 16.422981262207028 1.4100513458251978 1.9999999999999998
    vertex 16.458900451660156 1.5720844268798844 0.0
    vertex 16.458900451660156 1.5720844268798844 1.9999999999999998
  endloop
endfacet
facet normal 0.9914473314243423 -0.13050742895157552 0.0
  outer loop
    vertex 16.480560302734368 1.736631393432621 0.0
    vertex 16.458900451660156 1.5720844268798844 1.9999999999999998
    vertex 16.458900451660156 1.5720844268798844 0.0
  endloop
endfacet
facet normal 0.9914473314243423 -0.13050742895157552 0.0
  outer loop
    vertex 16.458900451660156 1.5720844268798844 1.9999999999999998
    vertex 16.480560302734368 1.736631393432621 0.0
    vertex 16.480560302734368 1.736631393432621 1.9999999999999998
  endloop
endfacet
facet normal 0.9990479658623578 -0.043625243910899406 0.0
  outer loop
    vertex 16.487800598144535 1.9024391174316424 0.0
    vertex 16.480560302734368 1.736631393432621 1.9999999999999998
    vertex 16.480560302734368 1.736631393432621 0.0
  endloop
endfacet
facet normal 0.9990479658623578 -0.043625243910899406 0.0
  outer loop
    vertex 16.480560302734368 1.736631393432621 1.9999999999999998
    vertex 16.487800598144535 1.9024391174316424 0.0
    vertex 16.487800598144535 1.9024391174316424 1.9999999999999998
  endloop
endfacet
facet normal 1.0 0.0 0.0
  outer loop
    vertex 16.487800598144535 16.939027786254893 0.0
    vertex 16.487800598144535 1.9024391174316424 1.9999999999999998
    vertex 16.487800598144535 1.9024391174316424 0.0
  endloop
endfacet
facet normal 1.0 0.0 0.0
  outer loop
    vertex 16.487800598144535 1.9024391174316424 1.9999999999999998
    vertex 16.487800598144535 16.939027786254893 0.0
    vertex 16.487800598144535 16.939027786254893 1.9999999999999998
  endloop
endfacet
facet normal 0.9990479439900364 0.04362574479916059 -0.0
  outer loop
    vertex 16.480560302734368 17.104833602905284 0.0
    vertex 16.487800598144535 16.939027786254893 1.9999999999999998
    vertex 16.487800598144535 16.939027786254893 0.0
  endloop
endfacet
facet normal 0.9990479439900364 0.04362574479916059 -0.0
  outer loop
    vertex 16.487800598144535 16.939027786254893 1.9999999999999998
    vertex 16.480560302734368 17.104833602905284 0.0
    vertex 16.480560302734368 17.104833602905284 1.9999999999999998
  endloop
endfacet
facet normal 0.9914473314243418 0.13050742895157993 -0.0
  outer loop
    vertex 16.458900451660156 17.269380569458015 0.0
    vertex 16.480560302734368 17.104833602905284 1.9999999999999998
    vertex 16.480560302734368 17.104833602905284 0.0
  endloop
endfacet
facet normal 0.9914473314243418 0.13050742895157993 -0.0
  outer loop
    vertex 16.480560302734368 17.104833602905284 1.9999999999999998
    vertex 16.458900451660156 17.269380569458015 0.0
    vertex 16.458900451660156 17.269380569458015 1.9999999999999998
  endloop
endfacet
facet normal 0.9762994189127312 0.21642422376125942 -0.0
  outer loop
    vertex 16.422981262207028 17.431413650512702 0.0
    vertex 16.458900451660156 17.269380569458015 1.9999999999999998
    vertex 16.458900451660156 17.269380569458015 0.0
  endloop
endfacet
facet normal 0.9762994189127312 0.21642422376125942 -0.0
  outer loop
    vertex 16.458900451660156 17.269380569458015 1.9999999999999998
    vertex 16.422981262207028 17.431413650512702 0.0
    vertex 16.422981262207028 17.431413650512702 1.9999999999999998
  endloop
endfacet
facet normal 0.9537083325859959 0.3007331314571772 -0.0
  outer loop
    vertex 16.373069763183597 17.589696884155284 0.0
    vertex 16.422981262207028 17.431413650512702 1.9999999999999998
    vertex 16.422981262207028 17.431413650512702 0.0
  endloop
endfacet
facet normal 0.9537083325859959 0.3007331314571772 -0.0
  outer loop
    vertex 16.422981262207028 17.431413650512702 1.9999999999999998
    vertex 16.373069763183597 17.589696884155284 0.0
    vertex 16.373069763183597 17.589696884155284 1.9999999999999998
  endloop
endfacet
facet normal 0.9238773250444876 0.38268876161790055 -0.0
  outer loop
    vertex 16.309555053710934 17.74303245544434 0.0
    vertex 16.373069763183597 17.589696884155284 1.9999999999999998
    vertex 16.373069763183597 17.589696884155284 0.0
  endloop
endfacet
facet normal 0.9238773250444876 0.38268876161790055 -0.0
  outer loop
    vertex 16.373069763183597 17.589696884155284 1.9999999999999998
    vertex 16.309555053710934 17.74303245544434 0.0
    vertex 16.309555053710934 17.74303245544434 1.9999999999999998
  endloop
endfacet
facet normal 0.8870221586324053 0.46172685658851154 -0.0
  outer loop
    vertex 16.232925415039055 17.890245437622085 0.0
    vertex 16.309555053710934 17.74303245544434 1.9999999999999998
    vertex 16.309555053710934 17.74303245544434 0.0
  endloop
endfacet
facet normal 0.8870221586324053 0.46172685658851154 -0.0
  outer loop
    vertex 16.309555053710934 17.74303245544434 1.9999999999999998
    vertex 16.232925415039055 17.890245437622085 0.0
    vertex 16.232925415039055 17.890245437622085 1.9999999999999998
  endloop
endfacet
facet normal 0.8433982799268004 0.537288880786225 -0.0
  outer loop
    vertex 16.143753051757805 18.03022193908692 0.0
    vertex 16.232925415039055 17.890245437622085 1.9999999999999998
    vertex 16.232925415039055 17.890245437622085 0.0
  endloop
endfacet
facet normal 0.8433982799268004 0.537288880786225 -0.0
  outer loop
    vertex 16.232925415039055 17.890245437622085 1.9999999999999998
    vertex 16.143753051757805 18.03022193908692 0.0
    vertex 16.143753051757805 18.03022193908692 1.9999999999999998
  endloop
endfacet
facet normal 0.7933428867410941 0.6087750520983162 -0.0
  outer loop
    vertex 16.042716979980465 18.161890029907223 0.0
    vertex 16.143753051757805 18.03022193908692 1.9999999999999998
    vertex 16.143753051757805 18.03022193908692 0.0
  endloop
endfacet
facet normal 0.7933428867410941 0.6087750520983162 -0.0
  outer loop
    vertex 16.143753051757805 18.03022193908692 1.9999999999999998
    vertex 16.042716979980465 18.161890029907223 0.0
    vertex 16.042716979980465 18.161890029907223 1.9999999999999998
  endloop
endfacet
facet normal 0.7372676636064472 0.6756007639133416 -0.0
  outer loop
    vertex 15.930587768554682 18.284254074096676 0.0
    vertex 16.042716979980465 18.161890029907223 1.9999999999999998
    vertex 16.042716979980465 18.161890029907223 0.0
  endloop
endfacet
facet normal 0.7372676636064472 0.6756007639133416 -0.0
  outer loop
    vertex 16.042716979980465 18.161890029907223 1.9999999999999998
    vertex 15.930587768554682 18.284254074096676 0.0
    vertex 15.930587768554682 18.284254074096676 1.9999999999999998
  endloop
endfacet
facet normal 0.675599718896959 0.7372686212137 -0.0
  outer loop
    vertex 15.808227539062502 18.39637947082521 1.9999999999999998
    vertex 15.930587768554682 18.284254074096676 0.0
    vertex 15.808227539062502 18.39637947082521 0.0
  endloop
endfacet
facet normal 0.675599718896959 0.7372686212137 -0.0
  outer loop
    vertex 15.930587768554682 18.284254074096676 0.0
    vertex 15.808227539062502 18.39637947082521 1.9999999999999998
    vertex 15.930587768554682 18.284254074096676 1.9999999999999998
  endloop
endfacet
facet normal 0.6087605853324314 0.7933539876661082 -0.0
  outer loop
    vertex 15.676559448242188 18.497411727905277 1.9999999999999998
    vertex 15.808227539062502 18.39637947082521 0.0
    vertex 15.676559448242188 18.497411727905277 0.0
  endloop
endfacet
facet normal 0.6087605853324314 0.7933539876661082 -0.0
  outer loop
    vertex 15.808227539062502 18.39637947082521 0.0
    vertex 15.676559448242188 18.497411727905277 1.9999999999999998
    vertex 15.808227539062502 18.39637947082521 1.9999999999999998
  endloop
endfacet
facet normal 0.5373052299306925 0.8433878644426454 -0.0
  outer loop
    vertex 15.536582946777338 18.5865879058838 1.9999999999999998
    vertex 15.676559448242188 18.497411727905277 0.0
    vertex 15.536582946777338 18.5865879058838 0.0
  endloop
endfacet
facet normal 0.5373052299306925 0.8433878644426454 -0.0
  outer loop
    vertex 15.676559448242188 18.497411727905277 0.0
    vertex 15.536582946777338 18.5865879058838 1.9999999999999998
    vertex 15.676559448242188 18.497411727905277 1.9999999999999998
  endloop
endfacet
facet normal 0.4617355273835463 0.8870176451186517 -0.0
  outer loop
    vertex 15.389366149902337 18.66322135925293 1.9999999999999998
    vertex 15.536582946777338 18.5865879058838 0.0
    vertex 15.389366149902337 18.66322135925293 0.0
  endloop
endfacet
facet normal 0.4617355273835463 0.8870176451186517 -0.0
  outer loop
    vertex 15.536582946777338 18.5865879058838 0.0
    vertex 15.389366149902337 18.66322135925293 1.9999999999999998
    vertex 15.536582946777338 18.5865879058838 1.9999999999999998
  endloop
endfacet
facet normal 0.3826853957497889 0.923878719248272 -0.0
  outer loop
    vertex 15.236038208007807 18.72673225402833 1.9999999999999998
    vertex 15.389366149902337 18.66322135925293 0.0
    vertex 15.236038208007807 18.72673225402833 0.0
  endloop
endfacet
facet normal 0.3826853957497889 0.923878719248272 -0.0
  outer loop
    vertex 15.389366149902337 18.66322135925293 0.0
    vertex 15.236038208007807 18.72673225402833 1.9999999999999998
    vertex 15.389366149902337 18.66322135925293 1.9999999999999998
  endloop
endfacet
facet normal 0.3007056333896272 0.9537170031239579 -0.0
  outer loop
    vertex 15.077751159667963 18.776639938354496 1.9999999999999998
    vertex 15.236038208007807 18.72673225402833 0.0
    vertex 15.077751159667963 18.776639938354496 0.0
  endloop
endfacet
facet normal 0.3007056333896272 0.9537170031239579 -0.0
  outer loop
    vertex 15.236038208007807 18.72673225402833 0.0
    vertex 15.077751159667963 18.776639938354496 1.9999999999999998
    vertex 15.236038208007807 18.72673225402833 1.9999999999999998
  endloop
endfacet
facet normal 0.21644613173639407 0.9762945621360143 -0.0
  outer loop
    vertex 14.915718078613276 18.812562942504886 1.9999999999999998
    vertex 15.077751159667963 18.776639938354496 0.0
    vertex 14.915718078613276 18.812562942504886 0.0
  endloop
endfacet
facet normal 0.21644613173639407 0.9762945621360143 -0.0
  outer loop
    vertex 15.077751159667963 18.776639938354496 0.0
    vertex 14.915718078613276 18.812562942504886 1.9999999999999998
    vertex 15.077751159667963 18.776639938354496 1.9999999999999998
  endloop
endfacet
facet normal 0.1305329967124655 0.9914439655216343 -0.0
  outer loop
    vertex 14.751174926757807 18.834226608276364 1.9999999999999998
    vertex 14.915718078613276 18.812562942504886 0.0
    vertex 14.751174926757807 18.834226608276364 0.0
  endloop
endfacet
facet normal 0.1305329967124655 0.9914439655216343 -0.0
  outer loop
    vertex 14.915718078613276 18.812562942504886 0.0
    vertex 14.751174926757807 18.834226608276364 1.9999999999999998
    vertex 14.915718078613276 18.812562942504886 1.9999999999999998
  endloop
endfacet
facet normal 0.04362474303412899 0.9990479877339258 -0.0
  outer loop
    vertex 14.585365295410154 18.84146690368653 1.9999999999999998
    vertex 14.751174926757807 18.834226608276364 0.0
    vertex 14.585365295410154 18.84146690368653 0.0
  endloop
endfacet
facet normal 0.04362474303412899 0.9990479877339258 -0.0
  outer loop
    vertex 14.751174926757807 18.834226608276364 0.0
    vertex 14.585365295410154 18.84146690368653 1.9999999999999998
    vertex 14.751174926757807 18.834226608276364 1.9999999999999998
  endloop
endfacet
facet normal 0.0 1.0 -0.0
  outer loop
    vertex 1.9024353027343797 18.84146690368653 1.9999999999999998
    vertex 14.585365295410154 18.84146690368653 0.0
    vertex 1.9024353027343797 18.84146690368653 0.0
  endloop
endfacet
facet normal 0.0 1.0 -0.0
  outer loop
    vertex 14.585365295410154 18.84146690368653 0.0
    vertex 1.9024353027343797 18.84146690368653 1.9999999999999998
    vertex 14.585365295410154 18.84146690368653 1.9999999999999998
  endloop
endfacet
facet normal -0.043624743034126036 0.999047987733926 0.0
  outer loop
    vertex 1.7366256713867156 18.834226608276364 1.9999999999999998
    vertex 1.9024353027343797 18.84146690368653 0.0
    vertex 1.7366256713867156 18.834226608276364 0.0
  endloop
endfacet
facet normal -0.043624743034126036 0.999047987733926 0.0
  outer loop
    vertex 1.9024353027343797 18.84146690368653 0.0
    vertex 1.7366256713867156 18.834226608276364 1.9999999999999998
    vertex 1.9024353027343797 18.84146690368653 1.9999999999999998
  endloop
endfacet
facet normal -0.1305329967124655 0.9914439655216343 0.0
  outer loop
    vertex 1.5720825195312473 18.812562942504886 1.9999999999999998
    vertex 1.7366256713867156 18.834226608276364 0.0
    vertex 1.5720825195312473 18.812562942504886 0.0
  endloop
endfacet
facet normal -0.1305329967124655 0.9914439655216343 0.0
  outer loop
    vertex 1.7366256713867156 18.834226608276364 0.0
    vertex 1.5720825195312473 18.812562942504886 1.9999999999999998
    vertex 1.7366256713867156 18.834226608276364 1.9999999999999998
  endloop
endfacet
facet normal -0.21644613173639407 0.9762945621360143 0.0
  outer loop
    vertex 1.4100494384765607 18.776639938354496 1.9999999999999998
    vertex 1.5720825195312473 18.812562942504886 0.0
    vertex 1.4100494384765607 18.776639938354496 0.0
  endloop
endfacet
facet normal -0.21644613173639407 0.9762945621360143 0.0
  outer loop
    vertex 1.5720825195312473 18.812562942504886 0.0
    vertex 1.4100494384765607 18.776639938354496 1.9999999999999998
    vertex 1.5720825195312473 18.812562942504886 1.9999999999999998
  endloop
endfacet
facet normal -0.3007056333896272 0.9537170031239579 0.0
  outer loop
    vertex 1.2517623901367159 18.72673225402833 1.9999999999999998
    vertex 1.4100494384765607 18.776639938354496 0.0
    vertex 1.2517623901367159 18.72673225402833 0.0
  endloop
endfacet
facet normal -0.3007056333896272 0.9537170031239579 0.0
  outer loop
    vertex 1.4100494384765607 18.776639938354496 0.0
    vertex 1.2517623901367159 18.72673225402833 1.9999999999999998
    vertex 1.4100494384765607 18.776639938354496 1.9999999999999998
  endloop
endfacet
facet normal -0.3826853957497889 0.923878719248272 0.0
  outer loop
    vertex 1.098434448242186 18.66322135925293 1.9999999999999998
    vertex 1.2517623901367159 18.72673225402833 0.0
    vertex 1.098434448242186 18.66322135925293 0.0
  endloop
endfacet
facet normal -0.3826853957497889 0.923878719248272 0.0
  outer loop
    vertex 1.2517623901367159 18.72673225402833 0.0
    vertex 1.098434448242186 18.66322135925293 1.9999999999999998
    vertex 1.2517623901367159 18.72673225402833 1.9999999999999998
  endloop
endfacet
facet normal -0.4617355273835463 0.8870176451186517 0.0
  outer loop
    vertex 0.9512176513671842 18.5865879058838 1.9999999999999998
    vertex 1.098434448242186 18.66322135925293 0.0
    vertex 0.9512176513671842 18.5865879058838 0.0
  endloop
endfacet
facet normal -0.4617355273835463 0.8870176451186517 0.0
  outer loop
    vertex 1.098434448242186 18.66322135925293 0.0
    vertex 0.9512176513671842 18.5865879058838 1.9999999999999998
    vertex 1.098434448242186 18.66322135925293 1.9999999999999998
  endloop
endfacet
facet normal -0.5373052299307233 0.8433878644426256 0.0
  outer loop
    vertex 0.8112411499023479 18.497411727905277 1.9999999999999998
    vertex 0.9512176513671842 18.5865879058838 0.0
    vertex 0.8112411499023479 18.497411727905277 0.0
  endloop
endfacet
facet normal -0.5373052299307233 0.8433878644426256 0.0
  outer loop
    vertex 0.9512176513671842 18.5865879058838 0.0
    vertex 0.8112411499023479 18.497411727905277 1.9999999999999998
    vertex 0.9512176513671842 18.5865879058838 1.9999999999999998
  endloop
endfacet
facet normal -0.6087605853324314 0.7933539876661082 0.0
  outer loop
    vertex 0.6795730590820322 18.39637947082521 1.9999999999999998
    vertex 0.8112411499023479 18.497411727905277 0.0
    vertex 0.6795730590820322 18.39637947082521 0.0
  endloop
endfacet
facet normal -0.6087605853324314 0.7933539876661082 0.0
  outer loop
    vertex 0.8112411499023479 18.497411727905277 0.0
    vertex 0.6795730590820322 18.39637947082521 1.9999999999999998
    vertex 0.8112411499023479 18.497411727905277 1.9999999999999998
  endloop
endfacet
facet normal -0.6755768217056611 0.7372896025132033 0.0
  outer loop
    vertex 0.5572052001953162 18.284254074096676 1.9999999999999998
    vertex 0.6795730590820322 18.39637947082521 0.0
    vertex 0.5572052001953162 18.284254074096676 0.0
  endloop
endfacet
facet normal -0.6755768217056611 0.7372896025132033 0.0
  outer loop
    vertex 0.6795730590820322 18.39637947082521 0.0
    vertex 0.5572052001953162 18.284254074096676 1.9999999999999998
    vertex 0.6795730590820322 18.39637947082521 1.9999999999999998
  endloop
endfacet
facet normal -0.7372905607977085 0.6755757758820254 0.0
  outer loop
    vertex 0.5572052001953162 18.284254074096676 1.9999999999999998
    vertex 0.4450836181640581 18.161890029907223 0.0
    vertex 0.4450836181640581 18.161890029907223 1.9999999999999998
  endloop
endfacet
facet normal -0.7372905607977085 0.6755757758820254 0.0
  outer loop
    vertex 0.4450836181640581 18.161890029907223 0.0
    vertex 0.5572052001953162 18.284254074096676 1.9999999999999998
    vertex 0.5572052001953162 18.284254074096676 0.0
  endloop
endfacet
facet normal -0.7933428867410941 0.6087750520983162 0.0
  outer loop
    vertex 0.4450836181640581 18.161890029907223 1.9999999999999998
    vertex 0.34404754638671653 18.03022193908692 0.0
    vertex 0.34404754638671653 18.03022193908692 1.9999999999999998
  endloop
endfacet
facet normal -0.7933428867410941 0.6087750520983162 0.0
  outer loop
    vertex 0.34404754638671653 18.03022193908692 0.0
    vertex 0.4450836181640581 18.161890029907223 1.9999999999999998
    vertex 0.4450836181640581 18.161890029907223 0.0
  endloop
endfacet
facet normal -0.8433982799268004 0.537288880786225 0.0
  outer loop
    vertex 0.34404754638671653 18.03022193908692 1.9999999999999998
    vertex 0.2548751831054674 17.890245437622085 0.0
    vertex 0.2548751831054674 17.890245437622085 1.9999999999999998
  endloop
endfacet
facet normal -0.8433982799268004 0.537288880786225 0.0
  outer loop
    vertex 0.2548751831054674 17.890245437622085 0.0
    vertex 0.34404754638671653 18.03022193908692 1.9999999999999998
    vertex 0.34404754638671653 18.03022193908692 0.0
  endloop
endfacet
facet normal -1.0 0.0 0.0
  outer loop
    vertex 6.341461181640625 15.670732498168949 1.9999999999999998
    vertex 6.341461181640625 3.1707324981689493 0.0
    vertex 6.341461181640625 3.1707324981689493 1.9999999999999998
  endloop
endfacet
facet normal -1.0 0.0 0.0
  outer loop
    vertex 6.341461181640625 3.1707324981689493 0.0
    vertex 6.341461181640625 15.670732498168949 1.9999999999999998
    vertex 6.341461181640625 15.670732498168949 0.0
  endloop
endfacet
facet normal 0.0 1.0 -0.0
  outer loop
    vertex 3.1707305908203125 3.1707324981689493 1.9999999999999998
    vertex 6.341461181640625 3.1707324981689493 0.0
    vertex 3.1707305908203125 3.1707324981689493 0.0
  endloop
endfacet
facet normal 0.0 1.0 -0.0
  outer loop
    vertex 6.341461181640625 3.1707324981689493 0.0
    vertex 3.1707305908203125 3.1707324981689493 1.9999999999999998
    vertex 6.341461181640625 3.1707324981689493 1.9999999999999998
  endloop
endfacet
facet normal 1.0 0.0 0.0
  outer loop
    vertex 3.1707305908203125 15.670732498168949 0.0
    vertex 3.1707305908203125 3.1707324981689493 1.9999999999999998
    vertex 3.1707305908203125 3.1707324981689493 0.0
  endloop
endfacet
facet normal 1.0 0.0 0.0
  outer loop
    vertex 3.1707305908203125 3.1707324981689493 1.9999999999999998
    vertex 3.1707305908203125 15.670732498168949 0.0
    vertex 3.1707305908203125 15.670732498168949 1.9999999999999998
  endloop
endfacet
facet normal 0.0 -1.0 0.0
  outer loop
    vertex 6.341461181640625 15.670732498168949 1.9999999999999998
    vertex 3.1707305908203125 15.670732498168949 0.0
    vertex 6.341461181640625 15.670732498168949 0.0
  endloop
endfacet
facet normal 0.0 -1.0 0.0
  outer loop
    vertex 3.1707305908203125 15.670732498168949 0.0
    vertex 6.341461181640625 15.670732498168949 1.9999999999999998
    vertex 3.1707305908203125 15.670732498168949 1.9999999999999998
  endloop
endfacet
facet normal 0.0 1.0 -0.0
  outer loop
    vertex 10.14633941650391 3.1707324981689493 1.9999999999999998
    vertex 13.317070007324222 3.1707324981689493 0.0
    vertex 10.14633941650391 3.1707324981689493 0.0
  endloop
endfacet
facet normal 0.0 1.0 -0.0
  outer loop
    vertex 13.317070007324222 3.1707324981689493 0.0
    vertex 10.14633941650391 3.1707324981689493 1.9999999999999998
    vertex 13.317070007324222 3.1707324981689493 1.9999999999999998
  endloop
endfacet
facet normal 1.0 0.0 0.0
  outer loop
    vertex 10.14633941650391 15.670732498168949 0.0
    vertex 10.14633941650391 3.1707324981689493 1.9999999999999998
    vertex 10.14633941650391 3.1707324981689493 0.0
  endloop
endfacet
facet normal 1.0 0.0 0.0
  outer loop
    vertex 10.14633941650391 3.1707324981689493 1.9999999999999998
    vertex 10.14633941650391 15.670732498168949 0.0
    vertex 10.14633941650391 15.670732498168949 1.9999999999999998
  endloop
endfacet
facet normal 0.0 -1.0 0.0
  outer loop
    vertex 13.317070007324222 15.670732498168949 1.9999999999999998
    vertex 10.14633941650391 15.670732498168949 0.0
    vertex 13.317070007324222 15.670732498168949 0.0
  endloop
endfacet
facet normal 0.0 -1.0 0.0
  outer loop
    vertex 10.14633941650391 15.670732498168949 0.0
    vertex 13.317070007324222 15.670732498168949 1.9999999999999998
    vertex 10.14633941650391 15.670732498168949 1.9999999999999998
  endloop
endfacet
facet normal -1.0 0.0 0.0
  outer loop
    vertex 13.317070007324222 15.670732498168949 1.9999999999999998
    vertex 13.317070007324222 3.1707324981689493 0.0
    vertex 13.317070007324222 3.1707324981689493 1.9999999999999998
  endloop
endfacet
facet normal -1.0 0.0 0.0
  outer loop
    vertex 13.317070007324222 3.1707324981689493 0.0
    vertex 13.317070007324222 15.670732498168949 1.9999999999999998
    vertex 13.317070007324222 15.670732498168949 0.0
  endloop
endfacet
endsolid Untitled-563375a0
