solid exported
	facet normal 0.3083344505249204 -0.9489559166232086 -0.0664269141636244
		outer loop
			vertex 0 -43.999999999999986 48.00000000000001
			vertex 0 -37.000000000000014 -51.99999999999999
			vertex 25.862550735473633 -35.59674835205077 48.00000000000001
		endloop
	endfacet
	facet normal 0.30833449208903874 -0.9489559023517211 -0.06642692511343046
		outer loop
			vertex 0 -37.000000000000014 -51.99999999999999
			vertex 21.74805450439453 -29.9336280822754 -51.99999999999999
			vertex 25.862550735473633 -35.59674835205077 48.00000000000001
		endloop
	endfacet
	facet normal 0.8072301463259333 -0.5864869612385933 -0.06642691592820722
		outer loop
			vertex 27.89781136626123 -32.79545208225406 48.00000000000001
			vertex 25.862550735473633 -35.59674835205077 48.00000000000001
			vertex 21.74805450439453 -29.9336280822754 -51.99999999999999
		endloop
	endfacet
	facet normal 0.8072301463259333 -0.5864869612385933 -0.06642691592820722
		outer loop
			vertex 27.89781136626123 -32.79545208225406 48.00000000000001
			vertex 21.74805450439453 -29.9336280822754 -51.99999999999999
			vertex 24.307219589424257 -27.853427124955353 -39.266841219142755
		endloop
	endfacet
	facet normal 0.8072301107957679 -0.5864870118876679 -0.06642690051272268
		outer loop
			vertex 24.307219589424257 -27.853427124955353 -39.266841219142755
			vertex 21.74805450439453 -29.9336280822754 -51.99999999999999
			vertex 23.78331446966287 -27.132333093706368 -51.99999999999999
		endloop
	endfacet
	facet normal 0.8072301463259333 -0.5864869612385932 -0.06642691592820724
		outer loop
			vertex 27.89781136626123 -32.79545208225406 48.00000000000001
			vertex 24.307219589424257 -27.853427124955353 -39.266841219142755
			vertex 41.84648513793945 -13.596747398376454 48
		endloop
	endfacet
	facet normal 0.8072301107957671 -0.5864870118876687 -0.06642690051272244
		outer loop
			vertex 24.307219589424257 -27.853427124955353 -39.266841219142755
			vertex 23.78331446966287 -27.132333093706368 -51.99999999999999
			vertex 35.189090728759766 -11.433629035949718 -52
		endloop
	endfacet
	facet normal 0.8072301107957671 -0.5864870118876687 -0.06642690051272244
		outer loop
			vertex 24.307219589424257 -27.853427124955353 -39.266841219142755
			vertex 35.189090728759766 -11.433629035949718 -52
			vertex 41.84648513793945 -13.596747398376454 48
		endloop
	endfacet
	facet normal 0.9977912941656987 -8.337584354668993e-16 -0.06642690183306889
		outer loop
			vertex 41.84648513793945 -10.13415790363405 48
			vertex 41.84648513793945 -13.596747398376454 48
			vertex 35.189090728759766 -11.433629035949718 -52
		endloop
	endfacet
	facet normal 0.9977912941656987 -8.337584354668993e-16 -0.06642690183306889
		outer loop
			vertex 41.84648513793945 -10.13415790363405 48
			vertex 35.189090728759766 -11.433629035949718 -52
			vertex 36.036787740551596 -8.246469915837237 -39.26683504551026
		endloop
	endfacet
	facet normal 0.9977912941656987 -1.4749735173917665e-17 -0.0664269018330691
		outer loop
			vertex 36.036787740551596 -8.246469915837238 -39.26683504551026
			vertex 35.189090728759766 -11.433629035949718 -52
			vertex 35.189090728759766 -7.971036040887026 -52
		endloop
	endfacet
	facet normal 0.9977912941656988 -1.474973517391761e-17 -0.06642690183306885
		outer loop
			vertex 41.84648513793945 -10.13415790363405 48
			vertex 36.036787740551596 -8.246469915837237 -39.26683504551026
			vertex 41.84648513793945 13.596747398376476 48
		endloop
	endfacet
	facet normal 0.9977912941656988 -1.4749735173917616e-17 -0.06642690183306887
		outer loop
			vertex 36.036787740551596 -8.246469915837238 -39.26683504551026
			vertex 35.189090728759766 -7.971036040887026 -52
			vertex 35.189090728759766 11.433629035949696 -52
		endloop
	endfacet
	facet normal 0.9977912941656988 -1.4749735173917616e-17 -0.06642690183306887
		outer loop
			vertex 36.036787740551596 -8.246469915837238 -39.26683504551026
			vertex 35.189090728759766 11.433629035949696 -52
			vertex 41.84648513793945 13.596747398376476 48
		endloop
	endfacet
	facet normal 0.8072301470844515 0.5864869617896886 -0.06642690184492492
		outer loop
			vertex 39.81122619628906 16.398041343275008 47.99999999999999
			vertex 41.84648513793945 13.596747398376476 48
			vertex 35.189090728759766 11.433629035949696 -52
		endloop
	endfacet
	facet normal 0.8072301470844515 0.5864869617896886 -0.06642690184492492
		outer loop
			vertex 39.81122619628906 16.398041343275008 47.99999999999999
			vertex 35.189090728759766 11.433629035949696 -52
			vertex 34.00152805250984 14.51035616757965 -39.26684625697405
		endloop
	endfacet
	facet normal 0.8072301098937458 0.5864870112323118 -0.06642691726041079
		outer loop
			vertex 34.00152805250984 14.510356167579642 -39.26684625697407
			vertex 35.189090728759766 11.433629035949696 -52
			vertex 33.153831787109375 14.2349226156295 -52
		endloop
	endfacet
	facet normal 0.8072301470844514 0.586486961789689 -0.06642690184492493
		outer loop
			vertex 39.81122619628906 16.398041343275008 47.99999999999999
			vertex 34.00152805250984 14.51035616757965 -39.26684625697405
			vertex 25.862550735473633 35.596748352050795 47.99999999999999
		endloop
	endfacet
	facet normal 0.8072301098937459 0.5864870112323118 -0.0664269172604109
		outer loop
			vertex 34.00152805250984 14.510356167579642 -39.26684625697407
			vertex 33.153831787109375 14.2349226156295 -52
			vertex 21.74805450439453 29.93362808227538 -52.00000000000001
		endloop
	endfacet
	facet normal 0.8072301098937459 0.5864870112323118 -0.0664269172604109
		outer loop
			vertex 34.00152805250984 14.510356167579642 -39.26684625697407
			vertex 21.74805450439453 29.93362808227538 -52.00000000000001
			vertex 25.862550735473633 35.596748352050795 47.99999999999999
		endloop
	endfacet
	facet normal 0.30833445031912377 0.948955915989829 -0.06642692416715175
		outer loop
			vertex 22.569430382957975 36.666747955423844 47.99999999999999
			vertex 25.862550735473633 35.596748352050795 47.99999999999999
			vertex 21.74805450439453 29.93362808227538 -52.00000000000001
		endloop
	endfacet
	facet normal 0.30833445031912377 0.948955915989829 -0.06642692416715175
		outer loop
			vertex 22.569430382957975 36.666747955423844 47.99999999999999
			vertex 21.74805450439453 29.93362808227538 -52.00000000000001
			vertex 18.97884087811123 31.724721109886694 -39.26684437118853
		endloop
	endfacet
	facet normal 0.30833449233377086 0.9489559031049289 -0.06642691321734527
		outer loop
			vertex 18.978840878111228 31.724721109886694 -39.26684437118851
			vertex 21.74805450439453 29.93362808227538 -52.00000000000001
			vertex 18.454935738644753 31.003627330406932 -52.00000000000001
		endloop
	endfacet
	facet normal 0.3083344503191231 0.9489559159898293 -0.06642692416715171
		outer loop
			vertex 22.569430382957975 36.666747955423844 47.99999999999999
			vertex 18.97884087811123 31.724721109886694 -39.26684437118853
			vertex 5.388445833737383e-15 44.000000000000014 47.99999999999999
		endloop
	endfacet
	facet normal 0.3083344923337708 0.9489559031049288 -0.06642691321734523
		outer loop
			vertex 18.978840878111228 31.724721109886694 -39.26684437118851
			vertex 18.454935738644753 31.003627330406932 -52.00000000000001
			vertex 4.531193010457986e-15 36.999999999999986 -52.00000000000001
		endloop
	endfacet
	facet normal 0.3083344923337708 0.9489559031049288 -0.06642691321734523
		outer loop
			vertex 18.978840878111228 31.724721109886694 -39.26684437118851
			vertex 4.531193010457986e-15 36.999999999999986 -52.00000000000001
			vertex 5.388445833737383e-15 44.000000000000014 47.99999999999999
		endloop
	endfacet
	facet normal -0.30833445052492037 0.9489559166232087 -0.06642691416362481
		outer loop
			vertex -3.2931215587768694 42.93000000468895 47.99999999999999
			vertex 5.388445833737383e-15 44.000000000000014 47.99999999999999
			vertex 4.531193010457986e-15 36.999999999999986 -52.00000000000001
		endloop
	endfacet
	facet normal -0.30833445052492037 0.9489559166232087 -0.06642691416362481
		outer loop
			vertex -3.2931215587768694 42.93000000468895 47.99999999999999
			vertex 4.531193010457986e-15 36.999999999999986 -52.00000000000001
			vertex -3.2931212598125406 36.8213216522224 -39.26683499437035
		endloop
	endfacet
	facet normal -0.30833449208903946 0.948955902351721 -0.0664269251134311
		outer loop
			vertex -3.293121259812537 36.8213216522224 -39.26683499437036
			vertex 4.531193010457986e-15 36.999999999999986 -52.00000000000001
			vertex -3.293120969467836 35.93000003583696 -52.00000000000001
		endloop
	endfacet
	facet normal -0.3083344505249204 0.9489559166232084 -0.06642691416362483
		outer loop
			vertex -3.2931215587768694 42.93000000468895 47.99999999999999
			vertex -3.2931212598125406 36.8213216522224 -39.26683499437035
			vertex -25.862550735473633 35.596748352050795 47.99999999999999
		endloop
	endfacet
	facet normal -0.3083344920890385 0.9489559023517211 -0.06642692511343087
		outer loop
			vertex -3.293121259812537 36.8213216522224 -39.26683499437036
			vertex -3.293120969467836 35.93000003583696 -52.00000000000001
			vertex -21.74805450439453 29.93362808227538 -52.00000000000001
		endloop
	endfacet
	facet normal -0.3083344920890385 0.9489559023517211 -0.06642692511343087
		outer loop
			vertex -3.293121259812537 36.8213216522224 -39.26683499437036
			vertex -21.74805450439453 29.93362808227538 -52.00000000000001
			vertex -25.862550735473633 35.596748352050795 47.99999999999999
		endloop
	endfacet
	facet normal -0.8072301463259332 0.5864869612385937 -0.0664269159282075
		outer loop
			vertex -27.89781136626123 32.79545208225407 47.99999999999999
			vertex -25.862550735473633 35.596748352050795 47.99999999999999
			vertex -21.74805450439453 29.93362808227538 -52.00000000000001
		endloop
	endfacet
	facet normal -0.8072301463259332 0.5864869612385937 -0.0664269159282075
		outer loop
			vertex -27.89781136626123 32.79545208225407 47.99999999999999
			vertex -21.74805450439453 29.93362808227538 -52.00000000000001
			vertex -24.30721958942425 27.853427124955346 -39.26684121914281
		endloop
	endfacet
	facet normal -0.8072301107957675 0.5864870118876685 -0.06642690051272275
		outer loop
			vertex -24.307219589424257 27.85342712495534 -39.26684121914277
			vertex -21.74805450439453 29.93362808227538 -52.00000000000001
			vertex -23.783314469662862 27.13233309370636 -52.00000000000001
		endloop
	endfacet
	facet normal -0.8072301463259334 0.5864869612385931 -0.06642691592820747
		outer loop
			vertex -27.89781136626123 32.79545208225407 47.99999999999999
			vertex -24.30721958942425 27.853427124955346 -39.26684121914281
			vertex -41.84648513793945 13.596747398376476 48
		endloop
	endfacet
	facet normal -0.8072301107957672 0.5864870118876686 -0.06642690051272268
		outer loop
			vertex -24.307219589424257 27.85342712495534 -39.26684121914277
			vertex -23.783314469662862 27.13233309370636 -52.00000000000001
			vertex -35.189090728759766 11.433629035949696 -52
		endloop
	endfacet
	facet normal -0.8072301107957672 0.5864870118876686 -0.06642690051272268
		outer loop
			vertex -24.307219589424257 27.85342712495534 -39.26684121914277
			vertex -35.189090728759766 11.433629035949696 -52
			vertex -41.84648513793945 13.596747398376476 48
		endloop
	endfacet
	facet normal -0.9977912941656987 8.04258965119064e-16 -0.06642690183306889
		outer loop
			vertex -41.84648513793945 10.13415790363407 48
			vertex -41.84648513793945 13.596747398376476 48
			vertex -35.189090728759766 11.433629035949696 -52
		endloop
	endfacet
	facet normal -0.9977912941656987 8.04258965119064e-16 -0.06642690183306889
		outer loop
			vertex -41.84648513793945 10.13415790363407 48
			vertex -35.189090728759766 11.433629035949696 -52
			vertex -36.036787740551596 8.246469915837219 -39.26683504551026
		endloop
	endfacet
	facet normal -0.9977912941656987 -1.4749735173917665e-17 -0.0664269018330691
		outer loop
			vertex -36.036787740551596 8.24646991583722 -39.26683504551026
			vertex -35.189090728759766 11.433629035949696 -52
			vertex -35.189090728759766 7.971036040887003 -52
		endloop
	endfacet
	facet normal -0.9977912941656988 -1.474973517391761e-17 -0.06642690183306885
		outer loop
			vertex -41.84648513793945 10.13415790363407 48
			vertex -36.036787740551596 8.246469915837219 -39.26683504551026
			vertex -41.84648513793945 -13.596747398376454 48
		endloop
	endfacet
	facet normal -0.9977912941656988 -1.4749735173917616e-17 -0.06642690183306887
		outer loop
			vertex -36.036787740551596 8.24646991583722 -39.26683504551026
			vertex -35.189090728759766 7.971036040887003 -52
			vertex -35.189090728759766 -11.433629035949718 -52
		endloop
	endfacet
	facet normal -0.9977912941656988 -1.4749735173917616e-17 -0.06642690183306887
		outer loop
			vertex -36.036787740551596 8.24646991583722 -39.26683504551026
			vertex -35.189090728759766 -11.433629035949718 -52
			vertex -41.84648513793945 -13.596747398376454 48
		endloop
	endfacet
	facet normal -0.8072301470844515 -0.5864869617896886 -0.06642690184492467
		outer loop
			vertex -39.81122619628906 -16.398041343274986 48.00000000000001
			vertex -41.84648513793945 -13.596747398376454 48
			vertex -35.189090728759766 -11.433629035949718 -52
		endloop
	endfacet
	facet normal -0.8072301470844515 -0.5864869617896886 -0.06642690184492467
		outer loop
			vertex -39.81122619628906 -16.398041343274986 48.00000000000001
			vertex -35.189090728759766 -11.433629035949718 -52
			vertex -34.00152805250984 -14.510356167579667 -39.26684625697405
		endloop
	endfacet
	facet normal -0.8072301098937458 -0.5864870112323118 -0.06642691726041054
		outer loop
			vertex -34.00152805250984 -14.51035616757966 -39.26684625697407
			vertex -35.189090728759766 -11.433629035949718 -52
			vertex -33.153831787109375 -14.234922615629525 -52
		endloop
	endfacet
	facet normal -0.8072301470844514 -0.586486961789689 -0.06642690184492468
		outer loop
			vertex -39.81122619628906 -16.398041343274986 48.00000000000001
			vertex -34.00152805250984 -14.510356167579667 -39.26684625697405
			vertex -25.862550735473633 -35.59674835205077 48.00000000000001
		endloop
	endfacet
	facet normal -0.8072301098937459 -0.5864870112323118 -0.06642691726041065
		outer loop
			vertex -34.00152805250984 -14.51035616757966 -39.26684625697407
			vertex -33.153831787109375 -14.234922615629525 -52
			vertex -21.74805450439453 -29.9336280822754 -51.99999999999999
		endloop
	endfacet
	facet normal -0.8072301098937459 -0.5864870112323118 -0.06642691726041065
		outer loop
			vertex -34.00152805250984 -14.51035616757966 -39.26684625697407
			vertex -21.74805450439453 -29.9336280822754 -51.99999999999999
			vertex -25.862550735473633 -35.59674835205077 48.00000000000001
		endloop
	endfacet
	facet normal -0.3083344503191237 -0.948955915989829 -0.06642692416715129
		outer loop
			vertex -3.2931215656285957 -42.93000000246266 48.00000000000001
			vertex -3.2931213189059627 -41.87004997469732 32.8578578914241
			vertex 0 -43.999999999999986 48.00000000000001
		endloop
	endfacet
	facet normal -0.3083344923337717 -0.9489559031049286 -0.0664269132173448
		outer loop
			vertex -3.293121318905964 -41.87004997469732 32.857857891424096
			vertex -3.2931213189059516 -35.929999922297654 -51.99999999999999
			vertex 0 -37.000000000000014 -51.99999999999999
		endloop
	endfacet
	facet normal -0.3083344923337717 -0.9489559031049286 -0.0664269132173448
		outer loop
			vertex -3.293121318905964 -41.87004997469732 32.857857891424096
			vertex 0 -37.000000000000014 -51.99999999999999
			vertex 0 -43.999999999999986 48.00000000000001
		endloop
	endfacet
	facet normal -0.3083344503191227 -0.9489559159898293 -0.06642692416715132
		outer loop
			vertex -22.569430382957975 -36.66674795542383 48.00000000000001
			vertex -25.862550735473633 -35.59674835205077 48.00000000000001
			vertex -21.74805450439453 -29.9336280822754 -51.99999999999999
		endloop
	endfacet
	facet normal -0.3083344503191227 -0.9489559159898293 -0.06642692416715132
		outer loop
			vertex -22.569430382957975 -36.66674795542383 48.00000000000001
			vertex -21.74805450439453 -29.9336280822754 -51.99999999999999
			vertex -18.97884087811123 -31.724721109886705 -39.26684437118851
		endloop
	endfacet
	facet normal -0.30833449233377047 -0.9489559031049289 -0.06642691321734495
		outer loop
			vertex -18.978840878111228 -31.72472110988671 -39.266844371188505
			vertex -21.74805450439453 -29.9336280822754 -51.99999999999999
			vertex -18.45493573864475 -31.003627330406953 -51.99999999999999
		endloop
	endfacet
	facet normal -0.30833445031912293 -0.9489559159898292 -0.06642692416715132
		outer loop
			vertex -3.2931215656285957 -42.93000000246266 48.00000000000001
			vertex -22.569430382957975 -36.66674795542383 48.00000000000001
			vertex -18.97884087811123 -31.724721109886705 -39.26684437118851
		endloop
	endfacet
	facet normal -0.30833445031912293 -0.9489559159898292 -0.06642692416715132
		outer loop
			vertex -3.2931215656285957 -42.93000000246266 48.00000000000001
			vertex -18.97884087811123 -31.724721109886705 -39.26684437118851
			vertex -3.2931213189059627 -41.87004997469732 32.8578578914241
		endloop
	endfacet
	facet normal -0.30833449233377064 -0.9489559031049289 -0.06642691321734497
		outer loop
			vertex -3.293121318905964 -41.87004997469732 32.857857891424096
			vertex -18.978840878111228 -31.72472110988671 -39.266844371188505
			vertex -18.45493573864475 -31.003627330406953 -51.99999999999999
		endloop
	endfacet
	facet normal -0.30833449233377064 -0.9489559031049289 -0.06642691321734497
		outer loop
			vertex -3.293121318905964 -41.87004997469732 32.857857891424096
			vertex -18.45493573864475 -31.003627330406953 -51.99999999999999
			vertex -3.2931213189059516 -35.929999922297654 -51.99999999999999
		endloop
	endfacet
	facet normal 0 2.220446049250313e-16 1
		outer loop
			vertex 0 -41.859999999999985 48.00000000000001
			vertex 0 -43.999999999999986 48.00000000000001
			vertex 25.862550735473633 -35.59674835205077 48.00000000000001
		endloop
	endfacet
	facet normal 0 2.220446049250313e-16 1
		outer loop
			vertex 0 -41.859999999999985 48.00000000000001
			vertex 25.862550735473633 -35.59674835205077 48.00000000000001
			vertex 24.604690291708717 -33.86545192515645 48.00000000000001
		endloop
	endfacet
	facet normal 0 2.220446049250313e-16 1
		outer loop
			vertex 24.604690291708717 -33.86545192515645 48.00000000000001
			vertex 25.862550735473633 -35.59674835205077 48.00000000000001
			vertex 27.89781136626123 -32.795452082254045 48.00000000000001
		endloop
	endfacet
	facet normal 0 2.220446049250313e-16 1
		outer loop
			vertex -3.2931215656285984 -42.93000000246266 48.00000000000001
			vertex 0 -43.999999999999986 48.00000000000001
			vertex 0 -41.859999999999985 48.00000000000001
		endloop
	endfacet
	facet normal 0 2.220446049250313e-16 1
		outer loop
			vertex 24.604690291708717 -33.86545192515645 48.00000000000001
			vertex 27.89781136626123 -32.795452082254045 48.00000000000001
			vertex 41.84648513793945 -13.596747398376454 48
		endloop
	endfacet
	facet normal 0 2.220446049250313e-16 1
		outer loop
			vertex 24.604690291708717 -33.86545192515645 48.00000000000001
			vertex 41.84648513793945 -13.596747398376454 48
			vertex 39.81122612483386 -12.935451650352528 48
		endloop
	endfacet
	facet normal 0 2.220446049250313e-16 1
		outer loop
			vertex 39.81122612483386 -12.935451650352528 48
			vertex 41.84648513793945 -13.596747398376454 48
			vertex 41.84648513793945 -10.134157903634048 48
		endloop
	endfacet
	facet normal 0 2.220446049250313e-16 1
		outer loop
			vertex 39.81122612483386 -12.935451650352528 48
			vertex 41.84648513793945 -10.134157903634048 48
			vertex 41.84648513793945 13.596747398376476 48
		endloop
	endfacet
	facet normal 0 2.220446049250313e-16 1
		outer loop
			vertex 39.81122612483386 -12.935451650352528 48
			vertex 41.84648513793945 13.596747398376476 48
			vertex 39.811226196289056 12.935451673569753 48
		endloop
	endfacet
	facet normal 0 2.220446049250313e-16 1
		outer loop
			vertex 39.81122619628906 12.935451673569753 48
			vertex 41.84648513793945 13.596747398376476 48
			vertex 39.81122619628907 16.398041343275 47.99999999999999
		endloop
	endfacet
	facet normal 0 2.220446049250313e-16 1
		outer loop
			vertex 39.81122619628906 12.935451673569753 48
			vertex 39.81122619628907 16.398041343275 47.99999999999999
			vertex 25.862550735473633 35.596748352050795 47.99999999999999
		endloop
	endfacet
	facet normal 0 2.220446049250313e-16 1
		outer loop
			vertex 39.81122619628906 12.935451673569753 48
			vertex 25.862550735473633 35.596748352050795 47.99999999999999
			vertex 24.60469067343383 33.865452450556035 47.99999999999999
		endloop
	endfacet
	facet normal 0 2.220446049250313e-16 1
		outer loop
			vertex 24.604690673433826 33.86545245055602 47.99999999999999
			vertex 25.862550735473633 35.596748352050795 47.99999999999999
			vertex 22.56943038295798 36.666747955423844 47.99999999999999
		endloop
	endfacet
	facet normal 0 2.220446049250313e-16 1
		outer loop
			vertex 24.604690673433826 33.86545245055602 47.99999999999999
			vertex 22.56943038295798 36.666747955423844 47.99999999999999
			vertex 5.388445833737383e-15 44.000000000000014 47.99999999999999
		endloop
	endfacet
	facet normal 0 2.220446049250313e-16 1
		outer loop
			vertex 24.604690673433826 33.86545245055602 47.99999999999999
			vertex 5.388445833737383e-15 44.000000000000014 47.99999999999999
			vertex 5.126371423278161e-15 41.86000000445253 47.99999999999999
		endloop
	endfacet
	facet normal 0 2.220446049250313e-16 1
		outer loop
			vertex 5.126371423278159e-15 41.86000000445253 47.99999999999999
			vertex 5.388445833737383e-15 44.000000000000014 47.99999999999999
			vertex -3.2931215587768676 42.93000000468895 47.99999999999999
		endloop
	endfacet
	facet normal 0 2.220446049250313e-16 1
		outer loop
			vertex 5.126371423278159e-15 41.86000000445253 47.99999999999999
			vertex -3.2931215587768676 42.93000000468895 47.99999999999999
			vertex -25.862550735473633 35.596748352050795 47.99999999999999
		endloop
	endfacet
	facet normal 0 2.220446049250313e-16 1
		outer loop
			vertex 5.126371423278159e-15 41.86000000445253 47.99999999999999
			vertex -25.862550735473633 35.596748352050795 47.99999999999999
			vertex -24.604690291708717 33.865451925156464 47.99999999999999
		endloop
	endfacet
	facet normal 0 2.220446049250313e-16 1
		outer loop
			vertex -24.604690291708717 33.86545192515648 47.99999999999999
			vertex -25.862550735473633 35.596748352050795 47.99999999999999
			vertex -27.89781136626123 32.79545208225407 47.99999999999999
		endloop
	endfacet
	facet normal 0 2.220446049250313e-16 1
		outer loop
			vertex -24.604690291708717 33.86545192515648 47.99999999999999
			vertex -27.89781136626123 32.79545208225407 47.99999999999999
			vertex -41.84648513793945 13.596747398376476 48
		endloop
	endfacet
	facet normal 0 2.220446049250313e-16 1
		outer loop
			vertex -24.604690291708717 33.86545192515648 47.99999999999999
			vertex -41.84648513793945 13.596747398376476 48
			vertex -39.81122612483386 12.93545165035255 48
		endloop
	endfacet
	facet normal 0 2.220446049250313e-16 1
		outer loop
			vertex -39.81122612483386 12.93545165035255 48
			vertex -41.84648513793945 13.596747398376476 48
			vertex -41.84648513793945 10.134157903634069 48
		endloop
	endfacet
	facet normal 0 2.220446049250313e-16 1
		outer loop
			vertex -39.81122612483386 12.93545165035255 48
			vertex -41.84648513793945 10.134157903634069 48
			vertex -41.84648513793945 -13.596747398376454 48
		endloop
	endfacet
	facet normal 0 2.220446049250313e-16 1
		outer loop
			vertex -39.81122612483386 12.93545165035255 48
			vertex -41.84648513793945 -13.596747398376454 48
			vertex -39.811226196289056 -12.935451673569732 48
		endloop
	endfacet
	facet normal 0 2.220446049250313e-16 1
		outer loop
			vertex -39.81122619628906 -12.935451673569732 48
			vertex -41.84648513793945 -13.596747398376454 48
			vertex -39.81122619628907 -16.39804134327498 48.00000000000001
		endloop
	endfacet
	facet normal 0 2.220446049250313e-16 1
		outer loop
			vertex -39.81122619628906 -12.935451673569732 48
			vertex -39.81122619628907 -16.39804134327498 48.00000000000001
			vertex -25.862550735473633 -35.59674835205077 48.00000000000001
		endloop
	endfacet
	facet normal 0 2.220446049250313e-16 1
		outer loop
			vertex -39.81122619628906 -12.935451673569732 48
			vertex -25.862550735473633 -35.59674835205077 48.00000000000001
			vertex -24.60469067343383 -33.865452450556006 48.00000000000001
		endloop
	endfacet
	facet normal 0 2.220446049250313e-16 1
		outer loop
			vertex -24.604690673433826 -33.865452450556006 48.00000000000001
			vertex -25.862550735473633 -35.59674835205077 48.00000000000001
			vertex -22.56943038295798 -36.66674795542383 48.00000000000001
		endloop
	endfacet
	facet normal 0 2.220446049250313e-16 1
		outer loop
			vertex -24.604690673433826 -33.865452450556006 48.00000000000001
			vertex -22.56943038295798 -36.66674795542383 48.00000000000001
			vertex -3.2931215656285984 -42.93000000246266 48.00000000000001
		endloop
	endfacet
	facet normal 0 2.220446049250313e-16 1
		outer loop
			vertex -24.604690673433826 -33.865452450556006 48.00000000000001
			vertex -3.2931215656285984 -42.93000000246266 48.00000000000001
			vertex 0 -41.859999999999985 48.00000000000001
		endloop
	endfacet
	facet normal 0 -2.220446049250313e-16 -1
		outer loop
			vertex 20.490194623037937 -28.202332537630934 -51.99999999999999
			vertex 21.74805450439453 -29.9336280822754 -51.99999999999999
			vertex 0 -37.000000000000014 -51.99999999999999
		endloop
	endfacet
	facet normal 0 -2.220446049250313e-16 -1
		outer loop
			vertex 20.490194623037937 -28.202332537630934 -51.99999999999999
			vertex 0 -37.000000000000014 -51.99999999999999
			vertex 0 -34.86000000000002 -51.99999999999999
		endloop
	endfacet
	facet normal 0 -2.220446049250313e-16 -1
		outer loop
			vertex 23.78331446966287 -27.13233309370637 -51.99999999999999
			vertex 21.74805450439453 -29.9336280822754 -51.99999999999999
			vertex 20.490194623037937 -28.202332537630934 -51.99999999999999
		endloop
	endfacet
	facet normal 0 -2.220446049250313e-16 -1
		outer loop
			vertex 0 -34.86000000000002 -51.99999999999999
			vertex 0 -37.000000000000014 -51.99999999999999
			vertex -3.293121318905964 -35.929999922297654 -51.99999999999999
		endloop
	endfacet
	facet normal 0 -2.220446049250313e-16 -1
		outer loop
			vertex 33.153829666104436 -10.772332608568743 -52
			vertex 35.189090728759766 -11.433629035949718 -52
			vertex 23.78331446966287 -27.13233309370637 -51.99999999999999
		endloop
	endfacet
	facet normal 0 -2.220446049250313e-16 -1
		outer loop
			vertex 33.153829666104436 -10.772332608568743 -52
			vertex 23.78331446966287 -27.13233309370637 -51.99999999999999
			vertex 20.490194623037937 -28.202332537630934 -51.99999999999999
		endloop
	endfacet
	facet normal 0 -2.220446049250313e-16 -1
		outer loop
			vertex 35.189090728759766 -7.9710360408870296 -52
			vertex 35.189090728759766 -11.433629035949718 -52
			vertex 33.153829666104436 -10.772332608568743 -52
		endloop
	endfacet
	facet normal 0 -2.220446049250313e-16 -1
		outer loop
			vertex 33.15383178710938 10.772333297725023 -52
			vertex 35.189090728759766 11.433629035949696 -52
			vertex 35.189090728759766 -7.9710360408870296 -52
		endloop
	endfacet
	facet normal 0 -2.220446049250313e-16 -1
		outer loop
			vertex 33.15383178710938 10.772333297725023 -52
			vertex 35.189090728759766 -7.9710360408870296 -52
			vertex 33.153829666104436 -10.772332608568743 -52
		endloop
	endfacet
	facet normal 0 -2.220446049250313e-16 -1
		outer loop
			vertex 33.15383178710938 14.234922615629497 -52
			vertex 35.189090728759766 11.433629035949696 -52
			vertex 33.15383178710938 10.772333297725027 -52
		endloop
	endfacet
	facet normal 0 -2.220446049250313e-16 -1
		outer loop
			vertex 20.49019506739679 28.202333149238385 -52.00000000000001
			vertex 21.74805450439453 29.93362808227538 -52.00000000000001
			vertex 33.15383178710938 14.234922615629497 -52
		endloop
	endfacet
	facet normal 0 -2.220446049250313e-16 -1
		outer loop
			vertex 20.49019506739679 28.202333149238385 -52.00000000000001
			vertex 33.15383178710938 14.234922615629497 -52
			vertex 33.15383178710938 10.772333297725027 -52
		endloop
	endfacet
	facet normal 0 -2.220446049250313e-16 -1
		outer loop
			vertex 18.454935738644746 31.003627330406935 -52.00000000000001
			vertex 21.74805450439453 29.93362808227538 -52.00000000000001
			vertex 20.49019506739679 28.20233314923838 -52.00000000000001
		endloop
	endfacet
	facet normal 0 -2.220446049250313e-16 -1
		outer loop
			vertex 4.269118631716287e-15 34.86000022707864 -52.00000000000001
			vertex 4.531193010457986e-15 36.999999999999986 -52.00000000000001
			vertex 18.454935738644746 31.003627330406935 -52.00000000000001
		endloop
	endfacet
	facet normal 0 -2.220446049250313e-16 -1
		outer loop
			vertex 4.269118631716287e-15 34.86000022707864 -52.00000000000001
			vertex 18.454935738644746 31.003627330406935 -52.00000000000001
			vertex 20.49019506739679 28.20233314923838 -52.00000000000001
		endloop
	endfacet
	facet normal 0 -2.220446049250313e-16 -1
		outer loop
			vertex -3.2931209694678336 35.93000003583697 -52.00000000000001
			vertex 4.531193010457986e-15 36.999999999999986 -52.00000000000001
			vertex 4.269118631716287e-15 34.86000022707864 -52.00000000000001
		endloop
	endfacet
	facet normal 0 -2.220446049250313e-16 -1
		outer loop
			vertex -20.490194623037937 28.202332537630912 -52.00000000000001
			vertex -21.74805450439453 29.93362808227538 -52.00000000000001
			vertex -3.2931209694678336 35.93000003583697 -52.00000000000001
		endloop
	endfacet
	facet normal 0 -2.220446049250313e-16 -1
		outer loop
			vertex -20.490194623037937 28.202332537630912 -52.00000000000001
			vertex -3.2931209694678336 35.93000003583697 -52.00000000000001
			vertex 4.269118631716287e-15 34.86000022707864 -52.00000000000001
		endloop
	endfacet
	facet normal 0 -2.220446049250313e-16 -1
		outer loop
			vertex -23.78331446966287 27.13233309370635 -52.00000000000001
			vertex -21.74805450439453 29.93362808227538 -52.00000000000001
			vertex -20.490194623037944 28.202332537630916 -52.00000000000001
		endloop
	endfacet
	facet normal 0 -2.220446049250313e-16 -1
		outer loop
			vertex -33.153829666104436 10.772332608568721 -52
			vertex -35.189090728759766 11.433629035949696 -52
			vertex -23.78331446966287 27.13233309370635 -52.00000000000001
		endloop
	endfacet
	facet normal 0 -2.220446049250313e-16 -1
		outer loop
			vertex -33.153829666104436 10.772332608568721 -52
			vertex -23.78331446966287 27.13233309370635 -52.00000000000001
			vertex -20.490194623037944 28.202332537630916 -52.00000000000001
		endloop
	endfacet
	facet normal 0 -2.220446049250313e-16 -1
		outer loop
			vertex -35.189090728759766 7.9710360408870065 -52
			vertex -35.189090728759766 11.433629035949696 -52
			vertex -33.153829666104436 10.772332608568721 -52
		endloop
	endfacet
	facet normal 0 -2.220446049250313e-16 -1
		outer loop
			vertex -33.15383178710938 -10.772333297725048 -52
			vertex -35.189090728759766 -11.433629035949718 -52
			vertex -35.189090728759766 7.9710360408870065 -52
		endloop
	endfacet
	facet normal 0 -2.220446049250313e-16 -1
		outer loop
			vertex -33.15383178710938 -10.772333297725048 -52
			vertex -35.189090728759766 7.9710360408870065 -52
			vertex -33.153829666104436 10.772332608568721 -52
		endloop
	endfacet
	facet normal 0 -2.220446049250313e-16 -1
		outer loop
			vertex -33.15383178710938 -14.234922615629518 -52
			vertex -35.189090728759766 -11.433629035949718 -52
			vertex -33.15383178710938 -10.772333297725048 -52
		endloop
	endfacet
	facet normal 0 -2.220446049250313e-16 -1
		outer loop
			vertex -20.49019506739679 -28.202333149238406 -51.99999999999999
			vertex -21.74805450439453 -29.9336280822754 -51.99999999999999
			vertex -33.15383178710938 -14.234922615629518 -52
		endloop
	endfacet
	facet normal 0 -2.220446049250313e-16 -1
		outer loop
			vertex -20.49019506739679 -28.202333149238406 -51.99999999999999
			vertex -33.15383178710938 -14.234922615629518 -52
			vertex -33.15383178710938 -10.772333297725048 -52
		endloop
	endfacet
	facet normal 0 -2.220446049250313e-16 -1
		outer loop
			vertex -18.454935738644746 -31.003627330406957 -51.99999999999999
			vertex -21.74805450439453 -29.9336280822754 -51.99999999999999
			vertex -20.49019506739679 -28.202333149238402 -51.99999999999999
		endloop
	endfacet
	facet normal 0 -2.220446049250313e-16 -1
		outer loop
			vertex 0 -34.86000000000002 -51.99999999999999
			vertex -3.293121318905964 -35.929999922297654 -51.99999999999999
			vertex -18.454935738644746 -31.003627330406957 -51.99999999999999
		endloop
	endfacet
	facet normal 0 -2.220446049250313e-16 -1
		outer loop
			vertex 0 -34.86000000000002 -51.99999999999999
			vertex -18.454935738644746 -31.003627330406957 -51.99999999999999
			vertex -20.49019506739679 -28.202333149238402 -51.99999999999999
		endloop
	endfacet
	facet normal 0 -2.220446049250313e-16 -1
		outer loop
			vertex 20.490194623037937 -28.202332537630934 -51.99999999999999
			vertex 0 -34.86000000000002 -51.99999999999999
			vertex 0 -1.1546319456101628e-14 -52
		endloop
	endfacet
	facet normal 0 -2.220446049250313e-16 -1
		outer loop
			vertex 33.153829666104436 -10.772332608568743 -52
			vertex 20.490194623037937 -28.202332537630934 -51.99999999999999
			vertex 0 -1.1546319456101628e-14 -52
		endloop
	endfacet
	facet normal 0 -2.220446049250313e-16 -1
		outer loop
			vertex 33.15383178710938 10.772333297725023 -52
			vertex 33.153829666104436 -10.772332608568743 -52
			vertex 0 -1.1546319456101628e-14 -52
		endloop
	endfacet
	facet normal 0 -2.220446049250313e-16 -1
		outer loop
			vertex 20.49019506739679 28.202333149238385 -52.00000000000001
			vertex 33.15383178710938 10.772333297725027 -52
			vertex 0 -1.1546319456101628e-14 -52
		endloop
	endfacet
	facet normal 0 -2.220446049250313e-16 -1
		outer loop
			vertex 4.269118631716287e-15 34.86000022707864 -52.00000000000001
			vertex 20.49019506739679 28.20233314923838 -52.00000000000001
			vertex 0 -1.1546319456101628e-14 -52
		endloop
	endfacet
	facet normal 0 -2.220446049250313e-16 -1
		outer loop
			vertex -20.490194623037937 28.202332537630912 -52.00000000000001
			vertex 4.269118631716287e-15 34.86000022707864 -52.00000000000001
			vertex 0 -1.1546319456101628e-14 -52
		endloop
	endfacet
	facet normal 0 -2.220446049250313e-16 -1
		outer loop
			vertex -33.153829666104436 10.772332608568721 -52
			vertex -20.490194623037944 28.202332537630916 -52.00000000000001
			vertex 0 -1.1546319456101628e-14 -52
		endloop
	endfacet
	facet normal 0 -2.220446049250313e-16 -1
		outer loop
			vertex -33.15383178710938 -10.772333297725048 -52
			vertex -33.153829666104436 10.772332608568721 -52
			vertex 0 -1.1546319456101628e-14 -52
		endloop
	endfacet
	facet normal 0 -2.220446049250313e-16 -1
		outer loop
			vertex -20.49019506739679 -28.202333149238406 -51.99999999999999
			vertex -33.15383178710938 -10.772333297725048 -52
			vertex 0 -1.1546319456101628e-14 -52
		endloop
	endfacet
	facet normal 0 -2.220446049250313e-16 -1
		outer loop
			vertex 0 -34.86000000000002 -51.99999999999999
			vertex -20.49019506739679 -28.202333149238402 -51.99999999999999
			vertex 0 -1.1546319456101628e-14 -52
		endloop
	endfacet
	facet normal -0.3083344518092936 0.9489559162079255 0.06642691413455457
		outer loop
			vertex 24.193241577148438 -33.999139709472644 48.00000000000001
			vertex 0 -35.000000000000014 -49.99999999999999
			vertex 0 -41.859999999999985 48.00000000000001
		endloop
	endfacet
	facet normal -0.3083344425683362 0.9489559193724486 0.06642691182092228
		outer loop
			vertex 24.193241577148438 -33.999139709472644 48.00000000000001
			vertex 24.60469123840332 -33.86545162200926 48.00000000000001
			vertex 20.57248306274414 -28.315595626831065 -49.99999999999999
		endloop
	endfacet
	facet normal -0.3083344425683362 0.9489559193724486 0.06642691182092228
		outer loop
			vertex 24.193241577148438 -33.999139709472644 48.00000000000001
			vertex 20.57248306274414 -28.315595626831065 -49.99999999999999
			vertex 0 -35.000000000000014 -49.99999999999999
		endloop
	endfacet
	facet normal -0.8072301165200148 0.5864870016656445 0.06642692120161713
		outer loop
			vertex 39.556936264038086 -13.285451622009267 48
			vertex 20.57248306274414 -28.315595626831065 -49.99999999999999
			vertex 24.60469123840332 -33.86545162200926 48.00000000000001
		endloop
	endfacet
	facet normal -0.8072300768160156 0.5864870581661209 0.0664269048447905
		outer loop
			vertex 39.556936264038086 -13.285451622009267 48
			vertex 39.81122619628906 -12.93545160293578 48
			vertex 33.28697967529297 -10.815594673156749 -50
		endloop
	endfacet
	facet normal -0.8072300768160156 0.5864870581661209 0.0664269048447905
		outer loop
			vertex 39.556936264038086 -13.285451622009267 48
			vertex 33.28697967529297 -10.815594673156749 -50
			vertex 20.57248306274414 -28.315595626831065 -49.99999999999999
		endloop
	endfacet
	facet normal -0.9977912941656987 1.4749735173917616e-17 0.06642690183306887
		outer loop
			vertex 39.81122619628906 12.502827816009532 48
			vertex 33.28697967529297 -10.815594673156749 -50
			vertex 39.81122619628906 -12.93545160293578 48
		endloop
	endfacet
	facet normal -0.9977912941656988 1.4749735173917616e-17 0.06642690183306887
		outer loop
			vertex 39.81122619628906 12.502827816009532 48
			vertex 39.81122619628906 12.935451602935801 48
			vertex 33.28697967529297 10.815594673156728 -50
		endloop
	endfacet
	facet normal -0.9977912941656988 1.4749735173917616e-17 0.06642690183306887
		outer loop
			vertex 39.81122619628906 12.502827816009532 48
			vertex 33.28697967529297 10.815594673156728 -50
			vertex 33.28697967529297 -10.815594673156749 -50
		endloop
	endfacet
	facet normal -0.8072301173208967 -0.5864870022475192 0.06642690633177435
		outer loop
			vertex 24.858981170654296 33.5154516029358 47.99999999999999
			vertex 33.28697967529297 10.815594673156728 -50
			vertex 39.81122619628906 12.935451602935801 48
		endloop
	endfacet
	facet normal -0.8072300758549575 -0.5864870574678713 0.06642692268860051
		outer loop
			vertex 24.858981170654296 33.5154516029358 47.99999999999999
			vertex 24.60469123840332 33.86545162200929 47.99999999999999
			vertex 20.57248306274414 28.315595626831044 -50.00000000000001
		endloop
	endfacet
	facet normal -0.8072300758549575 -0.5864870574678713 0.06642692268860051
		outer loop
			vertex 24.858981170654296 33.5154516029358 47.99999999999999
			vertex 20.57248306274414 28.315595626831044 -50.00000000000001
			vertex 33.28697967529297 10.815594673156728 -50
		endloop
	endfacet
	facet normal -0.308334451852564 -0.9489559163410971 0.06642691203125305
		outer loop
			vertex 0.41144966125488835 41.72631191253663 47.99999999999999
			vertex 20.57248306274414 28.315595626831044 -50.00000000000001
			vertex 24.60469123840332 33.86545162200929 47.99999999999999
		endloop
	endfacet
	facet normal -0.30833444251641207 -0.9489559192126423 0.06642691434488517
		outer loop
			vertex 0.4114496612548879 41.72631191253663 47.99999999999999
			vertex 5.1263714596943206e-15 41.860000000000014 47.99999999999999
			vertex 4.286263692880512e-15 34.999999999999986 -50.00000000000001
		endloop
	endfacet
	facet normal -0.30833444251641207 -0.9489559192126423 0.06642691434488517
		outer loop
			vertex 0.4114496612548879 41.72631191253663 47.99999999999999
			vertex 4.286263692880512e-15 34.999999999999986 -50.00000000000001
			vertex 20.57248306274414 28.315595626831044 -50.00000000000001
		endloop
	endfacet
	facet normal 0.3083344518092935 -0.9489559162079253 0.06642691413455497
		outer loop
			vertex -24.193241577148438 33.99913970947267 47.99999999999999
			vertex 4.286263692880512e-15 34.999999999999986 -50.00000000000001
			vertex 5.126371459694321e-15 41.860000000000014 47.99999999999999
		endloop
	endfacet
	facet normal 0.3083344425683361 -0.9489559193724484 0.06642691182092268
		outer loop
			vertex -24.193241577148438 33.99913970947267 47.99999999999999
			vertex -24.60469123840332 33.86545162200929 47.99999999999999
			vertex -20.57248306274414 28.315595626831044 -50.00000000000001
		endloop
	endfacet
	facet normal 0.3083344425683361 -0.9489559193724484 0.06642691182092268
		outer loop
			vertex -24.193241577148438 33.99913970947267 47.99999999999999
			vertex -20.57248306274414 28.315595626831044 -50.00000000000001
			vertex 4.286263692880512e-15 34.999999999999986 -50.00000000000001
		endloop
	endfacet
	facet normal 0.8072301165200148 -0.5864870016656445 0.06642692120161738
		outer loop
			vertex -39.556936264038086 13.285451622009289 48
			vertex -20.57248306274414 28.315595626831044 -50.00000000000001
			vertex -24.60469123840332 33.86545162200929 47.99999999999999
		endloop
	endfacet
	facet normal 0.8072300768160156 -0.5864870581661209 0.06642690484479075
		outer loop
			vertex -39.556936264038086 13.285451622009289 48
			vertex -39.81122619628906 12.935451602935801 48
			vertex -33.28697967529297 10.815594673156728 -50
		endloop
	endfacet
	facet normal 0.8072300768160156 -0.5864870581661209 0.06642690484479075
		outer loop
			vertex -39.556936264038086 13.285451622009289 48
			vertex -33.28697967529297 10.815594673156728 -50
			vertex -20.57248306274414 28.315595626831044 -50.00000000000001
		endloop
	endfacet
	facet normal 0.9977912941656987 1.4749735173917616e-17 0.06642690183306887
		outer loop
			vertex -39.81122619628906 -12.50282781600951 48
			vertex -33.28697967529297 10.815594673156728 -50
			vertex -39.81122619628906 12.935451602935801 48
		endloop
	endfacet
	facet normal 0.9977912941656988 1.4749735173917616e-17 0.06642690183306887
		outer loop
			vertex -39.81122619628906 -12.50282781600951 48
			vertex -39.81122619628906 -12.93545160293578 48
			vertex -33.28697967529297 -10.815594673156749 -50
		endloop
	endfacet
	facet normal 0.9977912941656988 1.4749735173917616e-17 0.06642690183306887
		outer loop
			vertex -39.81122619628906 -12.50282781600951 48
			vertex -33.28697967529297 -10.815594673156749 -50
			vertex -33.28697967529297 10.815594673156728 -50
		endloop
	endfacet
	facet normal 0.8072301173208967 0.5864870022475192 0.0664269063317741
		outer loop
			vertex -24.858981170654296 -33.515451602935784 48.00000000000001
			vertex -33.28697967529297 -10.815594673156749 -50
			vertex -39.81122619628906 -12.93545160293578 48
		endloop
	endfacet
	facet normal 0.8072300758549575 0.5864870574678713 0.06642692268860026
		outer loop
			vertex -24.858981170654296 -33.515451602935784 48.00000000000001
			vertex -24.60469123840332 -33.86545162200926 48.00000000000001
			vertex -20.57248306274414 -28.315595626831065 -49.99999999999999
		endloop
	endfacet
	facet normal 0.8072300758549575 0.5864870574678713 0.06642692268860026
		outer loop
			vertex -24.858981170654296 -33.515451602935784 48.00000000000001
			vertex -20.57248306274414 -28.315595626831065 -49.99999999999999
			vertex -33.28697967529297 -10.815594673156749 -50
		endloop
	endfacet
	facet normal 0.308334451852564 0.9489559163410971 0.06642691203125264
		outer loop
			vertex -0.4114496612548848 -41.726311912536616 48.00000000000001
			vertex -20.57248306274414 -28.315595626831065 -49.99999999999999
			vertex -24.60469123840332 -33.86545162200926 48.00000000000001
		endloop
	endfacet
	facet normal 0.308334442516412 0.9489559192126423 0.06642691434488475
		outer loop
			vertex -0.4114496612548828 -41.726311912536616 48.00000000000001
			vertex 0 -41.859999999999985 48.00000000000001
			vertex 0 -35.000000000000014 -49.99999999999999
		endloop
	endfacet
	facet normal 0.308334442516412 0.9489559192126423 0.06642691434488475
		outer loop
			vertex -0.4114496612548828 -41.726311912536616 48.00000000000001
			vertex 0 -35.000000000000014 -49.99999999999999
			vertex -20.57248306274414 -28.315595626831065 -49.99999999999999
		endloop
	endfacet
	facet normal 0 2.220446049250313e-16 1
		outer loop
			vertex 0 -1.1102230246251565e-14 -50
			vertex 0 -35.000000000000014 -49.99999999999999
			vertex 20.57248306274414 -28.315595626831065 -49.99999999999999
		endloop
	endfacet
	facet normal 0 2.220446049250313e-16 1
		outer loop
			vertex 0 -1.1102230246251565e-14 -50
			vertex 20.57248306274414 -28.315595626831065 -49.99999999999999
			vertex 33.28697967529297 -10.815594673156749 -50
		endloop
	endfacet
	facet normal 0 2.220446049250313e-16 1
		outer loop
			vertex 0 -1.1102230246251565e-14 -50
			vertex 33.28697967529297 -10.815594673156749 -50
			vertex 33.28697967529297 10.815594673156728 -50
		endloop
	endfacet
	facet normal 0 2.220446049250313e-16 1
		outer loop
			vertex 0 -1.1102230246251565e-14 -50
			vertex 33.28697967529297 10.815594673156728 -50
			vertex 20.57248306274414 28.315595626831044 -50.00000000000001
		endloop
	endfacet
	facet normal 0 2.220446049250313e-16 1
		outer loop
			vertex 0 -1.1102230246251565e-14 -50
			vertex 20.57248306274414 28.315595626831044 -50.00000000000001
			vertex 4.286263692880512e-15 34.999999999999986 -50.00000000000001
		endloop
	endfacet
	facet normal 0 2.220446049250313e-16 1
		outer loop
			vertex 0 -1.1102230246251565e-14 -50
			vertex 4.286263692880512e-15 34.999999999999986 -50.00000000000001
			vertex -20.57248306274414 28.315595626831044 -50.00000000000001
		endloop
	endfacet
	facet normal 0 2.220446049250313e-16 1
		outer loop
			vertex 0 -1.1102230246251565e-14 -50
			vertex -20.57248306274414 28.315595626831044 -50.00000000000001
			vertex -33.28697967529297 10.815594673156728 -50
		endloop
	endfacet
	facet normal 0 2.220446049250313e-16 1
		outer loop
			vertex 0 -1.1102230246251565e-14 -50
			vertex -33.28697967529297 10.815594673156728 -50
			vertex -33.28697967529297 -10.815594673156749 -50
		endloop
	endfacet
	facet normal 0 2.220446049250313e-16 1
		outer loop
			vertex 0 -1.1102230246251565e-14 -50
			vertex -33.28697967529297 -10.815594673156749 -50
			vertex -20.57248306274414 -28.315595626831065 -49.99999999999999
		endloop
	endfacet
	facet normal 0 2.220446049250313e-16 1
		outer loop
			vertex 0 -1.1102230246251565e-14 -50
			vertex -20.57248306274414 -28.315595626831065 -49.99999999999999
			vertex 0 -35.000000000000014 -49.99999999999999
		endloop
	endfacet
endsolid exported
