solid exported
	facet normal 1 0 0
		outer loop
			vertex 25 -29.5 0.5
			vertex 25 -30.5 0.5
			vertex 25 -29.5 -0.5
		endloop
	endfacet
	facet normal 1 0 0
		outer loop
			vertex 25 -30.5 0.5
			vertex 25 -30.5 -0.5
			vertex 25 -29.5 -0.5
		endloop
	endfacet
	facet normal -1 0 0
		outer loop
			vertex -25 -29.5 -0.5
			vertex -25 -30.5 -0.5
			vertex -25 -29.5 0.5
		endloop
	endfacet
	facet normal -1 0 0
		outer loop
			vertex -25 -30.5 -0.5
			vertex -25 -30.5 0.5
			vertex -25 -29.5 0.5
		endloop
	endfacet
	facet normal 0 1 0
		outer loop
			vertex -25 -29.5 -0.5
			vertex -25 -29.5 0.5
			vertex 25 -29.5 -0.5
		endloop
	endfacet
	facet normal 0 1 0
		outer loop
			vertex -25 -29.5 0.5
			vertex 25 -29.5 0.5
			vertex 25 -29.5 -0.5
		endloop
	endfacet
	facet normal 0 -1 0
		outer loop
			vertex -25 -30.5 0.5
			vertex -25 -30.5 -0.5
			vertex 25 -30.5 0.5
		endloop
	endfacet
	facet normal 0 -1 0
		outer loop
			vertex -25 -30.5 -0.5
			vertex 25 -30.5 -0.5
			vertex 25 -30.5 0.5
		endloop
	endfacet
	facet normal 0 0 1
		outer loop
			vertex -25 -29.5 0.5
			vertex -25 -30.5 0.5
			vertex 25 -29.5 0.5
		endloop
	endfacet
	facet normal 0 0 1
		outer loop
			vertex -25 -30.5 0.5
			vertex 25 -30.5 0.5
			vertex 25 -29.5 0.5
		endloop
	endfacet
	facet normal 0 0 -1
		outer loop
			vertex 25 -29.5 -0.5
			vertex 25 -30.5 -0.5
			vertex -25 -29.5 -0.5
		endloop
	endfacet
	facet normal 0 0 -1
		outer loop
			vertex 25 -30.5 -0.5
			vertex -25 -30.5 -0.5
			vertex -25 -29.5 -0.5
		endloop
	endfacet
	facet normal 1 0 0
		outer loop
			vertex 50 -9.5 0.5
			vertex 50 -10.5 0.5
			vertex 50 -9.5 -0.5
		endloop
	endfacet
	facet normal 1 0 0
		outer loop
			vertex 50 -10.5 0.5
			vertex 50 -10.5 -0.5
			vertex 50 -9.5 -0.5
		endloop
	endfacet
	facet normal -1 0 0
		outer loop
			vertex -50 -9.5 -0.5
			vertex -50 -10.5 -0.5
			vertex -50 -9.5 0.5
		endloop
	endfacet
	facet normal -1 0 0
		outer loop
			vertex -50 -10.5 -0.5
			vertex -50 -10.5 0.5
			vertex -50 -9.5 0.5
		endloop
	endfacet
	facet normal 0 1 0
		outer loop
			vertex -50 -9.5 -0.5
			vertex -50 -9.5 0.5
			vertex 50 -9.5 -0.5
		endloop
	endfacet
	facet normal 0 1 0
		outer loop
			vertex -50 -9.5 0.5
			vertex 50 -9.5 0.5
			vertex 50 -9.5 -0.5
		endloop
	endfacet
	facet normal 0 -1 0
		outer loop
			vertex -50 -10.5 0.5
			vertex -50 -10.5 -0.5
			vertex 50 -10.5 0.5
		endloop
	endfacet
	facet normal 0 -1 0
		outer loop
			vertex -50 -10.5 -0.5
			vertex 50 -10.5 -0.5
			vertex 50 -10.5 0.5
		endloop
	endfacet
	facet normal 0 0 1
		outer loop
			vertex -50 -9.5 0.5
			vertex -50 -10.5 0.5
			vertex 50 -9.5 0.5
		endloop
	endfacet
	facet normal 0 0 1
		outer loop
			vertex -50 -10.5 0.5
			vertex 50 -10.5 0.5
			vertex 50 -9.5 0.5
		endloop
	endfacet
	facet normal 0 0 -1
		outer loop
			vertex 50 -9.5 -0.5
			vertex 50 -10.5 -0.5
			vertex -50 -9.5 -0.5
		endloop
	endfacet
	facet normal 0 0 -1
		outer loop
			vertex 50 -10.5 -0.5
			vertex -50 -10.5 -0.5
			vertex -50 -9.5 -0.5
		endloop
	endfacet
	facet normal 1 0 0
		outer loop
			vertex 75 10.5 0.5
			vertex 75 9.5 0.5
			vertex 75 10.5 -0.5
		endloop
	endfacet
	facet normal 1 0 0
		outer loop
			vertex 75 9.5 0.5
			vertex 75 9.5 -0.5
			vertex 75 10.5 -0.5
		endloop
	endfacet
	facet normal -1 0 0
		outer loop
			vertex -75 10.5 -0.5
			vertex -75 9.5 -0.5
			vertex -75 10.5 0.5
		endloop
	endfacet
	facet normal -1 0 0
		outer loop
			vertex -75 9.5 -0.5
			vertex -75 9.5 0.5
			vertex -75 10.5 0.5
		endloop
	endfacet
	facet normal 0 1 0
		outer loop
			vertex -75 10.5 -0.5
			vertex -75 10.5 0.5
			vertex 75 10.5 -0.5
		endloop
	endfacet
	facet normal 0 1 0
		outer loop
			vertex -75 10.5 0.5
			vertex 75 10.5 0.5
			vertex 75 10.5 -0.5
		endloop
	endfacet
	facet normal 0 -1 0
		outer loop
			vertex -75 9.5 0.5
			vertex -75 9.5 -0.5
			vertex 75 9.5 0.5
		endloop
	endfacet
	facet normal 0 -1 0
		outer loop
			vertex -75 9.5 -0.5
			vertex 75 9.5 -0.5
			vertex 75 9.5 0.5
		endloop
	endfacet
	facet normal 0 0 1
		outer loop
			vertex -75 10.5 0.5
			vertex -75 9.5 0.5
			vertex 75 10.5 0.5
		endloop
	endfacet
	facet normal 0 0 1
		outer loop
			vertex -75 9.5 0.5
			vertex 75 9.5 0.5
			vertex 75 10.5 0.5
		endloop
	endfacet
	facet normal 0 0 -1
		outer loop
			vertex 75 10.5 -0.5
			vertex 75 9.5 -0.5
			vertex -75 10.5 -0.5
		endloop
	endfacet
	facet normal 0 0 -1
		outer loop
			vertex 75 9.5 -0.5
			vertex -75 9.5 -0.5
			vertex -75 10.5 -0.5
		endloop
	endfacet
	facet normal 1 0 0
		outer loop
			vertex 100 30.5 0.5
			vertex 100 29.5 0.5
			vertex 100 30.5 -0.5
		endloop
	endfacet
	facet normal 1 0 0
		outer loop
			vertex 100 29.5 0.5
			vertex 100 29.5 -0.5
			vertex 100 30.5 -0.5
		endloop
	endfacet
	facet normal -1 0 0
		outer loop
			vertex -100 30.5 -0.5
			vertex -100 29.5 -0.5
			vertex -100 30.5 0.5
		endloop
	endfacet
	facet normal -1 0 0
		outer loop
			vertex -100 29.5 -0.5
			vertex -100 29.5 0.5
			vertex -100 30.5 0.5
		endloop
	endfacet
	facet normal 0 1 0
		outer loop
			vertex -100 30.5 -0.5
			vertex -100 30.5 0.5
			vertex 100 30.5 -0.5
		endloop
	endfacet
	facet normal 0 1 0
		outer loop
			vertex -100 30.5 0.5
			vertex 100 30.5 0.5
			vertex 100 30.5 -0.5
		endloop
	endfacet
	facet normal 0 -1 0
		outer loop
			vertex -100 29.5 0.5
			vertex -100 29.5 -0.5
			vertex 100 29.5 0.5
		endloop
	endfacet
	facet normal 0 -1 0
		outer loop
			vertex -100 29.5 -0.5
			vertex 100 29.5 -0.5
			vertex 100 29.5 0.5
		endloop
	endfacet
	facet normal 0 0 1
		outer loop
			vertex -100 30.5 0.5
			vertex -100 29.5 0.5
			vertex 100 30.5 0.5
		endloop
	endfacet
	facet normal 0 0 1
		outer loop
			vertex -100 29.5 0.5
			vertex 100 29.5 0.5
			vertex 100 30.5 0.5
		endloop
	endfacet
	facet normal 0 0 -1
		outer loop
			vertex 100 30.5 -0.5
			vertex 100 29.5 -0.5
			vertex -100 30.5 -0.5
		endloop
	endfacet
	facet normal 0 0 -1
		outer loop
			vertex 100 29.5 -0.5
			vertex -100 29.5 -0.5
			vertex -100 30.5 -0.5
		endloop
	endfacet
endsolid exported
