solid exported
	facet normal 1 0 0
		outer loop
			vertex 25 -26 4
			vertex 25 -34 4
			vertex 25 -26 -4
		endloop
	endfacet
	facet normal 1 0 0
		outer loop
			vertex 25 -34 4
			vertex 25 -34 -4
			vertex 25 -26 -4
		endloop
	endfacet
	facet normal -1 0 0
		outer loop
			vertex -25 -26 -4
			vertex -25 -34 -4
			vertex -25 -26 4
		endloop
	endfacet
	facet normal -1 0 0
		outer loop
			vertex -25 -34 -4
			vertex -25 -34 4
			vertex -25 -26 4
		endloop
	endfacet
	facet normal 0 1 0
		outer loop
			vertex -25 -26 -4
			vertex -25 -26 4
			vertex 25 -26 -4
		endloop
	endfacet
	facet normal 0 1 0
		outer loop
			vertex -25 -26 4
			vertex 25 -26 4
			vertex 25 -26 -4
		endloop
	endfacet
	facet normal 0 -1 0
		outer loop
			vertex -25 -34 4
			vertex -25 -34 -4
			vertex 25 -34 4
		endloop
	endfacet
	facet normal 0 -1 0
		outer loop
			vertex -25 -34 -4
			vertex 25 -34 -4
			vertex 25 -34 4
		endloop
	endfacet
	facet normal 0 0 1
		outer loop
			vertex -25 -26 4
			vertex -25 -34 4
			vertex 25 -26 4
		endloop
	endfacet
	facet normal 0 0 1
		outer loop
			vertex -25 -34 4
			vertex 25 -34 4
			vertex 25 -26 4
		endloop
	endfacet
	facet normal 0 0 -1
		outer loop
			vertex 25 -26 -4
			vertex 25 -34 -4
			vertex -25 -26 -4
		endloop
	endfacet
	facet normal 0 0 -1
		outer loop
			vertex 25 -34 -4
			vertex -25 -34 -4
			vertex -25 -26 -4
		endloop
	endfacet
	facet normal 1 0 0
		outer loop
			vertex 50 -6 4
			vertex 50 -14 4
			vertex 50 -6 -4
		endloop
	endfacet
	facet normal 1 0 0
		outer loop
			vertex 50 -14 4
			vertex 50 -14 -4
			vertex 50 -6 -4
		endloop
	endfacet
	facet normal -1 0 0
		outer loop
			vertex -50 -6 -4
			vertex -50 -14 -4
			vertex -50 -6 4
		endloop
	endfacet
	facet normal -1 0 0
		outer loop
			vertex -50 -14 -4
			vertex -50 -14 4
			vertex -50 -6 4
		endloop
	endfacet
	facet normal 0 1 0
		outer loop
			vertex -50 -6 -4
			vertex -50 -6 4
			vertex 50 -6 -4
		endloop
	endfacet
	facet normal 0 1 0
		outer loop
			vertex -50 -6 4
			vertex 50 -6 4
			vertex 50 -6 -4
		endloop
	endfacet
	facet normal 0 -1 0
		outer loop
			vertex -50 -14 4
			vertex -50 -14 -4
			vertex 50 -14 4
		endloop
	endfacet
	facet normal 0 -1 0
		outer loop
			vertex -50 -14 -4
			vertex 50 -14 -4
			vertex 50 -14 4
		endloop
	endfacet
	facet normal 0 0 1
		outer loop
			vertex -50 -6 4
			vertex -50 -14 4
			vertex 50 -6 4
		endloop
	endfacet
	facet normal 0 0 1
		outer loop
			vertex -50 -14 4
			vertex 50 -14 4
			vertex 50 -6 4
		endloop
	endfacet
	facet normal 0 0 -1
		outer loop
			vertex 50 -6 -4
			vertex 50 -14 -4
			vertex -50 -6 -4
		endloop
	endfacet
	facet normal 0 0 -1
		outer loop
			vertex 50 -14 -4
			vertex -50 -14 -4
			vertex -50 -6 -4
		endloop
	endfacet
	facet normal 1 0 0
		outer loop
			vertex 75 14 4
			vertex 75 6 4
			vertex 75 14 -4
		endloop
	endfacet
	facet normal 1 0 0
		outer loop
			vertex 75 6 4
			vertex 75 6 -4
			vertex 75 14 -4
		endloop
	endfacet
	facet normal -1 0 0
		outer loop
			vertex -75 14 -4
			vertex -75 6 -4
			vertex -75 14 4
		endloop
	endfacet
	facet normal -1 0 0
		outer loop
			vertex -75 6 -4
			vertex -75 6 4
			vertex -75 14 4
		endloop
	endfacet
	facet normal 0 1 0
		outer loop
			vertex -75 14 -4
			vertex -75 14 4
			vertex 75 14 -4
		endloop
	endfacet
	facet normal 0 1 0
		outer loop
			vertex -75 14 4
			vertex 75 14 4
			vertex 75 14 -4
		endloop
	endfacet
	facet normal 0 -1 0
		outer loop
			vertex -75 6 4
			vertex -75 6 -4
			vertex 75 6 4
		endloop
	endfacet
	facet normal 0 -1 0
		outer loop
			vertex -75 6 -4
			vertex 75 6 -4
			vertex 75 6 4
		endloop
	endfacet
	facet normal 0 0 1
		outer loop
			vertex -75 14 4
			vertex -75 6 4
			vertex 75 14 4
		endloop
	endfacet
	facet normal 0 0 1
		outer loop
			vertex -75 6 4
			vertex 75 6 4
			vertex 75 14 4
		endloop
	endfacet
	facet normal 0 0 -1
		outer loop
			vertex 75 14 -4
			vertex 75 6 -4
			vertex -75 14 -4
		endloop
	endfacet
	facet normal 0 0 -1
		outer loop
			vertex 75 6 -4
			vertex -75 6 -4
			vertex -75 14 -4
		endloop
	endfacet
	facet normal 1 0 0
		outer loop
			vertex 100 34 4
			vertex 100 26 4
			vertex 100 34 -4
		endloop
	endfacet
	facet normal 1 0 0
		outer loop
			vertex 100 26 4
			vertex 100 26 -4
			vertex 100 34 -4
		endloop
	endfacet
	facet normal -1 0 0
		outer loop
			vertex -100 34 -4
			vertex -100 26 -4
			vertex -100 34 4
		endloop
	endfacet
	facet normal -1 0 0
		outer loop
			vertex -100 26 -4
			vertex -100 26 4
			vertex -100 34 4
		endloop
	endfacet
	facet normal 0 1 0
		outer loop
			vertex -100 34 -4
			vertex -100 34 4
			vertex 100 34 -4
		endloop
	endfacet
	facet normal 0 1 0
		outer loop
			vertex -100 34 4
			vertex 100 34 4
			vertex 100 34 -4
		endloop
	endfacet
	facet normal 0 -1 0
		outer loop
			vertex -100 26 4
			vertex -100 26 -4
			vertex 100 26 4
		endloop
	endfacet
	facet normal 0 -1 0
		outer loop
			vertex -100 26 -4
			vertex 100 26 -4
			vertex 100 26 4
		endloop
	endfacet
	facet normal 0 0 1
		outer loop
			vertex -100 34 4
			vertex -100 26 4
			vertex 100 34 4
		endloop
	endfacet
	facet normal 0 0 1
		outer loop
			vertex -100 26 4
			vertex 100 26 4
			vertex 100 34 4
		endloop
	endfacet
	facet normal 0 0 -1
		outer loop
			vertex 100 34 -4
			vertex 100 26 -4
			vertex -100 34 -4
		endloop
	endfacet
	facet normal 0 0 -1
		outer loop
			vertex 100 26 -4
			vertex -100 26 -4
			vertex -100 34 -4
		endloop
	endfacet
endsolid exported
