solid exported
	facet normal 1 0 0
		outer loop
			vertex 25 -26.5 3.5
			vertex 25 -33.5 3.5
			vertex 25 -26.5 -3.5
		endloop
	endfacet
	facet normal 1 0 0
		outer loop
			vertex 25 -33.5 3.5
			vertex 25 -33.5 -3.5
			vertex 25 -26.5 -3.5
		endloop
	endfacet
	facet normal -1 0 0
		outer loop
			vertex -25 -26.5 -3.5
			vertex -25 -33.5 -3.5
			vertex -25 -26.5 3.5
		endloop
	endfacet
	facet normal -1 0 0
		outer loop
			vertex -25 -33.5 -3.5
			vertex -25 -33.5 3.5
			vertex -25 -26.5 3.5
		endloop
	endfacet
	facet normal 0 1 0
		outer loop
			vertex -25 -26.5 -3.5
			vertex -25 -26.5 3.5
			vertex 25 -26.5 -3.5
		endloop
	endfacet
	facet normal 0 1 0
		outer loop
			vertex -25 -26.5 3.5
			vertex 25 -26.5 3.5
			vertex 25 -26.5 -3.5
		endloop
	endfacet
	facet normal 0 -1 0
		outer loop
			vertex -25 -33.5 3.5
			vertex -25 -33.5 -3.5
			vertex 25 -33.5 3.5
		endloop
	endfacet
	facet normal 0 -1 0
		outer loop
			vertex -25 -33.5 -3.5
			vertex 25 -33.5 -3.5
			vertex 25 -33.5 3.5
		endloop
	endfacet
	facet normal 0 0 1
		outer loop
			vertex -25 -26.5 3.5
			vertex -25 -33.5 3.5
			vertex 25 -26.5 3.5
		endloop
	endfacet
	facet normal 0 0 1
		outer loop
			vertex -25 -33.5 3.5
			vertex 25 -33.5 3.5
			vertex 25 -26.5 3.5
		endloop
	endfacet
	facet normal 0 0 -1
		outer loop
			vertex 25 -26.5 -3.5
			vertex 25 -33.5 -3.5
			vertex -25 -26.5 -3.5
		endloop
	endfacet
	facet normal 0 0 -1
		outer loop
			vertex 25 -33.5 -3.5
			vertex -25 -33.5 -3.5
			vertex -25 -26.5 -3.5
		endloop
	endfacet
	facet normal 1 0 0
		outer loop
			vertex 50 -6.5 3.5
			vertex 50 -13.5 3.5
			vertex 50 -6.5 -3.5
		endloop
	endfacet
	facet normal 1 0 0
		outer loop
			vertex 50 -13.5 3.5
			vertex 50 -13.5 -3.5
			vertex 50 -6.5 -3.5
		endloop
	endfacet
	facet normal -1 0 0
		outer loop
			vertex -50 -6.5 -3.5
			vertex -50 -13.5 -3.5
			vertex -50 -6.5 3.5
		endloop
	endfacet
	facet normal -1 0 0
		outer loop
			vertex -50 -13.5 -3.5
			vertex -50 -13.5 3.5
			vertex -50 -6.5 3.5
		endloop
	endfacet
	facet normal 0 1 0
		outer loop
			vertex -50 -6.5 -3.5
			vertex -50 -6.5 3.5
			vertex 50 -6.5 -3.5
		endloop
	endfacet
	facet normal 0 1 0
		outer loop
			vertex -50 -6.5 3.5
			vertex 50 -6.5 3.5
			vertex 50 -6.5 -3.5
		endloop
	endfacet
	facet normal 0 -1 0
		outer loop
			vertex -50 -13.5 3.5
			vertex -50 -13.5 -3.5
			vertex 50 -13.5 3.5
		endloop
	endfacet
	facet normal 0 -1 0
		outer loop
			vertex -50 -13.5 -3.5
			vertex 50 -13.5 -3.5
			vertex 50 -13.5 3.5
		endloop
	endfacet
	facet normal 0 0 1
		outer loop
			vertex -50 -6.5 3.5
			vertex -50 -13.5 3.5
			vertex 50 -6.5 3.5
		endloop
	endfacet
	facet normal 0 0 1
		outer loop
			vertex -50 -13.5 3.5
			vertex 50 -13.5 3.5
			vertex 50 -6.5 3.5
		endloop
	endfacet
	facet normal 0 0 -1
		outer loop
			vertex 50 -6.5 -3.5
			vertex 50 -13.5 -3.5
			vertex -50 -6.5 -3.5
		endloop
	endfacet
	facet normal 0 0 -1
		outer loop
			vertex 50 -13.5 -3.5
			vertex -50 -13.5 -3.5
			vertex -50 -6.5 -3.5
		endloop
	endfacet
	facet normal 1 0 0
		outer loop
			vertex 75 13.5 3.5
			vertex 75 6.5 3.5
			vertex 75 13.5 -3.5
		endloop
	endfacet
	facet normal 1 0 0
		outer loop
			vertex 75 6.5 3.5
			vertex 75 6.5 -3.5
			vertex 75 13.5 -3.5
		endloop
	endfacet
	facet normal -1 0 0
		outer loop
			vertex -75 13.5 -3.5
			vertex -75 6.5 -3.5
			vertex -75 13.5 3.5
		endloop
	endfacet
	facet normal -1 0 0
		outer loop
			vertex -75 6.5 -3.5
			vertex -75 6.5 3.5
			vertex -75 13.5 3.5
		endloop
	endfacet
	facet normal 0 1 0
		outer loop
			vertex -75 13.5 -3.5
			vertex -75 13.5 3.5
			vertex 75 13.5 -3.5
		endloop
	endfacet
	facet normal 0 1 0
		outer loop
			vertex -75 13.5 3.5
			vertex 75 13.5 3.5
			vertex 75 13.5 -3.5
		endloop
	endfacet
	facet normal 0 -1 0
		outer loop
			vertex -75 6.5 3.5
			vertex -75 6.5 -3.5
			vertex 75 6.5 3.5
		endloop
	endfacet
	facet normal 0 -1 0
		outer loop
			vertex -75 6.5 -3.5
			vertex 75 6.5 -3.5
			vertex 75 6.5 3.5
		endloop
	endfacet
	facet normal 0 0 1
		outer loop
			vertex -75 13.5 3.5
			vertex -75 6.5 3.5
			vertex 75 13.5 3.5
		endloop
	endfacet
	facet normal 0 0 1
		outer loop
			vertex -75 6.5 3.5
			vertex 75 6.5 3.5
			vertex 75 13.5 3.5
		endloop
	endfacet
	facet normal 0 0 -1
		outer loop
			vertex 75 13.5 -3.5
			vertex 75 6.5 -3.5
			vertex -75 13.5 -3.5
		endloop
	endfacet
	facet normal 0 0 -1
		outer loop
			vertex 75 6.5 -3.5
			vertex -75 6.5 -3.5
			vertex -75 13.5 -3.5
		endloop
	endfacet
	facet normal 1 0 0
		outer loop
			vertex 100 33.5 3.5
			vertex 100 26.5 3.5
			vertex 100 33.5 -3.5
		endloop
	endfacet
	facet normal 1 0 0
		outer loop
			vertex 100 26.5 3.5
			vertex 100 26.5 -3.5
			vertex 100 33.5 -3.5
		endloop
	endfacet
	facet normal -1 0 0
		outer loop
			vertex -100 33.5 -3.5
			vertex -100 26.5 -3.5
			vertex -100 33.5 3.5
		endloop
	endfacet
	facet normal -1 0 0
		outer loop
			vertex -100 26.5 -3.5
			vertex -100 26.5 3.5
			vertex -100 33.5 3.5
		endloop
	endfacet
	facet normal 0 1 0
		outer loop
			vertex -100 33.5 -3.5
			vertex -100 33.5 3.5
			vertex 100 33.5 -3.5
		endloop
	endfacet
	facet normal 0 1 0
		outer loop
			vertex -100 33.5 3.5
			vertex 100 33.5 3.5
			vertex 100 33.5 -3.5
		endloop
	endfacet
	facet normal 0 -1 0
		outer loop
			vertex -100 26.5 3.5
			vertex -100 26.5 -3.5
			vertex 100 26.5 3.5
		endloop
	endfacet
	facet normal 0 -1 0
		outer loop
			vertex -100 26.5 -3.5
			vertex 100 26.5 -3.5
			vertex 100 26.5 3.5
		endloop
	endfacet
	facet normal 0 0 1
		outer loop
			vertex -100 33.5 3.5
			vertex -100 26.5 3.5
			vertex 100 33.5 3.5
		endloop
	endfacet
	facet normal 0 0 1
		outer loop
			vertex -100 26.5 3.5
			vertex 100 26.5 3.5
			vertex 100 33.5 3.5
		endloop
	endfacet
	facet normal 0 0 -1
		outer loop
			vertex 100 33.5 -3.5
			vertex 100 26.5 -3.5
			vertex -100 33.5 -3.5
		endloop
	endfacet
	facet normal 0 0 -1
		outer loop
			vertex 100 26.5 -3.5
			vertex -100 26.5 -3.5
			vertex -100 33.5 -3.5
		endloop
	endfacet
endsolid exported
