solid exported
	facet normal 1 0 0
		outer loop
			vertex 25 -29 1
			vertex 25 -31 1
			vertex 25 -29 -1
		endloop
	endfacet
	facet normal 1 0 0
		outer loop
			vertex 25 -31 1
			vertex 25 -31 -1
			vertex 25 -29 -1
		endloop
	endfacet
	facet normal -1 0 0
		outer loop
			vertex -25 -29 -1
			vertex -25 -31 -1
			vertex -25 -29 1
		endloop
	endfacet
	facet normal -1 0 0
		outer loop
			vertex -25 -31 -1
			vertex -25 -31 1
			vertex -25 -29 1
		endloop
	endfacet
	facet normal 0 1 0
		outer loop
			vertex -25 -29 -1
			vertex -25 -29 1
			vertex 25 -29 -1
		endloop
	endfacet
	facet normal 0 1 0
		outer loop
			vertex -25 -29 1
			vertex 25 -29 1
			vertex 25 -29 -1
		endloop
	endfacet
	facet normal 0 -1 0
		outer loop
			vertex -25 -31 1
			vertex -25 -31 -1
			vertex 25 -31 1
		endloop
	endfacet
	facet normal 0 -1 0
		outer loop
			vertex -25 -31 -1
			vertex 25 -31 -1
			vertex 25 -31 1
		endloop
	endfacet
	facet normal 0 0 1
		outer loop
			vertex -25 -29 1
			vertex -25 -31 1
			vertex 25 -29 1
		endloop
	endfacet
	facet normal 0 0 1
		outer loop
			vertex -25 -31 1
			vertex 25 -31 1
			vertex 25 -29 1
		endloop
	endfacet
	facet normal 0 0 -1
		outer loop
			vertex 25 -29 -1
			vertex 25 -31 -1
			vertex -25 -29 -1
		endloop
	endfacet
	facet normal 0 0 -1
		outer loop
			vertex 25 -31 -1
			vertex -25 -31 -1
			vertex -25 -29 -1
		endloop
	endfacet
	facet normal 1 0 0
		outer loop
			vertex 50 -9 1
			vertex 50 -11 1
			vertex 50 -9 -1
		endloop
	endfacet
	facet normal 1 0 0
		outer loop
			vertex 50 -11 1
			vertex 50 -11 -1
			vertex 50 -9 -1
		endloop
	endfacet
	facet normal -1 0 0
		outer loop
			vertex -50 -9 -1
			vertex -50 -11 -1
			vertex -50 -9 1
		endloop
	endfacet
	facet normal -1 0 0
		outer loop
			vertex -50 -11 -1
			vertex -50 -11 1
			vertex -50 -9 1
		endloop
	endfacet
	facet normal 0 1 0
		outer loop
			vertex -50 -9 -1
			vertex -50 -9 1
			vertex 50 -9 -1
		endloop
	endfacet
	facet normal 0 1 0
		outer loop
			vertex -50 -9 1
			vertex 50 -9 1
			vertex 50 -9 -1
		endloop
	endfacet
	facet normal 0 -1 0
		outer loop
			vertex -50 -11 1
			vertex -50 -11 -1
			vertex 50 -11 1
		endloop
	endfacet
	facet normal 0 -1 0
		outer loop
			vertex -50 -11 -1
			vertex 50 -11 -1
			vertex 50 -11 1
		endloop
	endfacet
	facet normal 0 0 1
		outer loop
			vertex -50 -9 1
			vertex -50 -11 1
			vertex 50 -9 1
		endloop
	endfacet
	facet normal 0 0 1
		outer loop
			vertex -50 -11 1
			vertex 50 -11 1
			vertex 50 -9 1
		endloop
	endfacet
	facet normal 0 0 -1
		outer loop
			vertex 50 -9 -1
			vertex 50 -11 -1
			vertex -50 -9 -1
		endloop
	endfacet
	facet normal 0 0 -1
		outer loop
			vertex 50 -11 -1
			vertex -50 -11 -1
			vertex -50 -9 -1
		endloop
	endfacet
	facet normal 1 0 0
		outer loop
			vertex 75 11 1
			vertex 75 9 1
			vertex 75 11 -1
		endloop
	endfacet
	facet normal 1 0 0
		outer loop
			vertex 75 9 1
			vertex 75 9 -1
			vertex 75 11 -1
		endloop
	endfacet
	facet normal -1 0 0
		outer loop
			vertex -75 11 -1
			vertex -75 9 -1
			vertex -75 11 1
		endloop
	endfacet
	facet normal -1 0 0
		outer loop
			vertex -75 9 -1
			vertex -75 9 1
			vertex -75 11 1
		endloop
	endfacet
	facet normal 0 1 0
		outer loop
			vertex -75 11 -1
			vertex -75 11 1
			vertex 75 11 -1
		endloop
	endfacet
	facet normal 0 1 0
		outer loop
			vertex -75 11 1
			vertex 75 11 1
			vertex 75 11 -1
		endloop
	endfacet
	facet normal 0 -1 0
		outer loop
			vertex -75 9 1
			vertex -75 9 -1
			vertex 75 9 1
		endloop
	endfacet
	facet normal 0 -1 0
		outer loop
			vertex -75 9 -1
			vertex 75 9 -1
			vertex 75 9 1
		endloop
	endfacet
	facet normal 0 0 1
		outer loop
			vertex -75 11 1
			vertex -75 9 1
			vertex 75 11 1
		endloop
	endfacet
	facet normal 0 0 1
		outer loop
			vertex -75 9 1
			vertex 75 9 1
			vertex 75 11 1
		endloop
	endfacet
	facet normal 0 0 -1
		outer loop
			vertex 75 11 -1
			vertex 75 9 -1
			vertex -75 11 -1
		endloop
	endfacet
	facet normal 0 0 -1
		outer loop
			vertex 75 9 -1
			vertex -75 9 -1
			vertex -75 11 -1
		endloop
	endfacet
	facet normal 1 0 0
		outer loop
			vertex 100 31 1
			vertex 100 29 1
			vertex 100 31 -1
		endloop
	endfacet
	facet normal 1 0 0
		outer loop
			vertex 100 29 1
			vertex 100 29 -1
			vertex 100 31 -1
		endloop
	endfacet
	facet normal -1 0 0
		outer loop
			vertex -100 31 -1
			vertex -100 29 -1
			vertex -100 31 1
		endloop
	endfacet
	facet normal -1 0 0
		outer loop
			vertex -100 29 -1
			vertex -100 29 1
			vertex -100 31 1
		endloop
	endfacet
	facet normal 0 1 0
		outer loop
			vertex -100 31 -1
			vertex -100 31 1
			vertex 100 31 -1
		endloop
	endfacet
	facet normal 0 1 0
		outer loop
			vertex -100 31 1
			vertex 100 31 1
			vertex 100 31 -1
		endloop
	endfacet
	facet normal 0 -1 0
		outer loop
			vertex -100 29 1
			vertex -100 29 -1
			vertex 100 29 1
		endloop
	endfacet
	facet normal 0 -1 0
		outer loop
			vertex -100 29 -1
			vertex 100 29 -1
			vertex 100 29 1
		endloop
	endfacet
	facet normal 0 0 1
		outer loop
			vertex -100 31 1
			vertex -100 29 1
			vertex 100 31 1
		endloop
	endfacet
	facet normal 0 0 1
		outer loop
			vertex -100 29 1
			vertex 100 29 1
			vertex 100 31 1
		endloop
	endfacet
	facet normal 0 0 -1
		outer loop
			vertex 100 31 -1
			vertex 100 29 -1
			vertex -100 31 -1
		endloop
	endfacet
	facet normal 0 0 -1
		outer loop
			vertex 100 29 -1
			vertex -100 29 -1
			vertex -100 31 -1
		endloop
	endfacet
endsolid exported
