solid exported
	facet normal 1 0 0
		outer loop
			vertex 25 -28.5 1.5
			vertex 25 -31.5 1.5
			vertex 25 -28.5 -1.5
		endloop
	endfacet
	facet normal 1 0 0
		outer loop
			vertex 25 -31.5 1.5
			vertex 25 -31.5 -1.5
			vertex 25 -28.5 -1.5
		endloop
	endfacet
	facet normal -1 0 0
		outer loop
			vertex -25 -28.5 -1.5
			vertex -25 -31.5 -1.5
			vertex -25 -28.5 1.5
		endloop
	endfacet
	facet normal -1 0 0
		outer loop
			vertex -25 -31.5 -1.5
			vertex -25 -31.5 1.5
			vertex -25 -28.5 1.5
		endloop
	endfacet
	facet normal 0 1 0
		outer loop
			vertex -25 -28.5 -1.5
			vertex -25 -28.5 1.5
			vertex 25 -28.5 -1.5
		endloop
	endfacet
	facet normal 0 1 0
		outer loop
			vertex -25 -28.5 1.5
			vertex 25 -28.5 1.5
			vertex 25 -28.5 -1.5
		endloop
	endfacet
	facet normal 0 -1 0
		outer loop
			vertex -25 -31.5 1.5
			vertex -25 -31.5 -1.5
			vertex 25 -31.5 1.5
		endloop
	endfacet
	facet normal 0 -1 0
		outer loop
			vertex -25 -31.5 -1.5
			vertex 25 -31.5 -1.5
			vertex 25 -31.5 1.5
		endloop
	endfacet
	facet normal 0 0 1
		outer loop
			vertex -25 -28.5 1.5
			vertex -25 -31.5 1.5
			vertex 25 -28.5 1.5
		endloop
	endfacet
	facet normal 0 0 1
		outer loop
			vertex -25 -31.5 1.5
			vertex 25 -31.5 1.5
			vertex 25 -28.5 1.5
		endloop
	endfacet
	facet normal 0 0 -1
		outer loop
			vertex 25 -28.5 -1.5
			vertex 25 -31.5 -1.5
			vertex -25 -28.5 -1.5
		endloop
	endfacet
	facet normal 0 0 -1
		outer loop
			vertex 25 -31.5 -1.5
			vertex -25 -31.5 -1.5
			vertex -25 -28.5 -1.5
		endloop
	endfacet
	facet normal 1 0 0
		outer loop
			vertex 50 -8.5 1.5
			vertex 50 -11.5 1.5
			vertex 50 -8.5 -1.5
		endloop
	endfacet
	facet normal 1 0 0
		outer loop
			vertex 50 -11.5 1.5
			vertex 50 -11.5 -1.5
			vertex 50 -8.5 -1.5
		endloop
	endfacet
	facet normal -1 0 0
		outer loop
			vertex -50 -8.5 -1.5
			vertex -50 -11.5 -1.5
			vertex -50 -8.5 1.5
		endloop
	endfacet
	facet normal -1 0 0
		outer loop
			vertex -50 -11.5 -1.5
			vertex -50 -11.5 1.5
			vertex -50 -8.5 1.5
		endloop
	endfacet
	facet normal 0 1 0
		outer loop
			vertex -50 -8.5 -1.5
			vertex -50 -8.5 1.5
			vertex 50 -8.5 -1.5
		endloop
	endfacet
	facet normal 0 1 0
		outer loop
			vertex -50 -8.5 1.5
			vertex 50 -8.5 1.5
			vertex 50 -8.5 -1.5
		endloop
	endfacet
	facet normal 0 -1 0
		outer loop
			vertex -50 -11.5 1.5
			vertex -50 -11.5 -1.5
			vertex 50 -11.5 1.5
		endloop
	endfacet
	facet normal 0 -1 0
		outer loop
			vertex -50 -11.5 -1.5
			vertex 50 -11.5 -1.5
			vertex 50 -11.5 1.5
		endloop
	endfacet
	facet normal 0 0 1
		outer loop
			vertex -50 -8.5 1.5
			vertex -50 -11.5 1.5
			vertex 50 -8.5 1.5
		endloop
	endfacet
	facet normal 0 0 1
		outer loop
			vertex -50 -11.5 1.5
			vertex 50 -11.5 1.5
			vertex 50 -8.5 1.5
		endloop
	endfacet
	facet normal 0 0 -1
		outer loop
			vertex 50 -8.5 -1.5
			vertex 50 -11.5 -1.5
			vertex -50 -8.5 -1.5
		endloop
	endfacet
	facet normal 0 0 -1
		outer loop
			vertex 50 -11.5 -1.5
			vertex -50 -11.5 -1.5
			vertex -50 -8.5 -1.5
		endloop
	endfacet
	facet normal 1 0 0
		outer loop
			vertex 75 11.5 1.5
			vertex 75 8.5 1.5
			vertex 75 11.5 -1.5
		endloop
	endfacet
	facet normal 1 0 0
		outer loop
			vertex 75 8.5 1.5
			vertex 75 8.5 -1.5
			vertex 75 11.5 -1.5
		endloop
	endfacet
	facet normal -1 0 0
		outer loop
			vertex -75 11.5 -1.5
			vertex -75 8.5 -1.5
			vertex -75 11.5 1.5
		endloop
	endfacet
	facet normal -1 0 0
		outer loop
			vertex -75 8.5 -1.5
			vertex -75 8.5 1.5
			vertex -75 11.5 1.5
		endloop
	endfacet
	facet normal 0 1 0
		outer loop
			vertex -75 11.5 -1.5
			vertex -75 11.5 1.5
			vertex 75 11.5 -1.5
		endloop
	endfacet
	facet normal 0 1 0
		outer loop
			vertex -75 11.5 1.5
			vertex 75 11.5 1.5
			vertex 75 11.5 -1.5
		endloop
	endfacet
	facet normal 0 -1 0
		outer loop
			vertex -75 8.5 1.5
			vertex -75 8.5 -1.5
			vertex 75 8.5 1.5
		endloop
	endfacet
	facet normal 0 -1 0
		outer loop
			vertex -75 8.5 -1.5
			vertex 75 8.5 -1.5
			vertex 75 8.5 1.5
		endloop
	endfacet
	facet normal 0 0 1
		outer loop
			vertex -75 11.5 1.5
			vertex -75 8.5 1.5
			vertex 75 11.5 1.5
		endloop
	endfacet
	facet normal 0 0 1
		outer loop
			vertex -75 8.5 1.5
			vertex 75 8.5 1.5
			vertex 75 11.5 1.5
		endloop
	endfacet
	facet normal 0 0 -1
		outer loop
			vertex 75 11.5 -1.5
			vertex 75 8.5 -1.5
			vertex -75 11.5 -1.5
		endloop
	endfacet
	facet normal 0 0 -1
		outer loop
			vertex 75 8.5 -1.5
			vertex -75 8.5 -1.5
			vertex -75 11.5 -1.5
		endloop
	endfacet
	facet normal 1 0 0
		outer loop
			vertex 100 31.5 1.5
			vertex 100 28.5 1.5
			vertex 100 31.5 -1.5
		endloop
	endfacet
	facet normal 1 0 0
		outer loop
			vertex 100 28.5 1.5
			vertex 100 28.5 -1.5
			vertex 100 31.5 -1.5
		endloop
	endfacet
	facet normal -1 0 0
		outer loop
			vertex -100 31.5 -1.5
			vertex -100 28.5 -1.5
			vertex -100 31.5 1.5
		endloop
	endfacet
	facet normal -1 0 0
		outer loop
			vertex -100 28.5 -1.5
			vertex -100 28.5 1.5
			vertex -100 31.5 1.5
		endloop
	endfacet
	facet normal 0 1 0
		outer loop
			vertex -100 31.5 -1.5
			vertex -100 31.5 1.5
			vertex 100 31.5 -1.5
		endloop
	endfacet
	facet normal 0 1 0
		outer loop
			vertex -100 31.5 1.5
			vertex 100 31.5 1.5
			vertex 100 31.5 -1.5
		endloop
	endfacet
	facet normal 0 -1 0
		outer loop
			vertex -100 28.5 1.5
			vertex -100 28.5 -1.5
			vertex 100 28.5 1.5
		endloop
	endfacet
	facet normal 0 -1 0
		outer loop
			vertex -100 28.5 -1.5
			vertex 100 28.5 -1.5
			vertex 100 28.5 1.5
		endloop
	endfacet
	facet normal 0 0 1
		outer loop
			vertex -100 31.5 1.5
			vertex -100 28.5 1.5
			vertex 100 31.5 1.5
		endloop
	endfacet
	facet normal 0 0 1
		outer loop
			vertex -100 28.5 1.5
			vertex 100 28.5 1.5
			vertex 100 31.5 1.5
		endloop
	endfacet
	facet normal 0 0 -1
		outer loop
			vertex 100 31.5 -1.5
			vertex 100 28.5 -1.5
			vertex -100 31.5 -1.5
		endloop
	endfacet
	facet normal 0 0 -1
		outer loop
			vertex 100 28.5 -1.5
			vertex -100 28.5 -1.5
			vertex -100 31.5 -1.5
		endloop
	endfacet
endsolid exported
