solid exported
	facet normal 1 0 0
		outer loop
			vertex 25 -27.5 2.5
			vertex 25 -32.5 2.5
			vertex 25 -27.5 -2.5
		endloop
	endfacet
	facet normal 1 0 0
		outer loop
			vertex 25 -32.5 2.5
			vertex 25 -32.5 -2.5
			vertex 25 -27.5 -2.5
		endloop
	endfacet
	facet normal -1 0 0
		outer loop
			vertex -25 -27.5 -2.5
			vertex -25 -32.5 -2.5
			vertex -25 -27.5 2.5
		endloop
	endfacet
	facet normal -1 0 0
		outer loop
			vertex -25 -32.5 -2.5
			vertex -25 -32.5 2.5
			vertex -25 -27.5 2.5
		endloop
	endfacet
	facet normal 0 1 0
		outer loop
			vertex -25 -27.5 -2.5
			vertex -25 -27.5 2.5
			vertex 25 -27.5 -2.5
		endloop
	endfacet
	facet normal 0 1 0
		outer loop
			vertex -25 -27.5 2.5
			vertex 25 -27.5 2.5
			vertex 25 -27.5 -2.5
		endloop
	endfacet
	facet normal 0 -1 0
		outer loop
			vertex -25 -32.5 2.5
			vertex -25 -32.5 -2.5
			vertex 25 -32.5 2.5
		endloop
	endfacet
	facet normal 0 -1 0
		outer loop
			vertex -25 -32.5 -2.5
			vertex 25 -32.5 -2.5
			vertex 25 -32.5 2.5
		endloop
	endfacet
	facet normal 0 0 1
		outer loop
			vertex -25 -27.5 2.5
			vertex -25 -32.5 2.5
			vertex 25 -27.5 2.5
		endloop
	endfacet
	facet normal 0 0 1
		outer loop
			vertex -25 -32.5 2.5
			vertex 25 -32.5 2.5
			vertex 25 -27.5 2.5
		endloop
	endfacet
	facet normal 0 0 -1
		outer loop
			vertex 25 -27.5 -2.5
			vertex 25 -32.5 -2.5
			vertex -25 -27.5 -2.5
		endloop
	endfacet
	facet normal 0 0 -1
		outer loop
			vertex 25 -32.5 -2.5
			vertex -25 -32.5 -2.5
			vertex -25 -27.5 -2.5
		endloop
	endfacet
	facet normal 1 0 0
		outer loop
			vertex 50 -7.5 2.5
			vertex 50 -12.5 2.5
			vertex 50 -7.5 -2.5
		endloop
	endfacet
	facet normal 1 0 0
		outer loop
			vertex 50 -12.5 2.5
			vertex 50 -12.5 -2.5
			vertex 50 -7.5 -2.5
		endloop
	endfacet
	facet normal -1 0 0
		outer loop
			vertex -50 -7.5 -2.5
			vertex -50 -12.5 -2.5
			vertex -50 -7.5 2.5
		endloop
	endfacet
	facet normal -1 0 0
		outer loop
			vertex -50 -12.5 -2.5
			vertex -50 -12.5 2.5
			vertex -50 -7.5 2.5
		endloop
	endfacet
	facet normal 0 1 0
		outer loop
			vertex -50 -7.5 -2.5
			vertex -50 -7.5 2.5
			vertex 50 -7.5 -2.5
		endloop
	endfacet
	facet normal 0 1 0
		outer loop
			vertex -50 -7.5 2.5
			vertex 50 -7.5 2.5
			vertex 50 -7.5 -2.5
		endloop
	endfacet
	facet normal 0 -1 0
		outer loop
			vertex -50 -12.5 2.5
			vertex -50 -12.5 -2.5
			vertex 50 -12.5 2.5
		endloop
	endfacet
	facet normal 0 -1 0
		outer loop
			vertex -50 -12.5 -2.5
			vertex 50 -12.5 -2.5
			vertex 50 -12.5 2.5
		endloop
	endfacet
	facet normal 0 0 1
		outer loop
			vertex -50 -7.5 2.5
			vertex -50 -12.5 2.5
			vertex 50 -7.5 2.5
		endloop
	endfacet
	facet normal 0 0 1
		outer loop
			vertex -50 -12.5 2.5
			vertex 50 -12.5 2.5
			vertex 50 -7.5 2.5
		endloop
	endfacet
	facet normal 0 0 -1
		outer loop
			vertex 50 -7.5 -2.5
			vertex 50 -12.5 -2.5
			vertex -50 -7.5 -2.5
		endloop
	endfacet
	facet normal 0 0 -1
		outer loop
			vertex 50 -12.5 -2.5
			vertex -50 -12.5 -2.5
			vertex -50 -7.5 -2.5
		endloop
	endfacet
	facet normal 1 0 0
		outer loop
			vertex 75 12.5 2.5
			vertex 75 7.5 2.5
			vertex 75 12.5 -2.5
		endloop
	endfacet
	facet normal 1 0 0
		outer loop
			vertex 75 7.5 2.5
			vertex 75 7.5 -2.5
			vertex 75 12.5 -2.5
		endloop
	endfacet
	facet normal -1 0 0
		outer loop
			vertex -75 12.5 -2.5
			vertex -75 7.5 -2.5
			vertex -75 12.5 2.5
		endloop
	endfacet
	facet normal -1 0 0
		outer loop
			vertex -75 7.5 -2.5
			vertex -75 7.5 2.5
			vertex -75 12.5 2.5
		endloop
	endfacet
	facet normal 0 1 0
		outer loop
			vertex -75 12.5 -2.5
			vertex -75 12.5 2.5
			vertex 75 12.5 -2.5
		endloop
	endfacet
	facet normal 0 1 0
		outer loop
			vertex -75 12.5 2.5
			vertex 75 12.5 2.5
			vertex 75 12.5 -2.5
		endloop
	endfacet
	facet normal 0 -1 0
		outer loop
			vertex -75 7.5 2.5
			vertex -75 7.5 -2.5
			vertex 75 7.5 2.5
		endloop
	endfacet
	facet normal 0 -1 0
		outer loop
			vertex -75 7.5 -2.5
			vertex 75 7.5 -2.5
			vertex 75 7.5 2.5
		endloop
	endfacet
	facet normal 0 0 1
		outer loop
			vertex -75 12.5 2.5
			vertex -75 7.5 2.5
			vertex 75 12.5 2.5
		endloop
	endfacet
	facet normal 0 0 1
		outer loop
			vertex -75 7.5 2.5
			vertex 75 7.5 2.5
			vertex 75 12.5 2.5
		endloop
	endfacet
	facet normal 0 0 -1
		outer loop
			vertex 75 12.5 -2.5
			vertex 75 7.5 -2.5
			vertex -75 12.5 -2.5
		endloop
	endfacet
	facet normal 0 0 -1
		outer loop
			vertex 75 7.5 -2.5
			vertex -75 7.5 -2.5
			vertex -75 12.5 -2.5
		endloop
	endfacet
	facet normal 1 0 0
		outer loop
			vertex 100 32.5 2.5
			vertex 100 27.5 2.5
			vertex 100 32.5 -2.5
		endloop
	endfacet
	facet normal 1 0 0
		outer loop
			vertex 100 27.5 2.5
			vertex 100 27.5 -2.5
			vertex 100 32.5 -2.5
		endloop
	endfacet
	facet normal -1 0 0
		outer loop
			vertex -100 32.5 -2.5
			vertex -100 27.5 -2.5
			vertex -100 32.5 2.5
		endloop
	endfacet
	facet normal -1 0 0
		outer loop
			vertex -100 27.5 -2.5
			vertex -100 27.5 2.5
			vertex -100 32.5 2.5
		endloop
	endfacet
	facet normal 0 1 0
		outer loop
			vertex -100 32.5 -2.5
			vertex -100 32.5 2.5
			vertex 100 32.5 -2.5
		endloop
	endfacet
	facet normal 0 1 0
		outer loop
			vertex -100 32.5 2.5
			vertex 100 32.5 2.5
			vertex 100 32.5 -2.5
		endloop
	endfacet
	facet normal 0 -1 0
		outer loop
			vertex -100 27.5 2.5
			vertex -100 27.5 -2.5
			vertex 100 27.5 2.5
		endloop
	endfacet
	facet normal 0 -1 0
		outer loop
			vertex -100 27.5 -2.5
			vertex 100 27.5 -2.5
			vertex 100 27.5 2.5
		endloop
	endfacet
	facet normal 0 0 1
		outer loop
			vertex -100 32.5 2.5
			vertex -100 27.5 2.5
			vertex 100 32.5 2.5
		endloop
	endfacet
	facet normal 0 0 1
		outer loop
			vertex -100 27.5 2.5
			vertex 100 27.5 2.5
			vertex 100 32.5 2.5
		endloop
	endfacet
	facet normal 0 0 -1
		outer loop
			vertex 100 32.5 -2.5
			vertex 100 27.5 -2.5
			vertex -100 32.5 -2.5
		endloop
	endfacet
	facet normal 0 0 -1
		outer loop
			vertex 100 27.5 -2.5
			vertex -100 27.5 -2.5
			vertex -100 32.5 -2.5
		endloop
	endfacet
endsolid exported
