<svg width="50" height="25">
    <g style="fill:black;fill-opacity:1;stroke:none;stroke-width:1;stroke-opacity:1;fill-rule:nonzero;">
        <g style="fill:#000000;stroke:none;" transform="matrix(0.1 0 0 -0.1 0 150)">
            <g style="" transform="matrix(0.1 0 0 -0.1 0 150)">
                <path d="M1330 1378 c-248 -28 -524 -139 -726 -293 -102 -78 -252 -238 -319 -338 -32 -48 -64 -87 -71 -87 -7 0 -41 16 -74 36 -34 20 -63 34 -66 31 -2 -2 -3 -140 -2 -306 l3 -301 263 151 c144 83 260 154 257 159 -3 4 -29 22 -59 39 -30 16 -57 34 -60 39 -9 15 76 135 159 221 146 154 309 256 505 319 140 45 210 55 360 55 252 1 490 -75 693 -221 141 -101 353 -345 327 -377 -5 -6 -36 -26 -69 -44 l-60 -34 267 -154 267 -153 3 302 c1 165 0 303 -2 305 -3 3 -32 -11 -66 -31 -33 -20 -67 -36 -74 -36 -7 0 -39 39 -71 87 -70 106 -228 270 -334 348 -302 223 -677 324 -1051 283z"/>
            </g>
        </g>
    </g>
</svg>