solid exported
	facet normal 1 0 0
		outer loop
			vertex 5 2.071067811865476 1.4644660940672618
			vertex 5 5 -1.4644660940672622
			vertex 5 5 1.4644660940672618
		endloop
	endfacet
	facet normal 1 0 0
		outer loop
			vertex 5 -1.4644660940672618 -2.071067811865476
			vertex 5 -1.4644660940672618 -5
			vertex 5 1.4644660940672622 -5
		endloop
	endfacet
	facet normal 1 0 0
		outer loop
			vertex 5 5 -1.4644660940672622
			vertex 5 3.5355339059327378 0
			vertex 5 1.7677669529663684 -1.7677669529663684
		endloop
	endfacet
	facet normal 1 0 0
		outer loop
			vertex 5 5 -1.4644660940672622
			vertex 5 1.7677669529663684 -1.7677669529663684
			vertex 5 5 -5
		endloop
	endfacet
	facet normal 1 0 0
		outer loop
			vertex 5 1.7677669529663693 -1.7677669529663693
			vertex 5 0 -3.5355339059327378
			vertex 5 1.4644660940672622 -5
		endloop
	endfacet
	facet normal 1 0 0
		outer loop
			vertex 5 1.7677669529663693 -1.7677669529663693
			vertex 5 1.4644660940672622 -5
			vertex 5 5 -5
		endloop
	endfacet
	facet normal 1 0 0
		outer loop
			vertex 5 2.071067811865476 1.4644660940672618
			vertex 5 5 1.4644660940672618
			vertex 5 5 5
		endloop
	endfacet
	facet normal 1 0 0
		outer loop
			vertex 5 2.071067811865476 1.4644660940672618
			vertex 5 5 5
			vertex 5 -1.4644660940672622 5
		endloop
	endfacet
	facet normal 1 0 0
		outer loop
			vertex 5 -1.464466094067262 3.9644660940672622
			vertex 5 -2.220446049250313e-16 3.5355339059327378
			vertex 5 -1.4644660940672622 5
		endloop
	endfacet
	facet normal 1 0 0
		outer loop
			vertex 5 -1.464466094067262 2.0710678118654755
			vertex 5 -2.220446049250313e-16 3.5355339059327378
			vertex 5 -1.4644660940672622 3.9644660940672622
		endloop
	endfacet
	facet normal 1 0 0
		outer loop
			vertex 5 -1.4644660940672618 -2.071067811865476
			vertex 5 -5 1.4644660940672622
			vertex 5 -5 -5
		endloop
	endfacet
	facet normal 1 0 0
		outer loop
			vertex 5 -1.4644660940672618 -2.071067811865476
			vertex 5 -5 -5
			vertex 5 -1.4644660940672618 -5
		endloop
	endfacet
	facet normal 1 0 0
		outer loop
			vertex 5 -2.0710678118654755 1.464466094067262
			vertex 5 -5 1.4644660940672622
			vertex 5 -3.5355339059327378 0
		endloop
	endfacet
	facet normal 1 0 0
		outer loop
			vertex 5 -1.464466094067262 3.9644660940672622
			vertex 5 -1.4644660940672622 5
			vertex 5 -5 5
		endloop
	endfacet
	facet normal 1 0 0
		outer loop
			vertex 5 -1.464466094067262 2.0710678118654755
			vertex 5 -1.4644660940672622 3.9644660940672622
			vertex 5 -5 5
		endloop
	endfacet
	facet normal 1 0 0
		outer loop
			vertex 5 -1.464466094067262 2.0710678118654755
			vertex 5 -5 5
			vertex 5 -1.7677669529663689 1.7677669529663689
		endloop
	endfacet
	facet normal 1 0 0
		outer loop
			vertex 5 -1.7677669529663689 1.7677669529663689
			vertex 5 -5 5
			vertex 5 -5 1.4644660940672622
		endloop
	endfacet
	facet normal 1 0 0
		outer loop
			vertex 5 -2.0710678118654755 1.464466094067262
			vertex 5 -1.7677669529663689 1.7677669529663689
			vertex 5 -5 1.4644660940672622
		endloop
	endfacet
	facet normal -1 0 0
		outer loop
			vertex -5 1.4644660940672618 2.071067811865476
			vertex -5 -1.4644660940672622 5
			vertex -5 1.4644660940672618 5
		endloop
	endfacet
	facet normal -1 0 0
		outer loop
			vertex -5 -2.0710678118654755 -1.4644660940672616
			vertex -5 -5 -1.4644660940672618
			vertex -5 -5 1.4644660940672622
		endloop
	endfacet
	facet normal -1 0 0
		outer loop
			vertex -5 -2.220446049250313e-16 3.5355339059327378
			vertex -5 -3.5355339059327378 4.440892098500626e-16
			vertex -5 -5 1.4644660940672622
		endloop
	endfacet
	facet normal -1 0 0
		outer loop
			vertex -5 -2.220446049250313e-16 3.5355339059327378
			vertex -5 -5 1.4644660940672622
			vertex -5 -5 5
		endloop
	endfacet
	facet normal -1 0 0
		outer loop
			vertex -5 -2.220446049250313e-16 3.5355339059327378
			vertex -5 -5 5
			vertex -5 -1.4644660940672622 5
		endloop
	endfacet
	facet normal -1 0 0
		outer loop
			vertex -5 1.4644660940672622 -5
			vertex -5 -5 -5
			vertex -5 -1.7677669529663693 -1.7677669529663693
		endloop
	endfacet
	facet normal -1 0 0
		outer loop
			vertex -5 -2.0710678118654755 -1.4644660940672616
			vertex -5 -1.7677669529663684 -1.7677669529663684
			vertex -5 -5 -5
		endloop
	endfacet
	facet normal -1 0 0
		outer loop
			vertex -5 -2.0710678118654755 -1.4644660940672616
			vertex -5 -5 -5
			vertex -5 -5 -1.4644660940672618
		endloop
	endfacet
	facet normal -1 0 0
		outer loop
			vertex -5 1.4644660940672616 -2.0710678118654764
			vertex -5 1.4644660940672622 -5
			vertex -5 0 -3.535533905932738
		endloop
	endfacet
	facet normal -1 0 0
		outer loop
			vertex -5 5 -1.4644660940672622
			vertex -5 1.7677669529663689 1.7677669529663689
			vertex -5 5 5
		endloop
	endfacet
	facet normal -1 0 0
		outer loop
			vertex -5 1.7677669529663689 1.7677669529663689
			vertex -5 1.4644660940672618 2.071067811865476
			vertex -5 1.4644660940672618 5
		endloop
	endfacet
	facet normal -1 0 0
		outer loop
			vertex -5 1.7677669529663689 1.7677669529663689
			vertex -5 1.4644660940672618 5
			vertex -5 5 5
		endloop
	endfacet
	facet normal -1 0 0
		outer loop
			vertex -5 3.9644660940672622 -1.464466094067262
			vertex -5 3.5355339059327378 -2.220446049250313e-16
			vertex -5 5 -1.4644660940672622
		endloop
	endfacet
	facet normal -1 0 0
		outer loop
			vertex -5 2.928932188134525 -1.464466094067262
			vertex -5 3.5355339059327378 -2.220446049250313e-16
			vertex -5 3.9644660940672622 -1.4644660940672622
		endloop
	endfacet
	facet normal -1 0 0
		outer loop
			vertex -5 2.071067811865476 -1.464466094067262
			vertex -5 3.5355339059327378 -2.220446049250313e-16
			vertex -5 2.928932188134525 -1.4644660940672622
		endloop
	endfacet
	facet normal -1 0 0
		outer loop
			vertex -5 3.9644660940672622 -1.464466094067262
			vertex -5 5 -1.4644660940672622
			vertex -5 5 -5
		endloop
	endfacet
	facet normal -1 0 0
		outer loop
			vertex -5 2.928932188134525 -1.464466094067262
			vertex -5 3.9644660940672622 -1.4644660940672622
			vertex -5 5 -5
		endloop
	endfacet
	facet normal -1 0 0
		outer loop
			vertex -5 2.928932188134525 -1.464466094067262
			vertex -5 5 -5
			vertex -5 1.4644660940672622 -5
		endloop
	endfacet
	facet normal -1 0 0
		outer loop
			vertex -5 2.071067811865476 -1.464466094067262
			vertex -5 2.928932188134525 -1.4644660940672622
			vertex -5 1.4644660940672622 -5
		endloop
	endfacet
	facet normal -1 0 0
		outer loop
			vertex -5 1.4644660940672616 -2.0710678118654764
			vertex -5 2.071067811865476 -1.464466094067262
			vertex -5 1.4644660940672622 -5
		endloop
	endfacet
	facet normal 0 1 0
		outer loop
			vertex 2.071067811865476 5 -1.4644660940672622
			vertex 5 5 1.4644660940672618
			vertex 5 5 -1.4644660940672622
		endloop
	endfacet
	facet normal 0 1 0
		outer loop
			vertex -1.4644660940672622 5 -5
			vertex 1.7677669529663693 5 -1.7677669529663693
			vertex 5 5 -5
		endloop
	endfacet
	facet normal 0 1 0
		outer loop
			vertex 1.767766952966369 5 -1.767766952966369
			vertex 2.071067811865476 5 -1.4644660940672622
			vertex 5 5 -1.4644660940672622
		endloop
	endfacet
	facet normal 0 1 0
		outer loop
			vertex 1.767766952966369 5 -1.767766952966369
			vertex 5 5 -1.4644660940672622
			vertex 5 5 -5
		endloop
	endfacet
	facet normal 0 1 0
		outer loop
			vertex -1.464466094067262 5 2.0710678118654755
			vertex -1.4644660940672618 5 5
			vertex 1.4644660940672622 5 5
		endloop
	endfacet
	facet normal 0 1 0
		outer loop
			vertex 2.7144660940672622 5 0.8210678118654755
			vertex 2.220446049250313e-16 5 3.5355339059327378
			vertex 1.4644660940672622 5 5
		endloop
	endfacet
	facet normal 0 1 0
		outer loop
			vertex 2.7144660940672622 5 0.8210678118654755
			vertex 1.4644660940672622 5 5
			vertex 5 5 5
		endloop
	endfacet
	facet normal 0 1 0
		outer loop
			vertex 3.5355339059327378 5 -2.220446049250313e-16
			vertex 2.7144660940672622 5 0.8210678118654755
			vertex 5 5 5
		endloop
	endfacet
	facet normal 0 1 0
		outer loop
			vertex 3.5355339059327378 5 -2.220446049250313e-16
			vertex 5 5 5
			vertex 5 5 1.4644660940672618
		endloop
	endfacet
	facet normal 0 1 0
		outer loop
			vertex -1.4644660940672618 5 -2.522013138014092
			vertex -0.8210678118654755 5 -2.7144660940672622
			vertex -1.4644660940672618 5 -3.0663522991524657
		endloop
	endfacet
	facet normal 0 1 0
		outer loop
			vertex -1.4644660940672618 5 -2.0710678118654764
			vertex -0.8210678118654755 5 -2.7144660940672622
			vertex -1.4644660940672618 5 -2.522013138014092
		endloop
	endfacet
	facet normal 0 1 0
		outer loop
			vertex -1.4644660940672618 5 -3.9644660940672627
			vertex 0 5 -3.535533905932738
			vertex -1.4644660940672622 5 -5
		endloop
	endfacet
	facet normal 0 1 0
		outer loop
			vertex 0 5 -3.535533905932738
			vertex -1.4644660940672622 5 -3.9644660940672627
			vertex -1.4644660940672618 5 -3.0663522991524657
		endloop
	endfacet
	facet normal 0 1 0
		outer loop
			vertex 0 5 -3.535533905932738
			vertex -1.4644660940672618 5 -3.0663522991524657
			vertex -0.8210678118654755 5 -2.7144660940672622
		endloop
	endfacet
	facet normal 0 1 0
		outer loop
			vertex -5 5 -1.4644660940672622
			vertex -5 5 5
			vertex -1.7677669529663689 5 1.7677669529663689
		endloop
	endfacet
	facet normal 0 1 0
		outer loop
			vertex -1.464466094067262 5 2.0710678118654755
			vertex -1.7677669529663689 5 1.7677669529663689
			vertex -5 5 5
		endloop
	endfacet
	facet normal 0 1 0
		outer loop
			vertex -1.464466094067262 5 2.0710678118654755
			vertex -5 5 5
			vertex -1.4644660940672618 5 5
		endloop
	endfacet
	facet normal 0 1 0
		outer loop
			vertex -2.071067811865476 5 -1.4644660940672622
			vertex -5 5 -1.4644660940672622
			vertex -3.5355339059327378 5 -2.220446049250313e-16
		endloop
	endfacet
	facet normal 0 1 0
		outer loop
			vertex -1.4644660940672618 5 -2.522013138014092
			vertex -1.4644660940672618 5 -3.0663522991524657
			vertex -5 5 -5
		endloop
	endfacet
	facet normal 0 1 0
		outer loop
			vertex -1.4644660940672618 5 -2.522013138014092
			vertex -5 5 -5
			vertex -5 5 -1.4644660940672622
		endloop
	endfacet
	facet normal 0 1 0
		outer loop
			vertex -1.4644660940672618 5 -2.0710678118654764
			vertex -1.4644660940672618 5 -2.522013138014092
			vertex -5 5 -1.4644660940672622
		endloop
	endfacet
	facet normal 0 1 0
		outer loop
			vertex -1.4644660940672618 5 -2.0710678118654764
			vertex -5 5 -1.4644660940672622
			vertex -2.071067811865476 5 -1.4644660940672622
		endloop
	endfacet
	facet normal 0 1 0
		outer loop
			vertex -1.4644660940672618 5 -3.9644660940672627
			vertex -1.4644660940672622 5 -5
			vertex -5 5 -5
		endloop
	endfacet
	facet normal 0 1 0
		outer loop
			vertex -1.4644660940672622 5 -3.9644660940672627
			vertex -5 5 -5
			vertex -1.4644660940672618 5 -3.0663522991524657
		endloop
	endfacet
	facet normal 0 -1 0
		outer loop
			vertex 1.4644660940672622 -5 -2.0710678118654755
			vertex -1.4644660940672622 -5 -5
			vertex 1.4644660940672618 -5 -5
		endloop
	endfacet
	facet normal 0 -1 0
		outer loop
			vertex -2.071067811865476 -5 1.4644660940672622
			vertex -5 -5 1.4644660940672622
			vertex -5 -5 -1.4644660940672618
		endloop
	endfacet
	facet normal 0 -1 0
		outer loop
			vertex -0.8210678118654755 -5 2.7144660940672622
			vertex -5 -5 5
			vertex -5 -5 1.4644660940672622
		endloop
	endfacet
	facet normal 0 -1 0
		outer loop
			vertex -0.8210678118654755 -5 2.7144660940672622
			vertex -5 -5 1.4644660940672622
			vertex -2.071067811865476 -5 1.4644660940672622
		endloop
	endfacet
	facet normal 0 -1 0
		outer loop
			vertex 1.4644660940672622 -5 5
			vertex -5 -5 5
			vertex -0.8210678118654755 -5 2.7144660940672622
		endloop
	endfacet
	facet normal 0 -1 0
		outer loop
			vertex 1.4644660940672622 -5 5
			vertex 0 -5 3.5355339059327378
			vertex 1.4644660940672618 -5 2.071067811865477
		endloop
	endfacet
	facet normal 0 -1 0
		outer loop
			vertex -3.5355339059327378 -5 2.220446049250313e-16
			vertex -5 -5 -1.4644660940672618
			vertex -5 -5 -5
		endloop
	endfacet
	facet normal 0 -1 0
		outer loop
			vertex -3.5355339059327378 -5 2.220446049250313e-16
			vertex -5 -5 -5
			vertex -1.7677669529663689 -5 -1.7677669529663689
		endloop
	endfacet
	facet normal 0 -1 0
		outer loop
			vertex -4.440892098500626e-16 -5 -3.535533905932738
			vertex -1.7677669529663689 -5 -1.7677669529663689
			vertex -5 -5 -5
		endloop
	endfacet
	facet normal 0 -1 0
		outer loop
			vertex -4.440892098500626e-16 -5 -3.535533905932738
			vertex -5 -5 -5
			vertex -1.4644660940672622 -5 -5
		endloop
	endfacet
	facet normal 0 -1 0
		outer loop
			vertex 2.7144660940672622 -5 -0.8210678118654755
			vertex 1.4644660940672622 -5 -2.0710678118654755
			vertex 1.4644660940672618 -5 -5
		endloop
	endfacet
	facet normal 0 -1 0
		outer loop
			vertex 2.7144660940672622 -5 -0.8210678118654755
			vertex 1.4644660940672618 -5 -5
			vertex 5 -5 -5
		endloop
	endfacet
	facet normal 0 -1 0
		outer loop
			vertex 2.7144660940672622 -5 -0.8210678118654755
			vertex 5 -5 -5
			vertex 5 -5 1.4644660940672622
		endloop
	endfacet
	facet normal 0 -1 0
		outer loop
			vertex 2.071067811865476 -5 1.4644660940672622
			vertex 3.5355339059327378 -5 0
			vertex 5 -5 1.4644660940672622
		endloop
	endfacet
	facet normal 0 -1 0
		outer loop
			vertex 1.4644660940672622 -5 5
			vertex 1.4644660940672618 -5 2.071067811865477
			vertex 1.7677669529663693 -5 1.7677669529663693
		endloop
	endfacet
	facet normal 0 -1 0
		outer loop
			vertex 1.4644660940672622 -5 5
			vertex 1.7677669529663693 -5 1.7677669529663693
			vertex 5 -5 5
		endloop
	endfacet
	facet normal 0 -1 0
		outer loop
			vertex 1.767766952966369 -5 1.767766952966369
			vertex 2.071067811865476 -5 1.4644660940672622
			vertex 5 -5 1.4644660940672622
		endloop
	endfacet
	facet normal 0 -1 0
		outer loop
			vertex 1.767766952966369 -5 1.767766952966369
			vertex 5 -5 1.4644660940672622
			vertex 5 -5 5
		endloop
	endfacet
	facet normal 0 0 1
		outer loop
			vertex 0.551203023028856 2.984330882903882 5
			vertex 1.4644660940672622 5 5
			vertex -1.4644660940672618 5 5
		endloop
	endfacet
	facet normal 0 0 1
		outer loop
			vertex 1.4644660940672618 2.071067811865476 5
			vertex 1.4644660940672622 5 5
			vertex 0.5512030230288558 2.9843308829038815 5
		endloop
	endfacet
	facet normal 0 0 1
		outer loop
			vertex 1.4644660940672622 5 5
			vertex 1.4644660940672618 2.071067811865476 5
			vertex 1.7677669529663689 1.7677669529663689 5
		endloop
	endfacet
	facet normal 0 0 1
		outer loop
			vertex 1.4644660940672622 5 5
			vertex 1.7677669529663689 1.7677669529663689 5
			vertex 5 5 5
		endloop
	endfacet
	facet normal 0 0 1
		outer loop
			vertex 1.7677669529663689 1.7677669529663689 5
			vertex 5 -1.4644660940672622 5
			vertex 5 5 5
		endloop
	endfacet
	facet normal 0 0 1
		outer loop
			vertex -5 1.4644660940672618 5
			vertex -5 -1.4644660940672622 5
			vertex -2.071067811865476 -1.4644660940672622 5
		endloop
	endfacet
	facet normal 0 0 1
		outer loop
			vertex -2.071067811865476 -1.4644660940672622 5
			vertex -5 -1.4644660940672622 5
			vertex -5 -5 5
		endloop
	endfacet
	facet normal 0 0 1
		outer loop
			vertex -2.071067811865476 -1.4644660940672622 5
			vertex -5 -5 5
			vertex -1.767766952966369 -1.767766952966369 5
		endloop
	endfacet
	facet normal 0 0 1
		outer loop
			vertex -0.023963368220921044 -3.511570537711817 5
			vertex -1.7677669529663693 -1.7677669529663693 5
			vertex -5 -5 5
		endloop
	endfacet
	facet normal 0 0 1
		outer loop
			vertex -0.0239633682209206 -3.511570537711817 5
			vertex -5 -5 5
			vertex 1.4644660940672622 -5 5
		endloop
	endfacet
	facet normal 0 0 1
		outer loop
			vertex -2.7144660940672622 0.8210678118654755 5
			vertex -5 5 5
			vertex -5 1.4644660940672618 5
		endloop
	endfacet
	facet normal 0 0 1
		outer loop
			vertex -2.7144660940672622 0.8210678118654755 5
			vertex -5 1.4644660940672618 5
			vertex -3.5355339059327378 -2.220446049250313e-16 5
		endloop
	endfacet
	facet normal 0 0 1
		outer loop
			vertex 2.220446049250313e-16 3.5355339059327378 5
			vertex -1.4644660940672618 5 5
			vertex -5 5 5
		endloop
	endfacet
	facet normal 0 0 1
		outer loop
			vertex 2.220446049250313e-16 3.5355339059327378 5
			vertex -5 5 5
			vertex -2.7144660940672622 0.8210678118654755 5
		endloop
	endfacet
	facet normal 0 0 1
		outer loop
			vertex 0.0444173824159233 -3.4911165235168147 5
			vertex 1.4644660940672618 -3.0663522991524657 5
			vertex 0.8210678118654755 -2.7144660940672622 5
		endloop
	endfacet
	facet normal 0 0 1
		outer loop
			vertex 1.4644660940672618 -3.0663522991524657 5
			vertex 0.044417382415922815 -3.491116523516815 5
			vertex 2.220446049250313e-16 -3.5355339059327378 5
		endloop
	endfacet
	facet normal 0 0 1
		outer loop
			vertex 1.4644660940672618 -3.0663522991524657 5
			vertex 2.220446049250313e-16 -3.5355339059327378 5
			vertex 1.4644660940672622 -5 5
		endloop
	endfacet
	facet normal 0 0 1
		outer loop
			vertex 1.4644660940672618 -2.0710678118654764 5
			vertex 0.8210678118654756 -2.7144660940672622 5
			vertex 1.4644660940672618 -3.0663522991524657 5
		endloop
	endfacet
	facet normal 0 0 1
		outer loop
			vertex 3.3981137949147966 -0.1374201110179416 5
			vertex 2.0710678118654755 -1.4644660940672622 5
			vertex 5 -1.4644660940672622 5
		endloop
	endfacet
	facet normal 0 0 1
		outer loop
			vertex 3.5355339059327378 -2.220446049250313e-16 5
			vertex 3.3981137949147966 -0.1374201110179416 5
			vertex 5 -1.4644660940672622 5
		endloop
	endfacet
	facet normal 0 0 1
		outer loop
			vertex 1.4644660940672618 -3.0663522991524657 5
			vertex 1.4644660940672622 -5 5
			vertex 5 -5 5
		endloop
	endfacet
	facet normal 0 0 1
		outer loop
			vertex 1.7677669529663689 -1.7677669529663693 5
			vertex 1.4644660940672618 -2.0710678118654764 5
			vertex 1.4644660940672618 -3.0663522991524657 5
		endloop
	endfacet
	facet normal 0 0 1
		outer loop
			vertex 1.7677669529663689 -1.7677669529663693 5
			vertex 1.4644660940672618 -3.0663522991524657 5
			vertex 5 -5 5
		endloop
	endfacet
	facet normal 0 0 1
		outer loop
			vertex 2.0710678118654764 -1.4644660940672622 5
			vertex 1.7677669529663689 -1.7677669529663693 5
			vertex 5 -5 5
		endloop
	endfacet
	facet normal 0 0 1
		outer loop
			vertex 2.0710678118654764 -1.4644660940672622 5
			vertex 5 -5 5
			vertex 5 -1.4644660940672622 5
		endloop
	endfacet
	facet normal 0 0 -1
		outer loop
			vertex 2.071067811865476 1.4644660940672622 -5
			vertex 5 1.4644660940672622 -5
			vertex 5 -1.4644660940672618 -5
		endloop
	endfacet
	facet normal 0 0 -1
		outer loop
			vertex 0.8210678118654755 2.7144660940672622 -5
			vertex 5 5 -5
			vertex 5 1.4644660940672622 -5
		endloop
	endfacet
	facet normal 0 0 -1
		outer loop
			vertex 0.8210678118654755 2.7144660940672622 -5
			vertex 5 1.4644660940672622 -5
			vertex 2.071067811865476 1.4644660940672622 -5
		endloop
	endfacet
	facet normal 0 0 -1
		outer loop
			vertex -1.4644660940672622 5 -5
			vertex 5 5 -5
			vertex 0.8210678118654755 2.7144660940672622 -5
		endloop
	endfacet
	facet normal 0 0 -1
		outer loop
			vertex -1.4644660940672622 -2.071067811865476 -5
			vertex 1.4644660940672618 -5 -5
			vertex -1.4644660940672622 -5 -5
		endloop
	endfacet
	facet normal 0 0 -1
		outer loop
			vertex -2.7144660940672622 -0.8210678118654755 -5
			vertex -1.4644660940672622 -2.071067811865476 -5
			vertex -1.4644660940672622 -5 -5
		endloop
	endfacet
	facet normal 0 0 -1
		outer loop
			vertex -2.7144660940672622 -0.8210678118654755 -5
			vertex -1.4644660940672622 -5 -5
			vertex -5 -5 -5
		endloop
	endfacet
	facet normal 0 0 -1
		outer loop
			vertex -2.7144660940672622 -0.8210678118654755 -5
			vertex -5 -5 -5
			vertex -5 1.4644660940672622 -5
		endloop
	endfacet
	facet normal 0 0 -1
		outer loop
			vertex -1.4644660940672622 2.071067811865476 -5
			vertex -1.4644660940672622 5 -5
			vertex 0 3.5355339059327378 -5
		endloop
	endfacet
	facet normal 0 0 -1
		outer loop
			vertex -2.071067811865476 1.4644660940672622 -5
			vertex -3.5355339059327378 0 -5
			vertex -5 1.4644660940672622 -5
		endloop
	endfacet
	facet normal 0 0 -1
		outer loop
			vertex -1.4644660940672622 5 -5
			vertex -1.4644660940672622 2.071067811865476 -5
			vertex -1.7677669529663693 1.7677669529663693 -5
		endloop
	endfacet
	facet normal 0 0 -1
		outer loop
			vertex -1.4644660940672622 5 -5
			vertex -1.7677669529663693 1.7677669529663693 -5
			vertex -5 5 -5
		endloop
	endfacet
	facet normal 0 0 -1
		outer loop
			vertex -1.767766952966369 1.767766952966369 -5
			vertex -2.071067811865476 1.4644660940672622 -5
			vertex -5 1.4644660940672622 -5
		endloop
	endfacet
	facet normal 0 0 -1
		outer loop
			vertex -1.767766952966369 1.767766952966369 -5
			vertex -5 1.4644660940672622 -5
			vertex -5 5 -5
		endloop
	endfacet
	facet normal 0 0 -1
		outer loop
			vertex 3.5355339059327378 2.220446049250313e-16 -5
			vertex 5 -1.4644660940672618 -5
			vertex 5 -5 -5
		endloop
	endfacet
	facet normal 0 0 -1
		outer loop
			vertex 3.5355339059327378 2.220446049250313e-16 -5
			vertex 5 -5 -5
			vertex 1.7677669529663689 -1.7677669529663689 -5
		endloop
	endfacet
	facet normal 0 0 -1
		outer loop
			vertex -2.220446049250313e-16 -3.5355339059327378 -5
			vertex 1.7677669529663689 -1.7677669529663689 -5
			vertex 5 -5 -5
		endloop
	endfacet
	facet normal 0 0 -1
		outer loop
			vertex -2.220446049250313e-16 -3.5355339059327378 -5
			vertex 5 -5 -5
			vertex 1.4644660940672618 -5 -5
		endloop
	endfacet
	facet normal 0 -0.7071067811865472 -0.7071067811865479
		outer loop
			vertex 3.674945561222847 3.3961222506426285 0.13941165529010932
			vertex 3.535533905932738 3.5355339059327378 2.220446049250313e-16
			vertex 5 3.5355339059327378 2.220446049250313e-16
		endloop
	endfacet
	facet normal -2.8801772481672514e-17 -0.707106781186547 -0.7071067811865481
		outer loop
			vertex 3.674945561222847 3.3961222506426285 0.13941165529010932
			vertex 5 3.5355339059327378 2.220446049250313e-16
			vertex 5 3.3748278192994317 0.1607060866333061
		endloop
	endfacet
	facet normal -5.69933815831214e-17 -0.7071067811865474 -0.7071067811865477
		outer loop
			vertex 3.674945561222847 3.3961222506426285 0.13941165529010935
			vertex 5 3.3748278192994317 0.1607060866333061
			vertex 4.0133585615372525 3.057709250328223 0.4778246556045147
		endloop
	endfacet
	facet normal -9.154391556219664e-17 -0.7071067811865475 -0.7071067811865477
		outer loop
			vertex 4.0133585615372525 3.0577092503282235 0.4778246556045147
			vertex 5 3.3748278192994317 0.1607060866333065
			vertex 5 2.0710678118654764 1.4644660940672614
		endloop
	endfacet
	facet normal -2.077434018724085e-16 -0.7071067811865474 -0.7071067811865477
		outer loop
			vertex 3.674945561222847 3.3961222506426285 0.13941165529010932
			vertex 3.400532239744117 3.400532239744118 0.13500166618861992
			vertex 3.535533905932738 3.5355339059327378 2.220446049250313e-16
		endloop
	endfacet
	facet normal -2.869493324832727e-16 -0.7071067811865476 -0.7071067811865476
		outer loop
			vertex 3.400532239744118 3.400532239744118 0.13500166618861997
			vertex 3.674945561222847 3.3961222506426285 0.13941165529010935
			vertex 4.0133585615372525 3.057709250328223 0.4778246556045147
		endloop
	endfacet
	facet normal -1.0327034653150759e-16 -0.7071067811865475 -0.7071067811865477
		outer loop
			vertex 3.400532239744118 3.400532239744118 0.13500166618861997
			vertex 4.0133585615372525 3.057709250328223 0.4778246556045147
			vertex 2.6050672931698684 2.605067293169868 0.9304666127628698
		endloop
	endfacet
	facet normal 0 -0.7071067811865476 -0.7071067811865476
		outer loop
			vertex 2.001213068397299 1.5343208375354391 2.001213068397299
			vertex 1.7677669529663689 1.7677669529663693 1.7677669529663689
			vertex 2.6050672931698675 2.605067293169868 0.9304666127628702
		endloop
	endfacet
	facet normal 0 -0.7071067811865476 -0.7071067811865476
		outer loop
			vertex 2.001213068397299 1.5343208375354391 2.001213068397299
			vertex 2.6050672931698675 2.605067293169868 0.9304666127628702
			vertex 4.0133585615372525 3.0577092503282235 0.4778246556045147
		endloop
	endfacet
	facet normal -9.00203848202409e-17 -0.7071067811865475 -0.7071067811865477
		outer loop
			vertex 2.4832468195458586 1.052287086386879 2.483246819545859
			vertex 2.001213068397299 1.5343208375354391 2.001213068397299
			vertex 4.0133585615372525 3.0577092503282235 0.4778246556045147
		endloop
	endfacet
	facet normal -9.00203848202409e-17 -0.7071067811865475 -0.7071067811865477
		outer loop
			vertex 2.4832468195458586 1.052287086386879 2.483246819545859
			vertex 4.0133585615372525 3.0577092503282235 0.4778246556045147
			vertex 5 2.0710678118654764 1.4644660940672614
		endloop
	endfacet
	facet normal 0 -0.7071067811865476 -0.7071067811865476
		outer loop
			vertex 3.5116146473907213 0.023919258542016937 3.511614647390721
			vertex 2.4832468195458595 1.0522870863868794 2.483246819545858
			vertex 5 2.0710678118654764 1.4644660940672614
		endloop
	endfacet
	facet normal 0 -0.7071067811865476 -0.7071067811865476
		outer loop
			vertex 3.5116146473907213 0.023919258542016937 3.511614647390721
			vertex 5 2.0710678118654764 1.4644660940672614
			vertex 5 -2.220446049250313e-16 3.5355339059327378
		endloop
	endfacet
	facet normal 0 -0.707106781186544 -0.707106781186551
		outer loop
			vertex 3.5116146473907213 0.023919258542016944 3.511614647390721
			vertex 5 -2.220446049250313e-16 3.5355339059327378
			vertex 3.535533905932738 -2.220446049250313e-16 3.5355339059327378
		endloop
	endfacet
	facet normal -1.2205855408292885e-16 -0.7071067811865476 -0.7071067811865476
		outer loop
			vertex -5 1.4644660940672614 2.0710678118654764
			vertex -4.0133585615372525 0.4778246556045145 3.057709250328223
			vertex -5 0.16070608663330604 3.3748278192994317
		endloop
	endfacet
	facet normal 0 -0.7071067811865475 -0.7071067811865477
		outer loop
			vertex -3.674945561222848 0.13941165529010968 3.396122250642628
			vertex -5 0.16070608663330654 3.374827819299431
			vertex -4.0133585615372525 0.4778246556045148 3.057709250328223
		endloop
	endfacet
	facet normal 9.487939828236682e-17 -0.7071067811865446 -0.7071067811865505
		outer loop
			vertex -3.6529439720195356 0.1174100660867972 3.4181238398459404
			vertex -5 0.16070608663330654 3.374827819299431
			vertex -3.6749455612228474 0.13941165529010968 3.396122250642628
		endloop
	endfacet
	facet normal 0 -0.7071067811865474 -0.7071067811865477
		outer loop
			vertex -5 0.16070608663330654 3.374827819299431
			vertex -3.652943972019535 0.1174100660867972 3.4181238398459404
			vertex -3.535533905932738 -2.220446049250313e-16 3.5355339059327378
		endloop
	endfacet
	facet normal 0 -0.7071067811865474 -0.7071067811865477
		outer loop
			vertex -5 0.16070608663330654 3.374827819299431
			vertex -3.535533905932738 -2.220446049250313e-16 3.5355339059327378
			vertex -5 -2.220446049250313e-16 3.5355339059327378
		endloop
	endfacet
	facet normal 0 -0.707106781186549 -0.707106781186546
		outer loop
			vertex -3.5116146473907213 3.511614647390721 0.023919258542017246
			vertex -5 3.5355339059327378 2.220446049250313e-16
			vertex -3.535533905932738 3.5355339059327378 2.220446049250313e-16
		endloop
	endfacet
	facet normal 1.2296098985611056e-16 -0.7071067811865474 -0.7071067811865477
		outer loop
			vertex -1.8752236741758272 1.6603102317569116 1.8752236741758264
			vertex -5 3.5355339059327378 2.220446049250313e-16
			vertex -3.5116146473907204 3.511614647390721 0.023919258542017263
		endloop
	endfacet
	facet normal 1.2296098985611056e-16 -0.7071067811865474 -0.7071067811865477
		outer loop
			vertex -1.8752236741758272 1.6603102317569116 1.8752236741758264
			vertex -3.5116146473907204 3.511614647390721 0.023919258542017263
			vertex -1.7677669529663689 1.7677669529663689 1.7677669529663689
		endloop
	endfacet
	facet normal 0 -0.7071067811865476 -0.7071067811865476
		outer loop
			vertex -5 1.4644660940672614 2.0710678118654764
			vertex -5 3.5355339059327378 2.220446049250313e-16
			vertex -1.8752236741758268 1.6603102317569112 1.8752236741758264
		endloop
	endfacet
	facet normal 0 -0.7071067811865476 -0.7071067811865476
		outer loop
			vertex -5 1.4644660940672614 2.0710678118654764
			vertex -1.8752236741758268 1.6603102317569112 1.8752236741758264
			vertex -2.6050672931698684 0.9304666127628696 2.605067293169868
		endloop
	endfacet
	facet normal 0 -0.7071067811865476 -0.7071067811865476
		outer loop
			vertex -5 1.4644660940672614 2.0710678118654764
			vertex -2.6050672931698684 0.9304666127628696 2.605067293169868
			vertex -4.0133585615372525 0.4778246556045145 3.057709250328223
		endloop
	endfacet
	facet normal 0 -0.7071067811865475 -0.7071067811865477
		outer loop
			vertex -3.400532239744118 0.13500166618862025 3.4005322397441176
			vertex -3.674945561222848 0.13941165529010968 3.396122250642628
			vertex -4.0133585615372525 0.4778246556045148 3.057709250328223
		endloop
	endfacet
	facet normal 0 -0.7071067811865475 -0.7071067811865477
		outer loop
			vertex -3.400532239744118 0.13500166618862025 3.4005322397441176
			vertex -4.0133585615372525 0.4778246556045148 3.057709250328223
			vertex -2.6050672931698675 0.9304666127628705 2.6050672931698675
		endloop
	endfacet
	facet normal 2.403634234181976e-16 -0.7071067811865446 -0.7071067811865507
		outer loop
			vertex -3.42543621607331 0.11009768985942853 3.425436216073309
			vertex -3.6529439720195356 0.1174100660867972 3.4181238398459404
			vertex -3.6749455612228474 0.13941165529010968 3.396122250642628
		endloop
	endfacet
	facet normal 2.403634234181976e-16 -0.7071067811865446 -0.7071067811865507
		outer loop
			vertex -3.42543621607331 0.11009768985942853 3.425436216073309
			vertex -3.6749455612228474 0.13941165529010968 3.396122250642628
			vertex -3.400532239744118 0.13500166618862025 3.4005322397441176
		endloop
	endfacet
	facet normal -3.321236204009508e-16 -0.7071067811865476 -0.7071067811865476
		outer loop
			vertex -3.652943972019535 0.1174100660867972 3.4181238398459404
			vertex -3.4254362160733094 0.11009768985942853 3.425436216073309
			vertex -3.535533905932738 -2.220446049250313e-16 3.5355339059327378
		endloop
	endfacet
	facet normal -1.301752807318502e-16 0.7071067811865475 0.7071067811865477
		outer loop
			vertex 3.558696529964774 -0.023162624032036443 -3.5123712819007014
			vertex 5 -1.4644660940672616 -2.0710678118654764
			vertex 5 2.220446049250313e-16 -3.5355339059327378
		endloop
	endfacet
	facet normal 0 0.7071067811865436 0.7071067811865515
		outer loop
			vertex 3.5586965299647746 -0.023162624032036432 -3.5123712819007014
			vertex 5 2.220446049250313e-16 -3.5355339059327378
			vertex 3.5355339059327378 2.220446049250313e-16 -3.5355339059327378
		endloop
	endfacet
	facet normal 0 0.7071067811865497 0.7071067811865455
		outer loop
			vertex -3.5586965299647746 -3.5123712819007014 -0.02316262403203675
			vertex -5 -3.5355339059327378 -2.220446049250313e-16
			vertex -3.535533905932738 -3.5355339059327378 -2.220446049250313e-16
		endloop
	endfacet
	facet normal 0 0.7071067811865476 0.7071067811865476
		outer loop
			vertex -5 -2.071067811865476 -1.464466094067262
			vertex -5 -3.5355339059327378 -2.220446049250313e-16
			vertex -3.558696529964776 -3.5123712819007014 -0.023162624032036727
		endloop
	endfacet
	facet normal -6.2917697250203275e-16 0.7071067811865493 0.7071067811865458
		outer loop
			vertex -3.511614647390721 -3.511614647390721 -0.02391925854201725
			vertex -3.5586965299647746 -3.5123712819007014 -0.02316262403203675
			vertex -3.535533905932738 -3.5355339059327378 -2.220446049250313e-16
		endloop
	endfacet
	facet normal 0 0.7071067811865476 0.7071067811865476
		outer loop
			vertex -5 -2.071067811865476 -1.464466094067262
			vertex -3.558696529964776 -3.5123712819007014 -0.023162624032036727
			vertex -3.51161464739072 -3.511614647390721 -0.023919258542017263
		endloop
	endfacet
	facet normal -3.0740247464027647e-17 0.7071067811865475 0.7071067811865477
		outer loop
			vertex -2.054284030073679 -1.4812498758590587 -2.0542840300736787
			vertex -5 -2.071067811865476 -1.464466094067262
			vertex -3.51161464739072 -3.511614647390721 -0.023919258542017263
		endloop
	endfacet
	facet normal -3.0740247464027647e-17 0.7071067811865475 0.7071067811865477
		outer loop
			vertex -2.054284030073679 -1.4812498758590587 -2.0542840300736787
			vertex -3.51161464739072 -3.511614647390721 -0.023919258542017263
			vertex -1.767766952966369 -1.7677669529663689 -1.7677669529663689
		endloop
	endfacet
	facet normal -1.7540626998847827e-16 0.7071067811865476 0.7071067811865476
		outer loop
			vertex -5 -2.071067811865476 -1.464466094067262
			vertex -2.054284030073679 -1.4812498758590589 -2.0542840300736787
			vertex -2.605067293169869 -0.9304666127628696 -2.605067293169868
		endloop
	endfacet
	facet normal -1.7540626998847827e-16 0.7071067811865476 0.7071067811865476
		outer loop
			vertex -5 -2.071067811865476 -1.464466094067262
			vertex -2.605067293169869 -0.9304666127628696 -2.605067293169868
			vertex -5 -0.16070608663330604 -3.3748278192994317
		endloop
	endfacet
	facet normal 0 0.7071067811865477 0.7071067811865475
		outer loop
			vertex -3.400532239744118 -0.13500166618862025 -3.4005322397441176
			vertex -5 -0.16070608663330654 -3.374827819299431
			vertex -2.6050672931698675 -0.9304666127628705 -2.605067293169867
		endloop
	endfacet
	facet normal 1.6100750738684215e-16 0.7071067811865432 0.7071067811865518
		outer loop
			vertex -3.42543621607331 -0.11009768985942855 -3.425436216073309
			vertex -5 -0.16070608663330654 -3.374827819299431
			vertex -3.4005322397441176 -0.13500166618862025 -3.4005322397441176
		endloop
	endfacet
	facet normal 0 0.7071067811865477 0.7071067811865474
		outer loop
			vertex -5 -0.16070608663330654 -3.374827819299431
			vertex -3.4254362160733094 -0.11009768985942853 -3.425436216073309
			vertex -3.535533905932738 2.220446049250313e-16 -3.5355339059327378
		endloop
	endfacet
	facet normal 0 0.7071067811865477 0.7071067811865474
		outer loop
			vertex -5 -0.16070608663330654 -3.374827819299431
			vertex -3.535533905932738 2.220446049250313e-16 -3.5355339059327378
			vertex -5 2.220446049250313e-16 -3.5355339059327378
		endloop
	endfacet
	facet normal 0 0.7071067811865475 0.7071067811865477
		outer loop
			vertex 3.400532239744118 -3.400532239744118 -0.13500166618861995
			vertex 3.535533905932738 -3.5355339059327378 -2.220446049250313e-16
			vertex 5 -3.5355339059327378 -2.220446049250313e-16
		endloop
	endfacet
	facet normal -7.038813559635857e-17 0.707106781186547 0.7071067811865481
		outer loop
			vertex 3.400532239744118 -3.400532239744118 -0.13500166618861995
			vertex 5 -3.5355339059327378 -2.220446049250313e-16
			vertex 5 -3.3748278192994317 -0.1607060866333061
		endloop
	endfacet
	facet normal -9.298671547031683e-17 0.7071067811865475 0.7071067811865477
		outer loop
			vertex 3.4005322397441184 -3.400532239744118 -0.13500166618861997
			vertex 5 -3.3748278192994317 -0.1607060866333061
			vertex 2.605067293169868 -2.605067293169868 -0.9304666127628698
		endloop
	endfacet
	facet normal 0 0.7071067811865476 0.7071067811865476
		outer loop
			vertex 2.1017715719929213 -1.433762333939817 -2.101771571992921
			vertex 1.767766952966369 -1.7677669529663689 -1.7677669529663689
			vertex 2.605067293169868 -2.605067293169868 -0.93046661276287
		endloop
	endfacet
	facet normal 0 0.7071067811865476 0.7071067811865476
		outer loop
			vertex 2.1017715719929213 -1.433762333939817 -2.101771571992921
			vertex 2.605067293169868 -2.605067293169868 -0.93046661276287
			vertex 5 -3.3748278192994317 -0.1607060866333065
		endloop
	endfacet
	facet normal 5.40576128995682e-17 0.7071067811865475 0.7071067811865476
		outer loop
			vertex 3.558696529964774 -0.023162624032036443 -3.5123712819007014
			vertex 3.5116146473907213 -0.02391925854201693 -3.511614647390721
			vertex 2.1017715719929213 -1.433762333939817 -2.101771571992921
		endloop
	endfacet
	facet normal 5.40576128995682e-17 0.7071067811865475 0.7071067811865476
		outer loop
			vertex 3.558696529964774 -0.023162624032036443 -3.5123712819007014
			vertex 2.1017715719929213 -1.433762333939817 -2.101771571992921
			vertex 5 -3.3748278192994317 -0.1607060866333065
		endloop
	endfacet
	facet normal 5.40576128995682e-17 0.7071067811865475 0.7071067811865476
		outer loop
			vertex 3.558696529964774 -0.023162624032036443 -3.5123712819007014
			vertex 5 -3.3748278192994317 -0.1607060866333065
			vertex 5 -1.4644660940672616 -2.0710678118654764
		endloop
	endfacet
	facet normal 5.535027661873536e-16 0.7071067811865439 0.7071067811865512
		outer loop
			vertex 3.511614647390721 -0.023919258542016937 -3.511614647390721
			vertex 3.5586965299647746 -0.023162624032036432 -3.5123712819007014
			vertex 3.5355339059327378 2.220446049250313e-16 -3.5355339059327378
		endloop
	endfacet
	facet normal 0 0.707106781186546 -0.707106781186549
		outer loop
			vertex 3.559453164474755 -0.023919258542017256 3.511614647390721
			vertex 3.535533905932738 -2.220446049250313e-16 3.5355339059327378
			vertex 5 -2.220446049250313e-16 3.5355339059327378
		endloop
	endfacet
	facet normal -7.417944594714209e-17 0.707106781186548 -0.707106781186547
		outer loop
			vertex 3.6749455612228474 -0.13941165529010935 3.3961222506426285
			vertex 3.559453164474755 -0.023919258542017253 3.511614647390721
			vertex 5 -2.220446049250313e-16 3.5355339059327378
		endloop
	endfacet
	facet normal -7.417944594714209e-17 0.707106781186548 -0.707106781186547
		outer loop
			vertex 3.6749455612228474 -0.13941165529010935 3.3961222506426285
			vertex 5 -2.220446049250313e-16 3.5355339059327378
			vertex 5 -0.1607060866333061 3.3748278192994317
		endloop
	endfacet
	facet normal -4.4482639284387446e-17 0.7071067811865478 -0.7071067811865474
		outer loop
			vertex 3.674945561222847 -0.13941165529010935 3.3961222506426285
			vertex 5 -0.1607060866333061 3.3748278192994317
			vertex 4.0133585615372525 -0.4778246556045146 3.057709250328223
		endloop
	endfacet
	facet normal 0 0.7071067811865476 -0.7071067811865476
		outer loop
			vertex 4.607943645363042 -1.0724097394303045 2.4631241665024337
			vertex 4.013358561537253 -0.47782465560451465 3.0577092503282235
			vertex 5 -0.1607060866333065 3.3748278192994317
		endloop
	endfacet
	facet normal 6.143403924090432e-16 0.7071067811865476 -0.7071067811865475
		outer loop
			vertex 4.607943645363042 -1.0724097394303036 2.463124166502434
			vertex 5 -0.1607060866333065 3.3748278192994317
			vertex 5 -1.464466094067262 2.071067811865476
		endloop
	endfacet
	facet normal 0 0.707106781186546 -0.7071067811865491
		outer loop
			vertex -3.5116146473907213 -0.023919258542017253 3.511614647390721
			vertex -5 -2.220446049250313e-16 3.5355339059327378
			vertex -3.5355339059327378 -2.220446049250313e-16 3.5355339059327378
		endloop
	endfacet
	facet normal -1.0753142683153418e-16 0.7071067811865477 -0.7071067811865475
		outer loop
			vertex -5 -2.220446049250313e-16 3.5355339059327378
			vertex -3.5116146473907204 -0.023919258542017263 3.511614647390721
			vertex -1.7677669529663693 -1.7677669529663684 1.7677669529663693
		endloop
	endfacet
	facet normal -1.0753142683153418e-16 0.7071067811865477 -0.7071067811865475
		outer loop
			vertex -5 -2.220446049250313e-16 3.5355339059327378
			vertex -1.7677669529663693 -1.7677669529663684 1.7677669529663693
			vertex -2.605067293169869 -2.605067293169868 0.9304666127628696
		endloop
	endfacet
	facet normal 0 0.7071067811865476 -0.7071067811865476
		outer loop
			vertex -5 -2.220446049250313e-16 3.5355339059327378
			vertex -2.605067293169869 -2.605067293169868 0.9304666127628696
			vertex -5 -3.3748278192994317 0.16070608663330604
		endloop
	endfacet
	facet normal 2.27722568498735e-17 0.7071067811865476 -0.7071067811865476
		outer loop
			vertex -3.400532239744118 -3.4005322397441176 0.13500166618862025
			vertex -5 -3.374827819299431 0.16070608663330654
			vertex -2.605067293169868 -2.6050672931698675 0.9304666127628702
		endloop
	endfacet
	facet normal 4.7522105656761694e-17 0.7071067811865482 -0.7071067811865469
		outer loop
			vertex -5 -3.374827819299431 0.16070608663330654
			vertex -3.4005322397441184 -3.4005322397441176 0.13500166618862025
			vertex -3.5355339059327378 -3.5355339059327378 -2.220446049250313e-16
		endloop
	endfacet
	facet normal 0 0.707106781186548 -0.707106781186547
		outer loop
			vertex -5 -3.374827819299431 0.16070608663330654
			vertex -3.5355339059327378 -3.5355339059327378 -2.220446049250313e-16
			vertex -5 -3.5355339059327378 -2.220446049250313e-16
		endloop
	endfacet
	facet normal 8.368410904190364e-17 0.7071067811865476 -0.7071067811865475
		outer loop
			vertex 3.5586965299647737 -3.512371281900701 0.02316262403203645
			vertex 5 -2.0710678118654764 1.4644660940672616
			vertex 5 -3.5355339059327378 -2.220446049250313e-16
		endloop
	endfacet
	facet normal 0 0.7071067811865447 -0.7071067811865503
		outer loop
			vertex 3.558696529964775 -3.512371281900701 0.023162624032036432
			vertex 5 -3.5355339059327378 -2.220446049250313e-16
			vertex 3.5355339059327378 -3.5355339059327378 -2.220446049250313e-16
		endloop
	endfacet
	facet normal -1.7498869334809179e-15 0.707106781186545 -0.70710678118655
		outer loop
			vertex 3.559453164474755 -0.023919258542017256 3.511614647390721
			vertex 3.5108069108500866 -0.024726995082651644 3.5108069108500866
			vertex 3.535533905932738 -2.220446049250313e-16 3.5355339059327378
		endloop
	endfacet
	facet normal -2.0781545043155117e-15 0.7071067811865493 -0.7071067811865458
		outer loop
			vertex 3.6749455612228474 -0.13941165529010935 3.3961222506426285
			vertex 3.400532239744118 -0.13500166618861997 3.400532239744118
			vertex 3.510806910850086 -0.024726995082651654 3.5108069108500866
		endloop
	endfacet
	facet normal -2.0781545043155117e-15 0.7071067811865493 -0.7071067811865458
		outer loop
			vertex 3.6749455612228474 -0.13941165529010935 3.3961222506426285
			vertex 3.510806910850086 -0.024726995082651654 3.5108069108500866
			vertex 3.559453164474755 -0.023919258542017253 3.511614647390721
		endloop
	endfacet
	facet normal -6.232860516283235e-17 0.7071067811865478 -0.7071067811865472
		outer loop
			vertex 3.400532239744118 -0.13500166618861997 3.400532239744118
			vertex 3.674945561222847 -0.13941165529010935 3.3961222506426285
			vertex 4.0133585615372525 -0.4778246556045146 3.057709250328223
		endloop
	endfacet
	facet normal -6.232860516283235e-17 0.7071067811865478 -0.7071067811865472
		outer loop
			vertex 3.400532239744118 -0.13500166618861997 3.400532239744118
			vertex 4.0133585615372525 -0.4778246556045146 3.057709250328223
			vertex 2.605067293169868 -0.9304666127628699 2.6050672931698675
		endloop
	endfacet
	facet normal 0 0.7071067811865476 -0.7071067811865476
		outer loop
			vertex 1.7722986299800463 -1.7632352759526915 1.7722986299800463
			vertex 3.5586965299647737 -3.512371281900701 0.02316262403203645
			vertex 3.5116146473907213 -3.5116146473907204 0.02391925854201693
		endloop
	endfacet
	facet normal 0 0.7071067811865476 -0.7071067811865476
		outer loop
			vertex 1.7722986299800463 -1.7632352759526915 1.7722986299800463
			vertex 3.5116146473907213 -3.5116146473907204 0.02391925854201693
			vertex 1.767766952966369 -1.7677669529663689 1.7677669529663689
		endloop
	endfacet
	facet normal 1.9728874132158634e-16 0.7071067811865477 -0.7071067811865475
		outer loop
			vertex 4.607943645363042 -1.0724097394303045 2.4631241665024337
			vertex 3.5586965299647737 -3.512371281900701 0.02316262403203645
			vertex 1.7722986299800465 -1.7632352759526915 1.772298629980046
		endloop
	endfacet
	facet normal 1.9728874132158634e-16 0.7071067811865477 -0.7071067811865475
		outer loop
			vertex 4.607943645363042 -1.0724097394303045 2.4631241665024337
			vertex 1.7722986299800465 -1.7632352759526915 1.772298629980046
			vertex 2.605067293169869 -0.9304666127628698 2.605067293169868
		endloop
	endfacet
	facet normal 1.9728874132158634e-16 0.7071067811865477 -0.7071067811865475
		outer loop
			vertex 4.607943645363042 -1.0724097394303045 2.4631241665024337
			vertex 2.605067293169869 -0.9304666127628698 2.605067293169868
			vertex 4.013358561537253 -0.47782465560451465 3.0577092503282235
		endloop
	endfacet
	facet normal 3.300981562834239e-16 0.7071067811865476 -0.7071067811865476
		outer loop
			vertex 3.5586965299647737 -3.512371281900701 0.02316262403203645
			vertex 4.607943645363042 -1.0724097394303036 2.463124166502434
			vertex 5 -1.464466094067262 2.071067811865476
		endloop
	endfacet
	facet normal 3.300981562834239e-16 0.7071067811865476 -0.7071067811865476
		outer loop
			vertex 3.5586965299647737 -3.512371281900701 0.02316262403203645
			vertex 5 -1.464466094067262 2.071067811865476
			vertex 5 -2.0710678118654764 1.4644660940672616
		endloop
	endfacet
	facet normal 2.7026502255241356e-16 0.7071067811865446 -0.7071067811865505
		outer loop
			vertex 3.511614647390721 -3.5116146473907204 0.023919258542016944
			vertex 3.558696529964775 -3.512371281900701 0.023162624032036432
			vertex 3.5355339059327378 -3.5355339059327378 -2.220446049250313e-16
		endloop
	endfacet
	facet normal 0 -0.7071067811865511 0.7071067811865439
		outer loop
			vertex 3.511614647390721 3.511614647390721 -0.023919258542016944
			vertex 5 3.5355339059327378 2.220446049250313e-16
			vertex 3.5355339059327378 3.5355339059327378 2.220446049250313e-16
		endloop
	endfacet
	facet normal -1.2296098985611069e-16 -0.7071067811865475 0.7071067811865476
		outer loop
			vertex 1.8752236741758268 1.6603102317569112 -1.875223674175827
			vertex 5 3.5355339059327378 2.220446049250313e-16
			vertex 3.511614647390722 3.511614647390721 -0.02391925854201693
		endloop
	endfacet
	facet normal -1.2296098985611069e-16 -0.7071067811865475 0.7071067811865476
		outer loop
			vertex 1.8752236741758268 1.6603102317569112 -1.875223674175827
			vertex 3.511614647390722 3.511614647390721 -0.02391925854201693
			vertex 1.7677669529663693 1.7677669529663689 -1.7677669529663693
		endloop
	endfacet
	facet normal 1.3237197015566975e-16 -0.7071067811865476 0.7071067811865476
		outer loop
			vertex 5 3.5355339059327378 2.220446049250313e-16
			vertex 1.8752236741758268 1.6603102317569112 -1.8752236741758268
			vertex 2.6050672931698684 0.93046661276287 -2.605067293169868
		endloop
	endfacet
	facet normal 1.3237197015566975e-16 -0.7071067811865476 0.7071067811865476
		outer loop
			vertex 5 3.5355339059327378 2.220446049250313e-16
			vertex 2.6050672931698684 0.93046661276287 -2.605067293169868
			vertex 5 0.1607060866333065 -3.3748278192994317
		endloop
	endfacet
	facet normal -1.2145203653265868e-16 -0.7071067811865477 0.7071067811865474
		outer loop
			vertex 3.4005322397441184 0.13500166618861997 -3.400532239744118
			vertex 5 0.1607060866333061 -3.3748278192994317
			vertex 2.605067293169868 0.93046661276287 -2.605067293169868
		endloop
	endfacet
	facet normal -1.5911330141758564e-16 -0.7071067811865451 0.7071067811865499
		outer loop
			vertex 3.42543621607331 0.11009768985942839 -3.4254362160733094
			vertex 5 0.1607060866333061 -3.3748278192994317
			vertex 3.4005322397441176 0.13500166618861995 -3.400532239744118
		endloop
	endfacet
	facet normal 0 -0.7071067811865482 0.7071067811865468
		outer loop
			vertex 5 0.1607060866333061 -3.3748278192994317
			vertex 3.4254362160733094 0.11009768985942836 -3.4254362160733094
			vertex 3.535533905932738 2.220446049250313e-16 -3.5355339059327378
		endloop
	endfacet
	facet normal 0 -0.7071067811865482 0.7071067811865468
		outer loop
			vertex 5 0.1607060866333061 -3.3748278192994317
			vertex 3.535533905932738 2.220446049250313e-16 -3.5355339059327378
			vertex 5 2.220446049250313e-16 -3.5355339059327378
		endloop
	endfacet
	facet normal 6.741219895042243e-17 -0.7071067811865476 0.7071067811865476
		outer loop
			vertex -3.5586965299647746 0.023162624032036755 -3.5123712819007014
			vertex -5 1.4644660940672618 -2.0710678118654764
			vertex -5 2.220446049250313e-16 -3.5355339059327378
		endloop
	endfacet
	facet normal 0 -0.7071067811865455 0.7071067811865497
		outer loop
			vertex -3.5586965299647746 0.023162624032036755 -3.5123712819007014
			vertex -5 2.220446049250313e-16 -3.5355339059327378
			vertex -3.535533905932738 2.220446049250313e-16 -3.5355339059327378
		endloop
	endfacet
	facet normal 0 -0.7071067811865481 0.7071067811865469
		outer loop
			vertex -3.6749455612228465 3.396122250642628 -0.13941165529010968
			vertex -3.5355339059327378 3.5355339059327378 2.220446049250313e-16
			vertex -5 3.5355339059327378 2.220446049250313e-16
		endloop
	endfacet
	facet normal 1.584097486491981e-17 -0.707106781186548 0.707106781186547
		outer loop
			vertex -3.6749455612228465 3.396122250642628 -0.13941165529010968
			vertex -5 3.5355339059327378 2.220446049250313e-16
			vertex -5 3.374827819299431 -0.16070608663330654
		endloop
	endfacet
	facet normal 0 -0.7071067811865476 0.7071067811865476
		outer loop
			vertex -3.674945561222848 3.396122250642628 -0.13941165529010968
			vertex -5 3.374827819299431 -0.16070608663330654
			vertex -4.0133585615372525 3.057709250328223 -0.4778246556045147
		endloop
	endfacet
	facet normal -1.2205855408292885e-16 -0.7071067811865476 0.7071067811865476
		outer loop
			vertex -4.0133585615372525 3.057709250328223 -0.4778246556045145
			vertex -5 3.3748278192994317 -0.16070608663330604
			vertex -5 2.0710678118654764 -1.4644660940672614
		endloop
	endfacet
	facet normal 2.3625720212940545e-16 -0.7071067811865482 0.7071067811865468
		outer loop
			vertex -3.6749455612228465 3.396122250642628 -0.13941165529010968
			vertex -3.4005322397441176 3.4005322397441176 -0.13500166618862028
			vertex -3.5355339059327378 3.5355339059327378 2.220446049250313e-16
		endloop
	endfacet
	facet normal 1.4431369937755204e-16 -0.7071067811865476 0.7071067811865475
		outer loop
			vertex -3.400532239744118 3.4005322397441176 -0.13500166618862025
			vertex -3.674945561222848 3.396122250642628 -0.13941165529010968
			vertex -4.0133585615372525 3.057709250328223 -0.4778246556045147
		endloop
	endfacet
	facet normal 1.0327034653150765e-16 -0.7071067811865476 0.7071067811865476
		outer loop
			vertex -3.400532239744118 3.4005322397441176 -0.13500166618862025
			vertex -4.0133585615372525 3.057709250328223 -0.4778246556045147
			vertex -2.605067293169868 2.605067293169868 -0.93046661276287
		endloop
	endfacet
	facet normal 1.962209657443221e-16 -0.7071067811865476 0.7071067811865476
		outer loop
			vertex -2.001213068397299 1.534320837535439 -2.0012130683972984
			vertex -1.7677669529663693 1.7677669529663689 -1.7677669529663689
			vertex -2.6050672931698684 2.605067293169868 -0.9304666127628698
		endloop
	endfacet
	facet normal 1.962209657443221e-16 -0.7071067811865476 0.7071067811865476
		outer loop
			vertex -2.001213068397299 1.534320837535439 -2.0012130683972984
			vertex -2.6050672931698684 2.605067293169868 -0.9304666127628698
			vertex -4.0133585615372525 3.057709250328223 -0.4778246556045145
		endloop
	endfacet
	facet normal 2.2505096205060236e-17 -0.7071067811865477 0.7071067811865475
		outer loop
			vertex -2.4832468195458586 1.052287086386879 -2.483246819545859
			vertex -2.0012130683972997 1.5343208375354396 -2.0012130683972984
			vertex -4.0133585615372525 3.057709250328223 -0.4778246556045145
		endloop
	endfacet
	facet normal 2.2505096205060236e-17 -0.7071067811865477 0.7071067811865475
		outer loop
			vertex -2.4832468195458586 1.052287086386879 -2.483246819545859
			vertex -4.0133585615372525 3.057709250328223 -0.4778246556045145
			vertex -5 2.0710678118654764 -1.4644660940672614
		endloop
	endfacet
	facet normal -2.571111876006591e-16 -0.7071067811865478 0.7071067811865472
		outer loop
			vertex -3.5586965299647746 0.023162624032036755 -3.5123712819007014
			vertex -3.5116146473907204 0.023919258542017263 -3.511614647390721
			vertex -2.4832468195458595 1.0522870863868794 -2.483246819545858
		endloop
	endfacet
	facet normal -2.571111876006591e-16 -0.7071067811865478 0.7071067811865472
		outer loop
			vertex -3.5586965299647746 0.023162624032036755 -3.5123712819007014
			vertex -2.4832468195458595 1.0522870863868794 -2.483246819545858
			vertex -5 2.0710678118654764 -1.4644660940672614
		endloop
	endfacet
	facet normal -2.571111876006591e-16 -0.7071067811865478 0.7071067811865472
		outer loop
			vertex -3.5586965299647746 0.023162624032036755 -3.5123712819007014
			vertex -5 2.0710678118654764 -1.4644660940672614
			vertex -5 1.4644660940672618 -2.0710678118654764
		endloop
	endfacet
	facet normal -6.91878457734194e-16 -0.7071067811865458 0.7071067811865492
		outer loop
			vertex -3.511614647390721 0.023919258542017253 -3.511614647390721
			vertex -3.5586965299647746 0.023162624032036755 -3.5123712819007014
			vertex -3.535533905932738 2.220446049250313e-16 -3.5355339059327378
		endloop
	endfacet
	facet normal -0.7071067811865477 -3.431755230591644e-17 0.7071067811865475
		outer loop
			vertex 1.4812498758590587 2.0542840300736795 -2.0542840300736795
			vertex 2.0710678118654773 5 -1.4644660940672602
			vertex 0.1607060866333061 5 -3.3748278192994317
		endloop
	endfacet
	facet normal -0.7071067811865477 -3.431755230591644e-17 0.7071067811865475
		outer loop
			vertex 1.4812498758590587 2.0542840300736795 -2.0542840300736795
			vertex 0.1607060866333061 5 -3.3748278192994317
			vertex 0.9304666127628698 2.605067293169868 -2.605067293169868
		endloop
	endfacet
	facet normal -0.7071067811865479 6.199828845576802e-16 0.7071067811865472
		outer loop
			vertex 2.0710678118654773 5 -1.4644660940672602
			vertex 1.4812498758590587 2.0542840300736795 -2.0542840300736795
			vertex 1.7677669529663675 1.7677669529663698 -1.7677669529663704
		endloop
	endfacet
	facet normal -0.7071067811865479 6.199828845576802e-16 0.7071067811865472
		outer loop
			vertex 2.0710678118654773 5 -1.4644660940672602
			vertex 1.7677669529663675 1.7677669529663698 -1.7677669529663704
			vertex 3.5355339059327378 3.5355339059327378 -2.220446049250313e-16
		endloop
	endfacet
	facet normal -0.7071067811865472 1.5297866077048327e-16 0.7071067811865479
		outer loop
			vertex 0.8428494355440816 2.6926844703886563 -2.692684470388656
			vertex 0.9304666127628696 2.6050672931698693 -2.6050672931698684
			vertex 0.16070608663330604 5 -3.3748278192994317
		endloop
	endfacet
	facet normal -0.7071067811865472 1.5297866077048327e-16 0.7071067811865479
		outer loop
			vertex 0.8428494355440816 2.6926844703886563 -2.692684470388656
			vertex 0.16070608663330604 5 -3.3748278192994317
			vertex -2.220446049250313e-16 5 -3.5355339059327378
		endloop
	endfacet
	facet normal -0.7071067811865475 0 0.7071067811865476
		outer loop
			vertex 0.8428494355440818 2.6926844703886563 -2.692684470388656
			vertex -2.220446049250313e-16 5 -3.5355339059327378
			vertex -2.220446049250313e-16 3.535533905932738 -3.5355339059327378
		endloop
	endfacet
	facet normal 0.7071067811865477 0 0.7071067811865475
		outer loop
			vertex -1.4644660940672622 5 -2.0710678118654755
			vertex -2.220446049250313e-16 3.5355339059327386 -3.5355339059327378
			vertex -2.220446049250313e-16 5 -3.5355339059327378
		endloop
	endfacet
	facet normal 0.7071067811865476 0 0.7071067811865476
		outer loop
			vertex -2.0710678118654777 5 -1.46446609406726
			vertex -3.057709250328223 4.013358561537251 -0.4778246556045147
			vertex -2.605067293169869 2.6050672931698697 -0.9304666127628689
		endloop
	endfacet
	facet normal 0.7071067811865477 -3.2011398474500796e-17 0.7071067811865475
		outer loop
			vertex -1.0355339059327382 2.5000000000000004 -2.5
			vertex -2.0710678118654777 5 -1.46446609406726
			vertex -2.605067293169869 2.6050672931698697 -0.9304666127628689
		endloop
	endfacet
	facet normal 0.7071067811865477 -3.2011398474500796e-17 0.7071067811865475
		outer loop
			vertex -1.0355339059327382 2.5000000000000004 -2.5
			vertex -2.605067293169869 2.6050672931698697 -0.9304666127628689
			vertex -1.7677669529663678 1.76776695296637 -1.7677669529663702
		endloop
	endfacet
	facet normal 0.7071067811865477 0 0.7071067811865475
		outer loop
			vertex -1.4644660940672622 5 -2.0710678118654755
			vertex -2.0710678118654777 5 -1.46446609406726
			vertex -1.0355339059327378 2.5 -2.5
		endloop
	endfacet
	facet normal 0.7071067811865477 0 0.7071067811865475
		outer loop
			vertex -1.4644660940672622 5 -2.0710678118654755
			vertex -1.0355339059327378 2.5 -2.5
			vertex -2.220446049250313e-16 3.5355339059327386 -3.5355339059327378
		endloop
	endfacet
	facet normal 0.7071067811865477 4.4143411251729396e-17 0.7071067811865475
		outer loop
			vertex -2.6050672931698684 2.6050672931698697 -0.9304666127628693
			vertex -3.0577092503282235 4.013358561537253 -0.47782465560451426
			vertex -3.5355339059327378 3.5355339059327378 2.220446049250313e-16
		endloop
	endfacet
	facet normal 0.7071067811865476 -0.7071067811865476 0
		outer loop
			vertex -2.071067811865474 1.4644660940672631 -5
			vertex -1.4644660940672611 2.0710678118654764 -5
			vertex -0.4778246556045147 3.057709250328223 -4.013358561537253
		endloop
	endfacet
	facet normal 0.7071067811865476 -0.7071067811865476 0
		outer loop
			vertex -2.071067811865474 1.4644660940672631 -5
			vertex -0.4778246556045147 3.057709250328223 -4.013358561537253
			vertex -0.9304666127628708 2.605067293169867 -2.6050672931698666
		endloop
	endfacet
	facet normal 0.7071067811865476 -0.7071067811865476 0
		outer loop
			vertex -2.071067811865474 1.4644660940672631 -5
			vertex -0.9304666127628708 2.605067293169867 -2.6050672931698666
			vertex -1.7677669529663635 1.767766952966374 -1.7677669529663735
		endloop
	endfacet
	facet normal 0.7071067811865476 -0.7071067811865476 0
		outer loop
			vertex -2.071067811865474 1.4644660940672631 -5
			vertex -1.7677669529663635 1.767766952966374 -1.7677669529663735
			vertex -3.5355339059327378 -2.220446049250313e-16 -3.535533905932737
		endloop
	endfacet
	facet normal 0.7071067811865476 -0.7071067811865476 -8.828682250345867e-17
		outer loop
			vertex -0.9304666127628705 2.6050672931698675 -2.605067293169867
			vertex -0.4778246556045146 3.0577092503282235 -4.013358561537253
			vertex -2.220446049250313e-16 3.5355339059327378 -3.535533905932739
		endloop
	endfacet
	facet normal -0.7071067811865472 -0.707106781186548 -2.0397154769397703e-16
		outer loop
			vertex -2.220446049250313e-16 3.5355339059327378 -3.5355339059327386
			vertex -2.220446049250313e-16 3.5355339059327378 -5
			vertex 0.16070608663330654 3.374827819299431 -5
		endloop
	endfacet
	facet normal -0.7071067811865472 -0.707106781186548 -2.0397154769397703e-16
		outer loop
			vertex -2.220446049250313e-16 3.5355339059327378 -3.5355339059327386
			vertex 0.16070608663330654 3.374827819299431 -5
			vertex 0.9304666127628701 2.605067293169868 -2.6050672931698684
		endloop
	endfacet
	facet normal -0.7071067811865476 -0.7071067811865476 0
		outer loop
			vertex 1.7677669529663642 1.7677669529663738 -1.7677669529663744
			vertex 0.9304666127628696 2.605067293169868 -2.605067293169869
			vertex 0.16070608663330604 3.3748278192994317 -5
		endloop
	endfacet
	facet normal -0.7071067811865476 -0.7071067811865476 0
		outer loop
			vertex 1.7677669529663642 1.7677669529663738 -1.7677669529663744
			vertex 0.16070608663330604 3.3748278192994317 -5
			vertex 2.071067811865474 1.4644660940672638 -5
		endloop
	endfacet
	facet normal -0.7071067811865476 -0.7071067811865476 0
		outer loop
			vertex 1.7677669529663642 1.7677669529663738 -1.7677669529663744
			vertex 2.071067811865474 1.4644660940672638 -5
			vertex 3.5355339059327378 2.220446049250313e-16 -3.5355339059327373
		endloop
	endfacet
	facet normal 0.7071067811865476 -0.7071067811865475 3.051463852073225e-17
		outer loop
			vertex -1.4644660940672611 2.0710678118654764 -5
			vertex -0.16070608663330654 3.374827819299431 -5
			vertex -0.4778246556045147 3.057709250328223 -4.013358561537253
		endloop
	endfacet
	facet normal 0.7071067811865472 -0.7071067811865479 0
		outer loop
			vertex -0.4778246556045146 3.0577092503282235 -4.013358561537253
			vertex -0.1607060866333065 3.3748278192994317 -5
			vertex -2.220446049250313e-16 3.5355339059327378 -5
		endloop
	endfacet
	facet normal 0.7071067811865472 -0.7071067811865479 0
		outer loop
			vertex -0.4778246556045146 3.0577092503282235 -4.013358561537253
			vertex -2.220446049250313e-16 3.5355339059327378 -5
			vertex -2.220446049250313e-16 3.5355339059327378 -3.535533905932739
		endloop
	endfacet
	facet normal 0.7071067811865475 4.414341125172917e-17 -0.7071067811865476
		outer loop
			vertex -2.6050672931698657 -2.6050672931698617 0.9304666127628721
			vertex -3.057709250328223 -4.0133585615372525 0.4778246556045148
			vertex -3.5355339059327378 -3.5355339059327378 2.220446049250313e-16
		endloop
	endfacet
	facet normal 0.7071067811865476 8.551357952866836e-17 -0.7071067811865476
		outer loop
			vertex -2.0710678118654773 -5 1.4644660940672605
			vertex -3.0577092503282226 -4.0133585615372525 0.47782465560451515
			vertex -2.6050672931698653 -2.6050672931698613 0.9304666127628727
		endloop
	endfacet
	facet normal 0.7071067811865474 -1.600569923725048e-17 -0.7071067811865477
		outer loop
			vertex -1.0355339059327378 -2.5000000000000004 2.5
			vertex -2.0710678118654773 -5 1.4644660940672605
			vertex -2.6050672931698653 -2.6050672931698613 0.9304666127628727
		endloop
	endfacet
	facet normal 0.7071067811865474 -1.600569923725048e-17 -0.7071067811865477
		outer loop
			vertex -1.0355339059327378 -2.5000000000000004 2.5
			vertex -2.6050672931698653 -2.6050672931698613 0.9304666127628727
			vertex -1.7677669529663695 -1.7677669529663689 1.767766952966368
		endloop
	endfacet
	facet normal 0.7071067811865476 0 -0.7071067811865476
		outer loop
			vertex -2.0710678118654773 -5 1.4644660940672605
			vertex -1.0355339059327375 -2.5000000000000004 2.5
			vertex 2.220446049250313e-16 -3.5355339059327386 3.5355339059327378
		endloop
	endfacet
	facet normal 0.7071067811865476 0 -0.7071067811865476
		outer loop
			vertex -2.0710678118654773 -5 1.4644660940672605
			vertex 2.220446049250313e-16 -3.5355339059327386 3.5355339059327378
			vertex 2.220446049250313e-16 -5 3.5355339059327378
		endloop
	endfacet
	facet normal -0.7071067811865472 -1.2377802912783126e-16 -0.7071067811865479
		outer loop
			vertex 0.3918285024470579 -3.9273624083797958 3.14370540348568
			vertex 0.47782465560451476 -4.0133585615372525 3.0577092503282235
			vertex 0.1607060866333065 -5 3.3748278192994317
		endloop
	endfacet
	facet normal -0.7071067811865472 -1.2377802912783126e-16 -0.7071067811865479
		outer loop
			vertex 0.3918285024470579 -3.9273624083797958 3.14370540348568
			vertex 0.1607060866333065 -5 3.3748278192994317
			vertex 2.220446049250313e-16 -5 3.5355339059327378
		endloop
	endfacet
	facet normal -0.7071067811865476 0 -0.7071067811865476
		outer loop
			vertex 0.39182850244705786 -3.9273624083797958 3.14370540348568
			vertex 2.220446049250313e-16 -5 3.5355339059327378
			vertex 2.220446049250313e-16 -3.535533905932738 3.5355339059327378
		endloop
	endfacet
	facet normal -0.7071067811865476 0 -0.7071067811865475
		outer loop
			vertex 1.4644660940672618 -5 2.0710678118654755
			vertex 0.16070608663330654 -5 3.374827819299431
			vertex 0.4778246556045146 -4.013358561537253 3.057709250328223
		endloop
	endfacet
	facet normal -0.7071067811865485 4.68789016571825e-16 -0.7071067811865466
		outer loop
			vertex 0.3918285024470579 -3.9273624083797958 3.14370540348568
			vertex 0.8428494355440824 -2.692684470388655 2.692684470388656
			vertex 0.9304666127628702 -2.6050672931698675 2.605067293169868
		endloop
	endfacet
	facet normal -0.7071067811865485 4.68789016571825e-16 -0.7071067811865466
		outer loop
			vertex 0.3918285024470579 -3.9273624083797958 3.14370540348568
			vertex 0.9304666127628702 -2.6050672931698675 2.605067293169868
			vertex 0.47782465560451476 -4.0133585615372525 3.0577092503282235
		endloop
	endfacet
	facet normal -0.7071067811865476 5.942774019165844e-17 -0.7071067811865476
		outer loop
			vertex 0.8428494355440823 -2.6926844703886554 2.692684470388656
			vertex 0.39182850244705786 -3.9273624083797958 3.14370540348568
			vertex 2.220446049250313e-16 -3.535533905932738 3.5355339059327378
		endloop
	endfacet
	facet normal -0.7071067811865476 5.3445987205417866e-17 -0.7071067811865475
		outer loop
			vertex 1.48124987585906 -2.0542840300736787 2.0542840300736773
			vertex 2.0710678118654777 -5 1.4644660940672598
			vertex 1.4644660940672618 -5 2.0710678118654755
		endloop
	endfacet
	facet normal -0.7071067811865476 5.3445987205417866e-17 -0.7071067811865475
		outer loop
			vertex 1.48124987585906 -2.0542840300736787 2.0542840300736773
			vertex 1.4644660940672618 -5 2.0710678118654755
			vertex 0.4778246556045146 -4.013358561537253 3.057709250328223
		endloop
	endfacet
	facet normal -0.7071067811865476 5.3445987205417866e-17 -0.7071067811865475
		outer loop
			vertex 1.48124987585906 -2.0542840300736787 2.0542840300736773
			vertex 0.4778246556045146 -4.013358561537253 3.057709250328223
			vertex 0.9304666127628701 -2.605067293169868 2.6050672931698675
		endloop
	endfacet
	facet normal -0.7071067811865476 0 -0.7071067811865476
		outer loop
			vertex 2.0710678118654777 -5 1.4644660940672598
			vertex 1.48124987585906 -2.054284030073678 2.0542840300736773
			vertex 1.7677669529663698 -1.7677669529663675 1.7677669529663678
		endloop
	endfacet
	facet normal -0.7071067811865476 0 -0.7071067811865476
		outer loop
			vertex 2.0710678118654777 -5 1.4644660940672598
			vertex 1.7677669529663698 -1.7677669529663675 1.7677669529663678
			vertex 3.5355339059327378 -3.5355339059327378 -2.220446049250313e-16
		endloop
	endfacet
	facet normal -0.7071067811865477 0.7071067811865475 -2.121528863786827e-16
		outer loop
			vertex 1.4644660940672625 -2.0710678118654755 5
			vertex 2.0710678118654706 -1.4644660940672671 5
			vertex 3.0577092503282226 -0.47782465560451515 4.013358561537251
		endloop
	endfacet
	facet normal -0.7071067811865477 0.7071067811865475 -2.121528863786827e-16
		outer loop
			vertex 1.4644660940672625 -2.0710678118654755 5
			vertex 3.0577092503282226 -0.47782465560451515 4.013358561537251
			vertex 2.6050672931698675 -0.9304666127628702 2.605067293169867
		endloop
	endfacet
	facet normal -0.7071067811865477 0.7071067811865475 -2.121528863786827e-16
		outer loop
			vertex 1.4644660940672625 -2.0710678118654755 5
			vertex 2.6050672931698675 -0.9304666127628702 2.605067293169867
			vertex 1.7677669529663695 -1.7677669529663682 1.7677669529663693
		endloop
	endfacet
	facet normal -0.7071067811865477 0.7071067811865475 -2.121528863786827e-16
		outer loop
			vertex 1.4644660940672625 -2.0710678118654755 5
			vertex 1.7677669529663695 -1.7677669529663682 1.7677669529663693
			vertex 2.220446049250313e-16 -3.5355339059327378 3.535533905932738
		endloop
	endfacet
	facet normal -0.7071067811865476 0.7071067811865475 8.82868225034588e-17
		outer loop
			vertex 2.605067293169868 -0.9304666127628696 2.605067293169868
			vertex 3.057709250328222 -0.4778246556045155 4.013358561537249
			vertex 3.5355339059327378 2.220446049250313e-16 3.535533905932734
		endloop
	endfacet
	facet normal 0.7071067811865474 0.7071067811865477 -8.828682250345857e-17
		outer loop
			vertex -3.5355339059327378 -2.220446049250313e-16 3.5355339059327346
			vertex -3.0577092503282226 -0.47782465560451515 4.013358561537251
			vertex -2.605067293169867 -0.9304666127628707 2.6050672931698657
		endloop
	endfacet
	facet normal 0.7071067811865475 0.7071067811865476 0
		outer loop
			vertex -1.7677669529663693 -1.7677669529663684 1.7677669529663689
			vertex -2.605067293169867 -0.9304666127628709 2.6050672931698657
			vertex -3.057709250328222 -0.4778246556045157 4.01335856153725
		endloop
	endfacet
	facet normal 0.7071067811865475 0.7071067811865476 0
		outer loop
			vertex -1.7677669529663693 -1.7677669529663684 1.7677669529663689
			vertex -3.057709250328222 -0.4778246556045157 4.01335856153725
			vertex -2.071067811865471 -1.4644660940672671 5
		endloop
	endfacet
	facet normal 0.7071067811865475 0.7071067811865476 0
		outer loop
			vertex -1.7677669529663693 -1.7677669529663684 1.7677669529663689
			vertex -2.071067811865471 -1.4644660940672671 5
			vertex 2.220446049250313e-16 -3.5355339059327378 5
		endloop
	endfacet
	facet normal 0.7071067811865475 0.7071067811865476 0
		outer loop
			vertex -1.7677669529663693 -1.7677669529663684 1.7677669529663689
			vertex 2.220446049250313e-16 -3.5355339059327378 5
			vertex 2.220446049250313e-16 -3.5355339059327378 3.535533905932738
		endloop
	endfacet
	facet normal -0.7071067811865476 0.7071067811865476 0
		outer loop
			vertex 1.4644660940672625 -2.0710678118654755 5
			vertex 2.220446049250313e-16 -3.5355339059327378 3.535533905932738
			vertex 2.220446049250313e-16 -3.5355339059327378 5
		endloop
	endfacet
	facet normal -0.7071067811865476 0 0.7071067811865476
		outer loop
			vertex 1.464466094067262 -5 -2.0710678118654755
			vertex -2.220446049250313e-16 -3.535533905932738 -3.5355339059327378
			vertex -2.220446049250313e-16 -5 -3.5355339059327378
		endloop
	endfacet
	facet normal -0.707106781186548 -2.039715476939775e-16 0.7071067811865471
		outer loop
			vertex 2.605067293169867 -2.6050672931698657 -0.9304666127628709
			vertex 3.3748278192994317 -5 -0.1607060866333065
			vertex 3.5355339059327378 -5 -2.220446049250313e-16
		endloop
	endfacet
	facet normal -0.7071067811865476 0 0.7071067811865476
		outer loop
			vertex 2.605067293169867 -2.6050672931698657 -0.9304666127628709
			vertex 3.5355339059327378 -5 -2.220446049250313e-16
			vertex 3.5355339059327378 -3.5355339059327378 -2.220446049250313e-16
		endloop
	endfacet
	facet normal -0.7071067811865474 1.1538373163482164e-16 0.7071067811865477
		outer loop
			vertex 1.424723999020234 -2.110809906912504 -2.1108099069125035
			vertex 3.374827819299431 -5 -0.16070608663330654
			vertex 2.605067293169867 -2.605067293169866 -0.9304666127628707
		endloop
	endfacet
	facet normal -0.7071067811865474 1.1538373163482164e-16 0.7071067811865477
		outer loop
			vertex 1.424723999020234 -2.110809906912504 -2.1108099069125035
			vertex 2.605067293169867 -2.605067293169866 -0.9304666127628707
			vertex 1.7677669529663702 -1.7677669529663682 -1.7677669529663673
		endloop
	endfacet
	facet normal -0.7071067811865476 -9.109037277543131e-17 0.7071067811865476
		outer loop
			vertex 1.464466094067262 -5 -2.0710678118654755
			vertex 3.374827819299431 -5 -0.16070608663330654
			vertex 1.4247239990202343 -2.110809906912504 -2.110809906912503
		endloop
	endfacet
	facet normal -0.7071067811865476 -9.109037277543131e-17 0.7071067811865476
		outer loop
			vertex 1.464466094067262 -5 -2.0710678118654755
			vertex 1.4247239990202343 -2.110809906912504 -2.110809906912503
			vertex -2.220446049250313e-16 -3.535533905932738 -3.5355339059327378
		endloop
	endfacet
	facet normal 0.7071067811865479 -3.713340873834938e-16 -0.7071067811865471
		outer loop
			vertex -3.057709250328223 -4.0133585615372525 0.4778246556045148
			vertex -3.3748278192994317 -5 0.1607060866333065
			vertex -3.5355339059327378 -5 2.220446049250313e-16
		endloop
	endfacet
	facet normal 0.7071067811865475 0 -0.7071067811865476
		outer loop
			vertex -3.057709250328223 -4.0133585615372525 0.4778246556045148
			vertex -3.5355339059327378 -5 2.220446049250313e-16
			vertex -3.5355339059327378 -3.5355339059327378 2.220446049250313e-16
		endloop
	endfacet
	facet normal 0.7071067811865476 0 -0.7071067811865476
		outer loop
			vertex -2.0710678118654773 -5 1.4644660940672605
			vertex -3.374827819299431 -5 0.16070608663330654
			vertex -3.0577092503282226 -4.0133585615372525 0.47782465560451515
		endloop
	endfacet
	facet normal -0.7071067811865476 0 -0.7071067811865476
		outer loop
			vertex 2.0710678118654777 -5 1.4644660940672598
			vertex 3.5355339059327378 -3.5355339059327378 -2.220446049250313e-16
			vertex 3.5355339059327378 -5 -2.220446049250313e-16
		endloop
	endfacet
	facet normal 0.7071067811865471 -2.0397154769397758e-16 0.7071067811865479
		outer loop
			vertex -0.8428494355440823 -2.692684470388656 -2.6926844703886554
			vertex -0.9304666127628702 -2.605067293169868 -2.605067293169868
			vertex -0.1607060866333065 -5 -3.3748278192994317
		endloop
	endfacet
	facet normal 0.7071067811865471 -2.0397154769397758e-16 0.7071067811865479
		outer loop
			vertex -0.8428494355440823 -2.692684470388656 -2.6926844703886554
			vertex -0.1607060866333065 -5 -3.3748278192994317
			vertex -2.220446049250313e-16 -5 -3.5355339059327378
		endloop
	endfacet
	facet normal 0.7071067811865476 0 0.7071067811865476
		outer loop
			vertex -0.8428494355440821 -2.6926844703886563 -2.692684470388656
			vertex -2.220446049250313e-16 -5 -3.5355339059327378
			vertex -2.220446049250313e-16 -3.5355339059327373 -3.5355339059327378
		endloop
	endfacet
	facet normal 0.7071067811865477 -2.1215288637868198e-16 0.7071067811865475
		outer loop
			vertex -0.16070608663330654 -5 -3.374827819299431
			vertex -0.9304666127628701 -2.605067293169868 -2.605067293169868
			vertex -1.7677669529663704 -1.7677669529663669 -1.767766952966367
		endloop
	endfacet
	facet normal 0.7071067811865477 -2.1215288637868198e-16 0.7071067811865475
		outer loop
			vertex -0.16070608663330654 -5 -3.374827819299431
			vertex -1.7677669529663704 -1.7677669529663669 -1.767766952966367
			vertex -3.5355339059327378 -3.5355339059327378 2.220446049250313e-16
		endloop
	endfacet
	facet normal 0.7071067811865476 0 0.7071067811865475
		outer loop
			vertex -0.16070608663330654 -5 -3.374827819299431
			vertex -3.5355339059327378 -3.5355339059327378 2.220446049250313e-16
			vertex -3.5355339059327378 -5 2.220446049250313e-16
		endloop
	endfacet
	facet normal 0.7071067811865478 0.7071067811865474 1.9622096574432134e-16
		outer loop
			vertex -1.464466094067256 -2.0710678118654817 -5
			vertex -3.5355339059327378 -2.220446049250313e-16 -5
			vertex -3.5355339059327378 -2.220446049250313e-16 -3.5355339059327373
		endloop
	endfacet
	facet normal 0.7071067811865478 0.7071067811865474 1.9622096574432134e-16
		outer loop
			vertex -1.464466094067256 -2.0710678118654817 -5
			vertex -3.5355339059327378 -2.220446049250313e-16 -3.5355339059327373
			vertex -1.7677669529663693 -1.7677669529663684 -1.7677669529663693
		endloop
	endfacet
	facet normal 0.7071067811865478 0.7071067811865474 1.9622096574432134e-16
		outer loop
			vertex -1.464466094067256 -2.0710678118654817 -5
			vertex -1.7677669529663693 -1.7677669529663684 -1.7677669529663693
			vertex -0.93046661276287 -2.605067293169868 -2.605067293169868
		endloop
	endfacet
	facet normal 0.7071067811865478 0.7071067811865474 1.9622096574432134e-16
		outer loop
			vertex -1.464466094067256 -2.0710678118654817 -5
			vertex -0.93046661276287 -2.605067293169868 -2.605067293169868
			vertex -0.4778246556045134 -3.0577092503282244 -4.013358561537256
		endloop
	endfacet
	facet normal 0.7071067811865476 0.7071067811865476 8.828682250345872e-17
		outer loop
			vertex -0.4778246556045136 -3.057709250328224 -4.013358561537256
			vertex -0.9304666127628698 -2.605067293169868 -2.605067293169869
			vertex 2.220446049250313e-16 -3.5355339059327378 -3.5355339059327417
		endloop
	endfacet
	facet normal 0.7071067811865476 -0.7071067811865476 0
		outer loop
			vertex -2.071067811865474 1.4644660940672631 -5
			vertex -3.5355339059327378 -2.220446049250313e-16 -3.535533905932737
			vertex -3.5355339059327378 -2.220446049250313e-16 -5
		endloop
	endfacet
	facet normal -0.7071067811865476 -0.7071067811865476 0
		outer loop
			vertex 2.071067811865474 1.4644660940672638 -5
			vertex 3.5355339059327378 2.220446049250313e-16 -5
			vertex 3.5355339059327378 2.220446049250313e-16 -3.5355339059327373
		endloop
	endfacet
	facet normal 0.7071067811865476 0.7071067811865476 6.102927704146491e-17
		outer loop
			vertex -1.464466094067256 -2.0710678118654817 -5
			vertex -0.4778246556045134 -3.0577092503282244 -4.013358561537256
			vertex -0.16070608663330604 -3.3748278192994317 -5
		endloop
	endfacet
	facet normal 0.7071067811865476 0.7071067811865476 0
		outer loop
			vertex -0.16070608663330654 -3.374827819299431 -5
			vertex -0.4778246556045136 -3.057709250328224 -4.013358561537256
			vertex 2.220446049250313e-16 -3.5355339059327378 -3.5355339059327417
		endloop
	endfacet
	facet normal 0.7071067811865476 0.7071067811865476 0
		outer loop
			vertex -0.16070608663330654 -3.374827819299431 -5
			vertex 2.220446049250313e-16 -3.5355339059327378 -3.5355339059327417
			vertex 2.220446049250313e-16 -3.5355339059327378 -5
		endloop
	endfacet
	facet normal -0.7071067811865471 0.7071067811865479 0
		outer loop
			vertex 0.9304666127628691 -2.605067293169869 -2.6050672931698715
			vertex 0.1607060866333065 -3.3748278192994317 -5
			vertex 2.220446049250313e-16 -3.5355339059327378 -5
		endloop
	endfacet
	facet normal -0.7071067811865471 0.7071067811865479 0
		outer loop
			vertex 0.9304666127628691 -2.605067293169869 -2.6050672931698715
			vertex 2.220446049250313e-16 -3.5355339059327378 -5
			vertex 2.220446049250313e-16 -3.5355339059327378 -3.5355339059327417
		endloop
	endfacet
	facet normal -0.7071067811865477 0.7071067811865475 0
		outer loop
			vertex 0.16070608663330654 -3.374827819299431 -5
			vertex 0.9304666127628691 -2.6050672931698684 -2.6050672931698715
			vertex 1.7677669529663702 -1.7677669529663678 -1.7677669529663689
		endloop
	endfacet
	facet normal -0.7071067811865477 0.7071067811865475 0
		outer loop
			vertex 0.16070608663330654 -3.374827819299431 -5
			vertex 1.7677669529663702 -1.7677669529663678 -1.7677669529663689
			vertex 3.5355339059327378 2.220446049250313e-16 -3.535533905932737
		endloop
	endfacet
	facet normal -0.7071067811865477 0.7071067811865475 0
		outer loop
			vertex 0.16070608663330654 -3.374827819299431 -5
			vertex 3.5355339059327378 2.220446049250313e-16 -3.535533905932737
			vertex 3.5355339059327378 2.220446049250313e-16 -5
		endloop
	endfacet
	facet normal -0.7071067811865475 0 0.7071067811865476
		outer loop
			vertex 2.0710678118654773 5 -1.4644660940672602
			vertex 3.5355339059327378 3.5355339059327378 -2.220446049250313e-16
			vertex 3.5355339059327378 5 -2.220446049250313e-16
		endloop
	endfacet
	facet normal 0.7071067811865475 -2.5424012440162356e-17 -0.7071067811865476
		outer loop
			vertex -1.0699225181099996 4.605456424042737 2.4656113878227384
			vertex -0.1607060866333061 5 3.3748278192994317
			vertex -0.47782465560451437 4.0133585615372525 3.0577092503282235
		endloop
	endfacet
	facet normal 0.7071067811865476 0 -0.7071067811865476
		outer loop
			vertex -1.4644660940672622 5 2.0710678118654755
			vertex -0.1607060866333061 5 3.3748278192994317
			vertex -1.0699225181099994 4.605456424042737 2.4656113878227384
		endloop
	endfacet
	facet normal 0.7071067811865472 3.713340873834938e-16 -0.7071067811865479
		outer loop
			vertex -0.39182850244705747 3.9273624083797953 3.14370540348568
			vertex -0.4778246556045145 4.0133585615372525 3.057709250328223
			vertex -0.16070608663330604 5 3.3748278192994317
		endloop
	endfacet
	facet normal 0.7071067811865472 3.713340873834938e-16 -0.7071067811865479
		outer loop
			vertex -0.39182850244705747 3.9273624083797953 3.14370540348568
			vertex -0.16070608663330604 5 3.3748278192994317
			vertex 2.220446049250313e-16 5 3.5355339059327378
		endloop
	endfacet
	facet normal 0.7071067811865476 0 -0.7071067811865476
		outer loop
			vertex -0.39182850244705736 3.9273624083797958 3.14370540348568
			vertex 2.220446049250313e-16 5 3.5355339059327378
			vertex 2.220446049250313e-16 3.5355339059327373 3.5355339059327378
		endloop
	endfacet
	facet normal 0.7071067811865476 0 -0.7071067811865476
		outer loop
			vertex -1.0699225181099996 4.605456424042737 2.4656113878227384
			vertex -0.47782465560451437 4.0133585615372525 3.0577092503282235
			vertex -0.9304666127628696 2.605067293169869 2.6050672931698684
		endloop
	endfacet
	facet normal 0.7071067811865476 0 -0.7071067811865476
		outer loop
			vertex -1.0699225181099996 4.605456424042737 2.4656113878227384
			vertex -0.9304666127628696 2.605067293169869 2.6050672931698684
			vertex -1.7677669529663704 1.7677669529663669 1.7677669529663675
		endloop
	endfacet
	facet normal 0.7071067811865476 0 -0.7071067811865476
		outer loop
			vertex -1.0699225181099996 4.605456424042737 2.4656113878227384
			vertex -1.7677669529663704 1.7677669529663669 1.7677669529663675
			vertex -3.5355339059327378 3.5355339059327378 2.220446049250313e-16
		endloop
	endfacet
	facet normal 0.7071067811865476 0 -0.7071067811865476
		outer loop
			vertex -1.4644660940672622 5 2.0710678118654755
			vertex -1.0699225181099994 4.605456424042737 2.4656113878227384
			vertex -3.5355339059327378 3.5355339059327378 2.220446049250313e-16
		endloop
	endfacet
	facet normal 0.7071067811865476 0 -0.7071067811865476
		outer loop
			vertex -1.4644660940672622 5 2.0710678118654755
			vertex -3.5355339059327378 3.5355339059327378 2.220446049250313e-16
			vertex -3.5355339059327378 5 2.220446049250313e-16
		endloop
	endfacet
	facet normal 0.7071067811865461 7.031835248577381e-16 -0.707106781186549
		outer loop
			vertex -0.39182850244705747 3.9273624083797953 3.14370540348568
			vertex -0.8428494355440814 2.6926844703886568 2.6926844703886563
			vertex -0.9304666127628696 2.605067293169869 2.6050672931698684
		endloop
	endfacet
	facet normal 0.7071067811865461 7.031835248577381e-16 -0.707106781186549
		outer loop
			vertex -0.39182850244705747 3.9273624083797953 3.14370540348568
			vertex -0.9304666127628696 2.605067293169869 2.6050672931698684
			vertex -0.4778246556045145 4.0133585615372525 3.057709250328223
		endloop
	endfacet
	facet normal 0.7071067811865476 0 -0.7071067811865476
		outer loop
			vertex -0.8428494355440816 2.692684470388656 2.692684470388656
			vertex -0.39182850244705736 3.9273624083797958 3.14370540348568
			vertex 2.220446049250313e-16 3.5355339059327373 3.5355339059327378
		endloop
	endfacet
	facet normal -0.7071067811865472 -1.1538373163482164e-16 -0.7071067811865478
		outer loop
			vertex 1.4247239990202345 2.110809906912504 2.110809906912503
			vertex 3.3748278192994317 5 0.1607060866333061
			vertex 2.6050672931698675 2.605067293169867 0.9304666127628702
		endloop
	endfacet
	facet normal -0.7071067811865472 -1.1538373163482164e-16 -0.7071067811865478
		outer loop
			vertex 1.4247239990202345 2.110809906912504 2.110809906912503
			vertex 2.6050672931698675 2.605067293169867 0.9304666127628702
			vertex 1.7677669529663698 1.767766952966368 1.7677669529663678
		endloop
	endfacet
	facet normal -0.7071067811865476 0 -0.7071067811865476
		outer loop
			vertex 3.3748278192994317 5 0.1607060866333061
			vertex 1.4247239990202345 2.1108099069125035 2.1108099069125035
			vertex 2.220446049250313e-16 3.535533905932738 3.5355339059327378
		endloop
	endfacet
	facet normal -0.7071067811865476 0 -0.7071067811865476
		outer loop
			vertex 3.3748278192994317 5 0.1607060866333061
			vertex 2.220446049250313e-16 3.535533905932738 3.5355339059327378
			vertex 2.220446049250313e-16 5 3.5355339059327378
		endloop
	endfacet
	facet normal -0.707106781186548 2.039715476939775e-16 -0.7071067811865471
		outer loop
			vertex 2.605067293169867 2.6050672931698657 0.9304666127628705
			vertex 3.3748278192994317 5 0.16070608663330604
			vertex 3.5355339059327378 5 -2.220446049250313e-16
		endloop
	endfacet
	facet normal -0.7071067811865476 0 -0.7071067811865476
		outer loop
			vertex 2.605067293169867 2.6050672931698657 0.9304666127628705
			vertex 3.5355339059327378 5 -2.220446049250313e-16
			vertex 3.5355339059327378 3.5355339059327378 -2.220446049250313e-16
		endloop
	endfacet
	facet normal 0.7071067811865476 0 0.7071067811865476
		outer loop
			vertex -2.0710678118654777 5 -1.46446609406726
			vertex -3.3748278192994317 5 -0.1607060866333061
			vertex -3.057709250328223 4.013358561537251 -0.4778246556045147
		endloop
	endfacet
	facet normal 0.7071067811865479 1.2377802912783136e-16 0.7071067811865471
		outer loop
			vertex -3.0577092503282235 4.013358561537253 -0.47782465560451426
			vertex -3.3748278192994317 5 -0.16070608663330604
			vertex -3.5355339059327378 5 2.220446049250313e-16
		endloop
	endfacet
	facet normal 0.7071067811865477 0 0.7071067811865475
		outer loop
			vertex -3.0577092503282235 4.013358561537253 -0.47782465560451426
			vertex -3.5355339059327378 5 2.220446049250313e-16
			vertex -3.5355339059327378 3.5355339059327378 2.220446049250313e-16
		endloop
	endfacet
	facet normal -0.7071067811865476 -0.7071067811865476 0
		outer loop
			vertex 1.4644660940672622 2.0710678118654755 5
			vertex -2.220446049250313e-16 3.5355339059327378 3.5355339059327373
			vertex 1.7677669529663693 1.7677669529663684 1.7677669529663675
		endloop
	endfacet
	facet normal -0.7071067811865476 -0.7071067811865476 0
		outer loop
			vertex 1.4644660940672622 2.0710678118654755 5
			vertex 1.7677669529663693 1.7677669529663684 1.7677669529663675
			vertex 2.6050672931698666 0.9304666127628713 2.605067293169864
		endloop
	endfacet
	facet normal -0.7071067811865476 -0.7071067811865476 0
		outer loop
			vertex 1.4644660940672622 2.0710678118654755 5
			vertex 2.6050672931698666 0.9304666127628713 2.605067293169864
			vertex 3.3748278192994317 0.1607060866333065 5
		endloop
	endfacet
	facet normal -0.7071067811865475 -0.7071067811865477 0
		outer loop
			vertex 3.3748278192994317 0.1607060866333061 5
			vertex 2.605067293169866 0.9304666127628716 2.6050672931698626
			vertex 3.5355339059327378 2.220446049250313e-16 3.5355339059327346
		endloop
	endfacet
	facet normal -0.7071067811865475 -0.7071067811865477 0
		outer loop
			vertex 3.3748278192994317 0.1607060866333061 5
			vertex 3.5355339059327378 2.220446049250313e-16 3.5355339059327346
			vertex 3.5355339059327378 2.220446049250313e-16 5
		endloop
	endfacet
	facet normal -0.7071067811865476 0.7071067811865476 0
		outer loop
			vertex 2.0710678118654706 -1.4644660940672671 5
			vertex 3.3748278192994317 -0.1607060866333061 5
			vertex 3.0577092503282226 -0.47782465560451515 4.013358561537251
		endloop
	endfacet
	facet normal -0.7071067811865479 0.7071067811865471 0
		outer loop
			vertex 3.057709250328222 -0.4778246556045155 4.013358561537249
			vertex 3.3748278192994317 -0.16070608663330604 5
			vertex 3.5355339059327378 2.220446049250313e-16 5
		endloop
	endfacet
	facet normal -0.7071067811865479 0.7071067811865471 0
		outer loop
			vertex 3.057709250328222 -0.4778246556045155 4.013358561537249
			vertex 3.5355339059327378 2.220446049250313e-16 5
			vertex 3.5355339059327378 2.220446049250313e-16 3.535533905932734
		endloop
	endfacet
	facet normal -0.7071067811865476 -0.7071067811865476 0
		outer loop
			vertex 1.4644660940672622 2.0710678118654755 5
			vertex -2.220446049250313e-16 3.5355339059327378 5
			vertex -2.220446049250313e-16 3.5355339059327378 3.5355339059327373
		endloop
	endfacet
	facet normal 0.707106781186547 0.707106781186548 -2.475560582556623e-16
		outer loop
			vertex -3.5355339059327378 -2.220446049250313e-16 3.5355339059327346
			vertex -3.5355339059327378 -2.220446049250313e-16 5
			vertex -3.3748278192994317 -0.1607060866333061 5
		endloop
	endfacet
	facet normal 0.707106781186547 0.707106781186548 -2.475560582556623e-16
		outer loop
			vertex -3.5355339059327378 -2.220446049250313e-16 3.5355339059327346
			vertex -3.3748278192994317 -0.1607060866333061 5
			vertex -3.0577092503282226 -0.47782465560451515 4.013358561537251
		endloop
	endfacet
	facet normal 0.7071067811865476 0.7071067811865476 2.441171081658561e-16
		outer loop
			vertex -3.057709250328222 -0.4778246556045157 4.01335856153725
			vertex -3.3748278192994317 -0.1607060866333065 5
			vertex -2.071067811865471 -1.4644660940672671 5
		endloop
	endfacet
	facet normal 0.7071067811865479 -0.7071067811865471 0
		outer loop
			vertex -2.605067293169867 0.9304666127628707 2.605067293169865
			vertex -3.3748278192994317 0.16070608663330604 5
			vertex -3.5355339059327378 -2.220446049250313e-16 5
		endloop
	endfacet
	facet normal 0.7071067811865479 -0.7071067811865471 0
		outer loop
			vertex -2.605067293169867 0.9304666127628707 2.605067293169865
			vertex -3.5355339059327378 -2.220446049250313e-16 5
			vertex -3.5355339059327378 -2.220446049250313e-16 3.535533905932734
		endloop
	endfacet
	facet normal 0.7071067811865476 -0.7071067811865476 0
		outer loop
			vertex -3.3748278192994317 0.1607060866333061 5
			vertex -2.605067293169866 0.9304666127628716 2.6050672931698626
			vertex -1.7677669529663704 1.7677669529663675 1.7677669529663678
		endloop
	endfacet
	facet normal 0.7071067811865476 -0.7071067811865476 0
		outer loop
			vertex -3.3748278192994317 0.1607060866333061 5
			vertex -1.7677669529663704 1.7677669529663675 1.7677669529663678
			vertex -2.220446049250313e-16 3.5355339059327378 3.5355339059327378
		endloop
	endfacet
	facet normal 0.7071067811865476 -0.7071067811865476 0
		outer loop
			vertex -3.3748278192994317 0.1607060866333061 5
			vertex -2.220446049250313e-16 3.5355339059327378 3.5355339059327378
			vertex -2.220446049250313e-16 3.5355339059327378 5
		endloop
	endfacet
endsolid exported
