<?xml version="1.0" encoding="utf-8"?>
<!-- Generator: Adobe Illustrator 25.0.1, SVG Export Plug-In . SVG Version: 6.00 Build 0)  -->
<svg version="1.1" xmlns="http://www.w3.org/2000/svg" xmlns:xlink="http://www.w3.org/1999/xlink" x="0px" y="0px" width="1000px"
	 height="625px" viewBox="0 0 1000 625" style="enable-background:new 0 0 1000 625;" xml:space="preserve">
<style type="text/css">
	.st0{fill:#FFFFFF;}
	.st1{fill:none;stroke:#E74C3C;stroke-width:2;stroke-linecap:round;stroke-linejoin:round;stroke-miterlimit:10;}
	.st2{fill:#E74C3C;}
	.st3{opacity:0.98;}
	.st4{fill:none;stroke:#E74C3C;stroke-width:2.5;stroke-linecap:round;stroke-linejoin:round;}
	.st5{fill:none;stroke:#E74C3C;stroke-width:2.5;stroke-linecap:round;stroke-linejoin:round;stroke-dasharray:3.7181,7.4362;}
	.st6{fill:none;stroke:#E74C3C;stroke-width:2.5;stroke-linecap:round;stroke-linejoin:round;stroke-dasharray:2.9758,5.9517;}
	.st7{fill:none;stroke:#E74C3C;stroke-width:2.5;stroke-linecap:round;stroke-linejoin:round;stroke-dasharray:2.9397,5.8794;}
	.st8{fill:none;stroke:#E74C3C;stroke-width:2.5;stroke-linecap:round;stroke-linejoin:round;stroke-dasharray:2.7224,5.4448;}
	.st9{fill:none;stroke:#E74C3C;stroke-width:2.5;stroke-linecap:round;stroke-linejoin:round;stroke-dasharray:3.1478,6.2956;}
	.st10{fill:none;stroke:#E74C3C;stroke-width:3;stroke-linecap:round;stroke-linejoin:round;}
	.st11{fill:none;stroke:#E74C3C;stroke-width:3;stroke-linecap:round;stroke-linejoin:round;stroke-dasharray:5.0503,7.0704;}
	.st12{fill:none;stroke:#E74C3C;stroke-width:3;stroke-linecap:round;stroke-linejoin:round;stroke-dasharray:5.1392,7.1949;}
	.st13{fill:none;stroke:#E74C3C;stroke-width:3;stroke-linecap:round;stroke-linejoin:round;stroke-dasharray:4.9638,6.9493;}
	.st14{fill:none;stroke:#E74C3C;stroke-width:3;stroke-linecap:round;stroke-linejoin:round;stroke-dasharray:5.0082,7.0114;}
	.st15{fill:none;stroke:#E74C3C;stroke-width:3;stroke-linecap:round;stroke-linejoin:round;stroke-dasharray:4.9785,6.9699;}
	.st16{fill:none;stroke:#E74C3C;stroke-width:3;stroke-linecap:round;stroke-linejoin:round;stroke-dasharray:5.1003,7.1404;}
	.st17{fill:none;stroke:#E74C3C;stroke-width:3;stroke-linecap:round;stroke-linejoin:round;stroke-dasharray:5.2733,7.3827;}
	.st18{fill:none;stroke:#E74C3C;stroke-width:3;stroke-linecap:round;stroke-linejoin:round;stroke-dasharray:4.926,6.8964;}
	.st19{fill:none;stroke:#E74C3C;stroke-width:3;stroke-linecap:round;stroke-linejoin:round;stroke-dasharray:4.9796,6.9715;}
	.st20{fill:none;stroke:#E74C3C;stroke-width:3;stroke-linecap:round;stroke-linejoin:round;stroke-dasharray:4.9178,6.8849;}
	.st21{fill:none;stroke:#E74C3C;stroke-width:3;stroke-linecap:round;stroke-linejoin:round;stroke-dasharray:4.9627,6.9478;}
	.st22{fill:none;stroke:#E74C3C;stroke-width:3;stroke-linecap:round;stroke-linejoin:round;stroke-dasharray:4.935,6.9089;}
	.st23{fill:none;stroke:#E74C3C;stroke-width:3;stroke-linecap:round;stroke-linejoin:round;stroke-dasharray:4.975,6.965;}
	.st24{fill:none;stroke:#E74C3C;stroke-width:3;stroke-linecap:round;stroke-linejoin:round;stroke-dasharray:4.9406,6.9168;}
	.st25{fill:none;stroke:#E74C3C;stroke-width:3;stroke-linecap:round;stroke-linejoin:round;stroke-dasharray:5.0259,7.0362;}
	.st26{fill:none;stroke:#E74C3C;stroke-width:3;stroke-linecap:round;stroke-linejoin:round;stroke-dasharray:5.0913,7.1279;}
	.st27{fill:none;stroke:#E74C3C;stroke-width:3;stroke-linecap:round;stroke-linejoin:round;stroke-dasharray:4.9875,6.9825;}
	.st28{fill:none;stroke:#E74C3C;stroke-width:3;stroke-linecap:round;stroke-linejoin:round;stroke-dasharray:4.7434,6.6407;}
	.st29{fill:none;stroke:#E74C3C;stroke-width:3;stroke-linecap:round;stroke-linejoin:round;stroke-dasharray:5.0388,7.0543;}
	.st30{fill:none;stroke:#E74C3C;stroke-width:3;stroke-linecap:round;stroke-linejoin:round;stroke-dasharray:4.9395,6.9153;}
	.st31{fill:none;stroke:#E74C3C;stroke-width:3;stroke-linecap:round;stroke-linejoin:round;stroke-dasharray:5.0563,7.0788;}
	.st32{fill:none;stroke:#E74C3C;stroke-width:3;stroke-linecap:round;stroke-linejoin:round;stroke-dasharray:4.991,6.9874;}
	.st33{fill:none;stroke:#E74C3C;stroke-width:3;stroke-linecap:round;stroke-linejoin:round;stroke-dasharray:4.9859,6.9802;}
	.st34{fill:none;stroke:#E74C3C;stroke-width:3.25;stroke-linecap:round;stroke-linejoin:round;}
	.st35{fill:none;stroke:#E74C3C;stroke-width:3.25;stroke-linecap:round;stroke-linejoin:round;stroke-dasharray:4.9454,6.9235;}
	.st36{fill:none;stroke:#E74C3C;stroke-width:3;stroke-linecap:round;stroke-linejoin:round;stroke-dasharray:5.0204,7.0286;}
	.st37{fill:none;stroke:#E74C3C;stroke-width:3.25;stroke-linecap:round;stroke-linejoin:round;stroke-dasharray:5.0455,7.0638;}
	.st38{fill:none;stroke:#E74C3C;stroke-width:3;stroke-linecap:round;stroke-linejoin:round;stroke-dasharray:5.0334,7.0468;}
	.st39{fill:none;stroke:#E74C3C;stroke-width:3.25;stroke-linecap:round;stroke-linejoin:round;stroke-dasharray:4.9457,6.924;}
	.st40{fill:none;stroke:#E74C3C;stroke-width:3;stroke-linecap:round;stroke-linejoin:round;stroke-dasharray:4.9826,6.9757;}
	.st41{fill:none;stroke:#E74C3C;stroke-width:3;stroke-linecap:round;stroke-linejoin:round;stroke-dasharray:4.9391,6.9148;}
	.st42{fill:none;stroke:#E74C3C;stroke-width:3.25;stroke-linecap:round;stroke-linejoin:round;stroke-miterlimit:10;}
	.st43{fill:none;stroke:#E74C3C;stroke-width:3.25;stroke-linecap:round;stroke-linejoin:round;stroke-dasharray:4.9712,6.9597;}
	.st44{fill:none;stroke:#E74C3C;stroke-width:3;stroke-linecap:round;stroke-linejoin:round;stroke-dasharray:4.4292,6.2009;}
	.st45{fill:none;stroke:#E74C3C;stroke-width:3;stroke-linecap:round;stroke-linejoin:round;stroke-dasharray:5.0346,7.0485;}
	.st46{fill:none;stroke:#E74C3C;stroke-width:3.25;stroke-linecap:round;stroke-linejoin:round;stroke-dasharray:5.0229,7.032;}
	.st47{fill:none;stroke:#E74C3C;stroke-width:3.25;stroke-linecap:round;stroke-linejoin:round;stroke-dasharray:4.1898,5.8657;}
	.st48{fill:none;stroke:#E74C3C;stroke-width:3;stroke-linecap:round;stroke-linejoin:round;stroke-dasharray:5.0425,7.0595;}
	.st49{fill:none;stroke:#E74C3C;stroke-width:3;stroke-linecap:round;stroke-linejoin:round;stroke-dasharray:5.0021,7.0029;}
	.st50{fill:none;stroke:#E74C3C;stroke-width:3;stroke-linecap:round;stroke-linejoin:round;stroke-dasharray:5.1385,7.1939;}
	.st51{fill:none;stroke:#E74C3C;stroke-width:3;stroke-linecap:round;stroke-linejoin:round;stroke-dasharray:5.0062,7.0087;}
	.st52{fill:none;stroke:#E74C3C;stroke-width:3;stroke-linecap:round;stroke-linejoin:round;stroke-dasharray:4.9941,6.9917;}
	.st53{fill:none;stroke:#E74C3C;stroke-width:3;stroke-linecap:round;stroke-linejoin:round;stroke-dasharray:5.1061,7.1485;}
	.st54{fill:none;stroke:#E74C3C;stroke-width:3;stroke-linecap:round;stroke-linejoin:round;stroke-dasharray:4.9474,6.9264;}
	.st55{fill:none;stroke:#E74C3C;stroke-width:3;stroke-linecap:round;stroke-linejoin:round;stroke-dasharray:4.9888,6.9843;}
	.st56{fill:none;stroke:#E74C3C;stroke-width:3;stroke-linecap:round;stroke-linejoin:round;stroke-dasharray:5.0109,7.0153;}
	.st57{fill:none;stroke:#E74C3C;stroke-width:3;stroke-linecap:round;stroke-linejoin:round;stroke-dasharray:4.9435,6.9209;}
	.st58{fill:none;stroke:#E74C3C;stroke-width:3;stroke-linecap:round;stroke-linejoin:round;stroke-dasharray:5.0126,7.0177;}
	.st59{fill:none;stroke:#E74C3C;stroke-width:3;stroke-linecap:round;stroke-linejoin:round;stroke-dasharray:4.9831,6.9763;}
	.st60{fill:none;stroke:#E74C3C;stroke-width:3;stroke-linecap:round;stroke-linejoin:round;stroke-dasharray:4.9266,6.8972;}
	.st61{fill:none;stroke:#E74C3C;stroke-width:3;stroke-linecap:round;stroke-linejoin:round;stroke-dasharray:6.203,8.6842;}
	.st62{fill:none;stroke:#E74C3C;stroke-width:3;stroke-linecap:round;stroke-linejoin:round;stroke-dasharray:4.2592,5.9629;}
	.st63{fill:none;stroke:#E74C3C;stroke-width:3;stroke-linecap:round;stroke-linejoin:round;stroke-dasharray:5.0323,7.0452;}
	.st64{fill:none;stroke:#E74C3C;stroke-width:3;stroke-linecap:round;stroke-linejoin:round;stroke-dasharray:2.7811,3.8935;}
	.st65{fill:none;stroke:#E74C3C;stroke-width:3;stroke-linecap:round;stroke-linejoin:round;stroke-dasharray:2.8044,3.9262;}
	.st66{fill:none;stroke:#E74C3C;stroke-width:3;stroke-linecap:round;stroke-linejoin:round;stroke-dasharray:5.078,7.1092;}
	.st67{fill:none;stroke:#E74C3C;stroke-width:3;stroke-linecap:round;stroke-linejoin:round;stroke-dasharray:4.9518,6.9326;}
	.st68{fill:none;stroke:#E74C3C;stroke-width:3;stroke-linecap:round;stroke-linejoin:round;stroke-dasharray:4.7975,6.7164;}
	.st69{fill:none;stroke:#E74C3C;stroke-width:3;stroke-linecap:round;stroke-linejoin:round;stroke-dasharray:4.9593,6.9431;}
	.st70{fill:none;stroke:#E74C3C;stroke-linecap:round;stroke-linejoin:round;stroke-miterlimit:10;}
	.st71{fill:none;stroke:#E74C3C;stroke-width:0.75;stroke-linecap:round;stroke-linejoin:round;stroke-miterlimit:10;}
	.st72{fill:none;stroke:#E74C3C;stroke-width:1.25;stroke-linecap:round;stroke-linejoin:round;stroke-miterlimit:10;}
	.st73{fill:none;stroke:#E74C3C;stroke-width:1.5;stroke-linecap:round;stroke-linejoin:round;stroke-miterlimit:10;}
	.st74{fill:none;stroke:#E74C3C;stroke-width:2.75;stroke-linecap:round;stroke-linejoin:round;stroke-miterlimit:10;}
	.st75{fill:none;stroke:#E74C3C;stroke-width:2.255;stroke-linecap:round;stroke-linejoin:round;stroke-miterlimit:10;}
	.st76{fill:none;stroke:#E74C3C;stroke-width:0.75;stroke-linecap:square;stroke-linejoin:round;stroke-miterlimit:10;}
	
		.st77{fill:none;stroke:#E74C3C;stroke-width:1.25;stroke-linecap:round;stroke-linejoin:round;stroke-miterlimit:10;stroke-dasharray:3,10;}
	.st78{fill:none;stroke:#E74C3C;stroke-width:1.25;stroke-linecap:round;stroke-linejoin:round;}
	.st79{fill:none;stroke:#E74C3C;stroke-width:1.25;stroke-linecap:round;stroke-linejoin:round;stroke-dasharray:3.1436,10.4788;}
	.st80{fill:none;stroke:#E74C3C;stroke-width:1.25;stroke-linecap:round;stroke-linejoin:round;stroke-dasharray:3.1232,10.4106;}
	.st81{fill:none;stroke:#E74C3C;stroke-width:1.25;stroke-linecap:round;stroke-linejoin:round;stroke-dasharray:3.1458,10.486;}
	.st82{fill:none;stroke:#E74C3C;stroke-width:1.25;stroke-linecap:round;stroke-linejoin:round;stroke-dasharray:2.9285,9.7616;}
	.st83{fill:none;stroke:#E74C3C;stroke-width:1.25;stroke-linecap:round;stroke-linejoin:round;stroke-dasharray:2.9765,9.9217;}
	.st84{fill:none;stroke:#E74C3C;stroke-width:1.25;stroke-linecap:round;stroke-linejoin:round;stroke-dasharray:3.0321,10.1071;}
	.st85{fill:none;stroke:#E74C3C;stroke-width:1.25;stroke-linecap:round;stroke-linejoin:round;stroke-dasharray:2.997,9.9902;}
	.st86{fill:none;stroke:#E74C3C;stroke-width:1.25;stroke-linecap:round;stroke-linejoin:round;stroke-dasharray:2.9501,9.8337;}
	.st87{fill:none;stroke:#E74C3C;stroke-width:1.25;stroke-linecap:round;stroke-linejoin:round;stroke-dasharray:2.8743,9.581;}
	.st88{fill:none;stroke:#E74C3C;stroke-width:1.25;stroke-linecap:round;stroke-linejoin:round;stroke-dasharray:3.2048,10.6826;}
	.st89{fill:none;stroke:#E74C3C;stroke-width:1.25;stroke-linecap:round;stroke-linejoin:round;stroke-dasharray:3.2133,10.711;}
	.st90{fill:none;stroke:#E74C3C;stroke-width:2.25;stroke-linecap:round;stroke-linejoin:round;}
	.st91{fill:none;stroke:#E74C3C;stroke-width:2.25;stroke-linecap:round;stroke-linejoin:round;stroke-dasharray:5.0029,7.0041;}
	.st92{fill:none;stroke:#E74C3C;stroke-width:2.25;stroke-linecap:round;stroke-linejoin:round;stroke-miterlimit:10;}
	.st93{fill:none;stroke:#E74C3C;stroke-width:3.5;stroke-linecap:round;stroke-linejoin:round;stroke-miterlimit:10;}
	.st94{fill:none;stroke:#E74C3C;stroke-width:3;stroke-linecap:round;stroke-linejoin:round;stroke-miterlimit:10;}
</style>
<g id="FILL-BACKGROUND">
	<rect x="0" class="st0" width="1000" height="625"/>
</g>
<g id="N-DIMENSIONS">
	<g>
		<g>
			<g id="POLYLINE_665_">
				<polyline class="st1" points="750.21,569.89 744.48,575.62 750.21,581.34 				"/>
			</g>
			<g id="POLYLINE_664_">
				<line class="st1" x1="744.48" y1="575.62" x2="759.73" y2="575.62"/>
			</g>
			<g id="POLYLINE_663_">
				<line class="st1" x1="759.73" y1="575.62" x2="769.44" y2="575.62"/>
			</g>
			<g id="POLYLINE_662_">
				<polyline class="st1" points="763.7,569.9 769.43,575.63 763.7,581.36 				"/>
			</g>
			<g id="MTEXT_9_">
				<g>
					<path class="st2" d="M596.88,581.21c-0.09-0.09-0.13-0.2-0.13-0.33v-2.92h-6.5c-0.13,0-0.24-0.04-0.33-0.13
						s-0.13-0.2-0.13-0.33v-0.74c0-0.19,0.07-0.39,0.22-0.6l6.02-8.48c0.07-0.11,0.17-0.19,0.3-0.25c0.13-0.06,0.28-0.09,0.44-0.09
						h1.36c0.15,0,0.26,0.04,0.34,0.12s0.12,0.19,0.12,0.34v8.48h1.82c0.13,0,0.24,0.04,0.33,0.13c0.09,0.09,0.13,0.2,0.13,0.33
						v0.76c0,0.13-0.04,0.24-0.13,0.33c-0.09,0.09-0.2,0.13-0.33,0.13h-1.82v2.92c0,0.13-0.04,0.24-0.13,0.33s-0.2,0.13-0.33,0.13
						h-0.92C597.08,581.34,596.97,581.3,596.88,581.21z M591.87,576.33h4.9v-6.96L591.87,576.33z"/>
					<path class="st2" d="M602.7,581.21c-0.09-0.09-0.13-0.2-0.13-0.33v-1.38c0-0.13,0.04-0.25,0.13-0.34
						c0.09-0.09,0.2-0.14,0.33-0.14h1.38c0.13,0,0.24,0.05,0.33,0.14c0.09,0.09,0.13,0.21,0.13,0.34v1.38
						c0,0.13-0.04,0.24-0.13,0.33c-0.09,0.09-0.2,0.13-0.33,0.13h-1.38C602.9,581.34,602.79,581.3,602.7,581.21z"/>
					<path class="st2" d="M607.32,581.21c-0.09-0.09-0.13-0.2-0.13-0.33v-0.6c0-0.31,0.17-0.6,0.5-0.88l4.36-4.34
						c0.99-0.84,1.67-1.53,2.04-2.06s0.56-1.1,0.56-1.7c0-0.79-0.22-1.4-0.66-1.85c-0.44-0.45-1.08-0.67-1.92-0.67
						c-0.8,0-1.43,0.23-1.9,0.7c-0.47,0.47-0.75,1.09-0.86,1.88c-0.03,0.15-0.09,0.26-0.2,0.34c-0.11,0.08-0.21,0.12-0.32,0.12
						h-0.96c-0.12,0-0.22-0.04-0.3-0.12s-0.12-0.17-0.12-0.28c0.03-0.71,0.22-1.39,0.57-2.05c0.35-0.66,0.88-1.2,1.57-1.62
						s1.53-0.63,2.52-0.63c1.49,0,2.62,0.39,3.37,1.17c0.75,0.78,1.13,1.77,1.13,2.97c0,0.84-0.2,1.6-0.61,2.27
						c-0.41,0.67-1.04,1.38-1.91,2.13l-3.94,4h6.3c0.15,0,0.26,0.04,0.34,0.12c0.08,0.08,0.12,0.19,0.12,0.34v0.76
						c0,0.13-0.04,0.24-0.13,0.33c-0.09,0.09-0.2,0.13-0.33,0.13h-8.76C607.52,581.34,607.41,581.3,607.32,581.21z"/>
					<path class="st2" d="M621.11,581c-0.73-0.36-1.29-0.83-1.68-1.41s-0.59-1.2-0.62-1.87v-0.04c0-0.11,0.04-0.19,0.12-0.26
						s0.17-0.1,0.28-0.1h0.98c0.28,0,0.46,0.15,0.54,0.44c0.2,0.72,0.57,1.26,1.11,1.61s1.16,0.53,1.87,0.53
						c0.91,0,1.66-0.28,2.26-0.83c0.6-0.55,0.9-1.32,0.9-2.29c0-0.89-0.3-1.6-0.9-2.13c-0.6-0.53-1.35-0.79-2.26-0.79
						c-0.48,0-0.87,0.06-1.16,0.18c-0.29,0.12-0.59,0.29-0.9,0.52c-0.17,0.13-0.32,0.23-0.43,0.29c-0.11,0.06-0.24,0.09-0.37,0.09
						h-0.96c-0.12,0-0.23-0.04-0.32-0.13c-0.09-0.09-0.13-0.19-0.12-0.31l0.62-6.66c0.04-0.33,0.21-0.5,0.5-0.5h6.92
						c0.15,0,0.26,0.04,0.34,0.12c0.08,0.08,0.12,0.19,0.12,0.34v0.74c0,0.13-0.04,0.24-0.13,0.32c-0.09,0.08-0.2,0.12-0.33,0.12
						h-5.76l-0.36,4.02c0.64-0.45,1.5-0.68,2.58-0.68c0.89,0,1.71,0.18,2.44,0.53c0.73,0.35,1.32,0.87,1.75,1.55
						c0.43,0.68,0.65,1.49,0.65,2.42c0,0.99-0.22,1.84-0.65,2.55c-0.43,0.71-1.03,1.25-1.8,1.62c-0.77,0.37-1.64,0.55-2.63,0.55
						C622.71,581.54,621.84,581.36,621.11,581z"/>
					<path class="st2" d="M630.94,570.83c-0.06-0.08-0.08-0.18-0.05-0.3l0.44-2.8c0.05-0.39,0.24-0.58,0.56-0.58h1.28
						c0.09,0,0.17,0.03,0.23,0.1c0.06,0.07,0.09,0.15,0.09,0.24c0,0.13-0.02,0.24-0.06,0.32l-1.04,2.7
						c-0.07,0.15-0.14,0.26-0.22,0.33c-0.08,0.07-0.2,0.11-0.36,0.11h-0.62C631.08,570.94,631,570.9,630.94,570.83z M634.08,570.83
						c-0.06-0.08-0.08-0.18-0.05-0.3l0.44-2.8c0.05-0.39,0.24-0.58,0.56-0.58h1.28c0.09,0,0.17,0.03,0.23,0.1
						c0.06,0.07,0.09,0.15,0.09,0.24c0,0.13-0.02,0.24-0.06,0.32l-1.04,2.7c-0.07,0.15-0.14,0.26-0.22,0.33s-0.2,0.11-0.36,0.11
						h-0.62C634.22,570.94,634.14,570.9,634.08,570.83z"/>
					<path class="st2" d="M643.95,585.38c-0.08-0.09-0.12-0.2-0.12-0.33v-21.16c0-0.13,0.04-0.24,0.12-0.33s0.19-0.13,0.32-0.13
						h0.74c0.13,0,0.24,0.04,0.33,0.13s0.13,0.2,0.13,0.33v21.16c0,0.13-0.04,0.24-0.13,0.33c-0.09,0.09-0.2,0.13-0.33,0.13h-0.74
						C644.14,585.5,644.03,585.46,643.95,585.38z"/>
					<path class="st2" d="M657.07,581.21c-0.08-0.09-0.12-0.2-0.12-0.33V569.6l-3.36,2.58c-0.09,0.08-0.19,0.12-0.3,0.12
						c-0.12,0-0.23-0.07-0.34-0.2l-0.48-0.62c-0.07-0.09-0.1-0.19-0.1-0.28c0-0.15,0.07-0.27,0.2-0.36l4.34-3.36
						c0.15-0.09,0.32-0.14,0.52-0.14h0.94c0.13,0,0.24,0.04,0.33,0.13s0.13,0.2,0.13,0.33v13.08c0,0.13-0.04,0.24-0.13,0.33
						s-0.2,0.13-0.33,0.13h-0.98C657.26,581.34,657.15,581.3,657.07,581.21z"/>
					<path class="st2" d="M662.92,580.04c-0.79-1.01-1.22-2.32-1.27-3.95l-0.02-1.72l0.02-1.78c0.04-1.61,0.46-2.92,1.27-3.93
						c0.81-1.01,2.06-1.51,3.77-1.51c1.72,0,2.98,0.5,3.79,1.51c0.81,1.01,1.23,2.32,1.27,3.93c0.01,0.37,0.02,0.97,0.02,1.78
						c0,0.79-0.01,1.36-0.02,1.72c-0.05,1.63-0.48,2.94-1.27,3.95c-0.79,1.01-2.06,1.51-3.79,1.51
						C664.97,581.54,663.71,581.04,662.92,580.04z M669.01,578.86c0.52-0.68,0.79-1.64,0.82-2.88c0.01-0.39,0.02-0.94,0.02-1.66
						c0-0.73-0.01-1.28-0.02-1.64c-0.03-1.23-0.3-2.18-0.83-2.87c-0.53-0.69-1.3-1.03-2.31-1.03c-1.01,0-1.78,0.34-2.3,1.03
						c-0.52,0.69-0.79,1.64-0.82,2.87l-0.02,1.64l0.02,1.66c0.03,1.24,0.3,2.2,0.82,2.88c0.52,0.68,1.29,1.02,2.3,1.02
						C667.72,579.88,668.49,579.54,669.01,578.86z"/>
					<path class="st2" d="M676.66,581.04c-0.79-0.34-1.41-0.83-1.85-1.47c-0.44-0.64-0.66-1.39-0.66-2.24c0-0.79,0.2-1.48,0.59-2.07
						s0.92-1.05,1.59-1.37c-0.53-0.31-0.95-0.71-1.24-1.21c-0.29-0.5-0.44-1.09-0.44-1.77c0-1.16,0.43-2.08,1.3-2.75
						c0.87-0.67,2.01-1.01,3.42-1.01s2.55,0.33,3.41,1c0.86,0.67,1.29,1.59,1.29,2.76c0,0.67-0.15,1.25-0.44,1.75
						c-0.29,0.5-0.7,0.91-1.22,1.23c0.67,0.32,1.2,0.78,1.59,1.37s0.59,1.29,0.59,2.09c0,0.85-0.22,1.6-0.66,2.23
						c-0.44,0.63-1.06,1.12-1.85,1.46c-0.79,0.34-1.7,0.51-2.71,0.51S677.45,581.38,676.66,581.04z M681.74,579.26
						c0.63-0.48,0.95-1.12,0.95-1.92s-0.32-1.44-0.95-1.92c-0.63-0.48-1.42-0.72-2.37-0.72c-0.96,0-1.76,0.24-2.39,0.72
						c-0.63,0.48-0.95,1.12-0.95,1.92s0.32,1.44,0.95,1.92c0.63,0.48,1.43,0.72,2.39,0.72
						C680.32,579.98,681.11,579.75,681.74,579.26z M681.43,572.54c0.56-0.4,0.84-0.93,0.84-1.6c0-0.68-0.28-1.22-0.83-1.63
						c-0.55-0.41-1.24-0.61-2.07-0.61c-0.84,0-1.53,0.2-2.08,0.61c-0.55,0.41-0.82,0.95-0.82,1.63c0,0.68,0.27,1.22,0.82,1.63
						c0.55,0.41,1.24,0.61,2.08,0.61C680.18,573.16,680.87,572.94,681.43,572.54z"/>
					<path class="st2" d="M692.26,581.21c-0.09-0.09-0.13-0.2-0.13-0.33v-9.48c0-0.13,0.04-0.24,0.13-0.33
						c0.09-0.09,0.2-0.13,0.33-0.13h0.84c0.13,0,0.24,0.04,0.32,0.13c0.08,0.09,0.12,0.2,0.12,0.33v0.68
						c0.72-0.89,1.69-1.34,2.92-1.34c1.47,0,2.51,0.61,3.12,1.84c0.32-0.56,0.78-1.01,1.37-1.34c0.59-0.33,1.26-0.5,1.99-0.5
						c1.09,0,1.99,0.37,2.68,1.12c0.69,0.75,1.04,1.83,1.04,3.24v5.78c0,0.13-0.04,0.24-0.13,0.33c-0.09,0.09-0.2,0.13-0.33,0.13
						h-0.86c-0.13,0-0.24-0.04-0.33-0.13s-0.13-0.2-0.13-0.33v-5.6c0-1.07-0.22-1.83-0.66-2.29c-0.44-0.46-1.02-0.69-1.74-0.69
						c-0.64,0-1.19,0.24-1.65,0.71c-0.46,0.47-0.69,1.23-0.69,2.27v5.6c0,0.13-0.04,0.24-0.13,0.33s-0.2,0.13-0.33,0.13h-0.88
						c-0.13,0-0.24-0.04-0.33-0.13s-0.13-0.2-0.13-0.33v-5.6c0-1.05-0.23-1.81-0.69-2.28s-1.03-0.7-1.71-0.7
						c-0.64,0-1.19,0.23-1.65,0.7s-0.69,1.22-0.69,2.26v5.62c0,0.13-0.04,0.24-0.13,0.33s-0.2,0.13-0.33,0.13h-0.88
						C692.46,581.34,692.35,581.3,692.26,581.21z"/>
					<path class="st2" d="M710.02,581.21c-0.09-0.09-0.13-0.2-0.13-0.33v-9.48c0-0.13,0.04-0.24,0.13-0.33
						c0.09-0.09,0.2-0.13,0.33-0.13h0.84c0.13,0,0.24,0.04,0.32,0.13c0.08,0.09,0.12,0.2,0.12,0.33v0.68
						c0.72-0.89,1.69-1.34,2.92-1.34c1.47,0,2.51,0.61,3.12,1.84c0.32-0.56,0.78-1.01,1.37-1.34c0.59-0.33,1.26-0.5,1.99-0.5
						c1.09,0,1.99,0.37,2.68,1.12c0.69,0.75,1.04,1.83,1.04,3.24v5.78c0,0.13-0.04,0.24-0.13,0.33c-0.09,0.09-0.2,0.13-0.33,0.13
						h-0.86c-0.13,0-0.24-0.04-0.33-0.13s-0.13-0.2-0.13-0.33v-5.6c0-1.07-0.22-1.83-0.66-2.29c-0.44-0.46-1.02-0.69-1.74-0.69
						c-0.64,0-1.19,0.24-1.65,0.71c-0.46,0.47-0.69,1.23-0.69,2.27v5.6c0,0.13-0.04,0.24-0.13,0.33s-0.2,0.13-0.33,0.13h-0.88
						c-0.13,0-0.24-0.04-0.33-0.13s-0.13-0.2-0.13-0.33v-5.6c0-1.05-0.23-1.81-0.69-2.28s-1.03-0.7-1.71-0.7
						c-0.64,0-1.19,0.23-1.65,0.7s-0.69,1.22-0.69,2.26v5.62c0,0.13-0.04,0.24-0.13,0.33s-0.2,0.13-0.33,0.13h-0.88
						C710.22,581.34,710.11,581.3,710.02,581.21z"/>
				</g>
			</g>
		</g>
		<g>
			<g id="POLYLINE_483_">
				<polyline class="st1" points="760.31,59.72 754.59,65.45 760.31,71.18 				"/>
			</g>
			<g id="POLYLINE_469_">
				<line class="st1" x1="754.59" y1="65.45" x2="768.57" y2="65.45"/>
			</g>
			<g id="POLYLINE_21_">
				<line class="st1" x1="854.41" y1="65.45" x2="870.17" y2="65.45"/>
			</g>
			<g id="POLYLINE_20_">
				<polyline class="st1" points="864.43,59.73 870.16,65.46 864.43,71.19 				"/>
			</g>
			<g id="MTEXT_5_">
				<g>
					<path class="st2" d="M797.48,49.01c-0.09-0.09-0.13-0.2-0.13-0.33v-0.6c0-0.31,0.17-0.6,0.5-0.88l4.36-4.34
						c0.99-0.84,1.67-1.53,2.04-2.06s0.56-1.1,0.56-1.7c0-0.79-0.22-1.4-0.66-1.85c-0.44-0.45-1.08-0.67-1.92-0.67
						c-0.8,0-1.43,0.23-1.9,0.7c-0.47,0.47-0.75,1.09-0.86,1.88c-0.03,0.15-0.09,0.26-0.2,0.34c-0.11,0.08-0.21,0.12-0.32,0.12
						h-0.96c-0.12,0-0.22-0.04-0.3-0.12s-0.12-0.17-0.12-0.28c0.03-0.71,0.22-1.39,0.57-2.05s0.88-1.2,1.57-1.62
						s1.53-0.63,2.52-0.63c1.49,0,2.62,0.39,3.37,1.17c0.75,0.78,1.13,1.77,1.13,2.97c0,0.84-0.2,1.6-0.61,2.27
						c-0.41,0.67-1.04,1.38-1.91,2.13l-3.94,4h6.3c0.15,0,0.26,0.04,0.34,0.12c0.08,0.08,0.12,0.19,0.12,0.34v0.76
						c0,0.13-0.04,0.24-0.13,0.33s-0.2,0.13-0.33,0.13h-8.76C797.68,49.14,797.56,49.09,797.48,49.01z"/>
					<path class="st2" d="M810.6,47.83c-0.79-1.01-1.22-2.32-1.27-3.95l-0.02-1.72l0.02-1.78c0.04-1.61,0.46-2.92,1.27-3.93
						c0.81-1.01,2.06-1.51,3.77-1.51c1.72,0,2.98,0.5,3.79,1.51c0.81,1.01,1.23,2.32,1.27,3.93c0.01,0.37,0.02,0.97,0.02,1.78
						c0,0.79-0.01,1.36-0.02,1.72c-0.05,1.63-0.48,2.94-1.27,3.95s-2.06,1.51-3.79,1.51C812.65,49.34,811.39,48.83,810.6,47.83z
						 M816.69,46.66c0.52-0.68,0.79-1.64,0.82-2.88c0.01-0.39,0.02-0.94,0.02-1.66c0-0.73-0.01-1.28-0.02-1.64
						c-0.03-1.23-0.3-2.18-0.83-2.87c-0.53-0.69-1.3-1.03-2.31-1.03c-1.01,0-1.78,0.34-2.3,1.03c-0.52,0.69-0.79,1.64-0.82,2.87
						l-0.02,1.64l0.02,1.66c0.03,1.24,0.3,2.2,0.82,2.88c0.52,0.68,1.29,1.02,2.3,1.02C815.39,47.68,816.17,47.34,816.69,46.66z"/>
					<path class="st2" d="M821.92,38.62c-0.06-0.08-0.08-0.18-0.05-0.3l0.44-2.8c0.05-0.39,0.24-0.58,0.56-0.58h1.28
						c0.09,0,0.17,0.03,0.23,0.1c0.06,0.07,0.09,0.15,0.09,0.24c0,0.13-0.02,0.24-0.06,0.32l-1.04,2.7
						c-0.07,0.15-0.14,0.26-0.22,0.33s-0.2,0.11-0.36,0.11h-0.62C822.06,38.74,821.98,38.7,821.92,38.62z M825.06,38.62
						c-0.06-0.08-0.08-0.18-0.05-0.3l0.44-2.8c0.05-0.39,0.24-0.58,0.56-0.58h1.28c0.09,0,0.17,0.03,0.23,0.1
						c0.06,0.07,0.09,0.15,0.09,0.24c0,0.13-0.02,0.24-0.06,0.32l-1.04,2.7c-0.07,0.15-0.14,0.26-0.22,0.33s-0.2,0.11-0.36,0.11
						h-0.62C825.2,38.74,825.12,38.7,825.06,38.62z"/>
					<path class="st2" d="M777.93,70.8c-0.73-0.36-1.29-0.83-1.68-1.41s-0.59-1.2-0.62-1.87v-0.04c0-0.11,0.04-0.19,0.12-0.26
						s0.17-0.1,0.28-0.1h0.98c0.28,0,0.46,0.15,0.54,0.44c0.2,0.72,0.57,1.26,1.11,1.61c0.54,0.35,1.16,0.53,1.87,0.53
						c0.91,0,1.66-0.28,2.26-0.83c0.6-0.55,0.9-1.32,0.9-2.29c0-0.89-0.3-1.6-0.9-2.13c-0.6-0.53-1.35-0.79-2.26-0.79
						c-0.48,0-0.87,0.06-1.16,0.18c-0.29,0.12-0.59,0.29-0.9,0.52c-0.17,0.13-0.32,0.23-0.43,0.29c-0.11,0.06-0.24,0.09-0.37,0.09
						h-0.96c-0.12,0-0.23-0.04-0.32-0.13c-0.09-0.09-0.13-0.19-0.12-0.31l0.62-6.66c0.04-0.33,0.21-0.5,0.5-0.5h6.92
						c0.15,0,0.26,0.04,0.34,0.12s0.12,0.19,0.12,0.34v0.74c0,0.13-0.04,0.24-0.13,0.32c-0.09,0.08-0.2,0.12-0.33,0.12h-5.76
						l-0.36,4.02c0.64-0.45,1.5-0.68,2.58-0.68c0.89,0,1.71,0.18,2.44,0.53c0.73,0.35,1.32,0.87,1.75,1.55
						c0.43,0.68,0.65,1.49,0.65,2.42c0,0.99-0.22,1.84-0.65,2.55c-0.43,0.71-1.03,1.25-1.8,1.62c-0.77,0.37-1.64,0.55-2.63,0.55
						C779.53,71.34,778.66,71.16,777.93,70.8z"/>
					<path class="st2" d="M789.1,69.83c-0.79-1.01-1.22-2.32-1.27-3.95l-0.02-1.72l0.02-1.78c0.04-1.61,0.46-2.92,1.27-3.93
						c0.81-1.01,2.06-1.51,3.77-1.51c1.72,0,2.98,0.5,3.79,1.51c0.81,1.01,1.23,2.32,1.27,3.93c0.01,0.37,0.02,0.97,0.02,1.78
						c0,0.79-0.01,1.36-0.02,1.72c-0.05,1.63-0.48,2.94-1.27,3.95s-2.06,1.51-3.79,1.51C791.15,71.34,789.89,70.83,789.1,69.83z
						 M795.19,68.66c0.52-0.68,0.79-1.64,0.82-2.88c0.01-0.39,0.02-0.94,0.02-1.66c0-0.73-0.01-1.28-0.02-1.64
						c-0.03-1.23-0.3-2.18-0.83-2.87c-0.53-0.69-1.3-1.03-2.31-1.03c-1.01,0-1.78,0.34-2.3,1.03c-0.52,0.69-0.79,1.64-0.82,2.87
						l-0.02,1.64l0.02,1.66c0.03,1.24,0.3,2.2,0.82,2.88c0.52,0.68,1.29,1.02,2.3,1.02C793.89,69.68,794.67,69.34,795.19,68.66z"/>
					<path class="st2" d="M800.38,71.01c-0.09-0.09-0.13-0.2-0.13-0.33V69.3c0-0.13,0.04-0.25,0.13-0.34
						c0.09-0.09,0.2-0.14,0.33-0.14h1.38c0.13,0,0.24,0.05,0.33,0.14c0.09,0.09,0.13,0.21,0.13,0.34v1.38
						c0,0.13-0.04,0.24-0.13,0.33s-0.2,0.13-0.33,0.13h-1.38C800.57,71.14,800.46,71.09,800.38,71.01z"/>
					<path class="st2" d="M807.32,70.83c-0.79-0.34-1.41-0.83-1.85-1.47c-0.44-0.64-0.66-1.39-0.66-2.24c0-0.79,0.2-1.48,0.59-2.07
						c0.39-0.59,0.92-1.05,1.59-1.37c-0.53-0.31-0.95-0.71-1.24-1.21c-0.29-0.5-0.44-1.09-0.44-1.77c0-1.16,0.43-2.08,1.3-2.75
						c0.87-0.67,2.01-1.01,3.42-1.01c1.41,0,2.55,0.33,3.41,1c0.86,0.67,1.29,1.59,1.29,2.76c0,0.67-0.15,1.25-0.44,1.75
						s-0.7,0.91-1.22,1.23c0.67,0.32,1.2,0.78,1.59,1.37c0.39,0.59,0.59,1.29,0.59,2.09c0,0.85-0.22,1.6-0.66,2.23
						c-0.44,0.63-1.06,1.12-1.85,1.46c-0.79,0.34-1.7,0.51-2.71,0.51S808.11,71.17,807.32,70.83z M812.4,69.06
						c0.63-0.48,0.95-1.12,0.95-1.92s-0.32-1.44-0.95-1.92c-0.63-0.48-1.42-0.72-2.37-0.72c-0.96,0-1.76,0.24-2.39,0.72
						c-0.63,0.48-0.95,1.12-0.95,1.92s0.32,1.44,0.95,1.92c0.63,0.48,1.43,0.72,2.39,0.72C810.97,69.78,811.77,69.54,812.4,69.06z
						 M812.09,62.34c0.56-0.4,0.84-0.93,0.84-1.6c0-0.68-0.28-1.22-0.83-1.63c-0.55-0.41-1.24-0.61-2.07-0.61
						c-0.84,0-1.53,0.2-2.08,0.61c-0.55,0.41-0.82,0.95-0.82,1.63c0,0.68,0.27,1.22,0.82,1.63c0.55,0.41,1.24,0.61,2.08,0.61
						C810.84,62.95,811.53,62.74,812.09,62.34z"/>
					<path class="st2" d="M823.61,70.13c-0.8-0.81-1.22-1.94-1.26-3.39l-0.02-0.8l0.02-0.8c0.04-1.45,0.46-2.58,1.26-3.39
						c0.8-0.81,1.91-1.21,3.34-1.21c0.96,0,1.77,0.17,2.43,0.51s1.15,0.76,1.48,1.27c0.33,0.51,0.5,1.01,0.53,1.52
						c0.01,0.12-0.03,0.23-0.13,0.32c-0.1,0.09-0.21,0.14-0.33,0.14h-0.88c-0.13,0-0.23-0.03-0.3-0.09
						c-0.07-0.06-0.13-0.17-0.2-0.33c-0.24-0.65-0.57-1.12-0.99-1.39c-0.42-0.27-0.95-0.41-1.59-0.41c-0.84,0-1.51,0.26-2,0.78
						c-0.49,0.52-0.76,1.31-0.8,2.38l-0.02,0.7l0.02,0.7c0.04,1.07,0.31,1.86,0.8,2.38c0.49,0.52,1.16,0.78,2,0.78
						c0.65,0,1.19-0.14,1.6-0.41s0.74-0.74,0.98-1.39c0.07-0.16,0.13-0.27,0.2-0.33c0.07-0.06,0.17-0.09,0.3-0.09h0.88
						c0.12,0,0.23,0.05,0.33,0.14c0.1,0.09,0.14,0.2,0.13,0.32c-0.03,0.49-0.2,0.99-0.53,1.5c-0.33,0.51-0.82,0.93-1.48,1.28
						s-1.47,0.52-2.43,0.52C825.52,71.34,824.41,70.93,823.61,70.13z"/>
					<path class="st2" d="M833.92,71.01c-0.09-0.09-0.13-0.2-0.13-0.33V61.2c0-0.13,0.04-0.24,0.13-0.33
						c0.09-0.09,0.2-0.13,0.33-0.13h0.84c0.13,0,0.24,0.04,0.32,0.13c0.08,0.09,0.12,0.2,0.12,0.33v0.68
						c0.72-0.89,1.69-1.34,2.92-1.34c1.47,0,2.51,0.61,3.12,1.84c0.32-0.56,0.78-1.01,1.37-1.34c0.59-0.33,1.26-0.5,1.99-0.5
						c1.09,0,1.99,0.37,2.68,1.12c0.69,0.75,1.04,1.83,1.04,3.24v5.78c0,0.13-0.04,0.24-0.13,0.33s-0.2,0.13-0.33,0.13h-0.86
						c-0.13,0-0.24-0.04-0.33-0.13c-0.09-0.09-0.13-0.2-0.13-0.33v-5.6c0-1.07-0.22-1.83-0.66-2.29c-0.44-0.46-1.02-0.69-1.74-0.69
						c-0.64,0-1.19,0.24-1.65,0.71c-0.46,0.47-0.69,1.23-0.69,2.27v5.6c0,0.13-0.04,0.24-0.13,0.33c-0.09,0.09-0.2,0.13-0.33,0.13
						h-0.88c-0.13,0-0.24-0.04-0.33-0.13c-0.09-0.09-0.13-0.2-0.13-0.33v-5.6c0-1.05-0.23-1.81-0.69-2.28
						c-0.46-0.47-1.03-0.7-1.71-0.7c-0.64,0-1.19,0.23-1.65,0.7c-0.46,0.47-0.69,1.22-0.69,2.26v5.62c0,0.13-0.04,0.24-0.13,0.33
						c-0.09,0.09-0.2,0.13-0.33,0.13h-0.88C834.11,71.14,834,71.09,833.92,71.01z"/>
				</g>
			</g>
		</g>
		<g>
			<g id="MTEXT_8_" class="st3">
				<g>
					<path class="st2" d="M885.5,119.5c-0.08-0.09-0.12-0.2-0.12-0.33v-11.28l-3.36,2.58c-0.09,0.08-0.19,0.12-0.3,0.12
						c-0.12,0-0.23-0.07-0.34-0.2l-0.48-0.62c-0.07-0.09-0.1-0.19-0.1-0.28c0-0.15,0.07-0.27,0.2-0.36l4.34-3.36
						c0.15-0.09,0.32-0.14,0.52-0.14h0.94c0.13,0,0.24,0.04,0.33,0.13s0.13,0.2,0.13,0.33v13.08c0,0.13-0.04,0.24-0.13,0.33
						s-0.2,0.13-0.33,0.13h-0.98C885.69,119.62,885.58,119.58,885.5,119.5z"/>
					<path class="st2" d="M896.51,119.5c-0.09-0.09-0.13-0.2-0.13-0.33v-2.92h-6.5c-0.13,0-0.24-0.04-0.33-0.13s-0.13-0.2-0.13-0.33
						v-0.74c0-0.19,0.07-0.39,0.22-0.6l6.02-8.48c0.07-0.11,0.17-0.19,0.3-0.25c0.13-0.06,0.28-0.09,0.44-0.09h1.36
						c0.15,0,0.26,0.04,0.34,0.12s0.12,0.19,0.12,0.34v8.48h1.82c0.13,0,0.24,0.04,0.33,0.13c0.09,0.09,0.13,0.2,0.13,0.33v0.76
						c0,0.13-0.04,0.24-0.13,0.33c-0.09,0.09-0.2,0.13-0.33,0.13h-1.82v2.92c0,0.13-0.04,0.24-0.13,0.33s-0.2,0.13-0.33,0.13h-0.92
						C896.71,119.62,896.6,119.58,896.51,119.5z M891.5,114.61h4.9v-6.96L891.5,114.61z"/>
					<path class="st2" d="M902.37,109.11c-0.06-0.08-0.08-0.18-0.05-0.3l0.44-2.8c0.05-0.39,0.24-0.58,0.56-0.58h1.28
						c0.09,0,0.17,0.03,0.23,0.1c0.06,0.07,0.09,0.15,0.09,0.24c0,0.13-0.02,0.24-0.06,0.32l-1.04,2.7
						c-0.07,0.15-0.14,0.26-0.22,0.33c-0.08,0.07-0.2,0.11-0.36,0.11h-0.62C902.51,109.22,902.43,109.18,902.37,109.11z
						 M905.51,109.11c-0.06-0.08-0.08-0.18-0.05-0.3l0.44-2.8c0.05-0.39,0.24-0.58,0.56-0.58h1.28c0.09,0,0.17,0.03,0.23,0.1
						c0.06,0.07,0.09,0.15,0.09,0.24c0,0.13-0.02,0.24-0.06,0.32l-1.04,2.7c-0.07,0.15-0.14,0.26-0.22,0.33s-0.2,0.11-0.36,0.11
						h-0.62C905.65,109.22,905.57,109.18,905.51,109.11z"/>
					<path class="st2" d="M883.52,139.12c-0.76-0.34-1.34-0.78-1.73-1.33c-0.39-0.55-0.6-1.11-0.63-1.7c0-0.12,0.04-0.22,0.12-0.29
						c0.08-0.07,0.18-0.11,0.3-0.11h0.9c0.15,0,0.27,0.03,0.36,0.09c0.09,0.06,0.17,0.18,0.22,0.35c0.17,0.68,0.55,1.16,1.13,1.44
						c0.58,0.28,1.26,0.42,2.05,0.42c0.96,0,1.72-0.23,2.29-0.69c0.57-0.46,0.85-1.12,0.85-1.97c0-1.63-0.99-2.44-2.98-2.44h-1.88
						c-0.13,0-0.24-0.04-0.33-0.13s-0.13-0.2-0.13-0.33v-0.52c0-0.2,0.07-0.37,0.22-0.52l3.9-4.32h-5.92
						c-0.13,0-0.24-0.04-0.33-0.12c-0.09-0.08-0.13-0.19-0.13-0.32v-0.72c0-0.15,0.04-0.26,0.13-0.35s0.2-0.13,0.33-0.13h7.92
						c0.15,0,0.26,0.04,0.35,0.13c0.09,0.09,0.13,0.2,0.13,0.35v0.66c0,0.15-0.07,0.3-0.2,0.46l-3.9,4.38h0.32
						c1.36,0.04,2.44,0.39,3.23,1.06c0.79,0.67,1.19,1.64,1.19,2.92c0,0.88-0.22,1.64-0.65,2.27c-0.43,0.63-1.04,1.12-1.81,1.46
						c-0.77,0.34-1.65,0.51-2.62,0.51C885.18,139.62,884.28,139.46,883.52,139.12z"/>
					<path class="st2" d="M895.48,139.08c-0.73-0.36-1.29-0.83-1.68-1.41s-0.59-1.2-0.62-1.87v-0.04c0-0.11,0.04-0.19,0.12-0.26
						s0.17-0.1,0.28-0.1h0.98c0.28,0,0.46,0.15,0.54,0.44c0.2,0.72,0.57,1.26,1.11,1.61s1.16,0.53,1.87,0.53
						c0.91,0,1.66-0.28,2.26-0.83c0.6-0.55,0.9-1.32,0.9-2.29c0-0.89-0.3-1.6-0.9-2.13c-0.6-0.53-1.35-0.79-2.26-0.79
						c-0.48,0-0.87,0.06-1.16,0.18c-0.29,0.12-0.59,0.29-0.9,0.52c-0.17,0.13-0.32,0.23-0.43,0.29c-0.11,0.06-0.24,0.09-0.37,0.09
						h-0.96c-0.12,0-0.23-0.04-0.32-0.13c-0.09-0.09-0.13-0.19-0.12-0.31l0.62-6.66c0.04-0.33,0.21-0.5,0.5-0.5h6.92
						c0.15,0,0.26,0.04,0.34,0.12c0.08,0.08,0.12,0.19,0.12,0.34v0.74c0,0.13-0.04,0.24-0.13,0.32c-0.09,0.08-0.2,0.12-0.33,0.12
						h-5.76l-0.36,4.02c0.64-0.45,1.5-0.68,2.58-0.68c0.89,0,1.71,0.18,2.44,0.53c0.73,0.35,1.32,0.87,1.75,1.55
						c0.43,0.68,0.65,1.49,0.65,2.42c0,0.99-0.22,1.84-0.65,2.55c-0.43,0.71-1.03,1.25-1.8,1.62c-0.77,0.37-1.64,0.55-2.63,0.55
						C897.08,139.62,896.21,139.44,895.48,139.08z"/>
					<path class="st2" d="M905.41,139.29c-0.09-0.09-0.13-0.2-0.13-0.33v-1.38c0-0.13,0.04-0.25,0.13-0.34
						c0.09-0.09,0.2-0.14,0.33-0.14h1.38c0.13,0,0.24,0.05,0.33,0.14c0.09,0.09,0.13,0.21,0.13,0.34v1.38
						c0,0.13-0.04,0.24-0.13,0.33c-0.09,0.09-0.2,0.13-0.33,0.13h-1.38C905.61,139.42,905.5,139.38,905.41,139.29z"/>
					<path class="st2" d="M912.05,138.97c-0.78-0.43-1.37-1.02-1.78-1.75s-0.61-1.53-0.61-2.4c0-1.15,0.46-2.37,1.38-3.68l3.82-5.32
						c0.01-0.01,0.05-0.06,0.11-0.14s0.14-0.14,0.23-0.19c0.09-0.05,0.2-0.07,0.32-0.07h0.98c0.12,0,0.22,0.04,0.29,0.13
						c0.07,0.09,0.11,0.19,0.11,0.31c0,0.07-0.03,0.15-0.1,0.26l-2.92,4.08c0.35-0.08,0.73-0.12,1.16-0.12
						c0.97,0,1.83,0.22,2.57,0.65c0.74,0.43,1.31,1.01,1.72,1.72c0.41,0.71,0.61,1.5,0.61,2.35c0,0.85-0.2,1.65-0.61,2.39
						c-0.41,0.74-1,1.33-1.77,1.77s-1.69,0.66-2.74,0.66C913.75,139.62,912.83,139.41,912.05,138.97z M916.42,137.6
						c0.49-0.24,0.89-0.6,1.18-1.07c0.29-0.47,0.44-1.04,0.44-1.71c0-0.65-0.15-1.22-0.45-1.69c-0.3-0.47-0.7-0.83-1.19-1.08
						c-0.49-0.25-1.03-0.37-1.6-0.37s-1.11,0.12-1.6,0.37c-0.49,0.25-0.89,0.61-1.18,1.08c-0.29,0.47-0.44,1.04-0.44,1.69
						c0,0.67,0.15,1.24,0.44,1.71c0.29,0.47,0.69,0.83,1.18,1.07c0.49,0.24,1.03,0.36,1.6,0.36
						C915.39,137.96,915.93,137.84,916.42,137.6z"/>
					<path class="st2" d="M927.92,138.42c-0.8-0.81-1.22-1.94-1.26-3.39l-0.02-0.8l0.02-0.8c0.04-1.45,0.46-2.58,1.26-3.39
						c0.8-0.81,1.91-1.21,3.34-1.21c0.96,0,1.77,0.17,2.43,0.51s1.15,0.76,1.48,1.27c0.33,0.51,0.5,1.01,0.53,1.52
						c0.01,0.12-0.03,0.23-0.13,0.32c-0.1,0.09-0.21,0.14-0.33,0.14h-0.88c-0.13,0-0.23-0.03-0.3-0.09
						c-0.07-0.06-0.13-0.17-0.2-0.33c-0.24-0.65-0.57-1.12-0.99-1.39c-0.42-0.27-0.95-0.41-1.59-0.41c-0.84,0-1.51,0.26-2,0.78
						c-0.49,0.52-0.76,1.31-0.8,2.38l-0.02,0.7l0.02,0.7c0.04,1.07,0.31,1.86,0.8,2.38c0.49,0.52,1.16,0.78,2,0.78
						c0.65,0,1.19-0.14,1.6-0.41c0.41-0.27,0.74-0.74,0.98-1.39c0.07-0.16,0.13-0.27,0.2-0.33c0.07-0.06,0.17-0.09,0.3-0.09h0.88
						c0.12,0,0.23,0.05,0.33,0.14c0.1,0.09,0.14,0.2,0.13,0.32c-0.03,0.49-0.2,0.99-0.53,1.5c-0.33,0.51-0.82,0.93-1.48,1.28
						s-1.47,0.52-2.43,0.52C929.83,139.62,928.72,139.22,927.92,138.42z"/>
					<path class="st2" d="M938.23,139.29c-0.09-0.09-0.13-0.2-0.13-0.33v-9.48c0-0.13,0.04-0.24,0.13-0.33
						c0.09-0.09,0.2-0.13,0.33-0.13h0.84c0.13,0,0.24,0.04,0.32,0.13c0.08,0.09,0.12,0.2,0.12,0.33v0.68
						c0.72-0.89,1.69-1.34,2.92-1.34c1.47,0,2.51,0.61,3.12,1.84c0.32-0.56,0.78-1.01,1.37-1.34c0.59-0.33,1.26-0.5,1.99-0.5
						c1.09,0,1.99,0.37,2.68,1.12c0.69,0.75,1.04,1.83,1.04,3.24v5.78c0,0.13-0.04,0.24-0.13,0.33c-0.09,0.09-0.2,0.13-0.33,0.13
						h-0.86c-0.13,0-0.24-0.04-0.33-0.13s-0.13-0.2-0.13-0.33v-5.6c0-1.07-0.22-1.83-0.66-2.29c-0.44-0.46-1.02-0.69-1.74-0.69
						c-0.64,0-1.19,0.24-1.65,0.71c-0.46,0.47-0.69,1.23-0.69,2.27v5.6c0,0.13-0.04,0.24-0.13,0.33s-0.2,0.13-0.33,0.13h-0.88
						c-0.13,0-0.24-0.04-0.33-0.13s-0.13-0.2-0.13-0.33v-5.6c0-1.05-0.23-1.81-0.69-2.28s-1.03-0.7-1.71-0.7
						c-0.64,0-1.19,0.23-1.65,0.7s-0.69,1.22-0.69,2.26v5.62c0,0.13-0.04,0.24-0.13,0.33s-0.2,0.13-0.33,0.13h-0.88
						C938.43,139.42,938.32,139.38,938.23,139.29z"/>
				</g>
			</g>
			<polyline class="st1" points="883.59,158.81 889.31,164.54 895.04,158.81 			"/>
			<line class="st1" x1="889.31" y1="98.7" x2="889.31" y2="86.03"/>
			<line class="st1" x1="889.31" y1="164.25" x2="889.31" y2="147.89"/>
			<polyline class="st1" points="883.6,91.77 889.32,86.05 895.05,91.77 			"/>
		</g>
		<g>
			<g id="MTEXT_6_" class="st3">
				<g>
					<path class="st2" d="M815.2,547.5c-0.09-0.09-0.13-0.2-0.13-0.33v-2.92h-6.5c-0.13,0-0.24-0.04-0.33-0.13s-0.13-0.2-0.13-0.33
						v-0.74c0-0.19,0.07-0.39,0.22-0.6l6.02-8.48c0.07-0.11,0.17-0.19,0.3-0.25c0.13-0.06,0.28-0.09,0.44-0.09h1.36
						c0.15,0,0.26,0.04,0.34,0.12s0.12,0.19,0.12,0.34v8.48h1.82c0.13,0,0.24,0.04,0.33,0.13c0.09,0.09,0.13,0.2,0.13,0.33v0.76
						c0,0.13-0.04,0.24-0.13,0.33c-0.09,0.09-0.2,0.13-0.33,0.13h-1.82v2.92c0,0.13-0.04,0.24-0.13,0.33s-0.2,0.13-0.33,0.13h-0.92
						C815.39,547.62,815.28,547.58,815.2,547.5z M810.19,542.61h4.9v-6.96L810.19,542.61z"/>
					<path class="st2" d="M821.06,537.11c-0.06-0.08-0.08-0.18-0.05-0.3l0.44-2.8c0.05-0.39,0.24-0.58,0.56-0.58h1.28
						c0.09,0,0.17,0.03,0.23,0.1c0.06,0.07,0.09,0.15,0.09,0.24c0,0.13-0.02,0.24-0.06,0.32l-1.04,2.7
						c-0.07,0.15-0.14,0.26-0.22,0.33c-0.08,0.07-0.2,0.11-0.36,0.11h-0.62C821.2,537.22,821.12,537.18,821.06,537.11z
						 M824.2,537.11c-0.06-0.08-0.08-0.18-0.05-0.3l0.44-2.8c0.05-0.39,0.24-0.58,0.56-0.58h1.28c0.09,0,0.17,0.03,0.23,0.1
						c0.06,0.07,0.09,0.15,0.09,0.24c0,0.13-0.02,0.24-0.06,0.32l-1.04,2.7c-0.07,0.15-0.14,0.26-0.22,0.33s-0.2,0.11-0.36,0.11
						h-0.62C824.34,537.22,824.26,537.18,824.2,537.11z"/>
					<path class="st2" d="M827.5,542.3c-0.09-0.08-0.13-0.19-0.13-0.32v-0.72c0-0.13,0.04-0.24,0.13-0.33
						c0.09-0.09,0.2-0.13,0.33-0.13h6c0.13,0,0.24,0.04,0.33,0.13c0.09,0.09,0.13,0.2,0.13,0.33v0.72c0,0.13-0.04,0.24-0.13,0.32
						s-0.2,0.12-0.33,0.12h-6C827.69,542.42,827.58,542.38,827.5,542.3z"/>
					<path class="st2" d="M839.04,547.17c-0.78-0.43-1.37-1.02-1.78-1.75s-0.61-1.53-0.61-2.4c0-1.15,0.46-2.37,1.38-3.68l3.82-5.32
						c0.01-0.01,0.05-0.06,0.11-0.14s0.14-0.14,0.23-0.19c0.09-0.05,0.2-0.07,0.32-0.07h0.98c0.12,0,0.22,0.04,0.29,0.13
						c0.07,0.09,0.11,0.19,0.11,0.31c0,0.07-0.03,0.15-0.1,0.26l-2.92,4.08c0.35-0.08,0.73-0.12,1.16-0.12
						c0.97,0,1.83,0.22,2.57,0.65c0.74,0.43,1.31,1.01,1.72,1.72c0.41,0.71,0.61,1.5,0.61,2.35c0,0.85-0.2,1.65-0.61,2.39
						c-0.41,0.74-1,1.33-1.77,1.77s-1.69,0.66-2.74,0.66C840.74,547.83,839.82,547.61,839.04,547.17z M843.41,545.8
						c0.49-0.24,0.89-0.6,1.18-1.07c0.29-0.47,0.44-1.04,0.44-1.71c0-0.65-0.15-1.22-0.45-1.69c-0.3-0.47-0.7-0.83-1.19-1.08
						c-0.49-0.25-1.03-0.37-1.6-0.37s-1.11,0.12-1.6,0.37c-0.49,0.25-0.89,0.61-1.18,1.08c-0.29,0.47-0.44,1.04-0.44,1.69
						c0,0.67,0.15,1.24,0.44,1.71c0.29,0.47,0.69,0.83,1.18,1.07c0.49,0.24,1.03,0.36,1.6,0.36
						C842.37,546.17,842.91,546.04,843.41,545.8z"/>
					<path class="st2" d="M848.88,537.11c-0.06-0.08-0.08-0.18-0.05-0.3l0.44-2.8c0.05-0.39,0.24-0.58,0.56-0.58h1.28
						c0.09,0,0.17,0.03,0.23,0.1c0.06,0.07,0.09,0.15,0.09,0.24c0,0.13-0.02,0.24-0.06,0.32l-1.04,2.7
						c-0.07,0.15-0.14,0.26-0.22,0.33c-0.08,0.07-0.2,0.11-0.36,0.11h-0.62C849.02,537.22,848.94,537.18,848.88,537.11z
						 M852.02,537.11c-0.06-0.08-0.08-0.18-0.05-0.3l0.44-2.8c0.05-0.39,0.24-0.58,0.56-0.58h1.28c0.09,0,0.17,0.03,0.23,0.1
						c0.06,0.07,0.09,0.15,0.09,0.24c0,0.13-0.02,0.24-0.06,0.32l-1.04,2.7c-0.07,0.15-0.14,0.26-0.22,0.33s-0.2,0.11-0.36,0.11
						h-0.62C852.16,537.22,852.08,537.18,852.02,537.11z"/>
					<path class="st2" d="M812.69,567.29c-0.08-0.09-0.12-0.2-0.12-0.33v-11.28l-3.36,2.58c-0.09,0.08-0.19,0.12-0.3,0.12
						c-0.12,0-0.23-0.07-0.34-0.2l-0.48-0.62c-0.07-0.09-0.1-0.19-0.1-0.28c0-0.15,0.07-0.27,0.2-0.36l4.34-3.36
						c0.15-0.09,0.32-0.14,0.52-0.14h0.94c0.13,0,0.24,0.04,0.33,0.13s0.13,0.2,0.13,0.33v13.08c0,0.13-0.04,0.24-0.13,0.33
						s-0.2,0.13-0.33,0.13h-0.98C812.87,567.42,812.77,567.38,812.69,567.29z"/>
					<path class="st2" d="M818.54,566.12c-0.79-1.01-1.22-2.32-1.27-3.95l-0.02-1.72l0.02-1.78c0.04-1.61,0.46-2.92,1.27-3.93
						c0.81-1.01,2.06-1.51,3.77-1.51c1.72,0,2.98,0.5,3.79,1.51c0.81,1.01,1.23,2.32,1.27,3.93c0.01,0.37,0.02,0.97,0.02,1.78
						c0,0.79-0.01,1.36-0.02,1.72c-0.05,1.63-0.48,2.94-1.27,3.95c-0.79,1.01-2.06,1.51-3.79,1.51
						C820.59,567.62,819.33,567.12,818.54,566.12z M824.63,564.94c0.52-0.68,0.79-1.64,0.82-2.88c0.01-0.39,0.02-0.94,0.02-1.66
						c0-0.73-0.01-1.28-0.02-1.64c-0.03-1.23-0.3-2.18-0.83-2.87c-0.53-0.69-1.3-1.03-2.31-1.03c-1.01,0-1.78,0.34-2.3,1.03
						c-0.52,0.69-0.79,1.64-0.82,2.87l-0.02,1.64l0.02,1.66c0.03,1.24,0.3,2.2,0.82,2.88c0.52,0.68,1.29,1.02,2.3,1.02
						C823.33,565.96,824.11,565.62,824.63,564.94z"/>
					<path class="st2" d="M833.85,567.29c-0.08-0.09-0.12-0.2-0.12-0.33v-11.28l-3.36,2.58c-0.09,0.08-0.19,0.12-0.3,0.12
						c-0.12,0-0.23-0.07-0.34-0.2l-0.48-0.62c-0.07-0.09-0.1-0.19-0.1-0.28c0-0.15,0.07-0.27,0.2-0.36l4.34-3.36
						c0.15-0.09,0.32-0.14,0.52-0.14h0.94c0.13,0,0.24,0.04,0.33,0.13s0.13,0.2,0.13,0.33v13.08c0,0.13-0.04,0.24-0.13,0.33
						s-0.2,0.13-0.33,0.13h-0.98C834.03,567.42,833.93,567.38,833.85,567.29z"/>
					<path class="st2" d="M838.64,567.29c-0.09-0.09-0.13-0.2-0.13-0.33v-1.38c0-0.13,0.04-0.25,0.13-0.34
						c0.09-0.09,0.2-0.14,0.33-0.14h1.38c0.13,0,0.24,0.05,0.33,0.14c0.09,0.09,0.13,0.21,0.13,0.34v1.38
						c0,0.13-0.04,0.24-0.13,0.33c-0.09,0.09-0.2,0.13-0.33,0.13h-1.38C838.83,567.42,838.72,567.38,838.64,567.29z"/>
					<path class="st2" d="M845.28,566.97c-0.78-0.43-1.37-1.02-1.78-1.75s-0.61-1.53-0.61-2.4c0-1.15,0.46-2.37,1.38-3.68l3.82-5.32
						c0.01-0.01,0.05-0.06,0.11-0.14s0.14-0.14,0.23-0.19c0.09-0.05,0.2-0.07,0.32-0.07h0.98c0.12,0,0.22,0.04,0.29,0.13
						c0.07,0.09,0.11,0.19,0.11,0.31c0,0.07-0.03,0.15-0.1,0.26l-2.92,4.08c0.35-0.08,0.73-0.12,1.16-0.12
						c0.97,0,1.83,0.22,2.57,0.65c0.74,0.43,1.31,1.01,1.72,1.72c0.41,0.71,0.61,1.5,0.61,2.35c0,0.85-0.2,1.65-0.61,2.39
						c-0.41,0.74-1,1.33-1.77,1.77s-1.69,0.66-2.74,0.66C846.98,567.62,846.06,567.41,845.28,566.97z M849.65,565.6
						c0.49-0.24,0.89-0.6,1.18-1.07c0.29-0.47,0.44-1.04,0.44-1.71c0-0.65-0.15-1.22-0.45-1.69c-0.3-0.47-0.7-0.83-1.19-1.08
						c-0.49-0.25-1.03-0.37-1.6-0.37s-1.11,0.12-1.6,0.37c-0.49,0.25-0.89,0.61-1.18,1.08c-0.29,0.47-0.44,1.04-0.44,1.69
						c0,0.67,0.15,1.24,0.44,1.71c0.29,0.47,0.69,0.83,1.18,1.07c0.49,0.24,1.03,0.36,1.6,0.36
						C848.61,565.96,849.15,565.84,849.65,565.6z"/>
					<path class="st2" d="M855.42,562.1c-0.09-0.08-0.13-0.19-0.13-0.32v-0.72c0-0.13,0.04-0.24,0.13-0.33
						c0.09-0.09,0.2-0.13,0.33-0.13h6c0.13,0,0.24,0.04,0.33,0.13c0.09,0.09,0.13,0.2,0.13,0.33v0.72c0,0.13-0.04,0.24-0.13,0.32
						s-0.2,0.12-0.33,0.12h-6C855.61,562.22,855.5,562.18,855.42,562.1z"/>
					<path class="st2" d="M868.05,567.29c-0.08-0.09-0.12-0.2-0.12-0.33v-11.28l-3.36,2.58c-0.09,0.08-0.19,0.12-0.3,0.12
						c-0.12,0-0.23-0.07-0.34-0.2l-0.48-0.62c-0.07-0.09-0.1-0.19-0.1-0.28c0-0.15,0.07-0.27,0.2-0.36l4.34-3.36
						c0.15-0.09,0.32-0.14,0.52-0.14h0.94c0.13,0,0.24,0.04,0.33,0.13s0.13,0.2,0.13,0.33v13.08c0,0.13-0.04,0.24-0.13,0.33
						s-0.2,0.13-0.33,0.13h-0.98C868.23,567.42,868.13,567.38,868.05,567.29z"/>
					<path class="st2" d="M874.57,567.08c-0.73-0.36-1.29-0.83-1.68-1.41s-0.59-1.2-0.62-1.87v-0.04c0-0.11,0.04-0.19,0.12-0.26
						s0.17-0.1,0.28-0.1h0.98c0.28,0,0.46,0.15,0.54,0.44c0.2,0.72,0.57,1.26,1.11,1.61s1.16,0.53,1.87,0.53
						c0.91,0,1.66-0.28,2.26-0.83c0.6-0.55,0.9-1.32,0.9-2.29c0-0.89-0.3-1.6-0.9-2.13c-0.6-0.53-1.35-0.79-2.26-0.79
						c-0.48,0-0.87,0.06-1.16,0.18c-0.29,0.12-0.59,0.29-0.9,0.52c-0.17,0.13-0.32,0.23-0.43,0.29c-0.11,0.06-0.24,0.09-0.37,0.09
						h-0.96c-0.12,0-0.23-0.04-0.32-0.13c-0.09-0.09-0.13-0.19-0.12-0.31l0.62-6.66c0.04-0.33,0.21-0.5,0.5-0.5h6.92
						c0.15,0,0.26,0.04,0.34,0.12c0.08,0.08,0.12,0.19,0.12,0.34v0.74c0,0.13-0.04,0.24-0.13,0.32c-0.09,0.08-0.2,0.12-0.33,0.12
						h-5.76l-0.36,4.02c0.64-0.45,1.5-0.68,2.58-0.68c0.89,0,1.71,0.18,2.44,0.53c0.73,0.35,1.32,0.87,1.75,1.55
						c0.43,0.68,0.65,1.49,0.65,2.42c0,0.99-0.22,1.84-0.65,2.55c-0.43,0.71-1.03,1.25-1.8,1.62c-0.77,0.37-1.64,0.55-2.63,0.55
						C876.17,567.62,875.3,567.44,874.57,567.08z"/>
					<path class="st2" d="M884.3,567.29c-0.09-0.09-0.13-0.2-0.13-0.33v-0.6c0-0.31,0.17-0.6,0.5-0.88l4.36-4.34
						c0.99-0.84,1.67-1.53,2.04-2.06s0.56-1.1,0.56-1.7c0-0.79-0.22-1.4-0.66-1.85c-0.44-0.45-1.08-0.67-1.92-0.67
						c-0.8,0-1.43,0.23-1.9,0.7c-0.47,0.47-0.75,1.09-0.86,1.88c-0.03,0.15-0.09,0.26-0.2,0.34c-0.11,0.08-0.21,0.12-0.32,0.12
						h-0.96c-0.12,0-0.22-0.04-0.3-0.12s-0.12-0.17-0.12-0.28c0.03-0.71,0.22-1.39,0.57-2.05c0.35-0.66,0.88-1.2,1.57-1.62
						s1.53-0.63,2.52-0.63c1.49,0,2.62,0.39,3.37,1.17c0.75,0.78,1.13,1.77,1.13,2.97c0,0.84-0.2,1.6-0.61,2.27
						c-0.41,0.67-1.04,1.38-1.91,2.13l-3.94,4h6.3c0.15,0,0.26,0.04,0.34,0.12c0.08,0.08,0.12,0.19,0.12,0.34v0.76
						c0,0.13-0.04,0.24-0.13,0.33c-0.09,0.09-0.2,0.13-0.33,0.13h-8.76C884.49,567.42,884.38,567.38,884.3,567.29z"/>
					<path class="st2" d="M896.36,567.29c-0.09-0.09-0.13-0.2-0.13-0.33v-1.38c0-0.13,0.04-0.25,0.13-0.34
						c0.09-0.09,0.2-0.14,0.33-0.14h1.38c0.13,0,0.24,0.05,0.33,0.14c0.09,0.09,0.13,0.21,0.13,0.34v1.38
						c0,0.13-0.04,0.24-0.13,0.33c-0.09,0.09-0.2,0.13-0.33,0.13h-1.38C896.55,567.42,896.44,567.38,896.36,567.29z"/>
					<path class="st2" d="M907.26,567.29c-0.09-0.09-0.13-0.2-0.13-0.33v-2.92h-6.5c-0.13,0-0.24-0.04-0.33-0.13
						s-0.13-0.2-0.13-0.33v-0.74c0-0.19,0.07-0.39,0.22-0.6l6.02-8.48c0.07-0.11,0.17-0.19,0.3-0.25c0.13-0.06,0.28-0.09,0.44-0.09
						h1.36c0.15,0,0.26,0.04,0.34,0.12s0.12,0.19,0.12,0.34v8.48h1.82c0.13,0,0.24,0.04,0.33,0.13c0.09,0.09,0.13,0.2,0.13,0.33
						v0.76c0,0.13-0.04,0.24-0.13,0.33c-0.09,0.09-0.2,0.13-0.33,0.13h-1.82v2.92c0,0.13-0.04,0.24-0.13,0.33s-0.2,0.13-0.33,0.13
						h-0.92C907.45,567.42,907.34,567.38,907.26,567.29z M902.25,562.41h4.9v-6.96L902.25,562.41z"/>
					<path class="st2" d="M918.46,567.29c-0.09-0.09-0.13-0.2-0.13-0.33v-9.48c0-0.13,0.04-0.24,0.13-0.33
						c0.09-0.09,0.2-0.13,0.33-0.13h0.84c0.13,0,0.24,0.04,0.32,0.13c0.08,0.09,0.12,0.2,0.12,0.33v0.68
						c0.72-0.89,1.69-1.34,2.92-1.34c1.47,0,2.51,0.61,3.12,1.84c0.32-0.56,0.78-1.01,1.37-1.34c0.59-0.33,1.26-0.5,1.99-0.5
						c1.09,0,1.99,0.37,2.68,1.12c0.69,0.75,1.04,1.83,1.04,3.24v5.78c0,0.13-0.04,0.24-0.13,0.33c-0.09,0.09-0.2,0.13-0.33,0.13
						h-0.86c-0.13,0-0.24-0.04-0.33-0.13s-0.13-0.2-0.13-0.33v-5.6c0-1.07-0.22-1.83-0.66-2.29c-0.44-0.46-1.02-0.69-1.74-0.69
						c-0.64,0-1.19,0.24-1.65,0.71c-0.46,0.47-0.69,1.23-0.69,2.27v5.6c0,0.13-0.04,0.24-0.13,0.33s-0.2,0.13-0.33,0.13h-0.88
						c-0.13,0-0.24-0.04-0.33-0.13s-0.13-0.2-0.13-0.33v-5.6c0-1.05-0.23-1.81-0.69-2.28s-1.03-0.7-1.71-0.7
						c-0.64,0-1.19,0.23-1.65,0.7s-0.69,1.22-0.69,2.26v5.62c0,0.13-0.04,0.24-0.13,0.33s-0.2,0.13-0.33,0.13h-0.88
						C918.65,567.42,918.54,567.38,918.46,567.29z"/>
					<path class="st2" d="M936.21,567.29c-0.09-0.09-0.13-0.2-0.13-0.33v-9.48c0-0.13,0.04-0.24,0.13-0.33
						c0.09-0.09,0.2-0.13,0.33-0.13h0.84c0.13,0,0.24,0.04,0.32,0.13c0.08,0.09,0.12,0.2,0.12,0.33v0.68
						c0.72-0.89,1.69-1.34,2.92-1.34c1.47,0,2.51,0.61,3.12,1.84c0.32-0.56,0.78-1.01,1.37-1.34c0.59-0.33,1.26-0.5,1.99-0.5
						c1.09,0,1.99,0.37,2.68,1.12c0.69,0.75,1.04,1.83,1.04,3.24v5.78c0,0.13-0.04,0.24-0.13,0.33c-0.09,0.09-0.2,0.13-0.33,0.13
						h-0.86c-0.13,0-0.24-0.04-0.33-0.13s-0.13-0.2-0.13-0.33v-5.6c0-1.07-0.22-1.83-0.66-2.29c-0.44-0.46-1.02-0.69-1.74-0.69
						c-0.64,0-1.19,0.24-1.65,0.71c-0.46,0.47-0.69,1.23-0.69,2.27v5.6c0,0.13-0.04,0.24-0.13,0.33s-0.2,0.13-0.33,0.13h-0.88
						c-0.13,0-0.24-0.04-0.33-0.13s-0.13-0.2-0.13-0.33v-5.6c0-1.05-0.23-1.81-0.69-2.28s-1.03-0.7-1.71-0.7
						c-0.64,0-1.19,0.23-1.65,0.7s-0.69,1.22-0.69,2.26v5.62c0,0.13-0.04,0.24-0.13,0.33s-0.2,0.13-0.33,0.13h-0.88
						C936.41,567.42,936.3,567.38,936.21,567.29z"/>
				</g>
			</g>
			<polyline class="st1" points="784.47,550.37 790.19,556.09 795.92,550.37 			"/>
			<line class="st1" x1="790.19" y1="543.3" x2="790.19" y2="530.64"/>
			<line class="st1" x1="790.19" y1="555.8" x2="790.19" y2="539.45"/>
			<polyline class="st1" points="784.48,536.38 790.21,530.65 795.93,536.38 			"/>
		</g>
		<g>
			<g id="MTEXT_7_" class="st3">
				<g>
					<path class="st2" d="M650.07,213.33c-0.07-0.09-0.11-0.19-0.11-0.31l0.04-0.18l5-11.7h-6.6c-0.13,0-0.24-0.04-0.33-0.13
						c-0.09-0.09-0.13-0.2-0.13-0.33v-0.74c0-0.15,0.04-0.26,0.12-0.35s0.19-0.13,0.34-0.13h8.16c0.15,0,0.26,0.04,0.34,0.13
						s0.12,0.2,0.12,0.35v0.68c0,0.24-0.05,0.5-0.16,0.78l-4.94,11.56c-0.07,0.15-0.14,0.27-0.22,0.36
						c-0.08,0.09-0.19,0.14-0.34,0.14h-1C650.24,213.46,650.14,213.42,650.07,213.33z"/>
					<path class="st2" d="M658.78,202.95c-0.05-0.07-0.07-0.18-0.06-0.31l0.44-2.8c0.05-0.39,0.24-0.58,0.56-0.58H661
						c0.09,0,0.17,0.03,0.23,0.1c0.06,0.07,0.09,0.15,0.09,0.24c0,0.13-0.02,0.24-0.06,0.32l-1.04,2.7
						c-0.07,0.15-0.14,0.26-0.22,0.33c-0.08,0.07-0.2,0.11-0.36,0.11h-0.62C658.91,203.06,658.83,203.03,658.78,202.95z"/>
					<path class="st2" d="M668.64,217.49c-0.08-0.09-0.12-0.2-0.12-0.33V196c0-0.13,0.04-0.24,0.12-0.33s0.19-0.13,0.32-0.13h0.74
						c0.13,0,0.24,0.04,0.33,0.13c0.09,0.09,0.13,0.2,0.13,0.33v21.16c0,0.13-0.04,0.24-0.13,0.33c-0.09,0.09-0.2,0.13-0.33,0.13
						h-0.74C668.82,217.62,668.72,217.58,668.64,217.49z"/>
					<path class="st2" d="M677.67,213.33c-0.09-0.09-0.13-0.2-0.13-0.33v-0.6c0-0.31,0.17-0.6,0.5-0.88l4.36-4.34
						c0.99-0.84,1.67-1.53,2.04-2.06s0.56-1.1,0.56-1.7c0-0.79-0.22-1.4-0.66-1.85c-0.44-0.45-1.08-0.67-1.92-0.67
						c-0.8,0-1.43,0.23-1.9,0.7c-0.47,0.47-0.75,1.09-0.86,1.88c-0.03,0.15-0.09,0.26-0.2,0.34c-0.11,0.08-0.21,0.12-0.32,0.12
						h-0.96c-0.12,0-0.22-0.04-0.3-0.12s-0.12-0.17-0.12-0.28c0.03-0.71,0.22-1.39,0.57-2.05s0.88-1.2,1.57-1.62
						s1.53-0.63,2.52-0.63c1.49,0,2.62,0.39,3.37,1.17c0.75,0.78,1.13,1.77,1.13,2.97c0,0.84-0.2,1.6-0.61,2.27
						c-0.41,0.67-1.04,1.38-1.91,2.13l-3.94,4h6.3c0.15,0,0.26,0.04,0.34,0.12c0.08,0.08,0.12,0.19,0.12,0.34V213
						c0,0.13-0.04,0.24-0.13,0.33s-0.2,0.13-0.33,0.13H678C677.87,213.46,677.75,213.42,677.67,213.33z"/>
					<path class="st2" d="M689.73,213.33c-0.09-0.09-0.13-0.2-0.13-0.33v-1.38c0-0.13,0.04-0.25,0.13-0.34
						c0.09-0.09,0.2-0.14,0.33-0.14h1.38c0.13,0,0.24,0.05,0.33,0.14c0.09,0.09,0.13,0.21,0.13,0.34V213c0,0.13-0.04,0.24-0.13,0.33
						s-0.2,0.13-0.33,0.13h-1.38C689.92,213.46,689.81,213.42,689.73,213.33z"/>
					<path class="st2" d="M697.1,213.33c-0.08-0.09-0.12-0.2-0.12-0.33v-11.28l-3.36,2.58c-0.09,0.08-0.19,0.12-0.3,0.12
						c-0.12,0-0.23-0.07-0.34-0.2l-0.48-0.62c-0.07-0.09-0.1-0.19-0.1-0.28c0-0.15,0.07-0.27,0.2-0.36l4.34-3.36
						c0.15-0.09,0.32-0.14,0.52-0.14h0.94c0.13,0,0.24,0.04,0.33,0.13c0.09,0.09,0.13,0.2,0.13,0.33V213c0,0.13-0.04,0.24-0.13,0.33
						c-0.09,0.09-0.2,0.13-0.33,0.13h-0.98C697.29,213.46,697.18,213.42,697.1,213.33z"/>
					<path class="st2" d="M703.62,213.15c-0.76-0.34-1.34-0.78-1.73-1.33c-0.39-0.55-0.6-1.11-0.63-1.7c0-0.12,0.04-0.22,0.12-0.29
						c0.08-0.07,0.18-0.11,0.3-0.11h0.9c0.15,0,0.27,0.03,0.36,0.09c0.09,0.06,0.17,0.18,0.22,0.35c0.17,0.68,0.55,1.16,1.13,1.44
						c0.58,0.28,1.26,0.42,2.05,0.42c0.96,0,1.72-0.23,2.29-0.69c0.57-0.46,0.85-1.12,0.85-1.97c0-1.63-0.99-2.44-2.98-2.44h-1.88
						c-0.13,0-0.24-0.04-0.33-0.13c-0.09-0.09-0.13-0.2-0.13-0.33v-0.52c0-0.2,0.07-0.37,0.22-0.52l3.9-4.32h-5.92
						c-0.13,0-0.24-0.04-0.33-0.12c-0.09-0.08-0.13-0.19-0.13-0.32v-0.72c0-0.15,0.04-0.26,0.13-0.35c0.09-0.09,0.2-0.13,0.33-0.13
						h7.92c0.15,0,0.26,0.04,0.35,0.13c0.09,0.09,0.13,0.2,0.13,0.35v0.66c0,0.15-0.07,0.3-0.2,0.46l-3.9,4.38h0.32
						c1.36,0.04,2.44,0.39,3.23,1.06c0.79,0.67,1.19,1.64,1.19,2.92c0,0.88-0.22,1.64-0.65,2.27c-0.43,0.63-1.04,1.12-1.81,1.46
						c-0.77,0.34-1.65,0.51-2.62,0.51C705.28,213.66,704.38,213.49,703.62,213.15z"/>
					<path class="st2" d="M718.91,213.33c-0.09-0.09-0.13-0.2-0.13-0.33v-9.48c0-0.13,0.04-0.24,0.13-0.33
						c0.09-0.09,0.2-0.13,0.33-0.13h0.84c0.13,0,0.24,0.04,0.32,0.13c0.08,0.09,0.12,0.2,0.12,0.33v0.68
						c0.72-0.89,1.69-1.34,2.92-1.34c1.47,0,2.51,0.61,3.12,1.84c0.32-0.56,0.78-1.01,1.37-1.34c0.59-0.33,1.26-0.5,1.99-0.5
						c1.09,0,1.99,0.37,2.68,1.12c0.69,0.75,1.04,1.83,1.04,3.24V213c0,0.13-0.04,0.24-0.13,0.33s-0.2,0.13-0.33,0.13h-0.86
						c-0.13,0-0.24-0.04-0.33-0.13c-0.09-0.09-0.13-0.2-0.13-0.33v-5.6c0-1.07-0.22-1.83-0.66-2.29c-0.44-0.46-1.02-0.69-1.74-0.69
						c-0.64,0-1.19,0.24-1.65,0.71c-0.46,0.47-0.69,1.23-0.69,2.27v5.6c0,0.13-0.04,0.24-0.13,0.33c-0.09,0.09-0.2,0.13-0.33,0.13
						h-0.88c-0.13,0-0.24-0.04-0.33-0.13c-0.09-0.09-0.13-0.2-0.13-0.33v-5.6c0-1.05-0.23-1.81-0.69-2.28
						c-0.46-0.47-1.03-0.7-1.71-0.7c-0.64,0-1.19,0.23-1.65,0.7c-0.46,0.47-0.69,1.22-0.69,2.26V213c0,0.13-0.04,0.24-0.13,0.33
						c-0.09,0.09-0.2,0.13-0.33,0.13h-0.88C719.1,213.46,718.99,213.42,718.91,213.33z"/>
					<path class="st2" d="M642.01,237.47c-0.67-0.65-1.16-1.65-1.45-3.01c-0.29-1.36-0.44-3.15-0.44-5.38s0.15-4.02,0.44-5.37
						c0.29-1.35,0.78-2.35,1.45-3c0.67-0.65,1.58-0.97,2.73-0.97c0.13,0,0.24,0.04,0.33,0.13c0.09,0.09,0.13,0.2,0.13,0.33v0.66
						c0,0.12-0.04,0.22-0.12,0.31s-0.17,0.13-0.28,0.13c-0.76,0.01-1.35,0.27-1.78,0.77c-0.43,0.5-0.73,1.31-0.92,2.42
						c-0.19,1.11-0.28,2.64-0.28,4.59c0,1.96,0.09,3.5,0.28,4.61c0.19,1.11,0.49,1.92,0.92,2.42c0.43,0.5,1.02,0.76,1.78,0.77
						c0.11,0,0.2,0.04,0.28,0.13s0.12,0.19,0.12,0.31v0.66c0,0.13-0.04,0.24-0.13,0.33c-0.09,0.09-0.2,0.13-0.33,0.13
						C643.59,238.44,642.68,238.12,642.01,237.47z"/>
					<path class="st2" d="M647.38,235.13c-0.08-0.09-0.12-0.2-0.12-0.33v-13.06c0-0.15,0.04-0.26,0.12-0.35s0.19-0.13,0.32-0.13
						h8.12c0.15,0,0.26,0.04,0.35,0.13c0.09,0.09,0.13,0.2,0.13,0.35v0.74c0,0.13-0.04,0.24-0.13,0.33
						c-0.09,0.09-0.2,0.13-0.35,0.13h-6.7v4.74h6.3c0.15,0,0.26,0.04,0.35,0.13c0.09,0.09,0.13,0.2,0.13,0.33v0.76
						c0,0.13-0.05,0.24-0.14,0.33c-0.09,0.09-0.21,0.13-0.34,0.13h-6.3v5.44c0,0.13-0.05,0.24-0.14,0.33
						c-0.09,0.09-0.21,0.13-0.34,0.13h-0.94C647.56,235.26,647.46,235.22,647.38,235.13z"/>
					<path class="st2" d="M658.81,235.13c-0.09-0.09-0.13-0.2-0.13-0.33v-13.28c0-0.15,0.04-0.26,0.13-0.34
						c0.09-0.08,0.2-0.12,0.33-0.12h0.88c0.13,0,0.24,0.04,0.33,0.13c0.09,0.09,0.13,0.2,0.13,0.33v13.28
						c0,0.13-0.04,0.24-0.13,0.33s-0.2,0.13-0.33,0.13h-0.88C659,235.26,658.89,235.22,658.81,235.13z"/>
					<path class="st2" d="M664.55,235.06c-0.55-0.27-0.99-0.63-1.32-1.09c-0.33-0.46-0.49-0.97-0.49-1.53c0-0.88,0.36-1.6,1.08-2.16
						c0.72-0.56,1.7-0.93,2.94-1.12l3-0.42v-0.58c0-1.37-0.79-2.06-2.38-2.06c-0.62,0-1.11,0.12-1.48,0.37
						c-0.37,0.25-0.65,0.54-0.82,0.87c-0.05,0.13-0.11,0.22-0.17,0.27c-0.06,0.05-0.14,0.07-0.25,0.07h-0.78
						c-0.12,0-0.22-0.04-0.31-0.13c-0.09-0.09-0.13-0.19-0.13-0.31c0-0.31,0.14-0.66,0.43-1.07c0.29-0.41,0.73-0.76,1.33-1.06
						c0.6-0.3,1.33-0.45,2.2-0.45c1.49,0,2.56,0.35,3.21,1.04s0.97,1.56,0.97,2.6v6.5c0,0.13-0.04,0.24-0.13,0.33
						c-0.09,0.09-0.2,0.13-0.33,0.13h-0.88c-0.13,0-0.24-0.04-0.32-0.13s-0.12-0.2-0.12-0.33v-0.88c-0.29,0.44-0.72,0.81-1.28,1.1
						c-0.56,0.29-1.28,0.44-2.16,0.44C665.71,235.46,665.1,235.33,664.55,235.06z M668.92,233.14c0.56-0.57,0.84-1.41,0.84-2.5
						v-0.56l-2.34,0.34c-0.96,0.13-1.69,0.36-2.18,0.68c-0.49,0.32-0.74,0.72-0.74,1.2c0,0.55,0.22,0.97,0.67,1.26
						c0.45,0.29,0.98,0.44,1.59,0.44C667.64,234,668.36,233.72,668.92,233.14z"/>
					<path class="st2" d="M676.04,239.1c-0.67-0.37-1.14-0.8-1.41-1.28c-0.27-0.48-0.41-0.89-0.41-1.24c0-0.12,0.05-0.22,0.14-0.31
						c0.09-0.09,0.2-0.13,0.32-0.13h0.88c0.12,0,0.22,0.03,0.3,0.09c0.08,0.06,0.15,0.17,0.2,0.33c0.37,1.07,1.22,1.6,2.54,1.6
						c1,0,1.74-0.21,2.22-0.64c0.48-0.43,0.72-1.18,0.72-2.26v-1.38c-0.77,0.99-1.85,1.48-3.24,1.48c-1.41,0-2.47-0.45-3.17-1.36
						c-0.7-0.91-1.07-2.05-1.11-3.44L674,230l0.02-0.54c0.04-1.37,0.41-2.52,1.11-3.43c0.7-0.91,1.76-1.37,3.17-1.37
						c1.4,0,2.49,0.51,3.28,1.54v-0.86c0-0.13,0.04-0.25,0.13-0.34c0.09-0.09,0.2-0.14,0.33-0.14h0.86c0.13,0,0.24,0.05,0.33,0.14
						c0.09,0.09,0.13,0.21,0.13,0.34v9.7c0,3.08-1.55,4.62-4.66,4.62C677.59,239.66,676.7,239.48,676.04,239.1z M680.77,232.89
						c0.47-0.61,0.73-1.34,0.77-2.19c0.01-0.12,0.02-0.35,0.02-0.7c0-0.33-0.01-0.56-0.02-0.68c-0.04-0.85-0.3-1.58-0.77-2.19
						c-0.47-0.61-1.18-0.91-2.11-0.91c-0.96,0-1.66,0.3-2.09,0.91s-0.67,1.39-0.71,2.35l-0.02,0.52l0.02,0.54
						c0.04,0.96,0.28,1.74,0.71,2.35c0.43,0.61,1.13,0.91,2.09,0.91C679.59,233.8,680.29,233.5,680.77,232.89z"/>
					<path class="st2" d="M687.61,235.01c-0.63-0.3-1.1-0.64-1.41-1.03s-0.46-0.71-0.46-0.96c0-0.13,0.04-0.24,0.14-0.31
						s0.19-0.11,0.3-0.11h0.84c0.08,0,0.14,0.01,0.19,0.04c0.05,0.03,0.11,0.09,0.19,0.18c0.31,0.37,0.65,0.67,1.03,0.88
						c0.38,0.21,0.89,0.32,1.53,0.32c0.72,0,1.3-0.13,1.73-0.4s0.65-0.65,0.65-1.16c0-0.33-0.09-0.6-0.28-0.8
						c-0.19-0.2-0.5-0.38-0.93-0.54c-0.43-0.16-1.08-0.33-1.93-0.52c-1.16-0.25-1.98-0.62-2.46-1.1c-0.48-0.48-0.72-1.1-0.72-1.86
						c0-0.49,0.15-0.97,0.44-1.43s0.73-0.83,1.31-1.12s1.27-0.43,2.07-0.43c0.84,0,1.56,0.14,2.15,0.42
						c0.59,0.28,1.04,0.61,1.34,0.98c0.3,0.37,0.45,0.69,0.45,0.94c0,0.12-0.04,0.22-0.13,0.3c-0.09,0.08-0.19,0.12-0.31,0.12h-0.76
						c-0.19,0-0.32-0.07-0.4-0.22c-0.23-0.25-0.42-0.45-0.57-0.59c-0.15-0.14-0.38-0.26-0.67-0.36c-0.29-0.1-0.66-0.15-1.1-0.15
						c-0.65,0-1.15,0.14-1.5,0.41c-0.35,0.27-0.52,0.64-0.52,1.09c0,0.28,0.07,0.52,0.22,0.71s0.43,0.37,0.84,0.54
						c0.41,0.17,1.03,0.34,1.84,0.51c1.27,0.27,2.16,0.65,2.69,1.14c0.53,0.49,0.79,1.13,0.79,1.9c0,0.57-0.16,1.09-0.49,1.56
						s-0.81,0.83-1.46,1.1c-0.65,0.27-1.42,0.4-2.31,0.4C689.02,235.46,688.24,235.31,687.61,235.01z"/>
					<path class="st2" d="M697.42,231.76v-5.36h-1.58c-0.13,0-0.24-0.04-0.32-0.12c-0.08-0.08-0.12-0.19-0.12-0.32v-0.64
						c0-0.13,0.04-0.24,0.12-0.33c0.08-0.09,0.19-0.13,0.32-0.13h1.58v-3.34c0-0.13,0.04-0.24,0.12-0.33
						c0.08-0.09,0.19-0.13,0.32-0.13h0.88c0.13,0,0.24,0.04,0.33,0.13c0.09,0.09,0.13,0.2,0.13,0.33v3.34h2.48
						c0.13,0,0.24,0.04,0.33,0.13c0.09,0.09,0.13,0.2,0.13,0.33v0.64c0,0.13-0.04,0.24-0.13,0.32c-0.09,0.08-0.2,0.12-0.33,0.12
						h-2.48v5.22c0,0.68,0.11,1.19,0.33,1.54s0.6,0.52,1.13,0.52h1.22c0.13,0,0.24,0.04,0.32,0.13c0.08,0.09,0.12,0.2,0.12,0.33
						v0.66c0,0.13-0.04,0.24-0.12,0.33s-0.19,0.13-0.32,0.13h-1.36C698.45,235.26,697.42,234.1,697.42,231.76z"/>
					<path class="st2" d="M704.25,222.77c-0.09-0.09-0.13-0.2-0.13-0.33v-1.04c0-0.13,0.04-0.25,0.13-0.34
						c0.09-0.09,0.2-0.14,0.33-0.14h1.18c0.13,0,0.25,0.05,0.34,0.14c0.09,0.09,0.14,0.21,0.14,0.34v1.04
						c0,0.13-0.05,0.24-0.14,0.33c-0.09,0.09-0.21,0.13-0.34,0.13h-1.18C704.44,222.9,704.33,222.86,704.25,222.77z M704.41,235.13
						c-0.09-0.09-0.13-0.2-0.13-0.33v-9.48c0-0.13,0.04-0.24,0.13-0.33c0.09-0.09,0.2-0.13,0.33-0.13h0.88
						c0.13,0,0.24,0.04,0.33,0.13c0.09,0.09,0.13,0.2,0.13,0.33v9.48c0,0.13-0.04,0.24-0.13,0.33c-0.09,0.09-0.2,0.13-0.33,0.13
						h-0.88C704.6,235.26,704.49,235.22,704.41,235.13z"/>
					<path class="st2" d="M709.9,234.25c-0.8-0.81-1.22-1.94-1.26-3.39l-0.02-0.8l0.02-0.8c0.04-1.45,0.46-2.58,1.26-3.39
						s1.91-1.21,3.34-1.21c0.96,0,1.77,0.17,2.43,0.51s1.15,0.76,1.48,1.27c0.33,0.51,0.5,1.01,0.53,1.52
						c0.01,0.12-0.03,0.23-0.13,0.32c-0.1,0.09-0.21,0.14-0.33,0.14h-0.88c-0.13,0-0.23-0.03-0.3-0.09
						c-0.07-0.06-0.13-0.17-0.2-0.33c-0.24-0.65-0.57-1.12-0.99-1.39c-0.42-0.27-0.95-0.41-1.59-0.41c-0.84,0-1.51,0.26-2,0.78
						c-0.49,0.52-0.76,1.31-0.8,2.38l-0.02,0.7l0.02,0.7c0.04,1.07,0.31,1.86,0.8,2.38c0.49,0.52,1.16,0.78,2,0.78
						c0.65,0,1.19-0.14,1.6-0.41c0.41-0.27,0.74-0.74,0.98-1.39c0.07-0.16,0.13-0.27,0.2-0.33c0.07-0.06,0.17-0.09,0.3-0.09h0.88
						c0.12,0,0.23,0.05,0.33,0.14c0.1,0.09,0.14,0.2,0.13,0.32c-0.03,0.49-0.2,0.99-0.53,1.5s-0.82,0.93-1.48,1.28
						s-1.47,0.52-2.43,0.52C711.81,235.46,710.7,235.06,709.9,234.25z"/>
					<path class="st2" d="M720.23,235.13c-0.09-0.09-0.13-0.2-0.13-0.33v-13.28c0-0.15,0.04-0.26,0.13-0.34s0.2-0.12,0.33-0.12h0.86
						c0.13,0,0.24,0.04,0.33,0.13c0.09,0.09,0.13,0.2,0.13,0.33v6.98l4-3.3c0.2-0.15,0.34-0.24,0.42-0.28s0.21-0.06,0.38-0.06h1
						c0.12,0,0.22,0.04,0.29,0.11c0.07,0.07,0.11,0.18,0.11,0.31c0,0.12-0.07,0.25-0.22,0.38l-4.68,3.84l5.18,4.96
						c0.15,0.15,0.22,0.27,0.22,0.38c0,0.12-0.04,0.22-0.11,0.3c-0.07,0.08-0.17,0.12-0.29,0.12h-0.98c-0.2,0-0.34-0.02-0.43-0.06
						c-0.09-0.04-0.21-0.13-0.37-0.28l-4.52-4.28v4.16c0,0.13-0.04,0.24-0.13,0.33c-0.09,0.09-0.2,0.13-0.33,0.13h-0.86
						C720.42,235.26,720.31,235.22,720.23,235.13z"/>
					<path class="st2" d="M728.95,238.31c-0.09-0.09-0.13-0.2-0.13-0.33v-0.66c0-0.12,0.04-0.22,0.12-0.31s0.17-0.13,0.28-0.13
						c0.75-0.01,1.34-0.27,1.77-0.77s0.74-1.31,0.93-2.43c0.19-1.12,0.28-2.65,0.28-4.6c0-1.95-0.09-3.48-0.28-4.59
						c-0.19-1.11-0.5-1.92-0.93-2.42s-1.02-0.76-1.77-0.77c-0.11,0-0.2-0.04-0.28-0.13s-0.12-0.19-0.12-0.31v-0.66
						c0-0.13,0.04-0.24,0.13-0.33c0.09-0.09,0.19-0.13,0.31-0.13c1.15,0,2.06,0.32,2.73,0.97c0.67,0.65,1.16,1.65,1.45,3
						s0.44,3.14,0.44,5.37s-0.15,4.02-0.44,5.38c-0.29,1.36-0.78,2.36-1.45,3.01c-0.67,0.65-1.58,0.97-2.73,0.97
						C729.14,238.44,729.03,238.4,728.95,238.31z"/>
				</g>
			</g>
			<polyline class="st1" points="717.2,549.15 722.93,554.88 728.65,549.15 			"/>
			<line class="st1" x1="722.93" y1="186.85" x2="722.93" y2="85.29"/>
			<line class="st1" x1="722.93" y1="554.59" x2="722.93" y2="249.62"/>
			<polyline class="st1" points="717.21,91.03 722.94,85.3 728.66,91.03 			"/>
		</g>
	</g>
</g>
<g id="N-TEXT">
</g>
<g id="_x32_D_x24_AG-DIAGRAM">
	<g id="POLYLINE_1099_">
		<g>
			<g>
				<line class="st10" x1="744.8" y1="521.47" x2="742.3" y2="521.47"/>
				<line class="st40" x1="735.33" y1="521.47" x2="57.19" y2="521.47"/>
				<line class="st10" x1="53.7" y1="521.47" x2="51.2" y2="521.47"/>
			</g>
		</g>
		<g>
			<g>
				<line class="st10" x1="934.58" y1="521.47" x2="932.08" y2="521.47"/>
				<line class="st41" x1="925.17" y1="521.47" x2="774.53" y2="521.47"/>
				<line class="st10" x1="771.07" y1="521.47" x2="768.57" y2="521.47"/>
			</g>
		</g>
		<polyline class="st42" points="768.57,521.47 768.57,555.02 744.8,555.02 744.8,521.47 		"/>
	</g>
</g>
<g id="_x32_D_x24_AG-DETAILS-DIAGRAM">
</g>
<g id="_x32_D_x24_AG-DETAILS">
	<g id="POLYLINE_1511_">
		<line class="st72" x1="754.59" y1="191.54" x2="758.78" y2="191.54"/>
	</g>
	<g id="POLYLINE_1510_">
		<line class="st72" x1="754.59" y1="247.46" x2="758.78" y2="247.46"/>
	</g>
	<g id="POLYLINE_1509_">
		<line class="st72" x1="754.59" y1="314.56" x2="758.78" y2="314.56"/>
	</g>
	<g id="POLYLINE_1508_">
		<line class="st72" x1="754.59" y1="370.48" x2="758.78" y2="370.48"/>
	</g>
	<g id="POLYLINE_1458_">
		<line class="st72" x1="754.59" y1="437.59" x2="758.78" y2="437.59"/>
	</g>
</g>
<g id="_x32_D_x24_AG-SPORTS">
	<g id="POLYLINE_1059_">
		<line class="st74" x1="758.78" y1="539.45" x2="758.78" y2="163.58"/>
	</g>
	<g id="POLYLINE_1058_">
		<polyline class="st74" points="754.59,543.47 754.59,555.02 758.78,555.02 758.78,543.47 		"/>
	</g>
	<g id="POLYLINE_1057_">
		<line class="st74" x1="754.59" y1="162.28" x2="754.59" y2="539.45"/>
	</g>
	<g id="POLYLINE_1056_">
		<polygon class="st74" points="744.8,538.24 753.64,539.45 759.73,539.45 768.57,538.24 768.57,541.46 759.73,541.46 
			759.73,543.47 753.64,543.47 753.64,541.46 744.8,541.46 		"/>
	</g>
	<g id="POLYLINE_1055_">
		<path class="st74" d="M754.59,86.59c0-0.05,0-0.06,0-0.06c0-0.05,0-0.06,0-0.06c0.01-0.05,0.01-0.06,0.01-0.06
			c0.01-0.05,0.01-0.06,0.01-0.06c0.01-0.05,0.01-0.06,0.01-0.06c0.01-0.05,0.02-0.06,0.02-0.06c0.01-0.05,0.02-0.06,0.02-0.06
			c0.02-0.05,0.02-0.06,0.02-0.06c0.03-0.06,0.03-0.07,0.03-0.07c0.03-0.06,0.04-0.07,0.04-0.07c0.03-0.06,0.04-0.07,0.04-0.07
			c0.04-0.05,0.05-0.07,0.05-0.07c0.04-0.05,0.05-0.06,0.05-0.06c0.05-0.06,0.06-0.07,0.06-0.07c0.06-0.05,0.07-0.06,0.07-0.06
			c0.05-0.04,0.06-0.05,0.06-0.05c0.05-0.04,0.06-0.05,0.06-0.05c0.05-0.03,0.07-0.04,0.07-0.04c0.06-0.03,0.07-0.04,0.07-0.04
			c0.06-0.03,0.07-0.03,0.07-0.03c0.04-0.02,0.06-0.02,0.06-0.02c0.05-0.02,0.06-0.02,0.06-0.02c0.05-0.01,0.06-0.02,0.06-0.02
			c0.05-0.01,0.06-0.02,0.06-0.02c0.05-0.01,0.06-0.01,0.06-0.01c0.05-0.01,0.06-0.01,0.06-0.01c0.05,0,0.06-0.01,0.06-0.01
			c0.05,0,0.06,0,0.06,0c13.48,0,33.87,2.47,47.47,3.79c6.82,0.6,13.87,0.98,20.71,0.74c9.89-0.28,22.36-1.87,32.25-2.13
			c3.47-0.05,7.04,0,10.47,0.53c0.87,0.15,1.8,0.3,2.6,0.66c0.06,0.03,0.09,0.05,0.09,0.05c0.05,0.03,0.08,0.05,0.08,0.05
			c0.05,0.03,0.08,0.05,0.08,0.05c0.06,0.04,0.07,0.05,0.07,0.05c0.05,0.04,0.06,0.05,0.06,0.05c0.06,0.05,0.07,0.06,0.07,0.06
			c0.05,0.06,0.06,0.07,0.06,0.07c0.05,0.06,0.06,0.07,0.06,0.07c0.04,0.05,0.04,0.06,0.04,0.06c0.03,0.05,0.04,0.06,0.04,0.06
			c0.03,0.05,0.03,0.07,0.03,0.07c0.02,0.06,0.03,0.07,0.03,0.07c0.02,0.06,0.03,0.07,0.03,0.07c0.01,0.05,0.02,0.06,0.02,0.06
			c0.01,0.05,0.02,0.06,0.02,0.06c0.01,0.04,0.01,0.07,0.01,0.07c0.01,0.05,0.01,0.08,0.01,0.08c0.01,0.06,0.01,0.08,0.01,0.08
			c0.02,0.37-0.02,0.69-0.07,1.04c-0.38,2.22-0.79,4.85-1.03,7.08c-1.79,16.65-2.17,44.48-3.89,61.19
			c-0.12,0.99-0.26,2.09-0.48,3.06c-0.12,0.55-0.29,1.15-0.57,1.63c-0.04,0.06-0.05,0.09-0.05,0.09c-0.04,0.06-0.06,0.08-0.06,0.08
			c-0.04,0.05-0.06,0.08-0.06,0.08c-0.04,0.05-0.06,0.07-0.06,0.07c-0.04,0.05-0.06,0.07-0.06,0.07c-0.04,0.04-0.06,0.07-0.06,0.07
			c-0.04,0.04-0.07,0.06-0.07,0.06c-0.05,0.04-0.07,0.06-0.07,0.06c-0.05,0.04-0.07,0.05-0.07,0.05c-0.05,0.03-0.07,0.05-0.07,0.05
			c-0.05,0.03-0.08,0.05-0.08,0.05c-0.05,0.03-0.08,0.05-0.08,0.05c-0.05,0.03-0.08,0.04-0.08,0.04c-0.36,0.18-0.65,0.25-1.01,0.34
			c-0.64,0.16-1.32,0.25-1.98,0.31c-2.23,0.18-4.56,0.09-6.8-0.02c-28.15-2.05-69.07-1.64-97.57-1.88c-0.06,0-0.07,0-0.07,0
			c-0.06,0-0.07-0.01-0.07-0.01c-0.06-0.01-0.07-0.01-0.07-0.01c-0.05-0.01-0.06-0.01-0.06-0.01c-0.05-0.01-0.06-0.01-0.06-0.01
			c-0.05-0.01-0.06-0.02-0.06-0.02c-0.05-0.02-0.06-0.02-0.06-0.02c-0.06-0.02-0.07-0.03-0.07-0.03c-0.06-0.03-0.07-0.04-0.07-0.04
			c-0.06-0.03-0.07-0.04-0.07-0.04c-0.06-0.04-0.07-0.05-0.07-0.05c-0.05-0.04-0.07-0.05-0.07-0.05c-0.05-0.04-0.06-0.05-0.06-0.05
			c-0.06-0.06-0.07-0.07-0.07-0.07c-0.04-0.05-0.05-0.06-0.05-0.06c-0.04-0.05-0.05-0.07-0.05-0.07c-0.04-0.06-0.05-0.07-0.05-0.07
			c-0.03-0.06-0.04-0.07-0.04-0.07c-0.03-0.06-0.04-0.07-0.04-0.07c-0.03-0.06-0.03-0.07-0.03-0.07c-0.02-0.05-0.02-0.06-0.02-0.06
			c-0.01-0.05-0.02-0.06-0.02-0.06c-0.01-0.05-0.02-0.06-0.02-0.06c-0.01-0.05-0.01-0.06-0.01-0.06c-0.01-0.05-0.01-0.06-0.01-0.06
			c-0.01-0.06-0.01-0.07-0.01-0.07C754.58,162.28,754.59,86.67,754.59,86.59z"/>
	</g>
	<g id="POLYLINE_1054_">
		<line class="st74" x1="753.64" y1="539.45" x2="759.73" y2="539.45"/>
	</g>
	<g id="POLYLINE_1053_">
		<path class="st74" d="M310.85,516.77c0.01-2.23-1.62-4.17-3.73-4.6c-2.95-0.62-5.67,1.67-5.66,4.6c0,2.96,2.72,5.15,5.55,4.62
			C309.24,520.99,310.87,518.97,310.85,516.77z"/>
	</g>
	<g id="POLYLINE_1052_">
		<path class="st74" d="M268.28,410.55c-0.06-7.22-0.46-20.52-0.1-27.57c0.07-1.26,0.19-2.57,0.44-3.81
			c0.2-0.97,0.53-2.47,0.65-3.43c0.17-0.87,1.38-12.23,1.52-13.43c0.62-5.94,2.54-16.6,3.55-22.6c0.65-4.17,1.18-8.45,1.05-12.68
			c-0.05-2.99-0.54-7.18-0.83-10.19c-0.2-2-0.6-9.09-0.74-11.2"/>
	</g>
	<g id="POLYLINE_1051_">
		<path class="st74" d="M187.69,276.47c-1.65,4.66-2.83,9.56-3.6,14.44c-0.75,4.71-1.08,9.53-0.75,14.29
			c0.06,1.02,0.23,2.79,0.33,3.83c1.17,9.79,2.58,28.5,3.89,38.21c0.85,6.88,4.08,26.77,4.97,33.67c0.1,0.88,0.22,1.85,0.24,2.74
			c0.05,1.14-0.18,2.29-0.42,3.4c-2.65,11.39-5.35,23.57-6.31,35.22c-0.72,8.6-0.73,17.47-0.05,26.08c0.23,2.65,0.54,5.62,0.96,8.25
			c0.35,2.33,0.96,4.99,1.43,7.24c0.34,1.7,0.61,3.47,0.42,5.2c-0.19,1.74-0.82,3.42-1.5,5.02c0,0-1.49,3.37-1.49,3.37
			c-0.77,1.79-1.37,3.67-1.64,5.61c-0.45,3.25-0.14,6.58,0.32,9.82c0.29,1.91,0.65,3.87,1.15,5.73c0.25,0.88,0.56,1.83,1.13,2.55
			c0.05,0.06,0.07,0.09,0.07,0.09c0.05,0.06,0.08,0.08,0.08,0.08c0.05,0.05,0.08,0.08,0.08,0.08c0.05,0.05,0.08,0.07,0.08,0.07
			c0.05,0.05,0.08,0.07,0.08,0.07c0.06,0.04,0.07,0.05,0.07,0.05c0.06,0.04,0.07,0.05,0.07,0.05c0.06,0.04,0.07,0.04,0.07,0.04
			c0.06,0.03,0.07,0.04,0.07,0.04c0.05,0.02,0.06,0.03,0.06,0.03c0.05,0.02,0.06,0.03,0.06,0.03c0.05,0.02,0.06,0.02,0.06,0.02
			c0.05,0.02,0.06,0.02,0.06,0.02c0.05,0.01,0.07,0.02,0.07,0.02c0.05,0.01,0.07,0.02,0.07,0.02c0.04,0.01,0.06,0.01,0.06,0.01
			c0.04,0.01,0.06,0.01,0.06,0.01c0.65,0.08,1.22-0.11,1.8-0.31c0.86-0.31,1.99-0.82,2.84-1.14c0.95-0.36,1.93-0.66,2.94-0.8
			c0.65-0.09,1.32-0.11,1.97-0.08c2.79,0.14,5.56,1.1,8.29,1.59c0.97,0.16,1.99,0.29,2.96,0.1c1.27-0.25,2.2-1.21,2.72-2.31
			c0.76-1.57,0.95-3.35,1.01-5.08c0.05-2.29-0.05-5.27,0.11-7.55c0.18-2.83,0.63-5.79,1.1-8.59c0,0,3.89-20.6,3.89-20.6
			c1.29-7.44,2.25-15.14,2.53-22.69c0.37-8.61-0.43-19.91-0.64-28.57c-0.14-5.25,0.03-10.63,0.85-15.82
			c0.53-3.78,2.8-14.05,3.59-17.93c0.98-4.98,1.89-10.48,2.5-15.51c0.73-5.53,1.5-16.61,2.5-22.07c0.14-0.65,0.29-1.37,0.59-1.95
			c0.03-0.06,0.05-0.08,0.05-0.08c0.04-0.06,0.05-0.07,0.05-0.07c0.04-0.06,0.05-0.06,0.05-0.06c0.06-0.06,0.06-0.06,0.06-0.06
			c0.06-0.04,0.06-0.04,0.06-0.04c0.06-0.02,0.06-0.02,0.06-0.02c0.06,0,0.06,0,0.06,0c0.06,0.02,0.06,0.02,0.06,0.02
			c0.06,0.04,0.07,0.05,0.07,0.05c0.05,0.06,0.06,0.07,0.06,0.07c0.04,0.06,0.04,0.07,0.04,0.07c0.03,0.06,0.04,0.07,0.04,0.07
			c0.02,0.04,0.03,0.06,0.03,0.06c0.26,0.63,0.35,1.28,0.46,1.94c0.64,3.91,1.58,23.7,1.91,28c0.56,9.51,2.87,24.15,4.24,33.75
			c0.71,5.28,1.4,11.62,1.83,16.91c1.94,22.54,2.15,52.17,2.76,74.95c0.12,2.51,0.25,5.21,0.67,7.7c0.14,0.75,0.3,1.61,0.71,2.24
			c0.03,0.04,0.04,0.06,0.04,0.06c0.04,0.06,0.06,0.08,0.06,0.08c0.05,0.05,0.06,0.07,0.06,0.07c0.05,0.05,0.07,0.07,0.07,0.07
			c0.05,0.05,0.07,0.06,0.07,0.06c0.05,0.04,0.07,0.06,0.07,0.06c0.06,0.04,0.07,0.05,0.07,0.05c0.06,0.04,0.08,0.05,0.08,0.05
			c0.05,0.03,0.06,0.03,0.06,0.03c0.05,0.02,0.06,0.03,0.06,0.03c0.04,0.02,0.06,0.03,0.06,0.03c0.04,0.02,0.07,0.02,0.07,0.02
			c0.05,0.01,0.07,0.02,0.07,0.02c0.05,0.01,0.07,0.02,0.07,0.02c0.05,0.01,0.07,0.01,0.07,0.01c0.05,0.01,0.08,0.01,0.08,0.01
			c0.62,0.04,1.15-0.13,1.71-0.3c0.83-0.27,2.28-0.86,3.11-1.16c1.33-0.47,2.73-0.88,4.15-0.89c2.27-0.01,4.38,1.01,6.32,2.09
			c2.37,1.31,4.91,3.11,7.64,3.48c0.93,0.12,2,0.07,2.74-0.5c0.06-0.05,0.07-0.06,0.07-0.06c0.06-0.05,0.07-0.06,0.07-0.06
			c0.05-0.05,0.07-0.07,0.07-0.07c0.05-0.05,0.07-0.07,0.07-0.07c0.05-0.06,0.06-0.07,0.06-0.07c0.04-0.04,0.05-0.06,0.05-0.06
			c0.03-0.05,0.05-0.07,0.05-0.07c0.03-0.05,0.05-0.07,0.05-0.07c0.03-0.05,0.05-0.08,0.05-0.08c0.03-0.05,0.04-0.08,0.04-0.08
			c0.03-0.05,0.04-0.08,0.04-0.08c0.24-0.51,0.32-0.99,0.37-1.53c0.05-0.68,0.02-1.38-0.04-2.07c-0.17-1.99-1.02-6.04-1.37-8.06
			c-0.29-1.66-0.55-3.49-0.73-5.17c-1.2-10.36-0.09-25.61,0.22-36.13c0.13-4.72,0.08-12.37,0.04-17.15"/>
	</g>
	<g id="POLYLINE_1049_">
		<polyline class="st74" points="280.57,505.18 281.12,516.84 279.06,516.94 278.4,502.94 279.44,502.89 		"/>
	</g>
	<g id="POLYLINE_691_">
		<path class="st74" d="M278.8,511.44c-1.69-1.86-4.63-2.93-6.84-4.04c-1.33-0.68-2.9-1.45-3.62-2.81
			c-0.44-0.82-0.56-1.71-0.59-2.62"/>
	</g>
	<g id="POLYLINE_690_">
		<path class="st74" d="M243.94,498.71c-1.27,5.26-2.47,10.69-2.78,16.11c-0.04,0.97-0.06,1.97,0.06,2.93
			c0.09,0.74,0.29,1.55,0.73,2.14c0.04,0.06,0.07,0.09,0.07,0.09c0.05,0.06,0.07,0.08,0.07,0.08c0.05,0.05,0.07,0.08,0.07,0.08
			c0.05,0.05,0.07,0.08,0.07,0.08c0.05,0.05,0.08,0.07,0.08,0.07c0.05,0.05,0.08,0.07,0.08,0.07c0.05,0.05,0.08,0.07,0.08,0.07
			c0.06,0.04,0.09,0.07,0.09,0.07c0.61,0.44,1.27,0.61,1.97,0.74c1,0.17,2.06,0.19,3.08,0.21c6.11-0.01,19.97,0.06,25.89-0.06
			c1.32-0.04,2.86-0.09,4.16-0.25c0.76-0.1,1.64-0.21,2.3-0.59c0.06-0.04,0.08-0.05,0.08-0.05c0.06-0.04,0.07-0.05,0.07-0.05
			c0.05-0.04,0.07-0.05,0.07-0.05c0.05-0.04,0.06-0.05,0.06-0.05c0.05-0.04,0.06-0.06,0.06-0.06c0.06-0.06,0.07-0.07,0.07-0.07
			c0.04-0.05,0.05-0.06,0.05-0.06c0.04-0.05,0.05-0.06,0.05-0.06c0.03-0.05,0.04-0.07,0.04-0.07c0.03-0.05,0.04-0.07,0.04-0.07
			c0.03-0.05,0.04-0.07,0.04-0.07c0.03-0.05,0.03-0.07,0.03-0.07c0.02-0.06,0.03-0.08,0.03-0.08"/>
	</g>
	<g id="POLYLINE_689_">
		<path class="st74" d="M279,515.67c-0.88,0.28-1.76,0.63-2.57,1.08c-0.6,0.34-1.25,0.77-1.64,1.31c-0.03,0.05-0.04,0.06-0.04,0.06
			c-0.03,0.05-0.04,0.06-0.04,0.06c-0.03,0.05-0.04,0.06-0.04,0.06c-0.02,0.05-0.03,0.06-0.03,0.06c-0.02,0.04-0.03,0.06-0.03,0.06
			c-0.03,0.06-0.03,0.07-0.03,0.07c-0.02,0.06-0.03,0.07-0.03,0.07c-0.02,0.06-0.02,0.07-0.02,0.07c-0.01,0.06-0.02,0.07-0.02,0.07
			c-0.01,0.06-0.01,0.07-0.01,0.07c-0.01,0.06-0.01,0.07-0.01,0.07c0,0.05,0,0.07,0,0.07c0,0.05,0,0.07,0,0.07c0,0.05,0,0.07,0,0.07
			c0.01,0.05,0.01,0.06,0.01,0.06c0.01,0.05,0.01,0.06,0.01,0.06c0.01,0.05,0.01,0.06,0.01,0.06c0.01,0.05,0.02,0.06,0.02,0.06
			c0.02,0.06,0.03,0.07,0.03,0.07c0.02,0.06,0.03,0.07,0.03,0.07c0.03,0.06,0.03,0.07,0.03,0.07c0.03,0.05,0.04,0.07,0.04,0.07
			c0.03,0.05,0.04,0.06,0.04,0.06c0.04,0.05,0.04,0.06,0.04,0.06c0.04,0.05,0.06,0.07,0.06,0.07c0.05,0.06,0.07,0.07,0.07,0.07
			c0.05,0.05,0.07,0.07,0.07,0.07c0.06,0.05,0.08,0.07,0.08,0.07c0.04,0.03,0.06,0.05,0.06,0.05c0.04,0.03,0.07,0.04,0.07,0.04
			c0.05,0.03,0.07,0.04,0.07,0.04c0.05,0.03,0.07,0.04,0.07,0.04c0.05,0.02,0.08,0.04,0.08,0.04c0.05,0.02,0.08,0.03,0.08,0.03
			c0.05,0.02,0.08,0.03,0.08,0.03c0.06,0.02,0.08,0.03,0.08,0.03c0.06,0.02,0.09,0.03,0.09,0.03c0.48,0.13,0.91,0.12,1.39,0.08
			c0.67-0.06,1.52-0.22,2.19-0.33c1.57-0.29,3.59-0.61,5.12-1.01c0.33-0.09,0.73-0.21,1.03-0.35c0.1-0.05,0.16-0.08,0.21-0.11
			c0.04-0.02,0.06-0.04,0.06-0.04c0.06-0.04,0.07-0.05,0.07-0.05c0.05-0.04,0.07-0.05,0.07-0.05c0.05-0.04,0.06-0.05,0.06-0.05
			c0.06-0.06,0.07-0.07,0.07-0.07c0.05-0.06,0.05-0.06,0.05-0.06c0.04-0.06,0.04-0.06,0.04-0.06c0.03-0.06,0.04-0.07,0.04-0.07
			c0.02-0.05,0.03-0.06,0.03-0.06c0.02-0.06,0.02-0.07,0.02-0.07c0.01-0.05,0.01-0.06,0.01-0.06c0.01-0.05,0.01-0.06,0.01-0.06
			c0-0.05,0.01-0.07,0.01-0.07c0-0.06,0-0.08,0-0.08c0-0.04,0-0.06,0-0.06c-0.02-0.42-0.12-0.74-0.22-1.11
			c-0.12-0.41-0.27-0.89-0.44-1.28c-0.02-0.04-0.03-0.06-0.03-0.06c-0.03-0.05-0.03-0.06-0.03-0.06c-0.04-0.06-0.04-0.07-0.04-0.07
			c-0.04-0.05-0.05-0.06-0.05-0.06c-0.06-0.06-0.06-0.07-0.06-0.07c-0.05-0.04-0.06-0.05-0.06-0.05c-0.05-0.03-0.06-0.04-0.06-0.04
			c-0.06-0.03-0.07-0.04-0.07-0.04c-0.05-0.02-0.06-0.03-0.06-0.03c-0.05-0.02-0.07-0.02-0.07-0.02c-0.06-0.02-0.08-0.02-0.08-0.02
			c-0.05-0.01-0.06-0.01-0.06-0.01c-0.05-0.01-0.07-0.01-0.07-0.01c-0.54-0.07-1-0.01-1.52,0.05c-0.72,0.09-1.49,0.24-2.2,0.4"/>
	</g>
	<g id="POLYLINE_688_">
		<polyline class="st74" points="279.44,502.89 279.02,500.25 282.2,499.76 282.99,504.8 280.57,505.18 		"/>
	</g>
	<g id="POLYLINE_687_">
		<path class="st74" d="M257.88,366.48c0.02,0.11,2.73,18.08,2.75,18.17c0.01,0.05,0.02,0.08,0.02,0.08
			c0.01,0.05,0.02,0.08,0.02,0.08c0.02,0.05,0.03,0.08,0.03,0.08c0.02,0.05,0.03,0.08,0.03,0.08c0.02,0.05,0.03,0.08,0.03,0.08
			c0.02,0.05,0.04,0.08,0.04,0.08c0.03,0.05,0.04,0.08,0.04,0.08c0.03,0.05,0.05,0.07,0.05,0.07c0.03,0.05,0.05,0.07,0.05,0.07
			c0.03,0.05,0.05,0.07,0.05,0.07c0.04,0.04,0.06,0.07,0.06,0.07c0.04,0.04,0.06,0.06,0.06,0.06c0.04,0.04,0.06,0.06,0.06,0.06
			c0.04,0.04,0.06,0.06,0.06,0.06c0.04,0.04,0.07,0.05,0.07,0.05c0.05,0.03,0.07,0.05,0.07,0.05c0.05,0.03,0.07,0.05,0.07,0.05
			c0.05,0.03,0.07,0.04,0.07,0.04c0.05,0.03,0.07,0.04,0.07,0.04c0.05,0.02,0.07,0.03,0.07,0.03"/>
	</g>
	<g id="POLYLINE_686_">
		<path class="st74" d="M264.49,385.5c0.04-0.04,0.06-0.05,0.06-0.05c0.06-0.06,0.08-0.08,0.08-0.08c0.04-0.04,0.06-0.06,0.06-0.06
			c0.04-0.04,0.05-0.06,0.05-0.06c0.03-0.04,0.05-0.07,0.05-0.07c0.03-0.05,0.05-0.07,0.05-0.07c0.03-0.05,0.05-0.07,0.05-0.07
			c0.03-0.05,0.04-0.08,0.04-0.08c0.03-0.05,0.04-0.08,0.04-0.08c0.02-0.05,0.03-0.08,0.03-0.08c0.02-0.05,0.03-0.08,0.03-0.08
			c0.02-0.05,0.03-0.08,0.03-0.08c0.02-0.06,0.02-0.08,0.02-0.08c0.01-0.06,0.02-0.08,0.02-0.08c0.01-0.06,0.01-0.08,0.01-0.08
			c0.01-0.06,0.01-0.08,0.01-0.08c0-0.06,0.01-0.08,0.01-0.08c0-0.06,0-0.08,0-0.08c0-0.06,0-0.08,0-0.08
			c0-0.05-0.01-0.08-0.01-0.08c0-0.05-2.66-17.56-2.66-17.63"/>
	</g>
	<g id="POLYLINE_685_">
		<path class="st74" d="M281.78,499.82l-17.56-116.1c-0.01-0.05-0.01-0.07-0.01-0.07c-0.01-0.05-0.02-0.06-0.02-0.06
			c-0.02-0.05-0.02-0.06-0.02-0.06c-0.02-0.05-0.03-0.06-0.03-0.06c-0.03-0.05-0.03-0.06-0.03-0.06c-0.04-0.06-0.04-0.07-0.04-0.07
			c-0.04-0.05-0.05-0.06-0.05-0.06c-0.05-0.06-0.06-0.07-0.06-0.07c-0.06-0.05-0.07-0.06-0.07-0.06c-0.05-0.04-0.06-0.05-0.06-0.05
			c-0.06-0.04-0.07-0.04-0.07-0.04c-0.05-0.03-0.06-0.03-0.06-0.03c-0.05-0.02-0.06-0.03-0.06-0.03c-0.05-0.02-0.06-0.02-0.06-0.02
			c-0.06-0.01-0.07-0.02-0.07-0.02c-0.06-0.01-0.07-0.01-0.07-0.01c-0.06-0.01-0.07-0.01-0.07-0.01c-0.06,0-0.07,0-0.07,0
			c-0.06,0-0.07,0-0.07,0c-0.06,0.01-0.07,0.01-0.07,0.01l-1,0.16c-0.05,0.01-0.07,0.01-0.07,0.01c-0.05,0.01-0.06,0.02-0.06,0.02
			c-0.05,0.02-0.06,0.02-0.06,0.02c-0.05,0.02-0.06,0.03-0.06,0.03c-0.05,0.03-0.06,0.03-0.06,0.03c-0.06,0.04-0.07,0.04-0.07,0.04
			c-0.05,0.04-0.06,0.05-0.06,0.05c-0.06,0.05-0.07,0.06-0.07,0.06c-0.05,0.06-0.06,0.07-0.06,0.07c-0.04,0.05-0.05,0.06-0.05,0.06
			c-0.04,0.06-0.04,0.07-0.04,0.07c-0.03,0.05-0.03,0.06-0.03,0.06c-0.02,0.05-0.03,0.06-0.03,0.06c-0.02,0.05-0.02,0.06-0.02,0.06
			c-0.01,0.06-0.02,0.07-0.02,0.07c-0.01,0.06-0.01,0.07-0.01,0.07c-0.01,0.06-0.01,0.07-0.01,0.07c0,0.06,0,0.07,0,0.07
			c0,0.06,0,0.07,0,0.07c0,0.02,18.05,116.07,18.05,116.1"/>
	</g>
	<g id="POLYLINE_684_">
		<line class="st74" x1="279.45" y1="500.18" x2="281.78" y2="499.82"/>
	</g>
	<g id="POLYLINE_683_">
		<path class="st74" d="M185.31,497.28c-0.84,5.51-1.9,11.47-1.95,17.03c0.01,1.24,0.08,2.51,0.41,3.71
			c0.87,3.12,3.18,3.41,5.99,3.44c3.68-0.01,13.85,0.03,17.37-0.03c1-0.03,2.15-0.06,3.13-0.17c0.65-0.07,1.4-0.17,1.97-0.47
			c0.05-0.02,0.07-0.04,0.07-0.04c0.04-0.03,0.06-0.04,0.06-0.04c0.04-0.03,0.06-0.04,0.06-0.04c0.06-0.04,0.08-0.06,0.08-0.06
			c0.05-0.04,0.07-0.06,0.07-0.06c0.05-0.05,0.07-0.06,0.07-0.06c0.05-0.05,0.06-0.06,0.06-0.06c0.04-0.05,0.06-0.07,0.06-0.07
			c0.04-0.05,0.05-0.07,0.05-0.07c0.04-0.06,0.05-0.07,0.05-0.07c0.04-0.06,0.05-0.08,0.05-0.08c0.02-0.04,0.03-0.06,0.03-0.06
			c0.23-0.48,0.29-0.92,0.37-1.41c0.08-0.58,0.12-1.18,0.12-1.76c0.01-3.04-0.91-6.01-1.85-8.87l-2.38-6.93"/>
	</g>
	<g id="POLYLINE_682_">
		<path class="st74" d="M235.07,297.83c5.42,0.63,10.96,0.16,16.21-1.27c3.44-0.92,6.78-2.28,9.87-4.04"/>
	</g>
	<g id="POLYLINE_681_">
		<path class="st74" d="M190.87,262.37c-0.37,1.49-0.7,3.17-1.29,4.59c-0.79,1.98-1.89,4.08-2.28,6.18
			c-0.12,0.63-0.16,1.36-0.05,1.96c0.13,0.8,0.46,1.48,0.89,2.11c0.89,1.27,2.14,2.25,3.38,3.18c5.28,3.86,11.22,6.87,17.18,9.53"/>
	</g>
	<g id="POLYLINE_680_">
		<path class="st74" d="M264.3,356.07l0.74-0.47c0.61-0.39,1.25-0.91,1.64-1.49c0.53-0.77,0.77-1.57,0.98-2.46
			c0.64-3.07,0.53-6.35,0.48-9.47c-0.17-7.42-1.14-16.38,0.54-23.63c0.85-3.85,2.48-7.52,4.21-11.05l5.43-10.53
			c1.96-3.91,3.63-8.02,4.71-12.26c2.34-9.37,3.22-19.5,4-29.12c0.37-3.84,1.23-7.68,2.33-11.38"/>
	</g>
	<g id="POLYLINE_679_">
		<path class="st74" d="M271.39,246.44c1.66,0.4,3.37,0.78,5.08,0.9c1.33,0.1,2.69,0.05,4.01-0.15c1.44-0.22,2.88-0.62,4.26-1.08
			c1.84-0.62,3.66-1.4,5.39-2.27c1.03-0.52,2.08-1.09,3.04-1.73c0.59-0.39,1.24-0.88,1.66-1.43c0.64-0.85,0.7-1.88,0.75-2.88
			c0.03-0.8-0.01-1.68-0.06-2.48c-0.44-6.14-0.96-13.47-0.99-19.58c-0.01-3.02,0.19-6.56-0.04-9.56c-0.29-3.93-0.9-7.91-1.87-11.74
			c-0.75-2.91-1.75-5.86-3.82-8.12c-1.21-1.35-2.66-2.48-4.13-3.53c-2.22-1.58-4.67-3.03-7.06-4.34c-3.1-1.65-6.34-3.22-9.69-4.28
			c-2.45-0.78-5.06-1.2-7.6-1.55"/>
	</g>
	<g id="POLYLINE_678_">
		<path class="st74" d="M252.56,336.16c0.06-2.2,0.15-4.49,0.65-6.63c0.43-2.01,1.91-6.17,2.55-8.19c0.61-1.88,1.19-3.96,1.65-5.88
			c1.31-5.5,2.24-11.46,3.01-17.06c0.54-4.13,1.72-14.55,2.48-18.52c1.18-6.89,4.08-16.19,5.96-22.99
			c1.86-6.51,4.27-18.97,5.71-25.69l2.9-12.44"/>
	</g>
	<g id="POLYLINE_677_">
		<path class="st74" d="M196.27,264.71c0.96,1.55,2.03,3.24,3.25,4.58c1.17,1.33,2.74,2.9,3.63,4.42c0.49,0.83,0.79,1.75,1.04,2.68
			c0.32,1.24,0.86,3.35,1.24,4.53c0.55,1.76,1.31,3.87,1.95,5.6c1.72,4.57,3.74,9.35,5.78,13.79c2.17,4.65,4.5,9.44,7.35,13.72
			c1.7,2.58,3.7,5.02,5.8,7.29c2.33,2.5,7.72,8,9.78,10.58c0.7,0.86,1.39,1.79,1.96,2.74c0.48,0.77,1.11,2.02,1.55,2.82
			c0.25,0.45,0.7,1.14,0.97,1.59c0.7,1.14,1.14,2.45,1.53,3.73c0.84,2.86,1.83,6.57,2.96,9.29c0.8,1.99,1.79,3.92,2.98,5.7
			c2.02,2.99,4.55,5.77,7.65,7.66c1.35,0.8,2.87,1.43,4.46,1.47c0.9,0.02,1.87-0.19,2.56-0.74c0.06-0.05,0.09-0.07,0.09-0.07
			c0.06-0.05,0.08-0.07,0.08-0.07c0.05-0.05,0.08-0.08,0.08-0.08c0.05-0.05,0.08-0.08,0.08-0.08c0.46-0.5,0.71-1.1,0.88-1.71
			c0.19-0.71,0.27-1.46,0.32-2.19c0.09-2.06,0.09-4.52,0.04-6.58c-0.08-2.13-0.26-4.33-1.14-6.3c-0.75-1.71-1.94-3.25-3.06-4.73
			c-1.64-2.12-3.37-4.3-5.33-6.14c-0.66-0.61-1.72-1.53-2.31-2.16c-0.5-0.53-0.97-1.12-1.4-1.72c-1.06-1.49-2.04-3.17-2.93-4.77
			c-1.86-3.35-3.88-7.54-5.54-11.01c-2.12-4.51-4.16-9.23-5.61-14.01c-0.79-2.6-2.44-8.85-3.31-11.37
			c-0.62-1.88-1.39-3.81-2.21-5.62c-1.55-3.43-3.63-7.23-5.06-10.71c-0.57-1.41-1.05-2.92-1.44-4.39c-0.49-1.88-1.24-4.98-1.84-6.79
			c-0.81-2.57-1.97-5.64-2.94-8.17"/>
	</g>
	<g id="POLYLINE_676_">
		<path class="st74" d="M218.02,179.75l-3.56,1.29c-1.8,0.68-3.58,1.48-5.24,2.46c-2.22,1.3-4.31,2.91-6.28,4.55
			c-3.79,3.19-7.38,6.73-10.68,10.42c-2.33,2.64-4.62,5.43-6.53,8.39c-1.47,2.28-2.74,4.76-3.31,7.43c-0.58,2.66-0.41,5.42-0.12,8.1
			c1.01,8.92,3.45,20.52,5.11,29.38c0.49,2.34,1.01,4.79,1.76,7.06c0.61,1.76,1.37,3.75,3.03,4.75c1.18,0.7,2.57,0.89,3.9,1.1
			c4.1,0.57,8.31,0.62,12.42,0.15c2.6-0.32,5.22-0.83,7.7-1.71c1.13-0.42,2.42-0.94,3.26-1.8c0.73-0.76,0.76-1.8,0.76-2.77
			c-0.02-1.28-0.23-2.58-0.48-3.84c-0.74-3.63-1.86-7.26-3.14-10.73c-1.16-3.08-2.5-6.14-4.18-8.97"/>
	</g>
	<g id="POLYLINE_675_">
		<path class="st74" d="M261.99,204.02c1.51-0.09,2.97-0.62,4.31-1.29c0.85-0.45,1.82-0.94,2.44-1.68c0.05-0.06,0.06-0.08,0.06-0.08
			c0.04-0.06,0.06-0.08,0.06-0.08c0.13-0.19,0.21-0.35,0.27-0.52c0.02-0.04,0.02-0.07,0.02-0.07c0.01-0.05,0.02-0.07,0.02-0.07
			c0.01-0.05,0.02-0.07,0.02-0.07c0.01-0.05,0.02-0.07,0.02-0.07c0.13-0.73-0.07-1.39-0.28-2.06c-0.69-1.88-1.82-4.01-2.49-5.93
			c-0.83-2.19-2.1-6.31-2.94-8.49c-0.72-1.9-1.8-4.07-2.7-5.91"/>
	</g>
	<g id="POLYLINE_674_">
		<path class="st74" d="M219.18,178.66c-1.5,1.31-2.88,2.81-3.77,4.6c-0.9,1.78-1.4,3.75-1.66,5.72c-0.5,3.9-0.02,7.89,1.03,11.67
			c0.67,2.37,1.57,4.71,2.86,6.82c0.86,1.38,2,2.76,3.45,3.52c1.66,0.9,3.6,0.99,5.45,0.88c2.62-0.15,5.29-0.51,7.71-1.57"/>
	</g>
	<g id="POLYLINE_673_">
		<path class="st74" d="M220.96,181.92c-0.2,1.99-0.32,4.03-0.11,6.02c0.19,1.93,0.66,3.84,1.27,5.68
			c1.47,4.32,3.62,8.47,6.58,11.96"/>
	</g>
	<g id="POLYLINE_672_">
		<path class="st74" d="M221.86,174.55c-0.68-0.45-1.51-0.9-2.31-0.97c-0.04,0-0.07,0-0.07,0c-0.04,0-0.06,0-0.06,0
			c-0.04,0-0.06,0-0.06,0c-0.04,0-0.06,0-0.06,0c-0.04,0-0.06,0.01-0.06,0.01c-0.06,0.01-0.07,0.01-0.07,0.01
			c-0.06,0.01-0.07,0.02-0.07,0.02c-0.05,0.02-0.06,0.02-0.06,0.02c-0.05,0.02-0.06,0.03-0.06,0.03c-0.05,0.03-0.06,0.03-0.06,0.03
			c-0.06,0.04-0.07,0.04-0.07,0.04c-0.05,0.04-0.06,0.05-0.06,0.05c-0.06,0.05-0.07,0.06-0.07,0.06c-0.05,0.06-0.06,0.07-0.06,0.07
			c-0.04,0.06-0.05,0.06-0.05,0.06c-0.03,0.04-0.04,0.06-0.04,0.06c-0.03,0.06-0.04,0.07-0.04,0.07c-0.03,0.06-0.04,0.08-0.04,0.08
			c-0.02,0.04-0.03,0.06-0.03,0.06c-0.02,0.04-0.03,0.06-0.03,0.06c-0.02,0.04-0.02,0.07-0.02,0.07c-0.21,0.72-0.13,1.41,0,2.11
			c0.25,1.18,0.79,2.27,1.36,3.32l1.36,2.41c0.32,0.58,0.63,1.2,0.87,1.82c0.22,0.55,0.51,1.46,0.84,1.94
			c0.03,0.05,0.05,0.07,0.05,0.07c0.04,0.05,0.05,0.06,0.05,0.06c0.05,0.06,0.06,0.07,0.06,0.07c0.05,0.06,0.07,0.07,0.07,0.07
			c0.06,0.05,0.07,0.06,0.07,0.06c0.05,0.04,0.06,0.05,0.06,0.05c0.04,0.03,0.06,0.05,0.06,0.05c0.04,0.03,0.07,0.04,0.07,0.04
			c0.05,0.03,0.07,0.04,0.07,0.04c0.05,0.03,0.07,0.04,0.07,0.04c0.05,0.02,0.07,0.03,0.07,0.03c0.05,0.02,0.07,0.03,0.07,0.03
			c0.39,0.15,0.7,0.19,1.08,0.24"/>
	</g>
	<g id="POLYLINE_671_">
		<path class="st74" d="M224.5,185.36c0.55,4.02,1.15,8.89,1.97,12.84c0.35,1.71,0.76,3.49,1.31,5.15c0.64,1.94,1.61,3.91,3.21,5.24
			c1.88,1.61,4.4,2.15,6.81,2.31c2.35,0.15,4.77,0.08,7.12-0.1c3.34-0.28,6.71-0.78,9.96-1.62c1.21-0.33,2.44-0.72,3.58-1.25
			c0.87-0.4,1.77-0.96,2.39-1.67c0.92-1.04,1.25-2.34,1.4-3.66c0.28-2.59,0.19-5.26,0.01-7.85c-0.27-3.91-0.86-8.6-1.36-12.51"/>
	</g>
	<g id="POLYLINE_670_">
		<path class="st74" d="M223.2,163.33c-0.76,1.73-1.17,3.61-1.36,5.49c-0.27,2.71-0.1,5.48,0.31,8.17c0.69,4.35,2,8.74,4.58,12.37
			c3.66,5.19,9.84,7.17,15.99,6.99c2.66-0.08,5.34-0.52,7.88-1.35c1.84-0.61,3.64-1.43,5.21-2.56c1.49-1.07,2.77-2.45,3.63-4.08
			c0.76-1.42,1.18-3.01,1.35-4.61c0.23-2.06,0.13-4.18-0.02-6.24c-0.06-0.69-0.75-8.97-0.82-9.39c-0.2-1.7-0.54-3.41-1.25-4.98
			c-1.23-2.8-3.61-4.9-6.12-6.55c-2.03-1.32-4.24-2.39-6.53-3.16c-1.96-0.65-4.02-1.1-6.09-1.09c-1.61,0-3.23,0.29-4.75,0.83
			c-1.71,0.6-3.31,1.5-4.82,2.49C227.42,157.57,224.64,160.03,223.2,163.33z"/>
	</g>
</g>
<g id="_x32_D_x24_AG-OUTLINE">
	<g id="POLYLINE_67_">
		<path class="st42" d="M758.78,163.58c27.84,0.24,67.21-0.13,94.68,1.87c2.24,0.1,4.57,0.2,6.8,0.02c0.98-0.1,2.06-0.23,2.96-0.64
			c0.06-0.03,0.08-0.04,0.08-0.04c0.05-0.03,0.08-0.04,0.08-0.04c0.05-0.03,0.08-0.05,0.08-0.05c0.05-0.03,0.07-0.05,0.07-0.05
			c0.05-0.04,0.07-0.05,0.07-0.05c0.05-0.04,0.07-0.06,0.07-0.06c0.05-0.04,0.07-0.06,0.07-0.06c0.04-0.04,0.07-0.06,0.07-0.06
			c0.04-0.05,0.06-0.07,0.06-0.07c0.04-0.05,0.06-0.07,0.06-0.07c0.04-0.05,0.06-0.08,0.06-0.08c0.04-0.05,0.06-0.08,0.06-0.08
			c0.32-0.49,0.46-0.98,0.6-1.52c0.2-0.81,0.33-1.71,0.44-2.54c1.75-15.99,2.2-43.68,3.75-59.68c0.28-2.94,0.72-6.26,1.24-9.16
			c0.05-0.35,0.11-0.74,0.1-1.09c0-0.06,0-0.09,0-0.09c0-0.06-0.01-0.09-0.01-0.09c-0.01-0.06-0.01-0.08-0.01-0.08
			c-0.01-0.05-0.01-0.07-0.01-0.07c-0.01-0.05-0.01-0.06-0.01-0.06c-0.01-0.05-0.02-0.06-0.02-0.06c-0.02-0.05-0.02-0.06-0.02-0.06
			c-0.02-0.06-0.03-0.07-0.03-0.07c-0.03-0.06-0.03-0.07-0.03-0.07c-0.03-0.05-0.04-0.06-0.04-0.06c-0.03-0.05-0.04-0.06-0.04-0.06
			c-0.04-0.06-0.05-0.07-0.05-0.07c-0.05-0.06-0.06-0.07-0.06-0.07c-0.06-0.05-0.07-0.06-0.07-0.06c-0.05-0.04-0.06-0.05-0.06-0.05
			c-0.06-0.04-0.07-0.05-0.07-0.05c-0.04-0.02-0.06-0.04-0.06-0.04c-0.05-0.03-0.08-0.05-0.08-0.05c-0.05-0.03-0.08-0.05-0.08-0.05
			c-0.37-0.19-0.7-0.28-1.08-0.38c-0.51-0.13-1.06-0.23-1.57-0.31c-3.43-0.53-7-0.58-10.47-0.53c-9.9,0.26-22.36,1.85-32.25,2.13
			c-6.83,0.24-13.9-0.13-20.71-0.74c-13.67-1.32-33.89-3.78-47.44-3.79c-0.05,0-0.06,0-0.06,0c-0.05,0-0.06,0-0.06,0
			c-0.05,0.01-0.06,0.01-0.06,0.01c-0.05,0.01-0.06,0.01-0.06,0.01c-0.05,0.01-0.06,0.01-0.06,0.01c-0.05,0.01-0.06,0.02-0.06,0.02
			c-0.05,0.01-0.06,0.02-0.06,0.02c-0.05,0.02-0.06,0.02-0.06,0.02c-0.06,0.03-0.07,0.03-0.07,0.03c-0.06,0.03-0.07,0.04-0.07,0.04
			c-0.06,0.03-0.07,0.04-0.07,0.04c-0.05,0.04-0.07,0.05-0.07,0.05c-0.05,0.04-0.06,0.05-0.06,0.05c-0.06,0.05-0.07,0.06-0.07,0.06
			c-0.05,0.06-0.07,0.07-0.07,0.07c-0.04,0.05-0.05,0.06-0.05,0.06c-0.04,0.05-0.05,0.06-0.05,0.06c-0.04,0.05-0.04,0.07-0.04,0.07
			c-0.03,0.06-0.04,0.07-0.04,0.07c-0.03,0.06-0.04,0.07-0.04,0.07c-0.02,0.04-0.02,0.06-0.02,0.06c-0.02,0.05-0.02,0.06-0.02,0.06
			c-0.01,0.05-0.02,0.06-0.02,0.06c-0.01,0.05-0.02,0.06-0.02,0.06c-0.01,0.05-0.01,0.06-0.01,0.06c-0.01,0.05-0.01,0.06-0.01,0.06
			c0,0.05-0.01,0.06-0.01,0.06c0,0.05,0,0.06,0,0.06c0,44.15,0,399.61,0,452.89h-0.94c0,0-8.84-1.21-8.84-1.21v3.22h8.84v2.01h0.94
			v11.55h4.19v-11.55h0.94v-2.01h8.84v-3.22l-8.84,1.21h-0.94V163.58z"/>
	</g>
	<g id="POLYLINE_66_">
		<path class="st93" d="M310.85,516.77c0.01-2.23-1.62-4.17-3.73-4.6c-2.95-0.62-5.67,1.67-5.66,4.6c0,2.96,2.72,5.15,5.55,4.62
			C309.24,520.99,310.87,518.97,310.85,516.77z"/>
	</g>
	<g id="POLYLINE_25_">
		<path class="st93" d="M289.38,244.2c1.46-0.71,2.94-1.48,4.27-2.43c0.55-0.4,1.12-0.9,1.43-1.48c0.31-0.57,0.4-1.14,0.46-1.76
			c0.22-2.1-0.41-8.34-0.52-10.56c-0.23-3.88-0.47-8.39-0.48-12.25c-0.01-2.04,0.11-5.04,0.06-7.07c-0.1-4.46-0.75-8.96-1.75-13.3
			c-0.7-2.86-1.54-5.8-3.34-8.18c-1-1.33-2.27-2.45-3.58-3.46c-2.26-1.73-4.76-3.27-7.23-4.67c-3.33-1.84-6.82-3.58-10.44-4.77
			c-2.55-0.84-5.27-1.29-7.92-1.65c0,0-0.27-3.39-0.27-3.39c-0.21-2.39-0.61-4.83-1.78-6.95c-0.74-1.37-1.79-2.56-2.94-3.6
			c-1.31-1.17-2.78-2.19-4.31-3.05c-2.01-1.13-4.16-2.04-6.39-2.65c-2.2-0.6-4.53-0.86-6.8-0.5c-3.27,0.49-6.2,2.2-8.84,4.11
			c-2.28,1.65-4.35,3.71-5.58,6.27c-1.73,3.6-1.89,7.77-1.56,11.69c-0.68-0.45-1.51-0.9-2.31-0.97c-0.04,0-0.07,0-0.07,0
			c-0.04,0-0.06,0-0.06,0c-0.04,0-0.06,0-0.06,0c-0.04,0-0.06,0-0.06,0c-0.04,0-0.06,0.01-0.06,0.01c-0.06,0.01-0.07,0.01-0.07,0.01
			c-0.06,0.01-0.07,0.02-0.07,0.02c-0.05,0.02-0.06,0.02-0.06,0.02c-0.05,0.02-0.06,0.03-0.06,0.03c-0.05,0.03-0.06,0.03-0.06,0.03
			c-0.06,0.04-0.07,0.04-0.07,0.04c-0.05,0.04-0.06,0.05-0.06,0.05c-0.06,0.05-0.07,0.06-0.07,0.06c-0.05,0.06-0.06,0.07-0.06,0.07
			c-0.04,0.06-0.05,0.06-0.05,0.06c-0.03,0.04-0.04,0.06-0.04,0.06c-0.03,0.06-0.04,0.07-0.04,0.07c-0.03,0.06-0.04,0.08-0.04,0.08
			c-0.02,0.04-0.03,0.06-0.03,0.06c-0.02,0.04-0.03,0.06-0.03,0.06c-0.02,0.04-0.02,0.07-0.02,0.07c-0.18,0.62-0.14,1.17-0.06,1.77
			c0.13,0.87,0.46,1.71,0.83,2.5c-0.38,0.33-0.8,0.73-1.16,1.08l-3.56,1.29c-1.94,0.73-3.85,1.61-5.61,2.69
			c-3.52,2.15-6.7,4.91-9.72,7.71c-3.16,2.96-6.21,6.16-8.98,9.49c-2.01,2.44-3.97,5.01-5.53,7.77c-0.74,1.32-1.38,2.71-1.83,4.16
			c-0.41,1.32-0.65,2.7-0.73,4.08c-0.11,1.81,0.04,3.66,0.24,5.46c0.41,3.76,1.12,7.98,1.77,11.72c0.89,4.68,2.82,15.35,3.81,19.9
			c0.32,1.42,0.7,3.01,1.15,4.4c0.45,1.38,0.96,2.79,1.84,3.97c-0.21,0.81-0.49,2.11-0.72,2.9c-0.22,0.79-0.53,1.6-0.85,2.36
			c-0.66,1.56-1.52,3.37-1.9,5.01c-0.16,0.66-0.26,1.41-0.2,2.06c0.04,0.6,0.24,1.27,0.5,1.77c-1.65,4.66-2.83,9.56-3.6,14.44
			c-0.75,4.71-1.08,9.53-0.75,14.29c0.06,1.02,0.23,2.79,0.33,3.83c1.17,9.79,2.58,28.5,3.89,38.21c0.85,6.88,4.08,26.77,4.97,33.67
			c0.1,0.88,0.22,1.85,0.24,2.74c0.05,1.14-0.18,2.29-0.42,3.4c-2.65,11.39-5.35,23.57-6.31,35.22c-0.72,8.6-0.73,17.47-0.05,26.08
			c0.23,2.65,0.54,5.62,0.96,8.25c0.35,2.33,0.96,4.99,1.43,7.24c0.34,1.7,0.61,3.47,0.42,5.2c-0.19,1.74-0.82,3.42-1.5,5.02
			c0,0-1.49,3.37-1.49,3.37c-0.91,2.09-1.55,4.31-1.75,6.58c-0.17,1.81-0.11,3.67,0.04,5.49c0.22,2.6,0.65,5.23,1.22,7.78
			c-0.84,5.51-1.9,11.47-1.95,17.03c0.01,1.24,0.08,2.51,0.41,3.71c0.87,3.12,3.18,3.41,5.99,3.44c3.68-0.01,13.85,0.03,17.37-0.03
			c1-0.03,2.15-0.06,3.13-0.17c0.65-0.07,1.4-0.17,1.97-0.47c0.05-0.02,0.07-0.04,0.07-0.04c0.04-0.03,0.06-0.04,0.06-0.04
			c0.04-0.03,0.06-0.04,0.06-0.04c0.06-0.04,0.08-0.06,0.08-0.06c0.05-0.04,0.07-0.06,0.07-0.06c0.05-0.05,0.07-0.06,0.07-0.06
			c0.05-0.05,0.06-0.06,0.06-0.06c0.04-0.05,0.06-0.07,0.06-0.07c0.04-0.05,0.05-0.07,0.05-0.07c0.04-0.06,0.05-0.07,0.05-0.07
			c0.04-0.06,0.05-0.08,0.05-0.08c0.02-0.04,0.03-0.06,0.03-0.06c0.23-0.48,0.29-0.92,0.37-1.41c0.08-0.58,0.12-1.18,0.12-1.76
			c0.01-3.04-0.91-6.01-1.85-8.87l-2.38-6.93c1.88-0.66,2.65-2.66,3.01-4.45c0.52-2.74,0.21-6.03,0.32-8.81
			c0.09-3.37,0.61-6.83,1.17-10.15c0,0,3.89-20.6,3.89-20.6c1.29-7.44,2.25-15.14,2.53-22.69c0.37-8.61-0.43-19.91-0.64-28.57
			c-0.14-5.25,0.03-10.63,0.85-15.82c0.53-3.78,2.8-14.05,3.59-17.93c0.98-4.98,1.89-10.48,2.5-15.51c0.73-5.53,1.5-16.61,2.5-22.07
			c0.14-0.65,0.29-1.37,0.59-1.95c0.03-0.06,0.05-0.08,0.05-0.08c0.04-0.06,0.05-0.07,0.05-0.07c0.04-0.06,0.05-0.06,0.05-0.06
			c0.06-0.06,0.06-0.06,0.06-0.06c0.06-0.04,0.06-0.04,0.06-0.04c0.06-0.02,0.06-0.02,0.06-0.02c0.06,0,0.06,0,0.06,0
			c0.06,0.02,0.06,0.02,0.06,0.02c0.06,0.04,0.07,0.05,0.07,0.05c0.05,0.06,0.06,0.07,0.06,0.07c0.04,0.06,0.04,0.07,0.04,0.07
			c0.03,0.06,0.04,0.07,0.04,0.07c0.02,0.04,0.03,0.06,0.03,0.06c0.26,0.63,0.35,1.28,0.46,1.94c0.64,3.91,1.58,23.7,1.91,28
			c0.56,9.51,2.87,24.15,4.24,33.75c0.71,5.28,1.4,11.62,1.83,16.91c1.94,22.54,2.15,52.17,2.76,74.95c0.12,2.51,0.25,5.21,0.67,7.7
			c0.14,0.75,0.3,1.61,0.71,2.24c0.03,0.04,0.04,0.06,0.04,0.06c0.04,0.06,0.06,0.08,0.06,0.08c0.05,0.05,0.06,0.07,0.06,0.07
			c0.05,0.05,0.07,0.07,0.07,0.07c0.05,0.05,0.07,0.06,0.07,0.06c0.05,0.04,0.07,0.06,0.07,0.06c0.06,0.04,0.07,0.05,0.07,0.05
			c0.06,0.04,0.08,0.05,0.08,0.05c0.05,0.03,0.06,0.03,0.06,0.03c0.05,0.02,0.06,0.03,0.06,0.03c0.04,0.02,0.06,0.03,0.06,0.03
			c0.04,0.02,0.07,0.02,0.07,0.02c0.05,0.01,0.07,0.02,0.07,0.02c0.05,0.01,0.07,0.02,0.07,0.02c0.05,0.01,0.07,0.01,0.07,0.01
			c0.05,0.01,0.08,0.01,0.08,0.01c0.04,0,0.06,0.01,0.06,0.01c0.04,0-0.6,2.68-0.6,2.68c-0.14,0.63-0.42,1.86-0.55,2.48
			c-0.6,2.88-1.14,5.89-1.43,8.82c-0.14,1.48-0.25,3.01-0.15,4.49c0.07,0.92,0.24,1.95,0.78,2.71c0.04,0.06,0.07,0.09,0.07,0.09
			c0.05,0.06,0.07,0.08,0.07,0.08c0.05,0.05,0.07,0.08,0.07,0.08c0.05,0.05,0.07,0.08,0.07,0.08c0.05,0.05,0.08,0.07,0.08,0.07
			c0.05,0.05,0.08,0.07,0.08,0.07c0.05,0.05,0.08,0.07,0.08,0.07c0.06,0.04,0.09,0.07,0.09,0.07c0.61,0.44,1.27,0.61,1.97,0.74
			c1,0.17,2.06,0.19,3.08,0.21c6.11-0.01,19.97,0.06,25.89-0.06c1.32-0.04,2.86-0.09,4.16-0.25c0.76-0.1,1.64-0.21,2.3-0.59
			c0.06-0.04,0.08-0.05,0.08-0.05c0.06-0.04,0.07-0.05,0.07-0.05c0.05-0.04,0.07-0.05,0.07-0.05c0.05-0.04,0.06-0.05,0.06-0.05
			c0.05-0.04,0.06-0.06,0.06-0.06c0.06-0.06,0.07-0.07,0.07-0.07c0.04-0.05,0.05-0.06,0.05-0.06c0.04-0.05,0.05-0.06,0.05-0.06
			c0.03-0.05,0.04-0.07,0.04-0.07c0.03-0.05,0.04-0.07,0.04-0.07c0.03-0.05,0.04-0.07,0.04-0.07c0.03-0.05,0.03-0.07,0.03-0.07
			c0.02-0.06,0.03-0.08,0.03-0.08c1.09-0.2,2.48-0.45,3.55-0.72c0.39-0.1,0.85-0.23,1.21-0.4c0.1-0.05,0.16-0.08,0.21-0.11
			c0.04-0.02,0.06-0.04,0.06-0.04c0.06-0.04,0.07-0.05,0.07-0.05c0.05-0.04,0.07-0.05,0.07-0.05c0.05-0.04,0.06-0.05,0.06-0.05
			c0.06-0.06,0.07-0.07,0.07-0.07c0.05-0.06,0.05-0.06,0.05-0.06c0.04-0.06,0.04-0.06,0.04-0.06c0.03-0.06,0.04-0.07,0.04-0.07
			c0.02-0.05,0.03-0.06,0.03-0.06c0.02-0.06,0.02-0.07,0.02-0.07c0.01-0.05,0.01-0.06,0.01-0.06c0.01-0.05,0.01-0.06,0.01-0.06
			c0-0.05,0.01-0.07,0.01-0.07c0-0.06,0-0.08,0-0.08c0-0.04,0-0.06,0-0.06c-0.02-0.42-0.12-0.74-0.22-1.11
			c-0.12-0.41-0.27-0.89-0.44-1.28c-0.02-0.04-0.03-0.06-0.03-0.06c-0.03-0.05-0.03-0.06-0.03-0.06c-0.04-0.06-0.04-0.07-0.04-0.07
			c-0.04-0.05-0.05-0.06-0.05-0.06c-0.06-0.06-0.06-0.07-0.06-0.07c-0.05-0.04-0.06-0.05-0.06-0.05c-0.05-0.03-0.06-0.04-0.06-0.04
			c-0.06-0.03-0.07-0.04-0.07-0.04c-0.05-0.02-0.06-0.03-0.06-0.03c-0.05-0.02-0.07-0.02-0.07-0.02c-0.06-0.02-0.08-0.02-0.08-0.02
			c-0.05-0.01-0.06-0.01-0.06-0.01c-0.05-0.01-0.07-0.01-0.07-0.01c-0.54-0.07-1-0.01-1.52,0.05c-0.72,0.09-1.49,0.24-2.2,0.4
			l-0.47-9.94l2.42-0.38l-0.78-5.05l-0.43,0.07l-13.5-89.27c-0.06-7.22-0.46-20.52-0.1-27.57c0.07-1.26,0.19-2.57,0.44-3.81
			c0.2-0.97,0.53-2.47,0.65-3.43c0.17-0.87,1.38-12.23,1.52-13.43c0.62-5.94,2.54-16.6,3.55-22.6c0.65-4.17,1.18-8.45,1.05-12.68
			c-0.05-2.99-0.54-7.18-0.83-10.19c-0.2-2-0.6-9.09-0.74-11.2l4.5-8.69c1.96-3.91,3.63-8.02,4.71-12.26
			c2.34-9.37,3.22-19.5,4-29.12C287.42,251.74,288.28,247.9,289.38,244.2z"/>
	</g>
	<g id="POLYLINE_1_">
		<path class="st93" d="M267.75,501.97c0.63-0.02,1.24-0.17,1.73-0.52c0.06-0.04,0.09-0.07,0.09-0.07c0.06-0.05,0.08-0.07,0.08-0.07
			c0.05-0.05,0.07-0.06,0.07-0.06c0.05-0.05,0.06-0.07,0.06-0.07c0.05-0.05,0.06-0.07,0.06-0.07c0.05-0.06,0.06-0.07,0.06-0.07
			c0.04-0.06,0.06-0.08,0.06-0.08c0.03-0.05,0.05-0.07,0.05-0.07c0.03-0.05,0.05-0.08,0.05-0.08c0.03-0.05,0.04-0.08,0.04-0.08
			c0.03-0.05,0.04-0.08,0.04-0.08c0.24-0.51,0.32-0.99,0.37-1.53c0.05-0.68,0.02-1.38-0.04-2.07c-0.17-1.99-1.02-6.04-1.37-8.06
			c-0.29-1.66-0.55-3.49-0.73-5.17c-1.2-10.36-0.09-25.61,0.22-36.13c0.13-4.72,0.08-12.37,0.04-17.15l10.83,69.63l-0.43,0.07
			l0.41,2.64l-1.04,0.05l0.4,8.5c-1.69-1.86-4.63-2.93-6.84-4.04c-1.33-0.68-2.9-1.45-3.62-2.81
			C267.9,503.77,267.78,502.88,267.75,501.97z"/>
	</g>
</g>
</svg>
