solid exported
	facet normal -0.9999999999999972 0 -7.457520213357205e-8
		outer loop
			vertex -49.809734579604424 25 0
			vertex -49.809734579604424 0.0000013239434544232154 0
			vertex -49.80973490458728 25 4.3577871373829
		endloop
	endfacet
	facet normal -0.9999999999999972 0 -7.457520213357205e-8
		outer loop
			vertex -49.809734579604424 -21.857329842978316 0
			vertex -49.809734579604424 -25 0
			vertex -49.80973490458728 -25 4.3577871373829
		endloop
	endfacet
	facet normal -0.9999999999999973 0 -7.457520213357205e-8
		outer loop
			vertex -49.809734579604424 0.000001323943457975929 0
			vertex -49.809734579604424 -21.857329842978313 0
			vertex -49.80973490458728 -25 4.3577871373829
		endloop
	endfacet
	facet normal -0.9999999999999972 0 -7.457520213357205e-8
		outer loop
			vertex -49.809734579604424 0.000001323943457975929 0
			vertex -49.80973490458728 -25 4.3577871373829
			vertex -49.80973490458728 25 4.3577871373829
		endloop
	endfacet
	facet normal -1 0 0
		outer loop
			vertex -50 25 -5
			vertex -50 -25 -5
			vertex -50 25 0
		endloop
	endfacet
	facet normal -1 0 0
		outer loop
			vertex -50 -25 -5
			vertex -50 -25 0
			vertex -50 25 0
		endloop
	endfacet
	facet normal 0 1 0
		outer loop
			vertex -50 25 -5
			vertex -50 25 0
			vertex -49.80973457818552 25 -0.01902654218144779
		endloop
	endfacet
	facet normal 0 1 0
		outer loop
			vertex -50 25 -5
			vertex -49.80973457818552 25 -0.01902654218144779
			vertex -49.80973420672842 25 -5
		endloop
	endfacet
	facet normal 0 1 0
		outer loop
			vertex -50 25 0
			vertex -49.80973457960443 25 0
			vertex -49.80973457818552 25 -0.019026542181447503
		endloop
	endfacet
	facet normal 0 -1 0
		outer loop
			vertex -50 -25 0
			vertex -50 -25 -5
			vertex -49.80973420814733 -25 -4.980973420814733
		endloop
	endfacet
	facet normal 0 -1 0
		outer loop
			vertex -50 -25 0
			vertex -49.80973420814733 -25 -4.980973420814733
			vertex -49.80973457960443 -25 0
		endloop
	endfacet
	facet normal 0 -1 0
		outer loop
			vertex -50 -25 -5
			vertex -49.80973420672842 -25 -5
			vertex -49.80973420814733 -25 -4.980973420814733
		endloop
	endfacet
	facet normal 0 0 1
		outer loop
			vertex -50 25 0
			vertex -50 -25 0
			vertex -49.80973457960443 -24.80973457960443 0
		endloop
	endfacet
	facet normal 0 0 1
		outer loop
			vertex -50 25 0
			vertex -49.80973457960443 -24.80973457960443 0
			vertex -49.80973457960443 25 0
		endloop
	endfacet
	facet normal 0 0 1
		outer loop
			vertex -50 -25 0
			vertex -49.80973457960443 -25 0
			vertex -49.80973457960443 -24.80973457960443 0
		endloop
	endfacet
	facet normal 0 0 -1
		outer loop
			vertex -49.80973420672842 24.80973420672842 -5
			vertex -50 25 -5
			vertex -49.80973420672842 25 -5
		endloop
	endfacet
	facet normal 0 0 -1
		outer loop
			vertex -49.80973420672842 -25 -5
			vertex -50 -25 -5
			vertex -50 25 -5
		endloop
	endfacet
	facet normal 0 0 -1
		outer loop
			vertex -49.80973420672842 -25 -5
			vertex -50 25 -5
			vertex -49.80973420672842 24.80973420672842 -5
		endloop
	endfacet
	facet normal -0.9848077400623573 0 0.17364825110916765
		outer loop
			vertex -49.640730849769795 25 5.316256342935383
			vertex -49.80973490458728 25 4.3577871373829
			vertex -49.80973490458728 -25 4.3577871373829
		endloop
	endfacet
	facet normal -0.9848077400623572 -2.08341992764563e-17 0.1736482511091687
		outer loop
			vertex -49.640730849769795 25 5.316256342935383
			vertex -49.80973490458728 -25 4.3577871373829
			vertex -49.640730849769795 -19.41657503817401 5.316256342935378
		endloop
	endfacet
	facet normal -0.9848077400623573 -1.6573765777275735e-16 0.17364825110916862
		outer loop
			vertex -49.640730849769795 -19.41657503817398 5.316256342935383
			vertex -49.80973490458728 -25 4.3577871373829
			vertex -49.640730849769795 -25 5.316256342935378
		endloop
	endfacet
	facet normal -0.9848077400623577 -2.0834199276455952e-17 0.1736482511091658
		outer loop
			vertex -49.640730849769795 25 5.316256342935383
			vertex -49.640730849769795 -19.41657503817401 5.316256342935378
			vertex -48.296290594213566 25 12.940952596805701
		endloop
	endfacet
	facet normal -0.9848077400623578 -1.6573765777275453e-16 0.17364825110916568
		outer loop
			vertex -49.640730849769795 -19.41657503817398 5.316256342935383
			vertex -49.640730849769795 -25 5.316256342935378
			vertex -48.296290594213566 -25 12.940952596805701
		endloop
	endfacet
	facet normal -0.9848077400623576 0 0.17364825110916576
		outer loop
			vertex -49.640730849769795 -19.41657503817398 5.316256342935383
			vertex -48.296290594213566 -25 12.940952596805701
			vertex -48.296290594213566 25 12.940952596805701
		endloop
	endfacet
	facet normal -0.9396926285273987 0 0.34202012205609883
		outer loop
			vertex -47.96341956613937 25 13.855508294439046
			vertex -48.296290594213566 25 12.940952596805701
			vertex -48.296290594213566 -25 12.940952596805701
		endloop
	endfacet
	facet normal -0.9396926285273977 -5.471375233403179e-17 0.34202012205610144
		outer loop
			vertex -47.96341956613937 25 13.855508294439046
			vertex -48.296290594213566 -25 12.940952596805701
			vertex -47.96341956613937 -19.416605120973962 13.855508294439039
		endloop
	endfacet
	facet normal -0.9396926285273978 -4.3525474818849917e-16 0.3420201220561012
		outer loop
			vertex -47.96341956613937 -19.416605120973912 13.855508294439046
			vertex -48.296290594213566 -25 12.940952596805701
			vertex -47.96341956613937 -25 13.855508294439039
		endloop
	endfacet
	facet normal -0.9396926285273987 -5.4713752334031346e-17 0.3420201220560987
		outer loop
			vertex -47.96341956613937 25 13.855508294439046
			vertex -47.96341956613937 -19.416605120973962 13.855508294439039
			vertex -45.315388873249695 25 21.130913341556678
		endloop
	endfacet
	facet normal -0.9396926285273987 -4.3525474818849547e-16 0.34202012205609833
		outer loop
			vertex -47.96341956613937 -19.416605120973912 13.855508294439046
			vertex -47.96341956613937 -25 13.855508294439039
			vertex -45.315388873249695 -25 21.130913341556678
		endloop
	endfacet
	facet normal -0.9396926285273987 0 0.34202012205609866
		outer loop
			vertex -47.96341956613937 -19.416605120973912 13.855508294439046
			vertex -45.315388873249695 -25 21.130913341556678
			vertex -45.315388873249695 25 21.130913341556678
		endloop
	endfacet
	facet normal -0.8660253860506067 0 0.5000000307158969
		outer loop
			vertex -44.82876108775265 25 21.973777321374087
			vertex -45.315388873249695 25 21.130913341556678
			vertex -45.315388873249695 -25 21.130913341556678
		endloop
	endfacet
	facet normal -0.8660253860506045 -7.998622343886592e-17 0.5000000307159005
		outer loop
			vertex -44.82876108775265 25 21.973777321374087
			vertex -45.315388873249695 -25 21.130913341556678
			vertex -44.82876108775265 -19.416572558466477 21.97377732137408
		endloop
	endfacet
	facet normal -0.8660253860506049 -6.362962417353987e-16 0.5000000307159002
		outer loop
			vertex -44.82876108775265 -19.416572558466438 21.973777321374087
			vertex -45.315388873249695 -25 21.130913341556678
			vertex -44.82876108775265 -25 21.97377732137408
		endloop
	endfacet
	facet normal -0.8660253860506048 -7.998622343886585e-17 0.5000000307159
		outer loop
			vertex -44.82876108775265 25 21.973777321374087
			vertex -44.82876108775265 -19.416572558466477 21.97377732137408
			vertex -40.95760155898144 25 28.678821760206276
		endloop
	endfacet
	facet normal -0.866025386050605 -6.36296241735398e-16 0.5000000307158996
		outer loop
			vertex -44.82876108775265 -19.416572558466438 21.973777321374087
			vertex -44.82876108775265 -25 21.97377732137408
			vertex -40.95760155898144 -25 28.678821760206276
		endloop
	endfacet
	facet normal -0.8660253860506048 0 0.5000000307159
		outer loop
			vertex -44.82876108775265 -19.416572558466438 21.973777321374087
			vertex -40.95760155898144 -25 28.678821760206276
			vertex -40.95760155898144 25 28.678821760206276
		endloop
	endfacet
	facet normal -0.7660445853835303 0 0.6427874401422101
		outer loop
			vertex -40.332006110959675 25 29.42437771800724
			vertex -40.95760155898144 25 28.678821760206276
			vertex -40.95760155898144 -25 28.678821760206276
		endloop
	endfacet
	facet normal -0.7660445853835326 7.113186872892502e-17 0.6427874401422072
		outer loop
			vertex -40.332006110959675 25 29.42437771800724
			vertex -40.95760155898144 -25 28.678821760206276
			vertex -40.33200611095968 -19.416581195302413 29.424377718007236
		endloop
	endfacet
	facet normal -0.7660445853835323 5.658601895157294e-16 0.6427874401422076
		outer loop
			vertex -40.332006110959675 -19.41658119530237 29.42437771800724
			vertex -40.95760155898144 -25 28.678821760206276
			vertex -40.33200611095968 -25 29.424377718007236
		endloop
	endfacet
	facet normal -0.7660445853835298 7.11318687289243e-17 0.6427874401422107
		outer loop
			vertex -40.332006110959675 25 29.42437771800724
			vertex -40.33200611095968 -19.416581195302413 29.424377718007236
			vertex -35.355340024387104 25 35.355340071654524
		endloop
	endfacet
	facet normal -0.7660445853835296 5.658601895157237e-16 0.6427874401422109
		outer loop
			vertex -40.332006110959675 -19.41658119530237 29.42437771800724
			vertex -40.33200611095968 -25 29.424377718007236
			vertex -35.355340024387104 -25 35.355340071654524
		endloop
	endfacet
	facet normal -0.7660445853835299 0 0.6427874401422107
		outer loop
			vertex -40.332006110959675 -19.41658119530237 29.42437771800724
			vertex -35.355340024387104 -25 35.355340071654524
			vertex -35.355340024387104 25 35.355340071654524
		endloop
	endfacet
	facet normal -0.6427876096865418 0 0.7660444431189762
		outer loop
			vertex -34.60977636203422 25 35.98094226575402
			vertex -35.355340024387104 25 35.355340071654524
			vertex -35.355340024387104 -25 35.355340071654524
		endloop
	endfacet
	facet normal -0.6427876096865361 -1.422638521266731e-16 0.7660444431189809
		outer loop
			vertex -34.60977636203422 25 35.98094226575402
			vertex -35.355340024387104 -25 35.355340071654524
			vertex -34.609776362034225 -19.416522715352983 35.980942265754
		endloop
	endfacet
	facet normal -0.6427876096865367 -1.1317079478290337e-15 0.7660444431189802
		outer loop
			vertex -34.60977636203422 -19.41652271535291 35.98094226575402
			vertex -35.355340024387104 -25 35.355340071654524
			vertex -34.609776362034225 -25 35.980942265754
		endloop
	endfacet
	facet normal -0.6427876096865386 -1.4226385212667204e-16 0.7660444431189789
		outer loop
			vertex -34.60977636203422 25 35.98094226575402
			vertex -34.609776362034225 -19.416522715352983 35.980942265754
			vertex -28.678822646919063 25 40.95760334063665
		endloop
	endfacet
	facet normal -0.6427876096865391 -1.1317079478290252e-15 0.7660444431189782
		outer loop
			vertex -34.60977636203422 -19.41652271535291 35.98094226575402
			vertex -34.609776362034225 -25 35.980942265754
			vertex -28.678822646919063 -25 40.95760334063665
		endloop
	endfacet
	facet normal -0.6427876096865386 0 0.7660444431189788
		outer loop
			vertex -34.60977636203422 -19.41652271535291 35.98094226575402
			vertex -28.678822646919063 -25 40.95760334063665
			vertex -28.678822646919063 25 40.95760334063665
		endloop
	endfacet
	facet normal -0.4999998083274514 0 0.8660255144466081
		outer loop
			vertex -27.83595235883486 25 41.44423447962371
			vertex -28.678822646919063 25 40.95760334063665
			vertex -28.678822646919063 -25 40.95760334063665
		endloop
	endfacet
	facet normal -0.4999998083274523 2.143218340891857e-17 0.8660255144466076
		outer loop
			vertex -27.83595235883486 25 41.44423447962371
			vertex -28.678822646919063 -25 40.95760334063665
			vertex -27.835952358834874 -19.416531572081205 41.4442344796237
		endloop
	endfacet
	facet normal -0.4999998083274521 1.7049317343336016e-16 0.8660255144466076
		outer loop
			vertex -27.83595235883486 -19.41653157208112 41.44423447962371
			vertex -28.678822646919063 -25 40.95760334063665
			vertex -27.835952358834874 -25 41.4442344796237
		endloop
	endfacet
	facet normal -0.4999998083274511 2.1432183408918105e-17 0.8660255144466081
		outer loop
			vertex -27.83595235883486 25 41.44423447962371
			vertex -27.835952358834874 -19.416531572081205 41.4442344796237
			vertex -21.130913144381005 25 45.31538869636435
		endloop
	endfacet
	facet normal -0.49999980832745095 1.7049317343335644e-16 0.8660255144466081
		outer loop
			vertex -27.83595235883486 -19.41653157208112 41.44423447962371
			vertex -27.835952358834874 -25 41.4442344796237
			vertex -21.130913144381005 -25 45.31538869636435
		endloop
	endfacet
	facet normal -0.49999980832745117 0 0.866025514446608
		outer loop
			vertex -27.83595235883486 -19.41653157208112 41.44423447962371
			vertex -21.130913144381005 -25 45.31538869636435
			vertex -21.130913144381005 25 45.31538869636435
		endloop
	endfacet
	facet normal -0.3420201766543757 6.517803280005469e-16 0.9396926086552505
		outer loop
			vertex -13.855513599098607 25 47.96341786546632
			vertex -13.855513599098598 19.41657255846635 47.963417865466326
			vertex -12.94095258888602 25 48.29629088733859
		endloop
	endfacet
	facet normal -0.3420201766543722 8.193266521003618e-17 0.9396926086552517
		outer loop
			vertex -13.855513599098607 19.416572558466285 47.96341786546632
			vertex -13.855513599098598 -25 47.963417865466326
			vertex -12.94095258888602 -25 48.29629088733859
		endloop
	endfacet
	facet normal -0.3420201766543757 0 0.9396926086552504
		outer loop
			vertex -13.855513599098607 19.416572558466285 47.96341786546632
			vertex -12.94095258888602 -25 48.29629088733859
			vertex -12.94095258888602 25 48.29629088733859
		endloop
	endfacet
	facet normal -0.3420201766543752 0 0.9396926086552507
		outer loop
			vertex -20.216355700045735 25 45.64826042036328
			vertex -21.130913144381005 25 45.31538869636435
			vertex -21.130913144381005 -25 45.31538869636435
		endloop
	endfacet
	facet normal -0.3420201766543718 -6.825418146180124e-17 0.9396926086552518
		outer loop
			vertex -20.216355700045735 25 45.64826042036328
			vertex -21.130913144381005 -25 45.31538869636435
			vertex -20.216355700045746 -19.41659432827401 45.64826042036327
		endloop
	endfacet
	facet normal -0.3420201766543723 -5.4296937522363895e-16 0.9396926086552518
		outer loop
			vertex -20.216355700045735 -19.416594328273938 45.64826042036328
			vertex -21.130913144381005 -25 45.31538869636435
			vertex -20.216355700045746 -25 45.64826042036327
		endloop
	endfacet
	facet normal -0.34202017665437207 -6.49903443139872e-17 0.9396926086552518
		outer loop
			vertex -13.855513599098607 25 47.96341786546632
			vertex -20.216355700045735 25 45.64826042036328
			vertex -20.216355700045746 -19.41659432827401 45.64826042036327
		endloop
	endfacet
	facet normal -0.34202017665437645 6.517803280005454e-16 0.9396926086552503
		outer loop
			vertex -13.855513599098607 25 47.96341786546632
			vertex -20.216355700045746 -19.41659432827401 45.64826042036327
			vertex -13.855513599098598 19.41657255846635 47.963417865466326
		endloop
	endfacet
	facet normal -0.3420201766543695 -5.170051986849227e-16 0.9396926086552528
		outer loop
			vertex -13.855513599098607 19.416572558466285 47.96341786546632
			vertex -20.216355700045735 -19.416594328273938 45.64826042036328
			vertex -20.216355700045746 -25 45.64826042036327
		endloop
	endfacet
	facet normal -0.3420201766543729 8.193266521003597e-17 0.9396926086552515
		outer loop
			vertex -13.855513599098607 19.416572558466285 47.96341786546632
			vertex -20.216355700045746 -25 45.64826042036327
			vertex -13.855513599098598 -25 47.963417865466326
		endloop
	endfacet
	facet normal -0.17364815537619654 0 0.9848077569426656
		outer loop
			vertex -12.94095258888602 25 48.29629088733859
			vertex -12.94095258888602 -25 48.29629088733859
			vertex -4.357787598940026 25 49.80973425462154
		endloop
	endfacet
	facet normal -0.17364815537619654 0 0.9848077569426656
		outer loop
			vertex -12.94095258888602 -25 48.29629088733859
			vertex -4.357787598940026 -25 49.80973425462154
			vertex -4.357787598940026 25 49.80973425462154
		endloop
	endfacet
	facet normal -7.457520075695458e-8 0 0.9999999999999972
		outer loop
			vertex 0 25 49.809734579604424
			vertex -4.357787598940026 25 49.80973425462154
			vertex -4.357787598940026 -25 49.80973425462154
		endloop
	endfacet
	facet normal -7.457520075695458e-8 0 0.9999999999999972
		outer loop
			vertex 0 25 49.809734579604424
			vertex -4.357787598940026 -25 49.80973425462154
			vertex 0 0.000001323943436659647 49.809734579604424
		endloop
	endfacet
	facet normal -7.457520075695458e-8 0 0.9999999999999972
		outer loop
			vertex 0 0.000001323943426001506 49.809734579604424
			vertex -4.357787598940026 -25 49.80973425462154
			vertex 0 -25 49.809734579604424
		endloop
	endfacet
	facet normal 0 1 0
		outer loop
			vertex -13.855513599098598 25 47.963417865466326
			vertex -12.94095258888602 25 48.29629088733859
			vertex -12.801983752761348 25 47.77765214821546
		endloop
	endfacet
	facet normal 0 1 0
		outer loop
			vertex -12.801983752761348 25 47.77765214821546
			vertex -12.94095258888602 25 48.29629088733859
			vertex -4.357787598940026 25 49.80973425462154
		endloop
	endfacet
	facet normal 0 1 0
		outer loop
			vertex -12.801983752761348 25 47.77765214821546
			vertex -4.357787598940026 25 49.80973425462154
			vertex -4.044911473022089 25 46.23354419653367
		endloop
	endfacet
	facet normal 0 1 0
		outer loop
			vertex 0 25 47.95505956860815
			vertex -4.044911473022089 25 46.23354419653367
			vertex -4.357787598940026 25 49.80973425462154
		endloop
	endfacet
	facet normal 0 1 0
		outer loop
			vertex 0 25 47.95505956860815
			vertex -4.357787598940026 25 49.80973425462154
			vertex 0 25 49.809734579604424
		endloop
	endfacet
	facet normal 0 1 0
		outer loop
			vertex 0 25 45.5203172446684
			vertex -4.044911473022089 25 46.23354419653367
			vertex 0 25 47.95505956860815
		endloop
	endfacet
	facet normal 0 1 0
		outer loop
			vertex -47.955059352196045 25 0
			vertex -49.809734579604424 25 0
			vertex -49.80973490458728 25 4.3577871373829
		endloop
	endfacet
	facet normal 0 1 0
		outer loop
			vertex -47.70577142805918 25 0
			vertex -47.955059352196045 25 0
			vertex -49.80973490458728 25 4.3577871373829
		endloop
	endfacet
	facet normal 0 1 0
		outer loop
			vertex -47.70577142805918 25 0
			vertex -49.80973490458728 25 4.3577871373829
			vertex -49.27484384111915 25 4.310990233108113
		endloop
	endfacet
	facet normal 0 1 0
		outer loop
			vertex -49.27484384111915 25 4.310990233108113
			vertex -49.80973490458728 25 4.3577871373829
			vertex -49.640730849769795 25 5.316256342935378
		endloop
	endfacet
	facet normal 0 1 0
		outer loop
			vertex -46.94677148366432 25 0
			vertex -47.70577142805917 25 0
			vertex -49.27484384111915 25 4.310990233108113
		endloop
	endfacet
	facet normal 0 1 0
		outer loop
			vertex -45.52031793247534 25 0
			vertex -46.94677148366432 25 0
			vertex -49.27484384111915 25 4.310990233108113
		endloop
	endfacet
	facet normal 0 1 0
		outer loop
			vertex -45.52031793247534 25 0
			vertex -49.27484384111915 25 4.310990233108113
			vertex -46.23354538660499 25 4.044911095939211
		endloop
	endfacet
	facet normal 0 1 0
		outer loop
			vertex -46.23354538660499 25 4.044911095939211
			vertex -49.27484384111915 25 4.310990233108113
			vertex -49.640730849769795 25 5.316256342935378
		endloop
	endfacet
	facet normal 0 1 0
		outer loop
			vertex -46.23354538660499 25 4.044911095939211
			vertex -49.640730849769795 25 5.316256342935378
			vertex -48.296290594213566 25 12.940952596805701
		endloop
	endfacet
	facet normal 0 1 0
		outer loop
			vertex -46.23354538660499 25 4.044911095939211
			vertex -48.296290594213566 25 12.940952596805701
			vertex -47.77765477531063 25 12.801984542223213
		endloop
	endfacet
	facet normal 0 1 0
		outer loop
			vertex -47.77765477531063 25 12.801984542223213
			vertex -48.296290594213566 25 12.940952596805701
			vertex -47.96341956613937 25 13.855508294439039
		endloop
	endfacet
	facet normal 0 1 0
		outer loop
			vertex -44.828761440749574 25 0
			vertex -45.52031793247534 25 0
			vertex -46.23354538660499 25 4.044911095939211
		endloop
	endfacet
	facet normal 0 1 0
		outer loop
			vertex -44.828761440749574 25 0
			vertex -46.23354538660499 25 4.044911095939211
			vertex -44.82876141412856 25 3.92200842364461
		endloop
	endfacet
	facet normal 0 1 0
		outer loop
			vertex -44.82876141412856 25 3.92200842364461
			vertex -46.23354538660499 25 4.044911095939211
			vertex -47.77765477531063 25 12.801984542223213
		endloop
	endfacet
	facet normal 0 1 0
		outer loop
			vertex -44.82876141412856 25 3.92200842364461
			vertex -47.77765477531063 25 12.801984542223213
			vertex -44.8287612678646 25 12.011830875691743
		endloop
	endfacet
	facet normal 0 1 0
		outer loop
			vertex -44.8287612678646 25 12.011830875691743
			vertex -47.77765477531063 25 12.801984542223213
			vertex -47.96341956613937 25 13.855508294439039
		endloop
	endfacet
	facet normal 0 1 0
		outer loop
			vertex -44.8287612678646 25 12.011830875691743
			vertex -47.96341956613937 25 13.855508294439039
			vertex -45.315388873249695 25 21.130913341556678
		endloop
	endfacet
	facet normal 0 1 0
		outer loop
			vertex -44.8287612678646 25 12.011830875691743
			vertex -45.315388873249695 25 21.130913341556678
			vertex -44.82876110709431 25 20.903995082397813
		endloop
	endfacet
	facet normal 0 1 0
		outer loop
			vertex -44.82876110709431 25 20.903995082397813
			vertex -45.315388873249695 25 21.130913341556678
			vertex -44.82876108775265 25 21.97377732137408
		endloop
	endfacet
	facet normal 0 1 0
		outer loop
			vertex -44.82876141412856 25 3.92200842364461
			vertex -44.8287612678646 25 12.011830875691743
			vertex -43.466662239498056 25 11.646857525950502
		endloop
	endfacet
	facet normal 0 1 0
		outer loop
			vertex -43.466662239498056 25 11.646857525950502
			vertex -44.8287612678646 25 12.011830875691743
			vertex -44.82876110709431 25 20.903995082397813
		endloop
	endfacet
	facet normal 0 1 0
		outer loop
			vertex -43.466662239498056 25 11.646857525950502
			vertex -44.82876110709431 25 20.903995082397813
			vertex -42.06187953399453 25 19.613776986486577
		endloop
	endfacet
	facet normal 0 1 0
		outer loop
			vertex -42.06187953399453 25 19.613776986486574
			vertex -44.82876110709431 25 20.903995082397813
			vertex -44.82876108775265 25 21.97377732137408
		endloop
	endfacet
	facet normal 0 1 0
		outer loop
			vertex -42.06187953399453 25 19.613776986486574
			vertex -44.82876108775265 25 21.97377732137408
			vertex -40.95760155898144 25 28.678821760206276
		endloop
	endfacet
	facet normal 0 1 0
		outer loop
			vertex -42.06187953399453 25 19.613776986486574
			vertex -40.95760155898144 25 28.678821760206276
			vertex -40.51777154708181 25 28.370849466030446
		endloop
	endfacet
	facet normal 0 1 0
		outer loop
			vertex -40.5177715470818 25 28.370849466030446
			vertex -40.95760155898144 25 28.678821760206276
			vertex -40.33200611095968 25 29.424377718007236
		endloop
	endfacet
	facet normal 0 1 0
		outer loop
			vertex -43.466662239498056 25 11.646857525950502
			vertex -42.06187953399453 25 19.613776986486577
			vertex -40.78384956087748 25 19.017821809198217
		endloop
	endfacet
	facet normal 0 1 0
		outer loop
			vertex -40.78384956087748 25 19.017821809198214
			vertex -42.06187953399453 25 19.613776986486574
			vertex -40.51777154708181 25 28.370849466030446
		endloop
	endfacet
	facet normal 0 1 0
		outer loop
			vertex -40.78384956087748 25 19.017821809198214
			vertex -40.51777154708181 25 28.370849466030446
			vertex -38.01696674577757 25 26.619767068044062
		endloop
	endfacet
	facet normal 0 1 0
		outer loop
			vertex -38.01696674577757 25 26.619767068044066
			vertex -40.5177715470818 25 28.370849466030446
			vertex -40.33200611095968 25 29.424377718007236
		endloop
	endfacet
	facet normal 0 1 0
		outer loop
			vertex -38.01696674577757 25 26.619767068044066
			vertex -40.33200611095968 25 29.424377718007236
			vertex -35.355340024387104 25 35.355340071654524
		endloop
	endfacet
	facet normal 0 1 0
		outer loop
			vertex -38.01696674577757 25 26.619767068044066
			vertex -35.355340024387104 25 35.355340071654524
			vertex -34.975666819395286 25 34.97566686615511
		endloop
	endfacet
	facet normal 0 1 0
		outer loop
			vertex -34.97566681939528 25 34.97566686615511
			vertex -35.355340024387104 25 35.355340071654524
			vertex -34.609776362034225 25 35.980942265754
		endloop
	endfacet
	facet normal 0 1 0
		outer loop
			vertex -40.78384956087748 25 19.017821809198214
			vertex -38.01696674577757 25 26.619767068044062
			vertex -36.86184083451052 25 25.810939186066697
		endloop
	endfacet
	facet normal 0 1 0
		outer loop
			vertex -36.86184083451052 25 25.8109391860667
			vertex -38.01696674577757 25 26.619767068044066
			vertex -34.975666819395286 25 34.97566686615511
		endloop
	endfacet
	facet normal 0 1 0
		outer loop
			vertex -36.86184083451052 25 25.8109391860667
			vertex -34.975666819395286 25 34.97566686615511
			vertex -32.81692973104712 25 32.81692977492087
		endloop
	endfacet
	facet normal 0 1 0
		outer loop
			vertex -32.81692973104711 25 32.81692977492087
			vertex -34.97566681939528 25 34.97566686615511
			vertex -34.609776362034225 25 35.980942265754
		endloop
	endfacet
	facet normal 0 1 0
		outer loop
			vertex -32.81692973104711 25 32.81692977492087
			vertex -34.609776362034225 25 35.980942265754
			vertex -28.678822646919063 25 40.95760334063665
		endloop
	endfacet
	facet normal 0 1 0
		outer loop
			vertex -32.81692973104711 25 32.81692977492087
			vertex -28.678822646919063 25 40.95760334063665
			vertex -28.370847435306235 25 40.51776915667158
		endloop
	endfacet
	facet normal 0 1 0
		outer loop
			vertex -28.370847435306235 25 40.51776915667158
			vertex -28.678822646919063 25 40.95760334063665
			vertex -27.835952358834874 25 41.4442344796237
		endloop
	endfacet
	facet normal 0 1 0
		outer loop
			vertex -36.86184083451052 25 25.8109391860667
			vertex -32.81692973104712 25 32.81692977492087
			vertex -31.81980495711493 25 31.819804999655606
		endloop
	endfacet
	facet normal 0 1 0
		outer loop
			vertex -31.819804957114922 25 31.819804999655602
			vertex -32.81692973104711 25 32.81692977492087
			vertex -28.370847435306235 25 40.51776915667158
		endloop
	endfacet
	facet normal 0 1 0
		outer loop
			vertex -31.819804957114922 25 31.819804999655602
			vertex -28.370847435306235 25 40.51776915667158
			vertex -26.619768210353364 25 38.01696885546556
		endloop
	endfacet
	facet normal 0 1 0
		outer loop
			vertex -26.619768210353364 25 38.01696885546556
			vertex -28.370847435306235 25 40.51776915667158
			vertex -27.835952358834874 25 41.4442344796237
		endloop
	endfacet
	facet normal 0 1 0
		outer loop
			vertex -26.619768210353364 25 38.01696885546556
			vertex -27.835952358834874 25 41.4442344796237
			vertex -21.130913144381005 25 45.31538869636435
		endloop
	endfacet
	facet normal 0 1 0
		outer loop
			vertex -26.619768210353364 25 38.01696885546556
			vertex -21.130913144381005 25 45.31538869636435
			vertex -20.903995736714993 25 44.82876275359997
		endloop
	endfacet
	facet normal 0 1 0
		outer loop
			vertex -20.903995736714993 25 44.82876275359997
			vertex -21.130913144381005 25 45.31538869636435
			vertex -20.216355700045746 25 45.64826042036327
		endloop
	endfacet
	facet normal 0 1 0
		outer loop
			vertex -31.819804957114922 25 31.819804999655602
			vertex -26.619768210353364 25 38.01696885546556
			vertex -25.810939450382737 25 36.86184167576124
		endloop
	endfacet
	facet normal 0 1 0
		outer loop
			vertex -25.810939450382737 25 36.861841675761234
			vertex -26.619768210353364 25 38.01696885546556
			vertex -20.903995736714993 25 44.82876275359997
		endloop
	endfacet
	facet normal 0 1 0
		outer loop
			vertex -25.810939450382737 25 36.861841675761234
			vertex -20.903995736714993 25 44.82876275359997
			vertex -19.613776534438884 25 42.06187879287524
		endloop
	endfacet
	facet normal 0 1 0
		outer loop
			vertex -19.613776534438884 25 42.06187879287525
			vertex -20.903995736714993 25 44.82876275359997
			vertex -20.216355700045746 25 45.64826042036327
		endloop
	endfacet
	facet normal 0 1 0
		outer loop
			vertex -19.613776534438884 25 42.06187879287525
			vertex -20.216355700045746 25 45.64826042036327
			vertex -13.855513599098598 25 47.963417865466326
		endloop
	endfacet
	facet normal 0 1 0
		outer loop
			vertex -19.613776534438884 25 42.06187879287525
			vertex -13.855513599098598 25 47.963417865466326
			vertex -12.801983752761348 25 47.77765214821546
		endloop
	endfacet
	facet normal 0 1 0
		outer loop
			vertex -25.810939450382737 25 36.861841675761234
			vertex -19.613776534438884 25 42.06187879287524
			vertex -19.01782156481303 25 40.78384925815507
		endloop
	endfacet
	facet normal 0 1 0
		outer loop
			vertex -19.017821564813026 25 40.78384925815507
			vertex -19.613776534438884 25 42.06187879287525
			vertex -12.801983752761348 25 47.77765214821546
		endloop
	endfacet
	facet normal 0 1 0
		outer loop
			vertex -19.017821564813026 25 40.78384925815507
			vertex -12.801983752761348 25 47.77765214821546
			vertex -12.011830243559915 25 44.82875920823068
		endloop
	endfacet
	facet normal 0 1 0
		outer loop
			vertex -12.011830243559915 25 44.82875920823068
			vertex -12.801983752761348 25 47.77765214821546
			vertex -8.284016796214623 25 46.98101276005146
		endloop
	endfacet
	facet normal 0 1 0
		outer loop
			vertex -19.017821564813026 25 40.78384925815507
			vertex -12.011830243559915 25 44.82875920823068
			vertex -11.646857198289185 25 43.466661307062935
		endloop
	endfacet
	facet normal 0 1 0
		outer loop
			vertex -11.646857198289185 25 43.466661307062935
			vertex -12.011830243559915 25 44.82875920823068
			vertex -8.284016796214623 25 46.98101276005146
		endloop
	endfacet
	facet normal 0 1 0
		outer loop
			vertex -11.646857198289185 25 43.466661307062935
			vertex -8.284016796214623 25 46.98101276005146
			vertex -4.044911473022089 25 46.23354419653367
		endloop
	endfacet
	facet normal 0 1 0
		outer loop
			vertex -11.646857198289185 25 43.466661307062935
			vertex -4.044911473022089 25 46.23354419653367
			vertex -3.9220088948822758 25 44.8287614673706
		endloop
	endfacet
	facet normal 0 1 0
		outer loop
			vertex -3.9220088948822753 25 44.8287614673706
			vertex -4.044911473022089 25 46.23354419653367
			vertex -0.0000019503729338232745 25 45.520317588571736
		endloop
	endfacet
	facet normal 0 1 0
		outer loop
			vertex 0 25 44.828761440749574
			vertex -3.9220088948822753 25 44.8287614673706
			vertex -0.0000019503729338232745 25 45.520317588571736
		endloop
	endfacet
	facet normal 0 1 0
		outer loop
			vertex -44.82876149438805 25 -0.5171238505611946
			vertex 0 25 -5
			vertex -44.828761575438435 25 -5
		endloop
	endfacet
	facet normal 0 1 0
		outer loop
			vertex -44.828761485038456 25 0
			vertex 0 25 0
			vertex 0 25 -5
		endloop
	endfacet
	facet normal 0 1 0
		outer loop
			vertex -44.828761485038456 25 0
			vertex 0 25 -5
			vertex -44.828761494388054 25 -0.5171238505611941
		endloop
	endfacet
	facet normal 0 1 0
		outer loop
			vertex -49.80973457818552 25 -0.01902654218144779
			vertex -44.82876149438805 25 -0.5171238505611946
			vertex -44.828761575438435 25 -5
		endloop
	endfacet
	facet normal 0 1 0
		outer loop
			vertex -49.80973457818552 25 -0.01902654218144779
			vertex -44.828761575438435 25 -5
			vertex -49.80973420672842 25 -5
		endloop
	endfacet
	facet normal 0 1 0
		outer loop
			vertex -49.80973457960443 25 0
			vertex -44.828761485038456 25 0
			vertex -44.828761494388054 25 -0.5171238505611941
		endloop
	endfacet
	facet normal 0 1 0
		outer loop
			vertex -49.80973457960443 25 0
			vertex -44.828761494388054 25 -0.5171238505611941
			vertex -49.80973457818552 25 -0.019026542181447503
		endloop
	endfacet
	facet normal 0 -1 0
		outer loop
			vertex -12.801983752761348 -25 47.77765214821546
			vertex -12.94095258888602 -25 48.29629088733859
			vertex -13.855513599098607 -25 47.96341786546632
		endloop
	endfacet
	facet normal 0 -1 0
		outer loop
			vertex -4.044911473022089 -25 46.23354419653367
			vertex -4.357787598940026 -25 49.80973425462154
			vertex -12.94095258888602 -25 48.29629088733859
		endloop
	endfacet
	facet normal 0 -1 0
		outer loop
			vertex -4.044911473022089 -25 46.23354419653367
			vertex -12.94095258888602 -25 48.29629088733859
			vertex -12.801983752761348 -25 47.77765214821546
		endloop
	endfacet
	facet normal 0 -1 0
		outer loop
			vertex 0 -25 47.18816947020532
			vertex 0 -25 49.809734579604424
			vertex -4.357787598940026 -25 49.80973425462154
		endloop
	endfacet
	facet normal 0 -1 0
		outer loop
			vertex 0 -25 45.5203172446684
			vertex 0 -25 47.18816947020532
			vertex -4.357787598940026 -25 49.80973425462154
		endloop
	endfacet
	facet normal 0 -1 0
		outer loop
			vertex 0 -25 45.5203172446684
			vertex -4.357787598940026 -25 49.80973425462154
			vertex -4.044911473022089 -25 46.23354419653367
		endloop
	endfacet
	facet normal 0 -1 0
		outer loop
			vertex -49.57448684979726 -25 0
			vertex -49.27484384111915 -25 4.310990233108113
			vertex -49.80973490458728 -25 4.3577871373829
		endloop
	endfacet
	facet normal 0 -1 0
		outer loop
			vertex -49.57448684979726 -25 0
			vertex -49.80973490458728 -25 4.3577871373829
			vertex -49.809734579604424 -25 0
		endloop
	endfacet
	facet normal 0 -1 0
		outer loop
			vertex -49.27484193593691 -25 0
			vertex -49.27484384111915 -25 4.310990233108113
			vertex -49.57448684979726 -25 0
		endloop
	endfacet
	facet normal 0 -1 0
		outer loop
			vertex -47.70577142805917 -25 0
			vertex -49.27484384111915 -25 4.310990233108113
			vertex -49.27484193593691 -25 0
		endloop
	endfacet
	facet normal 0 -1 0
		outer loop
			vertex -49.640730849769795 -25 5.316256342935383
			vertex -49.80973490458728 -25 4.3577871373829
			vertex -49.27484384111915 -25 4.310990233108113
		endloop
	endfacet
	facet normal 0 -1 0
		outer loop
			vertex -46.23354459041611 -25 0
			vertex -46.23354538660499 -25 4.044911095939211
			vertex -49.27484384111915 -25 4.310990233108113
		endloop
	endfacet
	facet normal 0 -1 0
		outer loop
			vertex -46.23354459041611 -25 0
			vertex -49.27484384111915 -25 4.310990233108113
			vertex -47.70577142805918 -25 0
		endloop
	endfacet
	facet normal 0 -1 0
		outer loop
			vertex -45.52031793247534 -25 0
			vertex -46.23354538660499 -25 4.044911095939211
			vertex -46.23354459041611 -25 0
		endloop
	endfacet
	facet normal 0 -1 0
		outer loop
			vertex -47.77765477531063 -25 12.801984542223213
			vertex -48.296290594213566 -25 12.940952596805701
			vertex -49.640730849769795 -25 5.316256342935383
		endloop
	endfacet
	facet normal 0 -1 0
		outer loop
			vertex -47.77765477531063 -25 12.801984542223213
			vertex -49.640730849769795 -25 5.316256342935383
			vertex -49.27484384111915 -25 4.310990233108113
		endloop
	endfacet
	facet normal 0 -1 0
		outer loop
			vertex -47.77765477531063 -25 12.801984542223213
			vertex -49.27484384111915 -25 4.310990233108113
			vertex -46.23354538660499 -25 4.044911095939211
		endloop
	endfacet
	facet normal 0 -1 0
		outer loop
			vertex -47.96341956613937 -25 13.855508294439046
			vertex -48.296290594213566 -25 12.940952596805701
			vertex -47.77765477531063 -25 12.801984542223213
		endloop
	endfacet
	facet normal 0 -1 0
		outer loop
			vertex -44.828761440749574 -25 0
			vertex -44.82876141412856 -25 3.92200842364461
			vertex -46.23354538660499 -25 4.044911095939211
		endloop
	endfacet
	facet normal 0 -1 0
		outer loop
			vertex -44.828761440749574 -25 0
			vertex -46.23354538660499 -25 4.044911095939211
			vertex -45.52031793247534 -25 0
		endloop
	endfacet
	facet normal 0 -1 0
		outer loop
			vertex -44.8287612678646 -25 12.011830875691743
			vertex -47.77765477531063 -25 12.801984542223213
			vertex -46.23354538660499 -25 4.044911095939211
		endloop
	endfacet
	facet normal 0 -1 0
		outer loop
			vertex -44.8287612678646 -25 12.011830875691743
			vertex -46.23354538660499 -25 4.044911095939211
			vertex -44.82876141412856 -25 3.92200842364461
		endloop
	endfacet
	facet normal 0 -1 0
		outer loop
			vertex -44.82876110709431 -25 20.903995082397813
			vertex -45.315388873249695 -25 21.130913341556678
			vertex -47.96341956613937 -25 13.855508294439046
		endloop
	endfacet
	facet normal 0 -1 0
		outer loop
			vertex -44.82876110709431 -25 20.903995082397813
			vertex -47.96341956613937 -25 13.855508294439046
			vertex -47.77765477531063 -25 12.801984542223213
		endloop
	endfacet
	facet normal 0 -1 0
		outer loop
			vertex -44.82876110709431 -25 20.903995082397813
			vertex -47.77765477531063 -25 12.801984542223213
			vertex -44.8287612678646 -25 12.011830875691743
		endloop
	endfacet
	facet normal 0 -1 0
		outer loop
			vertex -44.82876108775265 -25 21.973777321374087
			vertex -45.315388873249695 -25 21.130913341556678
			vertex -44.82876110709431 -25 20.903995082397813
		endloop
	endfacet
	facet normal 0 -1 0
		outer loop
			vertex -43.466662239498056 -25 11.646857525950502
			vertex -44.8287612678646 -25 12.011830875691743
			vertex -44.82876141412856 -25 3.92200842364461
		endloop
	endfacet
	facet normal 0 -1 0
		outer loop
			vertex -42.06187953399453 -25 19.613776986486574
			vertex -44.82876110709431 -25 20.903995082397813
			vertex -44.8287612678646 -25 12.011830875691743
		endloop
	endfacet
	facet normal 0 -1 0
		outer loop
			vertex -42.06187953399453 -25 19.613776986486574
			vertex -44.8287612678646 -25 12.011830875691743
			vertex -43.466662239498056 -25 11.646857525950502
		endloop
	endfacet
	facet normal 0 -1 0
		outer loop
			vertex -40.5177715470818 -25 28.370849466030446
			vertex -40.95760155898144 -25 28.678821760206276
			vertex -44.82876108775265 -25 21.973777321374087
		endloop
	endfacet
	facet normal 0 -1 0
		outer loop
			vertex -40.5177715470818 -25 28.370849466030446
			vertex -44.82876108775265 -25 21.973777321374087
			vertex -44.82876110709431 -25 20.903995082397813
		endloop
	endfacet
	facet normal 0 -1 0
		outer loop
			vertex -40.5177715470818 -25 28.370849466030446
			vertex -44.82876110709431 -25 20.903995082397813
			vertex -42.06187953399453 -25 19.613776986486577
		endloop
	endfacet
	facet normal 0 -1 0
		outer loop
			vertex -40.332006110959675 -25 29.42437771800724
			vertex -40.95760155898144 -25 28.678821760206276
			vertex -40.51777154708181 -25 28.370849466030446
		endloop
	endfacet
	facet normal 0 -1 0
		outer loop
			vertex -40.78384956087748 -25 19.017821809198214
			vertex -42.06187953399453 -25 19.613776986486574
			vertex -43.466662239498056 -25 11.646857525950502
		endloop
	endfacet
	facet normal 0 -1 0
		outer loop
			vertex -38.01696674577757 -25 26.619767068044066
			vertex -40.5177715470818 -25 28.370849466030446
			vertex -42.06187953399453 -25 19.613776986486577
		endloop
	endfacet
	facet normal 0 -1 0
		outer loop
			vertex -38.01696674577757 -25 26.619767068044066
			vertex -42.06187953399453 -25 19.613776986486577
			vertex -40.78384956087748 -25 19.017821809198217
		endloop
	endfacet
	facet normal 0 -1 0
		outer loop
			vertex -34.97566681939528 -25 34.97566686615511
			vertex -35.355340024387104 -25 35.355340071654524
			vertex -40.332006110959675 -25 29.42437771800724
		endloop
	endfacet
	facet normal 0 -1 0
		outer loop
			vertex -34.97566681939528 -25 34.97566686615511
			vertex -40.332006110959675 -25 29.42437771800724
			vertex -40.51777154708181 -25 28.370849466030446
		endloop
	endfacet
	facet normal 0 -1 0
		outer loop
			vertex -34.97566681939528 -25 34.97566686615511
			vertex -40.51777154708181 -25 28.370849466030446
			vertex -38.01696674577757 -25 26.619767068044062
		endloop
	endfacet
	facet normal 0 -1 0
		outer loop
			vertex -34.60977636203422 -25 35.98094226575402
			vertex -35.355340024387104 -25 35.355340071654524
			vertex -34.975666819395286 -25 34.97566686615511
		endloop
	endfacet
	facet normal 0 -1 0
		outer loop
			vertex -36.86184083451052 -25 25.8109391860667
			vertex -38.01696674577757 -25 26.619767068044066
			vertex -40.78384956087748 -25 19.017821809198217
		endloop
	endfacet
	facet normal 0 -1 0
		outer loop
			vertex -32.81692973104711 -25 32.81692977492087
			vertex -34.97566681939528 -25 34.97566686615511
			vertex -38.01696674577757 -25 26.619767068044062
		endloop
	endfacet
	facet normal 0 -1 0
		outer loop
			vertex -32.81692973104711 -25 32.81692977492087
			vertex -38.01696674577757 -25 26.619767068044062
			vertex -36.86184083451052 -25 25.810939186066697
		endloop
	endfacet
	facet normal 0 -1 0
		outer loop
			vertex -28.370847435306235 -25 40.51776915667158
			vertex -28.678822646919063 -25 40.95760334063665
			vertex -34.60977636203422 -25 35.98094226575402
		endloop
	endfacet
	facet normal 0 -1 0
		outer loop
			vertex -28.370847435306235 -25 40.51776915667158
			vertex -34.60977636203422 -25 35.98094226575402
			vertex -34.975666819395286 -25 34.97566686615511
		endloop
	endfacet
	facet normal 0 -1 0
		outer loop
			vertex -28.370847435306235 -25 40.51776915667158
			vertex -34.975666819395286 -25 34.97566686615511
			vertex -32.81692973104712 -25 32.81692977492087
		endloop
	endfacet
	facet normal 0 -1 0
		outer loop
			vertex -27.83595235883486 -25 41.44423447962371
			vertex -28.678822646919063 -25 40.95760334063665
			vertex -28.370847435306235 -25 40.51776915667158
		endloop
	endfacet
	facet normal 0 -1 0
		outer loop
			vertex -31.819804957114922 -25 31.819804999655602
			vertex -32.81692973104711 -25 32.81692977492087
			vertex -36.86184083451052 -25 25.810939186066697
		endloop
	endfacet
	facet normal 0 -1 0
		outer loop
			vertex -26.619768210353364 -25 38.01696885546556
			vertex -28.370847435306235 -25 40.51776915667158
			vertex -32.81692973104712 -25 32.81692977492087
		endloop
	endfacet
	facet normal 0 -1 0
		outer loop
			vertex -26.619768210353364 -25 38.01696885546556
			vertex -32.81692973104712 -25 32.81692977492087
			vertex -31.81980495711493 -25 31.819804999655606
		endloop
	endfacet
	facet normal 0 -1 0
		outer loop
			vertex -20.903995736714993 -25 44.82876275359997
			vertex -21.130913144381005 -25 45.31538869636435
			vertex -27.83595235883486 -25 41.44423447962371
		endloop
	endfacet
	facet normal 0 -1 0
		outer loop
			vertex -20.903995736714993 -25 44.82876275359997
			vertex -27.83595235883486 -25 41.44423447962371
			vertex -28.370847435306235 -25 40.51776915667158
		endloop
	endfacet
	facet normal 0 -1 0
		outer loop
			vertex -20.903995736714993 -25 44.82876275359997
			vertex -28.370847435306235 -25 40.51776915667158
			vertex -26.619768210353364 -25 38.01696885546556
		endloop
	endfacet
	facet normal 0 -1 0
		outer loop
			vertex -20.216355700045735 -25 45.64826042036328
			vertex -21.130913144381005 -25 45.31538869636435
			vertex -20.903995736714993 -25 44.82876275359997
		endloop
	endfacet
	facet normal 0 -1 0
		outer loop
			vertex -25.810939450382737 -25 36.861841675761234
			vertex -26.619768210353364 -25 38.01696885546556
			vertex -31.81980495711493 -25 31.819804999655606
		endloop
	endfacet
	facet normal 0 -1 0
		outer loop
			vertex -19.613776534438884 -25 42.06187879287525
			vertex -20.903995736714993 -25 44.82876275359997
			vertex -26.619768210353364 -25 38.01696885546556
		endloop
	endfacet
	facet normal 0 -1 0
		outer loop
			vertex -19.613776534438884 -25 42.06187879287525
			vertex -26.619768210353364 -25 38.01696885546556
			vertex -25.810939450382737 -25 36.86184167576124
		endloop
	endfacet
	facet normal 0 -1 0
		outer loop
			vertex -12.801983752761348 -25 47.77765214821546
			vertex -13.855513599098607 -25 47.96341786546632
			vertex -20.216355700045735 -25 45.64826042036328
		endloop
	endfacet
	facet normal 0 -1 0
		outer loop
			vertex -12.801983752761348 -25 47.77765214821546
			vertex -20.216355700045735 -25 45.64826042036328
			vertex -20.903995736714993 -25 44.82876275359997
		endloop
	endfacet
	facet normal 0 -1 0
		outer loop
			vertex -12.801983752761348 -25 47.77765214821546
			vertex -20.903995736714993 -25 44.82876275359997
			vertex -19.613776534438884 -25 42.06187879287524
		endloop
	endfacet
	facet normal 0 -1 0
		outer loop
			vertex -19.017821564813026 -25 40.78384925815507
			vertex -19.613776534438884 -25 42.06187879287525
			vertex -25.810939450382737 -25 36.86184167576124
		endloop
	endfacet
	facet normal 0 -1 0
		outer loop
			vertex -12.011830243559915 -25 44.82875920823068
			vertex -12.801983752761348 -25 47.77765214821546
			vertex -19.613776534438884 -25 42.06187879287524
		endloop
	endfacet
	facet normal 0 -1 0
		outer loop
			vertex -12.011830243559915 -25 44.82875920823068
			vertex -19.613776534438884 -25 42.06187879287524
			vertex -19.01782156481303 -25 40.78384925815507
		endloop
	endfacet
	facet normal 0 -1 0
		outer loop
			vertex -8.284016796214623 -25 46.98101276005146
			vertex -12.801983752761348 -25 47.77765214821546
			vertex -12.011830243559915 -25 44.82875920823068
		endloop
	endfacet
	facet normal 0 -1 0
		outer loop
			vertex -11.646857198289185 -25 43.466661307062935
			vertex -12.011830243559915 -25 44.82875920823068
			vertex -19.01782156481303 -25 40.78384925815507
		endloop
	endfacet
	facet normal 0 -1 0
		outer loop
			vertex -4.044911473022089 -25 46.23354419653367
			vertex -8.284016796214623 -25 46.98101276005146
			vertex -12.011830243559915 -25 44.82875920823068
		endloop
	endfacet
	facet normal 0 -1 0
		outer loop
			vertex -4.044911473022089 -25 46.23354419653367
			vertex -12.011830243559915 -25 44.82875920823068
			vertex -11.646857198289185 -25 43.466661307062935
		endloop
	endfacet
	facet normal 0 -1 0
		outer loop
			vertex -3.9220088948822753 -25 44.8287614673706
			vertex -4.044911473022089 -25 46.23354419653367
			vertex -11.646857198289185 -25 43.466661307062935
		endloop
	endfacet
	facet normal 0 -1 0
		outer loop
			vertex -0.0000019503729271619363 -25 45.520317588571736
			vertex -4.044911473022089 -25 46.23354419653367
			vertex -3.9220088948822758 -25 44.8287614673706
		endloop
	endfacet
	facet normal 0 -1 0
		outer loop
			vertex 0 -25 44.828761440749574
			vertex -0.0000019503729271619363 -25 45.520317588571736
			vertex -3.9220088948822758 -25 44.8287614673706
		endloop
	endfacet
	facet normal 0 -1 0
		outer loop
			vertex -44.82876156608884 -25 -4.482876156608884
			vertex 0 -25 0
			vertex -44.828761485038456 -25 0
		endloop
	endfacet
	facet normal 0 -1 0
		outer loop
			vertex -44.828761575438435 -25 -5
			vertex 0 -25 -5
			vertex 0 -25 0
		endloop
	endfacet
	facet normal 0 -1 0
		outer loop
			vertex -44.828761575438435 -25 -5
			vertex 0 -25 0
			vertex -44.82876156608884 -25 -4.482876156608884
		endloop
	endfacet
	facet normal 0 -1 0
		outer loop
			vertex -49.80973420814733 -25 -4.980973420814733
			vertex -44.82876156608884 -25 -4.482876156608884
			vertex -44.828761485038456 -25 0
		endloop
	endfacet
	facet normal 0 -1 0
		outer loop
			vertex -49.80973420814733 -25 -4.980973420814733
			vertex -44.828761485038456 -25 0
			vertex -49.80973457960443 -25 0
		endloop
	endfacet
	facet normal 0 -1 0
		outer loop
			vertex -49.80973420672842 -25 -5
			vertex -44.828761575438435 -25 -5
			vertex -44.82876156608884 -25 -4.482876156608884
		endloop
	endfacet
	facet normal 0 -1 0
		outer loop
			vertex -49.80973420672842 -25 -5
			vertex -44.82876156608884 -25 -4.482876156608884
			vertex -49.80973420814733 -25 -4.980973420814733
		endloop
	endfacet
	facet normal 1 0 -1.8079996490196217e-8
		outer loop
			vertex -44.82876148503845 0.24752465233747856 0
			vertex -44.82876141551894 25 3.845106297995807
			vertex -44.82876148503845 -1.0113915038800769e-7 0
		endloop
	endfacet
	facet normal 0.9999999999999999 0 -1.8079996490196213e-8
		outer loop
			vertex -44.82876148503845 25 0
			vertex -44.82876141551894 25 3.845106297995807
			vertex -44.82876148503845 0.24752465233747856 0
		endloop
	endfacet
	facet normal 1 -3.2437690807138137e-23 -1.8079996490196008e-8
		outer loop
			vertex -44.82876148503845 -0.24752485261301516 0
			vertex -44.82876148503845 -1.0113914683529401e-7 -4.440892098500626e-16
			vertex -44.82876141551894 25 3.845106297995806
		endloop
	endfacet
	facet normal 0.9999999999999999 -2.7029109358309547e-16 -1.807999471542571e-8
		outer loop
			vertex -44.82876148503845 -0.24752485261301516 0
			vertex -44.82876141551894 25 3.845106297995806
			vertex -44.82876141412855 25 3.9220084236446096
		endloop
	endfacet
	facet normal 0.9999999999999999 0 -1.8079996455396798e-8
		outer loop
			vertex -44.82876148503845 -25 0
			vertex -44.82876148503845 -0.2475248526130116 0
			vertex -44.82876141412855 25 3.9220084236446096
		endloop
	endfacet
	facet normal 0.9999999999999999 0 -1.8079996455396794e-8
		outer loop
			vertex -44.82876148503845 -25 0
			vertex -44.82876141412855 25 3.9220084236446096
			vertex -44.82876141412855 -25 3.9220084236446096
		endloop
	endfacet
	facet normal 0.984807756151771 -4.157807451932517e-15 -0.17364815986158452
		outer loop
			vertex -43.48001624068408 25 11.571123213798067
			vertex -44.81540750152019 -25 3.997742233448109
			vertex -44.82876141412855 -25 3.9220084236446096
		endloop
	endfacet
	facet normal 0.9848077561517663 0 -0.17364815986161009
		outer loop
			vertex -43.48001624068408 25 11.571123213798067
			vertex -44.82876141412855 -25 3.9220084236446096
			vertex -44.82876141412855 25 3.9220084236446096
		endloop
	endfacet
	facet normal 0.9848077561517714 -4.157807451932457e-15 -0.173648159861582
		outer loop
			vertex -44.81540750152019 -25 3.9977422334481085
			vertex -43.48001624068408 25 11.571123213798066
			vertex -43.46666232807572 25 11.646857023601566
		endloop
	endfacet
	facet normal 0.9848077561517663 0 -0.17364815986161009
		outer loop
			vertex -44.81540750152019 -25 3.9977422334481085
			vertex -43.46666232807572 25 11.646857023601566
			vertex -43.46666232807572 -25 11.646857023601566
		endloop
	endfacet
	facet normal 0.9396925803283744 -3.695828761725535e-15 -0.34202025448180967
		outer loop
			vertex -40.81015172433939 25 18.94555723560097
			vertex -43.440360242890215 -25 11.719121382136214
			vertex -43.46666232807572 -25 11.646857023601566
		endloop
	endfacet
	facet normal 0.9396925803283654 0 -0.3420202544818345
		outer loop
			vertex -40.81015172433939 25 18.94555723560097
			vertex -43.46666232807572 -25 11.646857023601566
			vertex -43.46666232807572 25 11.646857023601566
		endloop
	endfacet
	facet normal 0.939692580328371 -2.7718715712942284e-15 -0.34202025448181916
		outer loop
			vertex -43.440360242890215 -25 11.719121382136214
			vertex -40.81015172433939 25 18.94555723560097
			vertex -40.783849639153885 25 19.017821594135615
		endloop
	endfacet
	facet normal 0.9396925803283652 0 -0.34202025448183454
		outer loop
			vertex -43.440360242890215 -25 11.719121382136214
			vertex -40.783849639153885 25 19.017821594135615
			vertex -40.783849639153885 -25 19.017821594135615
		endloop
	endfacet
	facet normal 0.8660253742892311 -1.8479143348370538e-15 -0.5000000510871949
		outer loop
			vertex -36.90029171163634 25 25.744340322362113
			vertex -40.7453985705646 -25 19.08442078946459
			vertex -40.783849639153885 -25 19.017821594135615
		endloop
	endfacet
	facet normal 0.8660253742892265 0 -0.5000000510872025
		outer loop
			vertex -36.90029171163634 25 25.744340322362113
			vertex -40.783849639153885 -25 19.017821594135615
			vertex -40.783849639153885 25 19.017821594135615
		endloop
	endfacet
	facet normal 0.8660253742892311 -1.8479143348370538e-15 -0.5000000510871949
		outer loop
			vertex -40.7453985705646 -25 19.08442078946459
			vertex -36.90029171163634 25 25.744340322362113
			vertex -36.86184064304706 25 25.81093951769109
		endloop
	endfacet
	facet normal 0.8660253742892265 0 -0.5000000510872025
		outer loop
			vertex -40.7453985705646 -25 19.08442078946459
			vertex -36.86184064304706 25 25.81093951769109
			vertex -36.86184064304706 -25 25.81093951769109
		endloop
	endfacet
	facet normal 0.7660445136635694 -5.543744271998663e-15 -0.6427875256147598
		outer loop
			vertex -31.86923711302034 25 31.760894037135465
			vertex -36.812408924927986 -25 25.86984995847767
			vertex -36.86184064304706 -25 25.81093951769109
		endloop
	endfacet
	facet normal 0.766044513663542 0 -0.6427875256147925
		outer loop
			vertex -31.86923711302034 25 31.760894037135465
			vertex -36.86184064304706 -25 25.81093951769109
			vertex -36.86184064304706 25 25.81093951769109
		endloop
	endfacet
	facet normal 0.766044513663544 -9.23957378666413e-16 -0.6427875256147901
		outer loop
			vertex -36.812408924927986 -25 25.869849958477666
			vertex -31.86923711302034 25 31.76089403713546
			vertex -31.819805394901262 25 31.81980447792204
		endloop
	endfacet
	facet normal 0.7660445136635418 0 -0.6427875256147928
		outer loop
			vertex -36.812408924927986 -25 25.869849958477666
			vertex -31.819805394901262 25 31.81980447792204
			vertex -31.819805394901262 -25 31.81980447792204
		endloop
	endfacet
	facet normal 0.6427876096865335 9.239570620054612e-16 -0.766044443118983
		outer loop
			vertex -25.869849384200727 25 36.8124103720219
			vertex -31.76089493934977 -25 31.86923621944778
			vertex -31.819805394901262 -25 31.81980447792204
		endloop
	endfacet
	facet normal 0.6427876096865394 0 -0.766044443118978
		outer loop
			vertex -25.869849384200727 25 36.8124103720219
			vertex -31.819805394901262 -25 31.81980447792204
			vertex -31.819805394901262 25 31.81980447792204
		endloop
	endfacet
	facet normal 0.6427876096865596 -4.619785310027174e-15 -0.7660444431189611
		outer loop
			vertex -31.76089493934977 -25 31.86923621944778
			vertex -25.869849384200727 25 36.812410372021894
			vertex -25.810938928649236 25 36.86184211354764
		endloop
	endfacet
	facet normal 0.642787609686539 0 -0.7660444431189782
		outer loop
			vertex -31.76089493934977 -25 31.86923621944778
			vertex -25.810938928649236 25 36.86184211354764
			vertex -25.810938928649236 -25 36.86184211354764
		endloop
	endfacet
	facet normal 0.49999990495552765 4.619786893332177e-15 -0.8660254586583834
		outer loop
			vertex -19.08442108302777 25 40.74539801813144
			vertex -25.744339742058923 -25 36.90029316210787
			vertex -25.810938928649236 -25 36.86184211354764
		endloop
	endfacet
	facet normal 0.4999999049555574 0 -0.8660254586583664
		outer loop
			vertex -19.08442108302777 25 40.74539801813144
			vertex -25.810938928649236 -25 36.86184211354764
			vertex -25.810938928649236 25 36.86184211354764
		endloop
	endfacet
	facet normal 0.49999990495552765 4.619786893332177e-15 -0.8660254586583834
		outer loop
			vertex -25.744339742058926 -25 36.90029316210787
			vertex -19.084421083027774 25 40.74539801813144
			vertex -19.01782189643746 25 40.78384906669167
		endloop
	endfacet
	facet normal 0.4999999049555574 0 -0.8660254586583664
		outer loop
			vertex -25.744339742058926 -25 36.90029316210787
			vertex -19.01782189643746 25 40.78384906669167
			vertex -19.01782189643746 -25 40.78384906669167
		endloop
	endfacet
	facet normal 0.3420201987585594 -5.5437430045111065e-15 -0.9396926006099844
		outer loop
			vertex -11.7191213451208 25 43.440359303783964
			vertex -18.945557534543237 -25 40.810151148247044
			vertex -19.01782189643746 -25 40.78384906669167
		endloop
	endfacet
	facet normal 0.3420201987585316 0 -0.9396926006099946
		outer loop
			vertex -11.7191213451208 25 43.440359303783964
			vertex -19.01782189643746 -25 40.78384906669167
			vertex -19.01782189643746 25 40.78384906669167
		endloop
	endfacet
	facet normal 0.3420201987585594 -5.5437430045111065e-15 -0.9396926006099844
		outer loop
			vertex -18.945557534543237 -25 40.810151148247044
			vertex -11.7191213451208 25 43.440359303783964
			vertex -11.646856983226577 25 43.466661385339336
		endloop
	endfacet
	facet normal 0.3420201987585316 0 -0.9396926006099946
		outer loop
			vertex -18.945557534543237 -25 40.810151148247044
			vertex -11.646856983226577 25 43.466661385339336
			vertex -11.646856983226577 -25 43.466661385339336
		endloop
	endfacet
	facet normal 0.17364829415972052 6.4677003330195865e-15 -0.9848077324713792
		outer loop
			vertex -3.9977422022460276 25 44.81540763270708
			vertex -11.571123173513898 -25 43.4800153085806
			vertex -11.646856983226577 -25 43.466661385339336
		endloop
	endfacet
	facet normal 0.17364829415976255 0 -0.9848077324713717
		outer loop
			vertex -3.9977422022460276 25 44.81540763270708
			vertex -11.646856983226577 -25 43.466661385339336
			vertex -11.646856983226577 25 43.466661385339336
		endloop
	endfacet
	facet normal 0.17364829415972052 6.4677003330195865e-15 -0.9848077324713792
		outer loop
			vertex -11.571123173513898 -25 43.4800153085806
			vertex -3.9977422022460276 25 44.81540763270708
			vertex -3.922008392533349 25 44.82876155594834
		endloop
	endfacet
	facet normal 0.17364829415976255 0 -0.9848077324713717
		outer loop
			vertex -11.571123173513898 -25 43.4800153085806
			vertex -3.922008392533349 25 44.82876155594834
			vertex -3.922008392533349 -25 44.82876155594834
		endloop
	endfacet
	facet normal -1.807999478856942e-8 0 -1
		outer loop
			vertex 0 0.2475246523374537 44.82876148503845
			vertex 0 -1.0113917525700344e-7 44.82876148503845
			vertex -3.845106266884545 -25 44.82876155455795
		endloop
	endfacet
	facet normal -1.807999471542559e-8 -1.1139568963319694e-17 -1
		outer loop
			vertex 0 0.2475246523374537 44.82876148503845
			vertex -3.845106266884545 -25 44.82876155455795
			vertex -3.922008392533349 -25 44.82876155594834
		endloop
	endfacet
	facet normal -1.807999478713523e-8 3.243768748918419e-25 -0.9999999999999999
		outer loop
			vertex 0 25 44.82876148503845
			vertex -4.440892098500626e-16 0.24752465233745014 44.82876148503845
			vertex -3.922008392533349 -25 44.82876155594834
		endloop
	endfacet
	facet normal -1.8079994787135226e-8 0 -0.9999999999999999
		outer loop
			vertex 0 25 44.82876148503845
			vertex -3.922008392533349 -25 44.82876155594834
			vertex -3.922008392533349 25 44.82876155594834
		endloop
	endfacet
	facet normal -1.807999478856963e-8 3.243768775421458e-23 -1
		outer loop
			vertex 0 -0.24752485261304358 44.82876148503845
			vertex -3.8451062668845455 -25 44.82876155455795
			vertex 4.440892098500626e-16 -1.0113916815157609e-7 44.82876148503845
		endloop
	endfacet
	facet normal -1.8079994788569415e-8 0 -0.9999999999999999
		outer loop
			vertex 0 -25 44.82876148503845
			vertex -3.8451062668845455 -25 44.82876155455795
			vertex 0 -0.24752485261304003 44.82876148503845
		endloop
	endfacet
	facet normal 1 0 0
		outer loop
			vertex 0 25 0
			vertex 0 -25 0
			vertex 0 25 -5
		endloop
	endfacet
	facet normal 1 0 0
		outer loop
			vertex 0 -25 0
			vertex 0 -25 -5
			vertex 0 25 -5
		endloop
	endfacet
	facet normal 0 0 1
		outer loop
			vertex -44.828761485038456 -19.828761485038456 0
			vertex 0 25 0
			vertex -44.828761485038456 25 0
		endloop
	endfacet
	facet normal 0 0 1
		outer loop
			vertex -44.828761485038456 -25 0
			vertex 0 -25 0
			vertex 0 25 0
		endloop
	endfacet
	facet normal 0 0 1
		outer loop
			vertex -44.828761485038456 -25 0
			vertex 0 25 0
			vertex -44.828761485038456 -19.828761485038456 0
		endloop
	endfacet
	facet normal 0 0 -1
		outer loop
			vertex 0 25 -5
			vertex 0 -25 -5
			vertex -44.828761575438435 19.828761575438435 -5
		endloop
	endfacet
	facet normal 0 0 -1
		outer loop
			vertex 0 25 -5
			vertex -44.828761575438435 19.828761575438435 -5
			vertex -44.828761575438435 25 -5
		endloop
	endfacet
	facet normal 0 0 -1
		outer loop
			vertex 0 -25 -5
			vertex -44.828761575438435 -25 -5
			vertex -44.828761575438435 19.828761575438435 -5
		endloop
	endfacet
	facet normal 1 0 0
		outer loop
			vertex 0 -25 45.520317244668306
			vertex 0 -25 44.828761485038456
			vertex 0 25 44.82876148503845
		endloop
	endfacet
	facet normal 1 0 0
		outer loop
			vertex 0 -25 45.520317244668306
			vertex 0 25 44.82876148503845
			vertex 0 25 45.520317244668085
		endloop
	endfacet
	facet normal 1 0 0
		outer loop
			vertex 0 -25 45.520317244668306
			vertex 0 25 45.520317244668085
			vertex 0 25 47.70577142805955
		endloop
	endfacet
	facet normal 1 0 0
		outer loop
			vertex 0 -25 45.520317244668306
			vertex 0 25 47.70577142805955
			vertex 0 0.4749539709212627 47.7057714280597
		endloop
	endfacet
	facet normal 1 0 0
		outer loop
			vertex 0 -25 45.520317244668306
			vertex 0 0.4749539709213373 47.705771428059705
			vertex 0 -25 47.705771428059855
		endloop
	endfacet
	facet normal 1 0 0
		outer loop
			vertex 0 25 47.70577142805955
			vertex 0 25 49.80973457960443
			vertex 0 0.4749539709212627 47.7057714280597
		endloop
	endfacet
	facet normal 1 0 0
		outer loop
			vertex 0 0.4749539709213373 47.705771428059705
			vertex 0 25 49.80973457960443
			vertex 0 -25 49.80973457960444
		endloop
	endfacet
	facet normal 1 0 0
		outer loop
			vertex 0 0.4749539709213373 47.705771428059705
			vertex 0 -25 49.80973457960444
			vertex 0 -25 47.705771428059855
		endloop
	endfacet
	facet normal 0 0 -1
		outer loop
			vertex -44.828761575438435 19.828761575438435 -5
			vertex -49.80973420672842 24.80973420672842 -5
			vertex -49.80973420672842 25 -5
		endloop
	endfacet
	facet normal 0 0 -1
		outer loop
			vertex -44.828761575438435 19.828761575438435 -5
			vertex -49.80973420672842 25 -5
			vertex -44.828761575438435 25 -5
		endloop
	endfacet
	facet normal 0 0 -1
		outer loop
			vertex -44.828761575438435 -25 -5
			vertex -49.80973420672842 -25 -5
			vertex -49.80973420672842 24.80973420672842 -5
		endloop
	endfacet
	facet normal 0 0 -1
		outer loop
			vertex -44.828761575438435 -25 -5
			vertex -49.80973420672842 24.80973420672842 -5
			vertex -44.828761575438435 19.828761575438435 -5
		endloop
	endfacet
endsolid exported
