solid exported
	facet normal 0.0747299214698055 -0.9972038100795226 2.2142372603884356e-16
		outer loop
			vertex 0 -2.5000000000000004 2.0000000000000004
			vertex 0 -2.500000000000001 4.440892098500626e-16
			vertex 0.09315141290426254 -2.493019282817841 2.0000000000000004
		endloop
	endfacet
	facet normal 0.0747299214698055 -0.9972038100795226 2.2142372603884356e-16
		outer loop
			vertex 0.09315141290426254 -2.493019282817841 2.0000000000000004
			vertex 0 -2.500000000000001 4.440892098500626e-16
			vertex 0.37260565161705017 -2.472077131271363 4.440892098500626e-16
		endloop
	endfacet
	facet normal 0.0747299214698055 -0.9972038100795226 2.2142372603884356e-16
		outer loop
			vertex 0.09315141290426254 -2.493019282817841 2.0000000000000004
			vertex 0.37260565161705017 -2.472077131271363 4.440892098500626e-16
			vertex 0.37260565161705017 -2.4720771312713627 2.0000000000000004
		endloop
	endfacet
	facet normal 0.22252115859345642 -0.9749278609098346 2.164774717061301e-16
		outer loop
			vertex 0.37260565161705017 -2.4720771312713627 2.0000000000000004
			vertex 0.37260565161705017 -2.472077131271363 4.440892098500626e-16
			vertex 0.46367622166872025 -2.451290845870972 2.0000000000000004
		endloop
	endfacet
	facet normal 0.22252115859345642 -0.9749278609098346 2.164774717061301e-16
		outer loop
			vertex 0.46367622166872025 -2.451290845870972 2.0000000000000004
			vertex 0.37260565161705017 -2.472077131271363 4.440892098500626e-16
			vertex 0.7368879318237305 -2.3889319896698007 4.440892098500626e-16
		endloop
	endfacet
	facet normal 0.22252115859345642 -0.9749278609098346 2.164774717061301e-16
		outer loop
			vertex 0.46367622166872025 -2.451290845870972 2.0000000000000004
			vertex 0.7368879318237305 -2.3889319896698007 4.440892098500626e-16
			vertex 0.7368879318237305 -2.3889319896698002 2.0000000000000004
		endloop
	endfacet
	facet normal 0.3653410850359856 -0.9308737248331423 2.066954884656674e-16
		outer loop
			vertex 0.7368879318237305 -2.3889319896698002 2.0000000000000004
			vertex 0.7368879318237305 -2.3889319896698007 4.440892098500626e-16
			vertex 0.8238433003425598 -2.3548045158386235 2.0000000000000004
		endloop
	endfacet
	facet normal 0.3653410850359856 -0.9308737248331423 2.066954884656674e-16
		outer loop
			vertex 0.8238433003425598 -2.3548045158386235 2.0000000000000004
			vertex 0.7368879318237305 -2.3889319896698007 4.440892098500626e-16
			vertex 1.0847094058990479 -2.2524220943450937 4.440892098500626e-16
		endloop
	endfacet
	facet normal 0.36534108503598567 -0.9308737248331423 2.066954884656674e-16
		outer loop
			vertex 0.8238433003425598 -2.3548045158386235 2.0000000000000004
			vertex 1.0847094058990479 -2.2524220943450937 4.440892098500626e-16
			vertex 1.0847094058990479 -2.252422094345093 2.0000000000000004
		endloop
	endfacet
	facet normal 0.5000001317692231 -0.8660253277074289 1.9229625174586682e-16
		outer loop
			vertex 1.0847094058990479 -2.252422094345093 2.0000000000000004
			vertex 1.0847094058990479 -2.2524220943450937 4.440892098500626e-16
			vertex 1.1656070947647095 -2.2057157754898076 2.0000000000000004
		endloop
	endfacet
	facet normal 0.5000001317692231 -0.8660253277074289 1.9229625174586682e-16
		outer loop
			vertex 1.1656070947647095 -2.2057157754898076 2.0000000000000004
			vertex 1.0847094058990479 -2.2524220943450937 4.440892098500626e-16
			vertex 1.4083001613616943 -2.065596818923951 4.440892098500626e-16
		endloop
	endfacet
	facet normal 0.5000001317692231 -0.8660253277074289 1.9229625174586682e-16
		outer loop
			vertex 1.1656070947647095 -2.2057157754898076 2.0000000000000004
			vertex 1.4083001613616943 -2.065596818923951 4.440892098500626e-16
			vertex 1.4083001613616943 -2.0655968189239506 2.0000000000000004
		endloop
	endfacet
	facet normal 0.6234896570823644 -0.7818315979233097 1.7360148827878723e-16
		outer loop
			vertex 1.4083001613616943 -2.0655968189239506 2.0000000000000004
			vertex 1.4083001613616943 -2.065596818923951 4.440892098500626e-16
			vertex 1.481333076953888 -2.0073550343513493 2.0000000000000004
		endloop
	endfacet
	facet normal 0.6234896570823644 -0.7818315979233097 1.7360148827878723e-16
		outer loop
			vertex 1.481333076953888 -2.0073550343513493 2.0000000000000004
			vertex 1.4083001613616943 -2.065596818923951 4.440892098500626e-16
			vertex 1.7004318237304688 -1.8326296806335458 4.440892098500626e-16
		endloop
	endfacet
	facet normal 0.6234896570823644 -0.7818315979233097 1.7360148827878723e-16
		outer loop
			vertex 1.481333076953888 -2.0073550343513493 2.0000000000000004
			vertex 1.7004318237304688 -1.8326296806335458 4.440892098500626e-16
			vertex 1.7004318237304688 -1.8326296806335454 2.0000000000000004
		endloop
	endfacet
	facet normal 0.7330517550963407 -0.6801728635796745 1.5102871477427605e-16
		outer loop
			vertex 1.7004318237304688 -1.8326296806335454 2.0000000000000004
			vertex 1.7004318237304688 -1.8326296806335458 4.440892098500626e-16
			vertex 1.7639685571193695 -1.7641533911228184 2.0000000000000004
		endloop
	endfacet
	facet normal 0.7330517550963407 -0.6801728635796745 1.5102871477427605e-16
		outer loop
			vertex 1.7639685571193695 -1.7641533911228184 2.0000000000000004
			vertex 1.7004318237304688 -1.8326296806335458 4.440892098500626e-16
			vertex 1.9545787572860718 -1.558724522590638 4.440892098500626e-16
		endloop
	endfacet
	facet normal 0.7330517550963407 -0.6801728635796747 1.5102871477427608e-16
		outer loop
			vertex 1.7639685571193695 -1.7641533911228184 2.0000000000000004
			vertex 1.9545787572860718 -1.558724522590638 4.440892098500626e-16
			vertex 1.9545787572860718 -1.5587245225906377 2.0000000000000004
		endloop
	endfacet
	facet normal 0.8262387160163494 -0.5633201435734877 1.25082198726087e-16
		outer loop
			vertex 1.9545787572860718 -1.5587245225906377 2.0000000000000004
			vertex 1.9545787572860718 -1.558724522590638 4.440892098500626e-16
			vertex 2.0071999728679657 -1.4815433919429783 2
		endloop
	endfacet
	facet normal 0.8262387160163494 -0.5633201435734877 1.25082198726087e-16
		outer loop
			vertex 2.0071999728679657 -1.4815433919429783 2
			vertex 1.9545787572860718 -1.558724522590638 4.440892098500626e-16
			vertex 2.1650636196136475 -1.2500000000000009 4.440892098500626e-16
		endloop
	endfacet
	facet normal 0.8262387160163492 -0.5633201435734876 1.2508219872608697e-16
		outer loop
			vertex 2.0071999728679657 -1.4815433919429783 2
			vertex 2.1650636196136475 -1.2500000000000009 4.440892098500626e-16
			vertex 2.1650636196136475 -1.2500000000000004 2
		endloop
	endfacet
	facet normal 0.826238716016351 -0.5633201435734853 1.2508219872608645e-16
		outer loop
			vertex 1.9946164677634246 -1.4999999999999991 8
			vertex 1.9946164677634246 -1.5000000000000004 2.0000000000000004
			vertex 2.0071999728679657 -1.4815433919429783 2
		endloop
	endfacet
	facet normal 0.8262387160163494 -0.5633201435734874 1.1504912884404546e-16
		outer loop
			vertex 1.9946164677634246 -1.4999999999999991 8
			vertex 2.0071999728679657 -1.4815433919429783 2
			vertex 2.1650636196136475 -1.2499999999999991 8
		endloop
	endfacet
	facet normal 0.8262387160163492 -0.5633201435734876 1.2508219872608697e-16
		outer loop
			vertex 2.0071999728679657 -1.4815433919429783 2
			vertex 2.1650636196136475 -1.2500000000000004 2
			vertex 2.1650636196136475 -1.2499999999999991 8
		endloop
	endfacet
	facet normal 0.9009689189148571 -0.4338836331891233 9.634151991491609e-17
		outer loop
			vertex 2.1650636196136475 -1.2500000000000004 2
			vertex 2.1650636196136475 -1.2500000000000009 4.440892098500626e-16
			vertex 2.2055938243865967 -1.1658381372690205 2
		endloop
	endfacet
	facet normal 0.9009689189148571 -0.4338836331891233 9.634151991491609e-17
		outer loop
			vertex 2.2055938243865967 -1.1658381372690205 2
			vertex 2.1650636196136475 -1.2500000000000009 4.440892098500626e-16
			vertex 2.3271844387054443 -0.9133525490760812 0
		endloop
	endfacet
	facet normal 0.9009689189148571 -0.43388363318912326 9.634151991491608e-17
		outer loop
			vertex 2.2055938243865967 -1.1658381372690205 2
			vertex 2.3271844387054443 -0.9133525490760812 0
			vertex 2.3271844387054443 -0.9133525490760808 2
		endloop
	endfacet
	facet normal 0.9009689189148571 -0.43388363318912326 9.634151991491608e-17
		outer loop
			vertex 2.1650636196136475 -1.2499999999999991 8
			vertex 2.1650636196136475 -1.2500000000000004 2
			vertex 2.2055938243865967 -1.1658381372690205 2
		endloop
	endfacet
	facet normal 0.9009689189148571 -0.43388363318912326 9.634151991491608e-17
		outer loop
			vertex 2.1650636196136475 -1.2499999999999991 8
			vertex 2.2055938243865967 -1.1658381372690205 2
			vertex 2.3271844387054443 -0.9133525490760794 8
		endloop
	endfacet
	facet normal 0.9009689189148571 -0.4338836331891233 9.634151991491609e-17
		outer loop
			vertex 2.2055938243865967 -1.1658381372690205 2
			vertex 2.3271844387054443 -0.9133525490760808 2
			vertex 2.3271844387054443 -0.9133525490760794 8
		endloop
	endfacet
	facet normal 0.9555728783913927 -0.2947549390303561 6.544874398669711e-17
		outer loop
			vertex 2.3271844387054443 -0.9133525490760808 2
			vertex 2.3271844387054443 -0.9133525490760812 0
			vertex 2.354718267917633 -0.8240899890661244 2
		endloop
	endfacet
	facet normal 0.9555728783913927 -0.2947549390303561 6.544874398669711e-17
		outer loop
			vertex 2.354718267917633 -0.8240899890661244 2
			vertex 2.3271844387054443 -0.9133525490760812 0
			vertex 2.437319755554199 -0.5563023090362558 0
		endloop
	endfacet
	facet normal 0.9555728783913926 -0.29475493903035604 6.54487439866971e-17
		outer loop
			vertex 2.354718267917633 -0.8240899890661244 2
			vertex 2.437319755554199 -0.5563023090362558 0
			vertex 2.437319755554199 -0.5563023090362553 2
		endloop
	endfacet
	facet normal 0.9555728783913926 -0.29475493903035604 6.54487439866971e-17
		outer loop
			vertex 2.3271844387054443 -0.9133525490760794 8
			vertex 2.3271844387054443 -0.9133525490760808 2
			vertex 2.354718267917633 -0.8240899890661244 2
		endloop
	endfacet
	facet normal 0.9555728783913926 -0.29475493903035604 6.54487439866971e-17
		outer loop
			vertex 2.3271844387054443 -0.9133525490760794 8
			vertex 2.354718267917633 -0.8240899890661244 2
			vertex 2.437319755554199 -0.556302309036254 8
		endloop
	endfacet
	facet normal 0.9555728783913927 -0.2947549390303561 6.544874398669711e-17
		outer loop
			vertex 2.354718267917633 -0.8240899890661244 2
			vertex 2.437319755554199 -0.5563023090362553 2
			vertex 2.437319755554199 -0.556302309036254 8
		endloop
	endfacet
	facet normal 0.9888307857508439 -0.1490425347052601 3.309409073565475e-17
		outer loop
			vertex 2.437319755554199 -0.5563023090362553 2
			vertex 2.437319755554199 -0.5563023090362558 0
			vertex 2.451242208480835 -0.46393303945660636 2
		endloop
	endfacet
	facet normal 0.9888307857508439 -0.1490425347052601 3.309409073565475e-17
		outer loop
			vertex 2.451242208480835 -0.46393303945660636 2
			vertex 2.437319755554199 -0.5563023090362558 0
			vertex 2.493009567260742 -0.18682523071765988 0
		endloop
	endfacet
	facet normal 0.9888307857508439 -0.1490425347052601 3.309409073565475e-17
		outer loop
			vertex 2.451242208480835 -0.46393303945660636 2
			vertex 2.493009567260742 -0.18682523071765988 0
			vertex 2.493009567260742 -0.18682523071765944 2
		endloop
	endfacet
	facet normal 0.9888307857508439 -0.1490425347052601 3.309409073565475e-17
		outer loop
			vertex 2.437319755554199 -0.556302309036254 8
			vertex 2.437319755554199 -0.5563023090362553 2
			vertex 2.451242208480835 -0.46393303945660636 2
		endloop
	endfacet
	facet normal 0.9888307857508439 -0.1490425347052601 3.309409073565475e-17
		outer loop
			vertex 2.437319755554199 -0.556302309036254 8
			vertex 2.451242208480835 -0.46393303945660636 2
			vertex 2.493009567260742 -0.1868252307176581 8
		endloop
	endfacet
	facet normal 0.9888307857508439 -0.1490425347052601 3.309409073565475e-17
		outer loop
			vertex 2.451242208480835 -0.46393303945660636 2
			vertex 2.493009567260742 -0.18682523071765944 2
			vertex 2.493009567260742 -0.1868252307176581 8
		endloop
	endfacet
	facet normal 1 0 0
		outer loop
			vertex 2.493009567260742 -0.18682523071765944 2
			vertex 2.493009567260742 -0.18682523071765988 0
			vertex 2.493009567260742 -0.09341261535882994 2
		endloop
	endfacet
	facet normal 1 0 0
		outer loop
			vertex 2.493009567260742 -0.09341261535882994 2
			vertex 2.493009567260742 -0.18682523071765988 0
			vertex 2.493009567260742 0.1868252307176581 0
		endloop
	endfacet
	facet normal 1 0 0
		outer loop
			vertex 2.493009567260742 -0.09341261535882994 2
			vertex 2.493009567260742 0.1868252307176581 0
			vertex 2.493009567260742 0.18682523071765855 2
		endloop
	endfacet
	facet normal 1 0 0
		outer loop
			vertex 2.493009567260742 -0.1868252307176581 8
			vertex 2.493009567260742 -0.18682523071765944 2
			vertex 2.493009567260742 -0.09341261535882994 2
		endloop
	endfacet
	facet normal 1 0 0
		outer loop
			vertex 2.493009567260742 -0.1868252307176581 8
			vertex 2.493009567260742 -0.09341261535882994 2
			vertex 2.493009567260742 0.18682523071765988 8
		endloop
	endfacet
	facet normal 1 0 0
		outer loop
			vertex 2.493009567260742 -0.09341261535882994 2
			vertex 2.493009567260742 0.18682523071765855 2
			vertex 2.493009567260742 0.18682523071765988 8
		endloop
	endfacet
	facet normal 0.9888307857508439 0.1490425347052601 -3.309409073565475e-17
		outer loop
			vertex 2.493009567260742 0.18682523071765855 2
			vertex 2.493009567260742 0.1868252307176581 0
			vertex 2.4790871143341064 0.2791945002973075 2
		endloop
	endfacet
	facet normal 0.9888307857508439 0.1490425347052601 -3.309409073565475e-17
		outer loop
			vertex 2.4790871143341064 0.2791945002973075 2
			vertex 2.493009567260742 0.1868252307176581 0
			vertex 2.437319755554199 0.556302309036254 0
		endloop
	endfacet
	facet normal 0.9888307857508439 0.1490425347052601 -3.309409073565475e-17
		outer loop
			vertex 2.4790871143341064 0.2791945002973075 2
			vertex 2.437319755554199 0.556302309036254 0
			vertex 2.437319755554199 0.5563023090362544 2
		endloop
	endfacet
	facet normal 0.9888307857508439 0.1490425347052601 -3.309409073565475e-17
		outer loop
			vertex 2.493009567260742 0.18682523071765988 8
			vertex 2.493009567260742 0.18682523071765855 2
			vertex 2.4790871143341064 0.2791945002973075 2
		endloop
	endfacet
	facet normal 0.9888307857508439 0.1490425347052601 -3.309409073565475e-17
		outer loop
			vertex 2.493009567260742 0.18682523071765988 8
			vertex 2.4790871143341064 0.2791945002973075 2
			vertex 2.437319755554199 0.5563023090362558 8
		endloop
	endfacet
	facet normal 0.9888307857508439 0.1490425347052601 -3.309409073565475e-17
		outer loop
			vertex 2.4790871143341064 0.2791945002973075 2
			vertex 2.437319755554199 0.5563023090362544 2
			vertex 2.437319755554199 0.5563023090362558 8
		endloop
	endfacet
	facet normal 0.9555728783913927 0.2947549390303561 -6.544874398669711e-17
		outer loop
			vertex 2.437319755554199 0.5563023090362544 2
			vertex 2.437319755554199 0.556302309036254 0
			vertex 2.4097859263420105 0.6455648690462108 2
		endloop
	endfacet
	facet normal 0.9555728783913927 0.2947549390303561 -6.544874398669711e-17
		outer loop
			vertex 2.4097859263420105 0.6455648690462108 2
			vertex 2.437319755554199 0.556302309036254 0
			vertex 2.3271844387054443 0.9133525490760794 0
		endloop
	endfacet
	facet normal 0.9555728783913926 0.29475493903035604 -6.54487439866971e-17
		outer loop
			vertex 2.4097859263420105 0.6455648690462108 2
			vertex 2.3271844387054443 0.9133525490760794 0
			vertex 2.3271844387054443 0.9133525490760799 2
		endloop
	endfacet
	facet normal 0.9555728783913926 0.29475493903035604 -6.54487439866971e-17
		outer loop
			vertex 2.437319755554199 0.5563023090362558 8
			vertex 2.437319755554199 0.5563023090362544 2
			vertex 2.4097859263420105 0.6455648690462108 2
		endloop
	endfacet
	facet normal 0.9555728783913926 0.29475493903035604 -6.54487439866971e-17
		outer loop
			vertex 2.437319755554199 0.5563023090362558 8
			vertex 2.4097859263420105 0.6455648690462108 2
			vertex 2.3271844387054443 0.9133525490760812 8
		endloop
	endfacet
	facet normal 0.9555728783913927 0.2947549390303561 -6.544874398669711e-17
		outer loop
			vertex 2.4097859263420105 0.6455648690462108 2
			vertex 2.3271844387054443 0.9133525490760799 2
			vertex 2.3271844387054443 0.9133525490760812 8
		endloop
	endfacet
	facet normal 0.9009689189148571 0.4338836331891233 -9.634151991491609e-17
		outer loop
			vertex 2.3271844387054443 0.9133525490760799 2
			vertex 2.3271844387054443 0.9133525490760794 0
			vertex 2.286654233932495 0.9975144118070598 2
		endloop
	endfacet
	facet normal 0.9009689189148571 0.4338836331891233 -9.634151991491609e-17
		outer loop
			vertex 2.286654233932495 0.9975144118070598 2
			vertex 2.3271844387054443 0.9133525490760794 0
			vertex 2.1650636196136475 1.2499999999999991 0
		endloop
	endfacet
	facet normal 0.9009689189148571 0.43388363318912326 -9.634151991491608e-17
		outer loop
			vertex 2.286654233932495 0.9975144118070598 2
			vertex 2.1650636196136475 1.2499999999999991 0
			vertex 2.1650636196136475 1.2499999999999996 1.9999999999999996
		endloop
	endfacet
	facet normal 0.9009689189148571 0.43388363318912326 -9.634151991491608e-17
		outer loop
			vertex 2.3271844387054443 0.9133525490760812 8
			vertex 2.3271844387054443 0.9133525490760799 2
			vertex 2.286654233932495 0.9975144118070598 2
		endloop
	endfacet
	facet normal 0.9009689189148571 0.43388363318912326 -9.634151991491608e-17
		outer loop
			vertex 2.3271844387054443 0.9133525490760812 8
			vertex 2.286654233932495 0.9975144118070598 2
			vertex 2.1650636196136475 1.2500000000000009 8
		endloop
	endfacet
	facet normal 0.9009689189148571 0.4338836331891233 -9.634151991491609e-17
		outer loop
			vertex 2.286654233932495 0.9975144118070598 2
			vertex 2.1650636196136475 1.2499999999999996 1.9999999999999996
			vertex 2.1650636196136475 1.2500000000000009 8
		endloop
	endfacet
	facet normal 0.8262387160163494 0.5633201435734877 -1.25082198726087e-16
		outer loop
			vertex 2.1650636196136475 1.2499999999999996 1.9999999999999996
			vertex 2.1650636196136475 1.2499999999999991 0
			vertex 2.1124424040317535 1.3271811306476589 1.9999999999999996
		endloop
	endfacet
	facet normal 0.8262387160163494 0.5633201435734877 -1.25082198726087e-16
		outer loop
			vertex 2.1124424040317535 1.3271811306476589 1.9999999999999996
			vertex 2.1650636196136475 1.2499999999999991 0
			vertex 1.9545787572860718 1.5587245225906363 0
		endloop
	endfacet
	facet normal 0.8262387160163492 0.5633201435734876 -1.2508219872608697e-16
		outer loop
			vertex 2.1124424040317535 1.3271811306476589 1.9999999999999996
			vertex 1.9545787572860718 1.5587245225906363 0
			vertex 1.9545787572860718 1.5587245225906368 1.9999999999999996
		endloop
	endfacet
	facet normal 0.8262387160163492 0.5633201435734876 -1.2508219872608697e-16
		outer loop
			vertex 2.1650636196136475 1.2500000000000009 8
			vertex 2.1650636196136475 1.2499999999999996 1.9999999999999996
			vertex 2.1124424040317535 1.3271811306476589 1.9999999999999996
		endloop
	endfacet
	facet normal 0.8262387160163495 0.5633201435734875 -1.2922901354673107e-16
		outer loop
			vertex 1.9946164677634246 1.5000000000000009 8
			vertex 2.1650636196136475 1.2500000000000009 8
			vertex 2.1124424040317535 1.3271811306476589 1.9999999999999996
		endloop
	endfacet
	facet normal 0.8262387160163495 0.5633201435734875 -1.2922901354673107e-16
		outer loop
			vertex 1.9946164677634246 1.5000000000000009 8
			vertex 2.1124424040317535 1.3271811306476589 1.9999999999999996
			vertex 1.9946164677634246 1.5000000000000004 6.478267366703362
		endloop
	endfacet
	facet normal 0.8262387160163495 0.5633201435734874 -1.2508219872608692e-16
		outer loop
			vertex 1.9946164677634246 1.5000000000000004 6.478267366703362
			vertex 2.1124424040317535 1.3271811306476589 1.9999999999999996
			vertex 1.9946164677634246 1.4999999999999996 1.9999999999999996
		endloop
	endfacet
	facet normal 0.7330517550963407 0.6801728635796745 -1.5102871477427605e-16
		outer loop
			vertex 1.9545787572860718 1.5587245225906368 1.9999999999999996
			vertex 1.9545787572860718 1.5587245225906363 0
			vertex 1.891042023897171 1.6272008121013637 1.9999999999999996
		endloop
	endfacet
	facet normal 0.7330517550963407 0.6801728635796745 -1.5102871477427605e-16
		outer loop
			vertex 1.891042023897171 1.6272008121013637 1.9999999999999996
			vertex 1.9545787572860718 1.5587245225906363 0
			vertex 1.7004318237304688 1.832629680633544 0
		endloop
	endfacet
	facet normal 0.7330517550963407 0.6801728635796747 -1.5102871477427608e-16
		outer loop
			vertex 1.891042023897171 1.6272008121013637 1.9999999999999996
			vertex 1.7004318237304688 1.832629680633544 0
			vertex 1.7004318237304688 1.8326296806335445 1.9999999999999996
		endloop
	endfacet
	facet normal 0.6234896570823644 0.7818315979233097 -1.7360148827878723e-16
		outer loop
			vertex 1.7004318237304688 1.8326296806335445 1.9999999999999996
			vertex 1.7004318237304688 1.832629680633544 0
			vertex 1.6273989081382751 1.8908714652061458 1.9999999999999996
		endloop
	endfacet
	facet normal 0.6234896570823644 0.7818315979233097 -1.7360148827878723e-16
		outer loop
			vertex 1.6273989081382751 1.8908714652061458 1.9999999999999996
			vertex 1.7004318237304688 1.832629680633544 0
			vertex 1.4083001613616943 2.0655968189239493 -8.881784197001252e-16
		endloop
	endfacet
	facet normal 0.6234896570823644 0.7818315979233097 -1.7360148827878723e-16
		outer loop
			vertex 1.6273989081382751 1.8908714652061458 1.9999999999999996
			vertex 1.4083001613616943 2.0655968189239493 -8.881784197001252e-16
			vertex 1.4083001613616943 2.0655968189239498 1.9999999999999996
		endloop
	endfacet
	facet normal 0.5000001317692231 0.8660253277074289 -1.9229625174586682e-16
		outer loop
			vertex 1.4083001613616943 2.0655968189239498 1.9999999999999996
			vertex 1.4083001613616943 2.0655968189239493 -8.881784197001252e-16
			vertex 1.3274024724960327 2.1123031377792354 1.9999999999999996
		endloop
	endfacet
	facet normal 0.5000001317692231 0.8660253277074289 -1.9229625174586682e-16
		outer loop
			vertex 1.3274024724960327 2.1123031377792354 1.9999999999999996
			vertex 1.4083001613616943 2.0655968189239493 -8.881784197001252e-16
			vertex 1.0847094058990479 2.252422094345092 -8.881784197001252e-16
		endloop
	endfacet
	facet normal 0.5000001317692231 0.8660253277074289 -1.9229625174586682e-16
		outer loop
			vertex 1.3274024724960327 2.1123031377792354 1.9999999999999996
			vertex 1.0847094058990479 2.252422094345092 -8.881784197001252e-16
			vertex 1.0847094058990479 2.2524220943450923 1.9999999999999996
		endloop
	endfacet
	facet normal 0.3653410850359856 0.9308737248331423 -2.066954884656674e-16
		outer loop
			vertex 1.0847094058990479 2.2524220943450923 1.9999999999999996
			vertex 1.0847094058990479 2.252422094345092 -8.881784197001252e-16
			vertex 0.9977540373802185 2.286549568176269 1.9999999999999996
		endloop
	endfacet
	facet normal 0.3653410850359856 0.9308737248331423 -2.066954884656674e-16
		outer loop
			vertex 0.9977540373802185 2.286549568176269 1.9999999999999996
			vertex 1.0847094058990479 2.252422094345092 -8.881784197001252e-16
			vertex 0.7368879318237305 2.388931989669799 -8.881784197001252e-16
		endloop
	endfacet
	facet normal 0.36534108503598567 0.9308737248331423 -2.066954884656674e-16
		outer loop
			vertex 0.9977540373802185 2.286549568176269 1.9999999999999996
			vertex 0.7368879318237305 2.388931989669799 -8.881784197001252e-16
			vertex 0.7368879318237305 2.3889319896697994 1.9999999999999996
		endloop
	endfacet
	facet normal 0.22252115859345642 0.9749278609098346 -2.164774717061301e-16
		outer loop
			vertex 0.7368879318237305 2.3889319896697994 1.9999999999999996
			vertex 0.7368879318237305 2.388931989669799 -8.881784197001252e-16
			vertex 0.6458173617720604 2.40971827507019 1.9999999999999996
		endloop
	endfacet
	facet normal 0.22252115859345642 0.9749278609098346 -2.164774717061301e-16
		outer loop
			vertex 0.6458173617720604 2.40971827507019 1.9999999999999996
			vertex 0.7368879318237305 2.388931989669799 -8.881784197001252e-16
			vertex 0.37260565161705017 2.4720771312713614 -8.881784197001252e-16
		endloop
	endfacet
	facet normal 0.22252115859345642 0.9749278609098346 -2.164774717061301e-16
		outer loop
			vertex 0.6458173617720604 2.40971827507019 1.9999999999999996
			vertex 0.37260565161705017 2.4720771312713614 -8.881784197001252e-16
			vertex 0.37260565161705017 2.472077131271362 1.9999999999999996
		endloop
	endfacet
	facet normal 0.07472992146980559 0.9972038100795226 -2.2142372603884356e-16
		outer loop
			vertex 0.37260565161705017 2.472077131271362 1.9999999999999996
			vertex 0.37260565161705017 2.4720771312713614 -8.881784197001252e-16
			vertex 0.27945423871278774 2.4790578484535213 1.9999999999999996
		endloop
	endfacet
	facet normal 0.07472992146980556 0.9972038100795226 -2.225843853392132e-16
		outer loop
			vertex 0.27945423871278774 2.4790578484535213 1.9999999999999996
			vertex 0.37260565161705017 2.4720771312713614 -8.881784197001252e-16
			vertex 3.0616169991140216e-16 2.499999999999999 -8.881784197001252e-16
		endloop
	endfacet
	facet normal 0.07472992146980556 0.9972038100795226 -2.2142372603884356e-16
		outer loop
			vertex 0.27945423871278774 2.4790578484535213 1.9999999999999996
			vertex 3.0616169991140216e-16 2.499999999999999 -8.881784197001252e-16
			vertex 3.0616169991140216e-16 2.4999999999999996 1.9999999999999996
		endloop
	endfacet
	facet normal -0.07472992146980544 0.9972038100795226 -2.2142372603884356e-16
		outer loop
			vertex 3.0616169991140216e-16 2.4999999999999996 1.9999999999999996
			vertex 3.0616169991140216e-16 2.499999999999999 -8.881784197001252e-16
			vertex -0.09315141290426232 2.49301928281784 1.9999999999999996
		endloop
	endfacet
	facet normal -0.07472992146980544 0.9972038100795226 -2.2171389086393596e-16
		outer loop
			vertex -0.09315141290426232 2.49301928281784 1.9999999999999996
			vertex 3.0616169991140216e-16 2.499999999999999 -8.881784197001252e-16
			vertex -0.37260565161705017 2.4720771312713614 -8.881784197001252e-16
		endloop
	endfacet
	facet normal -0.07472992146980545 0.9972038100795226 -2.2142372603884356e-16
		outer loop
			vertex -0.09315141290426232 2.49301928281784 1.9999999999999996
			vertex -0.37260565161705017 2.4720771312713614 -8.881784197001252e-16
			vertex -0.37260565161705017 2.472077131271362 1.9999999999999996
		endloop
	endfacet
	facet normal -0.22252115859345642 0.9749278609098346 -2.164774717061301e-16
		outer loop
			vertex -0.37260565161705017 2.472077131271362 1.9999999999999996
			vertex -0.37260565161705017 2.4720771312713614 -8.881784197001252e-16
			vertex -0.46367622166872025 2.4512908458709712 1.9999999999999996
		endloop
	endfacet
	facet normal -0.22252115859345642 0.9749278609098346 -2.164774717061301e-16
		outer loop
			vertex -0.46367622166872025 2.4512908458709712 1.9999999999999996
			vertex -0.37260565161705017 2.4720771312713614 -8.881784197001252e-16
			vertex -0.7368879318237305 2.388931989669799 -8.881784197001252e-16
		endloop
	endfacet
	facet normal -0.22252115859345642 0.9749278609098346 -2.164774717061301e-16
		outer loop
			vertex -0.46367622166872025 2.4512908458709712 1.9999999999999996
			vertex -0.7368879318237305 2.388931989669799 -8.881784197001252e-16
			vertex -0.7368879318237305 2.3889319896697994 1.9999999999999996
		endloop
	endfacet
	facet normal -0.3653410850359856 0.9308737248331423 -2.066954884656674e-16
		outer loop
			vertex -0.7368879318237305 2.3889319896697994 1.9999999999999996
			vertex -0.7368879318237305 2.388931989669799 -8.881784197001252e-16
			vertex -0.8238433003425598 2.3548045158386226 1.9999999999999996
		endloop
	endfacet
	facet normal -0.3653410850359856 0.9308737248331423 -2.066954884656674e-16
		outer loop
			vertex -0.8238433003425598 2.3548045158386226 1.9999999999999996
			vertex -0.7368879318237305 2.388931989669799 -8.881784197001252e-16
			vertex -1.0847094058990479 2.252422094345092 -8.881784197001252e-16
		endloop
	endfacet
	facet normal -0.36534108503598567 0.9308737248331423 -2.066954884656674e-16
		outer loop
			vertex -0.8238433003425598 2.3548045158386226 1.9999999999999996
			vertex -1.0847094058990479 2.252422094345092 -8.881784197001252e-16
			vertex -1.0847094058990479 2.2524220943450923 1.9999999999999996
		endloop
	endfacet
	facet normal -0.5000001317692231 0.8660253277074289 -1.9229625174586682e-16
		outer loop
			vertex -1.0847094058990479 2.2524220943450923 1.9999999999999996
			vertex -1.0847094058990479 2.252422094345092 -8.881784197001252e-16
			vertex -1.1656070947647095 2.2057157754898067 1.9999999999999996
		endloop
	endfacet
	facet normal -0.5000001317692231 0.8660253277074289 -1.9229625174586682e-16
		outer loop
			vertex -1.1656070947647095 2.2057157754898067 1.9999999999999996
			vertex -1.0847094058990479 2.252422094345092 -8.881784197001252e-16
			vertex -1.4083001613616943 2.0655968189239493 -8.881784197001252e-16
		endloop
	endfacet
	facet normal -0.5000001317692231 0.8660253277074289 -1.9229625174586682e-16
		outer loop
			vertex -1.1656070947647095 2.2057157754898067 1.9999999999999996
			vertex -1.4083001613616943 2.0655968189239493 -8.881784197001252e-16
			vertex -1.4083001613616943 2.0655968189239498 1.9999999999999996
		endloop
	endfacet
	facet normal -0.6234896570823644 0.7818315979233097 -1.7360148827878723e-16
		outer loop
			vertex -1.4083001613616943 2.0655968189239498 1.9999999999999996
			vertex -1.4083001613616943 2.0655968189239493 -8.881784197001252e-16
			vertex -1.481333076953888 2.0073550343513484 1.9999999999999996
		endloop
	endfacet
	facet normal -0.6234896570823644 0.7818315979233097 -1.7360148827878723e-16
		outer loop
			vertex -1.481333076953888 2.0073550343513484 1.9999999999999996
			vertex -1.4083001613616943 2.0655968189239493 -8.881784197001252e-16
			vertex -1.7004318237304688 1.832629680633544 0
		endloop
	endfacet
	facet normal -0.6234896570823644 0.7818315979233097 -1.7360148827878723e-16
		outer loop
			vertex -1.481333076953888 2.0073550343513484 1.9999999999999996
			vertex -1.7004318237304688 1.832629680633544 0
			vertex -1.7004318237304688 1.8326296806335445 1.9999999999999996
		endloop
	endfacet
	facet normal -0.7330517550963407 0.6801728635796745 -1.5102871477427605e-16
		outer loop
			vertex -1.7004318237304688 1.8326296806335445 1.9999999999999996
			vertex -1.7004318237304688 1.832629680633544 0
			vertex -1.7639685571193695 1.7641533911228175 1.9999999999999996
		endloop
	endfacet
	facet normal -0.7330517550963407 0.6801728635796745 -1.5102871477427605e-16
		outer loop
			vertex -1.7639685571193695 1.7641533911228175 1.9999999999999996
			vertex -1.7004318237304688 1.832629680633544 0
			vertex -1.9545787572860718 1.5587245225906363 0
		endloop
	endfacet
	facet normal -0.7330517550963407 0.6801728635796747 -1.5102871477427608e-16
		outer loop
			vertex -1.7639685571193695 1.7641533911228175 1.9999999999999996
			vertex -1.9545787572860718 1.5587245225906363 0
			vertex -1.9545787572860718 1.5587245225906368 1.9999999999999996
		endloop
	endfacet
	facet normal -0.8262387160163494 0.5633201435734877 -1.25082198726087e-16
		outer loop
			vertex -1.9545787572860718 1.5587245225906368 1.9999999999999996
			vertex -1.9545787572860718 1.5587245225906363 0
			vertex -2.0071999728679657 1.4815433919429775 1.9999999999999996
		endloop
	endfacet
	facet normal -0.8262387160163494 0.5633201435734877 -1.25082198726087e-16
		outer loop
			vertex -2.0071999728679657 1.4815433919429775 1.9999999999999996
			vertex -1.9545787572860718 1.5587245225906363 0
			vertex -2.1650636196136475 1.2499999999999991 0
		endloop
	endfacet
	facet normal -0.8262387160163492 0.5633201435734876 -1.2508219872608697e-16
		outer loop
			vertex -2.0071999728679657 1.4815433919429775 1.9999999999999996
			vertex -2.1650636196136475 1.2499999999999991 0
			vertex -2.1650636196136475 1.2499999999999996 1.9999999999999996
		endloop
	endfacet
	facet normal -0.826238716016351 0.5633201435734853 -1.2508219872608645e-16
		outer loop
			vertex -1.9946164677634246 1.4999999999999998 3.4348021001100864
			vertex -1.9946164677634246 1.4999999999999996 1.9999999999999996
			vertex -2.0071999728679657 1.4815433919429775 1.9999999999999996
		endloop
	endfacet
	facet normal -0.8262387160163497 0.563320143573487 -1.639109936218309e-16
		outer loop
			vertex -1.9946164677634246 1.5000000000000009 8
			vertex -1.9946164677634246 1.4999999999999998 3.434802100110087
			vertex -2.0071999728679657 1.4815433919429775 1.9999999999999996
		endloop
	endfacet
	facet normal -0.8262387160163497 0.563320143573487 -1.639109936218309e-16
		outer loop
			vertex -1.9946164677634246 1.5000000000000009 8
			vertex -2.0071999728679657 1.4815433919429775 1.9999999999999996
			vertex -2.1650636196136475 1.2500000000000009 8
		endloop
	endfacet
	facet normal -0.8262387160163492 0.5633201435734876 -1.2508219872608697e-16
		outer loop
			vertex -2.0071999728679657 1.4815433919429775 1.9999999999999996
			vertex -2.1650636196136475 1.2499999999999996 1.9999999999999996
			vertex -2.1650636196136475 1.2500000000000009 8
		endloop
	endfacet
	facet normal -0.9009689189148571 0.4338836331891233 -9.634151991491609e-17
		outer loop
			vertex -2.1650636196136475 1.2499999999999996 1.9999999999999996
			vertex -2.1650636196136475 1.2499999999999991 0
			vertex -2.2055938243865967 1.1658381372690196 1.9999999999999996
		endloop
	endfacet
	facet normal -0.9009689189148571 0.4338836331891233 -9.634151991491609e-17
		outer loop
			vertex -2.2055938243865967 1.1658381372690196 1.9999999999999996
			vertex -2.1650636196136475 1.2499999999999991 0
			vertex -2.3271844387054443 0.9133525490760794 0
		endloop
	endfacet
	facet normal -0.9009689189148571 0.43388363318912326 -9.634151991491608e-17
		outer loop
			vertex -2.2055938243865967 1.1658381372690196 1.9999999999999996
			vertex -2.3271844387054443 0.9133525490760794 0
			vertex -2.3271844387054443 0.9133525490760799 2
		endloop
	endfacet
	facet normal -0.9009689189148571 0.43388363318912326 -9.634151991491608e-17
		outer loop
			vertex -2.1650636196136475 1.2500000000000009 8
			vertex -2.1650636196136475 1.2499999999999996 1.9999999999999996
			vertex -2.2055938243865967 1.1658381372690196 1.9999999999999996
		endloop
	endfacet
	facet normal -0.9009689189148571 0.43388363318912326 -9.634151991491608e-17
		outer loop
			vertex -2.1650636196136475 1.2500000000000009 8
			vertex -2.2055938243865967 1.1658381372690196 1.9999999999999996
			vertex -2.3271844387054443 0.9133525490760812 8
		endloop
	endfacet
	facet normal -0.9009689189148571 0.4338836331891233 -9.634151991491609e-17
		outer loop
			vertex -2.2055938243865967 1.1658381372690196 1.9999999999999996
			vertex -2.3271844387054443 0.9133525490760799 2
			vertex -2.3271844387054443 0.9133525490760812 8
		endloop
	endfacet
	facet normal -0.9555728783913927 0.2947549390303561 -6.544874398669711e-17
		outer loop
			vertex -2.3271844387054443 0.9133525490760799 2
			vertex -2.3271844387054443 0.9133525490760794 0
			vertex -2.354718267917633 0.8240899890661235 2
		endloop
	endfacet
	facet normal -0.9555728783913927 0.2947549390303561 -6.544874398669711e-17
		outer loop
			vertex -2.354718267917633 0.8240899890661235 2
			vertex -2.3271844387054443 0.9133525490760794 0
			vertex -2.437319755554199 0.556302309036254 0
		endloop
	endfacet
	facet normal -0.9555728783913926 0.29475493903035604 -6.54487439866971e-17
		outer loop
			vertex -2.354718267917633 0.8240899890661235 2
			vertex -2.437319755554199 0.556302309036254 0
			vertex -2.437319755554199 0.5563023090362544 2
		endloop
	endfacet
	facet normal -0.9555728783913926 0.29475493903035604 -6.54487439866971e-17
		outer loop
			vertex -2.3271844387054443 0.9133525490760812 8
			vertex -2.3271844387054443 0.9133525490760799 2
			vertex -2.354718267917633 0.8240899890661235 2
		endloop
	endfacet
	facet normal -0.9555728783913926 0.29475493903035604 -6.54487439866971e-17
		outer loop
			vertex -2.3271844387054443 0.9133525490760812 8
			vertex -2.354718267917633 0.8240899890661235 2
			vertex -2.437319755554199 0.5563023090362558 8
		endloop
	endfacet
	facet normal -0.9555728783913927 0.2947549390303561 -6.544874398669711e-17
		outer loop
			vertex -2.354718267917633 0.8240899890661235 2
			vertex -2.437319755554199 0.5563023090362544 2
			vertex -2.437319755554199 0.5563023090362558 8
		endloop
	endfacet
	facet normal -0.9888307857508439 0.1490425347052601 -3.309409073565475e-17
		outer loop
			vertex -2.437319755554199 0.5563023090362544 2
			vertex -2.437319755554199 0.556302309036254 0
			vertex -2.451242208480835 0.46393303945660547 2
		endloop
	endfacet
	facet normal -0.9888307857508439 0.1490425347052601 -3.309409073565475e-17
		outer loop
			vertex -2.451242208480835 0.46393303945660547 2
			vertex -2.437319755554199 0.556302309036254 0
			vertex -2.493009567260742 0.1868252307176581 0
		endloop
	endfacet
	facet normal -0.9888307857508439 0.1490425347052601 -3.309409073565475e-17
		outer loop
			vertex -2.451242208480835 0.46393303945660547 2
			vertex -2.493009567260742 0.1868252307176581 0
			vertex -2.493009567260742 0.18682523071765855 2
		endloop
	endfacet
	facet normal -0.9888307857508439 0.1490425347052601 -3.309409073565475e-17
		outer loop
			vertex -2.437319755554199 0.5563023090362558 8
			vertex -2.437319755554199 0.5563023090362544 2
			vertex -2.451242208480835 0.46393303945660547 2
		endloop
	endfacet
	facet normal -0.9888307857508439 0.1490425347052601 -3.309409073565475e-17
		outer loop
			vertex -2.437319755554199 0.5563023090362558 8
			vertex -2.451242208480835 0.46393303945660547 2
			vertex -2.493009567260742 0.18682523071765988 8
		endloop
	endfacet
	facet normal -0.9888307857508439 0.1490425347052601 -3.309409073565475e-17
		outer loop
			vertex -2.451242208480835 0.46393303945660547 2
			vertex -2.493009567260742 0.18682523071765855 2
			vertex -2.493009567260742 0.18682523071765988 8
		endloop
	endfacet
	facet normal -1 0 0
		outer loop
			vertex -2.493009567260742 0.18682523071765855 2
			vertex -2.493009567260742 0.1868252307176581 0
			vertex -2.493009567260742 0.09341261535882905 2
		endloop
	endfacet
	facet normal -1 0 0
		outer loop
			vertex -2.493009567260742 0.09341261535882905 2
			vertex -2.493009567260742 0.1868252307176581 0
			vertex -2.493009567260742 -0.18682523071765988 0
		endloop
	endfacet
	facet normal -1 0 0
		outer loop
			vertex -2.493009567260742 0.09341261535882905 2
			vertex -2.493009567260742 -0.18682523071765988 0
			vertex -2.493009567260742 -0.18682523071765944 2
		endloop
	endfacet
	facet normal -1 0 0
		outer loop
			vertex -2.493009567260742 0.18682523071765988 8
			vertex -2.493009567260742 0.18682523071765855 2
			vertex -2.493009567260742 0.09341261535882905 2
		endloop
	endfacet
	facet normal -1 0 0
		outer loop
			vertex -2.493009567260742 0.18682523071765988 8
			vertex -2.493009567260742 0.09341261535882905 2
			vertex -2.493009567260742 -0.1868252307176581 8
		endloop
	endfacet
	facet normal -1 0 0
		outer loop
			vertex -2.493009567260742 0.09341261535882905 2
			vertex -2.493009567260742 -0.18682523071765944 2
			vertex -2.493009567260742 -0.1868252307176581 8
		endloop
	endfacet
	facet normal -0.9888307857508439 -0.1490425347052601 3.309409073565475e-17
		outer loop
			vertex -2.493009567260742 -0.18682523071765944 2
			vertex -2.493009567260742 -0.18682523071765988 0
			vertex -2.4790871143341064 -0.2791945002973084 2
		endloop
	endfacet
	facet normal -0.9888307857508439 -0.1490425347052601 3.309409073565475e-17
		outer loop
			vertex -2.4790871143341064 -0.2791945002973084 2
			vertex -2.493009567260742 -0.18682523071765988 0
			vertex -2.437319755554199 -0.5563023090362558 0
		endloop
	endfacet
	facet normal -0.9888307857508439 -0.1490425347052601 3.309409073565475e-17
		outer loop
			vertex -2.4790871143341064 -0.2791945002973084 2
			vertex -2.437319755554199 -0.5563023090362558 0
			vertex -2.437319755554199 -0.5563023090362553 2
		endloop
	endfacet
	facet normal -0.9888307857508439 -0.1490425347052601 3.309409073565475e-17
		outer loop
			vertex -2.493009567260742 -0.1868252307176581 8
			vertex -2.493009567260742 -0.18682523071765944 2
			vertex -2.4790871143341064 -0.2791945002973084 2
		endloop
	endfacet
	facet normal -0.9888307857508439 -0.1490425347052601 3.309409073565475e-17
		outer loop
			vertex -2.493009567260742 -0.1868252307176581 8
			vertex -2.4790871143341064 -0.2791945002973084 2
			vertex -2.437319755554199 -0.556302309036254 8
		endloop
	endfacet
	facet normal -0.9888307857508439 -0.1490425347052601 3.309409073565475e-17
		outer loop
			vertex -2.4790871143341064 -0.2791945002973084 2
			vertex -2.437319755554199 -0.5563023090362553 2
			vertex -2.437319755554199 -0.556302309036254 8
		endloop
	endfacet
	facet normal -0.9555728783913927 -0.2947549390303561 6.544874398669711e-17
		outer loop
			vertex -2.437319755554199 -0.5563023090362553 2
			vertex -2.437319755554199 -0.5563023090362558 0
			vertex -2.4097859263420105 -0.6455648690462117 2
		endloop
	endfacet
	facet normal -0.9555728783913927 -0.2947549390303561 6.544874398669711e-17
		outer loop
			vertex -2.4097859263420105 -0.6455648690462117 2
			vertex -2.437319755554199 -0.5563023090362558 0
			vertex -2.3271844387054443 -0.9133525490760812 0
		endloop
	endfacet
	facet normal -0.9555728783913926 -0.29475493903035604 6.54487439866971e-17
		outer loop
			vertex -2.4097859263420105 -0.6455648690462117 2
			vertex -2.3271844387054443 -0.9133525490760812 0
			vertex -2.3271844387054443 -0.9133525490760808 2
		endloop
	endfacet
	facet normal -0.9555728783913926 -0.29475493903035604 6.54487439866971e-17
		outer loop
			vertex -2.437319755554199 -0.556302309036254 8
			vertex -2.437319755554199 -0.5563023090362553 2
			vertex -2.4097859263420105 -0.6455648690462117 2
		endloop
	endfacet
	facet normal -0.9555728783913926 -0.29475493903035604 6.54487439866971e-17
		outer loop
			vertex -2.437319755554199 -0.556302309036254 8
			vertex -2.4097859263420105 -0.6455648690462117 2
			vertex -2.3271844387054443 -0.9133525490760794 8
		endloop
	endfacet
	facet normal -0.9555728783913927 -0.2947549390303561 6.544874398669711e-17
		outer loop
			vertex -2.4097859263420105 -0.6455648690462117 2
			vertex -2.3271844387054443 -0.9133525490760808 2
			vertex -2.3271844387054443 -0.9133525490760794 8
		endloop
	endfacet
	facet normal -0.9009689189148571 -0.4338836331891233 9.634151991491609e-17
		outer loop
			vertex -2.3271844387054443 -0.9133525490760808 2
			vertex -2.3271844387054443 -0.9133525490760812 0
			vertex -2.286654233932495 -0.9975144118070607 2
		endloop
	endfacet
	facet normal -0.9009689189148571 -0.4338836331891233 9.634151991491609e-17
		outer loop
			vertex -2.286654233932495 -0.9975144118070607 2
			vertex -2.3271844387054443 -0.9133525490760812 0
			vertex -2.1650636196136475 -1.2500000000000009 4.440892098500626e-16
		endloop
	endfacet
	facet normal -0.9009689189148571 -0.43388363318912326 9.634151991491608e-17
		outer loop
			vertex -2.286654233932495 -0.9975144118070607 2
			vertex -2.1650636196136475 -1.2500000000000009 4.440892098500626e-16
			vertex -2.1650636196136475 -1.2500000000000004 2
		endloop
	endfacet
	facet normal -0.9009689189148571 -0.43388363318912326 9.634151991491608e-17
		outer loop
			vertex -2.3271844387054443 -0.9133525490760794 8
			vertex -2.3271844387054443 -0.9133525490760808 2
			vertex -2.286654233932495 -0.9975144118070607 2
		endloop
	endfacet
	facet normal -0.9009689189148571 -0.43388363318912326 9.634151991491608e-17
		outer loop
			vertex -2.3271844387054443 -0.9133525490760794 8
			vertex -2.286654233932495 -0.9975144118070607 2
			vertex -2.1650636196136475 -1.2499999999999991 8
		endloop
	endfacet
	facet normal -0.9009689189148571 -0.4338836331891233 9.634151991491609e-17
		outer loop
			vertex -2.286654233932495 -0.9975144118070607 2
			vertex -2.1650636196136475 -1.2500000000000004 2
			vertex -2.1650636196136475 -1.2499999999999991 8
		endloop
	endfacet
	facet normal -0.8262387160163494 -0.5633201435734877 1.25082198726087e-16
		outer loop
			vertex -2.1650636196136475 -1.2500000000000004 2
			vertex -2.1650636196136475 -1.2500000000000009 4.440892098500626e-16
			vertex -2.1124424040317535 -1.3271811306476597 2
		endloop
	endfacet
	facet normal -0.8262387160163494 -0.5633201435734877 1.25082198726087e-16
		outer loop
			vertex -2.1124424040317535 -1.3271811306476597 2
			vertex -2.1650636196136475 -1.2500000000000009 4.440892098500626e-16
			vertex -1.9545787572860718 -1.558724522590638 4.440892098500626e-16
		endloop
	endfacet
	facet normal -0.8262387160163492 -0.5633201435734876 1.2508219872608697e-16
		outer loop
			vertex -2.1124424040317535 -1.3271811306476597 2
			vertex -1.9545787572860718 -1.558724522590638 4.440892098500626e-16
			vertex -1.9545787572860718 -1.5587245225906377 2.0000000000000004
		endloop
	endfacet
	facet normal -0.8262387160163494 -0.5633201435734874 1.2508219872608692e-16
		outer loop
			vertex -1.9946164677634246 -1.4999999999999991 8
			vertex -2.1650636196136475 -1.2499999999999991 8
			vertex -2.1650636196136475 -1.2500000000000004 2
		endloop
	endfacet
	facet normal -0.8262387160163492 -0.5633201435734876 1.12701835068052e-16
		outer loop
			vertex -1.9946164677634246 -1.4999999999999991 8
			vertex -2.1650636196136475 -1.2500000000000004 2
			vertex -2.1124424040317535 -1.3271811306476597 2
		endloop
	endfacet
	facet normal -0.8262387160163494 -0.5633201435734874 1.2508219872608692e-16
		outer loop
			vertex -1.9946164677634246 -1.4999999999999991 8
			vertex -2.1124424040317535 -1.3271811306476597 2
			vertex -1.9946164677634246 -1.4999999999999996 6.4782673667033635
		endloop
	endfacet
	facet normal -0.8262387160163495 -0.5633201435734874 1.2508219872608692e-16
		outer loop
			vertex -1.9946164677634246 -1.4999999999999996 6.478267366703362
			vertex -2.1124424040317535 -1.3271811306476597 2
			vertex -1.9946164677634246 -1.5000000000000004 2.0000000000000004
		endloop
	endfacet
	facet normal -0.7330517550963407 -0.6801728635796745 1.5102871477427605e-16
		outer loop
			vertex -1.9545787572860718 -1.5587245225906377 2.0000000000000004
			vertex -1.9545787572860718 -1.558724522590638 4.440892098500626e-16
			vertex -1.891042023897171 -1.6272008121013646 2.0000000000000004
		endloop
	endfacet
	facet normal -0.7330517550963407 -0.6801728635796745 1.5102871477427605e-16
		outer loop
			vertex -1.891042023897171 -1.6272008121013646 2.0000000000000004
			vertex -1.9545787572860718 -1.558724522590638 4.440892098500626e-16
			vertex -1.7004318237304688 -1.8326296806335458 4.440892098500626e-16
		endloop
	endfacet
	facet normal -0.7330517550963407 -0.6801728635796747 1.5102871477427608e-16
		outer loop
			vertex -1.891042023897171 -1.6272008121013646 2.0000000000000004
			vertex -1.7004318237304688 -1.8326296806335458 4.440892098500626e-16
			vertex -1.7004318237304688 -1.8326296806335454 2.0000000000000004
		endloop
	endfacet
	facet normal -0.6234896570823644 -0.7818315979233097 1.7360148827878723e-16
		outer loop
			vertex -1.7004318237304688 -1.8326296806335454 2.0000000000000004
			vertex -1.7004318237304688 -1.8326296806335458 4.440892098500626e-16
			vertex -1.6273989081382751 -1.8908714652061467 2.0000000000000004
		endloop
	endfacet
	facet normal -0.6234896570823644 -0.7818315979233097 1.7360148827878723e-16
		outer loop
			vertex -1.6273989081382751 -1.8908714652061467 2.0000000000000004
			vertex -1.7004318237304688 -1.8326296806335458 4.440892098500626e-16
			vertex -1.4083001613616943 -2.065596818923951 4.440892098500626e-16
		endloop
	endfacet
	facet normal -0.6234896570823644 -0.7818315979233097 1.7360148827878723e-16
		outer loop
			vertex -1.6273989081382751 -1.8908714652061467 2.0000000000000004
			vertex -1.4083001613616943 -2.065596818923951 4.440892098500626e-16
			vertex -1.4083001613616943 -2.0655968189239506 2.0000000000000004
		endloop
	endfacet
	facet normal -0.5000001317692231 -0.8660253277074289 1.9229625174586682e-16
		outer loop
			vertex -1.4083001613616943 -2.0655968189239506 2.0000000000000004
			vertex -1.4083001613616943 -2.065596818923951 4.440892098500626e-16
			vertex -1.3274024724960327 -2.1123031377792363 2.0000000000000004
		endloop
	endfacet
	facet normal -0.5000001317692231 -0.8660253277074289 1.9229625174586682e-16
		outer loop
			vertex -1.3274024724960327 -2.1123031377792363 2.0000000000000004
			vertex -1.4083001613616943 -2.065596818923951 4.440892098500626e-16
			vertex -1.0847094058990479 -2.2524220943450937 4.440892098500626e-16
		endloop
	endfacet
	facet normal -0.5000001317692231 -0.8660253277074289 1.9229625174586682e-16
		outer loop
			vertex -1.3274024724960327 -2.1123031377792363 2.0000000000000004
			vertex -1.0847094058990479 -2.2524220943450937 4.440892098500626e-16
			vertex -1.0847094058990479 -2.252422094345093 2.0000000000000004
		endloop
	endfacet
	facet normal -0.3653410850359856 -0.9308737248331423 2.066954884656674e-16
		outer loop
			vertex -1.0847094058990479 -2.252422094345093 2.0000000000000004
			vertex -1.0847094058990479 -2.2524220943450937 4.440892098500626e-16
			vertex -0.9977540373802185 -2.28654956817627 2.0000000000000004
		endloop
	endfacet
	facet normal -0.3653410850359856 -0.9308737248331423 2.066954884656674e-16
		outer loop
			vertex -0.9977540373802185 -2.28654956817627 2.0000000000000004
			vertex -1.0847094058990479 -2.2524220943450937 4.440892098500626e-16
			vertex -0.7368879318237305 -2.3889319896698007 4.440892098500626e-16
		endloop
	endfacet
	facet normal -0.36534108503598567 -0.9308737248331423 2.066954884656674e-16
		outer loop
			vertex -0.9977540373802185 -2.28654956817627 2.0000000000000004
			vertex -0.7368879318237305 -2.3889319896698007 4.440892098500626e-16
			vertex -0.7368879318237305 -2.3889319896698002 2.0000000000000004
		endloop
	endfacet
	facet normal -0.22252115859345642 -0.9749278609098346 2.164774717061301e-16
		outer loop
			vertex -0.7368879318237305 -2.3889319896698002 2.0000000000000004
			vertex -0.7368879318237305 -2.3889319896698007 4.440892098500626e-16
			vertex -0.6458173617720604 -2.409718275070191 2.0000000000000004
		endloop
	endfacet
	facet normal -0.22252115859345642 -0.9749278609098346 2.164774717061301e-16
		outer loop
			vertex -0.6458173617720604 -2.409718275070191 2.0000000000000004
			vertex -0.7368879318237305 -2.3889319896698007 4.440892098500626e-16
			vertex -0.37260565161705017 -2.472077131271363 4.440892098500626e-16
		endloop
	endfacet
	facet normal -0.22252115859345642 -0.9749278609098346 2.164774717061301e-16
		outer loop
			vertex -0.6458173617720604 -2.409718275070191 2.0000000000000004
			vertex -0.37260565161705017 -2.472077131271363 4.440892098500626e-16
			vertex -0.37260565161705017 -2.4720771312713627 2.0000000000000004
		endloop
	endfacet
	facet normal -0.0747299214698055 -0.9972038100795226 2.2142372603884356e-16
		outer loop
			vertex -0.37260565161705017 -2.4720771312713627 2.0000000000000004
			vertex -0.37260565161705017 -2.472077131271363 4.440892098500626e-16
			vertex -0.27945423871278763 -2.479057848453522 2.0000000000000004
		endloop
	endfacet
	facet normal -0.0747299214698055 -0.9972038100795226 2.2142372603884356e-16
		outer loop
			vertex -0.27945423871278763 -2.479057848453522 2.0000000000000004
			vertex -0.37260565161705017 -2.472077131271363 4.440892098500626e-16
			vertex 0 -2.500000000000001 4.440892098500626e-16
		endloop
	endfacet
	facet normal -0.0747299214698055 -0.9972038100795226 2.2142372603884356e-16
		outer loop
			vertex -0.27945423871278763 -2.479057848453522 2.0000000000000004
			vertex 0 -2.500000000000001 4.440892098500626e-16
			vertex 0 -2.5000000000000004 2.0000000000000004
		endloop
	endfacet
	facet normal 0 2.220446049250313e-16 1
		outer loop
			vertex 0 -1.4999999999999991 8
			vertex 0.22608860797888403 -1.4999999999999991 8
			vertex 0 8.881784197001252e-16 8
		endloop
	endfacet
	facet normal 0 2.220446049250313e-16 1
		outer loop
			vertex 0.22608860797888403 -1.4999999999999991 8
			vertex 0.4626887255540396 -1.4999999999999991 8
			vertex 0 8.881784197001252e-16 8
		endloop
	endfacet
	facet normal 0 2.220446049250313e-16 1
		outer loop
			vertex 0.46268872555403956 -1.4999999999999991 8
			vertex 0.72236199109104 -1.4999999999999991 8
			vertex 0 8.881784197001252e-16 8
		endloop
	endfacet
	facet normal 0 2.220446049250313e-16 1
		outer loop
			vertex 0.7223619910910402 -1.4999999999999991 8
			vertex 1.0226827533279215 -1.4999999999999991 8
			vertex 0 8.881784197001252e-16 8
		endloop
	endfacet
	facet normal 0 2.220446049250313e-16 1
		outer loop
			vertex 1.0226827533279215 -1.4999999999999991 8
			vertex 1.3917965874665619 -1.4999999999999991 8
			vertex 0 8.881784197001252e-16 8
		endloop
	endfacet
	facet normal 0 2.220446049250313e-16 1
		outer loop
			vertex 1.3917965874665619 -1.4999999999999991 8
			vertex 1.880940534031166 -1.4999999999999991 8
			vertex 0 8.881784197001252e-16 8
		endloop
	endfacet
	facet normal 0 2.220446049250313e-16 1
		outer loop
			vertex 1.8809405340311662 -1.4999999999999991 8
			vertex 1.9946164677634246 -1.4999999999999991 8
			vertex 2.1650636196136475 -1.2499999999999991 8
		endloop
	endfacet
	facet normal 0 2.220446049250313e-16 1
		outer loop
			vertex 1.8809405340311662 -1.4999999999999991 8
			vertex 2.1650636196136475 -1.2499999999999991 8
			vertex 0 8.881784197001252e-16 8
		endloop
	endfacet
	facet normal 0 2.220446049250313e-16 1
		outer loop
			vertex 2.1650636196136475 -1.2499999999999991 8
			vertex 2.3271844387054443 -0.9133525490760794 8
			vertex 0 8.881784197001252e-16 8
		endloop
	endfacet
	facet normal 0 2.220446049250313e-16 1
		outer loop
			vertex 2.3271844387054443 -0.9133525490760794 8
			vertex 2.437319755554199 -0.556302309036254 8
			vertex 0 8.881784197001252e-16 8
		endloop
	endfacet
	facet normal 0 2.220446049250313e-16 1
		outer loop
			vertex 2.437319755554199 -0.556302309036254 8
			vertex 2.493009567260742 -0.1868252307176581 8
			vertex 0 8.881784197001252e-16 8
		endloop
	endfacet
	facet normal 0 2.220446049250313e-16 1
		outer loop
			vertex 2.493009567260742 -0.1868252307176581 8
			vertex 2.493009567260742 0.18682523071765988 8
			vertex 0 8.881784197001252e-16 8
		endloop
	endfacet
	facet normal 0 2.220446049250313e-16 1
		outer loop
			vertex 2.493009567260742 0.18682523071765988 8
			vertex 2.437319755554199 0.5563023090362558 8
			vertex 0 8.881784197001252e-16 8
		endloop
	endfacet
	facet normal 0 2.220446049250313e-16 1
		outer loop
			vertex 2.437319755554199 0.5563023090362558 8
			vertex 2.3271844387054443 0.9133525490760812 8
			vertex 0 8.881784197001252e-16 8
		endloop
	endfacet
	facet normal 0 2.220446049250313e-16 1
		outer loop
			vertex 2.3271844387054443 0.9133525490760812 8
			vertex 2.1650636196136475 1.2500000000000009 8
			vertex 0 8.881784197001252e-16 8
		endloop
	endfacet
	facet normal 0 2.220446049250313e-16 1
		outer loop
			vertex 2.1650636196136475 1.2500000000000009 8
			vertex 1.9946164677634246 1.5000000000000009 8
			vertex 1.880940534031166 1.5000000000000009 8
		endloop
	endfacet
	facet normal 0 2.220446049250313e-16 1
		outer loop
			vertex 2.1650636196136475 1.2500000000000009 8
			vertex 1.880940534031166 1.5000000000000009 8
			vertex 0 8.881784197001252e-16 8
		endloop
	endfacet
	facet normal 0 2.220446049250313e-16 1
		outer loop
			vertex 1.8809405340311662 1.5000000000000009 8
			vertex 1.3917965874665619 1.5000000000000009 8
			vertex 0 8.881784197001252e-16 8
		endloop
	endfacet
	facet normal 0 2.220446049250313e-16 1
		outer loop
			vertex 1.3917965874665619 1.5000000000000009 8
			vertex 1.0226827533279215 1.5000000000000009 8
			vertex 0 8.881784197001252e-16 8
		endloop
	endfacet
	facet normal 0 2.220446049250313e-16 1
		outer loop
			vertex 1.0226827533279215 1.5000000000000009 8
			vertex 0.72236199109104 1.5000000000000009 8
			vertex 0 8.881784197001252e-16 8
		endloop
	endfacet
	facet normal 0 2.220446049250313e-16 1
		outer loop
			vertex 0.7223619910910402 1.5000000000000009 8
			vertex 0.4626887255540396 1.5000000000000009 8
			vertex 0 8.881784197001252e-16 8
		endloop
	endfacet
	facet normal 0 2.220446049250313e-16 1
		outer loop
			vertex 0.46268872555403956 1.5000000000000009 8
			vertex 0.22608860797888403 1.5000000000000009 8
			vertex 0 8.881784197001252e-16 8
		endloop
	endfacet
	facet normal 0 2.220446049250313e-16 1
		outer loop
			vertex 0.22608860797888403 1.5000000000000009 8
			vertex 1.836970199468413e-16 1.5000000000000009 8
			vertex 0 8.881784197001252e-16 8
		endloop
	endfacet
	facet normal 0 2.220446049250313e-16 1
		outer loop
			vertex 1.836970199468413e-16 1.5000000000000009 8
			vertex -0.22608860797888403 1.5000000000000009 8
			vertex 0 8.881784197001252e-16 8
		endloop
	endfacet
	facet normal 0 2.220446049250313e-16 1
		outer loop
			vertex -0.22608860797888403 1.5000000000000009 8
			vertex -0.4626887255540396 1.5000000000000009 8
			vertex 0 8.881784197001252e-16 8
		endloop
	endfacet
	facet normal 0 2.220446049250313e-16 1
		outer loop
			vertex -0.46268872555403956 1.5000000000000009 8
			vertex -0.72236199109104 1.5000000000000009 8
			vertex 0 8.881784197001252e-16 8
		endloop
	endfacet
	facet normal 0 2.220446049250313e-16 1
		outer loop
			vertex -0.7223619910910402 1.5000000000000009 8
			vertex -1.0226827533279215 1.5000000000000009 8
			vertex 0 8.881784197001252e-16 8
		endloop
	endfacet
	facet normal 0 2.220446049250313e-16 1
		outer loop
			vertex -1.0226827533279215 1.5000000000000009 8
			vertex -1.3917965874665619 1.5000000000000009 8
			vertex 0 8.881784197001252e-16 8
		endloop
	endfacet
	facet normal 0 2.220446049250313e-16 1
		outer loop
			vertex -1.3917965874665619 1.5000000000000009 8
			vertex -1.880940534031166 1.5000000000000009 8
			vertex 0 8.881784197001252e-16 8
		endloop
	endfacet
	facet normal 0 2.220446049250313e-16 1
		outer loop
			vertex -1.8809405340311662 1.5000000000000009 8
			vertex -1.9946164677634246 1.5000000000000009 8
			vertex -2.1650636196136475 1.2500000000000009 8
		endloop
	endfacet
	facet normal 0 2.220446049250313e-16 1
		outer loop
			vertex -1.8809405340311662 1.5000000000000009 8
			vertex -2.1650636196136475 1.2500000000000009 8
			vertex 0 8.881784197001252e-16 8
		endloop
	endfacet
	facet normal 0 2.220446049250313e-16 1
		outer loop
			vertex -2.1650636196136475 1.2500000000000009 8
			vertex -2.3271844387054443 0.9133525490760812 8
			vertex 0 8.881784197001252e-16 8
		endloop
	endfacet
	facet normal 0 2.220446049250313e-16 1
		outer loop
			vertex -2.3271844387054443 0.9133525490760812 8
			vertex -2.437319755554199 0.5563023090362558 8
			vertex 0 8.881784197001252e-16 8
		endloop
	endfacet
	facet normal 0 2.220446049250313e-16 1
		outer loop
			vertex -2.437319755554199 0.5563023090362558 8
			vertex -2.493009567260742 0.18682523071765988 8
			vertex 0 8.881784197001252e-16 8
		endloop
	endfacet
	facet normal 0 2.220446049250313e-16 1
		outer loop
			vertex -2.493009567260742 0.18682523071765988 8
			vertex -2.493009567260742 -0.1868252307176581 8
			vertex 0 8.881784197001252e-16 8
		endloop
	endfacet
	facet normal 0 2.220446049250313e-16 1
		outer loop
			vertex -2.493009567260742 -0.1868252307176581 8
			vertex -2.437319755554199 -0.556302309036254 8
			vertex 0 8.881784197001252e-16 8
		endloop
	endfacet
	facet normal 0 2.220446049250313e-16 1
		outer loop
			vertex -2.437319755554199 -0.556302309036254 8
			vertex -2.3271844387054443 -0.9133525490760794 8
			vertex 0 8.881784197001252e-16 8
		endloop
	endfacet
	facet normal 0 2.220446049250313e-16 1
		outer loop
			vertex -2.3271844387054443 -0.9133525490760794 8
			vertex -2.1650636196136475 -1.2499999999999991 8
			vertex 0 8.881784197001252e-16 8
		endloop
	endfacet
	facet normal 0 2.220446049250313e-16 1
		outer loop
			vertex -2.1650636196136475 -1.2499999999999991 8
			vertex -1.9946164677634246 -1.4999999999999991 8
			vertex -1.880940534031166 -1.4999999999999991 8
		endloop
	endfacet
	facet normal 0 2.220446049250313e-16 1
		outer loop
			vertex -2.1650636196136475 -1.2499999999999991 8
			vertex -1.880940534031166 -1.4999999999999991 8
			vertex 0 8.881784197001252e-16 8
		endloop
	endfacet
	facet normal 0 2.220446049250313e-16 1
		outer loop
			vertex -1.8809405340311662 -1.4999999999999991 8
			vertex -1.3917965874665619 -1.4999999999999991 8
			vertex 0 8.881784197001252e-16 8
		endloop
	endfacet
	facet normal 0 2.220446049250313e-16 1
		outer loop
			vertex -1.3917965874665619 -1.4999999999999991 8
			vertex -1.0226827533279215 -1.4999999999999991 8
			vertex 0 8.881784197001252e-16 8
		endloop
	endfacet
	facet normal 0 2.220446049250313e-16 1
		outer loop
			vertex -1.0226827533279215 -1.4999999999999991 8
			vertex -0.72236199109104 -1.4999999999999991 8
			vertex 0 8.881784197001252e-16 8
		endloop
	endfacet
	facet normal 0 2.220446049250313e-16 1
		outer loop
			vertex -0.7223619910910402 -1.4999999999999991 8
			vertex -0.4626887255540396 -1.4999999999999991 8
			vertex 0 8.881784197001252e-16 8
		endloop
	endfacet
	facet normal 0 2.220446049250313e-16 1
		outer loop
			vertex -0.46268872555403956 -1.4999999999999991 8
			vertex -0.22608860797888403 -1.4999999999999991 8
			vertex 0 8.881784197001252e-16 8
		endloop
	endfacet
	facet normal 0 2.220446049250313e-16 1
		outer loop
			vertex -0.22608860797888403 -1.4999999999999991 8
			vertex 0 -1.4999999999999991 8
			vertex 0 8.881784197001252e-16 8
		endloop
	endfacet
	facet normal 0 -2.220446049250313e-16 -1
		outer loop
			vertex 0.37260565161705017 -2.472077131271363 4.440892098500626e-16
			vertex 0 -2.500000000000001 4.440892098500626e-16
			vertex 0 -8.881784197001252e-16 0
		endloop
	endfacet
	facet normal 0 -2.220446049250313e-16 -1
		outer loop
			vertex 0.7368879318237305 -2.3889319896698007 4.440892098500626e-16
			vertex 0.37260565161705017 -2.472077131271363 4.440892098500626e-16
			vertex 0 -8.881784197001252e-16 0
		endloop
	endfacet
	facet normal 0 -2.220446049250313e-16 -1
		outer loop
			vertex 1.0847094058990479 -2.2524220943450937 4.440892098500626e-16
			vertex 0.7368879318237305 -2.3889319896698007 4.440892098500626e-16
			vertex 0 -8.881784197001252e-16 0
		endloop
	endfacet
	facet normal 0 -2.220446049250313e-16 -1
		outer loop
			vertex 1.4083001613616943 -2.065596818923951 4.440892098500626e-16
			vertex 1.0847094058990479 -2.2524220943450937 4.440892098500626e-16
			vertex 0 -8.881784197001252e-16 0
		endloop
	endfacet
	facet normal 0 -2.220446049250313e-16 -1
		outer loop
			vertex 1.7004318237304688 -1.8326296806335458 4.440892098500626e-16
			vertex 1.4083001613616943 -2.065596818923951 4.440892098500626e-16
			vertex 0 -8.881784197001252e-16 0
		endloop
	endfacet
	facet normal 0 -2.220446049250313e-16 -1
		outer loop
			vertex 1.9545787572860718 -1.558724522590638 4.440892098500626e-16
			vertex 1.7004318237304688 -1.8326296806335458 4.440892098500626e-16
			vertex 0 -8.881784197001252e-16 0
		endloop
	endfacet
	facet normal 0 -2.220446049250313e-16 -1
		outer loop
			vertex 2.1650636196136475 -1.2500000000000009 4.440892098500626e-16
			vertex 1.9545787572860718 -1.558724522590638 4.440892098500626e-16
			vertex 0 -8.881784197001252e-16 0
		endloop
	endfacet
	facet normal 0 -2.220446049250313e-16 -1
		outer loop
			vertex 2.3271844387054443 -0.9133525490760812 0
			vertex 2.1650636196136475 -1.2500000000000009 4.440892098500626e-16
			vertex 0 -8.881784197001252e-16 0
		endloop
	endfacet
	facet normal 0 -2.220446049250313e-16 -1
		outer loop
			vertex 2.437319755554199 -0.5563023090362558 0
			vertex 2.3271844387054443 -0.9133525490760812 0
			vertex 0 -8.881784197001252e-16 0
		endloop
	endfacet
	facet normal 0 -2.220446049250313e-16 -1
		outer loop
			vertex 2.493009567260742 -0.18682523071765988 0
			vertex 2.437319755554199 -0.5563023090362558 0
			vertex 0 -8.881784197001252e-16 0
		endloop
	endfacet
	facet normal 0 -2.220446049250313e-16 -1
		outer loop
			vertex 2.493009567260742 0.1868252307176581 0
			vertex 2.493009567260742 -0.18682523071765988 0
			vertex 0 -8.881784197001252e-16 0
		endloop
	endfacet
	facet normal 0 -2.220446049250313e-16 -1
		outer loop
			vertex 2.437319755554199 0.556302309036254 0
			vertex 2.493009567260742 0.1868252307176581 0
			vertex 0 -8.881784197001252e-16 0
		endloop
	endfacet
	facet normal 0 -2.220446049250313e-16 -1
		outer loop
			vertex 2.3271844387054443 0.9133525490760794 0
			vertex 2.437319755554199 0.556302309036254 0
			vertex 0 -8.881784197001252e-16 0
		endloop
	endfacet
	facet normal 0 -2.220446049250313e-16 -1
		outer loop
			vertex 2.1650636196136475 1.2499999999999991 0
			vertex 2.3271844387054443 0.9133525490760794 0
			vertex 0 -8.881784197001252e-16 0
		endloop
	endfacet
	facet normal 0 -2.220446049250313e-16 -1
		outer loop
			vertex 1.9545787572860718 1.5587245225906363 0
			vertex 2.1650636196136475 1.2499999999999991 0
			vertex 0 -8.881784197001252e-16 0
		endloop
	endfacet
	facet normal 0 -2.220446049250313e-16 -1
		outer loop
			vertex 1.7004318237304688 1.832629680633544 0
			vertex 1.9545787572860718 1.5587245225906363 0
			vertex 0 -8.881784197001252e-16 0
		endloop
	endfacet
	facet normal 0 -2.220446049250313e-16 -1
		outer loop
			vertex 1.4083001613616943 2.0655968189239493 -8.881784197001252e-16
			vertex 1.7004318237304688 1.832629680633544 0
			vertex 0 -8.881784197001252e-16 0
		endloop
	endfacet
	facet normal 0 -2.220446049250313e-16 -1
		outer loop
			vertex 1.0847094058990479 2.252422094345092 -8.881784197001252e-16
			vertex 1.4083001613616943 2.0655968189239493 -8.881784197001252e-16
			vertex 0 -8.881784197001252e-16 0
		endloop
	endfacet
	facet normal 0 -2.220446049250313e-16 -1
		outer loop
			vertex 0.7368879318237305 2.388931989669799 -8.881784197001252e-16
			vertex 1.0847094058990479 2.252422094345092 -8.881784197001252e-16
			vertex 0 -8.881784197001252e-16 0
		endloop
	endfacet
	facet normal 0 -2.220446049250313e-16 -1
		outer loop
			vertex 0.37260565161705017 2.4720771312713614 -8.881784197001252e-16
			vertex 0.7368879318237305 2.388931989669799 -8.881784197001252e-16
			vertex 0 -8.881784197001252e-16 0
		endloop
	endfacet
	facet normal 0 -2.220446049250313e-16 -1
		outer loop
			vertex 3.0616169991140216e-16 2.499999999999999 -8.881784197001252e-16
			vertex 0.37260565161705017 2.4720771312713614 -8.881784197001252e-16
			vertex 0 -8.881784197001252e-16 0
		endloop
	endfacet
	facet normal 0 -2.220446049250313e-16 -1
		outer loop
			vertex -0.37260565161705017 2.4720771312713614 -8.881784197001252e-16
			vertex 3.0616169991140216e-16 2.499999999999999 -8.881784197001252e-16
			vertex 0 -8.881784197001252e-16 0
		endloop
	endfacet
	facet normal 0 -2.220446049250313e-16 -1
		outer loop
			vertex -0.7368879318237305 2.388931989669799 -8.881784197001252e-16
			vertex -0.37260565161705017 2.4720771312713614 -8.881784197001252e-16
			vertex 0 -8.881784197001252e-16 0
		endloop
	endfacet
	facet normal 0 -2.220446049250313e-16 -1
		outer loop
			vertex -1.0847094058990479 2.252422094345092 -8.881784197001252e-16
			vertex -0.7368879318237305 2.388931989669799 -8.881784197001252e-16
			vertex 0 -8.881784197001252e-16 0
		endloop
	endfacet
	facet normal 0 -2.220446049250313e-16 -1
		outer loop
			vertex -1.4083001613616943 2.0655968189239493 -8.881784197001252e-16
			vertex -1.0847094058990479 2.252422094345092 -8.881784197001252e-16
			vertex 0 -8.881784197001252e-16 0
		endloop
	endfacet
	facet normal 0 -2.220446049250313e-16 -1
		outer loop
			vertex -1.7004318237304688 1.832629680633544 0
			vertex -1.4083001613616943 2.0655968189239493 -8.881784197001252e-16
			vertex 0 -8.881784197001252e-16 0
		endloop
	endfacet
	facet normal 0 -2.220446049250313e-16 -1
		outer loop
			vertex -1.9545787572860718 1.5587245225906363 0
			vertex -1.7004318237304688 1.832629680633544 0
			vertex 0 -8.881784197001252e-16 0
		endloop
	endfacet
	facet normal 0 -2.220446049250313e-16 -1
		outer loop
			vertex -2.1650636196136475 1.2499999999999991 0
			vertex -1.9545787572860718 1.5587245225906363 0
			vertex 0 -8.881784197001252e-16 0
		endloop
	endfacet
	facet normal 0 -2.220446049250313e-16 -1
		outer loop
			vertex -2.3271844387054443 0.9133525490760794 0
			vertex -2.1650636196136475 1.2499999999999991 0
			vertex 0 -8.881784197001252e-16 0
		endloop
	endfacet
	facet normal 0 -2.220446049250313e-16 -1
		outer loop
			vertex -2.437319755554199 0.556302309036254 0
			vertex -2.3271844387054443 0.9133525490760794 0
			vertex 0 -8.881784197001252e-16 0
		endloop
	endfacet
	facet normal 0 -2.220446049250313e-16 -1
		outer loop
			vertex -2.493009567260742 0.1868252307176581 0
			vertex -2.437319755554199 0.556302309036254 0
			vertex 0 -8.881784197001252e-16 0
		endloop
	endfacet
	facet normal 0 -2.220446049250313e-16 -1
		outer loop
			vertex -2.493009567260742 -0.18682523071765988 0
			vertex -2.493009567260742 0.1868252307176581 0
			vertex 0 -8.881784197001252e-16 0
		endloop
	endfacet
	facet normal 0 -2.220446049250313e-16 -1
		outer loop
			vertex -2.437319755554199 -0.5563023090362558 0
			vertex -2.493009567260742 -0.18682523071765988 0
			vertex 0 -8.881784197001252e-16 0
		endloop
	endfacet
	facet normal 0 -2.220446049250313e-16 -1
		outer loop
			vertex -2.3271844387054443 -0.9133525490760812 0
			vertex -2.437319755554199 -0.5563023090362558 0
			vertex 0 -8.881784197001252e-16 0
		endloop
	endfacet
	facet normal 0 -2.220446049250313e-16 -1
		outer loop
			vertex -2.1650636196136475 -1.2500000000000009 4.440892098500626e-16
			vertex -2.3271844387054443 -0.9133525490760812 0
			vertex 0 -8.881784197001252e-16 0
		endloop
	endfacet
	facet normal 0 -2.220446049250313e-16 -1
		outer loop
			vertex -1.9545787572860718 -1.558724522590638 4.440892098500626e-16
			vertex -2.1650636196136475 -1.2500000000000009 4.440892098500626e-16
			vertex 0 -8.881784197001252e-16 0
		endloop
	endfacet
	facet normal 0 -2.220446049250313e-16 -1
		outer loop
			vertex -1.7004318237304688 -1.8326296806335458 4.440892098500626e-16
			vertex -1.9545787572860718 -1.558724522590638 4.440892098500626e-16
			vertex 0 -8.881784197001252e-16 0
		endloop
	endfacet
	facet normal 0 -2.220446049250313e-16 -1
		outer loop
			vertex -1.4083001613616943 -2.065596818923951 4.440892098500626e-16
			vertex -1.7004318237304688 -1.8326296806335458 4.440892098500626e-16
			vertex 0 -8.881784197001252e-16 0
		endloop
	endfacet
	facet normal 0 -2.220446049250313e-16 -1
		outer loop
			vertex -1.0847094058990479 -2.2524220943450937 4.440892098500626e-16
			vertex -1.4083001613616943 -2.065596818923951 4.440892098500626e-16
			vertex 0 -8.881784197001252e-16 0
		endloop
	endfacet
	facet normal 0 -2.220446049250313e-16 -1
		outer loop
			vertex -0.7368879318237305 -2.3889319896698007 4.440892098500626e-16
			vertex -1.0847094058990479 -2.2524220943450937 4.440892098500626e-16
			vertex 0 -8.881784197001252e-16 0
		endloop
	endfacet
	facet normal 0 -2.220446049250313e-16 -1
		outer loop
			vertex -0.37260565161705017 -2.472077131271363 4.440892098500626e-16
			vertex -0.7368879318237305 -2.3889319896698007 4.440892098500626e-16
			vertex 0 -8.881784197001252e-16 0
		endloop
	endfacet
	facet normal 0 -2.220446049250313e-16 -1
		outer loop
			vertex 0 -2.500000000000001 4.440892098500626e-16
			vertex -0.37260565161705017 -2.472077131271363 4.440892098500626e-16
			vertex 0 -8.881784197001252e-16 0
		endloop
	endfacet
	facet normal 0 2.220446049250313e-16 1
		outer loop
			vertex -1.9545787572860702 -1.5587245225906394 2.0000000000000004
			vertex -1.7004318237304696 -1.8326296806335445 2.0000000000000004
			vertex -1.4083001613616952 -2.0655968189239498 2.0000000000000004
		endloop
	endfacet
	facet normal 0 2.220446049250313e-16 1
		outer loop
			vertex -1.9545787572860702 -1.5587245225906394 2.0000000000000004
			vertex -1.4083001613616952 -2.0655968189239498 2.0000000000000004
			vertex -1.0847094058990452 -2.2524220943450945 2.0000000000000004
		endloop
	endfacet
	facet normal 0 2.220446049250313e-16 1
		outer loop
			vertex -1.9545787572860702 -1.5587245225906394 2.0000000000000004
			vertex -1.0847094058990452 -2.2524220943450945 2.0000000000000004
			vertex -0.7368879318237324 -2.3889319896698 2.0000000000000004
		endloop
	endfacet
	facet normal 0 2.220446049250313e-16 1
		outer loop
			vertex -1.9545787572860702 -1.5587245225906394 2.0000000000000004
			vertex -0.7368879318237324 -2.3889319896698 2.0000000000000004
			vertex -0.3726056516170485 -2.472077131271363 2.0000000000000004
		endloop
	endfacet
	facet normal 0 2.220446049250313e-16 1
		outer loop
			vertex -1.9545787572860702 -1.5587245225906394 2.0000000000000004
			vertex -0.3726056516170485 -2.472077131271363 2.0000000000000004
			vertex 3.0531133177191805e-15 -2.500000000000001 2.000000000000001
		endloop
	endfacet
	facet normal 0 2.220446049250313e-16 1
		outer loop
			vertex -1.9545787572860702 -1.5587245225906394 2.0000000000000004
			vertex 3.0531133177191805e-15 -2.500000000000001 2.000000000000001
			vertex 0.3726056516170466 -2.4720771312713636 2.0000000000000004
		endloop
	endfacet
	facet normal 0 2.220446049250313e-16 1
		outer loop
			vertex -1.9545787572860702 -1.5587245225906394 2.0000000000000004
			vertex 0.3726056516170466 -2.4720771312713636 2.0000000000000004
			vertex 0.7368879318237291 -2.3889319896698007 2.0000000000000004
		endloop
	endfacet
	facet normal 0 2.220446049250313e-16 1
		outer loop
			vertex -1.9545787572860702 -1.5587245225906394 2.0000000000000004
			vertex 0.7368879318237291 -2.3889319896698007 2.0000000000000004
			vertex 1.084709405899048 -2.252422094345093 2.0000000000000004
		endloop
	endfacet
	facet normal 0 2.220446049250313e-16 1
		outer loop
			vertex -1.9545787572860702 -1.5587245225906394 2.0000000000000004
			vertex 1.084709405899048 -2.252422094345093 2.0000000000000004
			vertex 1.4083001613616952 -2.06559681892395 2.0000000000000004
		endloop
	endfacet
	facet normal 0 2.220446049250313e-16 1
		outer loop
			vertex -1.9545787572860702 -1.5587245225906394 2.0000000000000004
			vertex 1.4083001613616952 -2.06559681892395 2.0000000000000004
			vertex 1.7004318237304683 -1.8326296806335456 2.0000000000000004
		endloop
	endfacet
	facet normal 0 2.220446049250313e-16 1
		outer loop
			vertex -1.9545787572860702 -1.5587245225906394 2.0000000000000004
			vertex 1.7004318237304683 -1.8326296806335456 2.0000000000000004
			vertex 1.9545787572860704 -1.558724522590639 2.0000000000000004
		endloop
	endfacet
	facet normal 0 2.220446049250313e-16 1
		outer loop
			vertex -1.9545787572860702 -1.5587245225906394 2.0000000000000004
			vertex 1.9545787572860704 -1.558724522590639 2.0000000000000004
			vertex 1.9946164677634242 -1.5000000000000004 2.0000000000000004
		endloop
	endfacet
	facet normal 0 2.220446049250313e-16 1
		outer loop
			vertex -1.9545787572860702 -1.5587245225906394 2.0000000000000004
			vertex 1.9946164677634242 -1.5000000000000004 2.0000000000000004
			vertex -1.9946164677634242 -1.5000000000000004 2.0000000000000004
		endloop
	endfacet
	facet normal 0 2.220446049250313e-16 1
		outer loop
			vertex -1.084709405899049 2.2524220943450914 1.9999999999999996
			vertex -1.4083001613616966 2.065596818923948 1.9999999999999996
			vertex -1.7004318237304692 1.832629680633544 1.9999999999999996
		endloop
	endfacet
	facet normal 0 2.220446049250313e-16 1
		outer loop
			vertex -1.084709405899049 2.2524220943450914 1.9999999999999996
			vertex -1.7004318237304692 1.832629680633544 1.9999999999999996
			vertex -1.9545787572860704 1.558724522590638 1.9999999999999996
		endloop
	endfacet
	facet normal 0 2.220446049250313e-16 1
		outer loop
			vertex -1.084709405899049 2.2524220943450914 1.9999999999999996
			vertex -1.9545787572860704 1.558724522590638 1.9999999999999996
			vertex -1.9946164677634242 1.4999999999999996 1.9999999999999996
		endloop
	endfacet
	facet normal 0 2.220446049250313e-16 1
		outer loop
			vertex -1.084709405899049 2.2524220943450914 1.9999999999999996
			vertex -1.9946164677634242 1.4999999999999996 1.9999999999999996
			vertex 1.9946164677634242 1.4999999999999996 1.9999999999999996
		endloop
	endfacet
	facet normal 0 2.220446049250313e-16 1
		outer loop
			vertex -1.084709405899049 2.2524220943450914 1.9999999999999996
			vertex 1.9946164677634242 1.4999999999999996 1.9999999999999996
			vertex 1.9545787572860682 1.5587245225906412 1.9999999999999996
		endloop
	endfacet
	facet normal 0 2.220446049250313e-16 1
		outer loop
			vertex -1.084709405899049 2.2524220943450914 1.9999999999999996
			vertex 1.9545787572860682 1.5587245225906412 1.9999999999999996
			vertex 1.7004318237304696 1.8326296806335445 1.9999999999999996
		endloop
	endfacet
	facet normal 0 2.220446049250313e-16 1
		outer loop
			vertex -1.084709405899049 2.2524220943450914 1.9999999999999996
			vertex 1.7004318237304696 1.8326296806335445 1.9999999999999996
			vertex 1.4083001613616979 2.065596818923948 1.9999999999999996
		endloop
	endfacet
	facet normal 0 2.220446049250313e-16 1
		outer loop
			vertex -1.084709405899049 2.2524220943450914 1.9999999999999996
			vertex 1.4083001613616979 2.065596818923948 1.9999999999999996
			vertex 1.0847094058990452 2.252422094345094 1.9999999999999996
		endloop
	endfacet
	facet normal 0 2.220446049250313e-16 1
		outer loop
			vertex -1.084709405899049 2.2524220943450914 1.9999999999999996
			vertex 1.0847094058990452 2.252422094345094 1.9999999999999996
			vertex 0.7368879318237349 2.3889319896697985 1.9999999999999996
		endloop
	endfacet
	facet normal 0 2.220446049250313e-16 1
		outer loop
			vertex -1.084709405899049 2.2524220943450914 1.9999999999999996
			vertex 0.7368879318237349 2.3889319896697985 1.9999999999999996
			vertex 0.3726056516170466 2.4720771312713627 1.9999999999999996
		endloop
	endfacet
	facet normal 0 2.220446049250313e-16 1
		outer loop
			vertex -1.084709405899049 2.2524220943450914 1.9999999999999996
			vertex 0.3726056516170466 2.4720771312713627 1.9999999999999996
			vertex 5.329070518200751e-15 2.5 1.9999999999999996
		endloop
	endfacet
	facet normal 0 2.220446049250313e-16 1
		outer loop
			vertex -1.084709405899049 2.2524220943450914 1.9999999999999996
			vertex 5.329070518200751e-15 2.5 1.9999999999999996
			vertex -0.3726056516170493 2.472077131271362 1.9999999999999996
		endloop
	endfacet
	facet normal 0 2.220446049250313e-16 1
		outer loop
			vertex -1.084709405899049 2.2524220943450914 1.9999999999999996
			vertex -0.3726056516170493 2.472077131271362 1.9999999999999996
			vertex -0.7368879318237296 2.3889319896697994 1.9999999999999996
		endloop
	endfacet
	facet normal 0 -1 2.220446049250313e-16
		outer loop
			vertex 1.9946164677634242 -1.4999999999999991 8
			vertex -1.9946164677634242 -1.4999999999999991 8
			vertex -1.9946164677634242 -1.4999999999999991 7.994616467763424
		endloop
	endfacet
	facet normal 0 -1 2.220446049250313e-16
		outer loop
			vertex 1.9946164677634242 -1.4999999999999991 8
			vertex -1.9946164677634242 -1.4999999999999991 7.994616467763424
			vertex 1.9946164677634242 -1.5 4.005383532236576
		endloop
	endfacet
	facet normal 0 -1 2.220446049250313e-16
		outer loop
			vertex 1.9946164677634242 -1.5 4.005383532236576
			vertex -1.9946164677634242 -1.4999999999999991 7.994616467763425
			vertex -1.9946164677634242 -1.5000000000000004 2.0000000000000004
		endloop
	endfacet
	facet normal 0 -1 2.220446049250313e-16
		outer loop
			vertex 1.9946164677634242 -1.5 4.005383532236576
			vertex -1.9946164677634242 -1.5000000000000004 2.0000000000000004
			vertex 1.9946164677634242 -1.5000000000000004 2.0000000000000004
		endloop
	endfacet
	facet normal 0 1 -2.220446049250313e-16
		outer loop
			vertex -1.9946164677634242 1.5000000000000009 8
			vertex 1.9946164677634242 1.5000000000000009 8
			vertex 1.9946164677634242 1.5000000000000009 7.994616467763423
		endloop
	endfacet
	facet normal 0 1 -2.220446049250313e-16
		outer loop
			vertex -1.9946164677634242 1.5000000000000009 8
			vertex 1.9946164677634242 1.5000000000000009 7.994616467763423
			vertex -1.9946164677634242 1.5 4.005383532236575
		endloop
	endfacet
	facet normal 0 1 -2.220446049250313e-16
		outer loop
			vertex -1.9946164677634242 1.5 4.005383532236577
			vertex 1.9946164677634242 1.5000000000000009 7.994616467763425
			vertex 1.9946164677634242 1.4999999999999996 1.9999999999999996
		endloop
	endfacet
	facet normal 0 1 -2.220446049250313e-16
		outer loop
			vertex -1.9946164677634242 1.5 4.005383532236577
			vertex 1.9946164677634242 1.4999999999999996 1.9999999999999996
			vertex -1.9946164677634242 1.4999999999999996 1.9999999999999996
		endloop
	endfacet
endsolid exported
