solid exported
	facet normal 0.07472992146980079 -0.997203810079523 2.2142372603884363e-16
		outer loop
			vertex 0 -2.5000000000000018 2.000000000000001
			vertex 0 -2.500000000000002 0
			vertex 0.037260565161705006 -2.497207713127138 2.000000000000001
		endloop
	endfacet
	facet normal 0.0747299214698055 -0.9972038100795226 2.2142372603884356e-16
		outer loop
			vertex 0.03726056516170502 -2.497207713127138 2.000000000000001
			vertex 0 -2.500000000000002 0
			vertex 0.37260565161705017 -2.4720771312713645 0
		endloop
	endfacet
	facet normal 0.0747299214698055 -0.9972038100795226 2.2142372603884356e-16
		outer loop
			vertex 0.03726056516170502 -2.497207713127138 2.000000000000001
			vertex 0.37260565161705017 -2.4720771312713645 0
			vertex 0.37260565161705017 -2.472077131271364 2.000000000000001
		endloop
	endfacet
	facet normal 0.22252115859345417 -0.9749278609098353 2.1647747170613025e-16
		outer loop
			vertex 0.37260565161705017 -2.472077131271364 2.000000000000001
			vertex 0.37260565161705017 -2.4720771312713645 0
			vertex 0.4090338796377182 -2.463762617111208 2.000000000000001
		endloop
	endfacet
	facet normal 0.22252115859345642 -0.9749278609098346 2.164774717061301e-16
		outer loop
			vertex 0.4090338796377182 -2.463762617111208 2.000000000000001
			vertex 0.37260565161705017 -2.4720771312713645 0
			vertex 0.7368879318237305 -2.388931989669802 0
		endloop
	endfacet
	facet normal 0.22252115859345642 -0.9749278609098346 2.164774717061301e-16
		outer loop
			vertex 0.4090338796377182 -2.463762617111208 2.000000000000001
			vertex 0.7368879318237305 -2.388931989669802 0
			vertex 0.7368879318237305 -2.3889319896698016 2.000000000000001
		endloop
	endfacet
	facet normal 0.3653410850359879 -0.9308737248331415 2.066954884656672e-16
		outer loop
			vertex 0.7368879318237305 -2.3889319896698016 2.000000000000001
			vertex 0.7368879318237305 -2.388931989669802 0
			vertex 0.7716700792312622 -2.375281000137331 2.000000000000001
		endloop
	endfacet
	facet normal 0.3653410850359856 -0.9308737248331423 2.066954884656674e-16
		outer loop
			vertex 0.7716700792312622 -2.375281000137331 2.000000000000001
			vertex 0.7368879318237305 -2.388931989669802 0
			vertex 1.0847094058990479 -2.252422094345095 0
		endloop
	endfacet
	facet normal 0.3653410850359856 -0.9308737248331423 2.066954884656674e-16
		outer loop
			vertex 0.7716700792312622 -2.375281000137331 2.000000000000001
			vertex 1.0847094058990479 -2.252422094345095 0
			vertex 1.0847094058990479 -2.2524220943450945 2.000000000000001
		endloop
	endfacet
	facet normal 0.50000013176922 -0.8660253277074308 1.9229625174586724e-16
		outer loop
			vertex 1.0847094058990479 -2.2524220943450945 2.000000000000001
			vertex 1.0847094058990479 -2.252422094345095 0
			vertex 1.1170684814453125 -2.2337395668029805 2.000000000000001
		endloop
	endfacet
	facet normal 0.5000001317692231 -0.8660253277074289 1.9229625174586682e-16
		outer loop
			vertex 1.1170684814453125 -2.2337395668029805 2.000000000000001
			vertex 1.0847094058990479 -2.252422094345095 0
			vertex 1.4083001613616943 -2.0655968189239524 0
		endloop
	endfacet
	facet normal 0.5000001317692231 -0.8660253277074289 1.9229625174586682e-16
		outer loop
			vertex 1.1170684814453125 -2.2337395668029805 2.000000000000001
			vertex 1.4083001613616943 -2.0655968189239524 0
			vertex 1.4083001613616943 -2.065596818923952 2.000000000000001
		endloop
	endfacet
	facet normal 0.6234896570823633 -0.7818315979233106 1.7360148827878743e-16
		outer loop
			vertex 1.4083001613616943 -2.065596818923952 2.000000000000001
			vertex 1.4083001613616943 -2.0655968189239524 0
			vertex 1.4375133275985719 -2.0423001050949114 2.000000000000001
		endloop
	endfacet
	facet normal 0.6234896570823644 -0.7818315979233097 1.7360148827878723e-16
		outer loop
			vertex 1.4375133275985719 -2.0423001050949114 2.000000000000001
			vertex 1.4083001613616943 -2.0655968189239524 0
			vertex 1.7004318237304688 -1.8326296806335471 0
		endloop
	endfacet
	facet normal 0.6234896570823644 -0.7818315979233097 1.7360148827878723e-16
		outer loop
			vertex 1.4375133275985719 -2.0423001050949114 2.000000000000001
			vertex 1.7004318237304688 -1.8326296806335471 0
			vertex 1.7004318237304688 -1.8326296806335467 2
		endloop
	endfacet
	facet normal 0.7330517550963412 -0.6801728635796741 1.5102871477427595e-16
		outer loop
			vertex 1.7004318237304688 -1.8326296806335467 2
			vertex 1.7004318237304688 -1.8326296806335471 0
			vertex 1.725846517086029 -1.8052391648292558 2
		endloop
	endfacet
	facet normal 0.7330517550963407 -0.6801728635796745 1.5102871477427605e-16
		outer loop
			vertex 1.725846517086029 -1.8052391648292558 2
			vertex 1.7004318237304688 -1.8326296806335471 0
			vertex 1.9545787572860718 -1.5587245225906394 0
		endloop
	endfacet
	facet normal 0.7330517550963407 -0.6801728635796745 1.5102871477427605e-16
		outer loop
			vertex 1.725846517086029 -1.8052391648292558 2
			vertex 1.9545787572860718 -1.5587245225906394 0
			vertex 1.9545787572860718 -1.558724522590639 2
		endloop
	endfacet
	facet normal 0.7330517550963408 -0.6801728635796745 1.5102871477427605e-16
		outer loop
			vertex 1.8234942255936504 -1.699999999999997 20
			vertex 1.8234942255936504 -1.6999999999999993 9.684350713305582
			vertex 1.9545787572860718 -1.558724522590635 20
		endloop
	endfacet
	facet normal 0.7330517550963408 -0.6801728635796744 1.5102871477427603e-16
		outer loop
			vertex 1.8234942255936504 -1.6999999999999993 9.684350713305584
			vertex 1.8234942255936504 -1.700000000000001 2
			vertex 1.9545787572860718 -1.558724522590639 2
		endloop
	endfacet
	facet normal 0.7330517550963408 -0.6801728635796744 1.5102871477427603e-16
		outer loop
			vertex 1.8234942255936504 -1.6999999999999993 9.684350713305584
			vertex 1.9545787572860718 -1.558724522590639 2
			vertex 1.9545787572860718 -1.558724522590635 20
		endloop
	endfacet
	facet normal 0.8262387160163497 -0.563320143573487 1.2508219872608684e-16
		outer loop
			vertex 1.9545787572860718 -1.558724522590639 2
			vertex 1.9545787572860718 -1.5587245225906394 0
			vertex 1.9756272435188293 -1.5278520703315752 2
		endloop
	endfacet
	facet normal 0.8262387160163494 -0.5633201435734877 1.25082198726087e-16
		outer loop
			vertex 1.9756272435188293 -1.5278520703315752 2
			vertex 1.9545787572860718 -1.5587245225906394 0
			vertex 2.1650636196136475 -1.2500000000000022 0
		endloop
	endfacet
	facet normal 0.8262387160163494 -0.5633201435734877 1.25082198726087e-16
		outer loop
			vertex 1.9756272435188293 -1.5278520703315752 2
			vertex 2.1650636196136475 -1.2500000000000022 0
			vertex 2.1650636196136475 -1.2500000000000018 2
		endloop
	endfacet
	facet normal 0.8262387160163496 -0.5633201435734874 1.1476522901105777e-16
		outer loop
			vertex 1.9545787572860718 -1.558724522590635 20
			vertex 1.9545787572860718 -1.558724522590639 2
			vertex 1.9756272435188293 -1.5278520703315752 2
		endloop
	endfacet
	facet normal 0.8262387160163496 -0.5633201435734874 1.1476522901105777e-16
		outer loop
			vertex 1.9545787572860718 -1.558724522590635 20
			vertex 1.9756272435188293 -1.5278520703315752 2
			vertex 2.1650636196136475 -1.2499999999999978 20
		endloop
	endfacet
	facet normal 0.8262387160163492 -0.5633201435734876 1.2508219872608697e-16
		outer loop
			vertex 1.9756272435188293 -1.5278520703315752 2
			vertex 2.1650636196136475 -1.2500000000000018 2
			vertex 2.1650636196136475 -1.2499999999999978 20
		endloop
	endfacet
	facet normal 0.9009689189148561 -0.43388363318912576 9.634151991491663e-17
		outer loop
			vertex 2.1650636196136475 -1.2500000000000018 2
			vertex 2.1650636196136475 -1.2500000000000022 0
			vertex 2.1812757015228272 -1.2163352549076099 2
		endloop
	endfacet
	facet normal 0.9009689189148571 -0.4338836331891233 9.634151991491609e-17
		outer loop
			vertex 2.1812757015228272 -1.2163352549076099 2
			vertex 2.1650636196136475 -1.2500000000000022 0
			vertex 2.3271844387054443 -0.9133525490760825 0
		endloop
	endfacet
	facet normal 0.9009689189148571 -0.4338836331891233 9.634151991491609e-17
		outer loop
			vertex 2.1812757015228272 -1.2163352549076099 2
			vertex 2.3271844387054443 -0.9133525490760825 0
			vertex 2.3271844387054443 -0.9133525490760821 2
		endloop
	endfacet
	facet normal 0.9009689189148561 -0.43388363318912543 1.5824334749854536e-16
		outer loop
			vertex 2.1650636196136475 -1.2499999999999978 20
			vertex 2.1650636196136475 -1.2500000000000018 2
			vertex 2.1812757015228272 -1.2163352549076099 2
		endloop
	endfacet
	facet normal 0.9009689189148561 -0.43388363318912543 1.5824334749854536e-16
		outer loop
			vertex 2.1650636196136475 -1.2499999999999978 20
			vertex 2.1812757015228272 -1.2163352549076099 2
			vertex 2.3271844387054443 -0.9133525490760781 20
		endloop
	endfacet
	facet normal 0.9009689189148573 -0.4338836331891231 9.634151991491604e-17
		outer loop
			vertex 2.1812757015228272 -1.2163352549076099 2
			vertex 2.3271844387054443 -0.9133525490760821 2
			vertex 2.3271844387054443 -0.9133525490760781 20
		endloop
	endfacet
	facet normal 0.955572878391393 -0.29475493903035455 6.544874398669677e-17
		outer loop
			vertex 2.3271844387054443 -0.9133525490760821 2
			vertex 2.3271844387054443 -0.9133525490760825 0
			vertex 2.3381979703903197 -0.8776475250720996 2
		endloop
	endfacet
	facet normal 0.9555728783913927 -0.2947549390303561 6.544874398669711e-17
		outer loop
			vertex 2.3381979703903197 -0.8776475250720995 2
			vertex 2.3271844387054443 -0.9133525490760825 0
			vertex 2.437319755554199 -0.5563023090362571 0
		endloop
	endfacet
	facet normal 0.9555728783913927 -0.2947549390303561 6.544874398669711e-17
		outer loop
			vertex 2.3381979703903197 -0.8776475250720995 2
			vertex 2.437319755554199 -0.5563023090362571 0
			vertex 2.437319755554199 -0.5563023090362567 2
		endloop
	endfacet
	facet normal 0.955572878391393 -0.29475493903035455 3.449782972194438e-17
		outer loop
			vertex 2.3271844387054443 -0.9133525490760781 20
			vertex 2.3271844387054443 -0.9133525490760821 2
			vertex 2.3381979703903197 -0.8776475250720996 2
		endloop
	endfacet
	facet normal 0.955572878391393 -0.29475493903035455 3.449782972194438e-17
		outer loop
			vertex 2.3271844387054443 -0.9133525490760781 20
			vertex 2.3381979703903197 -0.8776475250720996 2
			vertex 2.437319755554199 -0.5563023090362527 20
		endloop
	endfacet
	facet normal 0.9555728783913925 -0.29475493903035627 6.544874398669715e-17
		outer loop
			vertex 2.3381979703903197 -0.8776475250720995 2
			vertex 2.437319755554199 -0.5563023090362567 2
			vertex 2.437319755554199 -0.5563023090362527 20
		endloop
	endfacet
	facet normal 0.988830785750844 -0.14904253470525994 3.309409073565471e-17
		outer loop
			vertex 2.437319755554199 -0.5563023090362567 2
			vertex 2.437319755554199 -0.5563023090362571 0
			vertex 2.4428887367248535 -0.519354601204397 2
		endloop
	endfacet
	facet normal 0.9888307857508439 -0.1490425347052601 3.309409073565475e-17
		outer loop
			vertex 2.4428887367248535 -0.519354601204397 2
			vertex 2.437319755554199 -0.5563023090362571 0
			vertex 2.493009567260742 -0.18682523071766122 0
		endloop
	endfacet
	facet normal 0.9888307857508439 -0.1490425347052601 3.309409073565475e-17
		outer loop
			vertex 2.4428887367248535 -0.519354601204397 2
			vertex 2.493009567260742 -0.18682523071766122 0
			vertex 2.493009567260742 -0.18682523071766077 2
		endloop
	endfacet
	facet normal 0.988830785750844 -0.14904253470526002 2.7935605109859457e-17
		outer loop
			vertex 2.437319755554199 -0.5563023090362527 20
			vertex 2.437319755554199 -0.5563023090362567 2
			vertex 2.4428887367248535 -0.519354601204397 2
		endloop
	endfacet
	facet normal 0.988830785750844 -0.14904253470526002 2.7935605109859457e-17
		outer loop
			vertex 2.437319755554199 -0.5563023090362527 20
			vertex 2.4428887367248535 -0.519354601204397 2
			vertex 2.493009567260742 -0.18682523071765678 20
		endloop
	endfacet
	facet normal 0.9888307857508439 -0.1490425347052601 3.309409073565475e-17
		outer loop
			vertex 2.4428887367248535 -0.519354601204397 2
			vertex 2.493009567260742 -0.18682523071766077 2
			vertex 2.493009567260742 -0.18682523071765678 20
		endloop
	endfacet
	facet normal 1 0 0
		outer loop
			vertex 2.493009567260742 -0.18682523071766077 2
			vertex 2.493009567260742 -0.18682523071766122 0
			vertex 2.493009567260742 -0.14946018457412896 2
		endloop
	endfacet
	facet normal 1 0 0
		outer loop
			vertex 2.493009567260742 -0.14946018457412896 2
			vertex 2.493009567260742 -0.18682523071766122 0
			vertex 2.493009567260742 0.18682523071765678 0
		endloop
	endfacet
	facet normal 1 0 0
		outer loop
			vertex 2.493009567260742 -0.14946018457412896 2
			vertex 2.493009567260742 0.18682523071765678 0
			vertex 2.493009567260742 0.18682523071765722 2
		endloop
	endfacet
	facet normal 1 0 0
		outer loop
			vertex 2.493009567260742 -0.18682523071765678 20
			vertex 2.493009567260742 -0.18682523071766077 2
			vertex 2.493009567260742 -0.14946018457412896 2
		endloop
	endfacet
	facet normal 1 0 0
		outer loop
			vertex 2.493009567260742 -0.18682523071765678 20
			vertex 2.493009567260742 -0.14946018457412896 2
			vertex 2.493009567260742 0.18682523071766122 20
		endloop
	endfacet
	facet normal 1 0 0
		outer loop
			vertex 2.493009567260742 -0.14946018457412896 2
			vertex 2.493009567260742 0.18682523071765722 2
			vertex 2.493009567260742 0.18682523071766122 20
		endloop
	endfacet
	facet normal 0.988830785750844 0.14904253470526016 -3.309409073565476e-17
		outer loop
			vertex 2.493009567260742 0.18682523071765722 2
			vertex 2.493009567260742 0.18682523071765678 0
			vertex 2.487440586090088 0.2237729385495168 2
		endloop
	endfacet
	facet normal 0.9888307857508439 0.1490425347052601 -3.309409073565475e-17
		outer loop
			vertex 2.487440586090088 0.2237729385495168 2
			vertex 2.493009567260742 0.18682523071765678 0
			vertex 2.437319755554199 0.5563023090362527 0
		endloop
	endfacet
	facet normal 0.9888307857508439 0.1490425347052601 -3.309409073565475e-17
		outer loop
			vertex 2.487440586090088 0.2237729385495168 2
			vertex 2.437319755554199 0.5563023090362527 0
			vertex 2.437319755554199 0.5563023090362531 2
		endloop
	endfacet
	facet normal 0.988830785750844 0.14904253470526022 -3.309409073565477e-17
		outer loop
			vertex 2.493009567260742 0.18682523071766122 20
			vertex 2.493009567260742 0.18682523071765722 2
			vertex 2.487440586090088 0.2237729385495168 2
		endloop
	endfacet
	facet normal 0.988830785750844 0.14904253470526022 -3.309409073565477e-17
		outer loop
			vertex 2.493009567260742 0.18682523071766122 20
			vertex 2.487440586090088 0.2237729385495168 2
			vertex 2.437319755554199 0.5563023090362571 20
		endloop
	endfacet
	facet normal 0.9888307857508439 0.14904253470526008 -3.309409073565474e-17
		outer loop
			vertex 2.487440586090088 0.2237729385495168 2
			vertex 2.437319755554199 0.5563023090362531 2
			vertex 2.437319755554199 0.5563023090362571 20
		endloop
	endfacet
	facet normal 0.955572878391393 0.29475493903035455 -6.544874398669677e-17
		outer loop
			vertex 2.437319755554199 0.5563023090362531 2
			vertex 2.437319755554199 0.5563023090362527 0
			vertex 2.426306223869324 0.5920073330402356 2
		endloop
	endfacet
	facet normal 0.9555728783913927 0.2947549390303561 -6.544874398669711e-17
		outer loop
			vertex 2.426306223869324 0.5920073330402357 2
			vertex 2.437319755554199 0.5563023090362527 0
			vertex 2.3271844387054443 0.9133525490760781 0
		endloop
	endfacet
	facet normal 0.9555728783913927 0.2947549390303561 -6.544874398669711e-17
		outer loop
			vertex 2.426306223869324 0.5920073330402357 2
			vertex 2.3271844387054443 0.9133525490760781 0
			vertex 2.3271844387054443 0.9133525490760785 2
		endloop
	endfacet
	facet normal 0.955572878391393 0.29475493903035455 -3.449782972194438e-17
		outer loop
			vertex 2.437319755554199 0.5563023090362571 20
			vertex 2.437319755554199 0.5563023090362531 2
			vertex 2.426306223869324 0.5920073330402356 2
		endloop
	endfacet
	facet normal 0.955572878391393 0.29475493903035455 -3.449782972194438e-17
		outer loop
			vertex 2.437319755554199 0.5563023090362571 20
			vertex 2.426306223869324 0.5920073330402356 2
			vertex 2.3271844387054443 0.9133525490760825 20
		endloop
	endfacet
	facet normal 0.9555728783913925 0.29475493903035627 -6.544874398669715e-17
		outer loop
			vertex 2.426306223869324 0.5920073330402357 2
			vertex 2.3271844387054443 0.9133525490760785 2
			vertex 2.3271844387054443 0.9133525490760825 20
		endloop
	endfacet
	facet normal 0.9009689189148561 0.43388363318912576 -9.634151991491663e-17
		outer loop
			vertex 2.3271844387054443 0.9133525490760785 2
			vertex 2.3271844387054443 0.9133525490760781 0
			vertex 2.3109723567962646 0.9470172941684705 2
		endloop
	endfacet
	facet normal 0.9009689189148571 0.4338836331891233 -9.634151991491609e-17
		outer loop
			vertex 2.3109723567962646 0.9470172941684705 2
			vertex 2.3271844387054443 0.9133525490760781 0
			vertex 2.1650636196136475 1.2499999999999978 0
		endloop
	endfacet
	facet normal 0.9009689189148571 0.4338836331891233 -9.634151991491609e-17
		outer loop
			vertex 2.3109723567962646 0.9470172941684705 2
			vertex 2.1650636196136475 1.2499999999999978 0
			vertex 2.1650636196136475 1.2499999999999982 2
		endloop
	endfacet
	facet normal 0.9009689189148561 0.43388363318912543 -1.5824334749854536e-16
		outer loop
			vertex 2.3271844387054443 0.9133525490760825 20
			vertex 2.3271844387054443 0.9133525490760785 2
			vertex 2.3109723567962646 0.9470172941684705 2
		endloop
	endfacet
	facet normal 0.9009689189148561 0.43388363318912543 -1.5824334749854536e-16
		outer loop
			vertex 2.3271844387054443 0.9133525490760825 20
			vertex 2.3109723567962646 0.9470172941684705 2
			vertex 2.1650636196136475 1.2500000000000022 20
		endloop
	endfacet
	facet normal 0.9009689189148573 0.4338836331891231 -9.634151991491604e-17
		outer loop
			vertex 2.3109723567962646 0.9470172941684705 2
			vertex 2.1650636196136475 1.2499999999999982 2
			vertex 2.1650636196136475 1.2500000000000022 20
		endloop
	endfacet
	facet normal 0.8262387160163497 0.563320143573487 -1.2508219872608684e-16
		outer loop
			vertex 2.1650636196136475 1.2499999999999982 2
			vertex 2.1650636196136475 1.2499999999999978 0
			vertex 2.14401513338089 1.280872452259062 2
		endloop
	endfacet
	facet normal 0.8262387160163494 0.5633201435734877 -1.25082198726087e-16
		outer loop
			vertex 2.14401513338089 1.280872452259062 2
			vertex 2.1650636196136475 1.2499999999999978 0
			vertex 1.9545787572860718 1.558724522590635 0
		endloop
	endfacet
	facet normal 0.8262387160163494 0.5633201435734877 -1.25082198726087e-16
		outer loop
			vertex 2.14401513338089 1.280872452259062 2
			vertex 1.9545787572860718 1.558724522590635 0
			vertex 1.9545787572860718 1.5587245225906354 2
		endloop
	endfacet
	facet normal 0.8262387160163496 0.5633201435734874 -1.1476522901105777e-16
		outer loop
			vertex 2.1650636196136475 1.2500000000000022 20
			vertex 2.1650636196136475 1.2499999999999982 2
			vertex 2.14401513338089 1.280872452259062 2
		endloop
	endfacet
	facet normal 0.8262387160163496 0.5633201435734874 -1.1476522901105777e-16
		outer loop
			vertex 2.1650636196136475 1.2500000000000022 20
			vertex 2.14401513338089 1.280872452259062 2
			vertex 1.9545787572860718 1.5587245225906394 20
		endloop
	endfacet
	facet normal 0.8262387160163492 0.5633201435734876 -1.2508219872608697e-16
		outer loop
			vertex 2.14401513338089 1.280872452259062 2
			vertex 1.9545787572860718 1.5587245225906354 2
			vertex 1.9545787572860718 1.5587245225906394 20
		endloop
	endfacet
	facet normal 0.7330517550963412 0.6801728635796741 -1.5102871477427595e-16
		outer loop
			vertex 1.9545787572860718 1.5587245225906354 2
			vertex 1.9545787572860718 1.558724522590635 0
			vertex 1.9291640639305114 1.5861150383949263 2
		endloop
	endfacet
	facet normal 0.7330517550963407 0.6801728635796745 -1.5102871477427605e-16
		outer loop
			vertex 1.9291640639305114 1.5861150383949263 2
			vertex 1.9545787572860718 1.558724522590635 0
			vertex 1.7004318237304688 1.8326296806335427 0
		endloop
	endfacet
	facet normal 0.7330517550963407 0.6801728635796745 -1.5102871477427605e-16
		outer loop
			vertex 1.9291640639305114 1.5861150383949263 2
			vertex 1.7004318237304688 1.8326296806335427 0
			vertex 1.7004318237304688 1.8326296806335431 2
		endloop
	endfacet
	facet normal 0.7330517550963416 0.6801728635796738 -1.5102871477427588e-16
		outer loop
			vertex 1.9545787572860718 1.5587245225906394 20
			vertex 1.9545787572860718 1.5587245225906354 2
			vertex 1.9291640639305114 1.5861150383949263 2
		endloop
	endfacet
	facet normal 0.7330517550963416 0.6801728635796738 -1.5102871477427588e-16
		outer loop
			vertex 1.9545787572860718 1.5587245225906394 20
			vertex 1.9291640639305114 1.5861150383949263 2
			vertex 1.7004318237304688 1.8326296806335471 20
		endloop
	endfacet
	facet normal 0.7330517550963406 0.6801728635796747 -1.5102871477427608e-16
		outer loop
			vertex 1.9291640639305114 1.5861150383949263 2
			vertex 1.7004318237304688 1.8326296806335431 2
			vertex 1.7004318237304688 1.8326296806335471 20
		endloop
	endfacet
	facet normal 0.6234896570823633 0.7818315979233106 -1.7360148827878743e-16
		outer loop
			vertex 1.7004318237304688 1.8326296806335431 2
			vertex 1.7004318237304688 1.8326296806335427 0
			vertex 1.6712186574935912 1.8559263944625837 2
		endloop
	endfacet
	facet normal 0.6234896570823644 0.7818315979233097 -1.7360148827878723e-16
		outer loop
			vertex 1.6712186574935912 1.8559263944625837 2
			vertex 1.7004318237304688 1.8326296806335427 0
			vertex 1.4083001613616943 2.065596818923948 0
		endloop
	endfacet
	facet normal 0.6234896570823644 0.7818315979233097 -1.7360148827878723e-16
		outer loop
			vertex 1.6712186574935912 1.8559263944625837 2
			vertex 1.4083001613616943 2.065596818923948 0
			vertex 1.4083001613616943 2.0655968189239484 2
		endloop
	endfacet
	facet normal 0.6234896570823633 0.7818315979233106 -2.0455240988677428e-16
		outer loop
			vertex 1.7004318237304688 1.8326296806335471 20
			vertex 1.7004318237304688 1.8326296806335431 2
			vertex 1.6712186574935912 1.8559263944625837 2
		endloop
	endfacet
	facet normal 0.6234896570823633 0.7818315979233106 -2.0455240988677428e-16
		outer loop
			vertex 1.7004318237304688 1.8326296806335471 20
			vertex 1.6712186574935912 1.8559263944625837 2
			vertex 1.4083001613616943 2.0655968189239524 20
		endloop
	endfacet
	facet normal 0.6234896570823645 0.7818315979233096 -1.736014882787872e-16
		outer loop
			vertex 1.6712186574935912 1.8559263944625837 2
			vertex 1.4083001613616943 2.0655968189239484 2
			vertex 1.4083001613616943 2.0655968189239524 20
		endloop
	endfacet
	facet normal 0.50000013176922 0.8660253277074308 -1.9229625174586724e-16
		outer loop
			vertex 1.4083001613616943 2.0655968189239484 2
			vertex 1.4083001613616943 2.065596818923948 0
			vertex 1.3759410858154297 2.0842793464660625 2
		endloop
	endfacet
	facet normal 0.5000001317692231 0.8660253277074289 -1.9229625174586682e-16
		outer loop
			vertex 1.3759410858154297 2.0842793464660625 2
			vertex 1.4083001613616943 2.065596818923948 0
			vertex 1.0847094058990479 2.2524220943450906 0
		endloop
	endfacet
	facet normal 0.5000001317692231 0.8660253277074289 -1.9229625174586682e-16
		outer loop
			vertex 1.3759410858154297 2.0842793464660625 2
			vertex 1.0847094058990479 2.2524220943450906 0
			vertex 1.0847094058990479 2.252422094345091 2
		endloop
	endfacet
	facet normal 0.5000001317692196 0.8660253277074308 -2.6451505205201197e-16
		outer loop
			vertex 1.4083001613616943 2.0655968189239524 20
			vertex 1.4083001613616943 2.0655968189239484 2
			vertex 1.3759410858154297 2.0842793464660625 2
		endloop
	endfacet
	facet normal 0.5000001317692196 0.8660253277074308 -2.6451505205201197e-16
		outer loop
			vertex 1.4083001613616943 2.0655968189239524 20
			vertex 1.3759410858154297 2.0842793464660625 2
			vertex 1.0847094058990479 2.252422094345095 20
		endloop
	endfacet
	facet normal 0.5000001317692234 0.8660253277074287 -1.9229625174586677e-16
		outer loop
			vertex 1.3759410858154297 2.0842793464660625 2
			vertex 1.0847094058990479 2.252422094345091 2
			vertex 1.0847094058990479 2.252422094345095 20
		endloop
	endfacet
	facet normal 0.36534108503598683 0.9308737248331418 -2.0669548846566727e-16
		outer loop
			vertex 1.0847094058990479 2.252422094345091 2
			vertex 1.0847094058990479 2.2524220943450906 0
			vertex 1.049927258491516 2.266073083877562 2
		endloop
	endfacet
	facet normal 0.3653410850359856 0.9308737248331423 -2.066954884656674e-16
		outer loop
			vertex 1.049927258491516 2.266073083877562 2
			vertex 1.0847094058990479 2.2524220943450906 0
			vertex 0.7368879318237305 2.3889319896697976 0
		endloop
	endfacet
	facet normal 0.3653410850359856 0.9308737248331423 -2.066954884656674e-16
		outer loop
			vertex 1.049927258491516 2.266073083877562 2
			vertex 0.7368879318237305 2.3889319896697976 0
			vertex 0.7368879318237305 2.388931989669798 2
		endloop
	endfacet
	facet normal 0.36534108503598683 0.9308737248331418 -1.7574458167397698e-16
		outer loop
			vertex 1.0847094058990479 2.252422094345095 20
			vertex 1.0847094058990479 2.252422094345091 2
			vertex 1.049927258491516 2.266073083877562 2
		endloop
	endfacet
	facet normal 0.36534108503598683 0.9308737248331418 -1.7574458167397698e-16
		outer loop
			vertex 1.0847094058990479 2.252422094345095 20
			vertex 1.049927258491516 2.266073083877562 2
			vertex 0.7368879318237305 2.388931989669802 20
		endloop
	endfacet
	facet normal 0.3653410850359855 0.9308737248331423 -2.066954884656674e-16
		outer loop
			vertex 1.049927258491516 2.266073083877562 2
			vertex 0.7368879318237305 2.388931989669798 2
			vertex 0.7368879318237305 2.388931989669802 20
		endloop
	endfacet
	facet normal 0.22252115859345417 0.9749278609098353 -2.1647747170613025e-16
		outer loop
			vertex 0.7368879318237305 2.388931989669798 2
			vertex 0.7368879318237305 2.3889319896697976 0
			vertex 0.7004597038030624 2.397246503829954 2
		endloop
	endfacet
	facet normal 0.22252115859345642 0.9749278609098346 -2.164774717061301e-16
		outer loop
			vertex 0.7004597038030624 2.397246503829954 2
			vertex 0.7368879318237305 2.3889319896697976 0
			vertex 0.37260565161705017 2.47207713127136 0
		endloop
	endfacet
	facet normal 0.22252115859345642 0.9749278609098346 -2.164774717061301e-16
		outer loop
			vertex 0.7004597038030624 2.397246503829954 2
			vertex 0.37260565161705017 2.47207713127136 0
			vertex 0.37260565161705017 2.4720771312713605 2
		endloop
	endfacet
	facet normal 0.2225211585934542 0.9749278609098353 -2.629038377304288e-16
		outer loop
			vertex 0.7368879318237305 2.388931989669802 20
			vertex 0.7368879318237305 2.388931989669798 2
			vertex 0.7004597038030624 2.397246503829954 2
		endloop
	endfacet
	facet normal 0.2225211585934542 0.9749278609098353 -2.629038377304288e-16
		outer loop
			vertex 0.7368879318237305 2.388931989669802 20
			vertex 0.7004597038030624 2.397246503829954 2
			vertex 0.37260565161705017 2.4720771312713645 20
		endloop
	endfacet
	facet normal 0.2225211585934567 0.9749278609098347 -2.1647747170613013e-16
		outer loop
			vertex 0.7004597038030624 2.397246503829954 2
			vertex 0.37260565161705017 2.4720771312713605 2
			vertex 0.37260565161705017 2.4720771312713645 20
		endloop
	endfacet
	facet normal 0.0747299214698009 0.997203810079523 -2.2142372603884363e-16
		outer loop
			vertex 0.37260565161705017 2.4720771312713605 2
			vertex 0.37260565161705017 2.47207713127136 0
			vertex 0.3353450864553452 2.474869418144224 2
		endloop
	endfacet
	facet normal 0.07472992146980556 0.9972038100795226 -2.2142372603884356e-16
		outer loop
			vertex 0.33534508645534516 2.474869418144224 2
			vertex 0.37260565161705017 2.47207713127136 0
			vertex 3.0616169991140216e-16 2.499999999999998 0
		endloop
	endfacet
	facet normal 0.07472992146980556 0.9972038100795226 -2.2142372603884356e-16
		outer loop
			vertex 0.33534508645534516 2.474869418144224 2
			vertex 3.0616169991140216e-16 2.499999999999998 0
			vertex 3.0616169991140216e-16 2.4999999999999982 2
		endloop
	endfacet
	facet normal 0.07472992146980093 0.997203810079523 -3.1685571295812473e-16
		outer loop
			vertex 0.37260565161705017 2.4720771312713645 20
			vertex 0.37260565161705017 2.4720771312713605 2
			vertex 0.3353450864553452 2.474869418144224 2
		endloop
	endfacet
	facet normal 0.07472992146980093 0.997203810079523 -3.1685571295812473e-16
		outer loop
			vertex 0.37260565161705017 2.4720771312713645 20
			vertex 0.3353450864553452 2.474869418144224 2
			vertex 3.0616169991140216e-16 2.500000000000002 20
		endloop
	endfacet
	facet normal 0.0747299214698061 0.9972038100795227 -2.2142372603884358e-16
		outer loop
			vertex 0.33534508645534516 2.474869418144224 2
			vertex 3.0616169991140216e-16 2.4999999999999982 2
			vertex 3.0616169991140216e-16 2.500000000000002 20
		endloop
	endfacet
	facet normal -0.07472992146980073 0.997203810079523 -2.2142372603884363e-16
		outer loop
			vertex 3.0616169991140216e-16 2.4999999999999982 2
			vertex 3.0616169991140216e-16 2.499999999999998 0
			vertex -0.03726056516170473 2.4972077131271346 2
		endloop
	endfacet
	facet normal -0.07472992146980544 0.9972038100795226 -2.2142372603884356e-16
		outer loop
			vertex -0.03726056516170475 2.4972077131271346 2
			vertex 3.0616169991140216e-16 2.499999999999998 0
			vertex -0.37260565161705017 2.47207713127136 0
		endloop
	endfacet
	facet normal -0.07472992146980544 0.9972038100795226 -2.2142372603884356e-16
		outer loop
			vertex -0.03726056516170475 2.4972077131271346 2
			vertex -0.37260565161705017 2.47207713127136 0
			vertex -0.37260565161705017 2.4720771312713605 2
		endloop
	endfacet
	facet normal -0.07472992146980065 0.9972038100795232 -1.2083325334014235e-16
		outer loop
			vertex 3.0616169991140216e-16 2.500000000000002 20
			vertex 3.0616169991140216e-16 2.4999999999999982 2
			vertex -0.03726056516170473 2.4972077131271346 2
		endloop
	endfacet
	facet normal -0.07472992146980065 0.9972038100795232 -1.2083325334014235e-16
		outer loop
			vertex 3.0616169991140216e-16 2.500000000000002 20
			vertex -0.03726056516170473 2.4972077131271346 2
			vertex -0.37260565161705017 2.4720771312713645 20
		endloop
	endfacet
	facet normal -0.07472992146980598 0.9972038100795227 -2.2142372603884358e-16
		outer loop
			vertex -0.03726056516170475 2.4972077131271346 2
			vertex -0.37260565161705017 2.4720771312713605 2
			vertex -0.37260565161705017 2.4720771312713645 20
		endloop
	endfacet
	facet normal -0.22252115859345417 0.9749278609098353 -2.1647747170613025e-16
		outer loop
			vertex -0.37260565161705017 2.4720771312713605 2
			vertex -0.37260565161705017 2.47207713127136 0
			vertex -0.4090338796377182 2.4637626171112044 2
		endloop
	endfacet
	facet normal -0.22252115859345642 0.9749278609098346 -2.164774717061301e-16
		outer loop
			vertex -0.4090338796377182 2.4637626171112044 2
			vertex -0.37260565161705017 2.47207713127136 0
			vertex -0.7368879318237305 2.3889319896697976 0
		endloop
	endfacet
	facet normal -0.22252115859345642 0.9749278609098346 -2.164774717061301e-16
		outer loop
			vertex -0.4090338796377182 2.4637626171112044 2
			vertex -0.7368879318237305 2.3889319896697976 0
			vertex -0.7368879318237305 2.388931989669798 2
		endloop
	endfacet
	facet normal -0.2225211585934542 0.9749278609098353 -1.700511056818317e-16
		outer loop
			vertex -0.37260565161705017 2.4720771312713645 20
			vertex -0.37260565161705017 2.4720771312713605 2
			vertex -0.4090338796377182 2.4637626171112044 2
		endloop
	endfacet
	facet normal -0.2225211585934542 0.9749278609098353 -1.700511056818317e-16
		outer loop
			vertex -0.37260565161705017 2.4720771312713645 20
			vertex -0.4090338796377182 2.4637626171112044 2
			vertex -0.7368879318237305 2.388931989669802 20
		endloop
	endfacet
	facet normal -0.2225211585934567 0.9749278609098347 -2.1647747170613013e-16
		outer loop
			vertex -0.4090338796377182 2.4637626171112044 2
			vertex -0.7368879318237305 2.388931989669798 2
			vertex -0.7368879318237305 2.388931989669802 20
		endloop
	endfacet
	facet normal -0.3653410850359879 0.9308737248331415 -2.066954884656672e-16
		outer loop
			vertex -0.7368879318237305 2.388931989669798 2
			vertex -0.7368879318237305 2.3889319896697976 0
			vertex -0.7716700792312622 2.3752810001373272 2
		endloop
	endfacet
	facet normal -0.3653410850359856 0.9308737248331423 -2.066954884656674e-16
		outer loop
			vertex -0.7716700792312622 2.3752810001373272 2
			vertex -0.7368879318237305 2.3889319896697976 0
			vertex -1.0847094058990479 2.2524220943450906 0
		endloop
	endfacet
	facet normal -0.3653410850359856 0.9308737248331423 -2.066954884656674e-16
		outer loop
			vertex -0.7716700792312622 2.3752810001373272 2
			vertex -1.0847094058990479 2.2524220943450906 0
			vertex -1.0847094058990479 2.252422094345091 2
		endloop
	endfacet
	facet normal -0.3653410850359878 0.9308737248331415 -2.582803331184845e-16
		outer loop
			vertex -0.7368879318237305 2.388931989669802 20
			vertex -0.7368879318237305 2.388931989669798 2
			vertex -0.7716700792312622 2.3752810001373272 2
		endloop
	endfacet
	facet normal -0.3653410850359878 0.9308737248331415 -2.582803331184845e-16
		outer loop
			vertex -0.7368879318237305 2.388931989669802 20
			vertex -0.7716700792312622 2.3752810001373272 2
			vertex -1.0847094058990479 2.252422094345095 20
		endloop
	endfacet
	facet normal -0.3653410850359854 0.9308737248331425 -2.0669548846566742e-16
		outer loop
			vertex -0.7716700792312622 2.3752810001373272 2
			vertex -1.0847094058990479 2.252422094345091 2
			vertex -1.0847094058990479 2.252422094345095 20
		endloop
	endfacet
	facet normal -0.50000013176922 0.8660253277074308 -1.9229625174586724e-16
		outer loop
			vertex -1.0847094058990479 2.252422094345091 2
			vertex -1.0847094058990479 2.2524220943450906 0
			vertex -1.1170684814453125 2.233739566802977 2
		endloop
	endfacet
	facet normal -0.5000001317692231 0.8660253277074289 -1.9229625174586682e-16
		outer loop
			vertex -1.1170684814453125 2.233739566802977 2
			vertex -1.0847094058990479 2.2524220943450906 0
			vertex -1.4083001613616943 2.065596818923948 0
		endloop
	endfacet
	facet normal -0.5000001317692231 0.8660253277074289 -1.9229625174586682e-16
		outer loop
			vertex -1.1170684814453125 2.233739566802977 2
			vertex -1.4083001613616943 2.065596818923948 0
			vertex -1.4083001613616943 2.0655968189239484 2
		endloop
	endfacet
	facet normal -0.5000001317692196 0.8660253277074308 -1.2007745143972251e-16
		outer loop
			vertex -1.0847094058990479 2.252422094345095 20
			vertex -1.0847094058990479 2.252422094345091 2
			vertex -1.1170684814453125 2.233739566802977 2
		endloop
	endfacet
	facet normal -0.5000001317692196 0.8660253277074308 -1.2007745143972251e-16
		outer loop
			vertex -1.0847094058990479 2.252422094345095 20
			vertex -1.1170684814453125 2.233739566802977 2
			vertex -1.4083001613616943 2.0655968189239524 20
		endloop
	endfacet
	facet normal -0.5000001317692234 0.8660253277074287 -1.9229625174586677e-16
		outer loop
			vertex -1.1170684814453125 2.233739566802977 2
			vertex -1.4083001613616943 2.0655968189239484 2
			vertex -1.4083001613616943 2.0655968189239524 20
		endloop
	endfacet
	facet normal -0.6234896570823633 0.7818315979233106 -1.7360148827878743e-16
		outer loop
			vertex -1.4083001613616943 2.0655968189239484 2
			vertex -1.4083001613616943 2.065596818923948 0
			vertex -1.4375133275985719 2.042300105094908 2
		endloop
	endfacet
	facet normal -0.6234896570823644 0.7818315979233097 -1.7360148827878723e-16
		outer loop
			vertex -1.4375133275985719 2.042300105094908 2
			vertex -1.4083001613616943 2.065596818923948 0
			vertex -1.7004318237304688 1.8326296806335427 0
		endloop
	endfacet
	facet normal -0.6234896570823644 0.7818315979233097 -1.7360148827878723e-16
		outer loop
			vertex -1.4375133275985719 2.042300105094908 2
			vertex -1.7004318237304688 1.8326296806335427 0
			vertex -1.7004318237304688 1.8326296806335431 2
		endloop
	endfacet
	facet normal -0.6234896570823633 0.7818315979233106 -1.4265056667080058e-16
		outer loop
			vertex -1.4083001613616943 2.0655968189239524 20
			vertex -1.4083001613616943 2.0655968189239484 2
			vertex -1.4375133275985719 2.042300105094908 2
		endloop
	endfacet
	facet normal -0.6234896570823633 0.7818315979233106 -1.4265056667080058e-16
		outer loop
			vertex -1.4083001613616943 2.0655968189239524 20
			vertex -1.4375133275985719 2.042300105094908 2
			vertex -1.7004318237304688 1.8326296806335471 20
		endloop
	endfacet
	facet normal -0.6234896570823645 0.7818315979233096 -1.736014882787872e-16
		outer loop
			vertex -1.4375133275985719 2.042300105094908 2
			vertex -1.7004318237304688 1.8326296806335431 2
			vertex -1.7004318237304688 1.8326296806335471 20
		endloop
	endfacet
	facet normal -0.7330517550963412 0.6801728635796741 -1.5102871477427595e-16
		outer loop
			vertex -1.7004318237304688 1.8326296806335431 2
			vertex -1.7004318237304688 1.8326296806335427 0
			vertex -1.725846517086029 1.8052391648292523 2
		endloop
	endfacet
	facet normal -0.7330517550963407 0.6801728635796745 -1.5102871477427605e-16
		outer loop
			vertex -1.725846517086029 1.8052391648292523 2
			vertex -1.7004318237304688 1.8326296806335427 0
			vertex -1.9545787572860718 1.558724522590635 0
		endloop
	endfacet
	facet normal -0.7330517550963407 0.6801728635796745 -1.5102871477427605e-16
		outer loop
			vertex -1.725846517086029 1.8052391648292523 2
			vertex -1.9545787572860718 1.558724522590635 0
			vertex -1.9545787572860718 1.5587245225906354 2
		endloop
	endfacet
	facet normal -0.7330517550963416 0.6801728635796738 -1.5102871477427588e-16
		outer loop
			vertex -1.7004318237304688 1.8326296806335471 20
			vertex -1.7004318237304688 1.8326296806335431 2
			vertex -1.725846517086029 1.8052391648292523 2
		endloop
	endfacet
	facet normal -0.7330517550963416 0.6801728635796738 -1.5102871477427588e-16
		outer loop
			vertex -1.7004318237304688 1.8326296806335471 20
			vertex -1.725846517086029 1.8052391648292523 2
			vertex -1.9545787572860718 1.5587245225906394 20
		endloop
	endfacet
	facet normal -0.7330517550963406 0.6801728635796747 -1.5102871477427608e-16
		outer loop
			vertex -1.725846517086029 1.8052391648292523 2
			vertex -1.9545787572860718 1.5587245225906354 2
			vertex -1.9545787572860718 1.5587245225906394 20
		endloop
	endfacet
	facet normal -0.8262387160163497 0.563320143573487 -1.2508219872608684e-16
		outer loop
			vertex -1.9545787572860718 1.5587245225906354 2
			vertex -1.9545787572860718 1.558724522590635 0
			vertex -1.9756272435188293 1.5278520703315717 2
		endloop
	endfacet
	facet normal -0.8262387160163494 0.5633201435734877 -1.25082198726087e-16
		outer loop
			vertex -1.9756272435188293 1.5278520703315717 2
			vertex -1.9545787572860718 1.558724522590635 0
			vertex -2.1650636196136475 1.2499999999999978 0
		endloop
	endfacet
	facet normal -0.8262387160163494 0.5633201435734877 -1.25082198726087e-16
		outer loop
			vertex -1.9756272435188293 1.5278520703315717 2
			vertex -2.1650636196136475 1.2499999999999978 0
			vertex -2.1650636196136475 1.2499999999999982 2
		endloop
	endfacet
	facet normal -0.8262387160163496 0.5633201435734874 -1.3539916844111606e-16
		outer loop
			vertex -1.9545787572860718 1.5587245225906394 20
			vertex -1.9545787572860718 1.5587245225906354 2
			vertex -1.9756272435188293 1.5278520703315717 2
		endloop
	endfacet
	facet normal -0.8262387160163496 0.5633201435734874 -1.3539916844111606e-16
		outer loop
			vertex -1.9545787572860718 1.5587245225906394 20
			vertex -1.9756272435188293 1.5278520703315717 2
			vertex -2.1650636196136475 1.2500000000000022 20
		endloop
	endfacet
	facet normal -0.8262387160163492 0.5633201435734876 -1.2508219872608697e-16
		outer loop
			vertex -1.9756272435188293 1.5278520703315717 2
			vertex -2.1650636196136475 1.2499999999999982 2
			vertex -2.1650636196136475 1.2500000000000022 20
		endloop
	endfacet
	facet normal -0.9009689189148561 0.43388363318912576 -9.634151991491663e-17
		outer loop
			vertex -2.1650636196136475 1.2499999999999982 2
			vertex -2.1650636196136475 1.2499999999999978 0
			vertex -2.1812757015228272 1.2163352549076063 2
		endloop
	endfacet
	facet normal -0.9009689189148571 0.4338836331891233 -9.634151991491609e-17
		outer loop
			vertex -2.1812757015228272 1.2163352549076063 2
			vertex -2.1650636196136475 1.2499999999999978 0
			vertex -2.3271844387054443 0.9133525490760781 0
		endloop
	endfacet
	facet normal -0.9009689189148571 0.4338836331891233 -9.634151991491609e-17
		outer loop
			vertex -2.1812757015228272 1.2163352549076063 2
			vertex -2.3271844387054443 0.9133525490760781 0
			vertex -2.3271844387054443 0.9133525490760785 2
		endloop
	endfacet
	facet normal -0.9009689189148561 0.43388363318912543 -3.443969233128775e-17
		outer loop
			vertex -2.1650636196136475 1.2500000000000022 20
			vertex -2.1650636196136475 1.2499999999999982 2
			vertex -2.1812757015228272 1.2163352549076063 2
		endloop
	endfacet
	facet normal -0.9009689189148561 0.43388363318912543 -3.443969233128775e-17
		outer loop
			vertex -2.1650636196136475 1.2500000000000022 20
			vertex -2.1812757015228272 1.2163352549076063 2
			vertex -2.3271844387054443 0.9133525490760825 20
		endloop
	endfacet
	facet normal -0.9009689189148573 0.4338836331891231 -9.634151991491604e-17
		outer loop
			vertex -2.1812757015228272 1.2163352549076063 2
			vertex -2.3271844387054443 0.9133525490760785 2
			vertex -2.3271844387054443 0.9133525490760825 20
		endloop
	endfacet
	facet normal -0.955572878391393 0.29475493903035455 -6.544874398669677e-17
		outer loop
			vertex -2.3271844387054443 0.9133525490760785 2
			vertex -2.3271844387054443 0.9133525490760781 0
			vertex -2.3381979703903197 0.8776475250720961 2
		endloop
	endfacet
	facet normal -0.9555728783913927 0.2947549390303561 -6.544874398669711e-17
		outer loop
			vertex -2.3381979703903197 0.877647525072096 2
			vertex -2.3271844387054443 0.9133525490760781 0
			vertex -2.437319755554199 0.5563023090362527 0
		endloop
	endfacet
	facet normal -0.9555728783913927 0.2947549390303561 -6.544874398669711e-17
		outer loop
			vertex -2.3381979703903197 0.877647525072096 2
			vertex -2.437319755554199 0.5563023090362527 0
			vertex -2.437319755554199 0.5563023090362531 2
		endloop
	endfacet
	facet normal -0.955572878391393 0.29475493903035455 -9.639965825144915e-17
		outer loop
			vertex -2.3271844387054443 0.9133525490760825 20
			vertex -2.3271844387054443 0.9133525490760785 2
			vertex -2.3381979703903197 0.8776475250720961 2
		endloop
	endfacet
	facet normal -0.955572878391393 0.29475493903035455 -9.639965825144915e-17
		outer loop
			vertex -2.3271844387054443 0.9133525490760825 20
			vertex -2.3381979703903197 0.8776475250720961 2
			vertex -2.437319755554199 0.5563023090362571 20
		endloop
	endfacet
	facet normal -0.9555728783913925 0.29475493903035627 -6.544874398669715e-17
		outer loop
			vertex -2.3381979703903197 0.877647525072096 2
			vertex -2.437319755554199 0.5563023090362531 2
			vertex -2.437319755554199 0.5563023090362571 20
		endloop
	endfacet
	facet normal -0.988830785750844 0.14904253470525994 -3.309409073565471e-17
		outer loop
			vertex -2.437319755554199 0.5563023090362531 2
			vertex -2.437319755554199 0.5563023090362527 0
			vertex -2.4428887367248535 0.5193546012043935 2
		endloop
	endfacet
	facet normal -0.9888307857508439 0.1490425347052601 -3.309409073565475e-17
		outer loop
			vertex -2.4428887367248535 0.5193546012043935 2
			vertex -2.437319755554199 0.5563023090362527 0
			vertex -2.493009567260742 0.18682523071765678 0
		endloop
	endfacet
	facet normal -0.9888307857508439 0.1490425347052601 -3.309409073565475e-17
		outer loop
			vertex -2.4428887367248535 0.5193546012043935 2
			vertex -2.493009567260742 0.18682523071765678 0
			vertex -2.493009567260742 0.18682523071765722 2
		endloop
	endfacet
	facet normal -0.988830785750844 0.14904253470526002 -3.825257636145e-17
		outer loop
			vertex -2.437319755554199 0.5563023090362571 20
			vertex -2.437319755554199 0.5563023090362531 2
			vertex -2.4428887367248535 0.5193546012043935 2
		endloop
	endfacet
	facet normal -0.988830785750844 0.14904253470526002 -3.825257636145e-17
		outer loop
			vertex -2.437319755554199 0.5563023090362571 20
			vertex -2.4428887367248535 0.5193546012043935 2
			vertex -2.493009567260742 0.18682523071766122 20
		endloop
	endfacet
	facet normal -0.9888307857508439 0.1490425347052601 -3.309409073565475e-17
		outer loop
			vertex -2.4428887367248535 0.5193546012043935 2
			vertex -2.493009567260742 0.18682523071765722 2
			vertex -2.493009567260742 0.18682523071766122 20
		endloop
	endfacet
	facet normal -1 0 0
		outer loop
			vertex -2.493009567260742 0.18682523071765722 2
			vertex -2.493009567260742 0.18682523071765678 0
			vertex -2.493009567260742 0.1494601845741254 2
		endloop
	endfacet
	facet normal -1 0 0
		outer loop
			vertex -2.493009567260742 0.1494601845741254 2
			vertex -2.493009567260742 0.18682523071765678 0
			vertex -2.493009567260742 -0.18682523071766122 0
		endloop
	endfacet
	facet normal -1 0 0
		outer loop
			vertex -2.493009567260742 0.1494601845741254 2
			vertex -2.493009567260742 -0.18682523071766122 0
			vertex -2.493009567260742 -0.18682523071766077 2
		endloop
	endfacet
	facet normal -1 0 0
		outer loop
			vertex -2.493009567260742 0.18682523071766122 20
			vertex -2.493009567260742 0.18682523071765722 2
			vertex -2.493009567260742 0.1494601845741254 2
		endloop
	endfacet
	facet normal -1 0 0
		outer loop
			vertex -2.493009567260742 0.18682523071766122 20
			vertex -2.493009567260742 0.1494601845741254 2
			vertex -2.493009567260742 -0.18682523071765678 20
		endloop
	endfacet
	facet normal -1 0 0
		outer loop
			vertex -2.493009567260742 0.1494601845741254 2
			vertex -2.493009567260742 -0.18682523071766077 2
			vertex -2.493009567260742 -0.18682523071765678 20
		endloop
	endfacet
	facet normal -0.988830785750844 -0.14904253470526016 3.309409073565476e-17
		outer loop
			vertex -2.493009567260742 -0.18682523071766077 2
			vertex -2.493009567260742 -0.18682523071766122 0
			vertex -2.487440586090088 -0.22377293854952035 2
		endloop
	endfacet
	facet normal -0.9888307857508439 -0.1490425347052601 3.309409073565475e-17
		outer loop
			vertex -2.487440586090088 -0.22377293854952035 2
			vertex -2.493009567260742 -0.18682523071766122 0
			vertex -2.437319755554199 -0.5563023090362571 0
		endloop
	endfacet
	facet normal -0.9888307857508439 -0.1490425347052601 3.309409073565475e-17
		outer loop
			vertex -2.487440586090088 -0.22377293854952035 2
			vertex -2.437319755554199 -0.5563023090362571 0
			vertex -2.437319755554199 -0.5563023090362567 2
		endloop
	endfacet
	facet normal -0.988830785750844 -0.14904253470526022 3.309409073565477e-17
		outer loop
			vertex -2.493009567260742 -0.18682523071765678 20
			vertex -2.493009567260742 -0.18682523071766077 2
			vertex -2.487440586090088 -0.22377293854952035 2
		endloop
	endfacet
	facet normal -0.988830785750844 -0.14904253470526022 3.309409073565477e-17
		outer loop
			vertex -2.493009567260742 -0.18682523071765678 20
			vertex -2.487440586090088 -0.22377293854952035 2
			vertex -2.437319755554199 -0.5563023090362527 20
		endloop
	endfacet
	facet normal -0.9888307857508439 -0.14904253470526008 3.309409073565474e-17
		outer loop
			vertex -2.487440586090088 -0.22377293854952035 2
			vertex -2.437319755554199 -0.5563023090362567 2
			vertex -2.437319755554199 -0.5563023090362527 20
		endloop
	endfacet
	facet normal -0.955572878391393 -0.29475493903035455 6.544874398669677e-17
		outer loop
			vertex -2.437319755554199 -0.5563023090362567 2
			vertex -2.437319755554199 -0.5563023090362571 0
			vertex -2.426306223869324 -0.5920073330402391 2
		endloop
	endfacet
	facet normal -0.9555728783913927 -0.2947549390303561 6.544874398669711e-17
		outer loop
			vertex -2.426306223869324 -0.5920073330402392 2
			vertex -2.437319755554199 -0.5563023090362571 0
			vertex -2.3271844387054443 -0.9133525490760825 0
		endloop
	endfacet
	facet normal -0.9555728783913927 -0.2947549390303561 6.544874398669711e-17
		outer loop
			vertex -2.426306223869324 -0.5920073330402392 2
			vertex -2.3271844387054443 -0.9133525490760825 0
			vertex -2.3271844387054443 -0.9133525490760821 2
		endloop
	endfacet
	facet normal -0.955572878391393 -0.29475493903035455 9.639965825144915e-17
		outer loop
			vertex -2.437319755554199 -0.5563023090362527 20
			vertex -2.437319755554199 -0.5563023090362567 2
			vertex -2.426306223869324 -0.5920073330402391 2
		endloop
	endfacet
	facet normal -0.955572878391393 -0.29475493903035455 9.639965825144915e-17
		outer loop
			vertex -2.437319755554199 -0.5563023090362527 20
			vertex -2.426306223869324 -0.5920073330402391 2
			vertex -2.3271844387054443 -0.9133525490760781 20
		endloop
	endfacet
	facet normal -0.9555728783913925 -0.29475493903035627 6.544874398669715e-17
		outer loop
			vertex -2.426306223869324 -0.5920073330402392 2
			vertex -2.3271844387054443 -0.9133525490760821 2
			vertex -2.3271844387054443 -0.9133525490760781 20
		endloop
	endfacet
	facet normal -0.9009689189148561 -0.43388363318912576 9.634151991491663e-17
		outer loop
			vertex -2.3271844387054443 -0.9133525490760821 2
			vertex -2.3271844387054443 -0.9133525490760825 0
			vertex -2.3109723567962646 -0.947017294168474 2
		endloop
	endfacet
	facet normal -0.9009689189148571 -0.4338836331891233 9.634151991491609e-17
		outer loop
			vertex -2.3109723567962646 -0.947017294168474 2
			vertex -2.3271844387054443 -0.9133525490760825 0
			vertex -2.1650636196136475 -1.2500000000000022 0
		endloop
	endfacet
	facet normal -0.9009689189148571 -0.4338836331891233 9.634151991491609e-17
		outer loop
			vertex -2.3109723567962646 -0.947017294168474 2
			vertex -2.1650636196136475 -1.2500000000000022 0
			vertex -2.1650636196136475 -1.2500000000000018 2
		endloop
	endfacet
	facet normal -0.9009689189148561 -0.43388363318912543 3.443969233128775e-17
		outer loop
			vertex -2.3271844387054443 -0.9133525490760781 20
			vertex -2.3271844387054443 -0.9133525490760821 2
			vertex -2.3109723567962646 -0.947017294168474 2
		endloop
	endfacet
	facet normal -0.9009689189148561 -0.43388363318912543 3.443969233128775e-17
		outer loop
			vertex -2.3271844387054443 -0.9133525490760781 20
			vertex -2.3109723567962646 -0.947017294168474 2
			vertex -2.1650636196136475 -1.2499999999999978 20
		endloop
	endfacet
	facet normal -0.9009689189148573 -0.4338836331891231 9.634151991491604e-17
		outer loop
			vertex -2.3109723567962646 -0.947017294168474 2
			vertex -2.1650636196136475 -1.2500000000000018 2
			vertex -2.1650636196136475 -1.2499999999999978 20
		endloop
	endfacet
	facet normal -0.8262387160163497 -0.563320143573487 1.2508219872608684e-16
		outer loop
			vertex -2.1650636196136475 -1.2500000000000018 2
			vertex -2.1650636196136475 -1.2500000000000022 0
			vertex -2.14401513338089 -1.2808724522590655 2
		endloop
	endfacet
	facet normal -0.8262387160163494 -0.5633201435734877 1.25082198726087e-16
		outer loop
			vertex -2.14401513338089 -1.2808724522590655 2
			vertex -2.1650636196136475 -1.2500000000000022 0
			vertex -1.9545787572860718 -1.5587245225906394 0
		endloop
	endfacet
	facet normal -0.8262387160163494 -0.5633201435734877 1.25082198726087e-16
		outer loop
			vertex -2.14401513338089 -1.2808724522590655 2
			vertex -1.9545787572860718 -1.5587245225906394 0
			vertex -1.9545787572860718 -1.558724522590639 2
		endloop
	endfacet
	facet normal -0.8262387160163496 -0.5633201435734874 1.3539916844111606e-16
		outer loop
			vertex -2.1650636196136475 -1.2499999999999978 20
			vertex -2.1650636196136475 -1.2500000000000018 2
			vertex -2.14401513338089 -1.2808724522590655 2
		endloop
	endfacet
	facet normal -0.8262387160163496 -0.5633201435734874 1.3539916844111606e-16
		outer loop
			vertex -2.1650636196136475 -1.2499999999999978 20
			vertex -2.14401513338089 -1.2808724522590655 2
			vertex -1.9545787572860718 -1.558724522590635 20
		endloop
	endfacet
	facet normal -0.8262387160163492 -0.5633201435734876 1.2508219872608697e-16
		outer loop
			vertex -2.14401513338089 -1.2808724522590655 2
			vertex -1.9545787572860718 -1.558724522590639 2
			vertex -1.9545787572860718 -1.558724522590635 20
		endloop
	endfacet
	facet normal -0.7330517550963412 -0.6801728635796741 1.5102871477427595e-16
		outer loop
			vertex -1.9545787572860718 -1.558724522590639 2
			vertex -1.9545787572860718 -1.5587245225906394 0
			vertex -1.9291640639305114 -1.5861150383949298 2
		endloop
	endfacet
	facet normal -0.7330517550963407 -0.6801728635796745 1.5102871477427605e-16
		outer loop
			vertex -1.9291640639305114 -1.5861150383949298 2
			vertex -1.9545787572860718 -1.5587245225906394 0
			vertex -1.7004318237304688 -1.8326296806335471 0
		endloop
	endfacet
	facet normal -0.7330517550963407 -0.6801728635796745 1.5102871477427605e-16
		outer loop
			vertex -1.9291640639305114 -1.5861150383949298 2
			vertex -1.7004318237304688 -1.8326296806335471 0
			vertex -1.7004318237304688 -1.8326296806335467 2
		endloop
	endfacet
	facet normal -0.7330517550963416 -0.6801728635796738 1.6219473766921615e-16
		outer loop
			vertex -1.8234942255936504 -1.699999999999997 20
			vertex -1.9545787572860718 -1.558724522590635 20
			vertex -1.9545787572860718 -1.558724522590639 2
		endloop
	endfacet
	facet normal -0.7330517550963416 -0.6801728635796738 1.6219473766921615e-16
		outer loop
			vertex -1.8234942255936504 -1.699999999999997 20
			vertex -1.9545787572860718 -1.558724522590639 2
			vertex -1.9291640639305114 -1.5861150383949298 2
		endloop
	endfacet
	facet normal -0.7330517550963416 -0.6801728635796738 1.6219473766921615e-16
		outer loop
			vertex -1.8234942255936504 -1.699999999999997 20
			vertex -1.9291640639305114 -1.5861150383949298 2
			vertex -1.8234942255936504 -1.6999999999999993 10.315649286694411
		endloop
	endfacet
	facet normal -0.7330517550963407 -0.6801728635796745 1.5102871477427605e-16
		outer loop
			vertex -1.8234942255936504 -1.6999999999999993 10.315649286694411
			vertex -1.9291640639305114 -1.5861150383949298 2
			vertex -1.8234942255936504 -1.700000000000001 2
		endloop
	endfacet
	facet normal -0.6234896570823633 -0.7818315979233106 1.7360148827878743e-16
		outer loop
			vertex -1.7004318237304688 -1.8326296806335467 2
			vertex -1.7004318237304688 -1.8326296806335471 0
			vertex -1.6712186574935912 -1.8559263944625872 2
		endloop
	endfacet
	facet normal -0.6234896570823644 -0.7818315979233097 1.7360148827878723e-16
		outer loop
			vertex -1.6712186574935912 -1.8559263944625872 2
			vertex -1.7004318237304688 -1.8326296806335471 0
			vertex -1.4083001613616943 -2.0655968189239524 0
		endloop
	endfacet
	facet normal -0.6234896570823644 -0.7818315979233097 1.7360148827878723e-16
		outer loop
			vertex -1.6712186574935912 -1.8559263944625872 2
			vertex -1.4083001613616943 -2.0655968189239524 0
			vertex -1.4083001613616943 -2.065596818923952 2.000000000000001
		endloop
	endfacet
	facet normal -0.50000013176922 -0.8660253277074308 1.9229625174586724e-16
		outer loop
			vertex -1.4083001613616943 -2.065596818923952 2.000000000000001
			vertex -1.4083001613616943 -2.0655968189239524 0
			vertex -1.3759410858154297 -2.084279346466066 2.000000000000001
		endloop
	endfacet
	facet normal -0.5000001317692231 -0.8660253277074289 1.9229625174586682e-16
		outer loop
			vertex -1.3759410858154297 -2.084279346466066 2.000000000000001
			vertex -1.4083001613616943 -2.0655968189239524 0
			vertex -1.0847094058990479 -2.252422094345095 0
		endloop
	endfacet
	facet normal -0.5000001317692231 -0.8660253277074289 1.9229625174586682e-16
		outer loop
			vertex -1.3759410858154297 -2.084279346466066 2.000000000000001
			vertex -1.0847094058990479 -2.252422094345095 0
			vertex -1.0847094058990479 -2.2524220943450945 2.000000000000001
		endloop
	endfacet
	facet normal -0.36534108503598683 -0.9308737248331418 2.0669548846566727e-16
		outer loop
			vertex -1.0847094058990479 -2.2524220943450945 2.000000000000001
			vertex -1.0847094058990479 -2.252422094345095 0
			vertex -1.049927258491516 -2.2660730838775653 2.000000000000001
		endloop
	endfacet
	facet normal -0.3653410850359856 -0.9308737248331423 2.066954884656674e-16
		outer loop
			vertex -1.049927258491516 -2.2660730838775653 2.000000000000001
			vertex -1.0847094058990479 -2.252422094345095 0
			vertex -0.7368879318237305 -2.388931989669802 0
		endloop
	endfacet
	facet normal -0.3653410850359856 -0.9308737248331423 2.066954884656674e-16
		outer loop
			vertex -1.049927258491516 -2.2660730838775653 2.000000000000001
			vertex -0.7368879318237305 -2.388931989669802 0
			vertex -0.7368879318237305 -2.3889319896698016 2.000000000000001
		endloop
	endfacet
	facet normal -0.22252115859345417 -0.9749278609098353 2.1647747170613025e-16
		outer loop
			vertex -0.7368879318237305 -2.3889319896698016 2.000000000000001
			vertex -0.7368879318237305 -2.388931989669802 0
			vertex -0.7004597038030624 -2.3972465038299577 2.000000000000001
		endloop
	endfacet
	facet normal -0.22252115859345642 -0.9749278609098346 2.164774717061301e-16
		outer loop
			vertex -0.7004597038030624 -2.3972465038299577 2.000000000000001
			vertex -0.7368879318237305 -2.388931989669802 0
			vertex -0.37260565161705017 -2.4720771312713645 0
		endloop
	endfacet
	facet normal -0.22252115859345642 -0.9749278609098346 2.164774717061301e-16
		outer loop
			vertex -0.7004597038030624 -2.3972465038299577 2.000000000000001
			vertex -0.37260565161705017 -2.4720771312713645 0
			vertex -0.37260565161705017 -2.472077131271364 2.000000000000001
		endloop
	endfacet
	facet normal -0.07472992146980079 -0.997203810079523 2.2142372603884363e-16
		outer loop
			vertex -0.37260565161705017 -2.472077131271364 2.000000000000001
			vertex -0.37260565161705017 -2.4720771312713645 0
			vertex -0.33534508645534516 -2.4748694181442277 2.000000000000001
		endloop
	endfacet
	facet normal -0.0747299214698055 -0.9972038100795226 2.2142372603884356e-16
		outer loop
			vertex -0.33534508645534516 -2.4748694181442277 2.000000000000001
			vertex -0.37260565161705017 -2.4720771312713645 0
			vertex 0 -2.500000000000002 0
		endloop
	endfacet
	facet normal -0.0747299214698055 -0.9972038100795226 2.2142372603884356e-16
		outer loop
			vertex -0.33534508645534516 -2.4748694181442277 2.000000000000001
			vertex 0 -2.500000000000002 0
			vertex 0 -2.5000000000000018 2.000000000000001
		endloop
	endfacet
	facet normal 0 2.220446049250313e-16 1
		outer loop
			vertex 0 -1.699999999999997 20
			vertex 0.2562337557094018 -1.6999999999999973 20
			vertex 0 2.220446049250313e-15 20
		endloop
	endfacet
	facet normal 0 2.220446049250313e-16 1
		outer loop
			vertex 0.25623375570940177 -1.699999999999997 20
			vertex 0.5243805556279113 -1.6999999999999973 20
			vertex 0 2.220446049250313e-15 20
		endloop
	endfacet
	facet normal 0 2.220446049250313e-16 1
		outer loop
			vertex 0.5243805556279113 -1.699999999999997 20
			vertex 0.8186769232365118 -1.699999999999997 20
			vertex 0 2.220446049250313e-15 20
		endloop
	endfacet
	facet normal 0 2.220446049250313e-16 1
		outer loop
			vertex 0.8186769232365118 -1.699999999999997 20
			vertex 1.1590404537716439 -1.699999999999997 20
			vertex 0 2.220446049250313e-15 20
		endloop
	endfacet
	facet normal 0 2.220446049250313e-16 1
		outer loop
			vertex 1.1590404537716439 -1.699999999999997 20
			vertex 1.5773694657954362 -1.699999999999997 20
			vertex 0 2.220446049250313e-15 20
		endloop
	endfacet
	facet normal 0 2.220446049250313e-16 1
		outer loop
			vertex 1.5773694657954362 -1.699999999999997 20
			vertex 1.8234942255936504 -1.699999999999997 20
			vertex 1.9545787572860718 -1.558724522590635 20
		endloop
	endfacet
	facet normal 0 2.220446049250313e-16 1
		outer loop
			vertex 1.5773694657954362 -1.699999999999997 20
			vertex 1.9545787572860718 -1.558724522590635 20
			vertex 0 2.220446049250313e-15 20
		endloop
	endfacet
	facet normal 0 2.220446049250313e-16 1
		outer loop
			vertex 1.9545787572860718 -1.558724522590635 20
			vertex 2.1650636196136475 -1.2499999999999978 20
			vertex 0 2.220446049250313e-15 20
		endloop
	endfacet
	facet normal 0 2.220446049250313e-16 1
		outer loop
			vertex 2.1650636196136475 -1.2499999999999978 20
			vertex 2.3271844387054443 -0.9133525490760781 20
			vertex 0 2.220446049250313e-15 20
		endloop
	endfacet
	facet normal 0 2.220446049250313e-16 1
		outer loop
			vertex 2.3271844387054443 -0.9133525490760781 20
			vertex 2.437319755554199 -0.5563023090362527 20
			vertex 0 2.220446049250313e-15 20
		endloop
	endfacet
	facet normal 0 2.220446049250313e-16 1
		outer loop
			vertex 2.437319755554199 -0.5563023090362527 20
			vertex 2.493009567260742 -0.18682523071765678 20
			vertex 0 2.220446049250313e-15 20
		endloop
	endfacet
	facet normal 0 2.220446049250313e-16 1
		outer loop
			vertex 2.493009567260742 -0.18682523071765678 20
			vertex 2.493009567260742 0.18682523071766122 20
			vertex 0 2.220446049250313e-15 20
		endloop
	endfacet
	facet normal 0 2.220446049250313e-16 1
		outer loop
			vertex 2.493009567260742 0.18682523071766122 20
			vertex 2.437319755554199 0.5563023090362571 20
			vertex 0 2.220446049250313e-15 20
		endloop
	endfacet
	facet normal 0 2.220446049250313e-16 1
		outer loop
			vertex 2.437319755554199 0.5563023090362571 20
			vertex 2.3271844387054443 0.9133525490760825 20
			vertex 0 2.220446049250313e-15 20
		endloop
	endfacet
	facet normal 0 2.220446049250313e-16 1
		outer loop
			vertex 2.3271844387054443 0.9133525490760825 20
			vertex 2.1650636196136475 1.2500000000000022 20
			vertex 0 2.220446049250313e-15 20
		endloop
	endfacet
	facet normal 0 2.220446049250313e-16 1
		outer loop
			vertex 2.1650636196136475 1.2500000000000022 20
			vertex 1.9545787572860718 1.5587245225906394 20
			vertex 0 2.220446049250313e-15 20
		endloop
	endfacet
	facet normal 0 2.220446049250313e-16 1
		outer loop
			vertex 1.9545787572860718 1.5587245225906394 20
			vertex 1.7004318237304688 1.8326296806335471 20
			vertex 0 2.220446049250313e-15 20
		endloop
	endfacet
	facet normal 0 2.220446049250313e-16 1
		outer loop
			vertex 1.7004318237304688 1.8326296806335471 20
			vertex 1.4083001613616943 2.0655968189239524 20
			vertex 0 2.220446049250313e-15 20
		endloop
	endfacet
	facet normal 0 2.220446049250313e-16 1
		outer loop
			vertex 1.4083001613616943 2.0655968189239524 20
			vertex 1.0847094058990479 2.252422094345095 20
			vertex 0 2.220446049250313e-15 20
		endloop
	endfacet
	facet normal 0 2.220446049250313e-16 1
		outer loop
			vertex 1.0847094058990479 2.252422094345095 20
			vertex 0.7368879318237305 2.388931989669802 20
			vertex 0 2.220446049250313e-15 20
		endloop
	endfacet
	facet normal 0 2.220446049250313e-16 1
		outer loop
			vertex 0.7368879318237305 2.388931989669802 20
			vertex 0.37260565161705017 2.4720771312713645 20
			vertex 0 2.220446049250313e-15 20
		endloop
	endfacet
	facet normal 0 2.220446049250313e-16 1
		outer loop
			vertex 0.37260565161705017 2.4720771312713645 20
			vertex 3.0616169991140216e-16 2.500000000000002 20
			vertex 0 2.220446049250313e-15 20
		endloop
	endfacet
	facet normal 0 2.220446049250313e-16 1
		outer loop
			vertex 3.0616169991140216e-16 2.500000000000002 20
			vertex -0.37260565161705017 2.4720771312713645 20
			vertex 0 2.220446049250313e-15 20
		endloop
	endfacet
	facet normal 0 2.220446049250313e-16 1
		outer loop
			vertex -0.37260565161705017 2.4720771312713645 20
			vertex -0.7368879318237305 2.388931989669802 20
			vertex 0 2.220446049250313e-15 20
		endloop
	endfacet
	facet normal 0 2.220446049250313e-16 1
		outer loop
			vertex -0.7368879318237305 2.388931989669802 20
			vertex -1.0847094058990479 2.252422094345095 20
			vertex 0 2.220446049250313e-15 20
		endloop
	endfacet
	facet normal 0 2.220446049250313e-16 1
		outer loop
			vertex -1.0847094058990479 2.252422094345095 20
			vertex -1.4083001613616943 2.0655968189239524 20
			vertex 0 2.220446049250313e-15 20
		endloop
	endfacet
	facet normal 0 2.220446049250313e-16 1
		outer loop
			vertex -1.4083001613616943 2.0655968189239524 20
			vertex -1.7004318237304688 1.8326296806335471 20
			vertex 0 2.220446049250313e-15 20
		endloop
	endfacet
	facet normal 0 2.220446049250313e-16 1
		outer loop
			vertex -1.7004318237304688 1.8326296806335471 20
			vertex -1.9545787572860718 1.5587245225906394 20
			vertex 0 2.220446049250313e-15 20
		endloop
	endfacet
	facet normal 0 2.220446049250313e-16 1
		outer loop
			vertex -1.9545787572860718 1.5587245225906394 20
			vertex -2.1650636196136475 1.2500000000000022 20
			vertex 0 2.220446049250313e-15 20
		endloop
	endfacet
	facet normal 0 2.220446049250313e-16 1
		outer loop
			vertex -2.1650636196136475 1.2500000000000022 20
			vertex -2.3271844387054443 0.9133525490760825 20
			vertex 0 2.220446049250313e-15 20
		endloop
	endfacet
	facet normal 0 2.220446049250313e-16 1
		outer loop
			vertex -2.3271844387054443 0.9133525490760825 20
			vertex -2.437319755554199 0.5563023090362571 20
			vertex 0 2.220446049250313e-15 20
		endloop
	endfacet
	facet normal 0 2.220446049250313e-16 1
		outer loop
			vertex -2.437319755554199 0.5563023090362571 20
			vertex -2.493009567260742 0.18682523071766122 20
			vertex 0 2.220446049250313e-15 20
		endloop
	endfacet
	facet normal 0 2.220446049250313e-16 1
		outer loop
			vertex -2.493009567260742 0.18682523071766122 20
			vertex -2.493009567260742 -0.18682523071765678 20
			vertex 0 2.220446049250313e-15 20
		endloop
	endfacet
	facet normal 0 2.220446049250313e-16 1
		outer loop
			vertex -2.493009567260742 -0.18682523071765678 20
			vertex -2.437319755554199 -0.5563023090362527 20
			vertex 0 2.220446049250313e-15 20
		endloop
	endfacet
	facet normal 0 2.220446049250313e-16 1
		outer loop
			vertex -2.437319755554199 -0.5563023090362527 20
			vertex -2.3271844387054443 -0.9133525490760781 20
			vertex 0 2.220446049250313e-15 20
		endloop
	endfacet
	facet normal 0 2.220446049250313e-16 1
		outer loop
			vertex -2.3271844387054443 -0.9133525490760781 20
			vertex -2.1650636196136475 -1.2499999999999978 20
			vertex 0 2.220446049250313e-15 20
		endloop
	endfacet
	facet normal 0 2.220446049250313e-16 1
		outer loop
			vertex -2.1650636196136475 -1.2499999999999978 20
			vertex -1.9545787572860718 -1.558724522590635 20
			vertex 0 2.220446049250313e-15 20
		endloop
	endfacet
	facet normal 0 2.220446049250313e-16 1
		outer loop
			vertex -1.9545787572860718 -1.558724522590635 20
			vertex -1.8234942255936504 -1.699999999999997 20
			vertex -1.5773694657954362 -1.699999999999997 20
		endloop
	endfacet
	facet normal 0 2.220446049250313e-16 1
		outer loop
			vertex -1.9545787572860718 -1.558724522590635 20
			vertex -1.5773694657954362 -1.699999999999997 20
			vertex 0 2.220446049250313e-15 20
		endloop
	endfacet
	facet normal 0 2.220446049250313e-16 1
		outer loop
			vertex -1.5773694657954362 -1.699999999999997 20
			vertex -1.1590404537716439 -1.699999999999997 20
			vertex 0 2.220446049250313e-15 20
		endloop
	endfacet
	facet normal 0 2.220446049250313e-16 1
		outer loop
			vertex -1.1590404537716439 -1.699999999999997 20
			vertex -0.8186769232365118 -1.699999999999997 20
			vertex 0 2.220446049250313e-15 20
		endloop
	endfacet
	facet normal 0 2.220446049250313e-16 1
		outer loop
			vertex -0.8186769232365118 -1.699999999999997 20
			vertex -0.5243805556279113 -1.6999999999999973 20
			vertex 0 2.220446049250313e-15 20
		endloop
	endfacet
	facet normal 0 2.220446049250313e-16 1
		outer loop
			vertex -0.5243805556279113 -1.699999999999997 20
			vertex -0.2562337557094018 -1.6999999999999973 20
			vertex 0 2.220446049250313e-15 20
		endloop
	endfacet
	facet normal 0 2.220446049250313e-16 1
		outer loop
			vertex -0.25623375570940177 -1.699999999999997 20
			vertex 0 -1.699999999999997 20
			vertex 0 2.220446049250313e-15 20
		endloop
	endfacet
	facet normal 0 -2.220446049250313e-16 -1
		outer loop
			vertex 0.37260565161705017 -2.4720771312713645 0
			vertex 0 -2.500000000000002 0
			vertex 0 -2.220446049250313e-15 0
		endloop
	endfacet
	facet normal 0 -2.220446049250313e-16 -1
		outer loop
			vertex 0.7368879318237305 -2.388931989669802 0
			vertex 0.37260565161705017 -2.4720771312713645 0
			vertex 0 -2.220446049250313e-15 0
		endloop
	endfacet
	facet normal 0 -2.220446049250313e-16 -1
		outer loop
			vertex 1.0847094058990479 -2.252422094345095 0
			vertex 0.7368879318237305 -2.388931989669802 0
			vertex 0 -2.220446049250313e-15 0
		endloop
	endfacet
	facet normal 0 -2.220446049250313e-16 -1
		outer loop
			vertex 1.4083001613616943 -2.0655968189239524 0
			vertex 1.0847094058990479 -2.252422094345095 0
			vertex 0 -2.220446049250313e-15 0
		endloop
	endfacet
	facet normal 0 -2.220446049250313e-16 -1
		outer loop
			vertex 1.7004318237304688 -1.8326296806335471 0
			vertex 1.4083001613616943 -2.0655968189239524 0
			vertex 0 -2.220446049250313e-15 0
		endloop
	endfacet
	facet normal 0 -2.220446049250313e-16 -1
		outer loop
			vertex 1.9545787572860718 -1.5587245225906394 0
			vertex 1.7004318237304688 -1.8326296806335471 0
			vertex 0 -2.220446049250313e-15 0
		endloop
	endfacet
	facet normal 0 -2.220446049250313e-16 -1
		outer loop
			vertex 2.1650636196136475 -1.2500000000000022 0
			vertex 1.9545787572860718 -1.5587245225906394 0
			vertex 0 -2.220446049250313e-15 0
		endloop
	endfacet
	facet normal 0 -2.220446049250313e-16 -1
		outer loop
			vertex 2.3271844387054443 -0.9133525490760825 0
			vertex 2.1650636196136475 -1.2500000000000022 0
			vertex 0 -2.220446049250313e-15 0
		endloop
	endfacet
	facet normal 0 -2.220446049250313e-16 -1
		outer loop
			vertex 2.437319755554199 -0.5563023090362571 0
			vertex 2.3271844387054443 -0.9133525490760825 0
			vertex 0 -2.220446049250313e-15 0
		endloop
	endfacet
	facet normal 0 -2.220446049250313e-16 -1
		outer loop
			vertex 2.493009567260742 -0.18682523071766122 0
			vertex 2.437319755554199 -0.5563023090362571 0
			vertex 0 -2.220446049250313e-15 0
		endloop
	endfacet
	facet normal 0 -2.220446049250313e-16 -1
		outer loop
			vertex 2.493009567260742 0.18682523071765678 0
			vertex 2.493009567260742 -0.18682523071766122 0
			vertex 0 -2.220446049250313e-15 0
		endloop
	endfacet
	facet normal 0 -2.220446049250313e-16 -1
		outer loop
			vertex 2.437319755554199 0.5563023090362527 0
			vertex 2.493009567260742 0.18682523071765678 0
			vertex 0 -2.220446049250313e-15 0
		endloop
	endfacet
	facet normal 0 -2.220446049250313e-16 -1
		outer loop
			vertex 2.3271844387054443 0.9133525490760781 0
			vertex 2.437319755554199 0.5563023090362527 0
			vertex 0 -2.220446049250313e-15 0
		endloop
	endfacet
	facet normal 0 -2.220446049250313e-16 -1
		outer loop
			vertex 2.1650636196136475 1.2499999999999978 0
			vertex 2.3271844387054443 0.9133525490760781 0
			vertex 0 -2.220446049250313e-15 0
		endloop
	endfacet
	facet normal 0 -2.220446049250313e-16 -1
		outer loop
			vertex 1.9545787572860718 1.558724522590635 0
			vertex 2.1650636196136475 1.2499999999999978 0
			vertex 0 -2.220446049250313e-15 0
		endloop
	endfacet
	facet normal 0 -2.220446049250313e-16 -1
		outer loop
			vertex 1.7004318237304688 1.8326296806335427 0
			vertex 1.9545787572860718 1.558724522590635 0
			vertex 0 -2.220446049250313e-15 0
		endloop
	endfacet
	facet normal 0 -2.220446049250313e-16 -1
		outer loop
			vertex 1.4083001613616943 2.065596818923948 0
			vertex 1.7004318237304688 1.8326296806335427 0
			vertex 0 -2.220446049250313e-15 0
		endloop
	endfacet
	facet normal 0 -2.220446049250313e-16 -1
		outer loop
			vertex 1.0847094058990479 2.2524220943450906 0
			vertex 1.4083001613616943 2.065596818923948 0
			vertex 0 -2.220446049250313e-15 0
		endloop
	endfacet
	facet normal 0 -2.220446049250313e-16 -1
		outer loop
			vertex 0.7368879318237305 2.3889319896697976 0
			vertex 1.0847094058990479 2.2524220943450906 0
			vertex 0 -2.220446049250313e-15 0
		endloop
	endfacet
	facet normal 0 -2.220446049250313e-16 -1
		outer loop
			vertex 0.37260565161705017 2.47207713127136 0
			vertex 0.7368879318237305 2.3889319896697976 0
			vertex 0 -2.220446049250313e-15 0
		endloop
	endfacet
	facet normal 0 -2.220446049250313e-16 -1
		outer loop
			vertex 3.0616169991140216e-16 2.499999999999998 0
			vertex 0.37260565161705017 2.47207713127136 0
			vertex 0 -2.220446049250313e-15 0
		endloop
	endfacet
	facet normal 0 -2.220446049250313e-16 -1
		outer loop
			vertex -0.37260565161705017 2.47207713127136 0
			vertex 3.0616169991140216e-16 2.499999999999998 0
			vertex 0 -2.220446049250313e-15 0
		endloop
	endfacet
	facet normal 0 -2.220446049250313e-16 -1
		outer loop
			vertex -0.7368879318237305 2.3889319896697976 0
			vertex -0.37260565161705017 2.47207713127136 0
			vertex 0 -2.220446049250313e-15 0
		endloop
	endfacet
	facet normal 0 -2.220446049250313e-16 -1
		outer loop
			vertex -1.0847094058990479 2.2524220943450906 0
			vertex -0.7368879318237305 2.3889319896697976 0
			vertex 0 -2.220446049250313e-15 0
		endloop
	endfacet
	facet normal 0 -2.220446049250313e-16 -1
		outer loop
			vertex -1.4083001613616943 2.065596818923948 0
			vertex -1.0847094058990479 2.2524220943450906 0
			vertex 0 -2.220446049250313e-15 0
		endloop
	endfacet
	facet normal 0 -2.220446049250313e-16 -1
		outer loop
			vertex -1.7004318237304688 1.8326296806335427 0
			vertex -1.4083001613616943 2.065596818923948 0
			vertex 0 -2.220446049250313e-15 0
		endloop
	endfacet
	facet normal 0 -2.220446049250313e-16 -1
		outer loop
			vertex -1.9545787572860718 1.558724522590635 0
			vertex -1.7004318237304688 1.8326296806335427 0
			vertex 0 -2.220446049250313e-15 0
		endloop
	endfacet
	facet normal 0 -2.220446049250313e-16 -1
		outer loop
			vertex -2.1650636196136475 1.2499999999999978 0
			vertex -1.9545787572860718 1.558724522590635 0
			vertex 0 -2.220446049250313e-15 0
		endloop
	endfacet
	facet normal 0 -2.220446049250313e-16 -1
		outer loop
			vertex -2.3271844387054443 0.9133525490760781 0
			vertex -2.1650636196136475 1.2499999999999978 0
			vertex 0 -2.220446049250313e-15 0
		endloop
	endfacet
	facet normal 0 -2.220446049250313e-16 -1
		outer loop
			vertex -2.437319755554199 0.5563023090362527 0
			vertex -2.3271844387054443 0.9133525490760781 0
			vertex 0 -2.220446049250313e-15 0
		endloop
	endfacet
	facet normal 0 -2.220446049250313e-16 -1
		outer loop
			vertex -2.493009567260742 0.18682523071765678 0
			vertex -2.437319755554199 0.5563023090362527 0
			vertex 0 -2.220446049250313e-15 0
		endloop
	endfacet
	facet normal 0 -2.220446049250313e-16 -1
		outer loop
			vertex -2.493009567260742 -0.18682523071766122 0
			vertex -2.493009567260742 0.18682523071765678 0
			vertex 0 -2.220446049250313e-15 0
		endloop
	endfacet
	facet normal 0 -2.220446049250313e-16 -1
		outer loop
			vertex -2.437319755554199 -0.5563023090362571 0
			vertex -2.493009567260742 -0.18682523071766122 0
			vertex 0 -2.220446049250313e-15 0
		endloop
	endfacet
	facet normal 0 -2.220446049250313e-16 -1
		outer loop
			vertex -2.3271844387054443 -0.9133525490760825 0
			vertex -2.437319755554199 -0.5563023090362571 0
			vertex 0 -2.220446049250313e-15 0
		endloop
	endfacet
	facet normal 0 -2.220446049250313e-16 -1
		outer loop
			vertex -2.1650636196136475 -1.2500000000000022 0
			vertex -2.3271844387054443 -0.9133525490760825 0
			vertex 0 -2.220446049250313e-15 0
		endloop
	endfacet
	facet normal 0 -2.220446049250313e-16 -1
		outer loop
			vertex -1.9545787572860718 -1.5587245225906394 0
			vertex -2.1650636196136475 -1.2500000000000022 0
			vertex 0 -2.220446049250313e-15 0
		endloop
	endfacet
	facet normal 0 -2.220446049250313e-16 -1
		outer loop
			vertex -1.7004318237304688 -1.8326296806335471 0
			vertex -1.9545787572860718 -1.5587245225906394 0
			vertex 0 -2.220446049250313e-15 0
		endloop
	endfacet
	facet normal 0 -2.220446049250313e-16 -1
		outer loop
			vertex -1.4083001613616943 -2.0655968189239524 0
			vertex -1.7004318237304688 -1.8326296806335471 0
			vertex 0 -2.220446049250313e-15 0
		endloop
	endfacet
	facet normal 0 -2.220446049250313e-16 -1
		outer loop
			vertex -1.0847094058990479 -2.252422094345095 0
			vertex -1.4083001613616943 -2.0655968189239524 0
			vertex 0 -2.220446049250313e-15 0
		endloop
	endfacet
	facet normal 0 -2.220446049250313e-16 -1
		outer loop
			vertex -0.7368879318237305 -2.388931989669802 0
			vertex -1.0847094058990479 -2.252422094345095 0
			vertex 0 -2.220446049250313e-15 0
		endloop
	endfacet
	facet normal 0 -2.220446049250313e-16 -1
		outer loop
			vertex -0.37260565161705017 -2.4720771312713645 0
			vertex -0.7368879318237305 -2.388931989669802 0
			vertex 0 -2.220446049250313e-15 0
		endloop
	endfacet
	facet normal 0 -2.220446049250313e-16 -1
		outer loop
			vertex 0 -2.500000000000002 0
			vertex -0.37260565161705017 -2.4720771312713645 0
			vertex 0 -2.220446049250313e-15 0
		endloop
	endfacet
	facet normal 0 2.220446049250313e-16 1
		outer loop
			vertex -1.7004318237304696 -1.8326296806335456 2
			vertex -1.4083001613616912 -2.065596818923954 2.000000000000001
			vertex -1.084709405899049 -2.252422094345094 2.000000000000001
		endloop
	endfacet
	facet normal 0 2.220446049250313e-16 1
		outer loop
			vertex -1.7004318237304696 -1.8326296806335456 2
			vertex -1.084709405899049 -2.252422094345094 2.000000000000001
			vertex -0.7368879318237338 -2.3889319896698002 2.000000000000001
		endloop
	endfacet
	facet normal 0 2.220446049250313e-16 1
		outer loop
			vertex -1.7004318237304696 -1.8326296806335456 2
			vertex -0.7368879318237338 -2.3889319896698002 2.000000000000001
			vertex -0.37260565161704706 -2.4720771312713645 2.000000000000001
		endloop
	endfacet
	facet normal 0 2.220446049250313e-16 1
		outer loop
			vertex -1.7004318237304696 -1.8326296806335456 2
			vertex -0.37260565161704706 -2.4720771312713645 2.000000000000001
			vertex -4.163336342344337e-15 -2.5000000000000018 2.000000000000001
		endloop
	endfacet
	facet normal 0 2.220446049250313e-16 1
		outer loop
			vertex -1.7004318237304696 -1.8326296806335456 2
			vertex -4.163336342344337e-15 -2.5000000000000018 2.000000000000001
			vertex 0.3726056516170573 -2.472077131271363 2.000000000000001
		endloop
	endfacet
	facet normal 0 2.220446049250313e-16 1
		outer loop
			vertex -1.7004318237304696 -1.8326296806335456 2
			vertex 0.3726056516170573 -2.472077131271363 2.000000000000001
			vertex 0.736887931823726 -2.3889319896698034 2.000000000000001
		endloop
	endfacet
	facet normal 0 2.220446049250313e-16 1
		outer loop
			vertex -1.7004318237304696 -1.8326296806335456 2
			vertex 0.736887931823726 -2.3889319896698034 2.000000000000001
			vertex 1.0847094058990454 -2.2524220943450954 2.000000000000001
		endloop
	endfacet
	facet normal 0 2.220446049250313e-16 1
		outer loop
			vertex -1.7004318237304696 -1.8326296806335456 2
			vertex 1.0847094058990454 -2.2524220943450954 2.000000000000001
			vertex 1.408300161361695 -2.065596818923951 2.000000000000001
		endloop
	endfacet
	facet normal 0 2.220446049250313e-16 1
		outer loop
			vertex -1.7004318237304696 -1.8326296806335456 2
			vertex 1.408300161361695 -2.065596818923951 2.000000000000001
			vertex 1.7004318237304745 -1.8326296806335405 2
		endloop
	endfacet
	facet normal 0 2.220446049250313e-16 1
		outer loop
			vertex -1.7004318237304696 -1.8326296806335456 2
			vertex 1.7004318237304745 -1.8326296806335405 2
			vertex 1.8234942255936524 -1.700000000000001 2
		endloop
	endfacet
	facet normal 0 2.220446049250313e-16 1
		outer loop
			vertex -1.7004318237304696 -1.8326296806335456 2
			vertex 1.8234942255936524 -1.700000000000001 2
			vertex -1.8234942255936502 -1.700000000000001 2
		endloop
	endfacet
	facet normal 0 -1 2.220446049250313e-16
		outer loop
			vertex 1.823494225593652 -1.699999999999997 20
			vertex -1.8234942255936502 -1.699999999999997 20
			vertex -1.82349422559365 -1.6999999999999984 13.823494225593649
		endloop
	endfacet
	facet normal 0 -1 2.220446049250313e-16
		outer loop
			vertex 1.823494225593652 -1.699999999999997 20
			vertex -1.82349422559365 -1.6999999999999984 13.823494225593649
			vertex 1.82349422559365 -1.6999999999999993 10.176505774406351
		endloop
	endfacet
	facet normal 0 -1 2.220446049250313e-16
		outer loop
			vertex 1.8234942255936524 -1.6999999999999993 10.176505774406348
			vertex -1.8234942255936502 -1.6999999999999984 13.823494225593649
			vertex -1.82349422559365 -1.700000000000001 2
		endloop
	endfacet
	facet normal 0 -1 2.220446049250313e-16
		outer loop
			vertex 1.8234942255936524 -1.6999999999999993 10.176505774406348
			vertex -1.82349422559365 -1.700000000000001 2
			vertex 1.82349422559365 -1.700000000000001 2
		endloop
	endfacet
endsolid exported
