<?xml version="1.0" standalone="no"?>
<!DOCTYPE svg PUBLIC "-//W3C//DTD SVG 1.0//EN" "http://www.w3.org/TR/2001/REC-SVG-20010904/DTD/svg10.dtd">
<svg xmlns="http://www.w3.org/2000/svg" xmlns:xlink="http://www.w3.org/1999/xlink" id="body_1" width="31" height="23">
    <g transform="matrix(0.09900053 0 0 0.09900053 4.000001 -0)">
        <g>
            <path d="M224.822 23.935L7.5 23.935C 3.3579998 23.935 0 27.292 0 31.435L0 31.435L0 200.886C 0 205.029 3.358 208.386 7.5 208.386L7.5 208.386L224.822 208.386C 228.964 208.386 232.322 205.029 232.322 200.886L232.322 200.886L232.322 31.435C 232.322 27.293 228.964 23.935 224.822 23.935zM217.322 38.936L217.322 182.02701L157.32701 118.22801C 155.91 116.72101 153.93301 115.86601 151.865 115.86601C 151.864 115.86601 151.864 115.86601 151.864 115.86601C 149.796 115.86601 147.81999 116.721016 146.402 118.22601L146.402 118.22601L120.78199 145.45302L86.43299 100.16202C 85.01499 98.292015 82.80399 97.194016 80.45699 97.194016C 80.454994 97.194016 80.452995 97.194016 80.451 97.194016C 78.102 97.196014 75.89 98.29801 74.474 100.17201L74.474 100.17201L15 178.861L15 38.936L217.322 38.936zM207.415 193.387L22.824 193.387L80.467 117.118L114.189 161.583C 115.523 163.342 117.563 164.42299 119.767006 164.54C 121.968 164.65 124.115005 163.79799 125.62701 162.18999L125.62701 162.18999L151.86101 134.31099L207.415 193.387z" stroke="none" fill="#000000" fill-rule="nonzero" />
            <path d="M155.237 101.682C 168.834 101.682 179.895 90.621 179.895 77.026C 179.895 63.429 168.834 52.368 155.237 52.368C 141.641 52.368 130.581 63.43 130.581 77.026C 130.581 90.621 141.642 101.682 155.237 101.682zM155.237 67.367C 160.563 67.367 164.895 71.7 164.895 77.024994C 164.895 82.34899 160.563 86.68099 155.237 86.68099C 149.912 86.68099 145.581 82.34899 145.581 77.024994C 145.581 71.7 149.913 67.367 155.237 67.367z" stroke="none" fill="#000000" fill-rule="nonzero" />
        </g>
    </g>
</svg>