solid exported
	facet normal 0.3083977161706012 -0.9491506239014564 -0.06327670826009689
		outer loop
			vertex 0 -41.999999999999986 73.00000000000001
			vertex 0 -32.000000000000014 -77
			vertex 24.686981201171875 -33.9787139892578 73.00000000000001
		endloop
	endfacet
	facet normal 0.30839772278019606 -0.9491506216832993 -0.06327670931864252
		outer loop
			vertex 0 -32.000000000000014 -77
			vertex 18.809127807617188 -25.88854408264162 -77
			vertex 24.686981201171875 -33.9787139892578 73.00000000000001
		endloop
	endfacet
	facet normal 0.8073957449484209 -0.5866073377611131 -0.06327671233561254
		outer loop
			vertex 26.71590241216537 -31.186143478899034 73
			vertex 24.686981201171875 -33.9787139892578 73.00000000000001
			vertex 18.809127807617188 -25.88854408264162 -77
		endloop
	endfacet
	facet normal 0.8073957449484209 -0.5866073377611131 -0.06327671233561254
		outer loop
			vertex 26.71590241216537 -31.186143478899034 73
			vertex 18.809127807617188 -25.88854408264162 -77
			vertex 21.619682952808606 -24.171800926814754 -57.05307029516967
		endloop
	endfacet
	facet normal 0.8073957169905678 -0.586607377031301 -0.06327670501649535
		outer loop
			vertex 21.619682952808606 -24.17180092681475 -57.05307029516967
			vertex 18.809127807617188 -25.88854408264162 -77
			vertex 20.838048993672825 -23.095973890253237 -77
		endloop
	endfacet
	facet normal 0.8073957449484213 -0.586607337761113 -0.06327671233561252
		outer loop
			vertex 26.71590241216537 -31.186143478899034 73
			vertex 21.619682952808606 -24.171800926814754 -57.05307029516967
			vertex 39.944374084472656 -12.978713989257797 73
		endloop
	endfacet
	facet normal 0.8073957169905674 -0.5866073770313012 -0.06327670501649535
		outer loop
			vertex 21.619682952808606 -24.17180092681475 -57.05307029516967
			vertex 20.838048993672825 -23.095973890253237 -77
			vertex 30.433809280395508 -9.88854408264162 -77
		endloop
	endfacet
	facet normal 0.8073957169905674 -0.5866073770313012 -0.06327670501649535
		outer loop
			vertex 21.619682952808606 -24.17180092681475 -57.05307029516967
			vertex 30.433809280395508 -9.88854408264162 -77
			vertex 39.944374084472656 -12.978713989257797 73
		endloop
	endfacet
	facet normal 0.9979960213010883 -6.883266199640418e-17 -0.06327670556530106
		outer loop
			vertex 39.944374084472656 -9.526905058641843 73
			vertex 39.944374084472656 -12.978713989257797 73
			vertex 30.433809280395508 -9.88854408264162 -77
		endloop
	endfacet
	facet normal 0.9979960213010883 -6.883266199640418e-17 -0.06327670556530106
		outer loop
			vertex 39.944374084472656 -9.526905058641843 73
			vertex 30.433809280395508 -9.88854408264162 -77
			vertex 31.698520165056827 -6.84766577712894 -57.05306345025153
		endloop
	endfacet
	facet normal 0.9979960213010882 -1.4050251088204813e-17 -0.0632767055653011
		outer loop
			vertex 31.698520165056827 -6.847665777128942 -57.05306345025154
			vertex 30.433809280395508 -9.88854408264162 -77
			vertex 30.433809280395508 -6.436736464645846 -77
		endloop
	endfacet
	facet normal 0.9979960213010882 -1.40502510882048e-17 -0.06327670556530104
		outer loop
			vertex 39.944374084472656 -9.526905058641843 73
			vertex 31.698520165056827 -6.84766577712894 -57.05306345025153
			vertex 39.944374084472656 12.978713989257828 73
		endloop
	endfacet
	facet normal 0.9979960213010882 -1.4050251088204803e-17 -0.06327670556530106
		outer loop
			vertex 31.698520165056827 -6.847665777128942 -57.05306345025154
			vertex 30.433809280395508 -6.436736464645846 -77
			vertex 30.433809280395508 9.888544082641584 -77
		endloop
	endfacet
	facet normal 0.9979960213010882 -1.4050251088204803e-17 -0.06327670556530106
		outer loop
			vertex 31.698520165056827 -6.847665777128942 -57.05306345025154
			vertex 30.433809280395508 9.888544082641584 -77
			vertex 39.944374084472656 12.978713989257828 73
		endloop
	endfacet
	facet normal 0.8073957452731191 0.5866073379970201 -0.06327670600556547
		outer loop
			vertex 37.91545171101888 15.771286099605925 73
			vertex 39.944374084472656 12.978713989257828 73
			vertex 30.433809280395508 9.888544082641584 -77
		endloop
	endfacet
	facet normal 0.8073957452731191 0.5866073379970201 -0.06327670600556547
		outer loop
			vertex 37.91545171101888 15.771286099605925 73
			vertex 30.433809280395508 9.888544082641584 -77
			vertex 29.6695988643747 13.09204321512899 -57.05307261277815
		endloop
	endfacet
	facet normal 0.8073957165644016 0.5866073767216728 -0.06327671332468242
		outer loop
			vertex 29.6695988643747 13.092043215128998 -57.053072612778124
			vertex 30.433809280395508 9.888544082641584 -77
			vertex 28.404888814290366 12.681113284103208 -77
		endloop
	endfacet
	facet normal 0.8073957452731192 0.58660733799702 -0.06327670600556547
		outer loop
			vertex 37.91545171101888 15.771286099605925 73
			vertex 29.6695988643747 13.09204321512899 -57.05307261277815
			vertex 24.686981201171875 33.97871398925783 72.99999999999999
		endloop
	endfacet
	facet normal 0.8073957165644011 0.5866073767216733 -0.06327671332468242
		outer loop
			vertex 29.6695988643747 13.092043215128998 -57.053072612778124
			vertex 28.404888814290366 12.681113284103208 -77
			vertex 18.809127807617188 25.888544082641584 -77
		endloop
	endfacet
	facet normal 0.8073957165644011 0.5866073767216733 -0.06327671332468242
		outer loop
			vertex 29.6695988643747 13.092043215128998 -57.053072612778124
			vertex 18.809127807617188 25.888544082641584 -77
			vertex 24.686981201171875 33.97871398925783 72.99999999999999
		endloop
	endfacet
	facet normal 0.30839771615266465 0.9491506238462512 -0.06327670917559619
		outer loop
			vertex 21.404117469395572 35.04538101963658 72.99999999999999
			vertex 24.686981201171875 33.97871398925783 72.99999999999999
			vertex 18.809127807617188 25.888544082641584 -77
		endloop
	endfacet
	facet normal 0.30839771615266465 0.9491506238462512 -0.06327670917559619
		outer loop
			vertex 21.404117469395572 35.04538101963658 72.99999999999999
			vertex 18.809127807617188 25.888544082641584 -77
			vertex 16.307900868299377 28.031036173944642 -57.053086738783726
		endloop
	endfacet
	facet normal 0.30839772280373884 0.9491506217557559 -0.0632767081170506
		outer loop
			vertex 16.30790086829938 28.03103617394464 -57.05308673878374
			vertex 18.809127807617188 25.888544082641584 -77
			vertex 15.526267796855663 26.955209929343035 -77
		endloop
	endfacet
	facet normal 0.30839771615266415 0.9491506238462513 -0.06327670917559615
		outer loop
			vertex 21.404117469395572 35.04538101963658 72.99999999999999
			vertex 16.307900868299377 28.031036173944642 -57.053086738783726
			vertex 5.143516516159909e-15 42.000000000000014 72.99999999999999
		endloop
	endfacet
	facet normal 0.3083977228037387 0.949150621755756 -0.06327670811705062
		outer loop
			vertex 16.30790086829938 28.03103617394464 -57.05308673878374
			vertex 15.526267796855663 26.955209929343035 -77
			vertex 3.918869928272537e-15 31.999999999999982 -77
		endloop
	endfacet
	facet normal 0.3083977228037387 0.949150621755756 -0.06327670811705062
		outer loop
			vertex 16.30790086829938 28.03103617394464 -57.05308673878374
			vertex 3.918869928272537e-15 31.999999999999982 -77
			vertex 5.143516516159909e-15 42.000000000000014 72.99999999999999
		endloop
	endfacet
	facet normal -0.30839771617060036 0.9491506239014568 -0.06327670826009732
		outer loop
			vertex -3.282862464556297 40.933333381365976 72.99999999999999
			vertex 5.143516516159909e-15 42.000000000000014 72.99999999999999
			vertex 3.918869928272537e-15 31.999999999999982 -77
		endloop
	endfacet
	facet normal -0.30839771617060036 0.9491506239014568 -0.06327670826009732
		outer loop
			vertex -3.282862464556297 40.933333381365976 72.99999999999999
			vertex 3.918869928272537e-15 31.999999999999982 -77
			vertex -3.2828620511286672 32.26312836763789 -57.05307722088251
		endloop
	endfacet
	facet normal -0.3083977227801958 0.9491506216832994 -0.06327670931864304
		outer loop
			vertex -3.282862051128671 32.26312836763789 -57.05307722088249
			vertex 3.918869928272537e-15 31.999999999999982 -77
			vertex -3.282861948703877 30.93333352362291 -77
		endloop
	endfacet
	facet normal -0.30839771617060113 0.9491506239014563 -0.06327670826009726
		outer loop
			vertex -3.282862464556297 40.933333381365976 72.99999999999999
			vertex -3.2828620511286672 32.26312836763789 -57.05307722088251
			vertex -24.686981201171875 33.97871398925783 72.99999999999999
		endloop
	endfacet
	facet normal -0.308397722780196 0.9491506216832992 -0.06327670931864293
		outer loop
			vertex -3.282862051128671 32.26312836763789 -57.05307722088249
			vertex -3.282861948703877 30.93333352362291 -77
			vertex -18.809127807617188 25.888544082641584 -77
		endloop
	endfacet
	facet normal -0.308397722780196 0.9491506216832992 -0.06327670931864293
		outer loop
			vertex -3.282862051128671 32.26312836763789 -57.05307722088249
			vertex -18.809127807617188 25.888544082641584 -77
			vertex -24.686981201171875 33.97871398925783 72.99999999999999
		endloop
	endfacet
	facet normal -0.8073957449484209 0.5866073377611131 -0.06327671233561279
		outer loop
			vertex -26.715902412165363 31.18614347889908 73
			vertex -24.686981201171875 33.97871398925783 72.99999999999999
			vertex -18.809127807617188 25.888544082641584 -77
		endloop
	endfacet
	facet normal -0.8073957449484209 0.5866073377611131 -0.06327671233561279
		outer loop
			vertex -26.715902412165363 31.18614347889908 73
			vertex -18.809127807617188 25.888544082641584 -77
			vertex -21.619682952808606 24.171800926814726 -57.05307029516968
		endloop
	endfacet
	facet normal -0.8073957169905673 0.5866073770313011 -0.06327670501649552
		outer loop
			vertex -21.619682952808606 24.171800926814722 -57.05307029516968
			vertex -18.809127807617188 25.888544082641584 -77
			vertex -20.83804899367282 23.09597389025321 -77
		endloop
	endfacet
	facet normal -0.807395744948421 0.5866073377611128 -0.06327671233561279
		outer loop
			vertex -26.715902412165363 31.18614347889908 73
			vertex -21.619682952808606 24.171800926814726 -57.05307029516968
			vertex -39.944374084472656 12.978713989257828 73
		endloop
	endfacet
	facet normal -0.8073957169905674 0.586607377031301 -0.0632767050164956
		outer loop
			vertex -21.619682952808606 24.171800926814722 -57.05307029516968
			vertex -20.83804899367282 23.09597389025321 -77
			vertex -30.433809280395508 9.888544082641584 -77
		endloop
	endfacet
	facet normal -0.8073957169905674 0.586607377031301 -0.0632767050164956
		outer loop
			vertex -21.619682952808606 24.171800926814722 -57.05307029516968
			vertex -30.433809280395508 9.888544082641584 -77
			vertex -39.944374084472656 12.978713989257828 73
		endloop
	endfacet
	facet normal -0.9979960213010883 4.0732159819994573e-17 -0.06327670556530106
		outer loop
			vertex -39.944374084472656 9.526905058641875 73
			vertex -39.944374084472656 12.978713989257828 73
			vertex -30.433809280395508 9.888544082641584 -77
		endloop
	endfacet
	facet normal -0.9979960213010883 4.0732159819994573e-17 -0.06327670556530106
		outer loop
			vertex -39.944374084472656 9.526905058641875 73
			vertex -30.433809280395508 9.888544082641584 -77
			vertex -31.698520165056827 6.847665777128915 -57.05306345025153
		endloop
	endfacet
	facet normal -0.9979960213010882 -1.4050251088204813e-17 -0.0632767055653011
		outer loop
			vertex -31.698520165056827 6.847665777128917 -57.05306345025154
			vertex -30.433809280395508 9.888544082641584 -77
			vertex -30.433809280395508 6.436736464645812 -77
		endloop
	endfacet
	facet normal -0.9979960213010882 -1.40502510882048e-17 -0.06327670556530104
		outer loop
			vertex -39.944374084472656 9.526905058641875 73
			vertex -31.698520165056827 6.847665777128915 -57.05306345025153
			vertex -39.944374084472656 -12.978713989257797 73
		endloop
	endfacet
	facet normal -0.9979960213010882 -1.4050251088204803e-17 -0.06327670556530106
		outer loop
			vertex -31.698520165056827 6.847665777128917 -57.05306345025154
			vertex -30.433809280395508 6.436736464645812 -77
			vertex -30.433809280395508 -9.88854408264162 -77
		endloop
	endfacet
	facet normal -0.9979960213010882 -1.4050251088204803e-17 -0.06327670556530106
		outer loop
			vertex -31.698520165056827 6.847665777128917 -57.05306345025154
			vertex -30.433809280395508 -9.88854408264162 -77
			vertex -39.944374084472656 -12.978713989257797 73
		endloop
	endfacet
	facet normal -0.8073957452731191 -0.5866073379970201 -0.06327670600556522
		outer loop
			vertex -37.91545171101888 -15.771286099605893 73
			vertex -39.944374084472656 -12.978713989257797 73
			vertex -30.433809280395508 -9.88854408264162 -77
		endloop
	endfacet
	facet normal -0.8073957452731191 -0.5866073379970201 -0.06327670600556522
		outer loop
			vertex -37.91545171101888 -15.771286099605893 73
			vertex -30.433809280395508 -9.88854408264162 -77
			vertex -29.6695988643747 -13.092043215129015 -57.05307261277815
		endloop
	endfacet
	facet normal -0.8073957165644016 -0.5866073767216728 -0.06327671332468217
		outer loop
			vertex -29.6695988643747 -13.092043215129022 -57.053072612778124
			vertex -30.433809280395508 -9.88854408264162 -77
			vertex -28.404888814290366 -12.681113284103244 -77
		endloop
	endfacet
	facet normal -0.8073957452731192 -0.58660733799702 -0.06327670600556522
		outer loop
			vertex -37.91545171101888 -15.771286099605893 73
			vertex -29.6695988643747 -13.092043215129015 -57.05307261277815
			vertex -24.686981201171875 -33.9787139892578 73.00000000000001
		endloop
	endfacet
	facet normal -0.8073957165644011 -0.5866073767216733 -0.06327671332468217
		outer loop
			vertex -29.6695988643747 -13.092043215129022 -57.053072612778124
			vertex -28.404888814290366 -12.681113284103244 -77
			vertex -18.809127807617188 -25.88854408264162 -77
		endloop
	endfacet
	facet normal -0.8073957165644011 -0.5866073767216733 -0.06327671332468217
		outer loop
			vertex -29.6695988643747 -13.092043215129022 -57.053072612778124
			vertex -18.809127807617188 -25.88854408264162 -77
			vertex -24.686981201171875 -33.9787139892578 73.00000000000001
		endloop
	endfacet
	facet normal -0.30839771615266387 -0.9491506238462515 -0.06327670917559577
		outer loop
			vertex -3.282862470914125 -40.933333379300166 73.00000000000001
			vertex -3.282862431898889 -39.187977353587264 46.81965980445873
			vertex 0 -41.999999999999986 73.00000000000001
		endloop
	endfacet
	facet normal -0.30839772280373867 -0.9491506217557559 -0.06327670811705019
		outer loop
			vertex -3.282862431898895 -39.18797735358726 46.81965980445869
			vertex -3.282862431898889 -30.933333366623373 -77
			vertex 0 -32.000000000000014 -77
		endloop
	endfacet
	facet normal -0.30839772280373867 -0.9491506217557559 -0.06327670811705019
		outer loop
			vertex -3.282862431898895 -39.18797735358726 46.81965980445869
			vertex 0 -32.000000000000014 -77
			vertex 0 -41.999999999999986 73.00000000000001
		endloop
	endfacet
	facet normal -0.30839771615266365 -0.9491506238462514 -0.06327670917559575
		outer loop
			vertex -21.404117469395572 -35.04538101963655 73.00000000000001
			vertex -24.686981201171875 -33.9787139892578 73.00000000000001
			vertex -18.809127807617188 -25.88854408264162 -77
		endloop
	endfacet
	facet normal -0.30839771615266365 -0.9491506238462514 -0.06327670917559575
		outer loop
			vertex -21.404117469395572 -35.04538101963655 73.00000000000001
			vertex -18.809127807617188 -25.88854408264162 -77
			vertex -16.307900868299374 -28.03103617394467 -57.05308673878367
		endloop
	endfacet
	facet normal -0.30839772280373856 -0.9491506217557562 -0.06327670811705012
		outer loop
			vertex -16.30790086829938 -28.031036173944663 -57.05308673878373
			vertex -18.809127807617188 -25.88854408264162 -77
			vertex -15.52626779685567 -26.955209929343066 -77
		endloop
	endfacet
	facet normal -0.30839771615266415 -0.9491506238462514 -0.06327670917559577
		outer loop
			vertex -3.282862470914125 -40.933333379300166 73.00000000000001
			vertex -21.404117469395572 -35.04538101963655 73.00000000000001
			vertex -16.307900868299374 -28.03103617394467 -57.05308673878367
		endloop
	endfacet
	facet normal -0.30839771615266415 -0.9491506238462514 -0.06327670917559577
		outer loop
			vertex -3.282862470914125 -40.933333379300166 73.00000000000001
			vertex -16.307900868299374 -28.03103617394467 -57.05308673878367
			vertex -3.282862431898889 -39.187977353587264 46.81965980445873
		endloop
	endfacet
	facet normal -0.3083977228037386 -0.949150621755756 -0.0632767081170501
		outer loop
			vertex -3.282862431898895 -39.18797735358726 46.81965980445869
			vertex -16.30790086829938 -28.031036173944663 -57.05308673878373
			vertex -15.52626779685567 -26.955209929343066 -77
		endloop
	endfacet
	facet normal -0.3083977228037386 -0.949150621755756 -0.0632767081170501
		outer loop
			vertex -3.282862431898895 -39.18797735358726 46.81965980445869
			vertex -15.52626779685567 -26.955209929343066 -77
			vertex -3.282862431898889 -30.933333366623373 -77
		endloop
	endfacet
	facet normal 0 2.220446049250313e-16 1
		outer loop
			vertex 0 -39.866666666666646 73.00000000000001
			vertex 0 -41.999999999999986 73.00000000000001
			vertex 24.686981201171875 -33.9787139892578 73.00000000000001
		endloop
	endfacet
	facet normal 0 2.220446049250313e-16 1
		outer loop
			vertex 0 -39.866666666666646 73.00000000000001
			vertex 24.686981201171875 -33.9787139892578 73.00000000000001
			vertex 23.433038913172656 -32.25281052557555 73.00000000000001
		endloop
	endfacet
	facet normal 0 2.220446049250313e-16 1
		outer loop
			vertex 23.43303891317265 -32.25281052557555 73.00000000000001
			vertex 24.686981201171875 -33.9787139892578 73.00000000000001
			vertex 26.71590241216537 -31.186143478899034 73
		endloop
	endfacet
	facet normal 0 2.220446049250313e-16 1
		outer loop
			vertex -3.282862470914132 -40.933333379300166 73.00000000000001
			vertex 0 -41.999999999999986 73.00000000000001
			vertex 0 -39.86666666666665 73.00000000000001
		endloop
	endfacet
	facet normal 0 2.220446049250313e-16 1
		outer loop
			vertex 23.43303891317265 -32.25281052557555 73.00000000000001
			vertex 26.71590241216537 -31.186143478899034 73
			vertex 39.944374084472656 -12.978713989257797 73
		endloop
	endfacet
	facet normal 0 2.220446049250313e-16 1
		outer loop
			vertex 23.43303891317265 -32.25281052557555 73.00000000000001
			vertex 39.944374084472656 -12.978713989257797 73
			vertex 37.91545182881005 -12.319477181416037 73
		endloop
	endfacet
	facet normal 0 2.220446049250313e-16 1
		outer loop
			vertex 37.91545182881004 -12.319477181416037 73
			vertex 39.944374084472656 -12.978713989257797 73
			vertex 39.944374084472656 -9.52690505864184 73
		endloop
	endfacet
	facet normal 0 2.220446049250313e-16 1
		outer loop
			vertex 37.91545182881004 -12.319477181416037 73
			vertex 39.944374084472656 -9.52690505864184 73
			vertex 39.944374084472656 12.978713989257828 73
		endloop
	endfacet
	facet normal 0 2.220446049250313e-16 1
		outer loop
			vertex 37.91545182881004 -12.319477181416037 73
			vertex 39.944374084472656 12.978713989257828 73
			vertex 37.91545171101888 12.319477143143398 73
		endloop
	endfacet
	facet normal 0 2.220446049250313e-16 1
		outer loop
			vertex 37.91545171101888 12.3194771431434 73
			vertex 39.944374084472656 12.978713989257828 73
			vertex 37.91545171101888 15.771286099605925 73
		endloop
	endfacet
	facet normal 0 2.220446049250313e-16 1
		outer loop
			vertex 37.91545171101888 12.3194771431434 73
			vertex 37.91545171101888 15.771286099605925 73
			vertex 24.686981201171875 33.97871398925783 72.99999999999999
		endloop
	endfacet
	facet normal 0 2.220446049250313e-16 1
		outer loop
			vertex 37.91545171101888 12.3194771431434 73
			vertex 24.686981201171875 33.97871398925783 72.99999999999999
			vertex 23.433038727450754 32.25281026995132 72.99999999999999
		endloop
	endfacet
	facet normal 0 2.220446049250313e-16 1
		outer loop
			vertex 23.433038727450754 32.25281026995132 72.99999999999999
			vertex 24.686981201171875 33.97871398925783 72.99999999999999
			vertex 21.404117469395565 35.04538101963659 72.99999999999999
		endloop
	endfacet
	facet normal 0 2.220446049250313e-16 1
		outer loop
			vertex 23.433038727450754 32.25281026995132 72.99999999999999
			vertex 21.404117469395565 35.04538101963659 72.99999999999999
			vertex 5.143516516159909e-15 42.000000000000014 72.99999999999999
		endloop
	endfacet
	facet normal 0 2.220446049250313e-16 1
		outer loop
			vertex 23.433038727450754 32.25281026995132 72.99999999999999
			vertex 5.143516516159909e-15 42.000000000000014 72.99999999999999
			vertex 4.882258534892678e-15 39.866666670798246 72.99999999999999
		endloop
	endfacet
	facet normal 0 2.220446049250313e-16 1
		outer loop
			vertex 4.882258534892678e-15 39.866666670798246 72.99999999999999
			vertex 5.143516516159909e-15 42.000000000000014 72.99999999999999
			vertex -3.2828624645562883 40.933333381365976 72.99999999999999
		endloop
	endfacet
	facet normal 0 2.220446049250313e-16 1
		outer loop
			vertex 4.882258534892678e-15 39.866666670798246 72.99999999999999
			vertex -3.2828624645562883 40.933333381365976 72.99999999999999
			vertex -24.686981201171875 33.97871398925783 72.99999999999999
		endloop
	endfacet
	facet normal 0 2.220446049250313e-16 1
		outer loop
			vertex 4.882258534892678e-15 39.866666670798246 72.99999999999999
			vertex -24.686981201171875 33.97871398925783 72.99999999999999
			vertex -23.433038913172656 32.252810525575576 72.99999999999999
		endloop
	endfacet
	facet normal 0 2.220446049250313e-16 1
		outer loop
			vertex -23.433038913172652 32.252810525575576 72.99999999999999
			vertex -24.686981201171875 33.97871398925783 72.99999999999999
			vertex -26.71590241216537 31.186143478899073 73
		endloop
	endfacet
	facet normal 0 2.220446049250313e-16 1
		outer loop
			vertex -23.433038913172652 32.252810525575576 72.99999999999999
			vertex -26.71590241216537 31.186143478899073 73
			vertex -39.944374084472656 12.978713989257828 73
		endloop
	endfacet
	facet normal 0 2.220446049250313e-16 1
		outer loop
			vertex -23.433038913172652 32.252810525575576 72.99999999999999
			vertex -39.944374084472656 12.978713989257828 73
			vertex -37.91545182881005 12.319477181416069 73
		endloop
	endfacet
	facet normal 0 2.220446049250313e-16 1
		outer loop
			vertex -37.91545182881004 12.319477181416069 73
			vertex -39.944374084472656 12.978713989257828 73
			vertex -39.944374084472656 9.526905058641871 73
		endloop
	endfacet
	facet normal 0 2.220446049250313e-16 1
		outer loop
			vertex -37.91545182881004 12.319477181416069 73
			vertex -39.944374084472656 9.526905058641871 73
			vertex -39.944374084472656 -12.978713989257797 73
		endloop
	endfacet
	facet normal 0 2.220446049250313e-16 1
		outer loop
			vertex -37.91545182881004 12.319477181416069 73
			vertex -39.944374084472656 -12.978713989257797 73
			vertex -37.91545171101888 -12.319477143143367 73
		endloop
	endfacet
	facet normal 0 2.220446049250313e-16 1
		outer loop
			vertex -37.91545171101888 -12.319477143143368 73
			vertex -39.944374084472656 -12.978713989257797 73
			vertex -37.91545171101888 -15.771286099605893 73
		endloop
	endfacet
	facet normal 0 2.220446049250313e-16 1
		outer loop
			vertex -37.91545171101888 -12.319477143143368 73
			vertex -37.91545171101888 -15.771286099605893 73
			vertex -24.686981201171875 -33.9787139892578 73.00000000000001
		endloop
	endfacet
	facet normal 0 2.220446049250313e-16 1
		outer loop
			vertex -37.91545171101888 -12.319477143143368 73
			vertex -24.686981201171875 -33.9787139892578 73.00000000000001
			vertex -23.433038727450754 -32.25281026995129 73.00000000000001
		endloop
	endfacet
	facet normal 0 2.220446049250313e-16 1
		outer loop
			vertex -23.433038727450754 -32.25281026995129 73.00000000000001
			vertex -24.686981201171875 -33.9787139892578 73.00000000000001
			vertex -21.40411746939557 -35.04538101963655 73.00000000000001
		endloop
	endfacet
	facet normal 0 2.220446049250313e-16 1
		outer loop
			vertex -23.433038727450754 -32.25281026995129 73.00000000000001
			vertex -21.40411746939557 -35.04538101963655 73.00000000000001
			vertex -3.282862470914132 -40.933333379300166 73.00000000000001
		endloop
	endfacet
	facet normal 0 2.220446049250313e-16 1
		outer loop
			vertex -23.433038727450754 -32.25281026995129 73.00000000000001
			vertex -3.282862470914132 -40.933333379300166 73.00000000000001
			vertex 0 -39.86666666666665 73.00000000000001
		endloop
	endfacet
	facet normal 0 -2.220446049250313e-16 -1
		outer loop
			vertex 17.555185744501916 -24.162640855757715 -77
			vertex 18.809127807617188 -25.88854408264162 -77
			vertex 0 -32.000000000000014 -77
		endloop
	endfacet
	facet normal 0 -2.220446049250313e-16 -1
		outer loop
			vertex 17.555185744501916 -24.162640855757715 -77
			vertex 0 -32.000000000000014 -77
			vertex 0 -29.866666666666678 -77
		endloop
	endfacet
	facet normal 0 -2.220446049250313e-16 -1
		outer loop
			vertex 20.838048993672825 -23.095973890253237 -77
			vertex 18.809127807617188 -25.88854408264162 -77
			vertex 17.555185744501916 -24.162640855757715 -77
		endloop
	endfacet
	facet normal 0 -2.220446049250313e-16 -1
		outer loop
			vertex 0 -29.86666666666668 -77
			vertex 0 -32.000000000000014 -77
			vertex -3.282862431898895 -30.933333366623373 -77
		endloop
	endfacet
	facet normal 0 -2.220446049250313e-16 -1
		outer loop
			vertex 28.404887794048637 -9.229307528547691 -77
			vertex 30.433809280395508 -9.88854408264162 -77
			vertex 20.838048993672825 -23.095973890253237 -77
		endloop
	endfacet
	facet normal 0 -2.220446049250313e-16 -1
		outer loop
			vertex 28.404887794048637 -9.229307528547691 -77
			vertex 20.838048993672825 -23.095973890253237 -77
			vertex 17.555185744501916 -24.162640855757715 -77
		endloop
	endfacet
	facet normal 0 -2.220446049250313e-16 -1
		outer loop
			vertex 30.433809280395508 -6.436736464645852 -77
			vertex 30.433809280395508 -9.88854408264162 -77
			vertex 28.404887794048634 -9.22930752854769 -77
		endloop
	endfacet
	facet normal 0 -2.220446049250313e-16 -1
		outer loop
			vertex 28.404888814290363 9.229307860044287 -77
			vertex 30.433809280395508 9.888544082641584 -77
			vertex 30.433809280395508 -6.436736464645852 -77
		endloop
	endfacet
	facet normal 0 -2.220446049250313e-16 -1
		outer loop
			vertex 28.404888814290363 9.229307860044287 -77
			vertex 30.433809280395508 -6.436736464645852 -77
			vertex 28.404887794048634 -9.22930752854769 -77
		endloop
	endfacet
	facet normal 0 -2.220446049250313e-16 -1
		outer loop
			vertex 28.404888814290363 12.681113284103212 -77
			vertex 30.433809280395508 9.888544082641584 -77
			vertex 28.404888814290363 9.229307860044289 -77
		endloop
	endfacet
	facet normal 0 -2.220446049250313e-16 -1
		outer loop
			vertex 17.555186790827527 24.162642295901367 -77
			vertex 18.809127807617188 25.888544082641584 -77
			vertex 28.404888814290363 12.681113284103212 -77
		endloop
	endfacet
	facet normal 0 -2.220446049250313e-16 -1
		outer loop
			vertex 17.555186790827527 24.162642295901367 -77
			vertex 28.404888814290363 12.681113284103212 -77
			vertex 28.404888814290363 9.229307860044289 -77
		endloop
	endfacet
	facet normal 0 -2.220446049250313e-16 -1
		outer loop
			vertex 15.526267796855675 26.95520992934303 -77
			vertex 18.809127807617188 25.888544082641584 -77
			vertex 17.555186790827527 24.162642295901367 -77
		endloop
	endfacet
	facet normal 0 -2.220446049250313e-16 -1
		outer loop
			vertex 3.657611971508175e-15 29.8666669806658 -77
			vertex 3.918869928272537e-15 31.999999999999982 -77
			vertex 15.526267796855675 26.95520992934303 -77
		endloop
	endfacet
	facet normal 0 -2.220446049250313e-16 -1
		outer loop
			vertex 3.657611971508175e-15 29.8666669806658 -77
			vertex 15.526267796855675 26.95520992934303 -77
			vertex 17.555186790827527 24.162642295901367 -77
		endloop
	endfacet
	facet normal 0 -2.220446049250313e-16 -1
		outer loop
			vertex -3.282861948703871 30.93333352362291 -77
			vertex 3.918869928272537e-15 31.999999999999982 -77
			vertex 3.657611971508175e-15 29.8666669806658 -77
		endloop
	endfacet
	facet normal 0 -2.220446049250313e-16 -1
		outer loop
			vertex -17.555185744501916 24.16264085575768 -77
			vertex -18.809127807617188 25.888544082641584 -77
			vertex -3.282861948703871 30.93333352362291 -77
		endloop
	endfacet
	facet normal 0 -2.220446049250313e-16 -1
		outer loop
			vertex -17.555185744501916 24.16264085575768 -77
			vertex -3.282861948703871 30.93333352362291 -77
			vertex 3.657611971508175e-15 29.8666669806658 -77
		endloop
	endfacet
	facet normal 0 -2.220446049250313e-16 -1
		outer loop
			vertex -20.838048993672825 23.0959738902532 -77
			vertex -18.809127807617188 25.888544082641584 -77
			vertex -17.555185744501916 24.16264085575768 -77
		endloop
	endfacet
	facet normal 0 -2.220446049250313e-16 -1
		outer loop
			vertex -28.404887794048637 9.229307528547656 -77
			vertex -30.433809280395508 9.888544082641584 -77
			vertex -20.838048993672825 23.0959738902532 -77
		endloop
	endfacet
	facet normal 0 -2.220446049250313e-16 -1
		outer loop
			vertex -28.404887794048637 9.229307528547656 -77
			vertex -20.838048993672825 23.0959738902532 -77
			vertex -17.555185744501916 24.16264085575768 -77
		endloop
	endfacet
	facet normal 0 -2.220446049250313e-16 -1
		outer loop
			vertex -30.433809280395508 6.4367364646458185 -77
			vertex -30.433809280395508 9.888544082641584 -77
			vertex -28.404887794048634 9.229307528547654 -77
		endloop
	endfacet
	facet normal 0 -2.220446049250313e-16 -1
		outer loop
			vertex -28.404888814290363 -9.229307860044322 -77
			vertex -30.433809280395508 -9.88854408264162 -77
			vertex -30.433809280395508 6.4367364646458185 -77
		endloop
	endfacet
	facet normal 0 -2.220446049250313e-16 -1
		outer loop
			vertex -28.404888814290363 -9.229307860044322 -77
			vertex -30.433809280395508 6.4367364646458185 -77
			vertex -28.404887794048634 9.229307528547654 -77
		endloop
	endfacet
	facet normal 0 -2.220446049250313e-16 -1
		outer loop
			vertex -28.404888814290363 -12.681113284103247 -77
			vertex -30.433809280395508 -9.88854408264162 -77
			vertex -28.404888814290363 -9.229307860044324 -77
		endloop
	endfacet
	facet normal 0 -2.220446049250313e-16 -1
		outer loop
			vertex -17.555186790827527 -24.162642295901403 -77
			vertex -18.809127807617188 -25.88854408264162 -77
			vertex -28.404888814290363 -12.681113284103247 -77
		endloop
	endfacet
	facet normal 0 -2.220446049250313e-16 -1
		outer loop
			vertex -17.555186790827527 -24.162642295901403 -77
			vertex -28.404888814290363 -12.681113284103247 -77
			vertex -28.404888814290363 -9.229307860044324 -77
		endloop
	endfacet
	facet normal 0 -2.220446049250313e-16 -1
		outer loop
			vertex -15.526267796855674 -26.955209929343066 -77
			vertex -18.809127807617188 -25.88854408264162 -77
			vertex -17.555186790827527 -24.162642295901403 -77
		endloop
	endfacet
	facet normal 0 -2.220446049250313e-16 -1
		outer loop
			vertex 0 -29.86666666666668 -77
			vertex -3.282862431898895 -30.933333366623373 -77
			vertex -15.526267796855674 -26.955209929343066 -77
		endloop
	endfacet
	facet normal 0 -2.220446049250313e-16 -1
		outer loop
			vertex 0 -29.86666666666668 -77
			vertex -15.526267796855674 -26.955209929343066 -77
			vertex -17.555186790827527 -24.162642295901403 -77
		endloop
	endfacet
	facet normal 0 -2.220446049250313e-16 -1
		outer loop
			vertex 17.555185744501916 -24.162640855757715 -77
			vertex 0 -29.866666666666678 -77
			vertex 0 -1.709743457922741e-14 -77
		endloop
	endfacet
	facet normal 0 -2.220446049250313e-16 -1
		outer loop
			vertex 28.404887794048637 -9.229307528547691 -77
			vertex 17.555185744501916 -24.162640855757715 -77
			vertex 0 -1.709743457922741e-14 -77
		endloop
	endfacet
	facet normal 0 -2.220446049250313e-16 -1
		outer loop
			vertex 28.404888814290363 9.229307860044287 -77
			vertex 28.404887794048634 -9.22930752854769 -77
			vertex 0 -1.709743457922741e-14 -77
		endloop
	endfacet
	facet normal 0 -2.220446049250313e-16 -1
		outer loop
			vertex 17.555186790827527 24.162642295901367 -77
			vertex 28.404888814290363 9.229307860044289 -77
			vertex 0 -1.709743457922741e-14 -77
		endloop
	endfacet
	facet normal 0 -2.220446049250313e-16 -1
		outer loop
			vertex 3.657611971508175e-15 29.8666669806658 -77
			vertex 17.555186790827527 24.162642295901367 -77
			vertex 0 -1.709743457922741e-14 -77
		endloop
	endfacet
	facet normal 0 -2.220446049250313e-16 -1
		outer loop
			vertex -17.555185744501916 24.16264085575768 -77
			vertex 3.657611971508175e-15 29.8666669806658 -77
			vertex 0 -1.709743457922741e-14 -77
		endloop
	endfacet
	facet normal 0 -2.220446049250313e-16 -1
		outer loop
			vertex -28.404887794048637 9.229307528547656 -77
			vertex -17.555185744501916 24.16264085575768 -77
			vertex 0 -1.709743457922741e-14 -77
		endloop
	endfacet
	facet normal 0 -2.220446049250313e-16 -1
		outer loop
			vertex -28.404888814290363 -9.229307860044322 -77
			vertex -28.404887794048634 9.229307528547654 -77
			vertex 0 -1.709743457922741e-14 -77
		endloop
	endfacet
	facet normal 0 -2.220446049250313e-16 -1
		outer loop
			vertex -17.555186790827527 -24.162642295901403 -77
			vertex -28.404888814290363 -9.229307860044324 -77
			vertex 0 -1.709743457922741e-14 -77
		endloop
	endfacet
	facet normal 0 -2.220446049250313e-16 -1
		outer loop
			vertex 0 -29.86666666666668 -77
			vertex -17.555186790827527 -24.162642295901403 -77
			vertex 0 -1.709743457922741e-14 -77
		endloop
	endfacet
	facet normal -0.30839774022271976 0.949150616121029 0.06327670774140173
		outer loop
			vertex 23.1979242960612 -32.32920389811196 73.00000000000001
			vertex 0 -30.000000000000018 -75
			vertex 0 -39.86666666666665 73.00000000000001
		endloop
	endfacet
	facet normal -0.30839772518101677 0.949150621160266 0.06327670546303095
		outer loop
			vertex 23.1979242960612 -32.32920389811196 73.00000000000001
			vertex 23.43303840637207 -32.25281069437661 73.00000000000001
			vertex 17.63355827331543 -24.27050971984865 -75
		endloop
	endfacet
	facet normal -0.30839772518101677 0.949150621160266 0.06327670546303095
		outer loop
			vertex 23.1979242960612 -32.32920389811196 73.00000000000001
			vertex 17.63355827331543 -24.27050971984865 -75
			vertex 0 -30.000000000000018 -75
		endloop
	endfacet
	facet normal -0.8073957629400225 0.586607314166462 0.06327670150149291
		outer loop
			vertex 37.77014320373535 -12.519477361043277 73
			vertex 17.63355827331543 -24.27050971984865 -75
			vertex 23.43303840637207 -32.25281069437661 73.00000000000001
		endloop
	endfacet
	facet normal -0.8073957388357723 0.5866073479865391 0.06327669553664088
		outer loop
			vertex 37.77014320373535 -12.519477361043279 73
			vertex 37.91545171101888 -12.319477361043278 73
			vertex 28.531696319580078 -9.270509719848649 -75
		endloop
	endfacet
	facet normal -0.8073957388357723 0.5866073479865391 0.06327669553664088
		outer loop
			vertex 37.77014320373535 -12.519477361043279 73
			vertex 28.531696319580078 -9.270509719848649 -75
			vertex 17.63355827331543 -24.27050971984865 -75
		endloop
	endfacet
	facet normal -0.9979960221024715 1.405024828170201e-17 0.06327669292593613
		outer loop
			vertex 37.91545171101888 12.072263768514015 73
			vertex 28.531696319580078 -9.270509719848649 -75
			vertex 37.91545171101888 -12.319477361043278 73
		endloop
	endfacet
	facet normal -0.9979960221024715 1.405024828170201e-17 0.06327669292593613
		outer loop
			vertex 37.91545171101888 12.072263768514013 73
			vertex 37.91545171101888 12.31947736104331 73
			vertex 28.531696319580078 9.270509719848617 -75
		endloop
	endfacet
	facet normal -0.9979960221024715 1.405024828170201e-17 0.06327669292593613
		outer loop
			vertex 37.91545171101888 12.072263768514013 73
			vertex 28.531696319580078 9.270509719848617 -75
			vertex 28.531696319580078 -9.270509719848649 -75
		endloop
	endfacet
	facet normal -0.8073957632022786 -0.586607314357002 0.0632766963887625
		outer loop
			vertex 23.5783469136556 32.052810694376646 72.99999999999999
			vertex 28.531696319580078 9.270509719848617 -75
			vertex 37.91545171101888 12.31947736104331 73
		endloop
	endfacet
	facet normal -0.8073957384860976 -0.5866073477324855 0.06327670235361511
		outer loop
			vertex 23.578346913655597 32.05281069437664 72.99999999999999
			vertex 23.43303840637207 32.25281069437664 72.99999999999999
			vertex 17.63355827331543 24.270509719848615 -75
		endloop
	endfacet
	facet normal -0.8073957384860976 -0.5866073477324855 0.06327670235361511
		outer loop
			vertex 23.578346913655597 32.05281069437664 72.99999999999999
			vertex 17.63355827331543 24.270509719848615 -75
			vertex 28.531696319580078 9.270509719848617 -75
		endloop
	endfacet
	facet normal -0.30839774026098243 -0.9491506162387894 0.06327670578851281
		outer loop
			vertex 0.23511411031087448 39.79027346293133 72.99999999999999
			vertex 17.63355827331543 24.270509719848615 -75
			vertex 23.43303840637207 32.25281069437664 72.99999999999999
		endloop
	endfacet
	facet normal -0.30839772512999997 -0.9491506210032522 0.06327670806688368
		outer loop
			vertex 0.23511411031087726 39.79027346293133 72.99999999999999
			vertex 4.882258571763717e-15 39.86666666666668 72.99999999999999
			vertex 3.673940187178589e-15 29.999999999999982 -75
		endloop
	endfacet
	facet normal -0.30839772512999997 -0.9491506210032522 0.06327670806688368
		outer loop
			vertex 0.23511411031087726 39.79027346293133 72.99999999999999
			vertex 3.673940187178589e-15 29.999999999999982 -75
			vertex 17.63355827331543 24.270509719848615 -75
		endloop
	endfacet
	facet normal 0.30839774022271976 -0.9491506161210292 0.06327670774140216
		outer loop
			vertex -23.1979242960612 32.32920389811199 72.99999999999999
			vertex 3.673940187178589e-15 29.999999999999982 -75
			vertex 4.882258571763716e-15 39.86666666666668 72.99999999999999
		endloop
	endfacet
	facet normal 0.30839772518101677 -0.949150621160266 0.06327670546303137
		outer loop
			vertex -23.1979242960612 32.32920389811199 72.99999999999999
			vertex -23.43303840637207 32.25281069437664 72.99999999999999
			vertex -17.63355827331543 24.270509719848615 -75
		endloop
	endfacet
	facet normal 0.30839772518101677 -0.949150621160266 0.06327670546303137
		outer loop
			vertex -23.1979242960612 32.32920389811199 72.99999999999999
			vertex -17.63355827331543 24.270509719848615 -75
			vertex 3.673940187178589e-15 29.999999999999982 -75
		endloop
	endfacet
	facet normal 0.8073957629400225 -0.586607314166462 0.06327670150149316
		outer loop
			vertex -37.77014320373535 12.51947736104331 73
			vertex -17.63355827331543 24.270509719848615 -75
			vertex -23.43303840637207 32.25281069437664 72.99999999999999
		endloop
	endfacet
	facet normal 0.8073957388357723 -0.5866073479865391 0.06327669553664113
		outer loop
			vertex -37.77014320373535 12.519477361043311 73
			vertex -37.91545171101888 12.31947736104331 73
			vertex -28.531696319580078 9.270509719848617 -75
		endloop
	endfacet
	facet normal 0.8073957388357723 -0.5866073479865391 0.06327669553664113
		outer loop
			vertex -37.77014320373535 12.519477361043311 73
			vertex -28.531696319580078 9.270509719848617 -75
			vertex -17.63355827331543 24.270509719848615 -75
		endloop
	endfacet
	facet normal 0.9979960221024715 1.405024828170201e-17 0.06327669292593613
		outer loop
			vertex -37.91545171101888 -12.072263768513983 73
			vertex -28.531696319580078 9.270509719848617 -75
			vertex -37.91545171101888 12.31947736104331 73
		endloop
	endfacet
	facet normal 0.9979960221024715 1.405024828170201e-17 0.06327669292593613
		outer loop
			vertex -37.91545171101888 -12.07226376851398 73
			vertex -37.91545171101888 -12.319477361043278 73
			vertex -28.531696319580078 -9.270509719848649 -75
		endloop
	endfacet
	facet normal 0.9979960221024715 1.405024828170201e-17 0.06327669292593613
		outer loop
			vertex -37.91545171101888 -12.07226376851398 73
			vertex -28.531696319580078 -9.270509719848649 -75
			vertex -28.531696319580078 9.270509719848617 -75
		endloop
	endfacet
	facet normal 0.8073957632022786 0.586607314357002 0.06327669638876225
		outer loop
			vertex -23.5783469136556 -32.05281069437662 73.00000000000001
			vertex -28.531696319580078 -9.270509719848649 -75
			vertex -37.91545171101888 -12.319477361043278 73
		endloop
	endfacet
	facet normal 0.8073957384860976 0.5866073477324855 0.06327670235361486
		outer loop
			vertex -23.578346913655597 -32.05281069437661 73.00000000000001
			vertex -23.43303840637207 -32.25281069437661 73.00000000000001
			vertex -17.63355827331543 -24.27050971984865 -75
		endloop
	endfacet
	facet normal 0.8073957384860976 0.5866073477324855 0.06327670235361486
		outer loop
			vertex -23.578346913655597 -32.05281069437661 73.00000000000001
			vertex -17.63355827331543 -24.27050971984865 -75
			vertex -28.531696319580078 -9.270509719848649 -75
		endloop
	endfacet
	facet normal 0.30839774026098243 0.9491506162387896 0.0632767057885124
		outer loop
			vertex -0.23511411031087093 -39.7902734629313 73.00000000000001
			vertex -17.63355827331543 -24.27050971984865 -75
			vertex -23.43303840637207 -32.25281069437661 73.00000000000001
		endloop
	endfacet
	facet normal 0.3083977251299999 0.9491506210032523 0.06327670806688328
		outer loop
			vertex -0.2351141103108724 -39.7902734629313 73.00000000000001
			vertex 0 -39.86666666666665 73.00000000000001
			vertex 0 -30.000000000000018 -75
		endloop
	endfacet
	facet normal 0.3083977251299999 0.9491506210032523 0.06327670806688328
		outer loop
			vertex -0.2351141103108724 -39.7902734629313 73.00000000000001
			vertex 0 -30.000000000000018 -75
			vertex -17.63355827331543 -24.27050971984865 -75
		endloop
	endfacet
	facet normal 0 2.220446049250313e-16 1
		outer loop
			vertex 0 -1.6653345369377348e-14 -75
			vertex 0 -30.000000000000018 -75
			vertex 17.63355827331543 -24.27050971984865 -75
		endloop
	endfacet
	facet normal 0 2.220446049250313e-16 1
		outer loop
			vertex 0 -1.6653345369377348e-14 -75
			vertex 17.63355827331543 -24.27050971984865 -75
			vertex 28.531696319580078 -9.270509719848649 -75
		endloop
	endfacet
	facet normal 0 2.220446049250313e-16 1
		outer loop
			vertex 0 -1.6653345369377348e-14 -75
			vertex 28.531696319580078 -9.270509719848649 -75
			vertex 28.531696319580078 9.270509719848617 -75
		endloop
	endfacet
	facet normal 0 2.220446049250313e-16 1
		outer loop
			vertex 0 -1.6653345369377348e-14 -75
			vertex 28.531696319580078 9.270509719848617 -75
			vertex 17.63355827331543 24.270509719848615 -75
		endloop
	endfacet
	facet normal 0 2.220446049250313e-16 1
		outer loop
			vertex 0 -1.6653345369377348e-14 -75
			vertex 17.63355827331543 24.270509719848615 -75
			vertex 3.673940187178589e-15 29.999999999999982 -75
		endloop
	endfacet
	facet normal 0 2.220446049250313e-16 1
		outer loop
			vertex 0 -1.6653345369377348e-14 -75
			vertex 3.673940187178589e-15 29.999999999999982 -75
			vertex -17.63355827331543 24.270509719848615 -75
		endloop
	endfacet
	facet normal 0 2.220446049250313e-16 1
		outer loop
			vertex 0 -1.6653345369377348e-14 -75
			vertex -17.63355827331543 24.270509719848615 -75
			vertex -28.531696319580078 9.270509719848617 -75
		endloop
	endfacet
	facet normal 0 2.220446049250313e-16 1
		outer loop
			vertex 0 -1.6653345369377348e-14 -75
			vertex -28.531696319580078 9.270509719848617 -75
			vertex -28.531696319580078 -9.270509719848649 -75
		endloop
	endfacet
	facet normal 0 2.220446049250313e-16 1
		outer loop
			vertex 0 -1.6653345369377348e-14 -75
			vertex -28.531696319580078 -9.270509719848649 -75
			vertex -17.63355827331543 -24.27050971984865 -75
		endloop
	endfacet
	facet normal 0 2.220446049250313e-16 1
		outer loop
			vertex 0 -1.6653345369377348e-14 -75
			vertex -17.63355827331543 -24.27050971984865 -75
			vertex 0 -30.000000000000018 -75
		endloop
	endfacet
endsolid exported
