solid exported
	facet normal 1 0 0
		outer loop
			vertex 10 2.5 7.5
			vertex 10 -2.5 7.5
			vertex 10 2.5 2.5
		endloop
	endfacet
	facet normal 1 0 0
		outer loop
			vertex 10 -2.5 7.5
			vertex 10 -2.5 2.5
			vertex 10 2.5 2.5
		endloop
	endfacet
	facet normal 1 0 0
		outer loop
			vertex 10 2.5 2.5
			vertex 10 -0.833333333333333 2.5
			vertex 10 0.8333333333333335 -2.5
		endloop
	endfacet
	facet normal 1 0 0
		outer loop
			vertex 10 2.5 2.5
			vertex 10 0.8333333333333335 -2.5
			vertex 10 2.5 -2.5
		endloop
	endfacet
	facet normal 1 0 0
		outer loop
			vertex 10 -0.8333333333333335 2.5
			vertex 10 -2.5 2.5
			vertex 10 -2.5 -2.5
		endloop
	endfacet
	facet normal 1 0 0
		outer loop
			vertex 10 -0.8333333333333335 2.5
			vertex 10 -2.5 -2.5
			vertex 10 -1.6666666666666667 -2.5
		endloop
	endfacet
	facet normal 1 0 0
		outer loop
			vertex 10 -0.8333333333333335 2.5
			vertex 10 -1.6666666666666667 -2.5
			vertex 10 0.8333333333333333 -2.5
		endloop
	endfacet
	facet normal 1 0 0
		outer loop
			vertex 12.5 5 -2.5
			vertex 12.5 -5 -2.5
			vertex 12.5 5 -7.5
		endloop
	endfacet
	facet normal 1 0 0
		outer loop
			vertex 12.5 -5 -2.5
			vertex 12.5 -5 -7.5
			vertex 12.5 5 -7.5
		endloop
	endfacet
	facet normal 0 1 0
		outer loop
			vertex 10 5 -7
			vertex 12.5 5 -7.5
			vertex 10 5 -7.5
		endloop
	endfacet
	facet normal 0 1 0
		outer loop
			vertex 10 5 -2.5
			vertex 12.5 5 -2.5
			vertex 12.5 5 -7.5
		endloop
	endfacet
	facet normal 0 1 0
		outer loop
			vertex 10 5 -2.5
			vertex 12.5 5 -7.5
			vertex 10 5 -7
		endloop
	endfacet
	facet normal 0 -1 0
		outer loop
			vertex 10 -5 -3
			vertex 12.5 -5 -2.5
			vertex 10 -5 -2.5
		endloop
	endfacet
	facet normal 0 -1 0
		outer loop
			vertex 10 -5 -7.5
			vertex 12.5 -5 -7.5
			vertex 12.5 -5 -2.5
		endloop
	endfacet
	facet normal 0 -1 0
		outer loop
			vertex 10 -5 -7.5
			vertex 12.5 -5 -2.5
			vertex 10 -5 -3
		endloop
	endfacet
	facet normal 0 0 1
		outer loop
			vertex 10 4 -2.5
			vertex 12.5 5 -2.5
			vertex 10 5 -2.5
		endloop
	endfacet
	facet normal 0 0 1
		outer loop
			vertex 10 -5 -2.5
			vertex 12.5 -5 -2.5
			vertex 12.5 5 -2.5
		endloop
	endfacet
	facet normal 0 0 1
		outer loop
			vertex 10 -5 -2.5
			vertex 12.5 5 -2.5
			vertex 10 4 -2.5
		endloop
	endfacet
	facet normal 0 0 -1
		outer loop
			vertex 12.5 5 -7.5
			vertex 12.5 -5 -7.5
			vertex 10 -4 -7.5
		endloop
	endfacet
	facet normal 0 0 -1
		outer loop
			vertex 12.5 5 -7.5
			vertex 10 -4 -7.5
			vertex 10 5 -7.5
		endloop
	endfacet
	facet normal 0 0 -1
		outer loop
			vertex 12.5 -5 -7.5
			vertex 10 -5 -7.5
			vertex 10 -4 -7.5
		endloop
	endfacet
	facet normal -1 0 0
		outer loop
			vertex -10 2.5 2.5
			vertex -10 -2.5 2.5
			vertex -10 2.5 7.5
		endloop
	endfacet
	facet normal -1 0 0
		outer loop
			vertex -10 -2.5 2.5
			vertex -10 -2.5 7.5
			vertex -10 2.5 7.5
		endloop
	endfacet
	facet normal -1 0 0
		outer loop
			vertex -10 2.5 2.5
			vertex -10 2.5 -2.5
			vertex -10 0 -2.5
		endloop
	endfacet
	facet normal -1 0 0
		outer loop
			vertex -10 2.5 2.5
			vertex -10 0 -2.5
			vertex -10 -0.8333333333333333 -2.5
		endloop
	endfacet
	facet normal -1 0 0
		outer loop
			vertex -10 2.5 2.5
			vertex -10 -0.8333333333333333 -2.5
			vertex -10 0.8333333333333335 2.5
		endloop
	endfacet
	facet normal -1 0 0
		outer loop
			vertex -10 0.833333333333333 2.5
			vertex -10 -0.8333333333333335 -2.5
			vertex -10 -2.5 -2.5
		endloop
	endfacet
	facet normal -1 0 0
		outer loop
			vertex -10 0.833333333333333 2.5
			vertex -10 -2.5 -2.5
			vertex -10 -2.5 2.5
		endloop
	endfacet
	facet normal -1 0 0
		outer loop
			vertex -12.5 5 -7.5
			vertex -12.5 -5 -7.5
			vertex -12.5 5 -2.5
		endloop
	endfacet
	facet normal -1 0 0
		outer loop
			vertex -12.5 -5 -7.5
			vertex -12.5 -5 -2.5
			vertex -12.5 5 -2.5
		endloop
	endfacet
	facet normal 0 1 0
		outer loop
			vertex -12.5 5 -7.5
			vertex -12.5 5 -2.5
			vertex -10 5 -3
		endloop
	endfacet
	facet normal 0 1 0
		outer loop
			vertex -12.5 5 -7.5
			vertex -10 5 -3
			vertex -10 5 -7.5
		endloop
	endfacet
	facet normal 0 1 0
		outer loop
			vertex -12.5 5 -2.5
			vertex -10 5 -2.5
			vertex -10 5 -3
		endloop
	endfacet
	facet normal 0 -1 0
		outer loop
			vertex -12.5 -5 -2.5
			vertex -12.5 -5 -7.5
			vertex -10 -5 -7
		endloop
	endfacet
	facet normal 0 -1 0
		outer loop
			vertex -12.5 -5 -2.5
			vertex -10 -5 -7
			vertex -10 -5 -2.5
		endloop
	endfacet
	facet normal 0 -1 0
		outer loop
			vertex -12.5 -5 -7.5
			vertex -10 -5 -7.5
			vertex -10 -5 -7
		endloop
	endfacet
	facet normal 0 0 1
		outer loop
			vertex -12.5 5 -2.5
			vertex -12.5 -5 -2.5
			vertex -10 -4 -2.5
		endloop
	endfacet
	facet normal 0 0 1
		outer loop
			vertex -12.5 5 -2.5
			vertex -10 -4 -2.5
			vertex -10 5 -2.5
		endloop
	endfacet
	facet normal 0 0 1
		outer loop
			vertex -12.5 -5 -2.5
			vertex -10 -5 -2.5
			vertex -10 -4 -2.5
		endloop
	endfacet
	facet normal 0 0 -1
		outer loop
			vertex -10 4 -7.5
			vertex -12.5 5 -7.5
			vertex -10 5 -7.5
		endloop
	endfacet
	facet normal 0 0 -1
		outer loop
			vertex -10 -5 -7.5
			vertex -12.5 -5 -7.5
			vertex -12.5 5 -7.5
		endloop
	endfacet
	facet normal 0 0 -1
		outer loop
			vertex -10 -5 -7.5
			vertex -12.5 5 -7.5
			vertex -10 4 -7.5
		endloop
	endfacet
	facet normal 0 1 0
		outer loop
			vertex -5 2.5 6.25
			vertex 5 2.5 3.75
			vertex -5 2.5 2.916666666666667
		endloop
	endfacet
	facet normal 0 1 0
		outer loop
			vertex -5 2.5 2.9166666666666665
			vertex 5 2.5 3.75
			vertex 5 2.5 2.5
		endloop
	endfacet
	facet normal 0 1 0
		outer loop
			vertex -5 2.5 2.9166666666666665
			vertex 5 2.5 2.5
			vertex -5 2.5 2.5
		endloop
	endfacet
	facet normal 0 1 0
		outer loop
			vertex -5 2.5 7.5
			vertex 5 2.5 7.5
			vertex 5 2.5 3.75
		endloop
	endfacet
	facet normal 0 1 0
		outer loop
			vertex -5 2.5 7.5
			vertex 5 2.5 3.75
			vertex -5 2.5 6.25
		endloop
	endfacet
	facet normal 0 1 0
		outer loop
			vertex 5 2.5 3.75
			vertex 10 2.5 2.5
			vertex 5 2.5 2.5
		endloop
	endfacet
	facet normal 0 1 0
		outer loop
			vertex 5 2.5 7.5
			vertex 10 2.5 7.5
			vertex 10 2.5 2.5
		endloop
	endfacet
	facet normal 0 1 0
		outer loop
			vertex 5 2.5 7.5
			vertex 10 2.5 2.5
			vertex 5 2.5 3.75
		endloop
	endfacet
	facet normal 0 1 0
		outer loop
			vertex 5 2.5 -2.5
			vertex 5 2.5 2.5
			vertex 6.666666666666667 2.5 2.5
		endloop
	endfacet
	facet normal 0 1 0
		outer loop
			vertex 5 2.5 -2.5
			vertex 6.666666666666667 2.5 2.5
			vertex 5.833333333333334 2.5 -2.5
		endloop
	endfacet
	facet normal 0 1 0
		outer loop
			vertex 5.833333333333334 2.5 -2.5
			vertex 6.666666666666667 2.5 2.5
			vertex 8.333333333333334 2.5 -2.5
		endloop
	endfacet
	facet normal 0 1 0
		outer loop
			vertex 6.666666666666666 2.5 2.5
			vertex 10 2.5 2.5
			vertex 10 2.5 -2.5
		endloop
	endfacet
	facet normal 0 1 0
		outer loop
			vertex 6.666666666666666 2.5 2.5
			vertex 10 2.5 -2.5
			vertex 8.333333333333332 2.5 -2.5
		endloop
	endfacet
	facet normal 0 1 0
		outer loop
			vertex -10 2.5 2.5
			vertex -10 2.5 7.5
			vertex -5 2.5 6.25
		endloop
	endfacet
	facet normal 0 1 0
		outer loop
			vertex -10 2.5 2.5
			vertex -5 2.5 6.25
			vertex -5 2.5 2.916666666666667
		endloop
	endfacet
	facet normal 0 1 0
		outer loop
			vertex -10 2.5 2.5
			vertex -5 2.5 2.9166666666666665
			vertex -5 2.5 2.5
		endloop
	endfacet
	facet normal 0 1 0
		outer loop
			vertex -10 2.5 7.5
			vertex -5 2.5 7.5
			vertex -5 2.5 6.25
		endloop
	endfacet
	facet normal 0 1 0
		outer loop
			vertex -10 2.5 -2.5
			vertex -10 2.5 2.5
			vertex -8.333333333333332 2.5 2.5
		endloop
	endfacet
	facet normal 0 1 0
		outer loop
			vertex -10 2.5 -2.5
			vertex -8.333333333333332 2.5 2.5
			vertex -9.166666666666666 2.5 -2.5
		endloop
	endfacet
	facet normal 0 1 0
		outer loop
			vertex -9.166666666666666 2.5 -2.5
			vertex -8.333333333333332 2.5 2.5
			vertex -6.666666666666666 2.5 -2.5
		endloop
	endfacet
	facet normal 0 1 0
		outer loop
			vertex -8.333333333333334 2.5 2.5
			vertex -5 2.5 2.5
			vertex -5 2.5 -2.5
		endloop
	endfacet
	facet normal 0 1 0
		outer loop
			vertex -8.333333333333334 2.5 2.5
			vertex -5 2.5 -2.5
			vertex -6.666666666666667 2.5 -2.5
		endloop
	endfacet
	facet normal 0 1 0
		outer loop
			vertex -10 5 -3
			vertex 10 5 -7
			vertex 10 5 -7.5
		endloop
	endfacet
	facet normal 0 1 0
		outer loop
			vertex -10 5 -3
			vertex 10 5 -7.5
			vertex -10 5 -7.5
		endloop
	endfacet
	facet normal 0 1 0
		outer loop
			vertex -10 5 -2.5
			vertex 10 5 -2.5
			vertex 10 5 -7
		endloop
	endfacet
	facet normal 0 1 0
		outer loop
			vertex -10 5 -2.5
			vertex 10 5 -7
			vertex -10 5 -3
		endloop
	endfacet
	facet normal 0 0 1
		outer loop
			vertex 6.25 2.5 -2.5
			vertex 10 4 -2.5
			vertex 10 5 -2.5
		endloop
	endfacet
	facet normal 0 0 1
		outer loop
			vertex 6.25 2.5 -2.5
			vertex 10 5 -2.5
			vertex -10 5 -2.5
		endloop
	endfacet
	facet normal 0 0 1
		outer loop
			vertex 6.25 2.5 -2.5
			vertex -10 5 -2.5
			vertex -10 2.5 -2.5
		endloop
	endfacet
	facet normal 0 0 1
		outer loop
			vertex 10 2.5 -2.5
			vertex 10 4 -2.5
			vertex 6.25 2.5 -2.5
		endloop
	endfacet
	facet normal 0 0 -1
		outer loop
			vertex -6.25 2.5 -7.5
			vertex -10 4 -7.5
			vertex -10 5 -7.5
		endloop
	endfacet
	facet normal 0 0 -1
		outer loop
			vertex -6.25 2.5 -7.5
			vertex -10 5 -7.5
			vertex 10 5 -7.5
		endloop
	endfacet
	facet normal 0 0 -1
		outer loop
			vertex -6.25 2.5 -7.5
			vertex 10 5 -7.5
			vertex 10 2.5 -7.5
		endloop
	endfacet
	facet normal 0 0 -1
		outer loop
			vertex -10 2.5 -7.5
			vertex -10 4 -7.5
			vertex -6.25 2.5 -7.5
		endloop
	endfacet
	facet normal 0 -1 0
		outer loop
			vertex -5 -2.5 3.75
			vertex 5 -2.5 6.25
			vertex -5 -2.5 7.083333333333333
		endloop
	endfacet
	facet normal 0 -1 0
		outer loop
			vertex -5 -2.5 7.083333333333333
			vertex 5 -2.5 6.25
			vertex 5 -2.5 7.5
		endloop
	endfacet
	facet normal 0 -1 0
		outer loop
			vertex -5 -2.5 7.083333333333333
			vertex 5 -2.5 7.5
			vertex -5 -2.5 7.5
		endloop
	endfacet
	facet normal 0 -1 0
		outer loop
			vertex -5 -2.5 2.5
			vertex 5 -2.5 2.5
			vertex 5 -2.5 6.25
		endloop
	endfacet
	facet normal 0 -1 0
		outer loop
			vertex -5 -2.5 2.5
			vertex 5 -2.5 6.25
			vertex -5 -2.5 3.75
		endloop
	endfacet
	facet normal 0 -1 0
		outer loop
			vertex 5 -2.5 6.25
			vertex 10 -2.5 7.5
			vertex 5 -2.5 7.5
		endloop
	endfacet
	facet normal 0 -1 0
		outer loop
			vertex 5 -2.5 2.5
			vertex 10 -2.5 2.5
			vertex 10 -2.5 7.5
		endloop
	endfacet
	facet normal 0 -1 0
		outer loop
			vertex 5 -2.5 2.5
			vertex 10 -2.5 7.5
			vertex 5 -2.5 6.25
		endloop
	endfacet
	facet normal 0 -1 0
		outer loop
			vertex 5 -2.5 2.5
			vertex 5 -2.5 -2.5
			vertex 6.666666666666667 -2.5 -2.5
		endloop
	endfacet
	facet normal 0 -1 0
		outer loop
			vertex 5 -2.5 2.5
			vertex 6.666666666666667 -2.5 -2.5
			vertex 8.333333333333334 -2.5 2.5
		endloop
	endfacet
	facet normal 0 -1 0
		outer loop
			vertex 8.333333333333332 -2.5 2.5
			vertex 6.666666666666666 -2.5 -2.5
			vertex 9.166666666666666 -2.5 -2.5
		endloop
	endfacet
	facet normal 0 -1 0
		outer loop
			vertex 8.333333333333332 -2.5 2.5
			vertex 9.166666666666666 -2.5 -2.5
			vertex 10 -2.5 -2.5
		endloop
	endfacet
	facet normal 0 -1 0
		outer loop
			vertex 8.333333333333332 -2.5 2.5
			vertex 10 -2.5 -2.5
			vertex 10 -2.5 2.5
		endloop
	endfacet
	facet normal 0 -1 0
		outer loop
			vertex -10 -2.5 7.5
			vertex -10 -2.5 2.5
			vertex -5 -2.5 3.75
		endloop
	endfacet
	facet normal 0 -1 0
		outer loop
			vertex -10 -2.5 7.5
			vertex -5 -2.5 3.75
			vertex -5 -2.5 7.083333333333333
		endloop
	endfacet
	facet normal 0 -1 0
		outer loop
			vertex -10 -2.5 7.5
			vertex -5 -2.5 7.083333333333333
			vertex -5 -2.5 7.5
		endloop
	endfacet
	facet normal 0 -1 0
		outer loop
			vertex -10 -2.5 2.5
			vertex -5 -2.5 2.5
			vertex -5 -2.5 3.75
		endloop
	endfacet
	facet normal 0 -1 0
		outer loop
			vertex -10 -2.5 2.5
			vertex -10 -2.5 -2.5
			vertex -8.333333333333332 -2.5 -2.5
		endloop
	endfacet
	facet normal 0 -1 0
		outer loop
			vertex -10 -2.5 2.5
			vertex -8.333333333333332 -2.5 -2.5
			vertex -6.666666666666666 -2.5 2.5
		endloop
	endfacet
	facet normal 0 -1 0
		outer loop
			vertex -6.666666666666667 -2.5 2.5
			vertex -8.333333333333334 -2.5 -2.5
			vertex -5.833333333333334 -2.5 -2.5
		endloop
	endfacet
	facet normal 0 -1 0
		outer loop
			vertex -6.666666666666667 -2.5 2.5
			vertex -5.833333333333334 -2.5 -2.5
			vertex -5 -2.5 -2.5
		endloop
	endfacet
	facet normal 0 -1 0
		outer loop
			vertex -6.666666666666667 -2.5 2.5
			vertex -5 -2.5 -2.5
			vertex -5 -2.5 2.5
		endloop
	endfacet
	facet normal 0 -1 0
		outer loop
			vertex -10 -5 -7
			vertex 10 -5 -3
			vertex 10 -5 -2.5
		endloop
	endfacet
	facet normal 0 -1 0
		outer loop
			vertex -10 -5 -7
			vertex 10 -5 -2.5
			vertex -10 -5 -2.5
		endloop
	endfacet
	facet normal 0 -1 0
		outer loop
			vertex -10 -5 -7.5
			vertex 10 -5 -7.5
			vertex 10 -5 -3
		endloop
	endfacet
	facet normal 0 -1 0
		outer loop
			vertex -10 -5 -7.5
			vertex 10 -5 -3
			vertex -10 -5 -7
		endloop
	endfacet
	facet normal 0 0 1
		outer loop
			vertex -10 -4 -2.5
			vertex -6.25 -2.5 -2.5
			vertex -10 -2.5 -2.5
		endloop
	endfacet
	facet normal 0 0 1
		outer loop
			vertex -10 -5 -2.5
			vertex 10 -5 -2.5
			vertex 10 -2.5 -2.5
		endloop
	endfacet
	facet normal 0 0 1
		outer loop
			vertex -10 -5 -2.5
			vertex 10 -2.5 -2.5
			vertex -6.25 -2.5 -2.5
		endloop
	endfacet
	facet normal 0 0 1
		outer loop
			vertex -10 -5 -2.5
			vertex -6.25 -2.5 -2.5
			vertex -10 -4 -2.5
		endloop
	endfacet
	facet normal 0 0 -1
		outer loop
			vertex 10 -4 -7.5
			vertex 6.25 -2.5 -7.5
			vertex 10 -2.5 -7.5
		endloop
	endfacet
	facet normal 0 0 -1
		outer loop
			vertex 10 -5 -7.5
			vertex -10 -5 -7.5
			vertex -10 -2.5 -7.5
		endloop
	endfacet
	facet normal 0 0 -1
		outer loop
			vertex 10 -5 -7.5
			vertex -10 -2.5 -7.5
			vertex 6.25 -2.5 -7.5
		endloop
	endfacet
	facet normal 0 0 -1
		outer loop
			vertex 10 -5 -7.5
			vertex 6.25 -2.5 -7.5
			vertex 10 -4 -7.5
		endloop
	endfacet
	facet normal 0 0 1
		outer loop
			vertex -5 -1.25 7.5
			vertex 5 1.25 7.5
			vertex -5 2.083333333333333 7.5
		endloop
	endfacet
	facet normal 0 0 1
		outer loop
			vertex -5 2.0833333333333335 7.5
			vertex 5 1.25 7.5
			vertex 5 2.5 7.5
		endloop
	endfacet
	facet normal 0 0 1
		outer loop
			vertex -5 2.0833333333333335 7.5
			vertex 5 2.5 7.5
			vertex -5 2.5 7.5
		endloop
	endfacet
	facet normal 0 0 1
		outer loop
			vertex -5 -2.5 7.5
			vertex 5 -2.5 7.5
			vertex 5 1.25 7.5
		endloop
	endfacet
	facet normal 0 0 1
		outer loop
			vertex -5 -2.5 7.5
			vertex 5 1.25 7.5
			vertex -5 -1.25 7.5
		endloop
	endfacet
	facet normal 0 0 1
		outer loop
			vertex 5 1.25 7.5
			vertex 10 2.5 7.5
			vertex 5 2.5 7.5
		endloop
	endfacet
	facet normal 0 0 1
		outer loop
			vertex 5 -2.5 7.5
			vertex 10 -2.5 7.5
			vertex 10 2.5 7.5
		endloop
	endfacet
	facet normal 0 0 1
		outer loop
			vertex 5 -2.5 7.5
			vertex 10 2.5 7.5
			vertex 5 1.25 7.5
		endloop
	endfacet
	facet normal 0 0 1
		outer loop
			vertex -10 2.5 7.5
			vertex -10 -2.5 7.5
			vertex -5 -1.25 7.5
		endloop
	endfacet
	facet normal 0 0 1
		outer loop
			vertex -10 2.5 7.5
			vertex -5 -1.25 7.5
			vertex -5 2.083333333333333 7.5
		endloop
	endfacet
	facet normal 0 0 1
		outer loop
			vertex -10 2.5 7.5
			vertex -5 2.0833333333333335 7.5
			vertex -5 2.5 7.5
		endloop
	endfacet
	facet normal 0 0 1
		outer loop
			vertex -10 -2.5 7.5
			vertex -5 -2.5 7.5
			vertex -5 -1.25 7.5
		endloop
	endfacet
	facet normal 0 0 -1
		outer loop
			vertex 5 -1.25 2.5
			vertex -5 1.25 2.5
			vertex -5 2.5 2.5
		endloop
	endfacet
	facet normal 0 0 -1
		outer loop
			vertex 5 -1.25 2.5
			vertex -5 2.5 2.5
			vertex 5 2.5 2.5
		endloop
	endfacet
	facet normal 0 0 -1
		outer loop
			vertex 5 -2.5 2.5
			vertex -5 -2.5 2.5
			vertex -5 0.8333333333333335 2.5
		endloop
	endfacet
	facet normal 0 0 -1
		outer loop
			vertex 5 -2.5 2.5
			vertex -5 0.833333333333333 2.5
			vertex -5 1.25 2.5
		endloop
	endfacet
	facet normal 0 0 -1
		outer loop
			vertex 5 -2.5 2.5
			vertex -5 1.25 2.5
			vertex 5 -1.25 2.5
		endloop
	endfacet
	facet normal -1 0 0
		outer loop
			vertex 5 -0.8333333333333335 -2.5
			vertex 5 0.833333333333333 2.5
			vertex 5 1.6666666666666665 -2.5
		endloop
	endfacet
	facet normal -1 0 0
		outer loop
			vertex 5 1.6666666666666665 -2.5
			vertex 5 0.833333333333333 2.5
			vertex 5 2.5 2.5
		endloop
	endfacet
	facet normal -1 0 0
		outer loop
			vertex 5 1.6666666666666665 -2.5
			vertex 5 2.5 2.5
			vertex 5 2.5 -2.5
		endloop
	endfacet
	facet normal -1 0 0
		outer loop
			vertex 5 -2.5 -2.5
			vertex 5 -2.5 2.5
			vertex 5 0.8333333333333335 2.5
		endloop
	endfacet
	facet normal -1 0 0
		outer loop
			vertex 5 -2.5 -2.5
			vertex 5 0.8333333333333335 2.5
			vertex 5 -0.8333333333333333 -2.5
		endloop
	endfacet
	facet normal 1 0 0
		outer loop
			vertex -5 -0.8333333333333335 2.5
			vertex -5 0.8333333333333333 -2.5
			vertex -5 2.5 -2.5
		endloop
	endfacet
	facet normal 1 0 0
		outer loop
			vertex -5 -0.8333333333333335 2.5
			vertex -5 2.5 -2.5
			vertex -5 2.5 2.5
		endloop
	endfacet
	facet normal 1 0 0
		outer loop
			vertex -5 -2.5 2.5
			vertex -5 -2.5 -2.5
			vertex -5 0 -2.5
		endloop
	endfacet
	facet normal 1 0 0
		outer loop
			vertex -5 -2.5 2.5
			vertex -5 0 -2.5
			vertex -5 0.8333333333333335 -2.5
		endloop
	endfacet
	facet normal 1 0 0
		outer loop
			vertex -5 -2.5 2.5
			vertex -5 0.8333333333333335 -2.5
			vertex -5 -0.833333333333333 2.5
		endloop
	endfacet
	facet normal 0 0 1
		outer loop
			vertex -5 -2 -2.5
			vertex 5 2 -2.5
			vertex 5 2.5 -2.5
		endloop
	endfacet
	facet normal 0 0 1
		outer loop
			vertex -5 -2 -2.5
			vertex 5 2.5 -2.5
			vertex -5 2.5 -2.5
		endloop
	endfacet
	facet normal 0 0 1
		outer loop
			vertex 5 2 -2.5
			vertex -5 -2 -2.5
			vertex -5 -2.5 -2.5
		endloop
	endfacet
	facet normal 0 0 1
		outer loop
			vertex 5 2 -2.5
			vertex -5 -2.5 -2.5
			vertex 5 -2.5 -2.5
		endloop
	endfacet
	facet normal 0 0 -1
		outer loop
			vertex 5 -2 -7.5
			vertex -5 2 -7.5
			vertex -5 2.5 -7.5
		endloop
	endfacet
	facet normal 0 0 -1
		outer loop
			vertex 5 -2 -7.5
			vertex -5 2.5 -7.5
			vertex 5 2.5 -7.5
		endloop
	endfacet
	facet normal 0 0 -1
		outer loop
			vertex -5 2 -7.5
			vertex 5 -2 -7.5
			vertex 5 -2.5 -7.5
		endloop
	endfacet
	facet normal 0 0 -1
		outer loop
			vertex -5 2 -7.5
			vertex 5 -2.5 -7.5
			vertex -5 -2.5 -7.5
		endloop
	endfacet
	facet normal 0 0 -1
		outer loop
			vertex -5 2.5 -7.5
			vertex -5 -2.5 -7.5
			vertex -10 2.5 -7.5
		endloop
	endfacet
	facet normal 0 0 -1
		outer loop
			vertex -5 -2.5 -7.5
			vertex -10 -2.5 -7.5
			vertex -10 2.5 -7.5
		endloop
	endfacet
	facet normal 0 0 -1
		outer loop
			vertex 10 2.5 -7.5
			vertex 10 -2.5 -7.5
			vertex 5 2.5 -7.5
		endloop
	endfacet
	facet normal 0 0 -1
		outer loop
			vertex 10 -2.5 -7.5
			vertex 5 -2.5 -7.5
			vertex 5 2.5 -7.5
		endloop
	endfacet
endsolid exported
