solid exported
	facet normal 1 0 0
		outer loop
			vertex 60 2.5 7.5
			vertex 60 -2.5 7.5
			vertex 60 2.5 2.5
		endloop
	endfacet
	facet normal 1 0 0
		outer loop
			vertex 60 -2.5 7.5
			vertex 60 -2.5 2.5
			vertex 60 2.5 2.5
		endloop
	endfacet
	facet normal 1 0 0
		outer loop
			vertex 60 2.5 2.5
			vertex 60 -0.833333333333333 2.5
			vertex 60 0.8333333333333335 -2.5
		endloop
	endfacet
	facet normal 1 0 0
		outer loop
			vertex 60 2.5 2.5
			vertex 60 0.8333333333333335 -2.5
			vertex 60 2.5 -2.5
		endloop
	endfacet
	facet normal 1 0 0
		outer loop
			vertex 60 -0.8333333333333335 2.5
			vertex 60 -2.5 2.5
			vertex 60 -2.5 -2.5
		endloop
	endfacet
	facet normal 1 0 0
		outer loop
			vertex 60 -0.8333333333333335 2.5
			vertex 60 -2.5 -2.5
			vertex 60 -1.6666666666666667 -2.5
		endloop
	endfacet
	facet normal 1 0 0
		outer loop
			vertex 60 -0.8333333333333335 2.5
			vertex 60 -1.6666666666666667 -2.5
			vertex 60 0.8333333333333333 -2.5
		endloop
	endfacet
	facet normal 1 0 0
		outer loop
			vertex 62.5 5 -2.5
			vertex 62.5 -5 -2.5
			vertex 62.5 5 -7.5
		endloop
	endfacet
	facet normal 1 0 0
		outer loop
			vertex 62.5 -5 -2.5
			vertex 62.5 -5 -7.5
			vertex 62.5 5 -7.5
		endloop
	endfacet
	facet normal 0 1 0
		outer loop
			vertex 60 5 -7.4
			vertex 62.5 5 -7.5
			vertex 60 5 -7.5
		endloop
	endfacet
	facet normal 0 1 0
		outer loop
			vertex 60 5 -2.5
			vertex 62.5 5 -2.5
			vertex 62.5 5 -7.5
		endloop
	endfacet
	facet normal 0 1 0
		outer loop
			vertex 60 5 -2.5
			vertex 62.5 5 -7.5
			vertex 60 5 -7.4
		endloop
	endfacet
	facet normal 0 -1 0
		outer loop
			vertex 60 -5 -2.5999999999999996
			vertex 62.5 -5 -2.5
			vertex 60 -5 -2.5
		endloop
	endfacet
	facet normal 0 -1 0
		outer loop
			vertex 60 -5 -7.5
			vertex 62.5 -5 -7.5
			vertex 62.5 -5 -2.5
		endloop
	endfacet
	facet normal 0 -1 0
		outer loop
			vertex 60 -5 -7.5
			vertex 62.5 -5 -2.5
			vertex 60 -5 -2.6
		endloop
	endfacet
	facet normal 0 0 1
		outer loop
			vertex 60 4.800000000000001 -2.5
			vertex 62.5 5 -2.5
			vertex 60 5 -2.5
		endloop
	endfacet
	facet normal 0 0 1
		outer loop
			vertex 60 -5 -2.5
			vertex 62.5 -5 -2.5
			vertex 62.5 5 -2.5
		endloop
	endfacet
	facet normal 0 0 1
		outer loop
			vertex 60 -5 -2.5
			vertex 62.5 5 -2.5
			vertex 60 4.8 -2.5
		endloop
	endfacet
	facet normal 0 0 -1
		outer loop
			vertex 62.5 5 -7.5
			vertex 62.5 -5 -7.5
			vertex 60 -4.8 -7.5
		endloop
	endfacet
	facet normal 0 0 -1
		outer loop
			vertex 62.5 5 -7.5
			vertex 60 -4.8 -7.5
			vertex 60 5 -7.5
		endloop
	endfacet
	facet normal 0 0 -1
		outer loop
			vertex 62.5 -5 -7.5
			vertex 60 -5 -7.5
			vertex 60 -4.800000000000001 -7.5
		endloop
	endfacet
	facet normal -1 0 0
		outer loop
			vertex -60 2.5 2.5
			vertex -60 -2.5 2.5
			vertex -60 2.5 7.5
		endloop
	endfacet
	facet normal -1 0 0
		outer loop
			vertex -60 -2.5 2.5
			vertex -60 -2.5 7.5
			vertex -60 2.5 7.5
		endloop
	endfacet
	facet normal -1 0 0
		outer loop
			vertex -60 2.5 2.5
			vertex -60 2.5 -2.5
			vertex -60 0 -2.5
		endloop
	endfacet
	facet normal -1 0 0
		outer loop
			vertex -60 2.5 2.5
			vertex -60 0 -2.5
			vertex -60 -0.8333333333333333 -2.5
		endloop
	endfacet
	facet normal -1 0 0
		outer loop
			vertex -60 2.5 2.5
			vertex -60 -0.8333333333333333 -2.5
			vertex -60 0.8333333333333335 2.5
		endloop
	endfacet
	facet normal -1 0 0
		outer loop
			vertex -60 0.833333333333333 2.5
			vertex -60 -0.8333333333333335 -2.5
			vertex -60 -2.5 -2.5
		endloop
	endfacet
	facet normal -1 0 0
		outer loop
			vertex -60 0.833333333333333 2.5
			vertex -60 -2.5 -2.5
			vertex -60 -2.5 2.5
		endloop
	endfacet
	facet normal -1 0 0
		outer loop
			vertex -62.5 5 -7.5
			vertex -62.5 -5 -7.5
			vertex -62.5 5 -2.5
		endloop
	endfacet
	facet normal -1 0 0
		outer loop
			vertex -62.5 -5 -7.5
			vertex -62.5 -5 -2.5
			vertex -62.5 5 -2.5
		endloop
	endfacet
	facet normal 0 1 0
		outer loop
			vertex -62.5 5 -7.5
			vertex -62.5 5 -2.5
			vertex -60 5 -2.6
		endloop
	endfacet
	facet normal 0 1 0
		outer loop
			vertex -62.5 5 -7.5
			vertex -60 5 -2.6
			vertex -60 5 -7.5
		endloop
	endfacet
	facet normal 0 1 0
		outer loop
			vertex -62.5 5 -2.5
			vertex -60 5 -2.5
			vertex -60 5 -2.6000000000000005
		endloop
	endfacet
	facet normal 0 -1 0
		outer loop
			vertex -62.5 -5 -2.5
			vertex -62.5 -5 -7.5
			vertex -60 -5 -7.4
		endloop
	endfacet
	facet normal 0 -1 0
		outer loop
			vertex -62.5 -5 -2.5
			vertex -60 -5 -7.4
			vertex -60 -5 -2.5
		endloop
	endfacet
	facet normal 0 -1 0
		outer loop
			vertex -62.5 -5 -7.5
			vertex -60 -5 -7.5
			vertex -60 -5 -7.4
		endloop
	endfacet
	facet normal 0 0 1
		outer loop
			vertex -62.5 5 -2.5
			vertex -62.5 -5 -2.5
			vertex -60 -4.8 -2.5
		endloop
	endfacet
	facet normal 0 0 1
		outer loop
			vertex -62.5 5 -2.5
			vertex -60 -4.8 -2.5
			vertex -60 5 -2.5
		endloop
	endfacet
	facet normal 0 0 1
		outer loop
			vertex -62.5 -5 -2.5
			vertex -60 -5 -2.5
			vertex -60 -4.8 -2.5
		endloop
	endfacet
	facet normal 0 0 -1
		outer loop
			vertex -60 4.8 -7.5
			vertex -62.5 5 -7.5
			vertex -60 5 -7.5
		endloop
	endfacet
	facet normal 0 0 -1
		outer loop
			vertex -60 -5 -7.5
			vertex -62.5 -5 -7.5
			vertex -62.5 5 -7.5
		endloop
	endfacet
	facet normal 0 0 -1
		outer loop
			vertex -60 -5 -7.5
			vertex -62.5 5 -7.5
			vertex -60 4.8 -7.5
		endloop
	endfacet
	facet normal 0 1 0
		outer loop
			vertex -55 2.5 7.291666666666667
			vertex 55 2.5 2.708333333333333
			vertex -55 2.5 2.5090579710144927
		endloop
	endfacet
	facet normal 0 1 0
		outer loop
			vertex -55 2.5 2.5090579710144927
			vertex 55 2.5 2.708333333333333
			vertex 55 2.5 2.5
		endloop
	endfacet
	facet normal 0 1 0
		outer loop
			vertex -55 2.5 2.5090579710144927
			vertex 55 2.5 2.5
			vertex -55 2.5 2.5
		endloop
	endfacet
	facet normal 0 1 0
		outer loop
			vertex -55 2.5 7.5
			vertex 55 2.5 7.5
			vertex 55 2.5 2.7083333333333335
		endloop
	endfacet
	facet normal 0 1 0
		outer loop
			vertex -55 2.5 7.5
			vertex 55 2.5 2.7083333333333335
			vertex -55 2.5 7.291666666666666
		endloop
	endfacet
	facet normal 0 1 0
		outer loop
			vertex 55 2.5 2.708333333333333
			vertex 60 2.5 2.5
			vertex 55 2.5 2.5
		endloop
	endfacet
	facet normal 0 1 0
		outer loop
			vertex 55 2.5 7.5
			vertex 60 2.5 7.5
			vertex 60 2.5 2.5
		endloop
	endfacet
	facet normal 0 1 0
		outer loop
			vertex 55 2.5 7.5
			vertex 60 2.5 2.5
			vertex 55 2.5 2.7083333333333335
		endloop
	endfacet
	facet normal 0 1 0
		outer loop
			vertex 55 2.5 -2.5
			vertex 55 2.5 2.5
			vertex 56.666666666666664 2.5 2.5
		endloop
	endfacet
	facet normal 0 1 0
		outer loop
			vertex 55 2.5 -2.5
			vertex 56.666666666666664 2.5 2.5
			vertex 55.83333333333333 2.5 -2.5
		endloop
	endfacet
	facet normal 0 1 0
		outer loop
			vertex 55.83333333333333 2.5 -2.5
			vertex 56.666666666666664 2.5 2.5
			vertex 58.33333333333333 2.5 -2.5
		endloop
	endfacet
	facet normal 0 1 0
		outer loop
			vertex 56.666666666666664 2.5 2.5
			vertex 60 2.5 2.5
			vertex 60 2.5 -2.5
		endloop
	endfacet
	facet normal 0 1 0
		outer loop
			vertex 56.666666666666664 2.5 2.5
			vertex 60 2.5 -2.5
			vertex 58.33333333333333 2.5 -2.5
		endloop
	endfacet
	facet normal 0 1 0
		outer loop
			vertex -60 2.5 2.5
			vertex -60 2.5 7.5
			vertex -55 2.5 7.291666666666667
		endloop
	endfacet
	facet normal 0 1 0
		outer loop
			vertex -60 2.5 2.5
			vertex -55 2.5 7.291666666666667
			vertex -55 2.5 2.5090579710144927
		endloop
	endfacet
	facet normal 0 1 0
		outer loop
			vertex -60 2.5 2.5
			vertex -55 2.5 2.5090579710144927
			vertex -55 2.5 2.5
		endloop
	endfacet
	facet normal 0 1 0
		outer loop
			vertex -60 2.5 7.5
			vertex -55 2.5 7.5
			vertex -55 2.5 7.291666666666666
		endloop
	endfacet
	facet normal 0 1 0
		outer loop
			vertex -60 2.5 -2.5
			vertex -60 2.5 2.5
			vertex -58.333333333333336 2.5 2.5
		endloop
	endfacet
	facet normal 0 1 0
		outer loop
			vertex -60 2.5 -2.5
			vertex -58.333333333333336 2.5 2.5
			vertex -59.16666666666667 2.5 -2.5
		endloop
	endfacet
	facet normal 0 1 0
		outer loop
			vertex -59.16666666666667 2.5 -2.5
			vertex -58.333333333333336 2.5 2.5
			vertex -56.66666666666667 2.5 -2.5
		endloop
	endfacet
	facet normal 0 1 0
		outer loop
			vertex -58.333333333333336 2.5 2.5
			vertex -55 2.5 2.5
			vertex -55 2.5 -2.5
		endloop
	endfacet
	facet normal 0 1 0
		outer loop
			vertex -58.333333333333336 2.5 2.5
			vertex -55 2.5 -2.5
			vertex -56.66666666666667 2.5 -2.5
		endloop
	endfacet
	facet normal 0 1 0
		outer loop
			vertex -60 5 -2.6
			vertex 60 5 -7.4
			vertex 60 5 -7.5
		endloop
	endfacet
	facet normal 0 1 0
		outer loop
			vertex -60 5 -2.6
			vertex 60 5 -7.5
			vertex -60 5 -7.5
		endloop
	endfacet
	facet normal 0 1 0
		outer loop
			vertex -60 5 -2.5
			vertex 60 5 -2.5
			vertex 60 5 -7.4
		endloop
	endfacet
	facet normal 0 1 0
		outer loop
			vertex -60 5 -2.5
			vertex 60 5 -7.4
			vertex -60 5 -2.6000000000000005
		endloop
	endfacet
	facet normal 0 0 1
		outer loop
			vertex 31.249999999999986 2.5 -2.5
			vertex 60 4.800000000000001 -2.5
			vertex 60 5 -2.5
		endloop
	endfacet
	facet normal 0 0 1
		outer loop
			vertex 31.249999999999986 2.5 -2.5
			vertex 60 5 -2.5
			vertex -60 5 -2.5
		endloop
	endfacet
	facet normal 0 0 1
		outer loop
			vertex 31.249999999999986 2.5 -2.5
			vertex -60 5 -2.5
			vertex -60 2.4999999999999996 -2.5
		endloop
	endfacet
	facet normal 0 0 1
		outer loop
			vertex 60 2.5 -2.5
			vertex 60 4.8 -2.5
			vertex 31.250000000000004 2.5 -2.5
		endloop
	endfacet
	facet normal 0 0 -1
		outer loop
			vertex -31.25 2.499999999999999 -7.5
			vertex -60 4.8 -7.5
			vertex -60 5 -7.5
		endloop
	endfacet
	facet normal 0 0 -1
		outer loop
			vertex -31.25 2.499999999999999 -7.5
			vertex -60 5 -7.5
			vertex 60 5 -7.5
		endloop
	endfacet
	facet normal 0 0 -1
		outer loop
			vertex -31.25 2.499999999999999 -7.5
			vertex 60 5 -7.5
			vertex 60 2.4999999999999996 -7.5
		endloop
	endfacet
	facet normal 0 0 -1
		outer loop
			vertex -60 2.5 -7.5
			vertex -60 4.8 -7.5
			vertex -31.250000000000007 2.5 -7.5
		endloop
	endfacet
	facet normal 0 -1 0
		outer loop
			vertex -55 -2.5 2.7083333333333335
			vertex 55 -2.5 7.291666666666667
			vertex -55 -2.5 7.490942028985507
		endloop
	endfacet
	facet normal 0 -1 0
		outer loop
			vertex -55 -2.5 7.490942028985507
			vertex 55 -2.5 7.291666666666667
			vertex 55 -2.5 7.5
		endloop
	endfacet
	facet normal 0 -1 0
		outer loop
			vertex -55 -2.5 7.490942028985507
			vertex 55 -2.5 7.5
			vertex -55 -2.5 7.5
		endloop
	endfacet
	facet normal 0 -1 0
		outer loop
			vertex -55 -2.5 2.5
			vertex 55 -2.5 2.5
			vertex 55 -2.5 7.291666666666667
		endloop
	endfacet
	facet normal 0 -1 0
		outer loop
			vertex -55 -2.5 2.5
			vertex 55 -2.5 7.291666666666667
			vertex -55 -2.5 2.708333333333333
		endloop
	endfacet
	facet normal 0 -1 0
		outer loop
			vertex 55 -2.5 7.291666666666667
			vertex 60 -2.5 7.5
			vertex 55 -2.5 7.5
		endloop
	endfacet
	facet normal 0 -1 0
		outer loop
			vertex 55 -2.5 2.5
			vertex 60 -2.5 2.5
			vertex 60 -2.5 7.5
		endloop
	endfacet
	facet normal 0 -1 0
		outer loop
			vertex 55 -2.5 2.5
			vertex 60 -2.5 7.5
			vertex 55 -2.5 7.291666666666667
		endloop
	endfacet
	facet normal 0 -1 0
		outer loop
			vertex 55 -2.5 2.5
			vertex 55 -2.5 -2.5
			vertex 56.66666666666667 -2.5 -2.5
		endloop
	endfacet
	facet normal 0 -1 0
		outer loop
			vertex 55 -2.5 2.5
			vertex 56.66666666666667 -2.5 -2.5
			vertex 58.333333333333336 -2.5 2.5
		endloop
	endfacet
	facet normal 0 -1 0
		outer loop
			vertex 58.333333333333336 -2.5 2.5
			vertex 56.66666666666667 -2.5 -2.5
			vertex 59.16666666666667 -2.5 -2.5
		endloop
	endfacet
	facet normal 0 -1 0
		outer loop
			vertex 58.333333333333336 -2.5 2.5
			vertex 59.16666666666667 -2.5 -2.5
			vertex 60 -2.5 -2.5
		endloop
	endfacet
	facet normal 0 -1 0
		outer loop
			vertex 58.333333333333336 -2.5 2.5
			vertex 60 -2.5 -2.5
			vertex 60 -2.5 2.5
		endloop
	endfacet
	facet normal 0 -1 0
		outer loop
			vertex -60 -2.5 7.5
			vertex -60 -2.5 2.5
			vertex -55 -2.5 2.7083333333333335
		endloop
	endfacet
	facet normal 0 -1 0
		outer loop
			vertex -60 -2.5 7.5
			vertex -55 -2.5 2.7083333333333335
			vertex -55 -2.5 7.490942028985507
		endloop
	endfacet
	facet normal 0 -1 0
		outer loop
			vertex -60 -2.5 7.5
			vertex -55 -2.5 7.490942028985507
			vertex -55 -2.5 7.5
		endloop
	endfacet
	facet normal 0 -1 0
		outer loop
			vertex -60 -2.5 2.5
			vertex -55 -2.5 2.5
			vertex -55 -2.5 2.708333333333333
		endloop
	endfacet
	facet normal 0 -1 0
		outer loop
			vertex -60 -2.5 2.5
			vertex -60 -2.5 -2.5
			vertex -58.33333333333333 -2.5 -2.5
		endloop
	endfacet
	facet normal 0 -1 0
		outer loop
			vertex -60 -2.5 2.5
			vertex -58.33333333333333 -2.5 -2.5
			vertex -56.666666666666664 -2.5 2.5
		endloop
	endfacet
	facet normal 0 -1 0
		outer loop
			vertex -56.666666666666664 -2.5 2.5
			vertex -58.33333333333333 -2.5 -2.5
			vertex -55.83333333333333 -2.5 -2.5
		endloop
	endfacet
	facet normal 0 -1 0
		outer loop
			vertex -56.666666666666664 -2.5 2.5
			vertex -55.83333333333333 -2.5 -2.5
			vertex -55 -2.5 -2.5
		endloop
	endfacet
	facet normal 0 -1 0
		outer loop
			vertex -56.666666666666664 -2.5 2.5
			vertex -55 -2.5 -2.5
			vertex -55 -2.5 2.5
		endloop
	endfacet
	facet normal 0 -1 0
		outer loop
			vertex -60 -5 -7.4
			vertex 60 -5 -2.5999999999999996
			vertex 60 -5 -2.5
		endloop
	endfacet
	facet normal 0 -1 0
		outer loop
			vertex -60 -5 -7.4
			vertex 60 -5 -2.5
			vertex -60 -5 -2.5
		endloop
	endfacet
	facet normal 0 -1 0
		outer loop
			vertex -60 -5 -7.5
			vertex 60 -5 -7.5
			vertex 60 -5 -2.6
		endloop
	endfacet
	facet normal 0 -1 0
		outer loop
			vertex -60 -5 -7.5
			vertex 60 -5 -2.6
			vertex -60 -5 -7.4
		endloop
	endfacet
	facet normal 0 0 1
		outer loop
			vertex -60 -4.8 -2.5
			vertex -31.250000000000007 -2.5 -2.5
			vertex -60 -2.5000000000000004 -2.5
		endloop
	endfacet
	facet normal 0 0 1
		outer loop
			vertex -60 -5 -2.5
			vertex 60 -5 -2.5
			vertex 60 -2.5 -2.5
		endloop
	endfacet
	facet normal 0 0 1
		outer loop
			vertex -60 -5 -2.5
			vertex 60 -2.5 -2.5
			vertex -31.249999999999996 -2.5 -2.5
		endloop
	endfacet
	facet normal 0 0 1
		outer loop
			vertex -60 -5 -2.5
			vertex -31.249999999999996 -2.5 -2.5
			vertex -60 -4.8 -2.5
		endloop
	endfacet
	facet normal 0 0 -1
		outer loop
			vertex 60 -4.8 -7.5
			vertex 31.249999999999996 -2.5 -7.5
			vertex 60 -2.5000000000000004 -7.5
		endloop
	endfacet
	facet normal 0 0 -1
		outer loop
			vertex 60 -5 -7.5
			vertex -60 -5 -7.5
			vertex -60 -2.5 -7.5
		endloop
	endfacet
	facet normal 0 0 -1
		outer loop
			vertex 60 -5 -7.5
			vertex -60 -2.5 -7.5
			vertex 31.249999999999993 -2.5 -7.5
		endloop
	endfacet
	facet normal 0 0 -1
		outer loop
			vertex 60 -5 -7.5
			vertex 31.249999999999993 -2.5 -7.5
			vertex 60 -4.800000000000001 -7.5
		endloop
	endfacet
	facet normal 0 0 1
		outer loop
			vertex -55 -2.2916666666666665 7.5
			vertex 55 2.291666666666667 7.5
			vertex -55 2.4909420289855073 7.5
		endloop
	endfacet
	facet normal 0 0 1
		outer loop
			vertex -55 2.4909420289855073 7.5
			vertex 55 2.291666666666667 7.5
			vertex 55 2.5 7.5
		endloop
	endfacet
	facet normal 0 0 1
		outer loop
			vertex -55 2.4909420289855073 7.5
			vertex 55 2.5 7.5
			vertex -55 2.5 7.5
		endloop
	endfacet
	facet normal 0 0 1
		outer loop
			vertex -55 -2.5 7.5
			vertex 55 -2.5 7.5
			vertex 55 2.2916666666666665 7.5
		endloop
	endfacet
	facet normal 0 0 1
		outer loop
			vertex -55 -2.5 7.5
			vertex 55 2.2916666666666665 7.5
			vertex -55 -2.2916666666666665 7.5
		endloop
	endfacet
	facet normal 0 0 1
		outer loop
			vertex 55 2.291666666666667 7.5
			vertex 60 2.5 7.5
			vertex 55 2.5 7.5
		endloop
	endfacet
	facet normal 0 0 1
		outer loop
			vertex 55 -2.5 7.5
			vertex 60 -2.5 7.5
			vertex 60 2.5 7.5
		endloop
	endfacet
	facet normal 0 0 1
		outer loop
			vertex 55 -2.5 7.5
			vertex 60 2.5 7.5
			vertex 55 2.2916666666666665 7.5
		endloop
	endfacet
	facet normal 0 0 1
		outer loop
			vertex -60 2.5 7.5
			vertex -60 -2.5 7.5
			vertex -55 -2.2916666666666665 7.5
		endloop
	endfacet
	facet normal 0 0 1
		outer loop
			vertex -60 2.5 7.5
			vertex -55 -2.2916666666666665 7.5
			vertex -55 2.4909420289855073 7.5
		endloop
	endfacet
	facet normal 0 0 1
		outer loop
			vertex -60 2.5 7.5
			vertex -55 2.4909420289855073 7.5
			vertex -55 2.5 7.5
		endloop
	endfacet
	facet normal 0 0 1
		outer loop
			vertex -60 -2.5 7.5
			vertex -55 -2.5 7.5
			vertex -55 -2.2916666666666665 7.5
		endloop
	endfacet
	facet normal 0 0 -1
		outer loop
			vertex 55 -2.2916666666666665 2.5
			vertex -55 2.2916666666666665 2.5
			vertex -55 2.5 2.5
		endloop
	endfacet
	facet normal 0 0 -1
		outer loop
			vertex 55 -2.2916666666666665 2.5
			vertex -55 2.5 2.5
			vertex 55 2.5 2.5
		endloop
	endfacet
	facet normal 0 0 -1
		outer loop
			vertex 55 -2.5 2.5
			vertex -55 -2.5 2.5
			vertex -55 2.282608695652174 2.5
		endloop
	endfacet
	facet normal 0 0 -1
		outer loop
			vertex 55 -2.5 2.5
			vertex -55 2.282608695652174 2.5
			vertex -55 2.2916666666666665 2.5
		endloop
	endfacet
	facet normal 0 0 -1
		outer loop
			vertex 55 -2.5 2.5
			vertex -55 2.2916666666666665 2.5
			vertex 55 -2.291666666666667 2.5
		endloop
	endfacet
	facet normal -1 0 0
		outer loop
			vertex 55 -0.8333333333333335 -2.5
			vertex 55 0.833333333333333 2.5
			vertex 55 1.6666666666666665 -2.5
		endloop
	endfacet
	facet normal -1 0 0
		outer loop
			vertex 55 1.6666666666666665 -2.5
			vertex 55 0.833333333333333 2.5
			vertex 55 2.5 2.5
		endloop
	endfacet
	facet normal -1 0 0
		outer loop
			vertex 55 1.6666666666666665 -2.5
			vertex 55 2.5 2.5
			vertex 55 2.5 -2.5
		endloop
	endfacet
	facet normal -1 0 0
		outer loop
			vertex 55 -2.5 -2.5
			vertex 55 -2.5 2.5
			vertex 55 0.8333333333333335 2.5
		endloop
	endfacet
	facet normal -1 0 0
		outer loop
			vertex 55 -2.5 -2.5
			vertex 55 0.8333333333333335 2.5
			vertex 55 -0.8333333333333333 -2.5
		endloop
	endfacet
	facet normal 1 0 0
		outer loop
			vertex -55 -0.8333333333333335 2.5
			vertex -55 0.8333333333333333 -2.5
			vertex -55 2.5 -2.5
		endloop
	endfacet
	facet normal 1 0 0
		outer loop
			vertex -55 -0.8333333333333335 2.5
			vertex -55 2.5 -2.5
			vertex -55 2.5 2.5
		endloop
	endfacet
	facet normal 1 0 0
		outer loop
			vertex -55 -2.5 2.5
			vertex -55 -2.5 -2.5
			vertex -55 0 -2.5
		endloop
	endfacet
	facet normal 1 0 0
		outer loop
			vertex -55 -2.5 2.5
			vertex -55 0 -2.5
			vertex -55 0.8333333333333335 -2.5
		endloop
	endfacet
	facet normal 1 0 0
		outer loop
			vertex -55 -2.5 2.5
			vertex -55 0.8333333333333335 -2.5
			vertex -55 -0.833333333333333 2.5
		endloop
	endfacet
	facet normal 0 0 1
		outer loop
			vertex -31.250000000000007 -2.5 -2.5
			vertex 31.249999999999986 2.5 -2.5
			vertex -55 2.4999999999999996 -2.5
		endloop
	endfacet
	facet normal 0 0 1
		outer loop
			vertex -31.250000000000007 -2.5 -2.5
			vertex -55 2.4999999999999996 -2.5
			vertex -55 -2.5000000000000004 -2.5
		endloop
	endfacet
	facet normal 0 0 1
		outer loop
			vertex 55 2.5 -2.5
			vertex 31.250000000000004 2.5 -2.5
			vertex -31.249999999999996 -2.5 -2.5
		endloop
	endfacet
	facet normal 0 0 1
		outer loop
			vertex 55 2.5 -2.5
			vertex -31.249999999999996 -2.5 -2.5
			vertex 55 -2.5 -2.5
		endloop
	endfacet
	facet normal 0 0 -1
		outer loop
			vertex 31.249999999999996 -2.5 -7.5
			vertex -31.25 2.499999999999999 -7.5
			vertex 55 2.4999999999999996 -7.5
		endloop
	endfacet
	facet normal 0 0 -1
		outer loop
			vertex 31.249999999999996 -2.5 -7.5
			vertex 55 2.4999999999999996 -7.5
			vertex 55 -2.5000000000000004 -7.5
		endloop
	endfacet
	facet normal 0 0 -1
		outer loop
			vertex -55 2.5 -7.5
			vertex -31.250000000000007 2.5 -7.5
			vertex 31.249999999999993 -2.5 -7.5
		endloop
	endfacet
	facet normal 0 0 -1
		outer loop
			vertex -55 2.5 -7.5
			vertex 31.249999999999993 -2.5 -7.5
			vertex -55.00000000000001 -2.5 -7.5
		endloop
	endfacet
	facet normal 0 0 -1
		outer loop
			vertex -55 2.5 -7.5
			vertex -55 -2.5 -7.5
			vertex -60 2.5 -7.5
		endloop
	endfacet
	facet normal 0 0 -1
		outer loop
			vertex -55 -2.5 -7.5
			vertex -60 -2.5 -7.5
			vertex -60 2.5 -7.5
		endloop
	endfacet
	facet normal 0 0 -1
		outer loop
			vertex 60 2.5 -7.5
			vertex 60 -2.5 -7.5
			vertex 55 2.5 -7.5
		endloop
	endfacet
	facet normal 0 0 -1
		outer loop
			vertex 60 -2.5 -7.5
			vertex 55 -2.5 -7.5
			vertex 55 2.5 -7.5
		endloop
	endfacet
endsolid exported
