solid exported
	facet normal 1 0 0
		outer loop
			vertex 115 2.5 7.5
			vertex 115 -2.5 7.5
			vertex 115 2.5 2.5
		endloop
	endfacet
	facet normal 1 0 0
		outer loop
			vertex 115 -2.5 7.5
			vertex 115 -2.5 2.5
			vertex 115 2.5 2.5
		endloop
	endfacet
	facet normal 1 0 0
		outer loop
			vertex 115 2.5 2.5
			vertex 115 -0.833333333333333 2.5
			vertex 115 0.8333333333333335 -2.5
		endloop
	endfacet
	facet normal 1 0 0
		outer loop
			vertex 115 2.5 2.5
			vertex 115 0.8333333333333335 -2.5
			vertex 115 2.5 -2.5
		endloop
	endfacet
	facet normal 1 0 0
		outer loop
			vertex 115 -0.8333333333333335 2.5
			vertex 115 -2.5 2.5
			vertex 115 -2.5 -2.5
		endloop
	endfacet
	facet normal 1 0 0
		outer loop
			vertex 115 -0.8333333333333335 2.5
			vertex 115 -2.5 -2.5
			vertex 115 -1.6666666666666667 -2.5
		endloop
	endfacet
	facet normal 1 0 0
		outer loop
			vertex 115 -0.8333333333333335 2.5
			vertex 115 -1.6666666666666667 -2.5
			vertex 115 0.8333333333333333 -2.5
		endloop
	endfacet
	facet normal 1 0 0
		outer loop
			vertex 117.5 5 -2.5
			vertex 117.5 -5 -2.5
			vertex 117.5 5 -7.5
		endloop
	endfacet
	facet normal 1 0 0
		outer loop
			vertex 117.5 -5 -2.5
			vertex 117.5 -5 -7.5
			vertex 117.5 5 -7.5
		endloop
	endfacet
	facet normal 0 1 0
		outer loop
			vertex 115 5 -7.446808510638298
			vertex 117.5 5 -7.5
			vertex 115 5 -7.5
		endloop
	endfacet
	facet normal 0 1 0
		outer loop
			vertex 115 5 -2.5
			vertex 117.5 5 -2.5
			vertex 117.5 5 -7.5
		endloop
	endfacet
	facet normal 0 1 0
		outer loop
			vertex 115 5 -2.5
			vertex 117.5 5 -7.5
			vertex 115 5 -7.446808510638298
		endloop
	endfacet
	facet normal 0 -1 0
		outer loop
			vertex 115 -5 -2.5531914893617023
			vertex 117.5 -5 -2.5
			vertex 115 -5 -2.5
		endloop
	endfacet
	facet normal 0 -1 0
		outer loop
			vertex 115 -5 -7.5
			vertex 117.5 -5 -7.5
			vertex 117.5 -5 -2.5
		endloop
	endfacet
	facet normal 0 -1 0
		outer loop
			vertex 115 -5 -7.5
			vertex 117.5 -5 -2.5
			vertex 115 -5 -2.5531914893617023
		endloop
	endfacet
	facet normal 0 0 1
		outer loop
			vertex 115 4.8936170212765955 -2.5
			vertex 117.5 5 -2.5
			vertex 115 5 -2.5
		endloop
	endfacet
	facet normal 0 0 1
		outer loop
			vertex 115 -5 -2.5
			vertex 117.5 -5 -2.5
			vertex 117.5 5 -2.5
		endloop
	endfacet
	facet normal 0 0 1
		outer loop
			vertex 115 -5 -2.5
			vertex 117.5 5 -2.5
			vertex 115 4.8936170212765955 -2.5
		endloop
	endfacet
	facet normal 0 0 -1
		outer loop
			vertex 117.5 5 -7.5
			vertex 117.5 -5 -7.5
			vertex 115 -4.8936170212765955 -7.5
		endloop
	endfacet
	facet normal 0 0 -1
		outer loop
			vertex 117.5 5 -7.5
			vertex 115 -4.8936170212765955 -7.5
			vertex 115 5 -7.5
		endloop
	endfacet
	facet normal 0 0 -1
		outer loop
			vertex 117.5 -5 -7.5
			vertex 115 -5 -7.5
			vertex 115 -4.8936170212765955 -7.5
		endloop
	endfacet
	facet normal -1 0 0
		outer loop
			vertex -115 2.5 2.5
			vertex -115 -2.5 2.5
			vertex -115 2.5 7.5
		endloop
	endfacet
	facet normal -1 0 0
		outer loop
			vertex -115 -2.5 2.5
			vertex -115 -2.5 7.5
			vertex -115 2.5 7.5
		endloop
	endfacet
	facet normal -1 0 0
		outer loop
			vertex -115 2.5 2.5
			vertex -115 2.5 -2.5
			vertex -115 0 -2.5
		endloop
	endfacet
	facet normal -1 0 0
		outer loop
			vertex -115 2.5 2.5
			vertex -115 0 -2.5
			vertex -115 -0.8333333333333333 -2.5
		endloop
	endfacet
	facet normal -1 0 0
		outer loop
			vertex -115 2.5 2.5
			vertex -115 -0.8333333333333333 -2.5
			vertex -115 0.8333333333333335 2.5
		endloop
	endfacet
	facet normal -1 0 0
		outer loop
			vertex -115 0.833333333333333 2.5
			vertex -115 -0.8333333333333335 -2.5
			vertex -115 -2.5 -2.5
		endloop
	endfacet
	facet normal -1 0 0
		outer loop
			vertex -115 0.833333333333333 2.5
			vertex -115 -2.5 -2.5
			vertex -115 -2.5 2.5
		endloop
	endfacet
	facet normal -1 0 0
		outer loop
			vertex -117.5 5 -7.5
			vertex -117.5 -5 -7.5
			vertex -117.5 5 -2.5
		endloop
	endfacet
	facet normal -1 0 0
		outer loop
			vertex -117.5 -5 -7.5
			vertex -117.5 -5 -2.5
			vertex -117.5 5 -2.5
		endloop
	endfacet
	facet normal 0 1 0
		outer loop
			vertex -117.5 5 -7.5
			vertex -117.5 5 -2.5
			vertex -115 5 -2.5531914893617023
		endloop
	endfacet
	facet normal 0 1 0
		outer loop
			vertex -117.5 5 -7.5
			vertex -115 5 -2.5531914893617023
			vertex -115 5 -7.5
		endloop
	endfacet
	facet normal 0 1 0
		outer loop
			vertex -117.5 5 -2.5
			vertex -115 5 -2.5
			vertex -115 5 -2.5531914893617023
		endloop
	endfacet
	facet normal 0 -1 0
		outer loop
			vertex -117.5 -5 -2.5
			vertex -117.5 -5 -7.5
			vertex -115 -5 -7.446808510638298
		endloop
	endfacet
	facet normal 0 -1 0
		outer loop
			vertex -117.5 -5 -2.5
			vertex -115 -5 -7.446808510638298
			vertex -115 -5 -2.5
		endloop
	endfacet
	facet normal 0 -1 0
		outer loop
			vertex -117.5 -5 -7.5
			vertex -115 -5 -7.5
			vertex -115 -5 -7.446808510638298
		endloop
	endfacet
	facet normal 0 0 1
		outer loop
			vertex -117.5 5 -2.5
			vertex -117.5 -5 -2.5
			vertex -115 -4.8936170212765955 -2.5
		endloop
	endfacet
	facet normal 0 0 1
		outer loop
			vertex -117.5 5 -2.5
			vertex -115 -4.8936170212765955 -2.5
			vertex -115 5 -2.5
		endloop
	endfacet
	facet normal 0 0 1
		outer loop
			vertex -117.5 -5 -2.5
			vertex -115 -5 -2.5
			vertex -115 -4.8936170212765955 -2.5
		endloop
	endfacet
	facet normal 0 0 -1
		outer loop
			vertex -115 4.8936170212765955 -7.5
			vertex -117.5 5 -7.5
			vertex -115 5 -7.5
		endloop
	endfacet
	facet normal 0 0 -1
		outer loop
			vertex -115 -5 -7.5
			vertex -117.5 -5 -7.5
			vertex -117.5 5 -7.5
		endloop
	endfacet
	facet normal 0 0 -1
		outer loop
			vertex -115 -5 -7.5
			vertex -117.5 5 -7.5
			vertex -115 4.8936170212765955 -7.5
		endloop
	endfacet
	facet normal 0 1 0
		outer loop
			vertex -110 2.5 7.391304347826087
			vertex 110 2.5 2.608695652173913
			vertex -110 2.5 2.502415458937198
		endloop
	endfacet
	facet normal 0 1 0
		outer loop
			vertex -110 2.5 2.502415458937198
			vertex 110 2.5 2.608695652173913
			vertex 110 2.5 2.5
		endloop
	endfacet
	facet normal 0 1 0
		outer loop
			vertex -110 2.5 2.502415458937198
			vertex 110 2.5 2.5
			vertex -110 2.5 2.5
		endloop
	endfacet
	facet normal 0 1 0
		outer loop
			vertex -110 2.5 7.5
			vertex 110 2.5 7.5
			vertex 110 2.5 2.608695652173913
		endloop
	endfacet
	facet normal 0 1 0
		outer loop
			vertex -110 2.5 7.5
			vertex 110 2.5 2.608695652173913
			vertex -110 2.5 7.391304347826087
		endloop
	endfacet
	facet normal 0 1 0
		outer loop
			vertex 110 2.5 2.608695652173913
			vertex 115 2.5 2.5
			vertex 110 2.5 2.5
		endloop
	endfacet
	facet normal 0 1 0
		outer loop
			vertex 110 2.5 7.5
			vertex 115 2.5 7.5
			vertex 115 2.5 2.5
		endloop
	endfacet
	facet normal 0 1 0
		outer loop
			vertex 110 2.5 7.5
			vertex 115 2.5 2.5
			vertex 110 2.5 2.608695652173913
		endloop
	endfacet
	facet normal 0 1 0
		outer loop
			vertex 110 2.5 -2.5
			vertex 110 2.5 2.5
			vertex 111.66666666666667 2.5 2.5
		endloop
	endfacet
	facet normal 0 1 0
		outer loop
			vertex 110 2.5 -2.5
			vertex 111.66666666666667 2.5 2.5
			vertex 110.83333333333334 2.5 -2.5
		endloop
	endfacet
	facet normal 0 1 0
		outer loop
			vertex 110.83333333333334 2.5 -2.5
			vertex 111.66666666666667 2.5 2.5
			vertex 113.33333333333334 2.5 -2.5
		endloop
	endfacet
	facet normal 0 1 0
		outer loop
			vertex 111.66666666666667 2.5 2.5
			vertex 115 2.5 2.5
			vertex 115 2.5 -2.5
		endloop
	endfacet
	facet normal 0 1 0
		outer loop
			vertex 111.66666666666667 2.5 2.5
			vertex 115 2.5 -2.5
			vertex 113.33333333333334 2.5 -2.5
		endloop
	endfacet
	facet normal 0 1 0
		outer loop
			vertex -115 2.5 2.5
			vertex -115 2.5 7.5
			vertex -110 2.5 7.391304347826087
		endloop
	endfacet
	facet normal 0 1 0
		outer loop
			vertex -115 2.5 2.5
			vertex -110 2.5 7.391304347826087
			vertex -110 2.5 2.502415458937198
		endloop
	endfacet
	facet normal 0 1 0
		outer loop
			vertex -115 2.5 2.5
			vertex -110 2.5 2.502415458937198
			vertex -110 2.5 2.5
		endloop
	endfacet
	facet normal 0 1 0
		outer loop
			vertex -115 2.5 7.5
			vertex -110 2.5 7.5
			vertex -110 2.5 7.391304347826087
		endloop
	endfacet
	facet normal 0 1 0
		outer loop
			vertex -115 2.5 -2.5
			vertex -115 2.5 2.5
			vertex -113.33333333333333 2.5 2.5
		endloop
	endfacet
	facet normal 0 1 0
		outer loop
			vertex -115 2.5 -2.5
			vertex -113.33333333333333 2.5 2.5
			vertex -114.16666666666666 2.5 -2.5
		endloop
	endfacet
	facet normal 0 1 0
		outer loop
			vertex -114.16666666666666 2.5 -2.5
			vertex -113.33333333333333 2.5 2.5
			vertex -111.66666666666666 2.5 -2.5
		endloop
	endfacet
	facet normal 0 1 0
		outer loop
			vertex -113.33333333333333 2.5 2.5
			vertex -110 2.5 2.5
			vertex -110 2.5 -2.5
		endloop
	endfacet
	facet normal 0 1 0
		outer loop
			vertex -113.33333333333333 2.5 2.5
			vertex -110 2.5 -2.5
			vertex -111.66666666666666 2.5 -2.5
		endloop
	endfacet
	facet normal 0 1 0
		outer loop
			vertex -115 5 -2.5531914893617023
			vertex 115 5 -7.446808510638298
			vertex 115 5 -7.5
		endloop
	endfacet
	facet normal 0 1 0
		outer loop
			vertex -115 5 -2.5531914893617023
			vertex 115 5 -7.5
			vertex -115 5 -7.5
		endloop
	endfacet
	facet normal 0 1 0
		outer loop
			vertex -115 5 -2.5
			vertex 115 5 -2.5
			vertex 115 5 -7.446808510638298
		endloop
	endfacet
	facet normal 0 1 0
		outer loop
			vertex -115 5 -2.5
			vertex 115 5 -7.446808510638298
			vertex -115 5 -2.5531914893617023
		endloop
	endfacet
	facet normal 0 0 1
		outer loop
			vertex 58.75 2.5 -2.5
			vertex 115 4.8936170212765955 -2.5
			vertex 115 5 -2.5
		endloop
	endfacet
	facet normal 0 0 1
		outer loop
			vertex 58.75 2.5 -2.5
			vertex 115 5 -2.5
			vertex -115 5 -2.5
		endloop
	endfacet
	facet normal 0 0 1
		outer loop
			vertex 58.75 2.5 -2.5
			vertex -115 5 -2.5
			vertex -115 2.5 -2.5
		endloop
	endfacet
	facet normal 0 0 1
		outer loop
			vertex 115 2.5 -2.5
			vertex 115 4.8936170212765955 -2.5
			vertex 58.75000000000001 2.5 -2.5
		endloop
	endfacet
	facet normal 0 0 -1
		outer loop
			vertex -58.75 2.5 -7.5
			vertex -115 4.8936170212765955 -7.5
			vertex -115 5 -7.5
		endloop
	endfacet
	facet normal 0 0 -1
		outer loop
			vertex -58.75 2.5 -7.5
			vertex -115 5 -7.5
			vertex 115 5 -7.5
		endloop
	endfacet
	facet normal 0 0 -1
		outer loop
			vertex -58.75 2.5 -7.5
			vertex 115 5 -7.5
			vertex 115 2.5 -7.5
		endloop
	endfacet
	facet normal 0 0 -1
		outer loop
			vertex -115 2.5 -7.5
			vertex -115 4.8936170212765955 -7.5
			vertex -58.75000000000001 2.5 -7.5
		endloop
	endfacet
	facet normal 0 -1 0
		outer loop
			vertex -110 -2.5 2.608695652173913
			vertex 110 -2.5 7.391304347826087
			vertex -110 -2.5 7.4975845410628015
		endloop
	endfacet
	facet normal 0 -1 0
		outer loop
			vertex -110 -2.5 7.497584541062802
			vertex 110 -2.5 7.391304347826087
			vertex 110 -2.5 7.5
		endloop
	endfacet
	facet normal 0 -1 0
		outer loop
			vertex -110 -2.5 7.497584541062802
			vertex 110 -2.5 7.5
			vertex -110 -2.5 7.5
		endloop
	endfacet
	facet normal 0 -1 0
		outer loop
			vertex -110 -2.5 2.5
			vertex 110 -2.5 2.5
			vertex 110 -2.5 7.391304347826087
		endloop
	endfacet
	facet normal 0 -1 0
		outer loop
			vertex -110 -2.5 2.5
			vertex 110 -2.5 7.391304347826087
			vertex -110 -2.5 2.608695652173913
		endloop
	endfacet
	facet normal 0 -1 0
		outer loop
			vertex 110 -2.5 7.391304347826087
			vertex 115 -2.5 7.5
			vertex 110 -2.5 7.5
		endloop
	endfacet
	facet normal 0 -1 0
		outer loop
			vertex 110 -2.5 2.5
			vertex 115 -2.5 2.5
			vertex 115 -2.5 7.5
		endloop
	endfacet
	facet normal 0 -1 0
		outer loop
			vertex 110 -2.5 2.5
			vertex 115 -2.5 7.5
			vertex 110 -2.5 7.391304347826087
		endloop
	endfacet
	facet normal 0 -1 0
		outer loop
			vertex 110 -2.5 2.5
			vertex 110 -2.5 -2.5
			vertex 111.66666666666666 -2.5 -2.5
		endloop
	endfacet
	facet normal 0 -1 0
		outer loop
			vertex 110 -2.5 2.5
			vertex 111.66666666666666 -2.5 -2.5
			vertex 113.33333333333333 -2.5 2.5
		endloop
	endfacet
	facet normal 0 -1 0
		outer loop
			vertex 113.33333333333333 -2.5 2.5
			vertex 111.66666666666666 -2.5 -2.5
			vertex 114.16666666666666 -2.5 -2.5
		endloop
	endfacet
	facet normal 0 -1 0
		outer loop
			vertex 113.33333333333333 -2.5 2.5
			vertex 114.16666666666666 -2.5 -2.5
			vertex 115 -2.5 -2.5
		endloop
	endfacet
	facet normal 0 -1 0
		outer loop
			vertex 113.33333333333333 -2.5 2.5
			vertex 115 -2.5 -2.5
			vertex 115 -2.5 2.5
		endloop
	endfacet
	facet normal 0 -1 0
		outer loop
			vertex -115 -2.5 7.5
			vertex -115 -2.5 2.5
			vertex -110 -2.5 2.608695652173913
		endloop
	endfacet
	facet normal 0 -1 0
		outer loop
			vertex -115 -2.5 7.5
			vertex -110 -2.5 2.608695652173913
			vertex -110 -2.5 7.4975845410628015
		endloop
	endfacet
	facet normal 0 -1 0
		outer loop
			vertex -115 -2.5 7.5
			vertex -110 -2.5 7.497584541062802
			vertex -110 -2.5 7.5
		endloop
	endfacet
	facet normal 0 -1 0
		outer loop
			vertex -115 -2.5 2.5
			vertex -110 -2.5 2.5
			vertex -110 -2.5 2.608695652173913
		endloop
	endfacet
	facet normal 0 -1 0
		outer loop
			vertex -115 -2.5 2.5
			vertex -115 -2.5 -2.5
			vertex -113.33333333333334 -2.5 -2.5
		endloop
	endfacet
	facet normal 0 -1 0
		outer loop
			vertex -115 -2.5 2.5
			vertex -113.33333333333334 -2.5 -2.5
			vertex -111.66666666666667 -2.5 2.5
		endloop
	endfacet
	facet normal 0 -1 0
		outer loop
			vertex -111.66666666666667 -2.5 2.5
			vertex -113.33333333333334 -2.5 -2.5
			vertex -110.83333333333334 -2.5 -2.5
		endloop
	endfacet
	facet normal 0 -1 0
		outer loop
			vertex -111.66666666666667 -2.5 2.5
			vertex -110.83333333333334 -2.5 -2.5
			vertex -110 -2.5 -2.5
		endloop
	endfacet
	facet normal 0 -1 0
		outer loop
			vertex -111.66666666666667 -2.5 2.5
			vertex -110 -2.5 -2.5
			vertex -110 -2.5 2.5
		endloop
	endfacet
	facet normal 0 -1 0
		outer loop
			vertex -115 -5 -7.446808510638298
			vertex 115 -5 -2.5531914893617023
			vertex 115 -5 -2.5
		endloop
	endfacet
	facet normal 0 -1 0
		outer loop
			vertex -115 -5 -7.446808510638298
			vertex 115 -5 -2.5
			vertex -115 -5 -2.5
		endloop
	endfacet
	facet normal 0 -1 0
		outer loop
			vertex -115 -5 -7.5
			vertex 115 -5 -7.5
			vertex 115 -5 -2.5531914893617023
		endloop
	endfacet
	facet normal 0 -1 0
		outer loop
			vertex -115 -5 -7.5
			vertex 115 -5 -2.5531914893617023
			vertex -115 -5 -7.446808510638298
		endloop
	endfacet
	facet normal 0 0 1
		outer loop
			vertex -115 -4.8936170212765955 -2.5
			vertex -58.75 -2.5 -2.5
			vertex -115 -2.5 -2.5
		endloop
	endfacet
	facet normal 0 0 1
		outer loop
			vertex -115 -5 -2.5
			vertex 115 -5 -2.5
			vertex 115 -2.5 -2.5
		endloop
	endfacet
	facet normal 0 0 1
		outer loop
			vertex -115 -5 -2.5
			vertex 115 -2.5 -2.5
			vertex -58.74999999999999 -2.5 -2.5
		endloop
	endfacet
	facet normal 0 0 1
		outer loop
			vertex -115 -5 -2.5
			vertex -58.74999999999999 -2.5 -2.5
			vertex -115 -4.8936170212765955 -2.5
		endloop
	endfacet
	facet normal 0 0 -1
		outer loop
			vertex 115 -4.8936170212765955 -7.5
			vertex 58.75 -2.5 -7.5
			vertex 115 -2.5 -7.5
		endloop
	endfacet
	facet normal 0 0 -1
		outer loop
			vertex 115 -5 -7.5
			vertex -115 -5 -7.5
			vertex -115 -2.5 -7.5
		endloop
	endfacet
	facet normal 0 0 -1
		outer loop
			vertex 115 -5 -7.5
			vertex -115 -2.5 -7.5
			vertex 58.74999999999999 -2.5 -7.5
		endloop
	endfacet
	facet normal 0 0 -1
		outer loop
			vertex 115 -5 -7.5
			vertex 58.74999999999999 -2.5 -7.5
			vertex 115 -4.8936170212765955 -7.5
		endloop
	endfacet
	facet normal 0 0 1
		outer loop
			vertex -110 -2.391304347826087 7.5
			vertex 110 2.391304347826087 7.5
			vertex -110 2.497584541062802 7.5
		endloop
	endfacet
	facet normal 0 0 1
		outer loop
			vertex -110 2.497584541062802 7.5
			vertex 110 2.391304347826087 7.5
			vertex 110 2.5 7.5
		endloop
	endfacet
	facet normal 0 0 1
		outer loop
			vertex -110 2.497584541062802 7.5
			vertex 110 2.5 7.5
			vertex -110 2.5 7.5
		endloop
	endfacet
	facet normal 0 0 1
		outer loop
			vertex -110 -2.5 7.5
			vertex 110 -2.5 7.5
			vertex 110 2.391304347826087 7.5
		endloop
	endfacet
	facet normal 0 0 1
		outer loop
			vertex -110 -2.5 7.5
			vertex 110 2.391304347826087 7.5
			vertex -110 -2.391304347826087 7.5
		endloop
	endfacet
	facet normal 0 0 1
		outer loop
			vertex 110 2.391304347826087 7.5
			vertex 115 2.5 7.5
			vertex 110 2.5 7.5
		endloop
	endfacet
	facet normal 0 0 1
		outer loop
			vertex 110 -2.5 7.5
			vertex 115 -2.5 7.5
			vertex 115 2.5 7.5
		endloop
	endfacet
	facet normal 0 0 1
		outer loop
			vertex 110 -2.5 7.5
			vertex 115 2.5 7.5
			vertex 110 2.391304347826087 7.5
		endloop
	endfacet
	facet normal 0 0 1
		outer loop
			vertex -115 2.5 7.5
			vertex -115 -2.5 7.5
			vertex -110 -2.391304347826087 7.5
		endloop
	endfacet
	facet normal 0 0 1
		outer loop
			vertex -115 2.5 7.5
			vertex -110 -2.391304347826087 7.5
			vertex -110 2.497584541062802 7.5
		endloop
	endfacet
	facet normal 0 0 1
		outer loop
			vertex -115 2.5 7.5
			vertex -110 2.497584541062802 7.5
			vertex -110 2.5 7.5
		endloop
	endfacet
	facet normal 0 0 1
		outer loop
			vertex -115 -2.5 7.5
			vertex -110 -2.5 7.5
			vertex -110 -2.391304347826087 7.5
		endloop
	endfacet
	facet normal 0 0 -1
		outer loop
			vertex 110 -2.391304347826087 2.5
			vertex -110 2.391304347826087 2.5
			vertex -110 2.5 2.5
		endloop
	endfacet
	facet normal 0 0 -1
		outer loop
			vertex 110 -2.391304347826087 2.5
			vertex -110 2.5 2.5
			vertex 110 2.5 2.5
		endloop
	endfacet
	facet normal 0 0 -1
		outer loop
			vertex 110 -2.5 2.5
			vertex -110 -2.5 2.5
			vertex -110 2.388888888888889 2.5
		endloop
	endfacet
	facet normal 0 0 -1
		outer loop
			vertex 110 -2.5 2.5
			vertex -110 2.3888888888888884 2.5
			vertex -110 2.391304347826087 2.5
		endloop
	endfacet
	facet normal 0 0 -1
		outer loop
			vertex 110 -2.5 2.5
			vertex -110 2.391304347826087 2.5
			vertex 110 -2.391304347826087 2.5
		endloop
	endfacet
	facet normal -1 0 0
		outer loop
			vertex 110 -0.8333333333333335 -2.5
			vertex 110 0.833333333333333 2.5
			vertex 110 1.6666666666666665 -2.5
		endloop
	endfacet
	facet normal -1 0 0
		outer loop
			vertex 110 1.6666666666666665 -2.5
			vertex 110 0.833333333333333 2.5
			vertex 110 2.5 2.5
		endloop
	endfacet
	facet normal -1 0 0
		outer loop
			vertex 110 1.6666666666666665 -2.5
			vertex 110 2.5 2.5
			vertex 110 2.5 -2.5
		endloop
	endfacet
	facet normal -1 0 0
		outer loop
			vertex 110 -2.5 -2.5
			vertex 110 -2.5 2.5
			vertex 110 0.8333333333333335 2.5
		endloop
	endfacet
	facet normal -1 0 0
		outer loop
			vertex 110 -2.5 -2.5
			vertex 110 0.8333333333333335 2.5
			vertex 110 -0.8333333333333333 -2.5
		endloop
	endfacet
	facet normal 1 0 0
		outer loop
			vertex -110 -0.8333333333333335 2.5
			vertex -110 0.8333333333333333 -2.5
			vertex -110 2.5 -2.5
		endloop
	endfacet
	facet normal 1 0 0
		outer loop
			vertex -110 -0.8333333333333335 2.5
			vertex -110 2.5 -2.5
			vertex -110 2.5 2.5
		endloop
	endfacet
	facet normal 1 0 0
		outer loop
			vertex -110 -2.5 2.5
			vertex -110 -2.5 -2.5
			vertex -110 0 -2.5
		endloop
	endfacet
	facet normal 1 0 0
		outer loop
			vertex -110 -2.5 2.5
			vertex -110 0 -2.5
			vertex -110 0.8333333333333335 -2.5
		endloop
	endfacet
	facet normal 1 0 0
		outer loop
			vertex -110 -2.5 2.5
			vertex -110 0.8333333333333335 -2.5
			vertex -110 -0.833333333333333 2.5
		endloop
	endfacet
	facet normal 0 0 1
		outer loop
			vertex -58.75 -2.5 -2.5
			vertex 58.75 2.5 -2.5
			vertex -110 2.5 -2.5
		endloop
	endfacet
	facet normal 0 0 1
		outer loop
			vertex -58.75 -2.5 -2.5
			vertex -110 2.5 -2.5
			vertex -110 -2.5 -2.5
		endloop
	endfacet
	facet normal 0 0 1
		outer loop
			vertex 110 2.5 -2.5
			vertex 58.75000000000001 2.5 -2.5
			vertex -58.74999999999999 -2.5 -2.5
		endloop
	endfacet
	facet normal 0 0 1
		outer loop
			vertex 110 2.5 -2.5
			vertex -58.74999999999999 -2.5 -2.5
			vertex 110 -2.5 -2.5
		endloop
	endfacet
	facet normal 0 0 -1
		outer loop
			vertex 58.75 -2.5 -7.5
			vertex -58.75 2.5 -7.5
			vertex 110 2.5 -7.5
		endloop
	endfacet
	facet normal 0 0 -1
		outer loop
			vertex 58.75 -2.5 -7.5
			vertex 110 2.5 -7.5
			vertex 110 -2.5 -7.5
		endloop
	endfacet
	facet normal 0 0 -1
		outer loop
			vertex -110 2.5 -7.5
			vertex -58.75000000000001 2.5 -7.5
			vertex 58.74999999999999 -2.5 -7.5
		endloop
	endfacet
	facet normal 0 0 -1
		outer loop
			vertex -110 2.5 -7.5
			vertex 58.74999999999999 -2.5 -7.5
			vertex -110 -2.5 -7.5
		endloop
	endfacet
	facet normal 0 0 -1
		outer loop
			vertex -110 2.5 -7.5
			vertex -110 -2.5 -7.5
			vertex -115 2.5 -7.5
		endloop
	endfacet
	facet normal 0 0 -1
		outer loop
			vertex -110 -2.5 -7.5
			vertex -115 -2.5 -7.5
			vertex -115 2.5 -7.5
		endloop
	endfacet
	facet normal 0 0 -1
		outer loop
			vertex 115 2.5 -7.5
			vertex 115 -2.5 -7.5
			vertex 110 2.5 -7.5
		endloop
	endfacet
	facet normal 0 0 -1
		outer loop
			vertex 115 -2.5 -7.5
			vertex 110 -2.5 -7.5
			vertex 110 2.5 -7.5
		endloop
	endfacet
endsolid exported
