solid exported
	facet normal 1 0 0
		outer loop
			vertex 90 2.5 7.5
			vertex 90 -2.5 7.5
			vertex 90 2.5 2.5
		endloop
	endfacet
	facet normal 1 0 0
		outer loop
			vertex 90 -2.5 7.5
			vertex 90 -2.5 2.5
			vertex 90 2.5 2.5
		endloop
	endfacet
	facet normal 1 0 0
		outer loop
			vertex 90 2.5 2.5
			vertex 90 -0.833333333333333 2.5
			vertex 90 0.8333333333333335 -2.5
		endloop
	endfacet
	facet normal 1 0 0
		outer loop
			vertex 90 2.5 2.5
			vertex 90 0.8333333333333335 -2.5
			vertex 90 2.5 -2.5
		endloop
	endfacet
	facet normal 1 0 0
		outer loop
			vertex 90 -0.8333333333333335 2.5
			vertex 90 -2.5 2.5
			vertex 90 -2.5 -2.5
		endloop
	endfacet
	facet normal 1 0 0
		outer loop
			vertex 90 -0.8333333333333335 2.5
			vertex 90 -2.5 -2.5
			vertex 90 -1.6666666666666667 -2.5
		endloop
	endfacet
	facet normal 1 0 0
		outer loop
			vertex 90 -0.8333333333333335 2.5
			vertex 90 -1.6666666666666667 -2.5
			vertex 90 0.8333333333333333 -2.5
		endloop
	endfacet
	facet normal 1 0 0
		outer loop
			vertex 92.5 5 -2.5
			vertex 92.5 -5 -2.5
			vertex 92.5 5 -7.5
		endloop
	endfacet
	facet normal 1 0 0
		outer loop
			vertex 92.5 -5 -2.5
			vertex 92.5 -5 -7.5
			vertex 92.5 5 -7.5
		endloop
	endfacet
	facet normal 0 1 0
		outer loop
			vertex 90 5 -7.4324324324324325
			vertex 92.5 5 -7.5
			vertex 90 5 -7.5
		endloop
	endfacet
	facet normal 0 1 0
		outer loop
			vertex 90 5 -2.5
			vertex 92.5 5 -2.5
			vertex 92.5 5 -7.5
		endloop
	endfacet
	facet normal 0 1 0
		outer loop
			vertex 90 5 -2.5
			vertex 92.5 5 -7.5
			vertex 90 5 -7.4324324324324325
		endloop
	endfacet
	facet normal 0 -1 0
		outer loop
			vertex 90 -5 -2.5675675675675675
			vertex 92.5 -5 -2.5
			vertex 90 -5 -2.5
		endloop
	endfacet
	facet normal 0 -1 0
		outer loop
			vertex 90 -5 -7.5
			vertex 92.5 -5 -7.5
			vertex 92.5 -5 -2.5
		endloop
	endfacet
	facet normal 0 -1 0
		outer loop
			vertex 90 -5 -7.5
			vertex 92.5 -5 -2.5
			vertex 90 -5 -2.5675675675675675
		endloop
	endfacet
	facet normal 0 0 1
		outer loop
			vertex 90 4.864864864864865 -2.5
			vertex 92.5 5 -2.5
			vertex 90 5 -2.5
		endloop
	endfacet
	facet normal 0 0 1
		outer loop
			vertex 90 -5 -2.5
			vertex 92.5 -5 -2.5
			vertex 92.5 5 -2.5
		endloop
	endfacet
	facet normal 0 0 1
		outer loop
			vertex 90 -5 -2.5
			vertex 92.5 5 -2.5
			vertex 90 4.864864864864865 -2.5
		endloop
	endfacet
	facet normal 0 0 -1
		outer loop
			vertex 92.5 5 -7.5
			vertex 92.5 -5 -7.5
			vertex 90 -4.864864864864865 -7.5
		endloop
	endfacet
	facet normal 0 0 -1
		outer loop
			vertex 92.5 5 -7.5
			vertex 90 -4.864864864864865 -7.5
			vertex 90 5 -7.5
		endloop
	endfacet
	facet normal 0 0 -1
		outer loop
			vertex 92.5 -5 -7.5
			vertex 90 -5 -7.5
			vertex 90 -4.864864864864865 -7.5
		endloop
	endfacet
	facet normal -1 0 0
		outer loop
			vertex -90 2.5 2.5
			vertex -90 -2.5 2.5
			vertex -90 2.5 7.5
		endloop
	endfacet
	facet normal -1 0 0
		outer loop
			vertex -90 -2.5 2.5
			vertex -90 -2.5 7.5
			vertex -90 2.5 7.5
		endloop
	endfacet
	facet normal -1 0 0
		outer loop
			vertex -90 2.5 2.5
			vertex -90 2.5 -2.5
			vertex -90 0 -2.5
		endloop
	endfacet
	facet normal -1 0 0
		outer loop
			vertex -90 2.5 2.5
			vertex -90 0 -2.5
			vertex -90 -0.8333333333333333 -2.5
		endloop
	endfacet
	facet normal -1 0 0
		outer loop
			vertex -90 2.5 2.5
			vertex -90 -0.8333333333333333 -2.5
			vertex -90 0.8333333333333335 2.5
		endloop
	endfacet
	facet normal -1 0 0
		outer loop
			vertex -90 0.833333333333333 2.5
			vertex -90 -0.8333333333333335 -2.5
			vertex -90 -2.5 -2.5
		endloop
	endfacet
	facet normal -1 0 0
		outer loop
			vertex -90 0.833333333333333 2.5
			vertex -90 -2.5 -2.5
			vertex -90 -2.5 2.5
		endloop
	endfacet
	facet normal -1 0 0
		outer loop
			vertex -92.5 5 -7.5
			vertex -92.5 -5 -7.5
			vertex -92.5 5 -2.5
		endloop
	endfacet
	facet normal -1 0 0
		outer loop
			vertex -92.5 -5 -7.5
			vertex -92.5 -5 -2.5
			vertex -92.5 5 -2.5
		endloop
	endfacet
	facet normal 0 1 0
		outer loop
			vertex -92.5 5 -7.5
			vertex -92.5 5 -2.5
			vertex -90 5 -2.5675675675675675
		endloop
	endfacet
	facet normal 0 1 0
		outer loop
			vertex -92.5 5 -7.5
			vertex -90 5 -2.5675675675675675
			vertex -90 5 -7.5
		endloop
	endfacet
	facet normal 0 1 0
		outer loop
			vertex -92.5 5 -2.5
			vertex -90 5 -2.5
			vertex -90 5 -2.5675675675675675
		endloop
	endfacet
	facet normal 0 -1 0
		outer loop
			vertex -92.5 -5 -2.5
			vertex -92.5 -5 -7.5
			vertex -90 -5 -7.4324324324324325
		endloop
	endfacet
	facet normal 0 -1 0
		outer loop
			vertex -92.5 -5 -2.5
			vertex -90 -5 -7.4324324324324325
			vertex -90 -5 -2.5
		endloop
	endfacet
	facet normal 0 -1 0
		outer loop
			vertex -92.5 -5 -7.5
			vertex -90 -5 -7.5
			vertex -90 -5 -7.4324324324324325
		endloop
	endfacet
	facet normal 0 0 1
		outer loop
			vertex -92.5 5 -2.5
			vertex -92.5 -5 -2.5
			vertex -90 -4.864864864864865 -2.5
		endloop
	endfacet
	facet normal 0 0 1
		outer loop
			vertex -92.5 5 -2.5
			vertex -90 -4.864864864864865 -2.5
			vertex -90 5 -2.5
		endloop
	endfacet
	facet normal 0 0 1
		outer loop
			vertex -92.5 -5 -2.5
			vertex -90 -5 -2.5
			vertex -90 -4.864864864864865 -2.5
		endloop
	endfacet
	facet normal 0 0 -1
		outer loop
			vertex -90 4.864864864864865 -7.5
			vertex -92.5 5 -7.5
			vertex -90 5 -7.5
		endloop
	endfacet
	facet normal 0 0 -1
		outer loop
			vertex -90 -5 -7.5
			vertex -92.5 -5 -7.5
			vertex -92.5 5 -7.5
		endloop
	endfacet
	facet normal 0 0 -1
		outer loop
			vertex -90 -5 -7.5
			vertex -92.5 5 -7.5
			vertex -90 4.864864864864865 -7.5
		endloop
	endfacet
	facet normal 0 1 0
		outer loop
			vertex -85 2.5 7.361111111111111
			vertex 85 2.5 2.6388888888888893
			vertex -85 2.5 2.503968253968254
		endloop
	endfacet
	facet normal 0 1 0
		outer loop
			vertex -85 2.5 2.503968253968254
			vertex 85 2.5 2.6388888888888893
			vertex 85 2.5 2.5
		endloop
	endfacet
	facet normal 0 1 0
		outer loop
			vertex -85 2.5 2.503968253968254
			vertex 85 2.5 2.5
			vertex -85 2.5 2.5
		endloop
	endfacet
	facet normal 0 1 0
		outer loop
			vertex -85 2.5 7.5
			vertex 85 2.5 7.5
			vertex 85 2.5 2.638888888888889
		endloop
	endfacet
	facet normal 0 1 0
		outer loop
			vertex -85 2.5 7.5
			vertex 85 2.5 2.638888888888889
			vertex -85 2.5 7.361111111111111
		endloop
	endfacet
	facet normal 0 1 0
		outer loop
			vertex 85 2.5 2.6388888888888893
			vertex 90 2.5 2.5
			vertex 85 2.5 2.5
		endloop
	endfacet
	facet normal 0 1 0
		outer loop
			vertex 85 2.5 7.5
			vertex 90 2.5 7.5
			vertex 90 2.5 2.5
		endloop
	endfacet
	facet normal 0 1 0
		outer loop
			vertex 85 2.5 7.5
			vertex 90 2.5 2.5
			vertex 85 2.5 2.638888888888889
		endloop
	endfacet
	facet normal 0 1 0
		outer loop
			vertex 85 2.5 -2.5
			vertex 85 2.5 2.5
			vertex 86.66666666666667 2.5 2.5
		endloop
	endfacet
	facet normal 0 1 0
		outer loop
			vertex 85 2.5 -2.5
			vertex 86.66666666666667 2.5 2.5
			vertex 85.83333333333334 2.5 -2.5
		endloop
	endfacet
	facet normal 0 1 0
		outer loop
			vertex 85.83333333333334 2.5 -2.5
			vertex 86.66666666666667 2.5 2.5
			vertex 88.33333333333334 2.5 -2.5
		endloop
	endfacet
	facet normal 0 1 0
		outer loop
			vertex 86.66666666666667 2.5 2.5
			vertex 90 2.5 2.5
			vertex 90 2.5 -2.5
		endloop
	endfacet
	facet normal 0 1 0
		outer loop
			vertex 86.66666666666667 2.5 2.5
			vertex 90 2.5 -2.5
			vertex 88.33333333333334 2.5 -2.5
		endloop
	endfacet
	facet normal 0 1 0
		outer loop
			vertex -90 2.5 2.5
			vertex -90 2.5 7.5
			vertex -85 2.5 7.361111111111111
		endloop
	endfacet
	facet normal 0 1 0
		outer loop
			vertex -90 2.5 2.5
			vertex -85 2.5 7.361111111111111
			vertex -85 2.5 2.503968253968254
		endloop
	endfacet
	facet normal 0 1 0
		outer loop
			vertex -90 2.5 2.5
			vertex -85 2.5 2.503968253968254
			vertex -85 2.5 2.5
		endloop
	endfacet
	facet normal 0 1 0
		outer loop
			vertex -90 2.5 7.5
			vertex -85 2.5 7.5
			vertex -85 2.5 7.361111111111111
		endloop
	endfacet
	facet normal 0 1 0
		outer loop
			vertex -90 2.5 -2.5
			vertex -90 2.5 2.5
			vertex -88.33333333333333 2.5 2.5
		endloop
	endfacet
	facet normal 0 1 0
		outer loop
			vertex -90 2.5 -2.5
			vertex -88.33333333333333 2.5 2.5
			vertex -89.16666666666666 2.5 -2.5
		endloop
	endfacet
	facet normal 0 1 0
		outer loop
			vertex -89.16666666666666 2.5 -2.5
			vertex -88.33333333333333 2.5 2.5
			vertex -86.66666666666666 2.5 -2.5
		endloop
	endfacet
	facet normal 0 1 0
		outer loop
			vertex -88.33333333333333 2.5 2.5
			vertex -85 2.5 2.5
			vertex -85 2.5 -2.5
		endloop
	endfacet
	facet normal 0 1 0
		outer loop
			vertex -88.33333333333333 2.5 2.5
			vertex -85 2.5 -2.5
			vertex -86.66666666666666 2.5 -2.5
		endloop
	endfacet
	facet normal 0 1 0
		outer loop
			vertex -90 5 -2.5675675675675675
			vertex 90 5 -7.4324324324324325
			vertex 90 5 -7.5
		endloop
	endfacet
	facet normal 0 1 0
		outer loop
			vertex -90 5 -2.5675675675675675
			vertex 90 5 -7.5
			vertex -90 5 -7.5
		endloop
	endfacet
	facet normal 0 1 0
		outer loop
			vertex -90 5 -2.5
			vertex 90 5 -2.5
			vertex 90 5 -7.4324324324324325
		endloop
	endfacet
	facet normal 0 1 0
		outer loop
			vertex -90 5 -2.5
			vertex 90 5 -7.4324324324324325
			vertex -90 5 -2.5675675675675675
		endloop
	endfacet
	facet normal 0 0 1
		outer loop
			vertex 46.25 2.5 -2.5
			vertex 90 4.864864864864865 -2.5
			vertex 90 5 -2.5
		endloop
	endfacet
	facet normal 0 0 1
		outer loop
			vertex 46.25 2.5 -2.5
			vertex 90 5 -2.5
			vertex -90 5 -2.5
		endloop
	endfacet
	facet normal 0 0 1
		outer loop
			vertex 46.25 2.5 -2.5
			vertex -90 5 -2.5
			vertex -90 2.5 -2.5
		endloop
	endfacet
	facet normal 0 0 1
		outer loop
			vertex 90 2.5 -2.5
			vertex 90 4.864864864864865 -2.5
			vertex 46.25 2.5 -2.5
		endloop
	endfacet
	facet normal 0 0 -1
		outer loop
			vertex -46.25 2.5 -7.5
			vertex -90 4.864864864864865 -7.5
			vertex -90 5 -7.5
		endloop
	endfacet
	facet normal 0 0 -1
		outer loop
			vertex -46.25 2.5 -7.5
			vertex -90 5 -7.5
			vertex 90 5 -7.5
		endloop
	endfacet
	facet normal 0 0 -1
		outer loop
			vertex -46.25 2.5 -7.5
			vertex 90 5 -7.5
			vertex 90 2.5 -7.5
		endloop
	endfacet
	facet normal 0 0 -1
		outer loop
			vertex -90 2.5 -7.5
			vertex -90 4.864864864864865 -7.5
			vertex -46.25 2.5 -7.5
		endloop
	endfacet
	facet normal 0 -1 0
		outer loop
			vertex -85 -2.5 2.638888888888889
			vertex 85 -2.5 7.361111111111111
			vertex -85 -2.5 7.496031746031746
		endloop
	endfacet
	facet normal 0 -1 0
		outer loop
			vertex -85 -2.5 7.496031746031746
			vertex 85 -2.5 7.361111111111111
			vertex 85 -2.5 7.5
		endloop
	endfacet
	facet normal 0 -1 0
		outer loop
			vertex -85 -2.5 7.496031746031746
			vertex 85 -2.5 7.5
			vertex -85 -2.5 7.5
		endloop
	endfacet
	facet normal 0 -1 0
		outer loop
			vertex -85 -2.5 2.5
			vertex 85 -2.5 2.5
			vertex 85 -2.5 7.361111111111111
		endloop
	endfacet
	facet normal 0 -1 0
		outer loop
			vertex -85 -2.5 2.5
			vertex 85 -2.5 7.361111111111111
			vertex -85 -2.5 2.6388888888888893
		endloop
	endfacet
	facet normal 0 -1 0
		outer loop
			vertex 85 -2.5 7.361111111111111
			vertex 90 -2.5 7.5
			vertex 85 -2.5 7.5
		endloop
	endfacet
	facet normal 0 -1 0
		outer loop
			vertex 85 -2.5 2.5
			vertex 90 -2.5 2.5
			vertex 90 -2.5 7.5
		endloop
	endfacet
	facet normal 0 -1 0
		outer loop
			vertex 85 -2.5 2.5
			vertex 90 -2.5 7.5
			vertex 85 -2.5 7.361111111111111
		endloop
	endfacet
	facet normal 0 -1 0
		outer loop
			vertex 85 -2.5 2.5
			vertex 85 -2.5 -2.5
			vertex 86.66666666666666 -2.5 -2.5
		endloop
	endfacet
	facet normal 0 -1 0
		outer loop
			vertex 85 -2.5 2.5
			vertex 86.66666666666666 -2.5 -2.5
			vertex 88.33333333333333 -2.5 2.5
		endloop
	endfacet
	facet normal 0 -1 0
		outer loop
			vertex 88.33333333333333 -2.5 2.5
			vertex 86.66666666666666 -2.5 -2.5
			vertex 89.16666666666666 -2.5 -2.5
		endloop
	endfacet
	facet normal 0 -1 0
		outer loop
			vertex 88.33333333333333 -2.5 2.5
			vertex 89.16666666666666 -2.5 -2.5
			vertex 90 -2.5 -2.5
		endloop
	endfacet
	facet normal 0 -1 0
		outer loop
			vertex 88.33333333333333 -2.5 2.5
			vertex 90 -2.5 -2.5
			vertex 90 -2.5 2.5
		endloop
	endfacet
	facet normal 0 -1 0
		outer loop
			vertex -90 -2.5 7.5
			vertex -90 -2.5 2.5
			vertex -85 -2.5 2.638888888888889
		endloop
	endfacet
	facet normal 0 -1 0
		outer loop
			vertex -90 -2.5 7.5
			vertex -85 -2.5 2.638888888888889
			vertex -85 -2.5 7.496031746031746
		endloop
	endfacet
	facet normal 0 -1 0
		outer loop
			vertex -90 -2.5 7.5
			vertex -85 -2.5 7.496031746031746
			vertex -85 -2.5 7.5
		endloop
	endfacet
	facet normal 0 -1 0
		outer loop
			vertex -90 -2.5 2.5
			vertex -85 -2.5 2.5
			vertex -85 -2.5 2.6388888888888893
		endloop
	endfacet
	facet normal 0 -1 0
		outer loop
			vertex -90 -2.5 2.5
			vertex -90 -2.5 -2.5
			vertex -88.33333333333334 -2.5 -2.5
		endloop
	endfacet
	facet normal 0 -1 0
		outer loop
			vertex -90 -2.5 2.5
			vertex -88.33333333333334 -2.5 -2.5
			vertex -86.66666666666667 -2.5 2.5
		endloop
	endfacet
	facet normal 0 -1 0
		outer loop
			vertex -86.66666666666667 -2.5 2.5
			vertex -88.33333333333334 -2.5 -2.5
			vertex -85.83333333333334 -2.5 -2.5
		endloop
	endfacet
	facet normal 0 -1 0
		outer loop
			vertex -86.66666666666667 -2.5 2.5
			vertex -85.83333333333334 -2.5 -2.5
			vertex -85 -2.5 -2.5
		endloop
	endfacet
	facet normal 0 -1 0
		outer loop
			vertex -86.66666666666667 -2.5 2.5
			vertex -85 -2.5 -2.5
			vertex -85 -2.5 2.5
		endloop
	endfacet
	facet normal 0 -1 0
		outer loop
			vertex -90 -5 -7.4324324324324325
			vertex 90 -5 -2.5675675675675675
			vertex 90 -5 -2.5
		endloop
	endfacet
	facet normal 0 -1 0
		outer loop
			vertex -90 -5 -7.4324324324324325
			vertex 90 -5 -2.5
			vertex -90 -5 -2.5
		endloop
	endfacet
	facet normal 0 -1 0
		outer loop
			vertex -90 -5 -7.5
			vertex 90 -5 -7.5
			vertex 90 -5 -2.5675675675675675
		endloop
	endfacet
	facet normal 0 -1 0
		outer loop
			vertex -90 -5 -7.5
			vertex 90 -5 -2.5675675675675675
			vertex -90 -5 -7.4324324324324325
		endloop
	endfacet
	facet normal 0 0 1
		outer loop
			vertex -90 -4.864864864864865 -2.5
			vertex -46.25 -2.5 -2.5
			vertex -90 -2.5 -2.5
		endloop
	endfacet
	facet normal 0 0 1
		outer loop
			vertex -90 -5 -2.5
			vertex 90 -5 -2.5
			vertex 90 -2.5 -2.5
		endloop
	endfacet
	facet normal 0 0 1
		outer loop
			vertex -90 -5 -2.5
			vertex 90 -2.5 -2.5
			vertex -46.25 -2.5 -2.5
		endloop
	endfacet
	facet normal 0 0 1
		outer loop
			vertex -90 -5 -2.5
			vertex -46.25 -2.5 -2.5
			vertex -90 -4.864864864864865 -2.5
		endloop
	endfacet
	facet normal 0 0 -1
		outer loop
			vertex 90 -4.864864864864865 -7.5
			vertex 46.25 -2.5 -7.5
			vertex 90 -2.5 -7.5
		endloop
	endfacet
	facet normal 0 0 -1
		outer loop
			vertex 90 -5 -7.5
			vertex -90 -5 -7.5
			vertex -90 -2.5 -7.5
		endloop
	endfacet
	facet normal 0 0 -1
		outer loop
			vertex 90 -5 -7.5
			vertex -90 -2.5 -7.5
			vertex 46.25 -2.5 -7.5
		endloop
	endfacet
	facet normal 0 0 -1
		outer loop
			vertex 90 -5 -7.5
			vertex 46.25 -2.5 -7.5
			vertex 90 -4.864864864864865 -7.5
		endloop
	endfacet
	facet normal 0 0 1
		outer loop
			vertex -85 -2.361111111111111 7.5
			vertex 85 2.3611111111111107 7.5
			vertex -85 2.496031746031746 7.5
		endloop
	endfacet
	facet normal 0 0 1
		outer loop
			vertex -85 2.496031746031746 7.5
			vertex 85 2.3611111111111107 7.5
			vertex 85 2.5 7.5
		endloop
	endfacet
	facet normal 0 0 1
		outer loop
			vertex -85 2.496031746031746 7.5
			vertex 85 2.5 7.5
			vertex -85 2.5 7.5
		endloop
	endfacet
	facet normal 0 0 1
		outer loop
			vertex -85 -2.5 7.5
			vertex 85 -2.5 7.5
			vertex 85 2.361111111111111 7.5
		endloop
	endfacet
	facet normal 0 0 1
		outer loop
			vertex -85 -2.5 7.5
			vertex 85 2.361111111111111 7.5
			vertex -85 -2.3611111111111103 7.5
		endloop
	endfacet
	facet normal 0 0 1
		outer loop
			vertex 85 2.3611111111111107 7.5
			vertex 90 2.5 7.5
			vertex 85 2.5 7.5
		endloop
	endfacet
	facet normal 0 0 1
		outer loop
			vertex 85 -2.5 7.5
			vertex 90 -2.5 7.5
			vertex 90 2.5 7.5
		endloop
	endfacet
	facet normal 0 0 1
		outer loop
			vertex 85 -2.5 7.5
			vertex 90 2.5 7.5
			vertex 85 2.361111111111111 7.5
		endloop
	endfacet
	facet normal 0 0 1
		outer loop
			vertex -90 2.5 7.5
			vertex -90 -2.5 7.5
			vertex -85 -2.361111111111111 7.5
		endloop
	endfacet
	facet normal 0 0 1
		outer loop
			vertex -90 2.5 7.5
			vertex -85 -2.361111111111111 7.5
			vertex -85 2.496031746031746 7.5
		endloop
	endfacet
	facet normal 0 0 1
		outer loop
			vertex -90 2.5 7.5
			vertex -85 2.496031746031746 7.5
			vertex -85 2.5 7.5
		endloop
	endfacet
	facet normal 0 0 1
		outer loop
			vertex -90 -2.5 7.5
			vertex -85 -2.5 7.5
			vertex -85 -2.3611111111111103 7.5
		endloop
	endfacet
	facet normal 0 0 -1
		outer loop
			vertex 85 -2.361111111111111 2.5
			vertex -85 2.3611111111111103 2.5
			vertex -85 2.5 2.5
		endloop
	endfacet
	facet normal 0 0 -1
		outer loop
			vertex 85 -2.361111111111111 2.5
			vertex -85 2.5 2.5
			vertex 85 2.5 2.5
		endloop
	endfacet
	facet normal 0 0 -1
		outer loop
			vertex 85 -2.5 2.5
			vertex -85 -2.5 2.5
			vertex -85 2.357142857142857 2.5
		endloop
	endfacet
	facet normal 0 0 -1
		outer loop
			vertex 85 -2.5 2.5
			vertex -85 2.3571428571428568 2.5
			vertex -85 2.361111111111111 2.5
		endloop
	endfacet
	facet normal 0 0 -1
		outer loop
			vertex 85 -2.5 2.5
			vertex -85 2.361111111111111 2.5
			vertex 85 -2.3611111111111107 2.5
		endloop
	endfacet
	facet normal -1 0 0
		outer loop
			vertex 85 -0.8333333333333335 -2.5
			vertex 85 0.833333333333333 2.5
			vertex 85 1.6666666666666665 -2.5
		endloop
	endfacet
	facet normal -1 0 0
		outer loop
			vertex 85 1.6666666666666665 -2.5
			vertex 85 0.833333333333333 2.5
			vertex 85 2.5 2.5
		endloop
	endfacet
	facet normal -1 0 0
		outer loop
			vertex 85 1.6666666666666665 -2.5
			vertex 85 2.5 2.5
			vertex 85 2.5 -2.5
		endloop
	endfacet
	facet normal -1 0 0
		outer loop
			vertex 85 -2.5 -2.5
			vertex 85 -2.5 2.5
			vertex 85 0.8333333333333335 2.5
		endloop
	endfacet
	facet normal -1 0 0
		outer loop
			vertex 85 -2.5 -2.5
			vertex 85 0.8333333333333335 2.5
			vertex 85 -0.8333333333333333 -2.5
		endloop
	endfacet
	facet normal 1 0 0
		outer loop
			vertex -85 -0.8333333333333335 2.5
			vertex -85 0.8333333333333333 -2.5
			vertex -85 2.5 -2.5
		endloop
	endfacet
	facet normal 1 0 0
		outer loop
			vertex -85 -0.8333333333333335 2.5
			vertex -85 2.5 -2.5
			vertex -85 2.5 2.5
		endloop
	endfacet
	facet normal 1 0 0
		outer loop
			vertex -85 -2.5 2.5
			vertex -85 -2.5 -2.5
			vertex -85 0 -2.5
		endloop
	endfacet
	facet normal 1 0 0
		outer loop
			vertex -85 -2.5 2.5
			vertex -85 0 -2.5
			vertex -85 0.8333333333333335 -2.5
		endloop
	endfacet
	facet normal 1 0 0
		outer loop
			vertex -85 -2.5 2.5
			vertex -85 0.8333333333333335 -2.5
			vertex -85 -0.833333333333333 2.5
		endloop
	endfacet
	facet normal 0 0 1
		outer loop
			vertex -46.25 -2.5 -2.5
			vertex 46.25 2.5 -2.5
			vertex -85 2.5 -2.5
		endloop
	endfacet
	facet normal 0 0 1
		outer loop
			vertex -46.25 -2.5 -2.5
			vertex -85 2.5 -2.5
			vertex -85 -2.5 -2.5
		endloop
	endfacet
	facet normal 0 0 1
		outer loop
			vertex 85 2.5 -2.5
			vertex 46.25 2.5 -2.5
			vertex -46.25 -2.5 -2.5
		endloop
	endfacet
	facet normal 0 0 1
		outer loop
			vertex 85 2.5 -2.5
			vertex -46.25 -2.5 -2.5
			vertex 85 -2.5 -2.5
		endloop
	endfacet
	facet normal 0 0 -1
		outer loop
			vertex 46.25 -2.5 -7.5
			vertex -46.25 2.5 -7.5
			vertex 85 2.5 -7.5
		endloop
	endfacet
	facet normal 0 0 -1
		outer loop
			vertex 46.25 -2.5 -7.5
			vertex 85 2.5 -7.5
			vertex 85 -2.5 -7.5
		endloop
	endfacet
	facet normal 0 0 -1
		outer loop
			vertex -85 2.5 -7.5
			vertex -46.25 2.5 -7.5
			vertex 46.25 -2.5 -7.5
		endloop
	endfacet
	facet normal 0 0 -1
		outer loop
			vertex -85 2.5 -7.5
			vertex 46.25 -2.5 -7.5
			vertex -85 -2.5 -7.5
		endloop
	endfacet
	facet normal 0 0 -1
		outer loop
			vertex -85 2.5 -7.5
			vertex -85 -2.5 -7.5
			vertex -90 2.5 -7.5
		endloop
	endfacet
	facet normal 0 0 -1
		outer loop
			vertex -85 -2.5 -7.5
			vertex -90 -2.5 -7.5
			vertex -90 2.5 -7.5
		endloop
	endfacet
	facet normal 0 0 -1
		outer loop
			vertex 90 2.5 -7.5
			vertex 90 -2.5 -7.5
			vertex 85 2.5 -7.5
		endloop
	endfacet
	facet normal 0 0 -1
		outer loop
			vertex 90 -2.5 -7.5
			vertex 85 -2.5 -7.5
			vertex 85 2.5 -7.5
		endloop
	endfacet
endsolid exported
