solid exported
	facet normal 1 0 0
		outer loop
			vertex 110 2.5 7.5
			vertex 110 -2.5 7.5
			vertex 110 2.5 2.5
		endloop
	endfacet
	facet normal 1 0 0
		outer loop
			vertex 110 -2.5 7.5
			vertex 110 -2.5 2.5
			vertex 110 2.5 2.5
		endloop
	endfacet
	facet normal 1 0 0
		outer loop
			vertex 110 2.5 2.5
			vertex 110 -0.833333333333333 2.5
			vertex 110 0.8333333333333335 -2.5
		endloop
	endfacet
	facet normal 1 0 0
		outer loop
			vertex 110 2.5 2.5
			vertex 110 0.8333333333333335 -2.5
			vertex 110 2.5 -2.5
		endloop
	endfacet
	facet normal 1 0 0
		outer loop
			vertex 110 -0.8333333333333335 2.5
			vertex 110 -2.5 2.5
			vertex 110 -2.5 -2.5
		endloop
	endfacet
	facet normal 1 0 0
		outer loop
			vertex 110 -0.8333333333333335 2.5
			vertex 110 -2.5 -2.5
			vertex 110 -1.6666666666666667 -2.5
		endloop
	endfacet
	facet normal 1 0 0
		outer loop
			vertex 110 -0.8333333333333335 2.5
			vertex 110 -1.6666666666666667 -2.5
			vertex 110 0.8333333333333333 -2.5
		endloop
	endfacet
	facet normal 1 0 0
		outer loop
			vertex 112.5 5 -2.5
			vertex 112.5 -5 -2.5
			vertex 112.5 5 -7.5
		endloop
	endfacet
	facet normal 1 0 0
		outer loop
			vertex 112.5 -5 -2.5
			vertex 112.5 -5 -7.5
			vertex 112.5 5 -7.5
		endloop
	endfacet
	facet normal 0 1 0
		outer loop
			vertex 110 5 -7.444444444444445
			vertex 112.5 5 -7.5
			vertex 110 5 -7.5
		endloop
	endfacet
	facet normal 0 1 0
		outer loop
			vertex 110 5 -2.5
			vertex 112.5 5 -2.5
			vertex 112.5 5 -7.5
		endloop
	endfacet
	facet normal 0 1 0
		outer loop
			vertex 110 5 -2.5
			vertex 112.5 5 -7.5
			vertex 110 5 -7.444444444444445
		endloop
	endfacet
	facet normal 0 -1 0
		outer loop
			vertex 110 -5 -2.5555555555555554
			vertex 112.5 -5 -2.5
			vertex 110 -5 -2.5
		endloop
	endfacet
	facet normal 0 -1 0
		outer loop
			vertex 110 -5 -7.5
			vertex 112.5 -5 -7.5
			vertex 112.5 -5 -2.5
		endloop
	endfacet
	facet normal 0 -1 0
		outer loop
			vertex 110 -5 -7.5
			vertex 112.5 -5 -2.5
			vertex 110 -5 -2.5555555555555554
		endloop
	endfacet
	facet normal 0 0 1
		outer loop
			vertex 110 4.888888888888889 -2.5
			vertex 112.5 5 -2.5
			vertex 110 5 -2.5
		endloop
	endfacet
	facet normal 0 0 1
		outer loop
			vertex 110 -5 -2.5
			vertex 112.5 -5 -2.5
			vertex 112.5 5 -2.5
		endloop
	endfacet
	facet normal 0 0 1
		outer loop
			vertex 110 -5 -2.5
			vertex 112.5 5 -2.5
			vertex 110 4.888888888888889 -2.5
		endloop
	endfacet
	facet normal 0 0 -1
		outer loop
			vertex 112.5 5 -7.5
			vertex 112.5 -5 -7.5
			vertex 110 -4.888888888888889 -7.5
		endloop
	endfacet
	facet normal 0 0 -1
		outer loop
			vertex 112.5 5 -7.5
			vertex 110 -4.888888888888889 -7.5
			vertex 110 5 -7.5
		endloop
	endfacet
	facet normal 0 0 -1
		outer loop
			vertex 112.5 -5 -7.5
			vertex 110 -5 -7.5
			vertex 110 -4.888888888888889 -7.5
		endloop
	endfacet
	facet normal -1 0 0
		outer loop
			vertex -110 2.5 2.5
			vertex -110 -2.5 2.5
			vertex -110 2.5 7.5
		endloop
	endfacet
	facet normal -1 0 0
		outer loop
			vertex -110 -2.5 2.5
			vertex -110 -2.5 7.5
			vertex -110 2.5 7.5
		endloop
	endfacet
	facet normal -1 0 0
		outer loop
			vertex -110 2.5 2.5
			vertex -110 2.5 -2.5
			vertex -110 0 -2.5
		endloop
	endfacet
	facet normal -1 0 0
		outer loop
			vertex -110 2.5 2.5
			vertex -110 0 -2.5
			vertex -110 -0.8333333333333333 -2.5
		endloop
	endfacet
	facet normal -1 0 0
		outer loop
			vertex -110 2.5 2.5
			vertex -110 -0.8333333333333333 -2.5
			vertex -110 0.8333333333333335 2.5
		endloop
	endfacet
	facet normal -1 0 0
		outer loop
			vertex -110 0.833333333333333 2.5
			vertex -110 -0.8333333333333335 -2.5
			vertex -110 -2.5 -2.5
		endloop
	endfacet
	facet normal -1 0 0
		outer loop
			vertex -110 0.833333333333333 2.5
			vertex -110 -2.5 -2.5
			vertex -110 -2.5 2.5
		endloop
	endfacet
	facet normal -1 0 0
		outer loop
			vertex -112.5 5 -7.5
			vertex -112.5 -5 -7.5
			vertex -112.5 5 -2.5
		endloop
	endfacet
	facet normal -1 0 0
		outer loop
			vertex -112.5 -5 -7.5
			vertex -112.5 -5 -2.5
			vertex -112.5 5 -2.5
		endloop
	endfacet
	facet normal 0 1 0
		outer loop
			vertex -112.5 5 -7.5
			vertex -112.5 5 -2.5
			vertex -110 5 -2.5555555555555554
		endloop
	endfacet
	facet normal 0 1 0
		outer loop
			vertex -112.5 5 -7.5
			vertex -110 5 -2.5555555555555554
			vertex -110 5 -7.5
		endloop
	endfacet
	facet normal 0 1 0
		outer loop
			vertex -112.5 5 -2.5
			vertex -110 5 -2.5
			vertex -110 5 -2.5555555555555554
		endloop
	endfacet
	facet normal 0 -1 0
		outer loop
			vertex -112.5 -5 -2.5
			vertex -112.5 -5 -7.5
			vertex -110 -5 -7.444444444444445
		endloop
	endfacet
	facet normal 0 -1 0
		outer loop
			vertex -112.5 -5 -2.5
			vertex -110 -5 -7.444444444444445
			vertex -110 -5 -2.5
		endloop
	endfacet
	facet normal 0 -1 0
		outer loop
			vertex -112.5 -5 -7.5
			vertex -110 -5 -7.5
			vertex -110 -5 -7.444444444444445
		endloop
	endfacet
	facet normal 0 0 1
		outer loop
			vertex -112.5 5 -2.5
			vertex -112.5 -5 -2.5
			vertex -110 -4.888888888888889 -2.5
		endloop
	endfacet
	facet normal 0 0 1
		outer loop
			vertex -112.5 5 -2.5
			vertex -110 -4.888888888888889 -2.5
			vertex -110 5 -2.5
		endloop
	endfacet
	facet normal 0 0 1
		outer loop
			vertex -112.5 -5 -2.5
			vertex -110 -5 -2.5
			vertex -110 -4.888888888888889 -2.5
		endloop
	endfacet
	facet normal 0 0 -1
		outer loop
			vertex -110 4.888888888888889 -7.5
			vertex -112.5 5 -7.5
			vertex -110 5 -7.5
		endloop
	endfacet
	facet normal 0 0 -1
		outer loop
			vertex -110 -5 -7.5
			vertex -112.5 -5 -7.5
			vertex -112.5 5 -7.5
		endloop
	endfacet
	facet normal 0 0 -1
		outer loop
			vertex -110 -5 -7.5
			vertex -112.5 5 -7.5
			vertex -110 4.888888888888889 -7.5
		endloop
	endfacet
	facet normal 0 1 0
		outer loop
			vertex -105 2.5 7.386363636363637
			vertex 105 2.5 2.6136363636363633
			vertex -105 2.5 2.5026427061310783
		endloop
	endfacet
	facet normal 0 1 0
		outer loop
			vertex -105 2.5 2.5026427061310783
			vertex 105 2.5 2.6136363636363633
			vertex 105 2.5 2.5
		endloop
	endfacet
	facet normal 0 1 0
		outer loop
			vertex -105 2.5 2.5026427061310783
			vertex 105 2.5 2.5
			vertex -105 2.5 2.5
		endloop
	endfacet
	facet normal 0 1 0
		outer loop
			vertex -105 2.5 7.5
			vertex 105 2.5 7.5
			vertex 105 2.5 2.6136363636363638
		endloop
	endfacet
	facet normal 0 1 0
		outer loop
			vertex -105 2.5 7.5
			vertex 105 2.5 2.6136363636363638
			vertex -105 2.5 7.386363636363637
		endloop
	endfacet
	facet normal 0 1 0
		outer loop
			vertex 105 2.5 2.6136363636363633
			vertex 110 2.5 2.5
			vertex 105 2.5 2.5
		endloop
	endfacet
	facet normal 0 1 0
		outer loop
			vertex 105 2.5 7.5
			vertex 110 2.5 7.5
			vertex 110 2.5 2.5
		endloop
	endfacet
	facet normal 0 1 0
		outer loop
			vertex 105 2.5 7.5
			vertex 110 2.5 2.5
			vertex 105 2.5 2.6136363636363638
		endloop
	endfacet
	facet normal 0 1 0
		outer loop
			vertex 105 2.5 -2.5
			vertex 105 2.5 2.5
			vertex 106.66666666666667 2.5 2.5
		endloop
	endfacet
	facet normal 0 1 0
		outer loop
			vertex 105 2.5 -2.5
			vertex 106.66666666666667 2.5 2.5
			vertex 105.83333333333334 2.5 -2.5
		endloop
	endfacet
	facet normal 0 1 0
		outer loop
			vertex 105.83333333333334 2.5 -2.5
			vertex 106.66666666666667 2.5 2.5
			vertex 108.33333333333334 2.5 -2.5
		endloop
	endfacet
	facet normal 0 1 0
		outer loop
			vertex 106.66666666666667 2.5 2.5
			vertex 110 2.5 2.5
			vertex 110 2.5 -2.5
		endloop
	endfacet
	facet normal 0 1 0
		outer loop
			vertex 106.66666666666667 2.5 2.5
			vertex 110 2.5 -2.5
			vertex 108.33333333333334 2.5 -2.5
		endloop
	endfacet
	facet normal 0 1 0
		outer loop
			vertex -110 2.5 2.5
			vertex -110 2.5 7.5
			vertex -105 2.5 7.386363636363637
		endloop
	endfacet
	facet normal 0 1 0
		outer loop
			vertex -110 2.5 2.5
			vertex -105 2.5 7.386363636363637
			vertex -105 2.5 2.5026427061310783
		endloop
	endfacet
	facet normal 0 1 0
		outer loop
			vertex -110 2.5 2.5
			vertex -105 2.5 2.5026427061310783
			vertex -105 2.5 2.5
		endloop
	endfacet
	facet normal 0 1 0
		outer loop
			vertex -110 2.5 7.5
			vertex -105 2.5 7.5
			vertex -105 2.5 7.386363636363637
		endloop
	endfacet
	facet normal 0 1 0
		outer loop
			vertex -110 2.5 -2.5
			vertex -110 2.5 2.5
			vertex -108.33333333333333 2.5 2.5
		endloop
	endfacet
	facet normal 0 1 0
		outer loop
			vertex -110 2.5 -2.5
			vertex -108.33333333333333 2.5 2.5
			vertex -109.16666666666666 2.5 -2.5
		endloop
	endfacet
	facet normal 0 1 0
		outer loop
			vertex -109.16666666666666 2.5 -2.5
			vertex -108.33333333333333 2.5 2.5
			vertex -106.66666666666666 2.5 -2.5
		endloop
	endfacet
	facet normal 0 1 0
		outer loop
			vertex -108.33333333333333 2.5 2.5
			vertex -105 2.5 2.5
			vertex -105 2.5 -2.5
		endloop
	endfacet
	facet normal 0 1 0
		outer loop
			vertex -108.33333333333333 2.5 2.5
			vertex -105 2.5 -2.5
			vertex -106.66666666666666 2.5 -2.5
		endloop
	endfacet
	facet normal 0 1 0
		outer loop
			vertex -110 5 -2.5555555555555554
			vertex 110 5 -7.444444444444445
			vertex 110 5 -7.5
		endloop
	endfacet
	facet normal 0 1 0
		outer loop
			vertex -110 5 -2.5555555555555554
			vertex 110 5 -7.5
			vertex -110 5 -7.5
		endloop
	endfacet
	facet normal 0 1 0
		outer loop
			vertex -110 5 -2.5
			vertex 110 5 -2.5
			vertex 110 5 -7.444444444444445
		endloop
	endfacet
	facet normal 0 1 0
		outer loop
			vertex -110 5 -2.5
			vertex 110 5 -7.444444444444445
			vertex -110 5 -2.5555555555555554
		endloop
	endfacet
	facet normal 0 0 1
		outer loop
			vertex 56.25 2.5 -2.5
			vertex 110 4.888888888888889 -2.5
			vertex 110 5 -2.5
		endloop
	endfacet
	facet normal 0 0 1
		outer loop
			vertex 56.25 2.5 -2.5
			vertex 110 5 -2.5
			vertex -110 5 -2.5
		endloop
	endfacet
	facet normal 0 0 1
		outer loop
			vertex 56.25 2.5 -2.5
			vertex -110 5 -2.5
			vertex -110 2.5 -2.5
		endloop
	endfacet
	facet normal 0 0 1
		outer loop
			vertex 110 2.5 -2.5
			vertex 110 4.888888888888889 -2.5
			vertex 56.24999999999999 2.5 -2.5
		endloop
	endfacet
	facet normal 0 0 -1
		outer loop
			vertex -56.25 2.5 -7.5
			vertex -110 4.888888888888889 -7.5
			vertex -110 5 -7.5
		endloop
	endfacet
	facet normal 0 0 -1
		outer loop
			vertex -56.25 2.5 -7.5
			vertex -110 5 -7.5
			vertex 110 5 -7.5
		endloop
	endfacet
	facet normal 0 0 -1
		outer loop
			vertex -56.25 2.5 -7.5
			vertex 110 5 -7.5
			vertex 110 2.5 -7.5
		endloop
	endfacet
	facet normal 0 0 -1
		outer loop
			vertex -110 2.5 -7.5
			vertex -110 4.888888888888889 -7.5
			vertex -56.24999999999999 2.5 -7.5
		endloop
	endfacet
	facet normal 0 -1 0
		outer loop
			vertex -105 -2.5 2.6136363636363638
			vertex 105 -2.5 7.386363636363637
			vertex -105 -2.5 7.497357293868922
		endloop
	endfacet
	facet normal 0 -1 0
		outer loop
			vertex -105 -2.5 7.497357293868922
			vertex 105 -2.5 7.386363636363637
			vertex 105 -2.5 7.5
		endloop
	endfacet
	facet normal 0 -1 0
		outer loop
			vertex -105 -2.5 7.497357293868922
			vertex 105 -2.5 7.5
			vertex -105 -2.5 7.5
		endloop
	endfacet
	facet normal 0 -1 0
		outer loop
			vertex -105 -2.5 2.5
			vertex 105 -2.5 2.5
			vertex 105 -2.5 7.386363636363637
		endloop
	endfacet
	facet normal 0 -1 0
		outer loop
			vertex -105 -2.5 2.5
			vertex 105 -2.5 7.386363636363637
			vertex -105 -2.5 2.613636363636364
		endloop
	endfacet
	facet normal 0 -1 0
		outer loop
			vertex 105 -2.5 7.386363636363637
			vertex 110 -2.5 7.5
			vertex 105 -2.5 7.5
		endloop
	endfacet
	facet normal 0 -1 0
		outer loop
			vertex 105 -2.5 2.5
			vertex 110 -2.5 2.5
			vertex 110 -2.5 7.5
		endloop
	endfacet
	facet normal 0 -1 0
		outer loop
			vertex 105 -2.5 2.5
			vertex 110 -2.5 7.5
			vertex 105 -2.5 7.386363636363637
		endloop
	endfacet
	facet normal 0 -1 0
		outer loop
			vertex 105 -2.5 2.5
			vertex 105 -2.5 -2.5
			vertex 106.66666666666666 -2.5 -2.5
		endloop
	endfacet
	facet normal 0 -1 0
		outer loop
			vertex 105 -2.5 2.5
			vertex 106.66666666666666 -2.5 -2.5
			vertex 108.33333333333333 -2.5 2.5
		endloop
	endfacet
	facet normal 0 -1 0
		outer loop
			vertex 108.33333333333333 -2.5 2.5
			vertex 106.66666666666666 -2.5 -2.5
			vertex 109.16666666666666 -2.5 -2.5
		endloop
	endfacet
	facet normal 0 -1 0
		outer loop
			vertex 108.33333333333333 -2.5 2.5
			vertex 109.16666666666666 -2.5 -2.5
			vertex 110 -2.5 -2.5
		endloop
	endfacet
	facet normal 0 -1 0
		outer loop
			vertex 108.33333333333333 -2.5 2.5
			vertex 110 -2.5 -2.5
			vertex 110 -2.5 2.5
		endloop
	endfacet
	facet normal 0 -1 0
		outer loop
			vertex -110 -2.5 7.5
			vertex -110 -2.5 2.5
			vertex -105 -2.5 2.6136363636363638
		endloop
	endfacet
	facet normal 0 -1 0
		outer loop
			vertex -110 -2.5 7.5
			vertex -105 -2.5 2.6136363636363638
			vertex -105 -2.5 7.497357293868922
		endloop
	endfacet
	facet normal 0 -1 0
		outer loop
			vertex -110 -2.5 7.5
			vertex -105 -2.5 7.497357293868922
			vertex -105 -2.5 7.5
		endloop
	endfacet
	facet normal 0 -1 0
		outer loop
			vertex -110 -2.5 2.5
			vertex -105 -2.5 2.5
			vertex -105 -2.5 2.613636363636364
		endloop
	endfacet
	facet normal 0 -1 0
		outer loop
			vertex -110 -2.5 2.5
			vertex -110 -2.5 -2.5
			vertex -108.33333333333334 -2.5 -2.5
		endloop
	endfacet
	facet normal 0 -1 0
		outer loop
			vertex -110 -2.5 2.5
			vertex -108.33333333333334 -2.5 -2.5
			vertex -106.66666666666667 -2.5 2.5
		endloop
	endfacet
	facet normal 0 -1 0
		outer loop
			vertex -106.66666666666667 -2.5 2.5
			vertex -108.33333333333334 -2.5 -2.5
			vertex -105.83333333333334 -2.5 -2.5
		endloop
	endfacet
	facet normal 0 -1 0
		outer loop
			vertex -106.66666666666667 -2.5 2.5
			vertex -105.83333333333334 -2.5 -2.5
			vertex -105 -2.5 -2.5
		endloop
	endfacet
	facet normal 0 -1 0
		outer loop
			vertex -106.66666666666667 -2.5 2.5
			vertex -105 -2.5 -2.5
			vertex -105 -2.5 2.5
		endloop
	endfacet
	facet normal 0 -1 0
		outer loop
			vertex -110 -5 -7.444444444444445
			vertex 110 -5 -2.5555555555555554
			vertex 110 -5 -2.5
		endloop
	endfacet
	facet normal 0 -1 0
		outer loop
			vertex -110 -5 -7.444444444444445
			vertex 110 -5 -2.5
			vertex -110 -5 -2.5
		endloop
	endfacet
	facet normal 0 -1 0
		outer loop
			vertex -110 -5 -7.5
			vertex 110 -5 -7.5
			vertex 110 -5 -2.5555555555555554
		endloop
	endfacet
	facet normal 0 -1 0
		outer loop
			vertex -110 -5 -7.5
			vertex 110 -5 -2.5555555555555554
			vertex -110 -5 -7.444444444444445
		endloop
	endfacet
	facet normal 0 0 1
		outer loop
			vertex -110 -4.888888888888889 -2.5
			vertex -56.24999999999999 -2.5 -2.5
			vertex -110 -2.5 -2.5
		endloop
	endfacet
	facet normal 0 0 1
		outer loop
			vertex -110 -5 -2.5
			vertex 110 -5 -2.5
			vertex 110 -2.5 -2.5
		endloop
	endfacet
	facet normal 0 0 1
		outer loop
			vertex -110 -5 -2.5
			vertex 110 -2.5 -2.5
			vertex -56.25000000000001 -2.5 -2.5
		endloop
	endfacet
	facet normal 0 0 1
		outer loop
			vertex -110 -5 -2.5
			vertex -56.25000000000001 -2.5 -2.5
			vertex -110 -4.888888888888889 -2.5
		endloop
	endfacet
	facet normal 0 0 -1
		outer loop
			vertex 110 -4.888888888888889 -7.5
			vertex 56.24999999999999 -2.5 -7.5
			vertex 110 -2.5 -7.5
		endloop
	endfacet
	facet normal 0 0 -1
		outer loop
			vertex 110 -5 -7.5
			vertex -110 -5 -7.5
			vertex -110 -2.5 -7.5
		endloop
	endfacet
	facet normal 0 0 -1
		outer loop
			vertex 110 -5 -7.5
			vertex -110 -2.5 -7.5
			vertex 56.25000000000001 -2.5 -7.5
		endloop
	endfacet
	facet normal 0 0 -1
		outer loop
			vertex 110 -5 -7.5
			vertex 56.25000000000001 -2.5 -7.5
			vertex 110 -4.888888888888889 -7.5
		endloop
	endfacet
	facet normal 0 0 1
		outer loop
			vertex -105 -2.3863636363636362 7.5
			vertex 105 2.3863636363636367 7.5
			vertex -105 2.4973572938689217 7.5
		endloop
	endfacet
	facet normal 0 0 1
		outer loop
			vertex -105 2.4973572938689217 7.5
			vertex 105 2.3863636363636367 7.5
			vertex 105 2.5 7.5
		endloop
	endfacet
	facet normal 0 0 1
		outer loop
			vertex -105 2.4973572938689217 7.5
			vertex 105 2.5 7.5
			vertex -105 2.5 7.5
		endloop
	endfacet
	facet normal 0 0 1
		outer loop
			vertex -105 -2.5 7.5
			vertex 105 -2.5 7.5
			vertex 105 2.3863636363636362 7.5
		endloop
	endfacet
	facet normal 0 0 1
		outer loop
			vertex -105 -2.5 7.5
			vertex 105 2.3863636363636362 7.5
			vertex -105 -2.3863636363636362 7.5
		endloop
	endfacet
	facet normal 0 0 1
		outer loop
			vertex 105 2.3863636363636367 7.5
			vertex 110 2.5 7.5
			vertex 105 2.5 7.5
		endloop
	endfacet
	facet normal 0 0 1
		outer loop
			vertex 105 -2.5 7.5
			vertex 110 -2.5 7.5
			vertex 110 2.5 7.5
		endloop
	endfacet
	facet normal 0 0 1
		outer loop
			vertex 105 -2.5 7.5
			vertex 110 2.5 7.5
			vertex 105 2.3863636363636362 7.5
		endloop
	endfacet
	facet normal 0 0 1
		outer loop
			vertex -110 2.5 7.5
			vertex -110 -2.5 7.5
			vertex -105 -2.3863636363636362 7.5
		endloop
	endfacet
	facet normal 0 0 1
		outer loop
			vertex -110 2.5 7.5
			vertex -105 -2.3863636363636362 7.5
			vertex -105 2.4973572938689217 7.5
		endloop
	endfacet
	facet normal 0 0 1
		outer loop
			vertex -110 2.5 7.5
			vertex -105 2.4973572938689217 7.5
			vertex -105 2.5 7.5
		endloop
	endfacet
	facet normal 0 0 1
		outer loop
			vertex -110 -2.5 7.5
			vertex -105 -2.5 7.5
			vertex -105 -2.3863636363636362 7.5
		endloop
	endfacet
	facet normal 0 0 -1
		outer loop
			vertex 105 -2.3863636363636362 2.5
			vertex -105 2.3863636363636362 2.5
			vertex -105 2.5 2.5
		endloop
	endfacet
	facet normal 0 0 -1
		outer loop
			vertex 105 -2.3863636363636362 2.5
			vertex -105 2.5 2.5
			vertex 105 2.5 2.5
		endloop
	endfacet
	facet normal 0 0 -1
		outer loop
			vertex 105 -2.5 2.5
			vertex -105 -2.5 2.5
			vertex -105 2.383720930232558 2.5
		endloop
	endfacet
	facet normal 0 0 -1
		outer loop
			vertex 105 -2.5 2.5
			vertex -105 2.383720930232558 2.5
			vertex -105 2.3863636363636362 2.5
		endloop
	endfacet
	facet normal 0 0 -1
		outer loop
			vertex 105 -2.5 2.5
			vertex -105 2.3863636363636362 2.5
			vertex 105 -2.3863636363636367 2.5
		endloop
	endfacet
	facet normal -1 0 0
		outer loop
			vertex 105 -0.8333333333333335 -2.5
			vertex 105 0.833333333333333 2.5
			vertex 105 1.6666666666666665 -2.5
		endloop
	endfacet
	facet normal -1 0 0
		outer loop
			vertex 105 1.6666666666666665 -2.5
			vertex 105 0.833333333333333 2.5
			vertex 105 2.5 2.5
		endloop
	endfacet
	facet normal -1 0 0
		outer loop
			vertex 105 1.6666666666666665 -2.5
			vertex 105 2.5 2.5
			vertex 105 2.5 -2.5
		endloop
	endfacet
	facet normal -1 0 0
		outer loop
			vertex 105 -2.5 -2.5
			vertex 105 -2.5 2.5
			vertex 105 0.8333333333333335 2.5
		endloop
	endfacet
	facet normal -1 0 0
		outer loop
			vertex 105 -2.5 -2.5
			vertex 105 0.8333333333333335 2.5
			vertex 105 -0.8333333333333333 -2.5
		endloop
	endfacet
	facet normal 1 0 0
		outer loop
			vertex -105 -0.8333333333333335 2.5
			vertex -105 0.8333333333333333 -2.5
			vertex -105 2.5 -2.5
		endloop
	endfacet
	facet normal 1 0 0
		outer loop
			vertex -105 -0.8333333333333335 2.5
			vertex -105 2.5 -2.5
			vertex -105 2.5 2.5
		endloop
	endfacet
	facet normal 1 0 0
		outer loop
			vertex -105 -2.5 2.5
			vertex -105 -2.5 -2.5
			vertex -105 0 -2.5
		endloop
	endfacet
	facet normal 1 0 0
		outer loop
			vertex -105 -2.5 2.5
			vertex -105 0 -2.5
			vertex -105 0.8333333333333335 -2.5
		endloop
	endfacet
	facet normal 1 0 0
		outer loop
			vertex -105 -2.5 2.5
			vertex -105 0.8333333333333335 -2.5
			vertex -105 -0.833333333333333 2.5
		endloop
	endfacet
	facet normal 0 0 1
		outer loop
			vertex -56.24999999999999 -2.5 -2.5
			vertex 56.25 2.5 -2.5
			vertex -105 2.5 -2.5
		endloop
	endfacet
	facet normal 0 0 1
		outer loop
			vertex -56.24999999999999 -2.5 -2.5
			vertex -105 2.5 -2.5
			vertex -105 -2.5 -2.5
		endloop
	endfacet
	facet normal 0 0 1
		outer loop
			vertex 105 2.5 -2.5
			vertex 56.24999999999999 2.5 -2.5
			vertex -56.25000000000001 -2.5 -2.5
		endloop
	endfacet
	facet normal 0 0 1
		outer loop
			vertex 105 2.5 -2.5
			vertex -56.25000000000001 -2.5 -2.5
			vertex 105 -2.5 -2.5
		endloop
	endfacet
	facet normal 0 0 -1
		outer loop
			vertex 56.24999999999999 -2.5 -7.5
			vertex -56.25 2.5 -7.5
			vertex 105 2.5 -7.5
		endloop
	endfacet
	facet normal 0 0 -1
		outer loop
			vertex 56.24999999999999 -2.5 -7.5
			vertex 105 2.5 -7.5
			vertex 105 -2.5 -7.5
		endloop
	endfacet
	facet normal 0 0 -1
		outer loop
			vertex -105 2.5 -7.5
			vertex -56.24999999999999 2.5 -7.5
			vertex 56.25000000000001 -2.5 -7.5
		endloop
	endfacet
	facet normal 0 0 -1
		outer loop
			vertex -105 2.5 -7.5
			vertex 56.25000000000001 -2.5 -7.5
			vertex -105 -2.5 -7.5
		endloop
	endfacet
	facet normal 0 0 -1
		outer loop
			vertex -105 2.5 -7.5
			vertex -105 -2.5 -7.5
			vertex -110 2.5 -7.5
		endloop
	endfacet
	facet normal 0 0 -1
		outer loop
			vertex -105 -2.5 -7.5
			vertex -110 -2.5 -7.5
			vertex -110 2.5 -7.5
		endloop
	endfacet
	facet normal 0 0 -1
		outer loop
			vertex 110 2.5 -7.5
			vertex 110 -2.5 -7.5
			vertex 105 2.5 -7.5
		endloop
	endfacet
	facet normal 0 0 -1
		outer loop
			vertex 110 -2.5 -7.5
			vertex 105 -2.5 -7.5
			vertex 105 2.5 -7.5
		endloop
	endfacet
endsolid exported
