solid exported
	facet normal 1 0 0
		outer loop
			vertex 22.5 17.5 0
			vertex 22.5 -2.5 0
			vertex 22.5 17.5 -5
		endloop
	endfacet
	facet normal 1 0 0
		outer loop
			vertex 22.5 -2.5 0
			vertex 22.5 -2.5 -5
			vertex 22.5 17.5 -5
		endloop
	endfacet
	facet normal -1 0 0
		outer loop
			vertex -2.5 17.5 -5
			vertex -2.5 -2.5 -5
			vertex -2.5 17.5 0
		endloop
	endfacet
	facet normal -1 0 0
		outer loop
			vertex -2.5 -2.5 -5
			vertex -2.5 -2.5 0
			vertex -2.5 17.5 0
		endloop
	endfacet
	facet normal 0 1 0
		outer loop
			vertex 20 17.5 -4.5
			vertex 22.5 17.5 -5
			vertex 20 17.5 -5
		endloop
	endfacet
	facet normal 0 1 0
		outer loop
			vertex 20 17.5 0
			vertex 22.5 17.5 0
			vertex 22.5 17.5 -5
		endloop
	endfacet
	facet normal 0 1 0
		outer loop
			vertex 20 17.5 0
			vertex 22.5 17.5 -5
			vertex 20 17.5 -3.3333333333333335
		endloop
	endfacet
	facet normal 0 1 0
		outer loop
			vertex 20 17.5 -3.333333333333333
			vertex 22.5 17.5 -5
			vertex 20 17.5 -4.5
		endloop
	endfacet
	facet normal 0 1 0
		outer loop
			vertex -2.5 17.5 -5
			vertex -2.5 17.5 0
			vertex 0 17.5 -0.5
		endloop
	endfacet
	facet normal 0 1 0
		outer loop
			vertex -2.5 17.5 -5
			vertex 0 17.5 -0.5
			vertex 0 17.5 -5
		endloop
	endfacet
	facet normal 0 1 0
		outer loop
			vertex -2.5 17.5 0
			vertex 0 17.5 0
			vertex 0 17.5 -0.5
		endloop
	endfacet
	facet normal 0 1 0
		outer loop
			vertex 15 17.5 -3.5
			vertex 20 17.5 -4.5
			vertex 20 17.5 -5
		endloop
	endfacet
	facet normal 0 1 0
		outer loop
			vertex 15 17.5 -3.5
			vertex 20 17.5 -5
			vertex 15 17.5 -5
		endloop
	endfacet
	facet normal 0 1 0
		outer loop
			vertex 15 17.5 0
			vertex 20 17.5 0
			vertex 20 17.5 -3.3333333333333335
		endloop
	endfacet
	facet normal 0 1 0
		outer loop
			vertex 15 17.5 0
			vertex 20 17.5 -3.333333333333333
			vertex 20 17.5 -4.5
		endloop
	endfacet
	facet normal 0 1 0
		outer loop
			vertex 15 17.5 0
			vertex 20 17.5 -4.5
			vertex 15 17.5 -3.5
		endloop
	endfacet
	facet normal 0 1 0
		outer loop
			vertex 0 17.5 -0.5
			vertex 15 17.5 -3.5
			vertex 15 17.5 -5
		endloop
	endfacet
	facet normal 0 1 0
		outer loop
			vertex 0 17.5 -0.5
			vertex 15 17.5 -5
			vertex 0 17.5 -5
		endloop
	endfacet
	facet normal 0 1 0
		outer loop
			vertex 0 17.5 0
			vertex 15 17.5 0
			vertex 15 17.5 -3.5
		endloop
	endfacet
	facet normal 0 1 0
		outer loop
			vertex 0 17.5 0
			vertex 15 17.5 -3.5
			vertex 0 17.5 -0.5
		endloop
	endfacet
	facet normal 0 -1 0
		outer loop
			vertex 20 -2.5 -0.5
			vertex 22.5 -2.5 0
			vertex 20 -2.5 0
		endloop
	endfacet
	facet normal 0 -1 0
		outer loop
			vertex 20 -2.5 -5
			vertex 22.5 -2.5 -5
			vertex 22.5 -2.5 0
		endloop
	endfacet
	facet normal 0 -1 0
		outer loop
			vertex 20 -2.5 -5
			vertex 22.5 -2.5 0
			vertex 20 -2.5 -1.6666666666666665
		endloop
	endfacet
	facet normal 0 -1 0
		outer loop
			vertex 20 -2.5 -1.666666666666667
			vertex 22.5 -2.5 0
			vertex 20 -2.5 -0.5
		endloop
	endfacet
	facet normal 0 -1 0
		outer loop
			vertex -2.5 -2.5 0
			vertex -2.5 -2.5 -5
			vertex 0 -2.5 -4.5
		endloop
	endfacet
	facet normal 0 -1 0
		outer loop
			vertex -2.5 -2.5 0
			vertex 0 -2.5 -4.5
			vertex 0 -2.5 0
		endloop
	endfacet
	facet normal 0 -1 0
		outer loop
			vertex -2.5 -2.5 -5
			vertex 0 -2.5 -5
			vertex 0 -2.5 -4.5
		endloop
	endfacet
	facet normal 0 -1 0
		outer loop
			vertex 15 -2.5 -1.5
			vertex 20 -2.5 -0.5
			vertex 20 -2.5 0
		endloop
	endfacet
	facet normal 0 -1 0
		outer loop
			vertex 15 -2.5 -1.5
			vertex 20 -2.5 0
			vertex 15 -2.5 0
		endloop
	endfacet
	facet normal 0 -1 0
		outer loop
			vertex 15 -2.5 -5
			vertex 20 -2.5 -5
			vertex 20 -2.5 -1.6666666666666665
		endloop
	endfacet
	facet normal 0 -1 0
		outer loop
			vertex 15 -2.5 -5
			vertex 20 -2.5 -1.666666666666667
			vertex 20 -2.5 -0.5
		endloop
	endfacet
	facet normal 0 -1 0
		outer loop
			vertex 15 -2.5 -5
			vertex 20 -2.5 -0.5
			vertex 15 -2.5 -1.5
		endloop
	endfacet
	facet normal 0 -1 0
		outer loop
			vertex 0 -2.5 -4.5
			vertex 15 -2.5 -1.5
			vertex 15 -2.5 0
		endloop
	endfacet
	facet normal 0 -1 0
		outer loop
			vertex 0 -2.5 -4.5
			vertex 15 -2.5 0
			vertex 0 -2.5 0
		endloop
	endfacet
	facet normal 0 -1 0
		outer loop
			vertex 0 -2.5 -5
			vertex 15 -2.5 -5
			vertex 15 -2.5 -1.5
		endloop
	endfacet
	facet normal 0 -1 0
		outer loop
			vertex 0 -2.5 -5
			vertex 15 -2.5 -1.5
			vertex 0 -2.5 -4.5
		endloop
	endfacet
	facet normal 0 0 1
		outer loop
			vertex 20 15.5 0
			vertex 22.5 17.5 0
			vertex 20 17.5 0
		endloop
	endfacet
	facet normal 0 0 1
		outer loop
			vertex 20 -2.5 0
			vertex 22.5 -2.5 0
			vertex 22.5 17.5 0
		endloop
	endfacet
	facet normal 0 0 1
		outer loop
			vertex 20 -2.5 0
			vertex 22.5 17.5 0
			vertex 20 10.833333333333334 0
		endloop
	endfacet
	facet normal 0 0 1
		outer loop
			vertex 20 10.833333333333332 0
			vertex 22.5 17.5 0
			vertex 20 15.5 0
		endloop
	endfacet
	facet normal 0 0 1
		outer loop
			vertex -2.5 17.5 0
			vertex -2.5 -2.5 0
			vertex 0 -0.5 0
		endloop
	endfacet
	facet normal 0 0 1
		outer loop
			vertex -2.5 17.5 0
			vertex 0 -0.5 0
			vertex 0 17.5 0
		endloop
	endfacet
	facet normal 0 0 1
		outer loop
			vertex -2.5 -2.5 0
			vertex 0 -2.5 0
			vertex 0 -0.5 0
		endloop
	endfacet
	facet normal 0 0 1
		outer loop
			vertex 19.375 15 0
			vertex 20 15.5 0
			vertex 20 17.5 0
		endloop
	endfacet
	facet normal 0 0 1
		outer loop
			vertex 19.375 15 0
			vertex 20 17.5 0
			vertex 15 17.5 0
		endloop
	endfacet
	facet normal 0 0 1
		outer loop
			vertex 19.375 15 0
			vertex 15 17.5 0
			vertex 15 15 0
		endloop
	endfacet
	facet normal 0 0 1
		outer loop
			vertex 20 15 0
			vertex 20 15.5 0
			vertex 19.375 15 0
		endloop
	endfacet
	facet normal 0 0 1
		outer loop
			vertex 15 15 0
			vertex 15 17.5 0
			vertex 13.375 15 0
		endloop
	endfacet
	facet normal 0 0 1
		outer loop
			vertex 13.375 15 0
			vertex 15 17.5 0
			vertex 0 17.5 0
		endloop
	endfacet
	facet normal 0 0 1
		outer loop
			vertex 13.375 15 0
			vertex 0 17.5 0
			vertex 1.375 15 0
		endloop
	endfacet
	facet normal 0 0 1
		outer loop
			vertex 1.375 15 0
			vertex 0 17.5 0
			vertex 0 15 0
		endloop
	endfacet
	facet normal 0 0 1
		outer loop
			vertex 15 -2.5 0
			vertex 20 -2.5 0
			vertex 20 10 0
		endloop
	endfacet
	facet normal 0 0 1
		outer loop
			vertex 15 -2.5 0
			vertex 20 10 0
			vertex 19.6875 10 0
		endloop
	endfacet
	facet normal 0 0 1
		outer loop
			vertex 15 -2.5 0
			vertex 19.6875 10 0
			vertex 15 10 0
		endloop
	endfacet
	facet normal 0 0 1
		outer loop
			vertex 6.875 5 0
			vertex 13.125 10 0
			vertex 10.125 10 0
		endloop
	endfacet
	facet normal 0 0 1
		outer loop
			vertex 6.875 5 0
			vertex 10.125 10 0
			vertex 4.125 10 0
		endloop
	endfacet
	facet normal 0 0 1
		outer loop
			vertex 6.875 5 0
			vertex 4.125 10 0
			vertex 0 10 0
		endloop
	endfacet
	facet normal 0 0 1
		outer loop
			vertex 6.875 5 0
			vertex 0 10 0
			vertex 0 5 0
		endloop
	endfacet
	facet normal 0 0 1
		outer loop
			vertex 15 5 0
			vertex 15 10 0
			vertex 13.125 10 0
		endloop
	endfacet
	facet normal 0 0 1
		outer loop
			vertex 15 5 0
			vertex 13.125 10 0
			vertex 6.875 5 0
		endloop
	endfacet
	facet normal 0 0 1
		outer loop
			vertex 0 -0.5 0
			vertex 0.625 0 0
			vertex 0 0 0
		endloop
	endfacet
	facet normal 0 0 1
		outer loop
			vertex 0 -2.5 0
			vertex 15 -2.5 0
			vertex 15 0 0
		endloop
	endfacet
	facet normal 0 0 1
		outer loop
			vertex 0 -2.5 0
			vertex 15 0 0
			vertex 0.625 0 0
		endloop
	endfacet
	facet normal 0 0 1
		outer loop
			vertex 0 -2.5 0
			vertex 0.625 0 0
			vertex 0 -0.5 0
		endloop
	endfacet
	facet normal 0 0 1
		outer loop
			vertex 5 3.5 0
			vertex 6.875 5 0
			vertex 5 5 0
		endloop
	endfacet
	facet normal 0 0 1
		outer loop
			vertex 10 5 0
			vertex 6.875 5 0
			vertex 5 3.5 0
		endloop
	endfacet
	facet normal 0 0 1
		outer loop
			vertex 10 5 0
			vertex 5 3.5 0
			vertex 5 0 0
		endloop
	endfacet
	facet normal 0 0 1
		outer loop
			vertex 10 5 0
			vertex 5 0 0
			vertex 10 0 0
		endloop
	endfacet
	facet normal 0 0 1
		outer loop
			vertex 13.125 10 0
			vertex 15 11.5 0
			vertex 15 15 0
		endloop
	endfacet
	facet normal 0 0 1
		outer loop
			vertex 13.125 10 0
			vertex 15 15 0
			vertex 13.375 15 0
		endloop
	endfacet
	facet normal 0 0 1
		outer loop
			vertex 13.125 10 0
			vertex 13.375 15 0
			vertex 10.125 10 0
		endloop
	endfacet
	facet normal 0 0 1
		outer loop
			vertex 10.125 10 0
			vertex 13.375 15 0
			vertex 5 15 0
		endloop
	endfacet
	facet normal 0 0 1
		outer loop
			vertex 10.125 10 0
			vertex 5 15 0
			vertex 5 10 0
		endloop
	endfacet
	facet normal 0 0 1
		outer loop
			vertex 15 10 0
			vertex 15 11.5 0
			vertex 13.125 10 0
		endloop
	endfacet
	facet normal 1 0 0
		outer loop
			vertex 15 5 10
			vertex 15 0 10
			vertex 15 5 5
		endloop
	endfacet
	facet normal 1 0 0
		outer loop
			vertex 15 0 10
			vertex 15 0 5
			vertex 15 5 5
		endloop
	endfacet
	facet normal 1 0 0
		outer loop
			vertex 15 5 5
			vertex 15 1.666666666666667 5
			vertex 15 3.3333333333333335 0
		endloop
	endfacet
	facet normal 1 0 0
		outer loop
			vertex 15 5 5
			vertex 15 3.3333333333333335 0
			vertex 15 5 0
		endloop
	endfacet
	facet normal 1 0 0
		outer loop
			vertex 15 1.6666666666666665 5
			vertex 15 0 5
			vertex 15 0 0
		endloop
	endfacet
	facet normal 1 0 0
		outer loop
			vertex 15 1.6666666666666665 5
			vertex 15 0 0
			vertex 15 0.8333333333333333 0
		endloop
	endfacet
	facet normal 1 0 0
		outer loop
			vertex 15 1.6666666666666665 5
			vertex 15 0.8333333333333333 0
			vertex 15 3.333333333333333 0
		endloop
	endfacet
	facet normal -1 0 0
		outer loop
			vertex 15 11.666666666666666 0
			vertex 15 13.333333333333332 5
			vertex 15 14.166666666666666 0
		endloop
	endfacet
	facet normal -1 0 0
		outer loop
			vertex 15 14.166666666666666 0
			vertex 15 13.333333333333332 5
			vertex 15 15 5
		endloop
	endfacet
	facet normal -1 0 0
		outer loop
			vertex 15 14.166666666666666 0
			vertex 15 15 5
			vertex 15 15 0
		endloop
	endfacet
	facet normal -1 0 0
		outer loop
			vertex 15 10 0
			vertex 15 10 5
			vertex 15 13.333333333333334 5
		endloop
	endfacet
	facet normal -1 0 0
		outer loop
			vertex 15 10 0
			vertex 15 13.333333333333334 5
			vertex 15 11.666666666666668 0
		endloop
	endfacet
	facet normal 1 0 0
		outer loop
			vertex 20 15 10
			vertex 20 10 10
			vertex 20 15 5
		endloop
	endfacet
	facet normal 1 0 0
		outer loop
			vertex 20 10 10
			vertex 20 10 5
			vertex 20 15 5
		endloop
	endfacet
	facet normal 1 0 0
		outer loop
			vertex 20 15 5
			vertex 20 11.666666666666668 5
			vertex 20 13.333333333333334 0
		endloop
	endfacet
	facet normal 1 0 0
		outer loop
			vertex 20 15 5
			vertex 20 13.333333333333334 0
			vertex 20 15 0
		endloop
	endfacet
	facet normal 1 0 0
		outer loop
			vertex 20 11.666666666666666 5
			vertex 20 10 5
			vertex 20 10 0
		endloop
	endfacet
	facet normal 1 0 0
		outer loop
			vertex 20 11.666666666666666 5
			vertex 20 10 0
			vertex 20 10.833333333333332 0
		endloop
	endfacet
	facet normal 1 0 0
		outer loop
			vertex 20 11.666666666666666 5
			vertex 20 10.833333333333332 0
			vertex 20 13.333333333333332 0
		endloop
	endfacet
	facet normal 0 1 0
		outer loop
			vertex 15 15 6.25
			vertex 20 15 5
			vertex 15 15 5
		endloop
	endfacet
	facet normal 0 1 0
		outer loop
			vertex 15 15 10
			vertex 20 15 10
			vertex 20 15 5
		endloop
	endfacet
	facet normal 0 1 0
		outer loop
			vertex 15 15 10
			vertex 20 15 5
			vertex 15 15 6.666666666666666
		endloop
	endfacet
	facet normal 0 1 0
		outer loop
			vertex 15 15 6.666666666666667
			vertex 20 15 5
			vertex 15 15 6.25
		endloop
	endfacet
	facet normal 0 1 0
		outer loop
			vertex 15 15 0
			vertex 15 15 5
			vertex 16.666666666666668 15 5
		endloop
	endfacet
	facet normal 0 1 0
		outer loop
			vertex 15 15 0
			vertex 16.666666666666668 15 5
			vertex 15.833333333333334 15 0
		endloop
	endfacet
	facet normal 0 1 0
		outer loop
			vertex 15.833333333333334 15 0
			vertex 16.666666666666668 15 5
			vertex 18.333333333333336 15 0
		endloop
	endfacet
	facet normal 0 1 0
		outer loop
			vertex 16.666666666666668 15 5
			vertex 20 15 5
			vertex 20 15 0
		endloop
	endfacet
	facet normal 0 1 0
		outer loop
			vertex 16.666666666666668 15 5
			vertex 20 15 0
			vertex 18.333333333333336 15 0
		endloop
	endfacet
	facet normal 0 -1 0
		outer loop
			vertex 15 10 8.75
			vertex 20 10 10
			vertex 15 10 10
		endloop
	endfacet
	facet normal 0 -1 0
		outer loop
			vertex 15 10 5
			vertex 20 10 5
			vertex 20 10 10
		endloop
	endfacet
	facet normal 0 -1 0
		outer loop
			vertex 15 10 5
			vertex 20 10 10
			vertex 15 10 8.333333333333334
		endloop
	endfacet
	facet normal 0 -1 0
		outer loop
			vertex 15 10 8.333333333333332
			vertex 20 10 10
			vertex 15 10 8.75
		endloop
	endfacet
	facet normal 0 -1 0
		outer loop
			vertex 15 10 5
			vertex 15 10 0
			vertex 16.666666666666664 10 0
		endloop
	endfacet
	facet normal 0 -1 0
		outer loop
			vertex 15 10 5
			vertex 16.666666666666664 10 0
			vertex 18.333333333333332 10 5
		endloop
	endfacet
	facet normal 0 -1 0
		outer loop
			vertex 18.333333333333332 10 5
			vertex 16.666666666666664 10 0
			vertex 19.166666666666664 10 0
		endloop
	endfacet
	facet normal 0 -1 0
		outer loop
			vertex 18.333333333333332 10 5
			vertex 19.166666666666664 10 0
			vertex 20 10 0
		endloop
	endfacet
	facet normal 0 -1 0
		outer loop
			vertex 18.333333333333332 10 5
			vertex 20 10 0
			vertex 20 10 5
		endloop
	endfacet
	facet normal 0 0 1
		outer loop
			vertex 15 13.75 10
			vertex 20 15 10
			vertex 15 15 10
		endloop
	endfacet
	facet normal 0 0 1
		outer loop
			vertex 15 10 10
			vertex 20 10 10
			vertex 20 15 10
		endloop
	endfacet
	facet normal 0 0 1
		outer loop
			vertex 15 10 10
			vertex 20 15 10
			vertex 15 13.333333333333334 10
		endloop
	endfacet
	facet normal 0 0 1
		outer loop
			vertex 15 13.333333333333332 10
			vertex 20 15 10
			vertex 15 13.75 10
		endloop
	endfacet
	facet normal -1 0 0
		outer loop
			vertex 0 5 5
			vertex 0 0 5
			vertex 0 5 10
		endloop
	endfacet
	facet normal -1 0 0
		outer loop
			vertex 0 0 5
			vertex 0 0 10
			vertex 0 5 10
		endloop
	endfacet
	facet normal -1 0 0
		outer loop
			vertex 0 5 5
			vertex 0 5 0
			vertex 0 2.5 0
		endloop
	endfacet
	facet normal -1 0 0
		outer loop
			vertex 0 5 5
			vertex 0 2.5 0
			vertex 0 1.6666666666666667 0
		endloop
	endfacet
	facet normal -1 0 0
		outer loop
			vertex 0 5 5
			vertex 0 1.6666666666666667 0
			vertex 0 3.3333333333333335 5
		endloop
	endfacet
	facet normal -1 0 0
		outer loop
			vertex 0 3.333333333333333 5
			vertex 0 1.6666666666666665 0
			vertex 0 0 0
		endloop
	endfacet
	facet normal -1 0 0
		outer loop
			vertex 0 3.333333333333333 5
			vertex 0 0 0
			vertex 0 0 5
		endloop
	endfacet
	facet normal -1 0 0
		outer loop
			vertex 0 15 5
			vertex 0 10 5
			vertex 0 15 10
		endloop
	endfacet
	facet normal -1 0 0
		outer loop
			vertex 0 10 5
			vertex 0 10 10
			vertex 0 15 10
		endloop
	endfacet
	facet normal -1 0 0
		outer loop
			vertex 0 15 5
			vertex 0 15 0
			vertex 0 12.5 0
		endloop
	endfacet
	facet normal -1 0 0
		outer loop
			vertex 0 15 5
			vertex 0 12.5 0
			vertex 0 11.666666666666668 0
		endloop
	endfacet
	facet normal -1 0 0
		outer loop
			vertex 0 15 5
			vertex 0 11.666666666666668 0
			vertex 0 13.333333333333334 5
		endloop
	endfacet
	facet normal -1 0 0
		outer loop
			vertex 0 13.333333333333332 5
			vertex 0 11.666666666666666 0
			vertex 0 10 0
		endloop
	endfacet
	facet normal -1 0 0
		outer loop
			vertex 0 13.333333333333332 5
			vertex 0 10 0
			vertex 0 10 5
		endloop
	endfacet
	facet normal 0 1 0
		outer loop
			vertex 5 5 8.333333333333334
			vertex 10 5 6.666666666666667
			vertex 10 5 5
		endloop
	endfacet
	facet normal 0 1 0
		outer loop
			vertex 5 5 8.333333333333334
			vertex 10 5 5
			vertex 5 5 5
		endloop
	endfacet
	facet normal 0 1 0
		outer loop
			vertex 5 5 10
			vertex 10 5 10
			vertex 10 5 7.5
		endloop
	endfacet
	facet normal 0 1 0
		outer loop
			vertex 5 5 10
			vertex 10 5 7.5
			vertex 10 5 6.666666666666666
		endloop
	endfacet
	facet normal 0 1 0
		outer loop
			vertex 5 5 10
			vertex 10 5 6.666666666666666
			vertex 5 5 8.333333333333332
		endloop
	endfacet
	facet normal 0 1 0
		outer loop
			vertex 0 5 5
			vertex 0 5 10
			vertex 5 5 8.333333333333334
		endloop
	endfacet
	facet normal 0 1 0
		outer loop
			vertex 0 5 5
			vertex 5 5 8.333333333333334
			vertex 5 5 5
		endloop
	endfacet
	facet normal 0 1 0
		outer loop
			vertex 0 5 10
			vertex 5 5 10
			vertex 5 5 8.333333333333332
		endloop
	endfacet
	facet normal 0 1 0
		outer loop
			vertex 0 5 0
			vertex 0 5 5
			vertex 1.666666666666667 5 5
		endloop
	endfacet
	facet normal 0 1 0
		outer loop
			vertex 0 5 0
			vertex 1.666666666666667 5 5
			vertex 0.8333333333333335 5 0
		endloop
	endfacet
	facet normal 0 1 0
		outer loop
			vertex 0.8333333333333335 5 0
			vertex 1.666666666666667 5 5
			vertex 3.3333333333333335 5 0
		endloop
	endfacet
	facet normal 0 1 0
		outer loop
			vertex 1.6666666666666665 5 5
			vertex 5 5 5
			vertex 5 5 0
		endloop
	endfacet
	facet normal 0 1 0
		outer loop
			vertex 1.6666666666666665 5 5
			vertex 5 5 0
			vertex 3.333333333333333 5 0
		endloop
	endfacet
	facet normal 0 1 0
		outer loop
			vertex 10 5 6.666666666666667
			vertex 15 5 5
			vertex 10 5 5
		endloop
	endfacet
	facet normal 0 1 0
		outer loop
			vertex 10 5 10
			vertex 15 5 10
			vertex 15 5 5
		endloop
	endfacet
	facet normal 0 1 0
		outer loop
			vertex 10 5 10
			vertex 15 5 5
			vertex 10 5 7.5
		endloop
	endfacet
	facet normal 0 1 0
		outer loop
			vertex 10 5 7.5
			vertex 15 5 5
			vertex 10 5 6.666666666666666
		endloop
	endfacet
	facet normal 0 1 0
		outer loop
			vertex 10 5 0
			vertex 10 5 5
			vertex 11.666666666666668 5 5
		endloop
	endfacet
	facet normal 0 1 0
		outer loop
			vertex 10 5 0
			vertex 11.666666666666668 5 5
			vertex 10.833333333333334 5 0
		endloop
	endfacet
	facet normal 0 1 0
		outer loop
			vertex 10.833333333333334 5 0
			vertex 11.666666666666668 5 5
			vertex 13.333333333333334 5 0
		endloop
	endfacet
	facet normal 0 1 0
		outer loop
			vertex 11.666666666666666 5 5
			vertex 15 5 5
			vertex 15 5 0
		endloop
	endfacet
	facet normal 0 1 0
		outer loop
			vertex 11.666666666666666 5 5
			vertex 15 5 0
			vertex 13.333333333333332 5 0
		endloop
	endfacet
	facet normal 0 1 0
		outer loop
			vertex 5 15 8.75
			vertex 15 15 6.25
			vertex 15 15 5
		endloop
	endfacet
	facet normal 0 1 0
		outer loop
			vertex 5 15 8.75
			vertex 15 15 5
			vertex 5 15 5
		endloop
	endfacet
	facet normal 0 1 0
		outer loop
			vertex 5 15 10
			vertex 15 15 10
			vertex 15 15 6.666666666666666
		endloop
	endfacet
	facet normal 0 1 0
		outer loop
			vertex 5 15 10
			vertex 15 15 6.666666666666667
			vertex 15 15 6.25
		endloop
	endfacet
	facet normal 0 1 0
		outer loop
			vertex 5 15 10
			vertex 15 15 6.25
			vertex 5 15 8.75
		endloop
	endfacet
	facet normal 0 1 0
		outer loop
			vertex 0 15 5
			vertex 0 15 10
			vertex 5 15 8.75
		endloop
	endfacet
	facet normal 0 1 0
		outer loop
			vertex 0 15 5
			vertex 5 15 8.75
			vertex 5 15 5
		endloop
	endfacet
	facet normal 0 1 0
		outer loop
			vertex 0 15 10
			vertex 5 15 10
			vertex 5 15 8.75
		endloop
	endfacet
	facet normal 0 1 0
		outer loop
			vertex 0 15 0
			vertex 0 15 5
			vertex 1.666666666666667 15 5
		endloop
	endfacet
	facet normal 0 1 0
		outer loop
			vertex 0 15 0
			vertex 1.666666666666667 15 5
			vertex 0.8333333333333335 15 0
		endloop
	endfacet
	facet normal 0 1 0
		outer loop
			vertex 0.8333333333333335 15 0
			vertex 1.666666666666667 15 5
			vertex 3.3333333333333335 15 0
		endloop
	endfacet
	facet normal 0 1 0
		outer loop
			vertex 1.6666666666666665 15 5
			vertex 5 15 5
			vertex 5 15 0
		endloop
	endfacet
	facet normal 0 1 0
		outer loop
			vertex 1.6666666666666665 15 5
			vertex 5 15 0
			vertex 3.333333333333333 15 0
		endloop
	endfacet
	facet normal 0 -1 0
		outer loop
			vertex 5 10 6.25
			vertex 15 10 8.75
			vertex 15 10 10
		endloop
	endfacet
	facet normal 0 -1 0
		outer loop
			vertex 5 10 6.25
			vertex 15 10 10
			vertex 5 10 10
		endloop
	endfacet
	facet normal 0 -1 0
		outer loop
			vertex 5 10 5
			vertex 15 10 5
			vertex 15 10 8.333333333333334
		endloop
	endfacet
	facet normal 0 -1 0
		outer loop
			vertex 5 10 5
			vertex 15 10 8.333333333333332
			vertex 15 10 8.75
		endloop
	endfacet
	facet normal 0 -1 0
		outer loop
			vertex 5 10 5
			vertex 15 10 8.75
			vertex 5 10 6.25
		endloop
	endfacet
	facet normal 0 -1 0
		outer loop
			vertex 0 10 10
			vertex 0 10 5
			vertex 5 10 6.25
		endloop
	endfacet
	facet normal 0 -1 0
		outer loop
			vertex 0 10 10
			vertex 5 10 6.25
			vertex 5 10 10
		endloop
	endfacet
	facet normal 0 -1 0
		outer loop
			vertex 0 10 5
			vertex 5 10 5
			vertex 5 10 6.25
		endloop
	endfacet
	facet normal 0 -1 0
		outer loop
			vertex 0 10 5
			vertex 0 10 0
			vertex 1.6666666666666667 10 0
		endloop
	endfacet
	facet normal 0 -1 0
		outer loop
			vertex 0 10 5
			vertex 1.6666666666666667 10 0
			vertex 3.3333333333333335 10 5
		endloop
	endfacet
	facet normal 0 -1 0
		outer loop
			vertex 3.333333333333333 10 5
			vertex 1.6666666666666665 10 0
			vertex 4.166666666666666 10 0
		endloop
	endfacet
	facet normal 0 -1 0
		outer loop
			vertex 3.333333333333333 10 5
			vertex 4.166666666666666 10 0
			vertex 5 10 0
		endloop
	endfacet
	facet normal 0 -1 0
		outer loop
			vertex 3.333333333333333 10 5
			vertex 5 10 0
			vertex 5 10 5
		endloop
	endfacet
	facet normal 0 0 1
		outer loop
			vertex 5 11.25 10
			vertex 15 13.75 10
			vertex 15 15 10
		endloop
	endfacet
	facet normal 0 0 1
		outer loop
			vertex 5 11.25 10
			vertex 15 15 10
			vertex 5 15 10
		endloop
	endfacet
	facet normal 0 0 1
		outer loop
			vertex 5 10 10
			vertex 15 10 10
			vertex 15 13.333333333333334 10
		endloop
	endfacet
	facet normal 0 0 1
		outer loop
			vertex 5 10 10
			vertex 15 13.333333333333332 10
			vertex 15 13.75 10
		endloop
	endfacet
	facet normal 0 0 1
		outer loop
			vertex 5 10 10
			vertex 15 13.75 10
			vertex 5 11.25 10
		endloop
	endfacet
	facet normal 0 0 1
		outer loop
			vertex 0 15 10
			vertex 0 10 10
			vertex 5 11.25 10
		endloop
	endfacet
	facet normal 0 0 1
		outer loop
			vertex 0 15 10
			vertex 5 11.25 10
			vertex 5 15 10
		endloop
	endfacet
	facet normal 0 0 1
		outer loop
			vertex 0 10 10
			vertex 5 10 10
			vertex 5 11.25 10
		endloop
	endfacet
	facet normal 0 0 -1
		outer loop
			vertex 15 11.25 5
			vertex 5 13.75 5
			vertex 15 14.583333333333334 5
		endloop
	endfacet
	facet normal 0 0 -1
		outer loop
			vertex 15 14.583333333333334 5
			vertex 5 13.75 5
			vertex 5 15 5
		endloop
	endfacet
	facet normal 0 0 -1
		outer loop
			vertex 15 14.583333333333334 5
			vertex 5 15 5
			vertex 15 15 5
		endloop
	endfacet
	facet normal 0 0 -1
		outer loop
			vertex 15 10 5
			vertex 5 10 5
			vertex 5 13.75 5
		endloop
	endfacet
	facet normal 0 0 -1
		outer loop
			vertex 15 10 5
			vertex 5 13.75 5
			vertex 15 11.25 5
		endloop
	endfacet
	facet normal 1 0 0
		outer loop
			vertex 5 11.666666666666666 5
			vertex 5 13.333333333333332 0
			vertex 5 15 0
		endloop
	endfacet
	facet normal 1 0 0
		outer loop
			vertex 5 11.666666666666666 5
			vertex 5 15 0
			vertex 5 15 5
		endloop
	endfacet
	facet normal 1 0 0
		outer loop
			vertex 5 10 5
			vertex 5 10 0
			vertex 5 12.5 0
		endloop
	endfacet
	facet normal 1 0 0
		outer loop
			vertex 5 10 5
			vertex 5 12.5 0
			vertex 5 13.333333333333334 0
		endloop
	endfacet
	facet normal 1 0 0
		outer loop
			vertex 5 10 5
			vertex 5 13.333333333333334 0
			vertex 5 11.666666666666668 5
		endloop
	endfacet
	facet normal 0 -1 0
		outer loop
			vertex 5 0 6.666666666666666
			vertex 10 0 8.333333333333332
			vertex 10 0 10
		endloop
	endfacet
	facet normal 0 -1 0
		outer loop
			vertex 5 0 6.666666666666666
			vertex 10 0 10
			vertex 5 0 10
		endloop
	endfacet
	facet normal 0 -1 0
		outer loop
			vertex 5 0 5
			vertex 10 0 5
			vertex 10 0 7.5
		endloop
	endfacet
	facet normal 0 -1 0
		outer loop
			vertex 5 0 5
			vertex 10 0 7.5
			vertex 10 0 8.333333333333334
		endloop
	endfacet
	facet normal 0 -1 0
		outer loop
			vertex 5 0 5
			vertex 10 0 8.333333333333334
			vertex 5 0 6.666666666666667
		endloop
	endfacet
	facet normal 0 -1 0
		outer loop
			vertex 0 0 10
			vertex 0 0 5
			vertex 5 0 6.666666666666666
		endloop
	endfacet
	facet normal 0 -1 0
		outer loop
			vertex 0 0 10
			vertex 5 0 6.666666666666666
			vertex 5 0 10
		endloop
	endfacet
	facet normal 0 -1 0
		outer loop
			vertex 0 0 5
			vertex 5 0 5
			vertex 5 0 6.666666666666667
		endloop
	endfacet
	facet normal 0 -1 0
		outer loop
			vertex 0 0 5
			vertex 0 0 0
			vertex 1.6666666666666667 0 0
		endloop
	endfacet
	facet normal 0 -1 0
		outer loop
			vertex 0 0 5
			vertex 1.6666666666666667 0 0
			vertex 3.3333333333333335 0 5
		endloop
	endfacet
	facet normal 0 -1 0
		outer loop
			vertex 3.333333333333333 0 5
			vertex 1.6666666666666665 0 0
			vertex 4.166666666666666 0 0
		endloop
	endfacet
	facet normal 0 -1 0
		outer loop
			vertex 3.333333333333333 0 5
			vertex 4.166666666666666 0 0
			vertex 5 0 0
		endloop
	endfacet
	facet normal 0 -1 0
		outer loop
			vertex 3.333333333333333 0 5
			vertex 5 0 0
			vertex 5 0 5
		endloop
	endfacet
	facet normal 0 -1 0
		outer loop
			vertex 10 0 8.333333333333332
			vertex 15 0 10
			vertex 10 0 10
		endloop
	endfacet
	facet normal 0 -1 0
		outer loop
			vertex 10 0 5
			vertex 15 0 5
			vertex 15 0 10
		endloop
	endfacet
	facet normal 0 -1 0
		outer loop
			vertex 10 0 5
			vertex 15 0 10
			vertex 10 0 7.5
		endloop
	endfacet
	facet normal 0 -1 0
		outer loop
			vertex 10 0 7.5
			vertex 15 0 10
			vertex 10 0 8.333333333333334
		endloop
	endfacet
	facet normal 0 -1 0
		outer loop
			vertex 10 0 5
			vertex 10 0 0
			vertex 11.666666666666668 0 0
		endloop
	endfacet
	facet normal 0 -1 0
		outer loop
			vertex 10 0 5
			vertex 11.666666666666668 0 0
			vertex 13.333333333333334 0 5
		endloop
	endfacet
	facet normal 0 -1 0
		outer loop
			vertex 13.333333333333332 0 5
			vertex 11.666666666666666 0 0
			vertex 14.166666666666666 0 0
		endloop
	endfacet
	facet normal 0 -1 0
		outer loop
			vertex 13.333333333333332 0 5
			vertex 14.166666666666666 0 0
			vertex 15 0 0
		endloop
	endfacet
	facet normal 0 -1 0
		outer loop
			vertex 13.333333333333332 0 5
			vertex 15 0 0
			vertex 15 0 5
		endloop
	endfacet
	facet normal 0 0 1
		outer loop
			vertex 5 1.6666666666666665 10
			vertex 10 3.333333333333333 10
			vertex 10 5 10
		endloop
	endfacet
	facet normal 0 0 1
		outer loop
			vertex 5 1.6666666666666665 10
			vertex 10 5 10
			vertex 5 5 10
		endloop
	endfacet
	facet normal 0 0 1
		outer loop
			vertex 5 0 10
			vertex 10 0 10
			vertex 10 2.5 10
		endloop
	endfacet
	facet normal 0 0 1
		outer loop
			vertex 5 0 10
			vertex 10 2.5 10
			vertex 10 3.3333333333333335 10
		endloop
	endfacet
	facet normal 0 0 1
		outer loop
			vertex 5 0 10
			vertex 10 3.3333333333333335 10
			vertex 5 1.666666666666667 10
		endloop
	endfacet
	facet normal 0 0 1
		outer loop
			vertex 0 5 10
			vertex 0 0 10
			vertex 5 1.6666666666666665 10
		endloop
	endfacet
	facet normal 0 0 1
		outer loop
			vertex 0 5 10
			vertex 5 1.6666666666666665 10
			vertex 5 5 10
		endloop
	endfacet
	facet normal 0 0 1
		outer loop
			vertex 0 0 10
			vertex 5 0 10
			vertex 5 1.666666666666667 10
		endloop
	endfacet
	facet normal 0 0 1
		outer loop
			vertex 10 3.333333333333333 10
			vertex 15 5 10
			vertex 10 5 10
		endloop
	endfacet
	facet normal 0 0 1
		outer loop
			vertex 10 0 10
			vertex 15 0 10
			vertex 15 5 10
		endloop
	endfacet
	facet normal 0 0 1
		outer loop
			vertex 10 0 10
			vertex 15 5 10
			vertex 10 2.5 10
		endloop
	endfacet
	facet normal 0 0 1
		outer loop
			vertex 10 2.5 10
			vertex 15 5 10
			vertex 10 3.3333333333333335 10
		endloop
	endfacet
	facet normal 0 0 -1
		outer loop
			vertex 10 1.6666666666666665 5
			vertex 5 3.333333333333333 5
			vertex 10 4.166666666666666 5
		endloop
	endfacet
	facet normal 0 0 -1
		outer loop
			vertex 10 4.166666666666666 5
			vertex 5 3.333333333333333 5
			vertex 5 5 5
		endloop
	endfacet
	facet normal 0 0 -1
		outer loop
			vertex 10 4.166666666666666 5
			vertex 5 5 5
			vertex 10 5 5
		endloop
	endfacet
	facet normal 0 0 -1
		outer loop
			vertex 10 0 5
			vertex 5 0 5
			vertex 5 3.3333333333333335 5
		endloop
	endfacet
	facet normal 0 0 -1
		outer loop
			vertex 10 0 5
			vertex 5 3.3333333333333335 5
			vertex 10 1.6666666666666667 5
		endloop
	endfacet
	facet normal 1 0 0
		outer loop
			vertex 5 1.6666666666666665 5
			vertex 5 3.333333333333333 0
			vertex 5 5 0
		endloop
	endfacet
	facet normal 1 0 0
		outer loop
			vertex 5 1.6666666666666665 5
			vertex 5 5 0
			vertex 5 5 5
		endloop
	endfacet
	facet normal 1 0 0
		outer loop
			vertex 5 0 5
			vertex 5 0 0
			vertex 5 2.5 0
		endloop
	endfacet
	facet normal 1 0 0
		outer loop
			vertex 5 0 5
			vertex 5 2.5 0
			vertex 5 3.3333333333333335 0
		endloop
	endfacet
	facet normal 1 0 0
		outer loop
			vertex 5 0 5
			vertex 5 3.3333333333333335 0
			vertex 5 1.666666666666667 5
		endloop
	endfacet
	facet normal -1 0 0
		outer loop
			vertex 10 1.6666666666666665 0
			vertex 10 3.333333333333333 5
			vertex 10 4.166666666666666 0
		endloop
	endfacet
	facet normal -1 0 0
		outer loop
			vertex 10 4.166666666666666 0
			vertex 10 3.333333333333333 5
			vertex 10 5 5
		endloop
	endfacet
	facet normal -1 0 0
		outer loop
			vertex 10 4.166666666666666 0
			vertex 10 5 5
			vertex 10 5 0
		endloop
	endfacet
	facet normal -1 0 0
		outer loop
			vertex 10 0 0
			vertex 10 0 5
			vertex 10 3.3333333333333335 5
		endloop
	endfacet
	facet normal -1 0 0
		outer loop
			vertex 10 0 0
			vertex 10 3.3333333333333335 5
			vertex 10 1.6666666666666667 0
		endloop
	endfacet
	facet normal 0 0 -1
		outer loop
			vertex 22.5 17.5 -5
			vertex 22.5 -2.5 -5
			vertex 20 -0.5 -5
		endloop
	endfacet
	facet normal 0 0 -1
		outer loop
			vertex 22.5 17.5 -5
			vertex 20 -0.5 -5
			vertex 20 12.833333333333332 -5
		endloop
	endfacet
	facet normal 0 0 -1
		outer loop
			vertex 22.5 17.5 -5
			vertex 20 12.833333333333334 -5
			vertex 20 17.5 -5
		endloop
	endfacet
	facet normal 0 0 -1
		outer loop
			vertex 22.5 -2.5 -5
			vertex 20 -2.5 -5
			vertex 20 -0.5 -5
		endloop
	endfacet
	facet normal 0 0 -1
		outer loop
			vertex 0 15.5 -5
			vertex -2.5 17.5 -5
			vertex 0 17.5 -5
		endloop
	endfacet
	facet normal 0 0 -1
		outer loop
			vertex 0 -2.5 -5
			vertex -2.5 -2.5 -5
			vertex -2.5 17.5 -5
		endloop
	endfacet
	facet normal 0 0 -1
		outer loop
			vertex 0 -2.5 -5
			vertex -2.5 17.5 -5
			vertex 0 15.5 -5
		endloop
	endfacet
	facet normal 0 0 -1
		outer loop
			vertex 15 15 -5
			vertex 15 17.5 -5
			vertex 20 17.5 -5
		endloop
	endfacet
	facet normal 0 0 -1
		outer loop
			vertex 15 15 -5
			vertex 20 17.5 -5
			vertex 20 15 -5
		endloop
	endfacet
	facet normal 0 0 -1
		outer loop
			vertex 0.625 15 -5
			vertex 0 15.5 -5
			vertex 0 17.5 -5
		endloop
	endfacet
	facet normal 0 0 -1
		outer loop
			vertex 0.625 15 -5
			vertex 0 17.5 -5
			vertex 2.625 15 -5
		endloop
	endfacet
	facet normal 0 0 -1
		outer loop
			vertex 2.625 15 -5
			vertex 0 17.5 -5
			vertex 15 17.5 -5
		endloop
	endfacet
	facet normal 0 0 -1
		outer loop
			vertex 2.625 15 -5
			vertex 15 17.5 -5
			vertex 14.625 15 -5
		endloop
	endfacet
	facet normal 0 0 -1
		outer loop
			vertex 14.625 15 -5
			vertex 15 17.5 -5
			vertex 15 15 -5
		endloop
	endfacet
	facet normal 0 0 -1
		outer loop
			vertex 0 15 -5
			vertex 0 15.5 -5
			vertex 0.625 15 -5
		endloop
	endfacet
	facet normal 0 0 -1
		outer loop
			vertex 20 -0.5 -5
			vertex 15 3.5 -5
			vertex 18.482142857142858 10 -5
		endloop
	endfacet
	facet normal 0 0 -1
		outer loop
			vertex 20 -0.5 -5
			vertex 18.482142857142858 10 -5
			vertex 20 10 -5
		endloop
	endfacet
	facet normal 0 0 -1
		outer loop
			vertex 18.482142857142858 10 -5
			vertex 15 3.5 -5
			vertex 15 10 -5
		endloop
	endfacet
	facet normal 0 0 -1
		outer loop
			vertex 20 -2.5 -5
			vertex 15 -2.5 -5
			vertex 15 3.5 -5
		endloop
	endfacet
	facet normal 0 0 -1
		outer loop
			vertex 20 -2.5 -5
			vertex 15 3.5 -5
			vertex 20 -0.5 -5
		endloop
	endfacet
	facet normal 0 0 -1
		outer loop
			vertex 13.125 5 -5
			vertex 6.875 10 -5
			vertex 7.875 10 -5
		endloop
	endfacet
	facet normal 0 0 -1
		outer loop
			vertex 13.125 5 -5
			vertex 7.875 10 -5
			vertex 13.875 10 -5
		endloop
	endfacet
	facet normal 0 0 -1
		outer loop
			vertex 13.125 5 -5
			vertex 13.875 10 -5
			vertex 15 10 -5
		endloop
	endfacet
	facet normal 0 0 -1
		outer loop
			vertex 13.125 5 -5
			vertex 15 10 -5
			vertex 15 5 -5
		endloop
	endfacet
	facet normal 0 0 -1
		outer loop
			vertex 0 5 -5
			vertex 0 10 -5
			vertex 6.875 10 -5
		endloop
	endfacet
	facet normal 0 0 -1
		outer loop
			vertex 0 5 -5
			vertex 6.875 10 -5
			vertex 13.125 5 -5
		endloop
	endfacet
	facet normal 0 0 -1
		outer loop
			vertex 15 -2.5 -5
			vertex 0 -2.5 -5
			vertex 0 0 -5
		endloop
	endfacet
	facet normal 0 0 -1
		outer loop
			vertex 15 -2.5 -5
			vertex 0 0 -5
			vertex 15 0 -5
		endloop
	endfacet
	facet normal 0 0 -1
		outer loop
			vertex 5 5 -5
			vertex 10 5 -5
			vertex 10 0 -5
		endloop
	endfacet
	facet normal 0 0 -1
		outer loop
			vertex 5 5 -5
			vertex 10 0 -5
			vertex 5 0 -5
		endloop
	endfacet
	facet normal 0 0 -1
		outer loop
			vertex 15 3.5 -5
			vertex 13.125 5 -5
			vertex 15 5 -5
		endloop
	endfacet
	facet normal 0 0 -1
		outer loop
			vertex 10 5 -5
			vertex 13.125 5 -5
			vertex 15 3.5 -5
		endloop
	endfacet
	facet normal 0 0 -1
		outer loop
			vertex 10 5 -5
			vertex 15 3.5 -5
			vertex 15 0 -5
		endloop
	endfacet
	facet normal 0 0 -1
		outer loop
			vertex 10 5 -5
			vertex 15 0 -5
			vertex 10 0 -5
		endloop
	endfacet
	facet normal 0 0 -1
		outer loop
			vertex 0 0 -5
			vertex 0 5 -5
			vertex 5 5 -5
		endloop
	endfacet
	facet normal 0 0 -1
		outer loop
			vertex 0 0 -5
			vertex 5 5 -5
			vertex 5 0 -5
		endloop
	endfacet
	facet normal 0 0 -1
		outer loop
			vertex 6.875 10 -5
			vertex 5 11.5 -5
			vertex 5 12.738095238095237 -5
		endloop
	endfacet
	facet normal 0 0 -1
		outer loop
			vertex 6.875 10 -5
			vertex 5 12.738095238095237 -5
			vertex 7.875 10 -5
		endloop
	endfacet
	facet normal 0 0 -1
		outer loop
			vertex 7.875 10 -5
			vertex 5 12.738095238095237 -5
			vertex 5 15 -5
		endloop
	endfacet
	facet normal 0 0 -1
		outer loop
			vertex 7.875 10 -5
			vertex 5 15 -5
			vertex 14.625 15 -5
		endloop
	endfacet
	facet normal 0 0 -1
		outer loop
			vertex 7.875 10 -5
			vertex 14.625 15 -5
			vertex 13.875 10 -5
		endloop
	endfacet
	facet normal 0 0 -1
		outer loop
			vertex 13.875 10 -5
			vertex 14.625 15 -5
			vertex 15 15 -5
		endloop
	endfacet
	facet normal 0 0 -1
		outer loop
			vertex 13.875 10 -5
			vertex 15 15 -5
			vertex 15 10 -5
		endloop
	endfacet
	facet normal 0 0 -1
		outer loop
			vertex 5 11.5 -5
			vertex 6.875 10 -5
			vertex 5 10 -5
		endloop
	endfacet
	facet normal 0 0 -1
		outer loop
			vertex 18.482142857142858 10 -5
			vertex 20 12.833333333333332 -5
			vertex 20 10 -5
		endloop
	endfacet
	facet normal 0 0 -1
		outer loop
			vertex 20 12.833333333333334 -5
			vertex 18.482142857142858 10 -5
			vertex 15 10 -5
		endloop
	endfacet
	facet normal 0 0 -1
		outer loop
			vertex 20 12.833333333333334 -5
			vertex 15 10 -5
			vertex 15 15 -5
		endloop
	endfacet
	facet normal 0 0 -1
		outer loop
			vertex 20 12.833333333333334 -5
			vertex 15 15 -5
			vertex 20 15 -5
		endloop
	endfacet
	facet normal 0 0 -1
		outer loop
			vertex 5 11.5 -5
			vertex 0.625 15 -5
			vertex 2.625 15 -5
		endloop
	endfacet
	facet normal 0 0 -1
		outer loop
			vertex 5 11.5 -5
			vertex 2.625 15 -5
			vertex 5 12.738095238095237 -5
		endloop
	endfacet
	facet normal 0 0 -1
		outer loop
			vertex 5 12.738095238095237 -5
			vertex 2.625 15 -5
			vertex 5 15 -5
		endloop
	endfacet
	facet normal 0 0 -1
		outer loop
			vertex 0 10 -5
			vertex 0 15 -5
			vertex 0.625 15 -5
		endloop
	endfacet
	facet normal 0 0 -1
		outer loop
			vertex 0 10 -5
			vertex 0.625 15 -5
			vertex 5 11.5 -5
		endloop
	endfacet
	facet normal 0 0 -1
		outer loop
			vertex 0 10 -5
			vertex 5 11.5 -5
			vertex 5 10 -5
		endloop
	endfacet
endsolid exported
