solid exported
	facet normal 1 0 0
		outer loop
			vertex 50 2.5 7.5
			vertex 50 -2.5 7.5
			vertex 50 2.5 2.5
		endloop
	endfacet
	facet normal 1 0 0
		outer loop
			vertex 50 -2.5 7.5
			vertex 50 -2.5 2.5
			vertex 50 2.5 2.5
		endloop
	endfacet
	facet normal 1 0 0
		outer loop
			vertex 50 2.5 2.5
			vertex 50 -0.833333333333333 2.5
			vertex 50 0.8333333333333335 -2.5
		endloop
	endfacet
	facet normal 1 0 0
		outer loop
			vertex 50 2.5 2.5
			vertex 50 0.8333333333333335 -2.5
			vertex 50 2.5 -2.5
		endloop
	endfacet
	facet normal 1 0 0
		outer loop
			vertex 50 -0.8333333333333335 2.5
			vertex 50 -2.5 2.5
			vertex 50 -2.5 -2.5
		endloop
	endfacet
	facet normal 1 0 0
		outer loop
			vertex 50 -0.8333333333333335 2.5
			vertex 50 -2.5 -2.5
			vertex 50 -1.6666666666666667 -2.5
		endloop
	endfacet
	facet normal 1 0 0
		outer loop
			vertex 50 -0.8333333333333335 2.5
			vertex 50 -1.6666666666666667 -2.5
			vertex 50 0.8333333333333333 -2.5
		endloop
	endfacet
	facet normal 1 0 0
		outer loop
			vertex 52.5 5 -2.5
			vertex 52.5 -5 -2.5
			vertex 52.5 5 -7.5
		endloop
	endfacet
	facet normal 1 0 0
		outer loop
			vertex 52.5 -5 -2.5
			vertex 52.5 -5 -7.5
			vertex 52.5 5 -7.5
		endloop
	endfacet
	facet normal 0 1 0
		outer loop
			vertex 50 5 -7.3809523809523805
			vertex 52.5 5 -7.5
			vertex 50 5 -7.5
		endloop
	endfacet
	facet normal 0 1 0
		outer loop
			vertex 50 5 -2.5
			vertex 52.5 5 -2.5
			vertex 52.5 5 -7.5
		endloop
	endfacet
	facet normal 0 1 0
		outer loop
			vertex 50 5 -2.5
			vertex 52.5 5 -7.5
			vertex 50 5 -7.380952380952381
		endloop
	endfacet
	facet normal 0 -1 0
		outer loop
			vertex 50 -5 -2.6190476190476195
			vertex 52.5 -5 -2.5
			vertex 50 -5 -2.5
		endloop
	endfacet
	facet normal 0 -1 0
		outer loop
			vertex 50 -5 -7.5
			vertex 52.5 -5 -7.5
			vertex 52.5 -5 -2.5
		endloop
	endfacet
	facet normal 0 -1 0
		outer loop
			vertex 50 -5 -7.5
			vertex 52.5 -5 -2.5
			vertex 50 -5 -2.619047619047619
		endloop
	endfacet
	facet normal 0 0 1
		outer loop
			vertex 50 4.761904761904761 -2.5
			vertex 52.5 5 -2.5
			vertex 50 5 -2.5
		endloop
	endfacet
	facet normal 0 0 1
		outer loop
			vertex 50 -5 -2.5
			vertex 52.5 -5 -2.5
			vertex 52.5 5 -2.5
		endloop
	endfacet
	facet normal 0 0 1
		outer loop
			vertex 50 -5 -2.5
			vertex 52.5 5 -2.5
			vertex 50 4.761904761904762 -2.5
		endloop
	endfacet
	facet normal 0 0 -1
		outer loop
			vertex 52.5 5 -7.5
			vertex 52.5 -5 -7.5
			vertex 50 -4.761904761904762 -7.5
		endloop
	endfacet
	facet normal 0 0 -1
		outer loop
			vertex 52.5 5 -7.5
			vertex 50 -4.761904761904762 -7.5
			vertex 50 5 -7.5
		endloop
	endfacet
	facet normal 0 0 -1
		outer loop
			vertex 52.5 -5 -7.5
			vertex 50 -5 -7.5
			vertex 50 -4.761904761904761 -7.5
		endloop
	endfacet
	facet normal -1 0 0
		outer loop
			vertex -50 2.5 2.5
			vertex -50 -2.5 2.5
			vertex -50 2.5 7.5
		endloop
	endfacet
	facet normal -1 0 0
		outer loop
			vertex -50 -2.5 2.5
			vertex -50 -2.5 7.5
			vertex -50 2.5 7.5
		endloop
	endfacet
	facet normal -1 0 0
		outer loop
			vertex -50 2.5 2.5
			vertex -50 2.5 -2.5
			vertex -50 0 -2.5
		endloop
	endfacet
	facet normal -1 0 0
		outer loop
			vertex -50 2.5 2.5
			vertex -50 0 -2.5
			vertex -50 -0.8333333333333333 -2.5
		endloop
	endfacet
	facet normal -1 0 0
		outer loop
			vertex -50 2.5 2.5
			vertex -50 -0.8333333333333333 -2.5
			vertex -50 0.8333333333333335 2.5
		endloop
	endfacet
	facet normal -1 0 0
		outer loop
			vertex -50 0.833333333333333 2.5
			vertex -50 -0.8333333333333335 -2.5
			vertex -50 -2.5 -2.5
		endloop
	endfacet
	facet normal -1 0 0
		outer loop
			vertex -50 0.833333333333333 2.5
			vertex -50 -2.5 -2.5
			vertex -50 -2.5 2.5
		endloop
	endfacet
	facet normal -1 0 0
		outer loop
			vertex -52.5 5 -7.5
			vertex -52.5 -5 -7.5
			vertex -52.5 5 -2.5
		endloop
	endfacet
	facet normal -1 0 0
		outer loop
			vertex -52.5 -5 -7.5
			vertex -52.5 -5 -2.5
			vertex -52.5 5 -2.5
		endloop
	endfacet
	facet normal 0 1 0
		outer loop
			vertex -52.5 5 -7.5
			vertex -52.5 5 -2.5
			vertex -50 5 -2.619047619047619
		endloop
	endfacet
	facet normal 0 1 0
		outer loop
			vertex -52.5 5 -7.5
			vertex -50 5 -2.619047619047619
			vertex -50 5 -7.5
		endloop
	endfacet
	facet normal 0 1 0
		outer loop
			vertex -52.5 5 -2.5
			vertex -50 5 -2.5
			vertex -50 5 -2.6190476190476195
		endloop
	endfacet
	facet normal 0 -1 0
		outer loop
			vertex -52.5 -5 -2.5
			vertex -52.5 -5 -7.5
			vertex -50 -5 -7.380952380952381
		endloop
	endfacet
	facet normal 0 -1 0
		outer loop
			vertex -52.5 -5 -2.5
			vertex -50 -5 -7.380952380952381
			vertex -50 -5 -2.5
		endloop
	endfacet
	facet normal 0 -1 0
		outer loop
			vertex -52.5 -5 -7.5
			vertex -50 -5 -7.5
			vertex -50 -5 -7.380952380952381
		endloop
	endfacet
	facet normal 0 0 1
		outer loop
			vertex -52.5 5 -2.5
			vertex -52.5 -5 -2.5
			vertex -50 -4.761904761904762 -2.5
		endloop
	endfacet
	facet normal 0 0 1
		outer loop
			vertex -52.5 5 -2.5
			vertex -50 -4.761904761904762 -2.5
			vertex -50 5 -2.5
		endloop
	endfacet
	facet normal 0 0 1
		outer loop
			vertex -52.5 -5 -2.5
			vertex -50 -5 -2.5
			vertex -50 -4.761904761904762 -2.5
		endloop
	endfacet
	facet normal 0 0 -1
		outer loop
			vertex -50 4.761904761904762 -7.5
			vertex -52.5 5 -7.5
			vertex -50 5 -7.5
		endloop
	endfacet
	facet normal 0 0 -1
		outer loop
			vertex -50 -5 -7.5
			vertex -52.5 -5 -7.5
			vertex -52.5 5 -7.5
		endloop
	endfacet
	facet normal 0 0 -1
		outer loop
			vertex -50 -5 -7.5
			vertex -52.5 5 -7.5
			vertex -50 4.761904761904762 -7.5
		endloop
	endfacet
	facet normal 0 1 0
		outer loop
			vertex -45 2.5 7.25
			vertex 45 2.5 2.75
			vertex -45 2.5 2.513157894736842
		endloop
	endfacet
	facet normal 0 1 0
		outer loop
			vertex -45 2.5 2.513157894736842
			vertex 45 2.5 2.75
			vertex 45 2.5 2.5
		endloop
	endfacet
	facet normal 0 1 0
		outer loop
			vertex -45 2.5 2.513157894736842
			vertex 45 2.5 2.5
			vertex -45 2.5 2.5
		endloop
	endfacet
	facet normal 0 1 0
		outer loop
			vertex -45 2.5 7.5
			vertex 45 2.5 7.5
			vertex 45 2.5 2.75
		endloop
	endfacet
	facet normal 0 1 0
		outer loop
			vertex -45 2.5 7.5
			vertex 45 2.5 2.75
			vertex -45 2.5 7.25
		endloop
	endfacet
	facet normal 0 1 0
		outer loop
			vertex 45 2.5 2.75
			vertex 50 2.5 2.5
			vertex 45 2.5 2.5
		endloop
	endfacet
	facet normal 0 1 0
		outer loop
			vertex 45 2.5 7.5
			vertex 50 2.5 7.5
			vertex 50 2.5 2.5
		endloop
	endfacet
	facet normal 0 1 0
		outer loop
			vertex 45 2.5 7.5
			vertex 50 2.5 2.5
			vertex 45 2.5 2.75
		endloop
	endfacet
	facet normal 0 1 0
		outer loop
			vertex 45 2.5 -2.5
			vertex 45 2.5 2.5
			vertex 46.666666666666664 2.5 2.5
		endloop
	endfacet
	facet normal 0 1 0
		outer loop
			vertex 45 2.5 -2.5
			vertex 46.666666666666664 2.5 2.5
			vertex 45.83333333333333 2.5 -2.5
		endloop
	endfacet
	facet normal 0 1 0
		outer loop
			vertex 45.83333333333333 2.5 -2.5
			vertex 46.666666666666664 2.5 2.5
			vertex 48.33333333333333 2.5 -2.5
		endloop
	endfacet
	facet normal 0 1 0
		outer loop
			vertex 46.666666666666664 2.5 2.5
			vertex 50 2.5 2.5
			vertex 50 2.5 -2.5
		endloop
	endfacet
	facet normal 0 1 0
		outer loop
			vertex 46.666666666666664 2.5 2.5
			vertex 50 2.5 -2.5
			vertex 48.33333333333333 2.5 -2.5
		endloop
	endfacet
	facet normal 0 1 0
		outer loop
			vertex -50 2.5 2.5
			vertex -50 2.5 7.5
			vertex -45 2.5 7.25
		endloop
	endfacet
	facet normal 0 1 0
		outer loop
			vertex -50 2.5 2.5
			vertex -45 2.5 7.25
			vertex -45 2.5 2.513157894736842
		endloop
	endfacet
	facet normal 0 1 0
		outer loop
			vertex -50 2.5 2.5
			vertex -45 2.5 2.513157894736842
			vertex -45 2.5 2.5
		endloop
	endfacet
	facet normal 0 1 0
		outer loop
			vertex -50 2.5 7.5
			vertex -45 2.5 7.5
			vertex -45 2.5 7.25
		endloop
	endfacet
	facet normal 0 1 0
		outer loop
			vertex -50 2.5 -2.5
			vertex -50 2.5 2.5
			vertex -48.333333333333336 2.5 2.5
		endloop
	endfacet
	facet normal 0 1 0
		outer loop
			vertex -50 2.5 -2.5
			vertex -48.333333333333336 2.5 2.5
			vertex -49.16666666666667 2.5 -2.5
		endloop
	endfacet
	facet normal 0 1 0
		outer loop
			vertex -49.16666666666667 2.5 -2.5
			vertex -48.333333333333336 2.5 2.5
			vertex -46.66666666666667 2.5 -2.5
		endloop
	endfacet
	facet normal 0 1 0
		outer loop
			vertex -48.333333333333336 2.5 2.5
			vertex -45 2.5 2.5
			vertex -45 2.5 -2.5
		endloop
	endfacet
	facet normal 0 1 0
		outer loop
			vertex -48.333333333333336 2.5 2.5
			vertex -45 2.5 -2.5
			vertex -46.66666666666667 2.5 -2.5
		endloop
	endfacet
	facet normal 0 1 0
		outer loop
			vertex -50 5 -2.619047619047619
			vertex 50 5 -7.3809523809523805
			vertex 50 5 -7.5
		endloop
	endfacet
	facet normal 0 1 0
		outer loop
			vertex -50 5 -2.619047619047619
			vertex 50 5 -7.5
			vertex -50 5 -7.5
		endloop
	endfacet
	facet normal 0 1 0
		outer loop
			vertex -50 5 -2.5
			vertex 50 5 -2.5
			vertex 50 5 -7.380952380952381
		endloop
	endfacet
	facet normal 0 1 0
		outer loop
			vertex -50 5 -2.5
			vertex 50 5 -7.380952380952381
			vertex -50 5 -2.6190476190476195
		endloop
	endfacet
	facet normal 0 0 1
		outer loop
			vertex 26.250000000000014 2.5 -2.5
			vertex 50 4.761904761904761 -2.5
			vertex 50 5 -2.5
		endloop
	endfacet
	facet normal 0 0 1
		outer loop
			vertex 26.250000000000014 2.5 -2.5
			vertex 50 5 -2.5
			vertex -50 5 -2.5
		endloop
	endfacet
	facet normal 0 0 1
		outer loop
			vertex 26.250000000000014 2.5 -2.5
			vertex -50 5 -2.5
			vertex -50 2.4999999999999996 -2.5
		endloop
	endfacet
	facet normal 0 0 1
		outer loop
			vertex 50 2.5 -2.5
			vertex 50 4.761904761904762 -2.5
			vertex 26.25 2.5 -2.5
		endloop
	endfacet
	facet normal 0 0 -1
		outer loop
			vertex -26.25 2.499999999999999 -7.5
			vertex -50 4.761904761904762 -7.5
			vertex -50 5 -7.5
		endloop
	endfacet
	facet normal 0 0 -1
		outer loop
			vertex -26.25 2.499999999999999 -7.5
			vertex -50 5 -7.5
			vertex 50 5 -7.5
		endloop
	endfacet
	facet normal 0 0 -1
		outer loop
			vertex -26.25 2.499999999999999 -7.5
			vertex 50 5 -7.5
			vertex 50 2.4999999999999996 -7.5
		endloop
	endfacet
	facet normal 0 0 -1
		outer loop
			vertex -50 2.5 -7.5
			vertex -50 4.761904761904762 -7.5
			vertex -26.249999999999996 2.5 -7.5
		endloop
	endfacet
	facet normal 0 -1 0
		outer loop
			vertex -45 -2.5 2.75
			vertex 45 -2.5 7.25
			vertex -45 -2.5 7.4868421052631575
		endloop
	endfacet
	facet normal 0 -1 0
		outer loop
			vertex -45 -2.5 7.4868421052631575
			vertex 45 -2.5 7.25
			vertex 45 -2.5 7.5
		endloop
	endfacet
	facet normal 0 -1 0
		outer loop
			vertex -45 -2.5 7.4868421052631575
			vertex 45 -2.5 7.5
			vertex -45 -2.5 7.5
		endloop
	endfacet
	facet normal 0 -1 0
		outer loop
			vertex -45 -2.5 2.5
			vertex 45 -2.5 2.5
			vertex 45 -2.5 7.25
		endloop
	endfacet
	facet normal 0 -1 0
		outer loop
			vertex -45 -2.5 2.5
			vertex 45 -2.5 7.25
			vertex -45 -2.5 2.75
		endloop
	endfacet
	facet normal 0 -1 0
		outer loop
			vertex 45 -2.5 7.25
			vertex 50 -2.5 7.5
			vertex 45 -2.5 7.5
		endloop
	endfacet
	facet normal 0 -1 0
		outer loop
			vertex 45 -2.5 2.5
			vertex 50 -2.5 2.5
			vertex 50 -2.5 7.5
		endloop
	endfacet
	facet normal 0 -1 0
		outer loop
			vertex 45 -2.5 2.5
			vertex 50 -2.5 7.5
			vertex 45 -2.5 7.25
		endloop
	endfacet
	facet normal 0 -1 0
		outer loop
			vertex 45 -2.5 2.5
			vertex 45 -2.5 -2.5
			vertex 46.66666666666667 -2.5 -2.5
		endloop
	endfacet
	facet normal 0 -1 0
		outer loop
			vertex 45 -2.5 2.5
			vertex 46.66666666666667 -2.5 -2.5
			vertex 48.333333333333336 -2.5 2.5
		endloop
	endfacet
	facet normal 0 -1 0
		outer loop
			vertex 48.333333333333336 -2.5 2.5
			vertex 46.66666666666667 -2.5 -2.5
			vertex 49.16666666666667 -2.5 -2.5
		endloop
	endfacet
	facet normal 0 -1 0
		outer loop
			vertex 48.333333333333336 -2.5 2.5
			vertex 49.16666666666667 -2.5 -2.5
			vertex 50 -2.5 -2.5
		endloop
	endfacet
	facet normal 0 -1 0
		outer loop
			vertex 48.333333333333336 -2.5 2.5
			vertex 50 -2.5 -2.5
			vertex 50 -2.5 2.5
		endloop
	endfacet
	facet normal 0 -1 0
		outer loop
			vertex -50 -2.5 7.5
			vertex -50 -2.5 2.5
			vertex -45 -2.5 2.75
		endloop
	endfacet
	facet normal 0 -1 0
		outer loop
			vertex -50 -2.5 7.5
			vertex -45 -2.5 2.75
			vertex -45 -2.5 7.4868421052631575
		endloop
	endfacet
	facet normal 0 -1 0
		outer loop
			vertex -50 -2.5 7.5
			vertex -45 -2.5 7.4868421052631575
			vertex -45 -2.5 7.5
		endloop
	endfacet
	facet normal 0 -1 0
		outer loop
			vertex -50 -2.5 2.5
			vertex -45 -2.5 2.5
			vertex -45 -2.5 2.75
		endloop
	endfacet
	facet normal 0 -1 0
		outer loop
			vertex -50 -2.5 2.5
			vertex -50 -2.5 -2.5
			vertex -48.33333333333333 -2.5 -2.5
		endloop
	endfacet
	facet normal 0 -1 0
		outer loop
			vertex -50 -2.5 2.5
			vertex -48.33333333333333 -2.5 -2.5
			vertex -46.666666666666664 -2.5 2.5
		endloop
	endfacet
	facet normal 0 -1 0
		outer loop
			vertex -46.666666666666664 -2.5 2.5
			vertex -48.33333333333333 -2.5 -2.5
			vertex -45.83333333333333 -2.5 -2.5
		endloop
	endfacet
	facet normal 0 -1 0
		outer loop
			vertex -46.666666666666664 -2.5 2.5
			vertex -45.83333333333333 -2.5 -2.5
			vertex -45 -2.5 -2.5
		endloop
	endfacet
	facet normal 0 -1 0
		outer loop
			vertex -46.666666666666664 -2.5 2.5
			vertex -45 -2.5 -2.5
			vertex -45 -2.5 2.5
		endloop
	endfacet
	facet normal 0 -1 0
		outer loop
			vertex -50 -5 -7.380952380952381
			vertex 50 -5 -2.6190476190476195
			vertex 50 -5 -2.5
		endloop
	endfacet
	facet normal 0 -1 0
		outer loop
			vertex -50 -5 -7.380952380952381
			vertex 50 -5 -2.5
			vertex -50 -5 -2.5
		endloop
	endfacet
	facet normal 0 -1 0
		outer loop
			vertex -50 -5 -7.5
			vertex 50 -5 -7.5
			vertex 50 -5 -2.619047619047619
		endloop
	endfacet
	facet normal 0 -1 0
		outer loop
			vertex -50 -5 -7.5
			vertex 50 -5 -2.619047619047619
			vertex -50 -5 -7.380952380952381
		endloop
	endfacet
	facet normal 0 0 1
		outer loop
			vertex -50 -4.761904761904762 -2.5
			vertex -26.249999999999993 -2.5 -2.5
			vertex -50 -2.5000000000000004 -2.5
		endloop
	endfacet
	facet normal 0 0 1
		outer loop
			vertex -50 -5 -2.5
			vertex 50 -5 -2.5
			vertex 50 -2.5 -2.5
		endloop
	endfacet
	facet normal 0 0 1
		outer loop
			vertex -50 -5 -2.5
			vertex 50 -2.5 -2.5
			vertex -26.25 -2.5 -2.5
		endloop
	endfacet
	facet normal 0 0 1
		outer loop
			vertex -50 -5 -2.5
			vertex -26.25 -2.5 -2.5
			vertex -50 -4.761904761904762 -2.5
		endloop
	endfacet
	facet normal 0 0 -1
		outer loop
			vertex 50 -4.761904761904762 -7.5
			vertex 26.25 -2.5 -7.5
			vertex 50 -2.5000000000000004 -7.5
		endloop
	endfacet
	facet normal 0 0 -1
		outer loop
			vertex 50 -5 -7.5
			vertex -50 -5 -7.5
			vertex -50 -2.5 -7.5
		endloop
	endfacet
	facet normal 0 0 -1
		outer loop
			vertex 50 -5 -7.5
			vertex -50 -2.5 -7.5
			vertex 26.25000000000001 -2.5 -7.5
		endloop
	endfacet
	facet normal 0 0 -1
		outer loop
			vertex 50 -5 -7.5
			vertex 26.25000000000001 -2.5 -7.5
			vertex 50 -4.761904761904761 -7.5
		endloop
	endfacet
	facet normal 0 0 1
		outer loop
			vertex -45 -2.25 7.5
			vertex 45 2.25 7.5
			vertex -45 2.486842105263158 7.5
		endloop
	endfacet
	facet normal 0 0 1
		outer loop
			vertex -45 2.486842105263158 7.5
			vertex 45 2.25 7.5
			vertex 45 2.5 7.5
		endloop
	endfacet
	facet normal 0 0 1
		outer loop
			vertex -45 2.486842105263158 7.5
			vertex 45 2.5 7.5
			vertex -45 2.5 7.5
		endloop
	endfacet
	facet normal 0 0 1
		outer loop
			vertex -45 -2.5 7.5
			vertex 45 -2.5 7.5
			vertex 45 2.25 7.5
		endloop
	endfacet
	facet normal 0 0 1
		outer loop
			vertex -45 -2.5 7.5
			vertex 45 2.25 7.5
			vertex -45 -2.25 7.5
		endloop
	endfacet
	facet normal 0 0 1
		outer loop
			vertex 45 2.25 7.5
			vertex 50 2.5 7.5
			vertex 45 2.5 7.5
		endloop
	endfacet
	facet normal 0 0 1
		outer loop
			vertex 45 -2.5 7.5
			vertex 50 -2.5 7.5
			vertex 50 2.5 7.5
		endloop
	endfacet
	facet normal 0 0 1
		outer loop
			vertex 45 -2.5 7.5
			vertex 50 2.5 7.5
			vertex 45 2.25 7.5
		endloop
	endfacet
	facet normal 0 0 1
		outer loop
			vertex -50 2.5 7.5
			vertex -50 -2.5 7.5
			vertex -45 -2.25 7.5
		endloop
	endfacet
	facet normal 0 0 1
		outer loop
			vertex -50 2.5 7.5
			vertex -45 -2.25 7.5
			vertex -45 2.486842105263158 7.5
		endloop
	endfacet
	facet normal 0 0 1
		outer loop
			vertex -50 2.5 7.5
			vertex -45 2.486842105263158 7.5
			vertex -45 2.5 7.5
		endloop
	endfacet
	facet normal 0 0 1
		outer loop
			vertex -50 -2.5 7.5
			vertex -45 -2.5 7.5
			vertex -45 -2.25 7.5
		endloop
	endfacet
	facet normal 0 0 -1
		outer loop
			vertex 45 -2.25 2.5
			vertex -45 2.25 2.5
			vertex -45 2.5 2.5
		endloop
	endfacet
	facet normal 0 0 -1
		outer loop
			vertex 45 -2.25 2.5
			vertex -45 2.5 2.5
			vertex 45 2.5 2.5
		endloop
	endfacet
	facet normal 0 0 -1
		outer loop
			vertex 45 -2.5 2.5
			vertex -45 -2.5 2.5
			vertex -45 2.236842105263158 2.5
		endloop
	endfacet
	facet normal 0 0 -1
		outer loop
			vertex 45 -2.5 2.5
			vertex -45 2.2368421052631575 2.5
			vertex -45 2.25 2.5
		endloop
	endfacet
	facet normal 0 0 -1
		outer loop
			vertex 45 -2.5 2.5
			vertex -45 2.25 2.5
			vertex 45 -2.25 2.5
		endloop
	endfacet
	facet normal -1 0 0
		outer loop
			vertex 45 -0.8333333333333335 -2.5
			vertex 45 0.833333333333333 2.5
			vertex 45 1.6666666666666665 -2.5
		endloop
	endfacet
	facet normal -1 0 0
		outer loop
			vertex 45 1.6666666666666665 -2.5
			vertex 45 0.833333333333333 2.5
			vertex 45 2.5 2.5
		endloop
	endfacet
	facet normal -1 0 0
		outer loop
			vertex 45 1.6666666666666665 -2.5
			vertex 45 2.5 2.5
			vertex 45 2.5 -2.5
		endloop
	endfacet
	facet normal -1 0 0
		outer loop
			vertex 45 -2.5 -2.5
			vertex 45 -2.5 2.5
			vertex 45 0.8333333333333335 2.5
		endloop
	endfacet
	facet normal -1 0 0
		outer loop
			vertex 45 -2.5 -2.5
			vertex 45 0.8333333333333335 2.5
			vertex 45 -0.8333333333333333 -2.5
		endloop
	endfacet
	facet normal 1 0 0
		outer loop
			vertex -45 -0.8333333333333335 2.5
			vertex -45 0.8333333333333333 -2.5
			vertex -45 2.5 -2.5
		endloop
	endfacet
	facet normal 1 0 0
		outer loop
			vertex -45 -0.8333333333333335 2.5
			vertex -45 2.5 -2.5
			vertex -45 2.5 2.5
		endloop
	endfacet
	facet normal 1 0 0
		outer loop
			vertex -45 -2.5 2.5
			vertex -45 -2.5 -2.5
			vertex -45 0 -2.5
		endloop
	endfacet
	facet normal 1 0 0
		outer loop
			vertex -45 -2.5 2.5
			vertex -45 0 -2.5
			vertex -45 0.8333333333333335 -2.5
		endloop
	endfacet
	facet normal 1 0 0
		outer loop
			vertex -45 -2.5 2.5
			vertex -45 0.8333333333333335 -2.5
			vertex -45 -0.833333333333333 2.5
		endloop
	endfacet
	facet normal 0 0 1
		outer loop
			vertex -26.249999999999993 -2.5 -2.5
			vertex 26.250000000000014 2.5 -2.5
			vertex -45 2.4999999999999996 -2.5
		endloop
	endfacet
	facet normal 0 0 1
		outer loop
			vertex -26.249999999999993 -2.5 -2.5
			vertex -45 2.4999999999999996 -2.5
			vertex -45 -2.5000000000000004 -2.5
		endloop
	endfacet
	facet normal 0 0 1
		outer loop
			vertex 45 2.5 -2.5
			vertex 26.25 2.5 -2.5
			vertex -26.25 -2.5 -2.5
		endloop
	endfacet
	facet normal 0 0 1
		outer loop
			vertex 45 2.5 -2.5
			vertex -26.25 -2.5 -2.5
			vertex 45 -2.5 -2.5
		endloop
	endfacet
	facet normal 0 0 -1
		outer loop
			vertex 26.25 -2.5 -7.5
			vertex -26.25 2.499999999999999 -7.5
			vertex 45 2.4999999999999996 -7.5
		endloop
	endfacet
	facet normal 0 0 -1
		outer loop
			vertex 26.25 -2.5 -7.5
			vertex 45 2.4999999999999996 -7.5
			vertex 45 -2.5000000000000004 -7.5
		endloop
	endfacet
	facet normal 0 0 -1
		outer loop
			vertex -45 2.5 -7.5
			vertex -26.249999999999996 2.5 -7.5
			vertex 26.25000000000001 -2.5 -7.5
		endloop
	endfacet
	facet normal 0 0 -1
		outer loop
			vertex -45 2.5 -7.5
			vertex 26.25000000000001 -2.5 -7.5
			vertex -45 -2.5 -7.5
		endloop
	endfacet
	facet normal 0 0 -1
		outer loop
			vertex -45 2.5 -7.5
			vertex -45 -2.5 -7.5
			vertex -50 2.5 -7.5
		endloop
	endfacet
	facet normal 0 0 -1
		outer loop
			vertex -45 -2.5 -7.5
			vertex -50 -2.5 -7.5
			vertex -50 2.5 -7.5
		endloop
	endfacet
	facet normal 0 0 -1
		outer loop
			vertex 50 2.5 -7.5
			vertex 50 -2.5 -7.5
			vertex 45 2.5 -7.5
		endloop
	endfacet
	facet normal 0 0 -1
		outer loop
			vertex 50 -2.5 -7.5
			vertex 45 -2.5 -7.5
			vertex 45 2.5 -7.5
		endloop
	endfacet
endsolid exported
