solid exported
	facet normal 1 0 0
		outer loop
			vertex 125 2.5 7.5
			vertex 125 -2.5 7.5
			vertex 125 2.5 2.5
		endloop
	endfacet
	facet normal 1 0 0
		outer loop
			vertex 125 -2.5 7.5
			vertex 125 -2.5 2.5
			vertex 125 2.5 2.5
		endloop
	endfacet
	facet normal 1 0 0
		outer loop
			vertex 125 2.5 2.5
			vertex 125 -0.833333333333333 2.5
			vertex 125 0.8333333333333335 -2.5
		endloop
	endfacet
	facet normal 1 0 0
		outer loop
			vertex 125 2.5 2.5
			vertex 125 0.8333333333333335 -2.5
			vertex 125 2.5 -2.5
		endloop
	endfacet
	facet normal 1 0 0
		outer loop
			vertex 125 -0.8333333333333335 2.5
			vertex 125 -2.5 2.5
			vertex 125 -2.5 -2.5
		endloop
	endfacet
	facet normal 1 0 0
		outer loop
			vertex 125 -0.8333333333333335 2.5
			vertex 125 -2.5 -2.5
			vertex 125 -1.6666666666666667 -2.5
		endloop
	endfacet
	facet normal 1 0 0
		outer loop
			vertex 125 -0.8333333333333335 2.5
			vertex 125 -1.6666666666666667 -2.5
			vertex 125 0.8333333333333333 -2.5
		endloop
	endfacet
	facet normal 1 0 0
		outer loop
			vertex 127.5 5 -2.5
			vertex 127.5 -5 -2.5
			vertex 127.5 5 -7.5
		endloop
	endfacet
	facet normal 1 0 0
		outer loop
			vertex 127.5 -5 -2.5
			vertex 127.5 -5 -7.5
			vertex 127.5 5 -7.5
		endloop
	endfacet
	facet normal 0 1 0
		outer loop
			vertex 125 5 -7.450980392156863
			vertex 127.5 5 -7.5
			vertex 125 5 -7.5
		endloop
	endfacet
	facet normal 0 1 0
		outer loop
			vertex 125 5 -2.5
			vertex 127.5 5 -2.5
			vertex 127.5 5 -7.5
		endloop
	endfacet
	facet normal 0 1 0
		outer loop
			vertex 125 5 -2.5
			vertex 127.5 5 -7.5
			vertex 125 5 -7.450980392156863
		endloop
	endfacet
	facet normal 0 -1 0
		outer loop
			vertex 125 -5 -2.549019607843137
			vertex 127.5 -5 -2.5
			vertex 125 -5 -2.5
		endloop
	endfacet
	facet normal 0 -1 0
		outer loop
			vertex 125 -5 -7.5
			vertex 127.5 -5 -7.5
			vertex 127.5 -5 -2.5
		endloop
	endfacet
	facet normal 0 -1 0
		outer loop
			vertex 125 -5 -7.5
			vertex 127.5 -5 -2.5
			vertex 125 -5 -2.549019607843137
		endloop
	endfacet
	facet normal 0 0 1
		outer loop
			vertex 125 4.901960784313726 -2.5
			vertex 127.5 5 -2.5
			vertex 125 5 -2.5
		endloop
	endfacet
	facet normal 0 0 1
		outer loop
			vertex 125 -5 -2.5
			vertex 127.5 -5 -2.5
			vertex 127.5 5 -2.5
		endloop
	endfacet
	facet normal 0 0 1
		outer loop
			vertex 125 -5 -2.5
			vertex 127.5 5 -2.5
			vertex 125 4.901960784313726 -2.5
		endloop
	endfacet
	facet normal 0 0 -1
		outer loop
			vertex 127.5 5 -7.5
			vertex 127.5 -5 -7.5
			vertex 125 -4.901960784313726 -7.5
		endloop
	endfacet
	facet normal 0 0 -1
		outer loop
			vertex 127.5 5 -7.5
			vertex 125 -4.901960784313726 -7.5
			vertex 125 5 -7.5
		endloop
	endfacet
	facet normal 0 0 -1
		outer loop
			vertex 127.5 -5 -7.5
			vertex 125 -5 -7.5
			vertex 125 -4.901960784313726 -7.5
		endloop
	endfacet
	facet normal -1 0 0
		outer loop
			vertex -125 2.5 2.5
			vertex -125 -2.5 2.5
			vertex -125 2.5 7.5
		endloop
	endfacet
	facet normal -1 0 0
		outer loop
			vertex -125 -2.5 2.5
			vertex -125 -2.5 7.5
			vertex -125 2.5 7.5
		endloop
	endfacet
	facet normal -1 0 0
		outer loop
			vertex -125 2.5 2.5
			vertex -125 2.5 -2.5
			vertex -125 0 -2.5
		endloop
	endfacet
	facet normal -1 0 0
		outer loop
			vertex -125 2.5 2.5
			vertex -125 0 -2.5
			vertex -125 -0.8333333333333333 -2.5
		endloop
	endfacet
	facet normal -1 0 0
		outer loop
			vertex -125 2.5 2.5
			vertex -125 -0.8333333333333333 -2.5
			vertex -125 0.8333333333333335 2.5
		endloop
	endfacet
	facet normal -1 0 0
		outer loop
			vertex -125 0.833333333333333 2.5
			vertex -125 -0.8333333333333335 -2.5
			vertex -125 -2.5 -2.5
		endloop
	endfacet
	facet normal -1 0 0
		outer loop
			vertex -125 0.833333333333333 2.5
			vertex -125 -2.5 -2.5
			vertex -125 -2.5 2.5
		endloop
	endfacet
	facet normal -1 0 0
		outer loop
			vertex -127.5 5 -7.5
			vertex -127.5 -5 -7.5
			vertex -127.5 5 -2.5
		endloop
	endfacet
	facet normal -1 0 0
		outer loop
			vertex -127.5 -5 -7.5
			vertex -127.5 -5 -2.5
			vertex -127.5 5 -2.5
		endloop
	endfacet
	facet normal 0 1 0
		outer loop
			vertex -127.5 5 -7.5
			vertex -127.5 5 -2.5
			vertex -125 5 -2.549019607843137
		endloop
	endfacet
	facet normal 0 1 0
		outer loop
			vertex -127.5 5 -7.5
			vertex -125 5 -2.549019607843137
			vertex -125 5 -7.5
		endloop
	endfacet
	facet normal 0 1 0
		outer loop
			vertex -127.5 5 -2.5
			vertex -125 5 -2.5
			vertex -125 5 -2.549019607843137
		endloop
	endfacet
	facet normal 0 -1 0
		outer loop
			vertex -127.5 -5 -2.5
			vertex -127.5 -5 -7.5
			vertex -125 -5 -7.450980392156863
		endloop
	endfacet
	facet normal 0 -1 0
		outer loop
			vertex -127.5 -5 -2.5
			vertex -125 -5 -7.450980392156863
			vertex -125 -5 -2.5
		endloop
	endfacet
	facet normal 0 -1 0
		outer loop
			vertex -127.5 -5 -7.5
			vertex -125 -5 -7.5
			vertex -125 -5 -7.450980392156863
		endloop
	endfacet
	facet normal 0 0 1
		outer loop
			vertex -127.5 5 -2.5
			vertex -127.5 -5 -2.5
			vertex -125 -4.901960784313726 -2.5
		endloop
	endfacet
	facet normal 0 0 1
		outer loop
			vertex -127.5 5 -2.5
			vertex -125 -4.901960784313726 -2.5
			vertex -125 5 -2.5
		endloop
	endfacet
	facet normal 0 0 1
		outer loop
			vertex -127.5 -5 -2.5
			vertex -125 -5 -2.5
			vertex -125 -4.901960784313726 -2.5
		endloop
	endfacet
	facet normal 0 0 -1
		outer loop
			vertex -125 4.901960784313726 -7.5
			vertex -127.5 5 -7.5
			vertex -125 5 -7.5
		endloop
	endfacet
	facet normal 0 0 -1
		outer loop
			vertex -125 -5 -7.5
			vertex -127.5 -5 -7.5
			vertex -127.5 5 -7.5
		endloop
	endfacet
	facet normal 0 0 -1
		outer loop
			vertex -125 -5 -7.5
			vertex -127.5 5 -7.5
			vertex -125 4.901960784313726 -7.5
		endloop
	endfacet
	facet normal 0 1 0
		outer loop
			vertex -120 2.5 7.4
			vertex 120 2.5 2.5999999999999996
			vertex -120 2.5 2.5020408163265304
		endloop
	endfacet
	facet normal 0 1 0
		outer loop
			vertex -120 2.5 2.5020408163265304
			vertex 120 2.5 2.5999999999999996
			vertex 120 2.5 2.5
		endloop
	endfacet
	facet normal 0 1 0
		outer loop
			vertex -120 2.5 2.5020408163265304
			vertex 120 2.5 2.5
			vertex -120 2.5 2.5
		endloop
	endfacet
	facet normal 0 1 0
		outer loop
			vertex -120 2.5 7.5
			vertex 120 2.5 7.5
			vertex 120 2.5 2.6
		endloop
	endfacet
	facet normal 0 1 0
		outer loop
			vertex -120 2.5 7.5
			vertex 120 2.5 2.6
			vertex -120 2.5 7.4
		endloop
	endfacet
	facet normal 0 1 0
		outer loop
			vertex 120 2.5 2.5999999999999996
			vertex 125 2.5 2.5
			vertex 120 2.5 2.5
		endloop
	endfacet
	facet normal 0 1 0
		outer loop
			vertex 120 2.5 7.5
			vertex 125 2.5 7.5
			vertex 125 2.5 2.5
		endloop
	endfacet
	facet normal 0 1 0
		outer loop
			vertex 120 2.5 7.5
			vertex 125 2.5 2.5
			vertex 120 2.5 2.6
		endloop
	endfacet
	facet normal 0 1 0
		outer loop
			vertex 120 2.5 -2.5
			vertex 120 2.5 2.5
			vertex 121.66666666666667 2.5 2.5
		endloop
	endfacet
	facet normal 0 1 0
		outer loop
			vertex 120 2.5 -2.5
			vertex 121.66666666666667 2.5 2.5
			vertex 120.83333333333334 2.5 -2.5
		endloop
	endfacet
	facet normal 0 1 0
		outer loop
			vertex 120.83333333333334 2.5 -2.5
			vertex 121.66666666666667 2.5 2.5
			vertex 123.33333333333334 2.5 -2.5
		endloop
	endfacet
	facet normal 0 1 0
		outer loop
			vertex 121.66666666666667 2.5 2.5
			vertex 125 2.5 2.5
			vertex 125 2.5 -2.5
		endloop
	endfacet
	facet normal 0 1 0
		outer loop
			vertex 121.66666666666667 2.5 2.5
			vertex 125 2.5 -2.5
			vertex 123.33333333333334 2.5 -2.5
		endloop
	endfacet
	facet normal 0 1 0
		outer loop
			vertex -125 2.5 2.5
			vertex -125 2.5 7.5
			vertex -120 2.5 7.4
		endloop
	endfacet
	facet normal 0 1 0
		outer loop
			vertex -125 2.5 2.5
			vertex -120 2.5 7.4
			vertex -120 2.5 2.5020408163265304
		endloop
	endfacet
	facet normal 0 1 0
		outer loop
			vertex -125 2.5 2.5
			vertex -120 2.5 2.5020408163265304
			vertex -120 2.5 2.5
		endloop
	endfacet
	facet normal 0 1 0
		outer loop
			vertex -125 2.5 7.5
			vertex -120 2.5 7.5
			vertex -120 2.5 7.4
		endloop
	endfacet
	facet normal 0 1 0
		outer loop
			vertex -125 2.5 -2.5
			vertex -125 2.5 2.5
			vertex -123.33333333333333 2.5 2.5
		endloop
	endfacet
	facet normal 0 1 0
		outer loop
			vertex -125 2.5 -2.5
			vertex -123.33333333333333 2.5 2.5
			vertex -124.16666666666666 2.5 -2.5
		endloop
	endfacet
	facet normal 0 1 0
		outer loop
			vertex -124.16666666666666 2.5 -2.5
			vertex -123.33333333333333 2.5 2.5
			vertex -121.66666666666666 2.5 -2.5
		endloop
	endfacet
	facet normal 0 1 0
		outer loop
			vertex -123.33333333333333 2.5 2.5
			vertex -120 2.5 2.5
			vertex -120 2.5 -2.5
		endloop
	endfacet
	facet normal 0 1 0
		outer loop
			vertex -123.33333333333333 2.5 2.5
			vertex -120 2.5 -2.5
			vertex -121.66666666666666 2.5 -2.5
		endloop
	endfacet
	facet normal 0 1 0
		outer loop
			vertex -125 5 -2.549019607843137
			vertex 125 5 -7.450980392156863
			vertex 125 5 -7.5
		endloop
	endfacet
	facet normal 0 1 0
		outer loop
			vertex -125 5 -2.549019607843137
			vertex 125 5 -7.5
			vertex -125 5 -7.5
		endloop
	endfacet
	facet normal 0 1 0
		outer loop
			vertex -125 5 -2.5
			vertex 125 5 -2.5
			vertex 125 5 -7.450980392156863
		endloop
	endfacet
	facet normal 0 1 0
		outer loop
			vertex -125 5 -2.5
			vertex 125 5 -7.450980392156863
			vertex -125 5 -2.549019607843137
		endloop
	endfacet
	facet normal 0 0 1
		outer loop
			vertex 63.75 2.5 -2.5
			vertex 125 4.901960784313726 -2.5
			vertex 125 5 -2.5
		endloop
	endfacet
	facet normal 0 0 1
		outer loop
			vertex 63.75 2.5 -2.5
			vertex 125 5 -2.5
			vertex -125 5 -2.5
		endloop
	endfacet
	facet normal 0 0 1
		outer loop
			vertex 63.75 2.5 -2.5
			vertex -125 5 -2.5
			vertex -125 2.5 -2.5
		endloop
	endfacet
	facet normal 0 0 1
		outer loop
			vertex 125 2.5 -2.5
			vertex 125 4.901960784313726 -2.5
			vertex 63.74999999999999 2.5 -2.5
		endloop
	endfacet
	facet normal 0 0 -1
		outer loop
			vertex -63.75 2.5 -7.5
			vertex -125 4.901960784313726 -7.5
			vertex -125 5 -7.5
		endloop
	endfacet
	facet normal 0 0 -1
		outer loop
			vertex -63.75 2.5 -7.5
			vertex -125 5 -7.5
			vertex 125 5 -7.5
		endloop
	endfacet
	facet normal 0 0 -1
		outer loop
			vertex -63.75 2.5 -7.5
			vertex 125 5 -7.5
			vertex 125 2.5 -7.5
		endloop
	endfacet
	facet normal 0 0 -1
		outer loop
			vertex -125 2.5 -7.5
			vertex -125 4.901960784313726 -7.5
			vertex -63.74999999999999 2.5 -7.5
		endloop
	endfacet
	facet normal 0 -1 0
		outer loop
			vertex -120 -2.5 2.6
			vertex 120 -2.5 7.4
			vertex -120 -2.5 7.497959183673469
		endloop
	endfacet
	facet normal 0 -1 0
		outer loop
			vertex -120 -2.5 7.497959183673469
			vertex 120 -2.5 7.4
			vertex 120 -2.5 7.5
		endloop
	endfacet
	facet normal 0 -1 0
		outer loop
			vertex -120 -2.5 7.497959183673469
			vertex 120 -2.5 7.5
			vertex -120 -2.5 7.5
		endloop
	endfacet
	facet normal 0 -1 0
		outer loop
			vertex -120 -2.5 2.5
			vertex 120 -2.5 2.5
			vertex 120 -2.5 7.4
		endloop
	endfacet
	facet normal 0 -1 0
		outer loop
			vertex -120 -2.5 2.5
			vertex 120 -2.5 7.4
			vertex -120 -2.5 2.6000000000000005
		endloop
	endfacet
	facet normal 0 -1 0
		outer loop
			vertex 120 -2.5 7.4
			vertex 125 -2.5 7.5
			vertex 120 -2.5 7.5
		endloop
	endfacet
	facet normal 0 -1 0
		outer loop
			vertex 120 -2.5 2.5
			vertex 125 -2.5 2.5
			vertex 125 -2.5 7.5
		endloop
	endfacet
	facet normal 0 -1 0
		outer loop
			vertex 120 -2.5 2.5
			vertex 125 -2.5 7.5
			vertex 120 -2.5 7.4
		endloop
	endfacet
	facet normal 0 -1 0
		outer loop
			vertex 120 -2.5 2.5
			vertex 120 -2.5 -2.5
			vertex 121.66666666666666 -2.5 -2.5
		endloop
	endfacet
	facet normal 0 -1 0
		outer loop
			vertex 120 -2.5 2.5
			vertex 121.66666666666666 -2.5 -2.5
			vertex 123.33333333333333 -2.5 2.5
		endloop
	endfacet
	facet normal 0 -1 0
		outer loop
			vertex 123.33333333333333 -2.5 2.5
			vertex 121.66666666666666 -2.5 -2.5
			vertex 124.16666666666666 -2.5 -2.5
		endloop
	endfacet
	facet normal 0 -1 0
		outer loop
			vertex 123.33333333333333 -2.5 2.5
			vertex 124.16666666666666 -2.5 -2.5
			vertex 125 -2.5 -2.5
		endloop
	endfacet
	facet normal 0 -1 0
		outer loop
			vertex 123.33333333333333 -2.5 2.5
			vertex 125 -2.5 -2.5
			vertex 125 -2.5 2.5
		endloop
	endfacet
	facet normal 0 -1 0
		outer loop
			vertex -125 -2.5 7.5
			vertex -125 -2.5 2.5
			vertex -120 -2.5 2.6
		endloop
	endfacet
	facet normal 0 -1 0
		outer loop
			vertex -125 -2.5 7.5
			vertex -120 -2.5 2.6
			vertex -120 -2.5 7.497959183673469
		endloop
	endfacet
	facet normal 0 -1 0
		outer loop
			vertex -125 -2.5 7.5
			vertex -120 -2.5 7.497959183673469
			vertex -120 -2.5 7.5
		endloop
	endfacet
	facet normal 0 -1 0
		outer loop
			vertex -125 -2.5 2.5
			vertex -120 -2.5 2.5
			vertex -120 -2.5 2.6000000000000005
		endloop
	endfacet
	facet normal 0 -1 0
		outer loop
			vertex -125 -2.5 2.5
			vertex -125 -2.5 -2.5
			vertex -123.33333333333334 -2.5 -2.5
		endloop
	endfacet
	facet normal 0 -1 0
		outer loop
			vertex -125 -2.5 2.5
			vertex -123.33333333333334 -2.5 -2.5
			vertex -121.66666666666667 -2.5 2.5
		endloop
	endfacet
	facet normal 0 -1 0
		outer loop
			vertex -121.66666666666667 -2.5 2.5
			vertex -123.33333333333334 -2.5 -2.5
			vertex -120.83333333333334 -2.5 -2.5
		endloop
	endfacet
	facet normal 0 -1 0
		outer loop
			vertex -121.66666666666667 -2.5 2.5
			vertex -120.83333333333334 -2.5 -2.5
			vertex -120 -2.5 -2.5
		endloop
	endfacet
	facet normal 0 -1 0
		outer loop
			vertex -121.66666666666667 -2.5 2.5
			vertex -120 -2.5 -2.5
			vertex -120 -2.5 2.5
		endloop
	endfacet
	facet normal 0 -1 0
		outer loop
			vertex -125 -5 -7.450980392156863
			vertex 125 -5 -2.549019607843137
			vertex 125 -5 -2.5
		endloop
	endfacet
	facet normal 0 -1 0
		outer loop
			vertex -125 -5 -7.450980392156863
			vertex 125 -5 -2.5
			vertex -125 -5 -2.5
		endloop
	endfacet
	facet normal 0 -1 0
		outer loop
			vertex -125 -5 -7.5
			vertex 125 -5 -7.5
			vertex 125 -5 -2.549019607843137
		endloop
	endfacet
	facet normal 0 -1 0
		outer loop
			vertex -125 -5 -7.5
			vertex 125 -5 -2.549019607843137
			vertex -125 -5 -7.450980392156863
		endloop
	endfacet
	facet normal 0 0 1
		outer loop
			vertex -125 -4.901960784313726 -2.5
			vertex -63.74999999999999 -2.5 -2.5
			vertex -125 -2.5 -2.5
		endloop
	endfacet
	facet normal 0 0 1
		outer loop
			vertex -125 -5 -2.5
			vertex 125 -5 -2.5
			vertex 125 -2.5 -2.5
		endloop
	endfacet
	facet normal 0 0 1
		outer loop
			vertex -125 -5 -2.5
			vertex 125 -2.5 -2.5
			vertex -63.75000000000001 -2.5 -2.5
		endloop
	endfacet
	facet normal 0 0 1
		outer loop
			vertex -125 -5 -2.5
			vertex -63.75000000000001 -2.5 -2.5
			vertex -125 -4.901960784313726 -2.5
		endloop
	endfacet
	facet normal 0 0 -1
		outer loop
			vertex 125 -4.901960784313726 -7.5
			vertex 63.74999999999999 -2.5 -7.5
			vertex 125 -2.5 -7.5
		endloop
	endfacet
	facet normal 0 0 -1
		outer loop
			vertex 125 -5 -7.5
			vertex -125 -5 -7.5
			vertex -125 -2.5 -7.5
		endloop
	endfacet
	facet normal 0 0 -1
		outer loop
			vertex 125 -5 -7.5
			vertex -125 -2.5 -7.5
			vertex 63.75000000000001 -2.5 -7.5
		endloop
	endfacet
	facet normal 0 0 -1
		outer loop
			vertex 125 -5 -7.5
			vertex 63.75000000000001 -2.5 -7.5
			vertex 125 -4.901960784313726 -7.5
		endloop
	endfacet
	facet normal 0 0 1
		outer loop
			vertex -120 -2.4 7.5
			vertex 120 2.4000000000000004 7.5
			vertex -120 2.4979591836734696 7.5
		endloop
	endfacet
	facet normal 0 0 1
		outer loop
			vertex -120 2.4979591836734696 7.5
			vertex 120 2.4000000000000004 7.5
			vertex 120 2.5 7.5
		endloop
	endfacet
	facet normal 0 0 1
		outer loop
			vertex -120 2.4979591836734696 7.5
			vertex 120 2.5 7.5
			vertex -120 2.5 7.5
		endloop
	endfacet
	facet normal 0 0 1
		outer loop
			vertex -120 -2.5 7.5
			vertex 120 -2.5 7.5
			vertex 120 2.4 7.5
		endloop
	endfacet
	facet normal 0 0 1
		outer loop
			vertex -120 -2.5 7.5
			vertex 120 2.4 7.5
			vertex -120 -2.4 7.5
		endloop
	endfacet
	facet normal 0 0 1
		outer loop
			vertex 120 2.4000000000000004 7.5
			vertex 125 2.5 7.5
			vertex 120 2.5 7.5
		endloop
	endfacet
	facet normal 0 0 1
		outer loop
			vertex 120 -2.5 7.5
			vertex 125 -2.5 7.5
			vertex 125 2.5 7.5
		endloop
	endfacet
	facet normal 0 0 1
		outer loop
			vertex 120 -2.5 7.5
			vertex 125 2.5 7.5
			vertex 120 2.4 7.5
		endloop
	endfacet
	facet normal 0 0 1
		outer loop
			vertex -125 2.5 7.5
			vertex -125 -2.5 7.5
			vertex -120 -2.4 7.5
		endloop
	endfacet
	facet normal 0 0 1
		outer loop
			vertex -125 2.5 7.5
			vertex -120 -2.4 7.5
			vertex -120 2.4979591836734696 7.5
		endloop
	endfacet
	facet normal 0 0 1
		outer loop
			vertex -125 2.5 7.5
			vertex -120 2.4979591836734696 7.5
			vertex -120 2.5 7.5
		endloop
	endfacet
	facet normal 0 0 1
		outer loop
			vertex -125 -2.5 7.5
			vertex -120 -2.5 7.5
			vertex -120 -2.4 7.5
		endloop
	endfacet
	facet normal 0 0 -1
		outer loop
			vertex 120 -2.4 2.5
			vertex -120 2.4 2.5
			vertex -120 2.5 2.5
		endloop
	endfacet
	facet normal 0 0 -1
		outer loop
			vertex 120 -2.4 2.5
			vertex -120 2.5 2.5
			vertex 120 2.5 2.5
		endloop
	endfacet
	facet normal 0 0 -1
		outer loop
			vertex 120 -2.5 2.5
			vertex -120 -2.5 2.5
			vertex -120 2.3979591836734695 2.5
		endloop
	endfacet
	facet normal 0 0 -1
		outer loop
			vertex 120 -2.5 2.5
			vertex -120 2.3979591836734695 2.5
			vertex -120 2.4 2.5
		endloop
	endfacet
	facet normal 0 0 -1
		outer loop
			vertex 120 -2.5 2.5
			vertex -120 2.4 2.5
			vertex 120 -2.4000000000000004 2.5
		endloop
	endfacet
	facet normal -1 0 0
		outer loop
			vertex 120 -0.8333333333333335 -2.5
			vertex 120 0.833333333333333 2.5
			vertex 120 1.6666666666666665 -2.5
		endloop
	endfacet
	facet normal -1 0 0
		outer loop
			vertex 120 1.6666666666666665 -2.5
			vertex 120 0.833333333333333 2.5
			vertex 120 2.5 2.5
		endloop
	endfacet
	facet normal -1 0 0
		outer loop
			vertex 120 1.6666666666666665 -2.5
			vertex 120 2.5 2.5
			vertex 120 2.5 -2.5
		endloop
	endfacet
	facet normal -1 0 0
		outer loop
			vertex 120 -2.5 -2.5
			vertex 120 -2.5 2.5
			vertex 120 0.8333333333333335 2.5
		endloop
	endfacet
	facet normal -1 0 0
		outer loop
			vertex 120 -2.5 -2.5
			vertex 120 0.8333333333333335 2.5
			vertex 120 -0.8333333333333333 -2.5
		endloop
	endfacet
	facet normal 1 0 0
		outer loop
			vertex -120 -0.8333333333333335 2.5
			vertex -120 0.8333333333333333 -2.5
			vertex -120 2.5 -2.5
		endloop
	endfacet
	facet normal 1 0 0
		outer loop
			vertex -120 -0.8333333333333335 2.5
			vertex -120 2.5 -2.5
			vertex -120 2.5 2.5
		endloop
	endfacet
	facet normal 1 0 0
		outer loop
			vertex -120 -2.5 2.5
			vertex -120 -2.5 -2.5
			vertex -120 0 -2.5
		endloop
	endfacet
	facet normal 1 0 0
		outer loop
			vertex -120 -2.5 2.5
			vertex -120 0 -2.5
			vertex -120 0.8333333333333335 -2.5
		endloop
	endfacet
	facet normal 1 0 0
		outer loop
			vertex -120 -2.5 2.5
			vertex -120 0.8333333333333335 -2.5
			vertex -120 -0.833333333333333 2.5
		endloop
	endfacet
	facet normal 0 0 1
		outer loop
			vertex -63.74999999999999 -2.5 -2.5
			vertex 63.75 2.5 -2.5
			vertex -120 2.5 -2.5
		endloop
	endfacet
	facet normal 0 0 1
		outer loop
			vertex -63.74999999999999 -2.5 -2.5
			vertex -120 2.5 -2.5
			vertex -120 -2.5 -2.5
		endloop
	endfacet
	facet normal 0 0 1
		outer loop
			vertex 120 2.5 -2.5
			vertex 63.74999999999999 2.5 -2.5
			vertex -63.75000000000001 -2.5 -2.5
		endloop
	endfacet
	facet normal 0 0 1
		outer loop
			vertex 120 2.5 -2.5
			vertex -63.75000000000001 -2.5 -2.5
			vertex 120 -2.5 -2.5
		endloop
	endfacet
	facet normal 0 0 -1
		outer loop
			vertex 63.74999999999999 -2.5 -7.5
			vertex -63.75 2.5 -7.5
			vertex 120 2.5 -7.5
		endloop
	endfacet
	facet normal 0 0 -1
		outer loop
			vertex 63.74999999999999 -2.5 -7.5
			vertex 120 2.5 -7.5
			vertex 120 -2.5 -7.5
		endloop
	endfacet
	facet normal 0 0 -1
		outer loop
			vertex -120 2.5 -7.5
			vertex -63.74999999999999 2.5 -7.5
			vertex 63.75000000000001 -2.5 -7.5
		endloop
	endfacet
	facet normal 0 0 -1
		outer loop
			vertex -120 2.5 -7.5
			vertex 63.75000000000001 -2.5 -7.5
			vertex -120 -2.5 -7.5
		endloop
	endfacet
	facet normal 0 0 -1
		outer loop
			vertex -120 2.5 -7.5
			vertex -120 -2.5 -7.5
			vertex -125 2.5 -7.5
		endloop
	endfacet
	facet normal 0 0 -1
		outer loop
			vertex -120 -2.5 -7.5
			vertex -125 -2.5 -7.5
			vertex -125 2.5 -7.5
		endloop
	endfacet
	facet normal 0 0 -1
		outer loop
			vertex 125 2.5 -7.5
			vertex 125 -2.5 -7.5
			vertex 120 2.5 -7.5
		endloop
	endfacet
	facet normal 0 0 -1
		outer loop
			vertex 125 -2.5 -7.5
			vertex 120 -2.5 -7.5
			vertex 120 2.5 -7.5
		endloop
	endfacet
endsolid exported
