solid exported
	facet normal 1 0 0
		outer loop
			vertex 30 2.5 7.5
			vertex 30 -2.5 7.5
			vertex 30 2.5 2.5
		endloop
	endfacet
	facet normal 1 0 0
		outer loop
			vertex 30 -2.5 7.5
			vertex 30 -2.5 2.5
			vertex 30 2.5 2.5
		endloop
	endfacet
	facet normal 1 0 0
		outer loop
			vertex 30 2.5 2.5
			vertex 30 -0.833333333333333 2.5
			vertex 30 0.8333333333333335 -2.5
		endloop
	endfacet
	facet normal 1 0 0
		outer loop
			vertex 30 2.5 2.5
			vertex 30 0.8333333333333335 -2.5
			vertex 30 2.5 -2.5
		endloop
	endfacet
	facet normal 1 0 0
		outer loop
			vertex 30 -0.8333333333333335 2.5
			vertex 30 -2.5 2.5
			vertex 30 -2.5 -2.5
		endloop
	endfacet
	facet normal 1 0 0
		outer loop
			vertex 30 -0.8333333333333335 2.5
			vertex 30 -2.5 -2.5
			vertex 30 -1.6666666666666667 -2.5
		endloop
	endfacet
	facet normal 1 0 0
		outer loop
			vertex 30 -0.8333333333333335 2.5
			vertex 30 -1.6666666666666667 -2.5
			vertex 30 0.8333333333333333 -2.5
		endloop
	endfacet
	facet normal 1 0 0
		outer loop
			vertex 32.5 5 -2.5
			vertex 32.5 -5 -2.5
			vertex 32.5 5 -7.5
		endloop
	endfacet
	facet normal 1 0 0
		outer loop
			vertex 32.5 -5 -2.5
			vertex 32.5 -5 -7.5
			vertex 32.5 5 -7.5
		endloop
	endfacet
	facet normal 0 1 0
		outer loop
			vertex 30 5 -7.3076923076923075
			vertex 32.5 5 -7.5
			vertex 30 5 -7.5
		endloop
	endfacet
	facet normal 0 1 0
		outer loop
			vertex 30 5 -2.5
			vertex 32.5 5 -2.5
			vertex 32.5 5 -7.5
		endloop
	endfacet
	facet normal 0 1 0
		outer loop
			vertex 30 5 -2.5
			vertex 32.5 5 -7.5
			vertex 30 5 -7.3076923076923075
		endloop
	endfacet
	facet normal 0 -1 0
		outer loop
			vertex 30 -5 -2.6923076923076925
			vertex 32.5 -5 -2.5
			vertex 30 -5 -2.5
		endloop
	endfacet
	facet normal 0 -1 0
		outer loop
			vertex 30 -5 -7.5
			vertex 32.5 -5 -7.5
			vertex 32.5 -5 -2.5
		endloop
	endfacet
	facet normal 0 -1 0
		outer loop
			vertex 30 -5 -7.5
			vertex 32.5 -5 -2.5
			vertex 30 -5 -2.6923076923076925
		endloop
	endfacet
	facet normal 0 0 1
		outer loop
			vertex 30 4.615384615384615 -2.5
			vertex 32.5 5 -2.5
			vertex 30 5 -2.5
		endloop
	endfacet
	facet normal 0 0 1
		outer loop
			vertex 30 -5 -2.5
			vertex 32.5 -5 -2.5
			vertex 32.5 5 -2.5
		endloop
	endfacet
	facet normal 0 0 1
		outer loop
			vertex 30 -5 -2.5
			vertex 32.5 5 -2.5
			vertex 30 4.615384615384615 -2.5
		endloop
	endfacet
	facet normal 0 0 -1
		outer loop
			vertex 32.5 5 -7.5
			vertex 32.5 -5 -7.5
			vertex 30 -4.615384615384615 -7.5
		endloop
	endfacet
	facet normal 0 0 -1
		outer loop
			vertex 32.5 5 -7.5
			vertex 30 -4.615384615384615 -7.5
			vertex 30 5 -7.5
		endloop
	endfacet
	facet normal 0 0 -1
		outer loop
			vertex 32.5 -5 -7.5
			vertex 30 -5 -7.5
			vertex 30 -4.615384615384615 -7.5
		endloop
	endfacet
	facet normal -1 0 0
		outer loop
			vertex -30 2.5 2.5
			vertex -30 -2.5 2.5
			vertex -30 2.5 7.5
		endloop
	endfacet
	facet normal -1 0 0
		outer loop
			vertex -30 -2.5 2.5
			vertex -30 -2.5 7.5
			vertex -30 2.5 7.5
		endloop
	endfacet
	facet normal -1 0 0
		outer loop
			vertex -30 2.5 2.5
			vertex -30 2.5 -2.5
			vertex -30 0 -2.5
		endloop
	endfacet
	facet normal -1 0 0
		outer loop
			vertex -30 2.5 2.5
			vertex -30 0 -2.5
			vertex -30 -0.8333333333333333 -2.5
		endloop
	endfacet
	facet normal -1 0 0
		outer loop
			vertex -30 2.5 2.5
			vertex -30 -0.8333333333333333 -2.5
			vertex -30 0.8333333333333335 2.5
		endloop
	endfacet
	facet normal -1 0 0
		outer loop
			vertex -30 0.833333333333333 2.5
			vertex -30 -0.8333333333333335 -2.5
			vertex -30 -2.5 -2.5
		endloop
	endfacet
	facet normal -1 0 0
		outer loop
			vertex -30 0.833333333333333 2.5
			vertex -30 -2.5 -2.5
			vertex -30 -2.5 2.5
		endloop
	endfacet
	facet normal -1 0 0
		outer loop
			vertex -32.5 5 -7.5
			vertex -32.5 -5 -7.5
			vertex -32.5 5 -2.5
		endloop
	endfacet
	facet normal -1 0 0
		outer loop
			vertex -32.5 -5 -7.5
			vertex -32.5 -5 -2.5
			vertex -32.5 5 -2.5
		endloop
	endfacet
	facet normal 0 1 0
		outer loop
			vertex -32.5 5 -7.5
			vertex -32.5 5 -2.5
			vertex -30 5 -2.6923076923076925
		endloop
	endfacet
	facet normal 0 1 0
		outer loop
			vertex -32.5 5 -7.5
			vertex -30 5 -2.6923076923076925
			vertex -30 5 -7.5
		endloop
	endfacet
	facet normal 0 1 0
		outer loop
			vertex -32.5 5 -2.5
			vertex -30 5 -2.5
			vertex -30 5 -2.6923076923076925
		endloop
	endfacet
	facet normal 0 -1 0
		outer loop
			vertex -32.5 -5 -2.5
			vertex -32.5 -5 -7.5
			vertex -30 -5 -7.3076923076923075
		endloop
	endfacet
	facet normal 0 -1 0
		outer loop
			vertex -32.5 -5 -2.5
			vertex -30 -5 -7.3076923076923075
			vertex -30 -5 -2.5
		endloop
	endfacet
	facet normal 0 -1 0
		outer loop
			vertex -32.5 -5 -7.5
			vertex -30 -5 -7.5
			vertex -30 -5 -7.3076923076923075
		endloop
	endfacet
	facet normal 0 0 1
		outer loop
			vertex -32.5 5 -2.5
			vertex -32.5 -5 -2.5
			vertex -30 -4.615384615384615 -2.5
		endloop
	endfacet
	facet normal 0 0 1
		outer loop
			vertex -32.5 5 -2.5
			vertex -30 -4.615384615384615 -2.5
			vertex -30 5 -2.5
		endloop
	endfacet
	facet normal 0 0 1
		outer loop
			vertex -32.5 -5 -2.5
			vertex -30 -5 -2.5
			vertex -30 -4.615384615384615 -2.5
		endloop
	endfacet
	facet normal 0 0 -1
		outer loop
			vertex -30 4.615384615384615 -7.5
			vertex -32.5 5 -7.5
			vertex -30 5 -7.5
		endloop
	endfacet
	facet normal 0 0 -1
		outer loop
			vertex -30 -5 -7.5
			vertex -32.5 -5 -7.5
			vertex -32.5 5 -7.5
		endloop
	endfacet
	facet normal 0 0 -1
		outer loop
			vertex -30 -5 -7.5
			vertex -32.5 5 -7.5
			vertex -30 4.615384615384615 -7.5
		endloop
	endfacet
	facet normal 0 1 0
		outer loop
			vertex -25 2.5 7.083333333333333
			vertex 25 2.5 2.916666666666667
			vertex -25 2.5 2.537878787878788
		endloop
	endfacet
	facet normal 0 1 0
		outer loop
			vertex -25 2.5 2.537878787878788
			vertex 25 2.5 2.916666666666667
			vertex 25 2.5 2.5
		endloop
	endfacet
	facet normal 0 1 0
		outer loop
			vertex -25 2.5 2.537878787878788
			vertex 25 2.5 2.5
			vertex -25 2.5 2.5
		endloop
	endfacet
	facet normal 0 1 0
		outer loop
			vertex -25 2.5 7.5
			vertex 25 2.5 7.5
			vertex 25 2.5 2.9166666666666665
		endloop
	endfacet
	facet normal 0 1 0
		outer loop
			vertex -25 2.5 7.5
			vertex 25 2.5 2.9166666666666665
			vertex -25 2.5 7.083333333333334
		endloop
	endfacet
	facet normal 0 1 0
		outer loop
			vertex 25 2.5 2.916666666666667
			vertex 30 2.5 2.5
			vertex 25 2.5 2.5
		endloop
	endfacet
	facet normal 0 1 0
		outer loop
			vertex 25 2.5 7.5
			vertex 30 2.5 7.5
			vertex 30 2.5 2.5
		endloop
	endfacet
	facet normal 0 1 0
		outer loop
			vertex 25 2.5 7.5
			vertex 30 2.5 2.5
			vertex 25 2.5 2.9166666666666665
		endloop
	endfacet
	facet normal 0 1 0
		outer loop
			vertex 25 2.5 -2.5
			vertex 25 2.5 2.5
			vertex 26.666666666666668 2.5 2.5
		endloop
	endfacet
	facet normal 0 1 0
		outer loop
			vertex 25 2.5 -2.5
			vertex 26.666666666666668 2.5 2.5
			vertex 25.833333333333336 2.5 -2.5
		endloop
	endfacet
	facet normal 0 1 0
		outer loop
			vertex 25.833333333333336 2.5 -2.5
			vertex 26.666666666666668 2.5 2.5
			vertex 28.333333333333336 2.5 -2.5
		endloop
	endfacet
	facet normal 0 1 0
		outer loop
			vertex 26.666666666666668 2.5 2.5
			vertex 30 2.5 2.5
			vertex 30 2.5 -2.5
		endloop
	endfacet
	facet normal 0 1 0
		outer loop
			vertex 26.666666666666668 2.5 2.5
			vertex 30 2.5 -2.5
			vertex 28.333333333333336 2.5 -2.5
		endloop
	endfacet
	facet normal 0 1 0
		outer loop
			vertex -30 2.5 2.5
			vertex -30 2.5 7.5
			vertex -25 2.5 7.083333333333333
		endloop
	endfacet
	facet normal 0 1 0
		outer loop
			vertex -30 2.5 2.5
			vertex -25 2.5 7.083333333333333
			vertex -25 2.5 2.537878787878788
		endloop
	endfacet
	facet normal 0 1 0
		outer loop
			vertex -30 2.5 2.5
			vertex -25 2.5 2.537878787878788
			vertex -25 2.5 2.5
		endloop
	endfacet
	facet normal 0 1 0
		outer loop
			vertex -30 2.5 7.5
			vertex -25 2.5 7.5
			vertex -25 2.5 7.083333333333334
		endloop
	endfacet
	facet normal 0 1 0
		outer loop
			vertex -30 2.5 -2.5
			vertex -30 2.5 2.5
			vertex -28.333333333333332 2.5 2.5
		endloop
	endfacet
	facet normal 0 1 0
		outer loop
			vertex -30 2.5 -2.5
			vertex -28.333333333333332 2.5 2.5
			vertex -29.166666666666664 2.5 -2.5
		endloop
	endfacet
	facet normal 0 1 0
		outer loop
			vertex -29.166666666666664 2.5 -2.5
			vertex -28.333333333333332 2.5 2.5
			vertex -26.666666666666664 2.5 -2.5
		endloop
	endfacet
	facet normal 0 1 0
		outer loop
			vertex -28.333333333333332 2.5 2.5
			vertex -25 2.5 2.5
			vertex -25 2.5 -2.5
		endloop
	endfacet
	facet normal 0 1 0
		outer loop
			vertex -28.333333333333332 2.5 2.5
			vertex -25 2.5 -2.5
			vertex -26.666666666666664 2.5 -2.5
		endloop
	endfacet
	facet normal 0 1 0
		outer loop
			vertex -30 5 -2.6923076923076925
			vertex 30 5 -7.3076923076923075
			vertex 30 5 -7.5
		endloop
	endfacet
	facet normal 0 1 0
		outer loop
			vertex -30 5 -2.6923076923076925
			vertex 30 5 -7.5
			vertex -30 5 -7.5
		endloop
	endfacet
	facet normal 0 1 0
		outer loop
			vertex -30 5 -2.5
			vertex 30 5 -2.5
			vertex 30 5 -7.3076923076923075
		endloop
	endfacet
	facet normal 0 1 0
		outer loop
			vertex -30 5 -2.5
			vertex 30 5 -7.3076923076923075
			vertex -30 5 -2.6923076923076925
		endloop
	endfacet
	facet normal 0 0 1
		outer loop
			vertex 16.25 2.5 -2.5
			vertex 30 4.615384615384615 -2.5
			vertex 30 5 -2.5
		endloop
	endfacet
	facet normal 0 0 1
		outer loop
			vertex 16.25 2.5 -2.5
			vertex 30 5 -2.5
			vertex -30 5 -2.5
		endloop
	endfacet
	facet normal 0 0 1
		outer loop
			vertex 16.25 2.5 -2.5
			vertex -30 5 -2.5
			vertex -30 2.5 -2.5
		endloop
	endfacet
	facet normal 0 0 1
		outer loop
			vertex 30 2.5 -2.5
			vertex 30 4.615384615384615 -2.5
			vertex 16.25 2.5 -2.5
		endloop
	endfacet
	facet normal 0 0 -1
		outer loop
			vertex -16.25 2.5 -7.5
			vertex -30 4.615384615384615 -7.5
			vertex -30 5 -7.5
		endloop
	endfacet
	facet normal 0 0 -1
		outer loop
			vertex -16.25 2.5 -7.5
			vertex -30 5 -7.5
			vertex 30 5 -7.5
		endloop
	endfacet
	facet normal 0 0 -1
		outer loop
			vertex -16.25 2.5 -7.5
			vertex 30 5 -7.5
			vertex 30 2.5 -7.5
		endloop
	endfacet
	facet normal 0 0 -1
		outer loop
			vertex -30 2.5 -7.5
			vertex -30 4.615384615384615 -7.5
			vertex -16.25 2.5 -7.5
		endloop
	endfacet
	facet normal 0 -1 0
		outer loop
			vertex -25 -2.5 2.9166666666666665
			vertex 25 -2.5 7.083333333333333
			vertex -25 -2.5 7.462121212121212
		endloop
	endfacet
	facet normal 0 -1 0
		outer loop
			vertex -25 -2.5 7.462121212121212
			vertex 25 -2.5 7.083333333333333
			vertex 25 -2.5 7.5
		endloop
	endfacet
	facet normal 0 -1 0
		outer loop
			vertex -25 -2.5 7.462121212121212
			vertex 25 -2.5 7.5
			vertex -25 -2.5 7.5
		endloop
	endfacet
	facet normal 0 -1 0
		outer loop
			vertex -25 -2.5 2.5
			vertex 25 -2.5 2.5
			vertex 25 -2.5 7.083333333333333
		endloop
	endfacet
	facet normal 0 -1 0
		outer loop
			vertex -25 -2.5 2.5
			vertex 25 -2.5 7.083333333333333
			vertex -25 -2.5 2.916666666666667
		endloop
	endfacet
	facet normal 0 -1 0
		outer loop
			vertex 25 -2.5 7.083333333333333
			vertex 30 -2.5 7.5
			vertex 25 -2.5 7.5
		endloop
	endfacet
	facet normal 0 -1 0
		outer loop
			vertex 25 -2.5 2.5
			vertex 30 -2.5 2.5
			vertex 30 -2.5 7.5
		endloop
	endfacet
	facet normal 0 -1 0
		outer loop
			vertex 25 -2.5 2.5
			vertex 30 -2.5 7.5
			vertex 25 -2.5 7.083333333333333
		endloop
	endfacet
	facet normal 0 -1 0
		outer loop
			vertex 25 -2.5 2.5
			vertex 25 -2.5 -2.5
			vertex 26.666666666666664 -2.5 -2.5
		endloop
	endfacet
	facet normal 0 -1 0
		outer loop
			vertex 25 -2.5 2.5
			vertex 26.666666666666664 -2.5 -2.5
			vertex 28.333333333333332 -2.5 2.5
		endloop
	endfacet
	facet normal 0 -1 0
		outer loop
			vertex 28.333333333333332 -2.5 2.5
			vertex 26.666666666666664 -2.5 -2.5
			vertex 29.166666666666664 -2.5 -2.5
		endloop
	endfacet
	facet normal 0 -1 0
		outer loop
			vertex 28.333333333333332 -2.5 2.5
			vertex 29.166666666666664 -2.5 -2.5
			vertex 30 -2.5 -2.5
		endloop
	endfacet
	facet normal 0 -1 0
		outer loop
			vertex 28.333333333333332 -2.5 2.5
			vertex 30 -2.5 -2.5
			vertex 30 -2.5 2.5
		endloop
	endfacet
	facet normal 0 -1 0
		outer loop
			vertex -30 -2.5 7.5
			vertex -30 -2.5 2.5
			vertex -25 -2.5 2.9166666666666665
		endloop
	endfacet
	facet normal 0 -1 0
		outer loop
			vertex -30 -2.5 7.5
			vertex -25 -2.5 2.9166666666666665
			vertex -25 -2.5 7.462121212121212
		endloop
	endfacet
	facet normal 0 -1 0
		outer loop
			vertex -30 -2.5 7.5
			vertex -25 -2.5 7.462121212121212
			vertex -25 -2.5 7.5
		endloop
	endfacet
	facet normal 0 -1 0
		outer loop
			vertex -30 -2.5 2.5
			vertex -25 -2.5 2.5
			vertex -25 -2.5 2.916666666666667
		endloop
	endfacet
	facet normal 0 -1 0
		outer loop
			vertex -30 -2.5 2.5
			vertex -30 -2.5 -2.5
			vertex -28.333333333333336 -2.5 -2.5
		endloop
	endfacet
	facet normal 0 -1 0
		outer loop
			vertex -30 -2.5 2.5
			vertex -28.333333333333336 -2.5 -2.5
			vertex -26.666666666666668 -2.5 2.5
		endloop
	endfacet
	facet normal 0 -1 0
		outer loop
			vertex -26.666666666666668 -2.5 2.5
			vertex -28.333333333333336 -2.5 -2.5
			vertex -25.833333333333336 -2.5 -2.5
		endloop
	endfacet
	facet normal 0 -1 0
		outer loop
			vertex -26.666666666666668 -2.5 2.5
			vertex -25.833333333333336 -2.5 -2.5
			vertex -25 -2.5 -2.5
		endloop
	endfacet
	facet normal 0 -1 0
		outer loop
			vertex -26.666666666666668 -2.5 2.5
			vertex -25 -2.5 -2.5
			vertex -25 -2.5 2.5
		endloop
	endfacet
	facet normal 0 -1 0
		outer loop
			vertex -30 -5 -7.3076923076923075
			vertex 30 -5 -2.6923076923076925
			vertex 30 -5 -2.5
		endloop
	endfacet
	facet normal 0 -1 0
		outer loop
			vertex -30 -5 -7.3076923076923075
			vertex 30 -5 -2.5
			vertex -30 -5 -2.5
		endloop
	endfacet
	facet normal 0 -1 0
		outer loop
			vertex -30 -5 -7.5
			vertex 30 -5 -7.5
			vertex 30 -5 -2.6923076923076925
		endloop
	endfacet
	facet normal 0 -1 0
		outer loop
			vertex -30 -5 -7.5
			vertex 30 -5 -2.6923076923076925
			vertex -30 -5 -7.3076923076923075
		endloop
	endfacet
	facet normal 0 0 1
		outer loop
			vertex -30 -4.615384615384615 -2.5
			vertex -16.25 -2.5 -2.5
			vertex -30 -2.5 -2.5
		endloop
	endfacet
	facet normal 0 0 1
		outer loop
			vertex -30 -5 -2.5
			vertex 30 -5 -2.5
			vertex 30 -2.5 -2.5
		endloop
	endfacet
	facet normal 0 0 1
		outer loop
			vertex -30 -5 -2.5
			vertex 30 -2.5 -2.5
			vertex -16.25 -2.5 -2.5
		endloop
	endfacet
	facet normal 0 0 1
		outer loop
			vertex -30 -5 -2.5
			vertex -16.25 -2.5 -2.5
			vertex -30 -4.615384615384615 -2.5
		endloop
	endfacet
	facet normal 0 0 -1
		outer loop
			vertex 30 -4.615384615384615 -7.5
			vertex 16.25 -2.5 -7.5
			vertex 30 -2.5 -7.5
		endloop
	endfacet
	facet normal 0 0 -1
		outer loop
			vertex 30 -5 -7.5
			vertex -30 -5 -7.5
			vertex -30 -2.5 -7.5
		endloop
	endfacet
	facet normal 0 0 -1
		outer loop
			vertex 30 -5 -7.5
			vertex -30 -2.5 -7.5
			vertex 16.25 -2.5 -7.5
		endloop
	endfacet
	facet normal 0 0 -1
		outer loop
			vertex 30 -5 -7.5
			vertex 16.25 -2.5 -7.5
			vertex 30 -4.615384615384615 -7.5
		endloop
	endfacet
	facet normal 0 0 1
		outer loop
			vertex -25 -2.0833333333333335 7.5
			vertex 25 2.083333333333333 7.5
			vertex -25 2.462121212121212 7.5
		endloop
	endfacet
	facet normal 0 0 1
		outer loop
			vertex -25 2.462121212121212 7.5
			vertex 25 2.083333333333333 7.5
			vertex 25 2.5 7.5
		endloop
	endfacet
	facet normal 0 0 1
		outer loop
			vertex -25 2.462121212121212 7.5
			vertex 25 2.5 7.5
			vertex -25 2.5 7.5
		endloop
	endfacet
	facet normal 0 0 1
		outer loop
			vertex -25 -2.5 7.5
			vertex 25 -2.5 7.5
			vertex 25 2.0833333333333335 7.5
		endloop
	endfacet
	facet normal 0 0 1
		outer loop
			vertex -25 -2.5 7.5
			vertex 25 2.0833333333333335 7.5
			vertex -25 -2.0833333333333335 7.5
		endloop
	endfacet
	facet normal 0 0 1
		outer loop
			vertex 25 2.083333333333333 7.5
			vertex 30 2.5 7.5
			vertex 25 2.5 7.5
		endloop
	endfacet
	facet normal 0 0 1
		outer loop
			vertex 25 -2.5 7.5
			vertex 30 -2.5 7.5
			vertex 30 2.5 7.5
		endloop
	endfacet
	facet normal 0 0 1
		outer loop
			vertex 25 -2.5 7.5
			vertex 30 2.5 7.5
			vertex 25 2.0833333333333335 7.5
		endloop
	endfacet
	facet normal 0 0 1
		outer loop
			vertex -30 2.5 7.5
			vertex -30 -2.5 7.5
			vertex -25 -2.0833333333333335 7.5
		endloop
	endfacet
	facet normal 0 0 1
		outer loop
			vertex -30 2.5 7.5
			vertex -25 -2.0833333333333335 7.5
			vertex -25 2.462121212121212 7.5
		endloop
	endfacet
	facet normal 0 0 1
		outer loop
			vertex -30 2.5 7.5
			vertex -25 2.462121212121212 7.5
			vertex -25 2.5 7.5
		endloop
	endfacet
	facet normal 0 0 1
		outer loop
			vertex -30 -2.5 7.5
			vertex -25 -2.5 7.5
			vertex -25 -2.0833333333333335 7.5
		endloop
	endfacet
	facet normal 0 0 -1
		outer loop
			vertex 25 -2.0833333333333335 2.5
			vertex -25 2.0833333333333335 2.5
			vertex -25 2.5 2.5
		endloop
	endfacet
	facet normal 0 0 -1
		outer loop
			vertex 25 -2.0833333333333335 2.5
			vertex -25 2.5 2.5
			vertex 25 2.5 2.5
		endloop
	endfacet
	facet normal 0 0 -1
		outer loop
			vertex 25 -2.5 2.5
			vertex -25 -2.5 2.5
			vertex -25 2.0454545454545454 2.5
		endloop
	endfacet
	facet normal 0 0 -1
		outer loop
			vertex 25 -2.5 2.5
			vertex -25 2.045454545454545 2.5
			vertex -25 2.0833333333333335 2.5
		endloop
	endfacet
	facet normal 0 0 -1
		outer loop
			vertex 25 -2.5 2.5
			vertex -25 2.0833333333333335 2.5
			vertex 25 -2.083333333333333 2.5
		endloop
	endfacet
	facet normal -1 0 0
		outer loop
			vertex 25 -0.8333333333333335 -2.5
			vertex 25 0.833333333333333 2.5
			vertex 25 1.6666666666666665 -2.5
		endloop
	endfacet
	facet normal -1 0 0
		outer loop
			vertex 25 1.6666666666666665 -2.5
			vertex 25 0.833333333333333 2.5
			vertex 25 2.5 2.5
		endloop
	endfacet
	facet normal -1 0 0
		outer loop
			vertex 25 1.6666666666666665 -2.5
			vertex 25 2.5 2.5
			vertex 25 2.5 -2.5
		endloop
	endfacet
	facet normal -1 0 0
		outer loop
			vertex 25 -2.5 -2.5
			vertex 25 -2.5 2.5
			vertex 25 0.8333333333333335 2.5
		endloop
	endfacet
	facet normal -1 0 0
		outer loop
			vertex 25 -2.5 -2.5
			vertex 25 0.8333333333333335 2.5
			vertex 25 -0.8333333333333333 -2.5
		endloop
	endfacet
	facet normal 1 0 0
		outer loop
			vertex -25 -0.8333333333333335 2.5
			vertex -25 0.8333333333333333 -2.5
			vertex -25 2.5 -2.5
		endloop
	endfacet
	facet normal 1 0 0
		outer loop
			vertex -25 -0.8333333333333335 2.5
			vertex -25 2.5 -2.5
			vertex -25 2.5 2.5
		endloop
	endfacet
	facet normal 1 0 0
		outer loop
			vertex -25 -2.5 2.5
			vertex -25 -2.5 -2.5
			vertex -25 0 -2.5
		endloop
	endfacet
	facet normal 1 0 0
		outer loop
			vertex -25 -2.5 2.5
			vertex -25 0 -2.5
			vertex -25 0.8333333333333335 -2.5
		endloop
	endfacet
	facet normal 1 0 0
		outer loop
			vertex -25 -2.5 2.5
			vertex -25 0.8333333333333335 -2.5
			vertex -25 -0.833333333333333 2.5
		endloop
	endfacet
	facet normal 0 0 1
		outer loop
			vertex -16.25 -2.5 -2.5
			vertex 16.25 2.5 -2.5
			vertex -25 2.5 -2.5
		endloop
	endfacet
	facet normal 0 0 1
		outer loop
			vertex -16.25 -2.5 -2.5
			vertex -25 2.5 -2.5
			vertex -25 -2.5 -2.5
		endloop
	endfacet
	facet normal 0 0 1
		outer loop
			vertex 25 2.5 -2.5
			vertex 16.25 2.5 -2.5
			vertex -16.25 -2.5 -2.5
		endloop
	endfacet
	facet normal 0 0 1
		outer loop
			vertex 25 2.5 -2.5
			vertex -16.25 -2.5 -2.5
			vertex 25 -2.5 -2.5
		endloop
	endfacet
	facet normal 0 0 -1
		outer loop
			vertex 16.25 -2.5 -7.5
			vertex -16.25 2.5 -7.5
			vertex 25 2.5 -7.5
		endloop
	endfacet
	facet normal 0 0 -1
		outer loop
			vertex 16.25 -2.5 -7.5
			vertex 25 2.5 -7.5
			vertex 25 -2.5 -7.5
		endloop
	endfacet
	facet normal 0 0 -1
		outer loop
			vertex -25 2.5 -7.5
			vertex -16.25 2.5 -7.5
			vertex 16.25 -2.5 -7.5
		endloop
	endfacet
	facet normal 0 0 -1
		outer loop
			vertex -25 2.5 -7.5
			vertex 16.25 -2.5 -7.5
			vertex -25 -2.5 -7.5
		endloop
	endfacet
	facet normal 0 0 -1
		outer loop
			vertex -25 2.5 -7.5
			vertex -25 -2.5 -7.5
			vertex -30 2.5 -7.5
		endloop
	endfacet
	facet normal 0 0 -1
		outer loop
			vertex -25 -2.5 -7.5
			vertex -30 -2.5 -7.5
			vertex -30 2.5 -7.5
		endloop
	endfacet
	facet normal 0 0 -1
		outer loop
			vertex 30 2.5 -7.5
			vertex 30 -2.5 -7.5
			vertex 25 2.5 -7.5
		endloop
	endfacet
	facet normal 0 0 -1
		outer loop
			vertex 30 -2.5 -7.5
			vertex 25 -2.5 -7.5
			vertex 25 2.5 -7.5
		endloop
	endfacet
endsolid exported
