solid exported
	facet normal 1 0 0
		outer loop
			vertex 55 2.5 7.5
			vertex 55 -2.5 7.5
			vertex 55 2.5 2.5
		endloop
	endfacet
	facet normal 1 0 0
		outer loop
			vertex 55 -2.5 7.5
			vertex 55 -2.5 2.5
			vertex 55 2.5 2.5
		endloop
	endfacet
	facet normal 1 0 0
		outer loop
			vertex 55 2.5 2.5
			vertex 55 -0.833333333333333 2.5
			vertex 55 0.8333333333333335 -2.5
		endloop
	endfacet
	facet normal 1 0 0
		outer loop
			vertex 55 2.5 2.5
			vertex 55 0.8333333333333335 -2.5
			vertex 55 2.5 -2.5
		endloop
	endfacet
	facet normal 1 0 0
		outer loop
			vertex 55 -0.8333333333333335 2.5
			vertex 55 -2.5 2.5
			vertex 55 -2.5 -2.5
		endloop
	endfacet
	facet normal 1 0 0
		outer loop
			vertex 55 -0.8333333333333335 2.5
			vertex 55 -2.5 -2.5
			vertex 55 -1.6666666666666667 -2.5
		endloop
	endfacet
	facet normal 1 0 0
		outer loop
			vertex 55 -0.8333333333333335 2.5
			vertex 55 -1.6666666666666667 -2.5
			vertex 55 0.8333333333333333 -2.5
		endloop
	endfacet
	facet normal 1 0 0
		outer loop
			vertex 57.5 5 -2.5
			vertex 57.5 -5 -2.5
			vertex 57.5 5 -7.5
		endloop
	endfacet
	facet normal 1 0 0
		outer loop
			vertex 57.5 -5 -2.5
			vertex 57.5 -5 -7.5
			vertex 57.5 5 -7.5
		endloop
	endfacet
	facet normal 0 1 0
		outer loop
			vertex 55 5 -7.391304347826087
			vertex 57.5 5 -7.5
			vertex 55 5 -7.5
		endloop
	endfacet
	facet normal 0 1 0
		outer loop
			vertex 55 5 -2.5
			vertex 57.5 5 -2.5
			vertex 57.5 5 -7.5
		endloop
	endfacet
	facet normal 0 1 0
		outer loop
			vertex 55 5 -2.5
			vertex 57.5 5 -7.5
			vertex 55 5 -7.391304347826087
		endloop
	endfacet
	facet normal 0 -1 0
		outer loop
			vertex 55 -5 -2.608695652173913
			vertex 57.5 -5 -2.5
			vertex 55 -5 -2.5
		endloop
	endfacet
	facet normal 0 -1 0
		outer loop
			vertex 55 -5 -7.5
			vertex 57.5 -5 -7.5
			vertex 57.5 -5 -2.5
		endloop
	endfacet
	facet normal 0 -1 0
		outer loop
			vertex 55 -5 -7.5
			vertex 57.5 -5 -2.5
			vertex 55 -5 -2.608695652173913
		endloop
	endfacet
	facet normal 0 0 1
		outer loop
			vertex 55 4.782608695652174 -2.5
			vertex 57.5 5 -2.5
			vertex 55 5 -2.5
		endloop
	endfacet
	facet normal 0 0 1
		outer loop
			vertex 55 -5 -2.5
			vertex 57.5 -5 -2.5
			vertex 57.5 5 -2.5
		endloop
	endfacet
	facet normal 0 0 1
		outer loop
			vertex 55 -5 -2.5
			vertex 57.5 5 -2.5
			vertex 55 4.782608695652174 -2.5
		endloop
	endfacet
	facet normal 0 0 -1
		outer loop
			vertex 57.5 5 -7.5
			vertex 57.5 -5 -7.5
			vertex 55 -4.782608695652174 -7.5
		endloop
	endfacet
	facet normal 0 0 -1
		outer loop
			vertex 57.5 5 -7.5
			vertex 55 -4.782608695652174 -7.5
			vertex 55 5 -7.5
		endloop
	endfacet
	facet normal 0 0 -1
		outer loop
			vertex 57.5 -5 -7.5
			vertex 55 -5 -7.5
			vertex 55 -4.782608695652174 -7.5
		endloop
	endfacet
	facet normal -1 0 0
		outer loop
			vertex -55 2.5 2.5
			vertex -55 -2.5 2.5
			vertex -55 2.5 7.5
		endloop
	endfacet
	facet normal -1 0 0
		outer loop
			vertex -55 -2.5 2.5
			vertex -55 -2.5 7.5
			vertex -55 2.5 7.5
		endloop
	endfacet
	facet normal -1 0 0
		outer loop
			vertex -55 2.5 2.5
			vertex -55 2.5 -2.5
			vertex -55 0 -2.5
		endloop
	endfacet
	facet normal -1 0 0
		outer loop
			vertex -55 2.5 2.5
			vertex -55 0 -2.5
			vertex -55 -0.8333333333333333 -2.5
		endloop
	endfacet
	facet normal -1 0 0
		outer loop
			vertex -55 2.5 2.5
			vertex -55 -0.8333333333333333 -2.5
			vertex -55 0.8333333333333335 2.5
		endloop
	endfacet
	facet normal -1 0 0
		outer loop
			vertex -55 0.833333333333333 2.5
			vertex -55 -0.8333333333333335 -2.5
			vertex -55 -2.5 -2.5
		endloop
	endfacet
	facet normal -1 0 0
		outer loop
			vertex -55 0.833333333333333 2.5
			vertex -55 -2.5 -2.5
			vertex -55 -2.5 2.5
		endloop
	endfacet
	facet normal -1 0 0
		outer loop
			vertex -57.5 5 -7.5
			vertex -57.5 -5 -7.5
			vertex -57.5 5 -2.5
		endloop
	endfacet
	facet normal -1 0 0
		outer loop
			vertex -57.5 -5 -7.5
			vertex -57.5 -5 -2.5
			vertex -57.5 5 -2.5
		endloop
	endfacet
	facet normal 0 1 0
		outer loop
			vertex -57.5 5 -7.5
			vertex -57.5 5 -2.5
			vertex -55 5 -2.608695652173913
		endloop
	endfacet
	facet normal 0 1 0
		outer loop
			vertex -57.5 5 -7.5
			vertex -55 5 -2.608695652173913
			vertex -55 5 -7.5
		endloop
	endfacet
	facet normal 0 1 0
		outer loop
			vertex -57.5 5 -2.5
			vertex -55 5 -2.5
			vertex -55 5 -2.608695652173913
		endloop
	endfacet
	facet normal 0 -1 0
		outer loop
			vertex -57.5 -5 -2.5
			vertex -57.5 -5 -7.5
			vertex -55 -5 -7.391304347826087
		endloop
	endfacet
	facet normal 0 -1 0
		outer loop
			vertex -57.5 -5 -2.5
			vertex -55 -5 -7.391304347826087
			vertex -55 -5 -2.5
		endloop
	endfacet
	facet normal 0 -1 0
		outer loop
			vertex -57.5 -5 -7.5
			vertex -55 -5 -7.5
			vertex -55 -5 -7.391304347826087
		endloop
	endfacet
	facet normal 0 0 1
		outer loop
			vertex -57.5 5 -2.5
			vertex -57.5 -5 -2.5
			vertex -55 -4.782608695652174 -2.5
		endloop
	endfacet
	facet normal 0 0 1
		outer loop
			vertex -57.5 5 -2.5
			vertex -55 -4.782608695652174 -2.5
			vertex -55 5 -2.5
		endloop
	endfacet
	facet normal 0 0 1
		outer loop
			vertex -57.5 -5 -2.5
			vertex -55 -5 -2.5
			vertex -55 -4.782608695652174 -2.5
		endloop
	endfacet
	facet normal 0 0 -1
		outer loop
			vertex -55 4.782608695652174 -7.5
			vertex -57.5 5 -7.5
			vertex -55 5 -7.5
		endloop
	endfacet
	facet normal 0 0 -1
		outer loop
			vertex -55 -5 -7.5
			vertex -57.5 -5 -7.5
			vertex -57.5 5 -7.5
		endloop
	endfacet
	facet normal 0 0 -1
		outer loop
			vertex -55 -5 -7.5
			vertex -57.5 5 -7.5
			vertex -55 4.782608695652174 -7.5
		endloop
	endfacet
	facet normal 0 1 0
		outer loop
			vertex -50 2.5 7.2727272727272725
			vertex 50 2.5 2.7272727272727266
			vertex -50 2.5 2.5108225108225106
		endloop
	endfacet
	facet normal 0 1 0
		outer loop
			vertex -50 2.5 2.5108225108225106
			vertex 50 2.5 2.7272727272727266
			vertex 50 2.5 2.5
		endloop
	endfacet
	facet normal 0 1 0
		outer loop
			vertex -50 2.5 2.5108225108225106
			vertex 50 2.5 2.5
			vertex -50 2.5 2.5
		endloop
	endfacet
	facet normal 0 1 0
		outer loop
			vertex -50 2.5 7.5
			vertex 50 2.5 7.5
			vertex 50 2.5 2.7272727272727275
		endloop
	endfacet
	facet normal 0 1 0
		outer loop
			vertex -50 2.5 7.5
			vertex 50 2.5 2.7272727272727275
			vertex -50 2.5 7.2727272727272725
		endloop
	endfacet
	facet normal 0 1 0
		outer loop
			vertex 50 2.5 2.7272727272727266
			vertex 55 2.5 2.5
			vertex 50 2.5 2.5
		endloop
	endfacet
	facet normal 0 1 0
		outer loop
			vertex 50 2.5 7.5
			vertex 55 2.5 7.5
			vertex 55 2.5 2.5
		endloop
	endfacet
	facet normal 0 1 0
		outer loop
			vertex 50 2.5 7.5
			vertex 55 2.5 2.5
			vertex 50 2.5 2.7272727272727275
		endloop
	endfacet
	facet normal 0 1 0
		outer loop
			vertex 50 2.5 -2.5
			vertex 50 2.5 2.5
			vertex 51.666666666666664 2.5 2.5
		endloop
	endfacet
	facet normal 0 1 0
		outer loop
			vertex 50 2.5 -2.5
			vertex 51.666666666666664 2.5 2.5
			vertex 50.83333333333333 2.5 -2.5
		endloop
	endfacet
	facet normal 0 1 0
		outer loop
			vertex 50.83333333333333 2.5 -2.5
			vertex 51.666666666666664 2.5 2.5
			vertex 53.33333333333333 2.5 -2.5
		endloop
	endfacet
	facet normal 0 1 0
		outer loop
			vertex 51.666666666666664 2.5 2.5
			vertex 55 2.5 2.5
			vertex 55 2.5 -2.5
		endloop
	endfacet
	facet normal 0 1 0
		outer loop
			vertex 51.666666666666664 2.5 2.5
			vertex 55 2.5 -2.5
			vertex 53.33333333333333 2.5 -2.5
		endloop
	endfacet
	facet normal 0 1 0
		outer loop
			vertex -55 2.5 2.5
			vertex -55 2.5 7.5
			vertex -50 2.5 7.2727272727272725
		endloop
	endfacet
	facet normal 0 1 0
		outer loop
			vertex -55 2.5 2.5
			vertex -50 2.5 7.2727272727272725
			vertex -50 2.5 2.5108225108225106
		endloop
	endfacet
	facet normal 0 1 0
		outer loop
			vertex -55 2.5 2.5
			vertex -50 2.5 2.5108225108225106
			vertex -50 2.5 2.5
		endloop
	endfacet
	facet normal 0 1 0
		outer loop
			vertex -55 2.5 7.5
			vertex -50 2.5 7.5
			vertex -50 2.5 7.2727272727272725
		endloop
	endfacet
	facet normal 0 1 0
		outer loop
			vertex -55 2.5 -2.5
			vertex -55 2.5 2.5
			vertex -53.333333333333336 2.5 2.5
		endloop
	endfacet
	facet normal 0 1 0
		outer loop
			vertex -55 2.5 -2.5
			vertex -53.333333333333336 2.5 2.5
			vertex -54.16666666666667 2.5 -2.5
		endloop
	endfacet
	facet normal 0 1 0
		outer loop
			vertex -54.16666666666667 2.5 -2.5
			vertex -53.333333333333336 2.5 2.5
			vertex -51.66666666666667 2.5 -2.5
		endloop
	endfacet
	facet normal 0 1 0
		outer loop
			vertex -53.333333333333336 2.5 2.5
			vertex -50 2.5 2.5
			vertex -50 2.5 -2.5
		endloop
	endfacet
	facet normal 0 1 0
		outer loop
			vertex -53.333333333333336 2.5 2.5
			vertex -50 2.5 -2.5
			vertex -51.66666666666667 2.5 -2.5
		endloop
	endfacet
	facet normal 0 1 0
		outer loop
			vertex -55 5 -2.608695652173913
			vertex 55 5 -7.391304347826087
			vertex 55 5 -7.5
		endloop
	endfacet
	facet normal 0 1 0
		outer loop
			vertex -55 5 -2.608695652173913
			vertex 55 5 -7.5
			vertex -55 5 -7.5
		endloop
	endfacet
	facet normal 0 1 0
		outer loop
			vertex -55 5 -2.5
			vertex 55 5 -2.5
			vertex 55 5 -7.391304347826087
		endloop
	endfacet
	facet normal 0 1 0
		outer loop
			vertex -55 5 -2.5
			vertex 55 5 -7.391304347826087
			vertex -55 5 -2.608695652173913
		endloop
	endfacet
	facet normal 0 0 1
		outer loop
			vertex 28.75 2.5 -2.5
			vertex 55 4.782608695652174 -2.5
			vertex 55 5 -2.5
		endloop
	endfacet
	facet normal 0 0 1
		outer loop
			vertex 28.75 2.5 -2.5
			vertex 55 5 -2.5
			vertex -55 5 -2.5
		endloop
	endfacet
	facet normal 0 0 1
		outer loop
			vertex 28.75 2.5 -2.5
			vertex -55 5 -2.5
			vertex -55 2.5 -2.5
		endloop
	endfacet
	facet normal 0 0 1
		outer loop
			vertex 55 2.500000000000001 -2.5
			vertex 55 4.782608695652174 -2.5
			vertex 28.750000000000004 2.5 -2.5
		endloop
	endfacet
	facet normal 0 0 -1
		outer loop
			vertex -28.75 2.5 -7.5
			vertex -55 4.782608695652174 -7.5
			vertex -55 5 -7.5
		endloop
	endfacet
	facet normal 0 0 -1
		outer loop
			vertex -28.75 2.5 -7.5
			vertex -55 5 -7.5
			vertex 55 5 -7.5
		endloop
	endfacet
	facet normal 0 0 -1
		outer loop
			vertex -28.75 2.5 -7.5
			vertex 55 5 -7.5
			vertex 55 2.5 -7.5
		endloop
	endfacet
	facet normal 0 0 -1
		outer loop
			vertex -55 2.500000000000001 -7.5
			vertex -55 4.782608695652174 -7.5
			vertex -28.750000000000004 2.5 -7.5
		endloop
	endfacet
	facet normal 0 -1 0
		outer loop
			vertex -50 -2.5 2.7272727272727275
			vertex 50 -2.5 7.272727272727273
			vertex -50 -2.5 7.489177489177489
		endloop
	endfacet
	facet normal 0 -1 0
		outer loop
			vertex -50 -2.5 7.489177489177489
			vertex 50 -2.5 7.272727272727273
			vertex 50 -2.5 7.5
		endloop
	endfacet
	facet normal 0 -1 0
		outer loop
			vertex -50 -2.5 7.489177489177489
			vertex 50 -2.5 7.5
			vertex -50 -2.5 7.5
		endloop
	endfacet
	facet normal 0 -1 0
		outer loop
			vertex -50 -2.5 2.5
			vertex 50 -2.5 2.5
			vertex 50 -2.5 7.2727272727272725
		endloop
	endfacet
	facet normal 0 -1 0
		outer loop
			vertex -50 -2.5 2.5
			vertex 50 -2.5 7.2727272727272725
			vertex -50 -2.5 2.7272727272727275
		endloop
	endfacet
	facet normal 0 -1 0
		outer loop
			vertex 50 -2.5 7.272727272727273
			vertex 55 -2.5 7.5
			vertex 50 -2.5 7.5
		endloop
	endfacet
	facet normal 0 -1 0
		outer loop
			vertex 50 -2.5 2.5
			vertex 55 -2.5 2.5
			vertex 55 -2.5 7.5
		endloop
	endfacet
	facet normal 0 -1 0
		outer loop
			vertex 50 -2.5 2.5
			vertex 55 -2.5 7.5
			vertex 50 -2.5 7.2727272727272725
		endloop
	endfacet
	facet normal 0 -1 0
		outer loop
			vertex 50 -2.5 2.5
			vertex 50 -2.5 -2.5
			vertex 51.66666666666667 -2.5 -2.5
		endloop
	endfacet
	facet normal 0 -1 0
		outer loop
			vertex 50 -2.5 2.5
			vertex 51.66666666666667 -2.5 -2.5
			vertex 53.333333333333336 -2.5 2.5
		endloop
	endfacet
	facet normal 0 -1 0
		outer loop
			vertex 53.333333333333336 -2.5 2.5
			vertex 51.66666666666667 -2.5 -2.5
			vertex 54.16666666666667 -2.5 -2.5
		endloop
	endfacet
	facet normal 0 -1 0
		outer loop
			vertex 53.333333333333336 -2.5 2.5
			vertex 54.16666666666667 -2.5 -2.5
			vertex 55 -2.5 -2.5
		endloop
	endfacet
	facet normal 0 -1 0
		outer loop
			vertex 53.333333333333336 -2.5 2.5
			vertex 55 -2.5 -2.5
			vertex 55 -2.5 2.5
		endloop
	endfacet
	facet normal 0 -1 0
		outer loop
			vertex -55 -2.5 7.5
			vertex -55 -2.5 2.5
			vertex -50 -2.5 2.7272727272727275
		endloop
	endfacet
	facet normal 0 -1 0
		outer loop
			vertex -55 -2.5 7.5
			vertex -50 -2.5 2.7272727272727275
			vertex -50 -2.5 7.489177489177489
		endloop
	endfacet
	facet normal 0 -1 0
		outer loop
			vertex -55 -2.5 7.5
			vertex -50 -2.5 7.489177489177489
			vertex -50 -2.5 7.5
		endloop
	endfacet
	facet normal 0 -1 0
		outer loop
			vertex -55 -2.5 2.5
			vertex -50 -2.5 2.5
			vertex -50 -2.5 2.7272727272727275
		endloop
	endfacet
	facet normal 0 -1 0
		outer loop
			vertex -55 -2.5 2.5
			vertex -55 -2.5 -2.5
			vertex -53.33333333333333 -2.5 -2.5
		endloop
	endfacet
	facet normal 0 -1 0
		outer loop
			vertex -55 -2.5 2.5
			vertex -53.33333333333333 -2.5 -2.5
			vertex -51.666666666666664 -2.5 2.5
		endloop
	endfacet
	facet normal 0 -1 0
		outer loop
			vertex -51.666666666666664 -2.5 2.5
			vertex -53.33333333333333 -2.5 -2.5
			vertex -50.83333333333333 -2.5 -2.5
		endloop
	endfacet
	facet normal 0 -1 0
		outer loop
			vertex -51.666666666666664 -2.5 2.5
			vertex -50.83333333333333 -2.5 -2.5
			vertex -50 -2.5 -2.5
		endloop
	endfacet
	facet normal 0 -1 0
		outer loop
			vertex -51.666666666666664 -2.5 2.5
			vertex -50 -2.5 -2.5
			vertex -50 -2.5 2.5
		endloop
	endfacet
	facet normal 0 -1 0
		outer loop
			vertex -55 -5 -7.391304347826087
			vertex 55 -5 -2.608695652173913
			vertex 55 -5 -2.5
		endloop
	endfacet
	facet normal 0 -1 0
		outer loop
			vertex -55 -5 -7.391304347826087
			vertex 55 -5 -2.5
			vertex -55 -5 -2.5
		endloop
	endfacet
	facet normal 0 -1 0
		outer loop
			vertex -55 -5 -7.5
			vertex 55 -5 -7.5
			vertex 55 -5 -2.608695652173913
		endloop
	endfacet
	facet normal 0 -1 0
		outer loop
			vertex -55 -5 -7.5
			vertex 55 -5 -2.608695652173913
			vertex -55 -5 -7.391304347826087
		endloop
	endfacet
	facet normal 0 0 1
		outer loop
			vertex -55 -4.782608695652174 -2.5
			vertex -28.75 -2.5 -2.5
			vertex -55 -2.5 -2.5
		endloop
	endfacet
	facet normal 0 0 1
		outer loop
			vertex -55 -5 -2.5
			vertex 55 -5 -2.5
			vertex 55 -2.5 -2.5
		endloop
	endfacet
	facet normal 0 0 1
		outer loop
			vertex -55 -5 -2.5
			vertex 55 -2.5 -2.5
			vertex -28.749999999999996 -2.5 -2.5
		endloop
	endfacet
	facet normal 0 0 1
		outer loop
			vertex -55 -5 -2.5
			vertex -28.749999999999996 -2.5 -2.5
			vertex -55 -4.782608695652174 -2.5
		endloop
	endfacet
	facet normal 0 0 -1
		outer loop
			vertex 55 -4.782608695652174 -7.5
			vertex 28.75 -2.5 -7.5
			vertex 55 -2.5 -7.5
		endloop
	endfacet
	facet normal 0 0 -1
		outer loop
			vertex 55 -5 -7.5
			vertex -55 -5 -7.5
			vertex -55 -2.5 -7.5
		endloop
	endfacet
	facet normal 0 0 -1
		outer loop
			vertex 55 -5 -7.5
			vertex -55 -2.5 -7.5
			vertex 28.749999999999996 -2.5 -7.5
		endloop
	endfacet
	facet normal 0 0 -1
		outer loop
			vertex 55 -5 -7.5
			vertex 28.749999999999996 -2.5 -7.5
			vertex 55 -4.782608695652174 -7.5
		endloop
	endfacet
	facet normal 0 0 1
		outer loop
			vertex -50 -2.2727272727272725 7.5
			vertex 50 2.2727272727272734 7.5
			vertex -50 2.4891774891774894 7.5
		endloop
	endfacet
	facet normal 0 0 1
		outer loop
			vertex -50 2.4891774891774894 7.5
			vertex 50 2.2727272727272734 7.5
			vertex 50 2.5 7.5
		endloop
	endfacet
	facet normal 0 0 1
		outer loop
			vertex -50 2.4891774891774894 7.5
			vertex 50 2.5 7.5
			vertex -50 2.5 7.5
		endloop
	endfacet
	facet normal 0 0 1
		outer loop
			vertex -50 -2.5 7.5
			vertex 50 -2.5 7.5
			vertex 50 2.2727272727272725 7.5
		endloop
	endfacet
	facet normal 0 0 1
		outer loop
			vertex -50 -2.5 7.5
			vertex 50 2.2727272727272725 7.5
			vertex -50 -2.2727272727272725 7.5
		endloop
	endfacet
	facet normal 0 0 1
		outer loop
			vertex 50 2.2727272727272734 7.5
			vertex 55 2.5 7.5
			vertex 50 2.5 7.5
		endloop
	endfacet
	facet normal 0 0 1
		outer loop
			vertex 50 -2.5 7.5
			vertex 55 -2.5 7.5
			vertex 55 2.5 7.5
		endloop
	endfacet
	facet normal 0 0 1
		outer loop
			vertex 50 -2.5 7.5
			vertex 55 2.5 7.5
			vertex 50 2.2727272727272725 7.5
		endloop
	endfacet
	facet normal 0 0 1
		outer loop
			vertex -55 2.5 7.5
			vertex -55 -2.5 7.5
			vertex -50 -2.2727272727272725 7.5
		endloop
	endfacet
	facet normal 0 0 1
		outer loop
			vertex -55 2.5 7.5
			vertex -50 -2.2727272727272725 7.5
			vertex -50 2.4891774891774894 7.5
		endloop
	endfacet
	facet normal 0 0 1
		outer loop
			vertex -55 2.5 7.5
			vertex -50 2.4891774891774894 7.5
			vertex -50 2.5 7.5
		endloop
	endfacet
	facet normal 0 0 1
		outer loop
			vertex -55 -2.5 7.5
			vertex -50 -2.5 7.5
			vertex -50 -2.2727272727272725 7.5
		endloop
	endfacet
	facet normal 0 0 -1
		outer loop
			vertex 50 -2.2727272727272725 2.5
			vertex -50 2.2727272727272725 2.5
			vertex -50 2.5 2.5
		endloop
	endfacet
	facet normal 0 0 -1
		outer loop
			vertex 50 -2.2727272727272725 2.5
			vertex -50 2.5 2.5
			vertex 50 2.5 2.5
		endloop
	endfacet
	facet normal 0 0 -1
		outer loop
			vertex 50 -2.5 2.5
			vertex -50 -2.5 2.5
			vertex -50 2.261904761904762 2.5
		endloop
	endfacet
	facet normal 0 0 -1
		outer loop
			vertex 50 -2.5 2.5
			vertex -50 2.261904761904762 2.5
			vertex -50 2.2727272727272725 2.5
		endloop
	endfacet
	facet normal 0 0 -1
		outer loop
			vertex 50 -2.5 2.5
			vertex -50 2.2727272727272725 2.5
			vertex 50 -2.2727272727272734 2.5
		endloop
	endfacet
	facet normal -1 0 0
		outer loop
			vertex 50 -0.8333333333333335 -2.5
			vertex 50 0.833333333333333 2.5
			vertex 50 1.6666666666666665 -2.5
		endloop
	endfacet
	facet normal -1 0 0
		outer loop
			vertex 50 1.6666666666666665 -2.5
			vertex 50 0.833333333333333 2.5
			vertex 50 2.5 2.5
		endloop
	endfacet
	facet normal -1 0 0
		outer loop
			vertex 50 1.6666666666666665 -2.5
			vertex 50 2.5 2.5
			vertex 50 2.5 -2.5
		endloop
	endfacet
	facet normal -1 0 0
		outer loop
			vertex 50 -2.5 -2.5
			vertex 50 -2.5 2.5
			vertex 50 0.8333333333333335 2.5
		endloop
	endfacet
	facet normal -1 0 0
		outer loop
			vertex 50 -2.5 -2.5
			vertex 50 0.8333333333333335 2.5
			vertex 50 -0.8333333333333333 -2.5
		endloop
	endfacet
	facet normal 1 0 0
		outer loop
			vertex -50 -0.8333333333333335 2.5
			vertex -50 0.8333333333333333 -2.5
			vertex -50 2.5 -2.5
		endloop
	endfacet
	facet normal 1 0 0
		outer loop
			vertex -50 -0.8333333333333335 2.5
			vertex -50 2.5 -2.5
			vertex -50 2.5 2.5
		endloop
	endfacet
	facet normal 1 0 0
		outer loop
			vertex -50 -2.5 2.5
			vertex -50 -2.5 -2.5
			vertex -50 0 -2.5
		endloop
	endfacet
	facet normal 1 0 0
		outer loop
			vertex -50 -2.5 2.5
			vertex -50 0 -2.5
			vertex -50 0.8333333333333335 -2.5
		endloop
	endfacet
	facet normal 1 0 0
		outer loop
			vertex -50 -2.5 2.5
			vertex -50 0.8333333333333335 -2.5
			vertex -50 -0.833333333333333 2.5
		endloop
	endfacet
	facet normal 0 0 1
		outer loop
			vertex -28.75 -2.5 -2.5
			vertex 28.75 2.5 -2.5
			vertex -50 2.5 -2.5
		endloop
	endfacet
	facet normal 0 0 1
		outer loop
			vertex -28.75 -2.5 -2.5
			vertex -50 2.5 -2.5
			vertex -50 -2.5 -2.5
		endloop
	endfacet
	facet normal 0 0 1
		outer loop
			vertex 50 2.500000000000001 -2.5
			vertex 28.750000000000004 2.5 -2.5
			vertex -28.749999999999996 -2.5 -2.5
		endloop
	endfacet
	facet normal 0 0 1
		outer loop
			vertex 50 2.500000000000001 -2.5
			vertex -28.749999999999996 -2.5 -2.5
			vertex 50 -2.5 -2.5
		endloop
	endfacet
	facet normal 0 0 -1
		outer loop
			vertex 28.75 -2.5 -7.5
			vertex -28.75 2.5 -7.5
			vertex 50 2.5 -7.5
		endloop
	endfacet
	facet normal 0 0 -1
		outer loop
			vertex 28.75 -2.5 -7.5
			vertex 50 2.5 -7.5
			vertex 50 -2.5 -7.5
		endloop
	endfacet
	facet normal 0 0 -1
		outer loop
			vertex -50 2.500000000000001 -7.5
			vertex -28.750000000000004 2.5 -7.5
			vertex 28.749999999999996 -2.5 -7.5
		endloop
	endfacet
	facet normal 0 0 -1
		outer loop
			vertex -50 2.500000000000001 -7.5
			vertex 28.749999999999996 -2.5 -7.5
			vertex -50 -2.5 -7.5
		endloop
	endfacet
	facet normal 0 0 -1
		outer loop
			vertex -50 2.5 -7.5
			vertex -50 -2.5 -7.5
			vertex -55 2.5 -7.5
		endloop
	endfacet
	facet normal 0 0 -1
		outer loop
			vertex -50 -2.5 -7.5
			vertex -55 -2.5 -7.5
			vertex -55 2.5 -7.5
		endloop
	endfacet
	facet normal 0 0 -1
		outer loop
			vertex 55 2.5 -7.5
			vertex 55 -2.5 -7.5
			vertex 50 2.5 -7.5
		endloop
	endfacet
	facet normal 0 0 -1
		outer loop
			vertex 55 -2.5 -7.5
			vertex 50 -2.5 -7.5
			vertex 50 2.5 -7.5
		endloop
	endfacet
endsolid exported
