solid exported
	facet normal 1 0 0
		outer loop
			vertex 100 2.5 7.5
			vertex 100 -2.5 7.5
			vertex 100 2.5 2.5
		endloop
	endfacet
	facet normal 1 0 0
		outer loop
			vertex 100 -2.5 7.5
			vertex 100 -2.5 2.5
			vertex 100 2.5 2.5
		endloop
	endfacet
	facet normal 1 0 0
		outer loop
			vertex 100 2.5 2.5
			vertex 100 -0.833333333333333 2.5
			vertex 100 0.8333333333333335 -2.5
		endloop
	endfacet
	facet normal 1 0 0
		outer loop
			vertex 100 2.5 2.5
			vertex 100 0.8333333333333335 -2.5
			vertex 100 2.5 -2.5
		endloop
	endfacet
	facet normal 1 0 0
		outer loop
			vertex 100 -0.8333333333333335 2.5
			vertex 100 -2.5 2.5
			vertex 100 -2.5 -2.5
		endloop
	endfacet
	facet normal 1 0 0
		outer loop
			vertex 100 -0.8333333333333335 2.5
			vertex 100 -2.5 -2.5
			vertex 100 -1.6666666666666667 -2.5
		endloop
	endfacet
	facet normal 1 0 0
		outer loop
			vertex 100 -0.8333333333333335 2.5
			vertex 100 -1.6666666666666667 -2.5
			vertex 100 0.8333333333333333 -2.5
		endloop
	endfacet
	facet normal 1 0 0
		outer loop
			vertex 102.5 5 -2.5
			vertex 102.5 -5 -2.5
			vertex 102.5 5 -7.5
		endloop
	endfacet
	facet normal 1 0 0
		outer loop
			vertex 102.5 -5 -2.5
			vertex 102.5 -5 -7.5
			vertex 102.5 5 -7.5
		endloop
	endfacet
	facet normal 0 1 0
		outer loop
			vertex 100 5 -7.439024390243903
			vertex 102.5 5 -7.5
			vertex 100 5 -7.5
		endloop
	endfacet
	facet normal 0 1 0
		outer loop
			vertex 100 5 -2.5
			vertex 102.5 5 -2.5
			vertex 102.5 5 -7.5
		endloop
	endfacet
	facet normal 0 1 0
		outer loop
			vertex 100 5 -2.5
			vertex 102.5 5 -7.5
			vertex 100 5 -7.439024390243903
		endloop
	endfacet
	facet normal 0 -1 0
		outer loop
			vertex 100 -5 -2.560975609756097
			vertex 102.5 -5 -2.5
			vertex 100 -5 -2.5
		endloop
	endfacet
	facet normal 0 -1 0
		outer loop
			vertex 100 -5 -7.5
			vertex 102.5 -5 -7.5
			vertex 102.5 -5 -2.5
		endloop
	endfacet
	facet normal 0 -1 0
		outer loop
			vertex 100 -5 -7.5
			vertex 102.5 -5 -2.5
			vertex 100 -5 -2.5609756097560976
		endloop
	endfacet
	facet normal 0 0 1
		outer loop
			vertex 100 4.878048780487806 -2.5
			vertex 102.5 5 -2.5
			vertex 100 5 -2.5
		endloop
	endfacet
	facet normal 0 0 1
		outer loop
			vertex 100 -5 -2.5
			vertex 102.5 -5 -2.5
			vertex 102.5 5 -2.5
		endloop
	endfacet
	facet normal 0 0 1
		outer loop
			vertex 100 -5 -2.5
			vertex 102.5 5 -2.5
			vertex 100 4.878048780487805 -2.5
		endloop
	endfacet
	facet normal 0 0 -1
		outer loop
			vertex 102.5 5 -7.5
			vertex 102.5 -5 -7.5
			vertex 100 -4.878048780487805 -7.5
		endloop
	endfacet
	facet normal 0 0 -1
		outer loop
			vertex 102.5 5 -7.5
			vertex 100 -4.878048780487805 -7.5
			vertex 100 5 -7.5
		endloop
	endfacet
	facet normal 0 0 -1
		outer loop
			vertex 102.5 -5 -7.5
			vertex 100 -5 -7.5
			vertex 100 -4.878048780487806 -7.5
		endloop
	endfacet
	facet normal -1 0 0
		outer loop
			vertex -100 2.5 2.5
			vertex -100 -2.5 2.5
			vertex -100 2.5 7.5
		endloop
	endfacet
	facet normal -1 0 0
		outer loop
			vertex -100 -2.5 2.5
			vertex -100 -2.5 7.5
			vertex -100 2.5 7.5
		endloop
	endfacet
	facet normal -1 0 0
		outer loop
			vertex -100 2.5 2.5
			vertex -100 2.5 -2.5
			vertex -100 0 -2.5
		endloop
	endfacet
	facet normal -1 0 0
		outer loop
			vertex -100 2.5 2.5
			vertex -100 0 -2.5
			vertex -100 -0.8333333333333333 -2.5
		endloop
	endfacet
	facet normal -1 0 0
		outer loop
			vertex -100 2.5 2.5
			vertex -100 -0.8333333333333333 -2.5
			vertex -100 0.8333333333333335 2.5
		endloop
	endfacet
	facet normal -1 0 0
		outer loop
			vertex -100 0.833333333333333 2.5
			vertex -100 -0.8333333333333335 -2.5
			vertex -100 -2.5 -2.5
		endloop
	endfacet
	facet normal -1 0 0
		outer loop
			vertex -100 0.833333333333333 2.5
			vertex -100 -2.5 -2.5
			vertex -100 -2.5 2.5
		endloop
	endfacet
	facet normal -1 0 0
		outer loop
			vertex -102.5 5 -7.5
			vertex -102.5 -5 -7.5
			vertex -102.5 5 -2.5
		endloop
	endfacet
	facet normal -1 0 0
		outer loop
			vertex -102.5 -5 -7.5
			vertex -102.5 -5 -2.5
			vertex -102.5 5 -2.5
		endloop
	endfacet
	facet normal 0 1 0
		outer loop
			vertex -102.5 5 -7.5
			vertex -102.5 5 -2.5
			vertex -100 5 -2.5609756097560976
		endloop
	endfacet
	facet normal 0 1 0
		outer loop
			vertex -102.5 5 -7.5
			vertex -100 5 -2.5609756097560976
			vertex -100 5 -7.5
		endloop
	endfacet
	facet normal 0 1 0
		outer loop
			vertex -102.5 5 -2.5
			vertex -100 5 -2.5
			vertex -100 5 -2.560975609756098
		endloop
	endfacet
	facet normal 0 -1 0
		outer loop
			vertex -102.5 -5 -2.5
			vertex -102.5 -5 -7.5
			vertex -100 -5 -7.439024390243903
		endloop
	endfacet
	facet normal 0 -1 0
		outer loop
			vertex -102.5 -5 -2.5
			vertex -100 -5 -7.439024390243903
			vertex -100 -5 -2.5
		endloop
	endfacet
	facet normal 0 -1 0
		outer loop
			vertex -102.5 -5 -7.5
			vertex -100 -5 -7.5
			vertex -100 -5 -7.439024390243903
		endloop
	endfacet
	facet normal 0 0 1
		outer loop
			vertex -102.5 5 -2.5
			vertex -102.5 -5 -2.5
			vertex -100 -4.878048780487805 -2.5
		endloop
	endfacet
	facet normal 0 0 1
		outer loop
			vertex -102.5 5 -2.5
			vertex -100 -4.878048780487805 -2.5
			vertex -100 5 -2.5
		endloop
	endfacet
	facet normal 0 0 1
		outer loop
			vertex -102.5 -5 -2.5
			vertex -100 -5 -2.5
			vertex -100 -4.878048780487805 -2.5
		endloop
	endfacet
	facet normal 0 0 -1
		outer loop
			vertex -100 4.878048780487805 -7.5
			vertex -102.5 5 -7.5
			vertex -100 5 -7.5
		endloop
	endfacet
	facet normal 0 0 -1
		outer loop
			vertex -100 -5 -7.5
			vertex -102.5 -5 -7.5
			vertex -102.5 5 -7.5
		endloop
	endfacet
	facet normal 0 0 -1
		outer loop
			vertex -100 -5 -7.5
			vertex -102.5 5 -7.5
			vertex -100 4.878048780487805 -7.5
		endloop
	endfacet
	facet normal 0 1 0
		outer loop
			vertex -95 2.5 7.375
			vertex 95 2.5 2.625
			vertex -95 2.5 2.503205128205128
		endloop
	endfacet
	facet normal 0 1 0
		outer loop
			vertex -95 2.5 2.503205128205128
			vertex 95 2.5 2.625
			vertex 95 2.5 2.5
		endloop
	endfacet
	facet normal 0 1 0
		outer loop
			vertex -95 2.5 2.503205128205128
			vertex 95 2.5 2.5
			vertex -95 2.5 2.5
		endloop
	endfacet
	facet normal 0 1 0
		outer loop
			vertex -95 2.5 7.5
			vertex 95 2.5 7.5
			vertex 95 2.5 2.625
		endloop
	endfacet
	facet normal 0 1 0
		outer loop
			vertex -95 2.5 7.5
			vertex 95 2.5 2.625
			vertex -95 2.5 7.375
		endloop
	endfacet
	facet normal 0 1 0
		outer loop
			vertex 95 2.5 2.625
			vertex 100 2.5 2.5
			vertex 95 2.5 2.5
		endloop
	endfacet
	facet normal 0 1 0
		outer loop
			vertex 95 2.5 7.5
			vertex 100 2.5 7.5
			vertex 100 2.5 2.5
		endloop
	endfacet
	facet normal 0 1 0
		outer loop
			vertex 95 2.5 7.5
			vertex 100 2.5 2.5
			vertex 95 2.5 2.625
		endloop
	endfacet
	facet normal 0 1 0
		outer loop
			vertex 95 2.5 -2.5
			vertex 95 2.5 2.5
			vertex 96.66666666666667 2.5 2.5
		endloop
	endfacet
	facet normal 0 1 0
		outer loop
			vertex 95 2.5 -2.5
			vertex 96.66666666666667 2.5 2.5
			vertex 95.83333333333334 2.5 -2.5
		endloop
	endfacet
	facet normal 0 1 0
		outer loop
			vertex 95.83333333333334 2.5 -2.5
			vertex 96.66666666666667 2.5 2.5
			vertex 98.33333333333334 2.5 -2.5
		endloop
	endfacet
	facet normal 0 1 0
		outer loop
			vertex 96.66666666666667 2.5 2.5
			vertex 100 2.5 2.5
			vertex 100 2.5 -2.5
		endloop
	endfacet
	facet normal 0 1 0
		outer loop
			vertex 96.66666666666667 2.5 2.5
			vertex 100 2.5 -2.5
			vertex 98.33333333333334 2.5 -2.5
		endloop
	endfacet
	facet normal 0 1 0
		outer loop
			vertex -100 2.5 2.5
			vertex -100 2.5 7.5
			vertex -95 2.5 7.375
		endloop
	endfacet
	facet normal 0 1 0
		outer loop
			vertex -100 2.5 2.5
			vertex -95 2.5 7.375
			vertex -95 2.5 2.503205128205128
		endloop
	endfacet
	facet normal 0 1 0
		outer loop
			vertex -100 2.5 2.5
			vertex -95 2.5 2.503205128205128
			vertex -95 2.5 2.5
		endloop
	endfacet
	facet normal 0 1 0
		outer loop
			vertex -100 2.5 7.5
			vertex -95 2.5 7.5
			vertex -95 2.5 7.375
		endloop
	endfacet
	facet normal 0 1 0
		outer loop
			vertex -100 2.5 -2.5
			vertex -100 2.5 2.5
			vertex -98.33333333333333 2.5 2.5
		endloop
	endfacet
	facet normal 0 1 0
		outer loop
			vertex -100 2.5 -2.5
			vertex -98.33333333333333 2.5 2.5
			vertex -99.16666666666666 2.5 -2.5
		endloop
	endfacet
	facet normal 0 1 0
		outer loop
			vertex -99.16666666666666 2.5 -2.5
			vertex -98.33333333333333 2.5 2.5
			vertex -96.66666666666666 2.5 -2.5
		endloop
	endfacet
	facet normal 0 1 0
		outer loop
			vertex -98.33333333333333 2.5 2.5
			vertex -95 2.5 2.5
			vertex -95 2.5 -2.5
		endloop
	endfacet
	facet normal 0 1 0
		outer loop
			vertex -98.33333333333333 2.5 2.5
			vertex -95 2.5 -2.5
			vertex -96.66666666666666 2.5 -2.5
		endloop
	endfacet
	facet normal 0 1 0
		outer loop
			vertex -100 5 -2.5609756097560976
			vertex 100 5 -7.439024390243903
			vertex 100 5 -7.5
		endloop
	endfacet
	facet normal 0 1 0
		outer loop
			vertex -100 5 -2.5609756097560976
			vertex 100 5 -7.5
			vertex -100 5 -7.5
		endloop
	endfacet
	facet normal 0 1 0
		outer loop
			vertex -100 5 -2.5
			vertex 100 5 -2.5
			vertex 100 5 -7.439024390243903
		endloop
	endfacet
	facet normal 0 1 0
		outer loop
			vertex -100 5 -2.5
			vertex 100 5 -7.439024390243903
			vertex -100 5 -2.560975609756098
		endloop
	endfacet
	facet normal 0 0 1
		outer loop
			vertex 51.24999999999997 2.5 -2.5
			vertex 100 4.878048780487806 -2.5
			vertex 100 5 -2.5
		endloop
	endfacet
	facet normal 0 0 1
		outer loop
			vertex 51.24999999999997 2.5 -2.5
			vertex 100 5 -2.5
			vertex -100 5 -2.5
		endloop
	endfacet
	facet normal 0 0 1
		outer loop
			vertex 51.24999999999997 2.5 -2.5
			vertex -100 5 -2.5
			vertex -100 2.5 -2.5
		endloop
	endfacet
	facet normal 0 0 1
		outer loop
			vertex 100 2.5 -2.5
			vertex 100 4.878048780487805 -2.5
			vertex 51.25 2.5 -2.5
		endloop
	endfacet
	facet normal 0 0 -1
		outer loop
			vertex -51.25 2.5 -7.5
			vertex -100 4.878048780487805 -7.5
			vertex -100 5 -7.5
		endloop
	endfacet
	facet normal 0 0 -1
		outer loop
			vertex -51.25 2.5 -7.5
			vertex -100 5 -7.5
			vertex 100 5 -7.5
		endloop
	endfacet
	facet normal 0 0 -1
		outer loop
			vertex -51.25 2.5 -7.5
			vertex 100 5 -7.5
			vertex 100 2.5 -7.5
		endloop
	endfacet
	facet normal 0 0 -1
		outer loop
			vertex -100 2.5 -7.5
			vertex -100 4.878048780487805 -7.5
			vertex -51.250000000000014 2.5 -7.5
		endloop
	endfacet
	facet normal 0 -1 0
		outer loop
			vertex -95 -2.5 2.625
			vertex 95 -2.5 7.375
			vertex -95 -2.5 7.496794871794871
		endloop
	endfacet
	facet normal 0 -1 0
		outer loop
			vertex -95 -2.5 7.496794871794871
			vertex 95 -2.5 7.375
			vertex 95 -2.5 7.5
		endloop
	endfacet
	facet normal 0 -1 0
		outer loop
			vertex -95 -2.5 7.496794871794871
			vertex 95 -2.5 7.5
			vertex -95 -2.5 7.5
		endloop
	endfacet
	facet normal 0 -1 0
		outer loop
			vertex -95 -2.5 2.5
			vertex 95 -2.5 2.5
			vertex 95 -2.5 7.375
		endloop
	endfacet
	facet normal 0 -1 0
		outer loop
			vertex -95 -2.5 2.5
			vertex 95 -2.5 7.375
			vertex -95 -2.5 2.625
		endloop
	endfacet
	facet normal 0 -1 0
		outer loop
			vertex 95 -2.5 7.375
			vertex 100 -2.5 7.5
			vertex 95 -2.5 7.5
		endloop
	endfacet
	facet normal 0 -1 0
		outer loop
			vertex 95 -2.5 2.5
			vertex 100 -2.5 2.5
			vertex 100 -2.5 7.5
		endloop
	endfacet
	facet normal 0 -1 0
		outer loop
			vertex 95 -2.5 2.5
			vertex 100 -2.5 7.5
			vertex 95 -2.5 7.375
		endloop
	endfacet
	facet normal 0 -1 0
		outer loop
			vertex 95 -2.5 2.5
			vertex 95 -2.5 -2.5
			vertex 96.66666666666666 -2.5 -2.5
		endloop
	endfacet
	facet normal 0 -1 0
		outer loop
			vertex 95 -2.5 2.5
			vertex 96.66666666666666 -2.5 -2.5
			vertex 98.33333333333333 -2.5 2.5
		endloop
	endfacet
	facet normal 0 -1 0
		outer loop
			vertex 98.33333333333333 -2.5 2.5
			vertex 96.66666666666666 -2.5 -2.5
			vertex 99.16666666666666 -2.5 -2.5
		endloop
	endfacet
	facet normal 0 -1 0
		outer loop
			vertex 98.33333333333333 -2.5 2.5
			vertex 99.16666666666666 -2.5 -2.5
			vertex 100 -2.5 -2.5
		endloop
	endfacet
	facet normal 0 -1 0
		outer loop
			vertex 98.33333333333333 -2.5 2.5
			vertex 100 -2.5 -2.5
			vertex 100 -2.5 2.5
		endloop
	endfacet
	facet normal 0 -1 0
		outer loop
			vertex -100 -2.5 7.5
			vertex -100 -2.5 2.5
			vertex -95 -2.5 2.625
		endloop
	endfacet
	facet normal 0 -1 0
		outer loop
			vertex -100 -2.5 7.5
			vertex -95 -2.5 2.625
			vertex -95 -2.5 7.496794871794871
		endloop
	endfacet
	facet normal 0 -1 0
		outer loop
			vertex -100 -2.5 7.5
			vertex -95 -2.5 7.496794871794871
			vertex -95 -2.5 7.5
		endloop
	endfacet
	facet normal 0 -1 0
		outer loop
			vertex -100 -2.5 2.5
			vertex -95 -2.5 2.5
			vertex -95 -2.5 2.625
		endloop
	endfacet
	facet normal 0 -1 0
		outer loop
			vertex -100 -2.5 2.5
			vertex -100 -2.5 -2.5
			vertex -98.33333333333334 -2.5 -2.5
		endloop
	endfacet
	facet normal 0 -1 0
		outer loop
			vertex -100 -2.5 2.5
			vertex -98.33333333333334 -2.5 -2.5
			vertex -96.66666666666667 -2.5 2.5
		endloop
	endfacet
	facet normal 0 -1 0
		outer loop
			vertex -96.66666666666667 -2.5 2.5
			vertex -98.33333333333334 -2.5 -2.5
			vertex -95.83333333333334 -2.5 -2.5
		endloop
	endfacet
	facet normal 0 -1 0
		outer loop
			vertex -96.66666666666667 -2.5 2.5
			vertex -95.83333333333334 -2.5 -2.5
			vertex -95 -2.5 -2.5
		endloop
	endfacet
	facet normal 0 -1 0
		outer loop
			vertex -96.66666666666667 -2.5 2.5
			vertex -95 -2.5 -2.5
			vertex -95 -2.5 2.5
		endloop
	endfacet
	facet normal 0 -1 0
		outer loop
			vertex -100 -5 -7.439024390243903
			vertex 100 -5 -2.560975609756097
			vertex 100 -5 -2.5
		endloop
	endfacet
	facet normal 0 -1 0
		outer loop
			vertex -100 -5 -7.439024390243903
			vertex 100 -5 -2.5
			vertex -100 -5 -2.5
		endloop
	endfacet
	facet normal 0 -1 0
		outer loop
			vertex -100 -5 -7.5
			vertex 100 -5 -7.5
			vertex 100 -5 -2.5609756097560976
		endloop
	endfacet
	facet normal 0 -1 0
		outer loop
			vertex -100 -5 -7.5
			vertex 100 -5 -2.5609756097560976
			vertex -100 -5 -7.439024390243903
		endloop
	endfacet
	facet normal 0 0 1
		outer loop
			vertex -100 -4.878048780487805 -2.5
			vertex -51.250000000000014 -2.5 -2.5
			vertex -100 -2.5 -2.5
		endloop
	endfacet
	facet normal 0 0 1
		outer loop
			vertex -100 -5 -2.5
			vertex 100 -5 -2.5
			vertex 100 -2.5 -2.5
		endloop
	endfacet
	facet normal 0 0 1
		outer loop
			vertex -100 -5 -2.5
			vertex 100 -2.5 -2.5
			vertex -51.25 -2.5 -2.5
		endloop
	endfacet
	facet normal 0 0 1
		outer loop
			vertex -100 -5 -2.5
			vertex -51.25 -2.5 -2.5
			vertex -100 -4.878048780487805 -2.5
		endloop
	endfacet
	facet normal 0 0 -1
		outer loop
			vertex 100 -4.878048780487805 -7.5
			vertex 51.25 -2.5 -7.5
			vertex 100 -2.5 -7.5
		endloop
	endfacet
	facet normal 0 0 -1
		outer loop
			vertex 100 -5 -7.5
			vertex -100 -5 -7.5
			vertex -100 -2.5 -7.5
		endloop
	endfacet
	facet normal 0 0 -1
		outer loop
			vertex 100 -5 -7.5
			vertex -100 -2.5 -7.5
			vertex 51.249999999999986 -2.5 -7.5
		endloop
	endfacet
	facet normal 0 0 -1
		outer loop
			vertex 100 -5 -7.5
			vertex 51.249999999999986 -2.5 -7.5
			vertex 100 -4.878048780487806 -7.5
		endloop
	endfacet
	facet normal 0 0 1
		outer loop
			vertex -95 -2.375 7.5
			vertex 95 2.375 7.5
			vertex -95 2.496794871794872 7.5
		endloop
	endfacet
	facet normal 0 0 1
		outer loop
			vertex -95 2.496794871794872 7.5
			vertex 95 2.375 7.5
			vertex 95 2.5 7.5
		endloop
	endfacet
	facet normal 0 0 1
		outer loop
			vertex -95 2.496794871794872 7.5
			vertex 95 2.5 7.5
			vertex -95 2.5 7.5
		endloop
	endfacet
	facet normal 0 0 1
		outer loop
			vertex -95 -2.5 7.5
			vertex 95 -2.5 7.5
			vertex 95 2.375 7.5
		endloop
	endfacet
	facet normal 0 0 1
		outer loop
			vertex -95 -2.5 7.5
			vertex 95 2.375 7.5
			vertex -95 -2.375 7.5
		endloop
	endfacet
	facet normal 0 0 1
		outer loop
			vertex 95 2.375 7.5
			vertex 100 2.5 7.5
			vertex 95 2.5 7.5
		endloop
	endfacet
	facet normal 0 0 1
		outer loop
			vertex 95 -2.5 7.5
			vertex 100 -2.5 7.5
			vertex 100 2.5 7.5
		endloop
	endfacet
	facet normal 0 0 1
		outer loop
			vertex 95 -2.5 7.5
			vertex 100 2.5 7.5
			vertex 95 2.375 7.5
		endloop
	endfacet
	facet normal 0 0 1
		outer loop
			vertex -100 2.5 7.5
			vertex -100 -2.5 7.5
			vertex -95 -2.375 7.5
		endloop
	endfacet
	facet normal 0 0 1
		outer loop
			vertex -100 2.5 7.5
			vertex -95 -2.375 7.5
			vertex -95 2.496794871794872 7.5
		endloop
	endfacet
	facet normal 0 0 1
		outer loop
			vertex -100 2.5 7.5
			vertex -95 2.496794871794872 7.5
			vertex -95 2.5 7.5
		endloop
	endfacet
	facet normal 0 0 1
		outer loop
			vertex -100 -2.5 7.5
			vertex -95 -2.5 7.5
			vertex -95 -2.375 7.5
		endloop
	endfacet
	facet normal 0 0 -1
		outer loop
			vertex 95 -2.375 2.5
			vertex -95 2.375 2.5
			vertex -95 2.5 2.5
		endloop
	endfacet
	facet normal 0 0 -1
		outer loop
			vertex 95 -2.375 2.5
			vertex -95 2.5 2.5
			vertex 95 2.5 2.5
		endloop
	endfacet
	facet normal 0 0 -1
		outer loop
			vertex 95 -2.5 2.5
			vertex -95 -2.5 2.5
			vertex -95 2.371794871794872 2.5
		endloop
	endfacet
	facet normal 0 0 -1
		outer loop
			vertex 95 -2.5 2.5
			vertex -95 2.3717948717948714 2.5
			vertex -95 2.375 2.5
		endloop
	endfacet
	facet normal 0 0 -1
		outer loop
			vertex 95 -2.5 2.5
			vertex -95 2.375 2.5
			vertex 95 -2.375 2.5
		endloop
	endfacet
	facet normal -1 0 0
		outer loop
			vertex 95 -0.8333333333333335 -2.5
			vertex 95 0.833333333333333 2.5
			vertex 95 1.6666666666666665 -2.5
		endloop
	endfacet
	facet normal -1 0 0
		outer loop
			vertex 95 1.6666666666666665 -2.5
			vertex 95 0.833333333333333 2.5
			vertex 95 2.5 2.5
		endloop
	endfacet
	facet normal -1 0 0
		outer loop
			vertex 95 1.6666666666666665 -2.5
			vertex 95 2.5 2.5
			vertex 95 2.5 -2.5
		endloop
	endfacet
	facet normal -1 0 0
		outer loop
			vertex 95 -2.5 -2.5
			vertex 95 -2.5 2.5
			vertex 95 0.8333333333333335 2.5
		endloop
	endfacet
	facet normal -1 0 0
		outer loop
			vertex 95 -2.5 -2.5
			vertex 95 0.8333333333333335 2.5
			vertex 95 -0.8333333333333333 -2.5
		endloop
	endfacet
	facet normal 1 0 0
		outer loop
			vertex -95 -0.8333333333333335 2.5
			vertex -95 0.8333333333333333 -2.5
			vertex -95 2.5 -2.5
		endloop
	endfacet
	facet normal 1 0 0
		outer loop
			vertex -95 -0.8333333333333335 2.5
			vertex -95 2.5 -2.5
			vertex -95 2.5 2.5
		endloop
	endfacet
	facet normal 1 0 0
		outer loop
			vertex -95 -2.5 2.5
			vertex -95 -2.5 -2.5
			vertex -95 0 -2.5
		endloop
	endfacet
	facet normal 1 0 0
		outer loop
			vertex -95 -2.5 2.5
			vertex -95 0 -2.5
			vertex -95 0.8333333333333335 -2.5
		endloop
	endfacet
	facet normal 1 0 0
		outer loop
			vertex -95 -2.5 2.5
			vertex -95 0.8333333333333335 -2.5
			vertex -95 -0.833333333333333 2.5
		endloop
	endfacet
	facet normal 0 0 1
		outer loop
			vertex -51.250000000000014 -2.5 -2.5
			vertex 51.24999999999997 2.5 -2.5
			vertex -95 2.5 -2.5
		endloop
	endfacet
	facet normal 0 0 1
		outer loop
			vertex -51.250000000000014 -2.5 -2.5
			vertex -95 2.5 -2.5
			vertex -95 -2.5 -2.5
		endloop
	endfacet
	facet normal 0 0 1
		outer loop
			vertex 95 2.5 -2.5
			vertex 51.25 2.5 -2.5
			vertex -51.25 -2.5 -2.5
		endloop
	endfacet
	facet normal 0 0 1
		outer loop
			vertex 95 2.5 -2.5
			vertex -51.25 -2.5 -2.5
			vertex 95 -2.5 -2.5
		endloop
	endfacet
	facet normal 0 0 -1
		outer loop
			vertex 51.25 -2.5 -7.5
			vertex -51.25 2.5 -7.5
			vertex 95 2.5 -7.5
		endloop
	endfacet
	facet normal 0 0 -1
		outer loop
			vertex 51.25 -2.5 -7.5
			vertex 95 2.5 -7.5
			vertex 95 -2.5 -7.5
		endloop
	endfacet
	facet normal 0 0 -1
		outer loop
			vertex -95 2.5 -7.5
			vertex -51.250000000000014 2.5 -7.5
			vertex 51.249999999999986 -2.5 -7.5
		endloop
	endfacet
	facet normal 0 0 -1
		outer loop
			vertex -95 2.5 -7.5
			vertex 51.249999999999986 -2.5 -7.5
			vertex -95.00000000000001 -2.5 -7.5
		endloop
	endfacet
	facet normal 0 0 -1
		outer loop
			vertex -95 2.5 -7.5
			vertex -95 -2.5 -7.5
			vertex -100 2.5 -7.5
		endloop
	endfacet
	facet normal 0 0 -1
		outer loop
			vertex -95 -2.5 -7.5
			vertex -100 -2.5 -7.5
			vertex -100 2.5 -7.5
		endloop
	endfacet
	facet normal 0 0 -1
		outer loop
			vertex 100 2.5 -7.5
			vertex 100 -2.5 -7.5
			vertex 95 2.5 -7.5
		endloop
	endfacet
	facet normal 0 0 -1
		outer loop
			vertex 100 -2.5 -7.5
			vertex 95 -2.5 -7.5
			vertex 95 2.5 -7.5
		endloop
	endfacet
endsolid exported
