solid exported
	facet normal 1 0 0
		outer loop
			vertex 95 2.5 7.5
			vertex 95 -2.5 7.5
			vertex 95 2.5 2.5
		endloop
	endfacet
	facet normal 1 0 0
		outer loop
			vertex 95 -2.5 7.5
			vertex 95 -2.5 2.5
			vertex 95 2.5 2.5
		endloop
	endfacet
	facet normal 1 0 0
		outer loop
			vertex 95 2.5 2.5
			vertex 95 -0.833333333333333 2.5
			vertex 95 0.8333333333333335 -2.5
		endloop
	endfacet
	facet normal 1 0 0
		outer loop
			vertex 95 2.5 2.5
			vertex 95 0.8333333333333335 -2.5
			vertex 95 2.5 -2.5
		endloop
	endfacet
	facet normal 1 0 0
		outer loop
			vertex 95 -0.8333333333333335 2.5
			vertex 95 -2.5 2.5
			vertex 95 -2.5 -2.5
		endloop
	endfacet
	facet normal 1 0 0
		outer loop
			vertex 95 -0.8333333333333335 2.5
			vertex 95 -2.5 -2.5
			vertex 95 -1.6666666666666667 -2.5
		endloop
	endfacet
	facet normal 1 0 0
		outer loop
			vertex 95 -0.8333333333333335 2.5
			vertex 95 -1.6666666666666667 -2.5
			vertex 95 0.8333333333333333 -2.5
		endloop
	endfacet
	facet normal 1 0 0
		outer loop
			vertex 97.5 5 -2.5
			vertex 97.5 -5 -2.5
			vertex 97.5 5 -7.5
		endloop
	endfacet
	facet normal 1 0 0
		outer loop
			vertex 97.5 -5 -2.5
			vertex 97.5 -5 -7.5
			vertex 97.5 5 -7.5
		endloop
	endfacet
	facet normal 0 1 0
		outer loop
			vertex 95 5 -7.435897435897436
			vertex 97.5 5 -7.5
			vertex 95 5 -7.5
		endloop
	endfacet
	facet normal 0 1 0
		outer loop
			vertex 95 5 -2.5
			vertex 97.5 5 -2.5
			vertex 97.5 5 -7.5
		endloop
	endfacet
	facet normal 0 1 0
		outer loop
			vertex 95 5 -2.5
			vertex 97.5 5 -7.5
			vertex 95 5 -7.435897435897436
		endloop
	endfacet
	facet normal 0 -1 0
		outer loop
			vertex 95 -5 -2.564102564102564
			vertex 97.5 -5 -2.5
			vertex 95 -5 -2.5
		endloop
	endfacet
	facet normal 0 -1 0
		outer loop
			vertex 95 -5 -7.5
			vertex 97.5 -5 -7.5
			vertex 97.5 -5 -2.5
		endloop
	endfacet
	facet normal 0 -1 0
		outer loop
			vertex 95 -5 -7.5
			vertex 97.5 -5 -2.5
			vertex 95 -5 -2.564102564102564
		endloop
	endfacet
	facet normal 0 0 1
		outer loop
			vertex 95 4.871794871794872 -2.5
			vertex 97.5 5 -2.5
			vertex 95 5 -2.5
		endloop
	endfacet
	facet normal 0 0 1
		outer loop
			vertex 95 -5 -2.5
			vertex 97.5 -5 -2.5
			vertex 97.5 5 -2.5
		endloop
	endfacet
	facet normal 0 0 1
		outer loop
			vertex 95 -5 -2.5
			vertex 97.5 5 -2.5
			vertex 95 4.871794871794872 -2.5
		endloop
	endfacet
	facet normal 0 0 -1
		outer loop
			vertex 97.5 5 -7.5
			vertex 97.5 -5 -7.5
			vertex 95 -4.871794871794872 -7.5
		endloop
	endfacet
	facet normal 0 0 -1
		outer loop
			vertex 97.5 5 -7.5
			vertex 95 -4.871794871794872 -7.5
			vertex 95 5 -7.5
		endloop
	endfacet
	facet normal 0 0 -1
		outer loop
			vertex 97.5 -5 -7.5
			vertex 95 -5 -7.5
			vertex 95 -4.871794871794872 -7.5
		endloop
	endfacet
	facet normal -1 0 0
		outer loop
			vertex -95 2.5 2.5
			vertex -95 -2.5 2.5
			vertex -95 2.5 7.5
		endloop
	endfacet
	facet normal -1 0 0
		outer loop
			vertex -95 -2.5 2.5
			vertex -95 -2.5 7.5
			vertex -95 2.5 7.5
		endloop
	endfacet
	facet normal -1 0 0
		outer loop
			vertex -95 2.5 2.5
			vertex -95 2.5 -2.5
			vertex -95 0 -2.5
		endloop
	endfacet
	facet normal -1 0 0
		outer loop
			vertex -95 2.5 2.5
			vertex -95 0 -2.5
			vertex -95 -0.8333333333333333 -2.5
		endloop
	endfacet
	facet normal -1 0 0
		outer loop
			vertex -95 2.5 2.5
			vertex -95 -0.8333333333333333 -2.5
			vertex -95 0.8333333333333335 2.5
		endloop
	endfacet
	facet normal -1 0 0
		outer loop
			vertex -95 0.833333333333333 2.5
			vertex -95 -0.8333333333333335 -2.5
			vertex -95 -2.5 -2.5
		endloop
	endfacet
	facet normal -1 0 0
		outer loop
			vertex -95 0.833333333333333 2.5
			vertex -95 -2.5 -2.5
			vertex -95 -2.5 2.5
		endloop
	endfacet
	facet normal -1 0 0
		outer loop
			vertex -97.5 5 -7.5
			vertex -97.5 -5 -7.5
			vertex -97.5 5 -2.5
		endloop
	endfacet
	facet normal -1 0 0
		outer loop
			vertex -97.5 -5 -7.5
			vertex -97.5 -5 -2.5
			vertex -97.5 5 -2.5
		endloop
	endfacet
	facet normal 0 1 0
		outer loop
			vertex -97.5 5 -7.5
			vertex -97.5 5 -2.5
			vertex -95 5 -2.5641025641025643
		endloop
	endfacet
	facet normal 0 1 0
		outer loop
			vertex -97.5 5 -7.5
			vertex -95 5 -2.5641025641025643
			vertex -95 5 -7.5
		endloop
	endfacet
	facet normal 0 1 0
		outer loop
			vertex -97.5 5 -2.5
			vertex -95 5 -2.5
			vertex -95 5 -2.564102564102564
		endloop
	endfacet
	facet normal 0 -1 0
		outer loop
			vertex -97.5 -5 -2.5
			vertex -97.5 -5 -7.5
			vertex -95 -5 -7.435897435897436
		endloop
	endfacet
	facet normal 0 -1 0
		outer loop
			vertex -97.5 -5 -2.5
			vertex -95 -5 -7.435897435897436
			vertex -95 -5 -2.5
		endloop
	endfacet
	facet normal 0 -1 0
		outer loop
			vertex -97.5 -5 -7.5
			vertex -95 -5 -7.5
			vertex -95 -5 -7.435897435897436
		endloop
	endfacet
	facet normal 0 0 1
		outer loop
			vertex -97.5 5 -2.5
			vertex -97.5 -5 -2.5
			vertex -95 -4.871794871794871 -2.5
		endloop
	endfacet
	facet normal 0 0 1
		outer loop
			vertex -97.5 5 -2.5
			vertex -95 -4.871794871794871 -2.5
			vertex -95 5 -2.5
		endloop
	endfacet
	facet normal 0 0 1
		outer loop
			vertex -97.5 -5 -2.5
			vertex -95 -5 -2.5
			vertex -95 -4.871794871794872 -2.5
		endloop
	endfacet
	facet normal 0 0 -1
		outer loop
			vertex -95 4.871794871794872 -7.5
			vertex -97.5 5 -7.5
			vertex -95 5 -7.5
		endloop
	endfacet
	facet normal 0 0 -1
		outer loop
			vertex -95 -5 -7.5
			vertex -97.5 -5 -7.5
			vertex -97.5 5 -7.5
		endloop
	endfacet
	facet normal 0 0 -1
		outer loop
			vertex -95 -5 -7.5
			vertex -97.5 5 -7.5
			vertex -95 4.871794871794871 -7.5
		endloop
	endfacet
	facet normal 0 1 0
		outer loop
			vertex -90 2.5 7.368421052631579
			vertex 90 2.5 2.6315789473684212
			vertex -90 2.5 2.503556187766714
		endloop
	endfacet
	facet normal 0 1 0
		outer loop
			vertex -90 2.5 2.5035561877667143
			vertex 90 2.5 2.6315789473684212
			vertex 90 2.5 2.5
		endloop
	endfacet
	facet normal 0 1 0
		outer loop
			vertex -90 2.5 2.5035561877667143
			vertex 90 2.5 2.5
			vertex -90 2.5 2.5
		endloop
	endfacet
	facet normal 0 1 0
		outer loop
			vertex -90 2.5 7.5
			vertex 90 2.5 7.5
			vertex 90 2.5 2.6315789473684212
		endloop
	endfacet
	facet normal 0 1 0
		outer loop
			vertex -90 2.5 7.5
			vertex 90 2.5 2.6315789473684212
			vertex -90 2.5 7.36842105263158
		endloop
	endfacet
	facet normal 0 1 0
		outer loop
			vertex 90 2.5 2.6315789473684212
			vertex 95 2.5 2.5
			vertex 90 2.5 2.5
		endloop
	endfacet
	facet normal 0 1 0
		outer loop
			vertex 90 2.5 7.5
			vertex 95 2.5 7.5
			vertex 95 2.5 2.5
		endloop
	endfacet
	facet normal 0 1 0
		outer loop
			vertex 90 2.5 7.5
			vertex 95 2.5 2.5
			vertex 90 2.5 2.6315789473684212
		endloop
	endfacet
	facet normal 0 1 0
		outer loop
			vertex 90 2.5 -2.5
			vertex 90 2.5 2.5
			vertex 91.66666666666667 2.5 2.5
		endloop
	endfacet
	facet normal 0 1 0
		outer loop
			vertex 90 2.5 -2.5
			vertex 91.66666666666667 2.5 2.5
			vertex 90.83333333333334 2.5 -2.5
		endloop
	endfacet
	facet normal 0 1 0
		outer loop
			vertex 90.83333333333334 2.5 -2.5
			vertex 91.66666666666667 2.5 2.5
			vertex 93.33333333333334 2.5 -2.5
		endloop
	endfacet
	facet normal 0 1 0
		outer loop
			vertex 91.66666666666667 2.5 2.5
			vertex 95 2.5 2.5
			vertex 95 2.5 -2.5
		endloop
	endfacet
	facet normal 0 1 0
		outer loop
			vertex 91.66666666666667 2.5 2.5
			vertex 95 2.5 -2.5
			vertex 93.33333333333334 2.5 -2.5
		endloop
	endfacet
	facet normal 0 1 0
		outer loop
			vertex -95 2.5 2.5
			vertex -95 2.5 7.5
			vertex -90 2.5 7.368421052631579
		endloop
	endfacet
	facet normal 0 1 0
		outer loop
			vertex -95 2.5 2.5
			vertex -90 2.5 7.368421052631579
			vertex -90 2.5 2.503556187766714
		endloop
	endfacet
	facet normal 0 1 0
		outer loop
			vertex -95 2.5 2.5
			vertex -90 2.5 2.5035561877667143
			vertex -90 2.5 2.5
		endloop
	endfacet
	facet normal 0 1 0
		outer loop
			vertex -95 2.5 7.5
			vertex -90 2.5 7.5
			vertex -90 2.5 7.36842105263158
		endloop
	endfacet
	facet normal 0 1 0
		outer loop
			vertex -95 2.5 -2.5
			vertex -95 2.5 2.5
			vertex -93.33333333333333 2.5 2.5
		endloop
	endfacet
	facet normal 0 1 0
		outer loop
			vertex -95 2.5 -2.5
			vertex -93.33333333333333 2.5 2.5
			vertex -94.16666666666666 2.5 -2.5
		endloop
	endfacet
	facet normal 0 1 0
		outer loop
			vertex -94.16666666666666 2.5 -2.5
			vertex -93.33333333333333 2.5 2.5
			vertex -91.66666666666666 2.5 -2.5
		endloop
	endfacet
	facet normal 0 1 0
		outer loop
			vertex -93.33333333333333 2.5 2.5
			vertex -90 2.5 2.5
			vertex -90 2.5 -2.5
		endloop
	endfacet
	facet normal 0 1 0
		outer loop
			vertex -93.33333333333333 2.5 2.5
			vertex -90 2.5 -2.5
			vertex -91.66666666666666 2.5 -2.5
		endloop
	endfacet
	facet normal 0 1 0
		outer loop
			vertex -95 5 -2.5641025641025643
			vertex 95 5 -7.435897435897436
			vertex 95 5 -7.5
		endloop
	endfacet
	facet normal 0 1 0
		outer loop
			vertex -95 5 -2.5641025641025643
			vertex 95 5 -7.5
			vertex -95 5 -7.5
		endloop
	endfacet
	facet normal 0 1 0
		outer loop
			vertex -95 5 -2.5
			vertex 95 5 -2.5
			vertex 95 5 -7.435897435897436
		endloop
	endfacet
	facet normal 0 1 0
		outer loop
			vertex -95 5 -2.5
			vertex 95 5 -7.435897435897436
			vertex -95 5 -2.564102564102564
		endloop
	endfacet
	facet normal 0 0 1
		outer loop
			vertex 48.74999999999997 2.5 -2.5
			vertex 95 4.871794871794872 -2.5
			vertex 95 5 -2.5
		endloop
	endfacet
	facet normal 0 0 1
		outer loop
			vertex 48.74999999999997 2.5 -2.5
			vertex 95 5 -2.5
			vertex -95 5 -2.5
		endloop
	endfacet
	facet normal 0 0 1
		outer loop
			vertex 48.74999999999997 2.5 -2.5
			vertex -95 5 -2.5
			vertex -95 2.5 -2.5
		endloop
	endfacet
	facet normal 0 0 1
		outer loop
			vertex 95 2.5 -2.5
			vertex 95 4.871794871794872 -2.5
			vertex 48.74999999999999 2.5 -2.5
		endloop
	endfacet
	facet normal 0 0 -1
		outer loop
			vertex -48.75 2.5 -7.5
			vertex -95 4.871794871794872 -7.5
			vertex -95 5 -7.5
		endloop
	endfacet
	facet normal 0 0 -1
		outer loop
			vertex -48.75 2.5 -7.5
			vertex -95 5 -7.5
			vertex 95 5 -7.5
		endloop
	endfacet
	facet normal 0 0 -1
		outer loop
			vertex -48.75 2.5 -7.5
			vertex 95 5 -7.5
			vertex 95 2.5 -7.5
		endloop
	endfacet
	facet normal 0 0 -1
		outer loop
			vertex -95 2.5 -7.5
			vertex -95 4.871794871794871 -7.5
			vertex -48.750000000000014 2.5 -7.5
		endloop
	endfacet
	facet normal 0 -1 0
		outer loop
			vertex -90 -2.5 2.6315789473684212
			vertex 90 -2.5 7.368421052631579
			vertex -90 -2.5 7.496443812233286
		endloop
	endfacet
	facet normal 0 -1 0
		outer loop
			vertex -90 -2.5 7.496443812233286
			vertex 90 -2.5 7.368421052631579
			vertex 90 -2.5 7.5
		endloop
	endfacet
	facet normal 0 -1 0
		outer loop
			vertex -90 -2.5 7.496443812233286
			vertex 90 -2.5 7.5
			vertex -90 -2.5 7.5
		endloop
	endfacet
	facet normal 0 -1 0
		outer loop
			vertex -90 -2.5 2.5
			vertex 90 -2.5 2.5
			vertex 90 -2.5 7.368421052631579
		endloop
	endfacet
	facet normal 0 -1 0
		outer loop
			vertex -90 -2.5 2.5
			vertex 90 -2.5 7.368421052631579
			vertex -90 -2.5 2.6315789473684204
		endloop
	endfacet
	facet normal 0 -1 0
		outer loop
			vertex 90 -2.5 7.368421052631579
			vertex 95 -2.5 7.5
			vertex 90 -2.5 7.5
		endloop
	endfacet
	facet normal 0 -1 0
		outer loop
			vertex 90 -2.5 2.5
			vertex 95 -2.5 2.5
			vertex 95 -2.5 7.5
		endloop
	endfacet
	facet normal 0 -1 0
		outer loop
			vertex 90 -2.5 2.5
			vertex 95 -2.5 7.5
			vertex 90 -2.5 7.368421052631579
		endloop
	endfacet
	facet normal 0 -1 0
		outer loop
			vertex 90 -2.5 2.5
			vertex 90 -2.5 -2.5
			vertex 91.66666666666666 -2.5 -2.5
		endloop
	endfacet
	facet normal 0 -1 0
		outer loop
			vertex 90 -2.5 2.5
			vertex 91.66666666666666 -2.5 -2.5
			vertex 93.33333333333333 -2.5 2.5
		endloop
	endfacet
	facet normal 0 -1 0
		outer loop
			vertex 93.33333333333333 -2.5 2.5
			vertex 91.66666666666666 -2.5 -2.5
			vertex 94.16666666666666 -2.5 -2.5
		endloop
	endfacet
	facet normal 0 -1 0
		outer loop
			vertex 93.33333333333333 -2.5 2.5
			vertex 94.16666666666666 -2.5 -2.5
			vertex 95 -2.5 -2.5
		endloop
	endfacet
	facet normal 0 -1 0
		outer loop
			vertex 93.33333333333333 -2.5 2.5
			vertex 95 -2.5 -2.5
			vertex 95 -2.5 2.5
		endloop
	endfacet
	facet normal 0 -1 0
		outer loop
			vertex -95 -2.5 7.5
			vertex -95 -2.5 2.5
			vertex -90 -2.5 2.6315789473684212
		endloop
	endfacet
	facet normal 0 -1 0
		outer loop
			vertex -95 -2.5 7.5
			vertex -90 -2.5 2.6315789473684212
			vertex -90 -2.5 7.496443812233286
		endloop
	endfacet
	facet normal 0 -1 0
		outer loop
			vertex -95 -2.5 7.5
			vertex -90 -2.5 7.496443812233286
			vertex -90 -2.5 7.5
		endloop
	endfacet
	facet normal 0 -1 0
		outer loop
			vertex -95 -2.5 2.5
			vertex -90 -2.5 2.5
			vertex -90 -2.5 2.6315789473684204
		endloop
	endfacet
	facet normal 0 -1 0
		outer loop
			vertex -95 -2.5 2.5
			vertex -95 -2.5 -2.5
			vertex -93.33333333333334 -2.5 -2.5
		endloop
	endfacet
	facet normal 0 -1 0
		outer loop
			vertex -95 -2.5 2.5
			vertex -93.33333333333334 -2.5 -2.5
			vertex -91.66666666666667 -2.5 2.5
		endloop
	endfacet
	facet normal 0 -1 0
		outer loop
			vertex -91.66666666666667 -2.5 2.5
			vertex -93.33333333333334 -2.5 -2.5
			vertex -90.83333333333334 -2.5 -2.5
		endloop
	endfacet
	facet normal 0 -1 0
		outer loop
			vertex -91.66666666666667 -2.5 2.5
			vertex -90.83333333333334 -2.5 -2.5
			vertex -90 -2.5 -2.5
		endloop
	endfacet
	facet normal 0 -1 0
		outer loop
			vertex -91.66666666666667 -2.5 2.5
			vertex -90 -2.5 -2.5
			vertex -90 -2.5 2.5
		endloop
	endfacet
	facet normal 0 -1 0
		outer loop
			vertex -95 -5 -7.435897435897436
			vertex 95 -5 -2.564102564102564
			vertex 95 -5 -2.5
		endloop
	endfacet
	facet normal 0 -1 0
		outer loop
			vertex -95 -5 -7.435897435897436
			vertex 95 -5 -2.5
			vertex -95 -5 -2.5
		endloop
	endfacet
	facet normal 0 -1 0
		outer loop
			vertex -95 -5 -7.5
			vertex 95 -5 -7.5
			vertex 95 -5 -2.564102564102564
		endloop
	endfacet
	facet normal 0 -1 0
		outer loop
			vertex -95 -5 -7.5
			vertex 95 -5 -2.564102564102564
			vertex -95 -5 -7.435897435897436
		endloop
	endfacet
	facet normal 0 0 1
		outer loop
			vertex -95 -4.871794871794871 -2.5
			vertex -48.750000000000014 -2.5 -2.5
			vertex -95 -2.5 -2.5
		endloop
	endfacet
	facet normal 0 0 1
		outer loop
			vertex -95 -5 -2.5
			vertex 95 -5 -2.5
			vertex 95 -2.5 -2.5
		endloop
	endfacet
	facet normal 0 0 1
		outer loop
			vertex -95 -5 -2.5
			vertex 95 -2.5 -2.5
			vertex -48.75000000000001 -2.5 -2.5
		endloop
	endfacet
	facet normal 0 0 1
		outer loop
			vertex -95 -5 -2.5
			vertex -48.75000000000001 -2.5 -2.5
			vertex -95 -4.871794871794872 -2.5
		endloop
	endfacet
	facet normal 0 0 -1
		outer loop
			vertex 95 -4.871794871794872 -7.5
			vertex 48.74999999999999 -2.5 -7.5
			vertex 95 -2.5 -7.5
		endloop
	endfacet
	facet normal 0 0 -1
		outer loop
			vertex 95 -5 -7.5
			vertex -95 -5 -7.5
			vertex -95 -2.5 -7.5
		endloop
	endfacet
	facet normal 0 0 -1
		outer loop
			vertex 95 -5 -7.5
			vertex -95 -2.5 -7.5
			vertex 48.749999999999986 -2.5 -7.5
		endloop
	endfacet
	facet normal 0 0 -1
		outer loop
			vertex 95 -5 -7.5
			vertex 48.749999999999986 -2.5 -7.5
			vertex 95 -4.871794871794872 -7.5
		endloop
	endfacet
	facet normal 0 0 1
		outer loop
			vertex -90 -2.3684210526315788 7.5
			vertex 90 2.3684210526315788 7.5
			vertex -90 2.496443812233286 7.5
		endloop
	endfacet
	facet normal 0 0 1
		outer loop
			vertex -90 2.4964438122332857 7.5
			vertex 90 2.3684210526315788 7.5
			vertex 90 2.5 7.5
		endloop
	endfacet
	facet normal 0 0 1
		outer loop
			vertex -90 2.4964438122332857 7.5
			vertex 90 2.5 7.5
			vertex -90 2.5 7.5
		endloop
	endfacet
	facet normal 0 0 1
		outer loop
			vertex -90 -2.5 7.5
			vertex 90 -2.5 7.5
			vertex 90 2.3684210526315788 7.5
		endloop
	endfacet
	facet normal 0 0 1
		outer loop
			vertex -90 -2.5 7.5
			vertex 90 2.3684210526315788 7.5
			vertex -90 -2.3684210526315796 7.5
		endloop
	endfacet
	facet normal 0 0 1
		outer loop
			vertex 90 2.3684210526315788 7.5
			vertex 95 2.5 7.5
			vertex 90 2.5 7.5
		endloop
	endfacet
	facet normal 0 0 1
		outer loop
			vertex 90 -2.5 7.5
			vertex 95 -2.5 7.5
			vertex 95 2.5 7.5
		endloop
	endfacet
	facet normal 0 0 1
		outer loop
			vertex 90 -2.5 7.5
			vertex 95 2.5 7.5
			vertex 90 2.3684210526315788 7.5
		endloop
	endfacet
	facet normal 0 0 1
		outer loop
			vertex -95 2.5 7.5
			vertex -95 -2.5 7.5
			vertex -90 -2.3684210526315788 7.5
		endloop
	endfacet
	facet normal 0 0 1
		outer loop
			vertex -95 2.5 7.5
			vertex -90 -2.3684210526315788 7.5
			vertex -90 2.496443812233286 7.5
		endloop
	endfacet
	facet normal 0 0 1
		outer loop
			vertex -95 2.5 7.5
			vertex -90 2.4964438122332857 7.5
			vertex -90 2.5 7.5
		endloop
	endfacet
	facet normal 0 0 1
		outer loop
			vertex -95 -2.5 7.5
			vertex -90 -2.5 7.5
			vertex -90 -2.3684210526315796 7.5
		endloop
	endfacet
	facet normal 0 0 -1
		outer loop
			vertex 90 -2.3684210526315788 2.5
			vertex -90 2.3684210526315796 2.5
			vertex -90 2.5 2.5
		endloop
	endfacet
	facet normal 0 0 -1
		outer loop
			vertex 90 -2.3684210526315788 2.5
			vertex -90 2.5 2.5
			vertex 90 2.5 2.5
		endloop
	endfacet
	facet normal 0 0 -1
		outer loop
			vertex 90 -2.5 2.5
			vertex -90 -2.5 2.5
			vertex -90 2.364864864864865 2.5
		endloop
	endfacet
	facet normal 0 0 -1
		outer loop
			vertex 90 -2.5 2.5
			vertex -90 2.364864864864865 2.5
			vertex -90 2.3684210526315788 2.5
		endloop
	endfacet
	facet normal 0 0 -1
		outer loop
			vertex 90 -2.5 2.5
			vertex -90 2.3684210526315788 2.5
			vertex 90 -2.3684210526315788 2.5
		endloop
	endfacet
	facet normal -1 0 0
		outer loop
			vertex 90 -0.8333333333333335 -2.5
			vertex 90 0.833333333333333 2.5
			vertex 90 1.6666666666666665 -2.5
		endloop
	endfacet
	facet normal -1 0 0
		outer loop
			vertex 90 1.6666666666666665 -2.5
			vertex 90 0.833333333333333 2.5
			vertex 90 2.5 2.5
		endloop
	endfacet
	facet normal -1 0 0
		outer loop
			vertex 90 1.6666666666666665 -2.5
			vertex 90 2.5 2.5
			vertex 90 2.5 -2.5
		endloop
	endfacet
	facet normal -1 0 0
		outer loop
			vertex 90 -2.5 -2.5
			vertex 90 -2.5 2.5
			vertex 90 0.8333333333333335 2.5
		endloop
	endfacet
	facet normal -1 0 0
		outer loop
			vertex 90 -2.5 -2.5
			vertex 90 0.8333333333333335 2.5
			vertex 90 -0.8333333333333333 -2.5
		endloop
	endfacet
	facet normal 1 0 0
		outer loop
			vertex -90 -0.8333333333333335 2.5
			vertex -90 0.8333333333333333 -2.5
			vertex -90 2.5 -2.5
		endloop
	endfacet
	facet normal 1 0 0
		outer loop
			vertex -90 -0.8333333333333335 2.5
			vertex -90 2.5 -2.5
			vertex -90 2.5 2.5
		endloop
	endfacet
	facet normal 1 0 0
		outer loop
			vertex -90 -2.5 2.5
			vertex -90 -2.5 -2.5
			vertex -90 0 -2.5
		endloop
	endfacet
	facet normal 1 0 0
		outer loop
			vertex -90 -2.5 2.5
			vertex -90 0 -2.5
			vertex -90 0.8333333333333335 -2.5
		endloop
	endfacet
	facet normal 1 0 0
		outer loop
			vertex -90 -2.5 2.5
			vertex -90 0.8333333333333335 -2.5
			vertex -90 -0.833333333333333 2.5
		endloop
	endfacet
	facet normal 0 0 1
		outer loop
			vertex -48.750000000000014 -2.5 -2.5
			vertex 48.74999999999997 2.5 -2.5
			vertex -90 2.5 -2.5
		endloop
	endfacet
	facet normal 0 0 1
		outer loop
			vertex -48.750000000000014 -2.5 -2.5
			vertex -90 2.5 -2.5
			vertex -90 -2.5 -2.5
		endloop
	endfacet
	facet normal 0 0 1
		outer loop
			vertex 90 2.5 -2.5
			vertex 48.74999999999999 2.5 -2.5
			vertex -48.75000000000001 -2.5 -2.5
		endloop
	endfacet
	facet normal 0 0 1
		outer loop
			vertex 90 2.5 -2.5
			vertex -48.75000000000001 -2.5 -2.5
			vertex 90 -2.5 -2.5
		endloop
	endfacet
	facet normal 0 0 -1
		outer loop
			vertex 48.74999999999999 -2.5 -7.5
			vertex -48.75 2.5 -7.5
			vertex 90 2.5 -7.5
		endloop
	endfacet
	facet normal 0 0 -1
		outer loop
			vertex 48.74999999999999 -2.5 -7.5
			vertex 90 2.5 -7.5
			vertex 90 -2.5 -7.5
		endloop
	endfacet
	facet normal 0 0 -1
		outer loop
			vertex -90 2.5 -7.5
			vertex -48.750000000000014 2.5 -7.5
			vertex 48.749999999999986 -2.5 -7.5
		endloop
	endfacet
	facet normal 0 0 -1
		outer loop
			vertex -90 2.5 -7.5
			vertex 48.749999999999986 -2.5 -7.5
			vertex -90.00000000000001 -2.5 -7.5
		endloop
	endfacet
	facet normal 0 0 -1
		outer loop
			vertex -90 2.5 -7.5
			vertex -90 -2.5 -7.5
			vertex -95 2.5 -7.5
		endloop
	endfacet
	facet normal 0 0 -1
		outer loop
			vertex -90 -2.5 -7.5
			vertex -95 -2.5 -7.5
			vertex -95 2.5 -7.5
		endloop
	endfacet
	facet normal 0 0 -1
		outer loop
			vertex 95 2.5 -7.5
			vertex 95 -2.5 -7.5
			vertex 90 2.5 -7.5
		endloop
	endfacet
	facet normal 0 0 -1
		outer loop
			vertex 95 -2.5 -7.5
			vertex 90 -2.5 -7.5
			vertex 90 2.5 -7.5
		endloop
	endfacet
endsolid exported
