solid exported
	facet normal 1 0 0
		outer loop
			vertex 40 2.5 7.5
			vertex 40 -2.5 7.5
			vertex 40 2.5 2.5
		endloop
	endfacet
	facet normal 1 0 0
		outer loop
			vertex 40 -2.5 7.5
			vertex 40 -2.5 2.5
			vertex 40 2.5 2.5
		endloop
	endfacet
	facet normal 1 0 0
		outer loop
			vertex 40 2.5 2.5
			vertex 40 -0.833333333333333 2.5
			vertex 40 0.8333333333333335 -2.5
		endloop
	endfacet
	facet normal 1 0 0
		outer loop
			vertex 40 2.5 2.5
			vertex 40 0.8333333333333335 -2.5
			vertex 40 2.5 -2.5
		endloop
	endfacet
	facet normal 1 0 0
		outer loop
			vertex 40 -0.8333333333333335 2.5
			vertex 40 -2.5 2.5
			vertex 40 -2.5 -2.5
		endloop
	endfacet
	facet normal 1 0 0
		outer loop
			vertex 40 -0.8333333333333335 2.5
			vertex 40 -2.5 -2.5
			vertex 40 -1.6666666666666667 -2.5
		endloop
	endfacet
	facet normal 1 0 0
		outer loop
			vertex 40 -0.8333333333333335 2.5
			vertex 40 -1.6666666666666667 -2.5
			vertex 40 0.8333333333333333 -2.5
		endloop
	endfacet
	facet normal 1 0 0
		outer loop
			vertex 42.5 5 -2.5
			vertex 42.5 -5 -2.5
			vertex 42.5 5 -7.5
		endloop
	endfacet
	facet normal 1 0 0
		outer loop
			vertex 42.5 -5 -2.5
			vertex 42.5 -5 -7.5
			vertex 42.5 5 -7.5
		endloop
	endfacet
	facet normal 0 1 0
		outer loop
			vertex 40 5 -7.352941176470588
			vertex 42.5 5 -7.5
			vertex 40 5 -7.5
		endloop
	endfacet
	facet normal 0 1 0
		outer loop
			vertex 40 5 -2.5
			vertex 42.5 5 -2.5
			vertex 42.5 5 -7.5
		endloop
	endfacet
	facet normal 0 1 0
		outer loop
			vertex 40 5 -2.5
			vertex 42.5 5 -7.5
			vertex 40 5 -7.352941176470588
		endloop
	endfacet
	facet normal 0 -1 0
		outer loop
			vertex 40 -5 -2.647058823529412
			vertex 42.5 -5 -2.5
			vertex 40 -5 -2.5
		endloop
	endfacet
	facet normal 0 -1 0
		outer loop
			vertex 40 -5 -7.5
			vertex 42.5 -5 -7.5
			vertex 42.5 -5 -2.5
		endloop
	endfacet
	facet normal 0 -1 0
		outer loop
			vertex 40 -5 -7.5
			vertex 42.5 -5 -2.5
			vertex 40 -5 -2.6470588235294117
		endloop
	endfacet
	facet normal 0 0 1
		outer loop
			vertex 40 4.705882352941176 -2.5
			vertex 42.5 5 -2.5
			vertex 40 5 -2.5
		endloop
	endfacet
	facet normal 0 0 1
		outer loop
			vertex 40 -5 -2.5
			vertex 42.5 -5 -2.5
			vertex 42.5 5 -2.5
		endloop
	endfacet
	facet normal 0 0 1
		outer loop
			vertex 40 -5 -2.5
			vertex 42.5 5 -2.5
			vertex 40 4.705882352941177 -2.5
		endloop
	endfacet
	facet normal 0 0 -1
		outer loop
			vertex 42.5 5 -7.5
			vertex 42.5 -5 -7.5
			vertex 40 -4.705882352941177 -7.5
		endloop
	endfacet
	facet normal 0 0 -1
		outer loop
			vertex 42.5 5 -7.5
			vertex 40 -4.705882352941177 -7.5
			vertex 40 5 -7.5
		endloop
	endfacet
	facet normal 0 0 -1
		outer loop
			vertex 42.5 -5 -7.5
			vertex 40 -5 -7.5
			vertex 40 -4.705882352941176 -7.5
		endloop
	endfacet
	facet normal -1 0 0
		outer loop
			vertex -40 2.5 2.5
			vertex -40 -2.5 2.5
			vertex -40 2.5 7.5
		endloop
	endfacet
	facet normal -1 0 0
		outer loop
			vertex -40 -2.5 2.5
			vertex -40 -2.5 7.5
			vertex -40 2.5 7.5
		endloop
	endfacet
	facet normal -1 0 0
		outer loop
			vertex -40 2.5 2.5
			vertex -40 2.5 -2.5
			vertex -40 0 -2.5
		endloop
	endfacet
	facet normal -1 0 0
		outer loop
			vertex -40 2.5 2.5
			vertex -40 0 -2.5
			vertex -40 -0.8333333333333333 -2.5
		endloop
	endfacet
	facet normal -1 0 0
		outer loop
			vertex -40 2.5 2.5
			vertex -40 -0.8333333333333333 -2.5
			vertex -40 0.8333333333333335 2.5
		endloop
	endfacet
	facet normal -1 0 0
		outer loop
			vertex -40 0.833333333333333 2.5
			vertex -40 -0.8333333333333335 -2.5
			vertex -40 -2.5 -2.5
		endloop
	endfacet
	facet normal -1 0 0
		outer loop
			vertex -40 0.833333333333333 2.5
			vertex -40 -2.5 -2.5
			vertex -40 -2.5 2.5
		endloop
	endfacet
	facet normal -1 0 0
		outer loop
			vertex -42.5 5 -7.5
			vertex -42.5 -5 -7.5
			vertex -42.5 5 -2.5
		endloop
	endfacet
	facet normal -1 0 0
		outer loop
			vertex -42.5 -5 -7.5
			vertex -42.5 -5 -2.5
			vertex -42.5 5 -2.5
		endloop
	endfacet
	facet normal 0 1 0
		outer loop
			vertex -42.5 5 -7.5
			vertex -42.5 5 -2.5
			vertex -40 5 -2.6470588235294117
		endloop
	endfacet
	facet normal 0 1 0
		outer loop
			vertex -42.5 5 -7.5
			vertex -40 5 -2.6470588235294117
			vertex -40 5 -7.5
		endloop
	endfacet
	facet normal 0 1 0
		outer loop
			vertex -42.5 5 -2.5
			vertex -40 5 -2.5
			vertex -40 5 -2.6470588235294112
		endloop
	endfacet
	facet normal 0 -1 0
		outer loop
			vertex -42.5 -5 -2.5
			vertex -42.5 -5 -7.5
			vertex -40 -5 -7.352941176470588
		endloop
	endfacet
	facet normal 0 -1 0
		outer loop
			vertex -42.5 -5 -2.5
			vertex -40 -5 -7.352941176470588
			vertex -40 -5 -2.5
		endloop
	endfacet
	facet normal 0 -1 0
		outer loop
			vertex -42.5 -5 -7.5
			vertex -40 -5 -7.5
			vertex -40 -5 -7.352941176470589
		endloop
	endfacet
	facet normal 0 0 1
		outer loop
			vertex -42.5 5 -2.5
			vertex -42.5 -5 -2.5
			vertex -40 -4.705882352941177 -2.5
		endloop
	endfacet
	facet normal 0 0 1
		outer loop
			vertex -42.5 5 -2.5
			vertex -40 -4.705882352941177 -2.5
			vertex -40 5 -2.5
		endloop
	endfacet
	facet normal 0 0 1
		outer loop
			vertex -42.5 -5 -2.5
			vertex -40 -5 -2.5
			vertex -40 -4.705882352941178 -2.5
		endloop
	endfacet
	facet normal 0 0 -1
		outer loop
			vertex -40 4.705882352941178 -7.5
			vertex -42.5 5 -7.5
			vertex -40 5 -7.5
		endloop
	endfacet
	facet normal 0 0 -1
		outer loop
			vertex -40 -5 -7.5
			vertex -42.5 -5 -7.5
			vertex -42.5 5 -7.5
		endloop
	endfacet
	facet normal 0 0 -1
		outer loop
			vertex -40 -5 -7.5
			vertex -42.5 5 -7.5
			vertex -40 4.705882352941177 -7.5
		endloop
	endfacet
	facet normal 0 1 0
		outer loop
			vertex -35 2.5 7.1875
			vertex 35 2.5 2.8125
			vertex -35 2.5 2.5208333333333335
		endloop
	endfacet
	facet normal 0 1 0
		outer loop
			vertex -35 2.5 2.5208333333333335
			vertex 35 2.5 2.8125
			vertex 35 2.5 2.5
		endloop
	endfacet
	facet normal 0 1 0
		outer loop
			vertex -35 2.5 2.5208333333333335
			vertex 35 2.5 2.5
			vertex -35 2.5 2.5
		endloop
	endfacet
	facet normal 0 1 0
		outer loop
			vertex -35 2.5 7.5
			vertex 35 2.5 7.5
			vertex 35 2.5 2.8125
		endloop
	endfacet
	facet normal 0 1 0
		outer loop
			vertex -35 2.5 7.5
			vertex 35 2.5 2.8125
			vertex -35 2.5 7.1875
		endloop
	endfacet
	facet normal 0 1 0
		outer loop
			vertex 35 2.5 2.8125
			vertex 40 2.5 2.5
			vertex 35 2.5 2.5
		endloop
	endfacet
	facet normal 0 1 0
		outer loop
			vertex 35 2.5 7.5
			vertex 40 2.5 7.5
			vertex 40 2.5 2.5
		endloop
	endfacet
	facet normal 0 1 0
		outer loop
			vertex 35 2.5 7.5
			vertex 40 2.5 2.5
			vertex 35 2.5 2.8125
		endloop
	endfacet
	facet normal 0 1 0
		outer loop
			vertex 35 2.5 -2.5
			vertex 35 2.5 2.5
			vertex 36.666666666666664 2.5 2.5
		endloop
	endfacet
	facet normal 0 1 0
		outer loop
			vertex 35 2.5 -2.5
			vertex 36.666666666666664 2.5 2.5
			vertex 35.83333333333333 2.5 -2.5
		endloop
	endfacet
	facet normal 0 1 0
		outer loop
			vertex 35.83333333333333 2.5 -2.5
			vertex 36.666666666666664 2.5 2.5
			vertex 38.33333333333333 2.5 -2.5
		endloop
	endfacet
	facet normal 0 1 0
		outer loop
			vertex 36.666666666666664 2.5 2.5
			vertex 40 2.5 2.5
			vertex 40 2.5 -2.5
		endloop
	endfacet
	facet normal 0 1 0
		outer loop
			vertex 36.666666666666664 2.5 2.5
			vertex 40 2.5 -2.5
			vertex 38.33333333333333 2.5 -2.5
		endloop
	endfacet
	facet normal 0 1 0
		outer loop
			vertex -40 2.5 2.5
			vertex -40 2.5 7.5
			vertex -35 2.5 7.1875
		endloop
	endfacet
	facet normal 0 1 0
		outer loop
			vertex -40 2.5 2.5
			vertex -35 2.5 7.1875
			vertex -35 2.5 2.5208333333333335
		endloop
	endfacet
	facet normal 0 1 0
		outer loop
			vertex -40 2.5 2.5
			vertex -35 2.5 2.5208333333333335
			vertex -35 2.5 2.5
		endloop
	endfacet
	facet normal 0 1 0
		outer loop
			vertex -40 2.5 7.5
			vertex -35 2.5 7.5
			vertex -35 2.5 7.1875
		endloop
	endfacet
	facet normal 0 1 0
		outer loop
			vertex -40 2.5 -2.5
			vertex -40 2.5 2.5
			vertex -38.333333333333336 2.5 2.5
		endloop
	endfacet
	facet normal 0 1 0
		outer loop
			vertex -40 2.5 -2.5
			vertex -38.333333333333336 2.5 2.5
			vertex -39.16666666666667 2.5 -2.5
		endloop
	endfacet
	facet normal 0 1 0
		outer loop
			vertex -39.16666666666667 2.5 -2.5
			vertex -38.333333333333336 2.5 2.5
			vertex -36.66666666666667 2.5 -2.5
		endloop
	endfacet
	facet normal 0 1 0
		outer loop
			vertex -38.333333333333336 2.5 2.5
			vertex -35 2.5 2.5
			vertex -35 2.5 -2.5
		endloop
	endfacet
	facet normal 0 1 0
		outer loop
			vertex -38.333333333333336 2.5 2.5
			vertex -35 2.5 -2.5
			vertex -36.66666666666667 2.5 -2.5
		endloop
	endfacet
	facet normal 0 1 0
		outer loop
			vertex -40 5 -2.6470588235294117
			vertex 40 5 -7.352941176470588
			vertex 40 5 -7.5
		endloop
	endfacet
	facet normal 0 1 0
		outer loop
			vertex -40 5 -2.6470588235294117
			vertex 40 5 -7.5
			vertex -40 5 -7.5
		endloop
	endfacet
	facet normal 0 1 0
		outer loop
			vertex -40 5 -2.5
			vertex 40 5 -2.5
			vertex 40 5 -7.352941176470588
		endloop
	endfacet
	facet normal 0 1 0
		outer loop
			vertex -40 5 -2.5
			vertex 40 5 -7.352941176470588
			vertex -40 5 -2.6470588235294112
		endloop
	endfacet
	facet normal 0 0 1
		outer loop
			vertex 21.250000000000007 2.5 -2.5
			vertex 40 4.705882352941176 -2.5
			vertex 40 5 -2.5
		endloop
	endfacet
	facet normal 0 0 1
		outer loop
			vertex 21.250000000000007 2.5 -2.5
			vertex 40 5 -2.5
			vertex -40 5 -2.5
		endloop
	endfacet
	facet normal 0 0 1
		outer loop
			vertex 21.250000000000007 2.5 -2.5
			vertex -40 5 -2.5
			vertex -40 2.5 -2.5
		endloop
	endfacet
	facet normal 0 0 1
		outer loop
			vertex 40 2.499999999999999 -2.5
			vertex 40 4.705882352941177 -2.5
			vertex 21.250000000000004 2.5 -2.5
		endloop
	endfacet
	facet normal 0 0 -1
		outer loop
			vertex -21.249999999999993 2.5 -7.5
			vertex -40 4.705882352941178 -7.5
			vertex -40 5 -7.5
		endloop
	endfacet
	facet normal 0 0 -1
		outer loop
			vertex -21.249999999999993 2.5 -7.5
			vertex -40 5 -7.5
			vertex 40 5 -7.5
		endloop
	endfacet
	facet normal 0 0 -1
		outer loop
			vertex -21.249999999999993 2.5 -7.5
			vertex 40 5 -7.5
			vertex 40 2.5 -7.5
		endloop
	endfacet
	facet normal 0 0 -1
		outer loop
			vertex -40 2.499999999999999 -7.5
			vertex -40 4.705882352941177 -7.5
			vertex -21.249999999999996 2.5 -7.5
		endloop
	endfacet
	facet normal 0 -1 0
		outer loop
			vertex -35 -2.5 2.8125
			vertex 35 -2.5 7.1875
			vertex -35 -2.5 7.479166666666667
		endloop
	endfacet
	facet normal 0 -1 0
		outer loop
			vertex -35 -2.5 7.479166666666667
			vertex 35 -2.5 7.1875
			vertex 35 -2.5 7.5
		endloop
	endfacet
	facet normal 0 -1 0
		outer loop
			vertex -35 -2.5 7.479166666666667
			vertex 35 -2.5 7.5
			vertex -35 -2.5 7.5
		endloop
	endfacet
	facet normal 0 -1 0
		outer loop
			vertex -35 -2.5 2.5
			vertex 35 -2.5 2.5
			vertex 35 -2.5 7.1875
		endloop
	endfacet
	facet normal 0 -1 0
		outer loop
			vertex -35 -2.5 2.5
			vertex 35 -2.5 7.1875
			vertex -35 -2.5 2.8125
		endloop
	endfacet
	facet normal 0 -1 0
		outer loop
			vertex 35 -2.5 7.1875
			vertex 40 -2.5 7.5
			vertex 35 -2.5 7.5
		endloop
	endfacet
	facet normal 0 -1 0
		outer loop
			vertex 35 -2.5 2.5
			vertex 40 -2.5 2.5
			vertex 40 -2.5 7.5
		endloop
	endfacet
	facet normal 0 -1 0
		outer loop
			vertex 35 -2.5 2.5
			vertex 40 -2.5 7.5
			vertex 35 -2.5 7.1875
		endloop
	endfacet
	facet normal 0 -1 0
		outer loop
			vertex 35 -2.5 2.5
			vertex 35 -2.5 -2.5
			vertex 36.66666666666667 -2.5 -2.5
		endloop
	endfacet
	facet normal 0 -1 0
		outer loop
			vertex 35 -2.5 2.5
			vertex 36.66666666666667 -2.5 -2.5
			vertex 38.333333333333336 -2.5 2.5
		endloop
	endfacet
	facet normal 0 -1 0
		outer loop
			vertex 38.333333333333336 -2.5 2.5
			vertex 36.66666666666667 -2.5 -2.5
			vertex 39.16666666666667 -2.5 -2.5
		endloop
	endfacet
	facet normal 0 -1 0
		outer loop
			vertex 38.333333333333336 -2.5 2.5
			vertex 39.16666666666667 -2.5 -2.5
			vertex 40 -2.5 -2.5
		endloop
	endfacet
	facet normal 0 -1 0
		outer loop
			vertex 38.333333333333336 -2.5 2.5
			vertex 40 -2.5 -2.5
			vertex 40 -2.5 2.5
		endloop
	endfacet
	facet normal 0 -1 0
		outer loop
			vertex -40 -2.5 7.5
			vertex -40 -2.5 2.5
			vertex -35 -2.5 2.8125
		endloop
	endfacet
	facet normal 0 -1 0
		outer loop
			vertex -40 -2.5 7.5
			vertex -35 -2.5 2.8125
			vertex -35 -2.5 7.479166666666667
		endloop
	endfacet
	facet normal 0 -1 0
		outer loop
			vertex -40 -2.5 7.5
			vertex -35 -2.5 7.479166666666667
			vertex -35 -2.5 7.5
		endloop
	endfacet
	facet normal 0 -1 0
		outer loop
			vertex -40 -2.5 2.5
			vertex -35 -2.5 2.5
			vertex -35 -2.5 2.8125
		endloop
	endfacet
	facet normal 0 -1 0
		outer loop
			vertex -40 -2.5 2.5
			vertex -40 -2.5 -2.5
			vertex -38.33333333333333 -2.5 -2.5
		endloop
	endfacet
	facet normal 0 -1 0
		outer loop
			vertex -40 -2.5 2.5
			vertex -38.33333333333333 -2.5 -2.5
			vertex -36.666666666666664 -2.5 2.5
		endloop
	endfacet
	facet normal 0 -1 0
		outer loop
			vertex -36.666666666666664 -2.5 2.5
			vertex -38.33333333333333 -2.5 -2.5
			vertex -35.83333333333333 -2.5 -2.5
		endloop
	endfacet
	facet normal 0 -1 0
		outer loop
			vertex -36.666666666666664 -2.5 2.5
			vertex -35.83333333333333 -2.5 -2.5
			vertex -35 -2.5 -2.5
		endloop
	endfacet
	facet normal 0 -1 0
		outer loop
			vertex -36.666666666666664 -2.5 2.5
			vertex -35 -2.5 -2.5
			vertex -35 -2.5 2.5
		endloop
	endfacet
	facet normal 0 -1 0
		outer loop
			vertex -40 -5 -7.352941176470588
			vertex 40 -5 -2.647058823529412
			vertex 40 -5 -2.5
		endloop
	endfacet
	facet normal 0 -1 0
		outer loop
			vertex -40 -5 -7.352941176470588
			vertex 40 -5 -2.5
			vertex -40 -5 -2.5
		endloop
	endfacet
	facet normal 0 -1 0
		outer loop
			vertex -40 -5 -7.5
			vertex 40 -5 -7.5
			vertex 40 -5 -2.6470588235294117
		endloop
	endfacet
	facet normal 0 -1 0
		outer loop
			vertex -40 -5 -7.5
			vertex 40 -5 -2.6470588235294117
			vertex -40 -5 -7.352941176470589
		endloop
	endfacet
	facet normal 0 0 1
		outer loop
			vertex -40 -4.705882352941177 -2.5
			vertex -21.249999999999996 -2.5 -2.5
			vertex -40 -2.5 -2.5
		endloop
	endfacet
	facet normal 0 0 1
		outer loop
			vertex -40 -5 -2.5
			vertex 40 -5 -2.5
			vertex 40 -2.5 -2.5
		endloop
	endfacet
	facet normal 0 0 1
		outer loop
			vertex -40 -5 -2.5
			vertex 40 -2.5 -2.5
			vertex -21.249999999999982 -2.5 -2.5
		endloop
	endfacet
	facet normal 0 0 1
		outer loop
			vertex -40 -5 -2.5
			vertex -21.249999999999982 -2.5 -2.5
			vertex -40 -4.705882352941178 -2.5
		endloop
	endfacet
	facet normal 0 0 -1
		outer loop
			vertex 40 -4.705882352941177 -7.5
			vertex 21.25 -2.5 -7.5
			vertex 40 -2.5 -7.5
		endloop
	endfacet
	facet normal 0 0 -1
		outer loop
			vertex 40 -5 -7.5
			vertex -40 -5 -7.5
			vertex -40 -2.5 -7.5
		endloop
	endfacet
	facet normal 0 0 -1
		outer loop
			vertex 40 -5 -7.5
			vertex -40 -2.5 -7.5
			vertex 21.25000000000001 -2.5 -7.5
		endloop
	endfacet
	facet normal 0 0 -1
		outer loop
			vertex 40 -5 -7.5
			vertex 21.25000000000001 -2.5 -7.5
			vertex 40 -4.705882352941176 -7.5
		endloop
	endfacet
	facet normal 0 0 1
		outer loop
			vertex -35 -2.1875 7.5
			vertex 35 2.1875 7.5
			vertex -35 2.4791666666666665 7.5
		endloop
	endfacet
	facet normal 0 0 1
		outer loop
			vertex -35 2.4791666666666665 7.5
			vertex 35 2.1875 7.5
			vertex 35 2.5 7.5
		endloop
	endfacet
	facet normal 0 0 1
		outer loop
			vertex -35 2.4791666666666665 7.5
			vertex 35 2.5 7.5
			vertex -35 2.5 7.5
		endloop
	endfacet
	facet normal 0 0 1
		outer loop
			vertex -35 -2.5 7.5
			vertex 35 -2.5 7.5
			vertex 35 2.1875 7.5
		endloop
	endfacet
	facet normal 0 0 1
		outer loop
			vertex -35 -2.5 7.5
			vertex 35 2.1875 7.5
			vertex -35 -2.1875 7.5
		endloop
	endfacet
	facet normal 0 0 1
		outer loop
			vertex 35 2.1875 7.5
			vertex 40 2.5 7.5
			vertex 35 2.5 7.5
		endloop
	endfacet
	facet normal 0 0 1
		outer loop
			vertex 35 -2.5 7.5
			vertex 40 -2.5 7.5
			vertex 40 2.5 7.5
		endloop
	endfacet
	facet normal 0 0 1
		outer loop
			vertex 35 -2.5 7.5
			vertex 40 2.5 7.5
			vertex 35 2.1875 7.5
		endloop
	endfacet
	facet normal 0 0 1
		outer loop
			vertex -40 2.5 7.5
			vertex -40 -2.5 7.5
			vertex -35 -2.1875 7.5
		endloop
	endfacet
	facet normal 0 0 1
		outer loop
			vertex -40 2.5 7.5
			vertex -35 -2.1875 7.5
			vertex -35 2.4791666666666665 7.5
		endloop
	endfacet
	facet normal 0 0 1
		outer loop
			vertex -40 2.5 7.5
			vertex -35 2.4791666666666665 7.5
			vertex -35 2.5 7.5
		endloop
	endfacet
	facet normal 0 0 1
		outer loop
			vertex -40 -2.5 7.5
			vertex -35 -2.5 7.5
			vertex -35 -2.1875 7.5
		endloop
	endfacet
	facet normal 0 0 -1
		outer loop
			vertex 35 -2.1875 2.5
			vertex -35 2.1875 2.5
			vertex -35 2.5 2.5
		endloop
	endfacet
	facet normal 0 0 -1
		outer loop
			vertex 35 -2.1875 2.5
			vertex -35 2.5 2.5
			vertex 35 2.5 2.5
		endloop
	endfacet
	facet normal 0 0 -1
		outer loop
			vertex 35 -2.5 2.5
			vertex -35 -2.5 2.5
			vertex -35 2.1666666666666665 2.5
		endloop
	endfacet
	facet normal 0 0 -1
		outer loop
			vertex 35 -2.5 2.5
			vertex -35 2.166666666666667 2.5
			vertex -35 2.1875 2.5
		endloop
	endfacet
	facet normal 0 0 -1
		outer loop
			vertex 35 -2.5 2.5
			vertex -35 2.1875 2.5
			vertex 35 -2.1875 2.5
		endloop
	endfacet
	facet normal -1 0 0
		outer loop
			vertex 35 -0.8333333333333335 -2.5
			vertex 35 0.833333333333333 2.5
			vertex 35 1.6666666666666665 -2.5
		endloop
	endfacet
	facet normal -1 0 0
		outer loop
			vertex 35 1.6666666666666665 -2.5
			vertex 35 0.833333333333333 2.5
			vertex 35 2.5 2.5
		endloop
	endfacet
	facet normal -1 0 0
		outer loop
			vertex 35 1.6666666666666665 -2.5
			vertex 35 2.5 2.5
			vertex 35 2.5 -2.5
		endloop
	endfacet
	facet normal -1 0 0
		outer loop
			vertex 35 -2.5 -2.5
			vertex 35 -2.5 2.5
			vertex 35 0.8333333333333335 2.5
		endloop
	endfacet
	facet normal -1 0 0
		outer loop
			vertex 35 -2.5 -2.5
			vertex 35 0.8333333333333335 2.5
			vertex 35 -0.8333333333333333 -2.5
		endloop
	endfacet
	facet normal 1 0 0
		outer loop
			vertex -35 -0.8333333333333335 2.5
			vertex -35 0.8333333333333333 -2.5
			vertex -35 2.5 -2.5
		endloop
	endfacet
	facet normal 1 0 0
		outer loop
			vertex -35 -0.8333333333333335 2.5
			vertex -35 2.5 -2.5
			vertex -35 2.5 2.5
		endloop
	endfacet
	facet normal 1 0 0
		outer loop
			vertex -35 -2.5 2.5
			vertex -35 -2.5 -2.5
			vertex -35 0 -2.5
		endloop
	endfacet
	facet normal 1 0 0
		outer loop
			vertex -35 -2.5 2.5
			vertex -35 0 -2.5
			vertex -35 0.8333333333333335 -2.5
		endloop
	endfacet
	facet normal 1 0 0
		outer loop
			vertex -35 -2.5 2.5
			vertex -35 0.8333333333333335 -2.5
			vertex -35 -0.833333333333333 2.5
		endloop
	endfacet
	facet normal 0 0 1
		outer loop
			vertex -21.249999999999996 -2.5 -2.5
			vertex 21.250000000000007 2.5 -2.5
			vertex -35 2.5 -2.5
		endloop
	endfacet
	facet normal 0 0 1
		outer loop
			vertex -21.249999999999996 -2.5 -2.5
			vertex -35 2.5 -2.5
			vertex -35 -2.5 -2.5
		endloop
	endfacet
	facet normal 0 0 1
		outer loop
			vertex 35 2.4999999999999996 -2.5
			vertex 21.250000000000004 2.5 -2.5
			vertex -21.249999999999982 -2.5 -2.5
		endloop
	endfacet
	facet normal 0 0 1
		outer loop
			vertex 35 2.4999999999999996 -2.5
			vertex -21.249999999999982 -2.5 -2.5
			vertex 35 -2.5 -2.5
		endloop
	endfacet
	facet normal 0 0 -1
		outer loop
			vertex 21.25 -2.5 -7.5
			vertex -21.249999999999993 2.5 -7.5
			vertex 35 2.5 -7.5
		endloop
	endfacet
	facet normal 0 0 -1
		outer loop
			vertex 21.25 -2.5 -7.5
			vertex 35 2.5 -7.5
			vertex 35 -2.5 -7.5
		endloop
	endfacet
	facet normal 0 0 -1
		outer loop
			vertex -35 2.4999999999999996 -7.5
			vertex -21.249999999999996 2.5 -7.5
			vertex 21.25000000000001 -2.5 -7.5
		endloop
	endfacet
	facet normal 0 0 -1
		outer loop
			vertex -35 2.4999999999999996 -7.5
			vertex 21.25000000000001 -2.5 -7.5
			vertex -35 -2.5 -7.5
		endloop
	endfacet
	facet normal 0 0 -1
		outer loop
			vertex -35 2.5 -7.5
			vertex -35 -2.5 -7.5
			vertex -40 2.5 -7.5
		endloop
	endfacet
	facet normal 0 0 -1
		outer loop
			vertex -35 -2.5 -7.5
			vertex -40 -2.5 -7.5
			vertex -40 2.5 -7.5
		endloop
	endfacet
	facet normal 0 0 -1
		outer loop
			vertex 40 2.5 -7.5
			vertex 40 -2.5 -7.5
			vertex 35 2.5 -7.5
		endloop
	endfacet
	facet normal 0 0 -1
		outer loop
			vertex 40 -2.5 -7.5
			vertex 35 -2.5 -7.5
			vertex 35 2.5 -7.5
		endloop
	endfacet
endsolid exported
