solid exported
	facet normal 1 0 0
		outer loop
			vertex 45 2.5 7.5
			vertex 45 -2.5 7.5
			vertex 45 2.5 2.5
		endloop
	endfacet
	facet normal 1 0 0
		outer loop
			vertex 45 -2.5 7.5
			vertex 45 -2.5 2.5
			vertex 45 2.5 2.5
		endloop
	endfacet
	facet normal 1 0 0
		outer loop
			vertex 45 2.5 2.5
			vertex 45 -0.833333333333333 2.5
			vertex 45 0.8333333333333335 -2.5
		endloop
	endfacet
	facet normal 1 0 0
		outer loop
			vertex 45 2.5 2.5
			vertex 45 0.8333333333333335 -2.5
			vertex 45 2.5 -2.5
		endloop
	endfacet
	facet normal 1 0 0
		outer loop
			vertex 45 -0.8333333333333335 2.5
			vertex 45 -2.5 2.5
			vertex 45 -2.5 -2.5
		endloop
	endfacet
	facet normal 1 0 0
		outer loop
			vertex 45 -0.8333333333333335 2.5
			vertex 45 -2.5 -2.5
			vertex 45 -1.6666666666666667 -2.5
		endloop
	endfacet
	facet normal 1 0 0
		outer loop
			vertex 45 -0.8333333333333335 2.5
			vertex 45 -1.6666666666666667 -2.5
			vertex 45 0.8333333333333333 -2.5
		endloop
	endfacet
	facet normal 1 0 0
		outer loop
			vertex 47.5 5 -2.5
			vertex 47.5 -5 -2.5
			vertex 47.5 5 -7.5
		endloop
	endfacet
	facet normal 1 0 0
		outer loop
			vertex 47.5 -5 -2.5
			vertex 47.5 -5 -7.5
			vertex 47.5 5 -7.5
		endloop
	endfacet
	facet normal 0 1 0
		outer loop
			vertex 45 5 -7.368421052631579
			vertex 47.5 5 -7.5
			vertex 45 5 -7.5
		endloop
	endfacet
	facet normal 0 1 0
		outer loop
			vertex 45 5 -2.5
			vertex 47.5 5 -2.5
			vertex 47.5 5 -7.5
		endloop
	endfacet
	facet normal 0 1 0
		outer loop
			vertex 45 5 -2.5
			vertex 47.5 5 -7.5
			vertex 45 5 -7.368421052631579
		endloop
	endfacet
	facet normal 0 -1 0
		outer loop
			vertex 45 -5 -2.6315789473684212
			vertex 47.5 -5 -2.5
			vertex 45 -5 -2.5
		endloop
	endfacet
	facet normal 0 -1 0
		outer loop
			vertex 45 -5 -7.5
			vertex 47.5 -5 -7.5
			vertex 47.5 -5 -2.5
		endloop
	endfacet
	facet normal 0 -1 0
		outer loop
			vertex 45 -5 -7.5
			vertex 47.5 -5 -2.5
			vertex 45 -5 -2.6315789473684212
		endloop
	endfacet
	facet normal 0 0 1
		outer loop
			vertex 45 4.7368421052631575 -2.5
			vertex 47.5 5 -2.5
			vertex 45 5 -2.5
		endloop
	endfacet
	facet normal 0 0 1
		outer loop
			vertex 45 -5 -2.5
			vertex 47.5 -5 -2.5
			vertex 47.5 5 -2.5
		endloop
	endfacet
	facet normal 0 0 1
		outer loop
			vertex 45 -5 -2.5
			vertex 47.5 5 -2.5
			vertex 45 4.7368421052631575 -2.5
		endloop
	endfacet
	facet normal 0 0 -1
		outer loop
			vertex 47.5 5 -7.5
			vertex 47.5 -5 -7.5
			vertex 45 -4.7368421052631575 -7.5
		endloop
	endfacet
	facet normal 0 0 -1
		outer loop
			vertex 47.5 5 -7.5
			vertex 45 -4.7368421052631575 -7.5
			vertex 45 5 -7.5
		endloop
	endfacet
	facet normal 0 0 -1
		outer loop
			vertex 47.5 -5 -7.5
			vertex 45 -5 -7.5
			vertex 45 -4.7368421052631575 -7.5
		endloop
	endfacet
	facet normal -1 0 0
		outer loop
			vertex -45 2.5 2.5
			vertex -45 -2.5 2.5
			vertex -45 2.5 7.5
		endloop
	endfacet
	facet normal -1 0 0
		outer loop
			vertex -45 -2.5 2.5
			vertex -45 -2.5 7.5
			vertex -45 2.5 7.5
		endloop
	endfacet
	facet normal -1 0 0
		outer loop
			vertex -45 2.5 2.5
			vertex -45 2.5 -2.5
			vertex -45 0 -2.5
		endloop
	endfacet
	facet normal -1 0 0
		outer loop
			vertex -45 2.5 2.5
			vertex -45 0 -2.5
			vertex -45 -0.8333333333333333 -2.5
		endloop
	endfacet
	facet normal -1 0 0
		outer loop
			vertex -45 2.5 2.5
			vertex -45 -0.8333333333333333 -2.5
			vertex -45 0.8333333333333335 2.5
		endloop
	endfacet
	facet normal -1 0 0
		outer loop
			vertex -45 0.833333333333333 2.5
			vertex -45 -0.8333333333333335 -2.5
			vertex -45 -2.5 -2.5
		endloop
	endfacet
	facet normal -1 0 0
		outer loop
			vertex -45 0.833333333333333 2.5
			vertex -45 -2.5 -2.5
			vertex -45 -2.5 2.5
		endloop
	endfacet
	facet normal -1 0 0
		outer loop
			vertex -47.5 5 -7.5
			vertex -47.5 -5 -7.5
			vertex -47.5 5 -2.5
		endloop
	endfacet
	facet normal -1 0 0
		outer loop
			vertex -47.5 -5 -7.5
			vertex -47.5 -5 -2.5
			vertex -47.5 5 -2.5
		endloop
	endfacet
	facet normal 0 1 0
		outer loop
			vertex -47.5 5 -7.5
			vertex -47.5 5 -2.5
			vertex -45 5 -2.6315789473684212
		endloop
	endfacet
	facet normal 0 1 0
		outer loop
			vertex -47.5 5 -7.5
			vertex -45 5 -2.6315789473684212
			vertex -45 5 -7.5
		endloop
	endfacet
	facet normal 0 1 0
		outer loop
			vertex -47.5 5 -2.5
			vertex -45 5 -2.5
			vertex -45 5 -2.6315789473684204
		endloop
	endfacet
	facet normal 0 -1 0
		outer loop
			vertex -47.5 -5 -2.5
			vertex -47.5 -5 -7.5
			vertex -45 -5 -7.368421052631579
		endloop
	endfacet
	facet normal 0 -1 0
		outer loop
			vertex -47.5 -5 -2.5
			vertex -45 -5 -7.368421052631579
			vertex -45 -5 -2.5
		endloop
	endfacet
	facet normal 0 -1 0
		outer loop
			vertex -47.5 -5 -7.5
			vertex -45 -5 -7.5
			vertex -45 -5 -7.36842105263158
		endloop
	endfacet
	facet normal 0 0 1
		outer loop
			vertex -47.5 5 -2.5
			vertex -47.5 -5 -2.5
			vertex -45 -4.7368421052631575 -2.5
		endloop
	endfacet
	facet normal 0 0 1
		outer loop
			vertex -47.5 5 -2.5
			vertex -45 -4.7368421052631575 -2.5
			vertex -45 5 -2.5
		endloop
	endfacet
	facet normal 0 0 1
		outer loop
			vertex -47.5 -5 -2.5
			vertex -45 -5 -2.5
			vertex -45 -4.736842105263159 -2.5
		endloop
	endfacet
	facet normal 0 0 -1
		outer loop
			vertex -45 4.736842105263159 -7.5
			vertex -47.5 5 -7.5
			vertex -45 5 -7.5
		endloop
	endfacet
	facet normal 0 0 -1
		outer loop
			vertex -45 -5 -7.5
			vertex -47.5 -5 -7.5
			vertex -47.5 5 -7.5
		endloop
	endfacet
	facet normal 0 0 -1
		outer loop
			vertex -45 -5 -7.5
			vertex -47.5 5 -7.5
			vertex -45 4.7368421052631575 -7.5
		endloop
	endfacet
	facet normal 0 1 0
		outer loop
			vertex -40 2.5 7.222222222222222
			vertex 40 2.5 2.7777777777777777
			vertex -40 2.5 2.5163398692810457
		endloop
	endfacet
	facet normal 0 1 0
		outer loop
			vertex -40 2.5 2.5163398692810457
			vertex 40 2.5 2.7777777777777777
			vertex 40 2.5 2.5
		endloop
	endfacet
	facet normal 0 1 0
		outer loop
			vertex -40 2.5 2.5163398692810457
			vertex 40 2.5 2.5
			vertex -40 2.5 2.5
		endloop
	endfacet
	facet normal 0 1 0
		outer loop
			vertex -40 2.5 7.5
			vertex 40 2.5 7.5
			vertex 40 2.5 2.7777777777777777
		endloop
	endfacet
	facet normal 0 1 0
		outer loop
			vertex -40 2.5 7.5
			vertex 40 2.5 2.7777777777777777
			vertex -40 2.5 7.222222222222222
		endloop
	endfacet
	facet normal 0 1 0
		outer loop
			vertex 40 2.5 2.7777777777777777
			vertex 45 2.5 2.5
			vertex 40 2.5 2.5
		endloop
	endfacet
	facet normal 0 1 0
		outer loop
			vertex 40 2.5 7.5
			vertex 45 2.5 7.5
			vertex 45 2.5 2.5
		endloop
	endfacet
	facet normal 0 1 0
		outer loop
			vertex 40 2.5 7.5
			vertex 45 2.5 2.5
			vertex 40 2.5 2.7777777777777777
		endloop
	endfacet
	facet normal 0 1 0
		outer loop
			vertex 40 2.5 -2.5
			vertex 40 2.5 2.5
			vertex 41.666666666666664 2.5 2.5
		endloop
	endfacet
	facet normal 0 1 0
		outer loop
			vertex 40 2.5 -2.5
			vertex 41.666666666666664 2.5 2.5
			vertex 40.83333333333333 2.5 -2.5
		endloop
	endfacet
	facet normal 0 1 0
		outer loop
			vertex 40.83333333333333 2.5 -2.5
			vertex 41.666666666666664 2.5 2.5
			vertex 43.33333333333333 2.5 -2.5
		endloop
	endfacet
	facet normal 0 1 0
		outer loop
			vertex 41.666666666666664 2.5 2.5
			vertex 45 2.5 2.5
			vertex 45 2.5 -2.5
		endloop
	endfacet
	facet normal 0 1 0
		outer loop
			vertex 41.666666666666664 2.5 2.5
			vertex 45 2.5 -2.5
			vertex 43.33333333333333 2.5 -2.5
		endloop
	endfacet
	facet normal 0 1 0
		outer loop
			vertex -45 2.5 2.5
			vertex -45 2.5 7.5
			vertex -40 2.5 7.222222222222222
		endloop
	endfacet
	facet normal 0 1 0
		outer loop
			vertex -45 2.5 2.5
			vertex -40 2.5 7.222222222222222
			vertex -40 2.5 2.5163398692810457
		endloop
	endfacet
	facet normal 0 1 0
		outer loop
			vertex -45 2.5 2.5
			vertex -40 2.5 2.5163398692810457
			vertex -40 2.5 2.5
		endloop
	endfacet
	facet normal 0 1 0
		outer loop
			vertex -45 2.5 7.5
			vertex -40 2.5 7.5
			vertex -40 2.5 7.222222222222222
		endloop
	endfacet
	facet normal 0 1 0
		outer loop
			vertex -45 2.5 -2.5
			vertex -45 2.5 2.5
			vertex -43.333333333333336 2.5 2.5
		endloop
	endfacet
	facet normal 0 1 0
		outer loop
			vertex -45 2.5 -2.5
			vertex -43.333333333333336 2.5 2.5
			vertex -44.16666666666667 2.5 -2.5
		endloop
	endfacet
	facet normal 0 1 0
		outer loop
			vertex -44.16666666666667 2.5 -2.5
			vertex -43.333333333333336 2.5 2.5
			vertex -41.66666666666667 2.5 -2.5
		endloop
	endfacet
	facet normal 0 1 0
		outer loop
			vertex -43.333333333333336 2.5 2.5
			vertex -40 2.5 2.5
			vertex -40 2.5 -2.5
		endloop
	endfacet
	facet normal 0 1 0
		outer loop
			vertex -43.333333333333336 2.5 2.5
			vertex -40 2.5 -2.5
			vertex -41.66666666666667 2.5 -2.5
		endloop
	endfacet
	facet normal 0 1 0
		outer loop
			vertex -45 5 -2.6315789473684212
			vertex 45 5 -7.368421052631579
			vertex 45 5 -7.5
		endloop
	endfacet
	facet normal 0 1 0
		outer loop
			vertex -45 5 -2.6315789473684212
			vertex 45 5 -7.5
			vertex -45 5 -7.5
		endloop
	endfacet
	facet normal 0 1 0
		outer loop
			vertex -45 5 -2.5
			vertex 45 5 -2.5
			vertex 45 5 -7.368421052631579
		endloop
	endfacet
	facet normal 0 1 0
		outer loop
			vertex -45 5 -2.5
			vertex 45 5 -7.368421052631579
			vertex -45 5 -2.6315789473684204
		endloop
	endfacet
	facet normal 0 0 1
		outer loop
			vertex 23.75 2.5 -2.5
			vertex 45 4.7368421052631575 -2.5
			vertex 45 5 -2.5
		endloop
	endfacet
	facet normal 0 0 1
		outer loop
			vertex 23.75 2.5 -2.5
			vertex 45 5 -2.5
			vertex -45 5 -2.5
		endloop
	endfacet
	facet normal 0 0 1
		outer loop
			vertex 23.75 2.5 -2.5
			vertex -45 5 -2.5
			vertex -45 2.5000000000000004 -2.5
		endloop
	endfacet
	facet normal 0 0 1
		outer loop
			vertex 45 2.5 -2.5
			vertex 45 4.7368421052631575 -2.5
			vertex 23.750000000000007 2.5 -2.5
		endloop
	endfacet
	facet normal 0 0 -1
		outer loop
			vertex -23.749999999999986 2.5 -7.5
			vertex -45 4.736842105263159 -7.5
			vertex -45 5 -7.5
		endloop
	endfacet
	facet normal 0 0 -1
		outer loop
			vertex -23.749999999999986 2.5 -7.5
			vertex -45 5 -7.5
			vertex 45 5 -7.5
		endloop
	endfacet
	facet normal 0 0 -1
		outer loop
			vertex -23.749999999999986 2.5 -7.5
			vertex 45 5 -7.5
			vertex 45 2.5000000000000004 -7.5
		endloop
	endfacet
	facet normal 0 0 -1
		outer loop
			vertex -45 2.5 -7.5
			vertex -45 4.7368421052631575 -7.5
			vertex -23.750000000000004 2.5 -7.5
		endloop
	endfacet
	facet normal 0 -1 0
		outer loop
			vertex -40 -2.5 2.7777777777777777
			vertex 40 -2.5 7.222222222222222
			vertex -40 -2.5 7.483660130718954
		endloop
	endfacet
	facet normal 0 -1 0
		outer loop
			vertex -40 -2.5 7.483660130718954
			vertex 40 -2.5 7.222222222222222
			vertex 40 -2.5 7.5
		endloop
	endfacet
	facet normal 0 -1 0
		outer loop
			vertex -40 -2.5 7.483660130718954
			vertex 40 -2.5 7.5
			vertex -40 -2.5 7.5
		endloop
	endfacet
	facet normal 0 -1 0
		outer loop
			vertex -40 -2.5 2.5
			vertex 40 -2.5 2.5
			vertex 40 -2.5 7.222222222222222
		endloop
	endfacet
	facet normal 0 -1 0
		outer loop
			vertex -40 -2.5 2.5
			vertex 40 -2.5 7.222222222222222
			vertex -40 -2.5 2.7777777777777777
		endloop
	endfacet
	facet normal 0 -1 0
		outer loop
			vertex 40 -2.5 7.222222222222222
			vertex 45 -2.5 7.5
			vertex 40 -2.5 7.5
		endloop
	endfacet
	facet normal 0 -1 0
		outer loop
			vertex 40 -2.5 2.5
			vertex 45 -2.5 2.5
			vertex 45 -2.5 7.5
		endloop
	endfacet
	facet normal 0 -1 0
		outer loop
			vertex 40 -2.5 2.5
			vertex 45 -2.5 7.5
			vertex 40 -2.5 7.222222222222222
		endloop
	endfacet
	facet normal 0 -1 0
		outer loop
			vertex 40 -2.5 2.5
			vertex 40 -2.5 -2.5
			vertex 41.66666666666667 -2.5 -2.5
		endloop
	endfacet
	facet normal 0 -1 0
		outer loop
			vertex 40 -2.5 2.5
			vertex 41.66666666666667 -2.5 -2.5
			vertex 43.333333333333336 -2.5 2.5
		endloop
	endfacet
	facet normal 0 -1 0
		outer loop
			vertex 43.333333333333336 -2.5 2.5
			vertex 41.66666666666667 -2.5 -2.5
			vertex 44.16666666666667 -2.5 -2.5
		endloop
	endfacet
	facet normal 0 -1 0
		outer loop
			vertex 43.333333333333336 -2.5 2.5
			vertex 44.16666666666667 -2.5 -2.5
			vertex 45 -2.5 -2.5
		endloop
	endfacet
	facet normal 0 -1 0
		outer loop
			vertex 43.333333333333336 -2.5 2.5
			vertex 45 -2.5 -2.5
			vertex 45 -2.5 2.5
		endloop
	endfacet
	facet normal 0 -1 0
		outer loop
			vertex -45 -2.5 7.5
			vertex -45 -2.5 2.5
			vertex -40 -2.5 2.7777777777777777
		endloop
	endfacet
	facet normal 0 -1 0
		outer loop
			vertex -45 -2.5 7.5
			vertex -40 -2.5 2.7777777777777777
			vertex -40 -2.5 7.483660130718954
		endloop
	endfacet
	facet normal 0 -1 0
		outer loop
			vertex -45 -2.5 7.5
			vertex -40 -2.5 7.483660130718954
			vertex -40 -2.5 7.5
		endloop
	endfacet
	facet normal 0 -1 0
		outer loop
			vertex -45 -2.5 2.5
			vertex -40 -2.5 2.5
			vertex -40 -2.5 2.7777777777777777
		endloop
	endfacet
	facet normal 0 -1 0
		outer loop
			vertex -45 -2.5 2.5
			vertex -45 -2.5 -2.5
			vertex -43.33333333333333 -2.5 -2.5
		endloop
	endfacet
	facet normal 0 -1 0
		outer loop
			vertex -45 -2.5 2.5
			vertex -43.33333333333333 -2.5 -2.5
			vertex -41.666666666666664 -2.5 2.5
		endloop
	endfacet
	facet normal 0 -1 0
		outer loop
			vertex -41.666666666666664 -2.5 2.5
			vertex -43.33333333333333 -2.5 -2.5
			vertex -40.83333333333333 -2.5 -2.5
		endloop
	endfacet
	facet normal 0 -1 0
		outer loop
			vertex -41.666666666666664 -2.5 2.5
			vertex -40.83333333333333 -2.5 -2.5
			vertex -40 -2.5 -2.5
		endloop
	endfacet
	facet normal 0 -1 0
		outer loop
			vertex -41.666666666666664 -2.5 2.5
			vertex -40 -2.5 -2.5
			vertex -40 -2.5 2.5
		endloop
	endfacet
	facet normal 0 -1 0
		outer loop
			vertex -45 -5 -7.368421052631579
			vertex 45 -5 -2.6315789473684212
			vertex 45 -5 -2.5
		endloop
	endfacet
	facet normal 0 -1 0
		outer loop
			vertex -45 -5 -7.368421052631579
			vertex 45 -5 -2.5
			vertex -45 -5 -2.5
		endloop
	endfacet
	facet normal 0 -1 0
		outer loop
			vertex -45 -5 -7.5
			vertex 45 -5 -7.5
			vertex 45 -5 -2.6315789473684212
		endloop
	endfacet
	facet normal 0 -1 0
		outer loop
			vertex -45 -5 -7.5
			vertex 45 -5 -2.6315789473684212
			vertex -45 -5 -7.36842105263158
		endloop
	endfacet
	facet normal 0 0 1
		outer loop
			vertex -45 -4.7368421052631575 -2.5
			vertex -23.75 -2.5 -2.5
			vertex -45 -2.4999999999999996 -2.5
		endloop
	endfacet
	facet normal 0 0 1
		outer loop
			vertex -45 -5 -2.5
			vertex 45 -5 -2.5
			vertex 45 -2.5 -2.5
		endloop
	endfacet
	facet normal 0 0 1
		outer loop
			vertex -45 -5 -2.5
			vertex 45 -2.5 -2.5
			vertex -23.749999999999986 -2.5 -2.5
		endloop
	endfacet
	facet normal 0 0 1
		outer loop
			vertex -45 -5 -2.5
			vertex -23.749999999999986 -2.5 -2.5
			vertex -45 -4.736842105263159 -2.5
		endloop
	endfacet
	facet normal 0 0 -1
		outer loop
			vertex 45 -4.7368421052631575 -7.5
			vertex 23.750000000000004 -2.5 -7.5
			vertex 45 -2.4999999999999996 -7.5
		endloop
	endfacet
	facet normal 0 0 -1
		outer loop
			vertex 45 -5 -7.5
			vertex -45 -5 -7.5
			vertex -45 -2.5 -7.5
		endloop
	endfacet
	facet normal 0 0 -1
		outer loop
			vertex 45 -5 -7.5
			vertex -45 -2.5 -7.5
			vertex 23.749999999999996 -2.5 -7.5
		endloop
	endfacet
	facet normal 0 0 -1
		outer loop
			vertex 45 -5 -7.5
			vertex 23.749999999999996 -2.5 -7.5
			vertex 45 -4.7368421052631575 -7.5
		endloop
	endfacet
	facet normal 0 0 1
		outer loop
			vertex -40 -2.2222222222222223 7.5
			vertex 40 2.2222222222222223 7.5
			vertex -40 2.4836601307189543 7.5
		endloop
	endfacet
	facet normal 0 0 1
		outer loop
			vertex -40 2.4836601307189543 7.5
			vertex 40 2.2222222222222223 7.5
			vertex 40 2.5 7.5
		endloop
	endfacet
	facet normal 0 0 1
		outer loop
			vertex -40 2.4836601307189543 7.5
			vertex 40 2.5 7.5
			vertex -40 2.5 7.5
		endloop
	endfacet
	facet normal 0 0 1
		outer loop
			vertex -40 -2.5 7.5
			vertex 40 -2.5 7.5
			vertex 40 2.2222222222222223 7.5
		endloop
	endfacet
	facet normal 0 0 1
		outer loop
			vertex -40 -2.5 7.5
			vertex 40 2.2222222222222223 7.5
			vertex -40 -2.2222222222222223 7.5
		endloop
	endfacet
	facet normal 0 0 1
		outer loop
			vertex 40 2.2222222222222223 7.5
			vertex 45 2.5 7.5
			vertex 40 2.5 7.5
		endloop
	endfacet
	facet normal 0 0 1
		outer loop
			vertex 40 -2.5 7.5
			vertex 45 -2.5 7.5
			vertex 45 2.5 7.5
		endloop
	endfacet
	facet normal 0 0 1
		outer loop
			vertex 40 -2.5 7.5
			vertex 45 2.5 7.5
			vertex 40 2.2222222222222223 7.5
		endloop
	endfacet
	facet normal 0 0 1
		outer loop
			vertex -45 2.5 7.5
			vertex -45 -2.5 7.5
			vertex -40 -2.2222222222222223 7.5
		endloop
	endfacet
	facet normal 0 0 1
		outer loop
			vertex -45 2.5 7.5
			vertex -40 -2.2222222222222223 7.5
			vertex -40 2.4836601307189543 7.5
		endloop
	endfacet
	facet normal 0 0 1
		outer loop
			vertex -45 2.5 7.5
			vertex -40 2.4836601307189543 7.5
			vertex -40 2.5 7.5
		endloop
	endfacet
	facet normal 0 0 1
		outer loop
			vertex -45 -2.5 7.5
			vertex -40 -2.5 7.5
			vertex -40 -2.2222222222222223 7.5
		endloop
	endfacet
	facet normal 0 0 -1
		outer loop
			vertex 40 -2.2222222222222223 2.5
			vertex -40 2.2222222222222223 2.5
			vertex -40 2.5 2.5
		endloop
	endfacet
	facet normal 0 0 -1
		outer loop
			vertex 40 -2.2222222222222223 2.5
			vertex -40 2.5 2.5
			vertex 40 2.5 2.5
		endloop
	endfacet
	facet normal 0 0 -1
		outer loop
			vertex 40 -2.5 2.5
			vertex -40 -2.5 2.5
			vertex -40 2.2058823529411766 2.5
		endloop
	endfacet
	facet normal 0 0 -1
		outer loop
			vertex 40 -2.5 2.5
			vertex -40 2.2058823529411766 2.5
			vertex -40 2.2222222222222223 2.5
		endloop
	endfacet
	facet normal 0 0 -1
		outer loop
			vertex 40 -2.5 2.5
			vertex -40 2.2222222222222223 2.5
			vertex 40 -2.2222222222222223 2.5
		endloop
	endfacet
	facet normal -1 0 0
		outer loop
			vertex 40 -0.8333333333333335 -2.5
			vertex 40 0.833333333333333 2.5
			vertex 40 1.6666666666666665 -2.5
		endloop
	endfacet
	facet normal -1 0 0
		outer loop
			vertex 40 1.6666666666666665 -2.5
			vertex 40 0.833333333333333 2.5
			vertex 40 2.5 2.5
		endloop
	endfacet
	facet normal -1 0 0
		outer loop
			vertex 40 1.6666666666666665 -2.5
			vertex 40 2.5 2.5
			vertex 40 2.5 -2.5
		endloop
	endfacet
	facet normal -1 0 0
		outer loop
			vertex 40 -2.5 -2.5
			vertex 40 -2.5 2.5
			vertex 40 0.8333333333333335 2.5
		endloop
	endfacet
	facet normal -1 0 0
		outer loop
			vertex 40 -2.5 -2.5
			vertex 40 0.8333333333333335 2.5
			vertex 40 -0.8333333333333333 -2.5
		endloop
	endfacet
	facet normal 1 0 0
		outer loop
			vertex -40 -0.8333333333333335 2.5
			vertex -40 0.8333333333333333 -2.5
			vertex -40 2.5 -2.5
		endloop
	endfacet
	facet normal 1 0 0
		outer loop
			vertex -40 -0.8333333333333335 2.5
			vertex -40 2.5 -2.5
			vertex -40 2.5 2.5
		endloop
	endfacet
	facet normal 1 0 0
		outer loop
			vertex -40 -2.5 2.5
			vertex -40 -2.5 -2.5
			vertex -40 0 -2.5
		endloop
	endfacet
	facet normal 1 0 0
		outer loop
			vertex -40 -2.5 2.5
			vertex -40 0 -2.5
			vertex -40 0.8333333333333335 -2.5
		endloop
	endfacet
	facet normal 1 0 0
		outer loop
			vertex -40 -2.5 2.5
			vertex -40 0.8333333333333335 -2.5
			vertex -40 -0.833333333333333 2.5
		endloop
	endfacet
	facet normal 0 0 1
		outer loop
			vertex -23.75 -2.5 -2.5
			vertex 23.75 2.5 -2.5
			vertex -40 2.5000000000000004 -2.5
		endloop
	endfacet
	facet normal 0 0 1
		outer loop
			vertex -23.75 -2.5 -2.5
			vertex -40 2.5000000000000004 -2.5
			vertex -40 -2.4999999999999996 -2.5
		endloop
	endfacet
	facet normal 0 0 1
		outer loop
			vertex 40 2.5 -2.5
			vertex 23.750000000000007 2.5 -2.5
			vertex -23.749999999999986 -2.5 -2.5
		endloop
	endfacet
	facet normal 0 0 1
		outer loop
			vertex 40 2.5 -2.5
			vertex -23.749999999999986 -2.5 -2.5
			vertex 40 -2.5 -2.5
		endloop
	endfacet
	facet normal 0 0 -1
		outer loop
			vertex 23.750000000000004 -2.5 -7.5
			vertex -23.749999999999986 2.5 -7.5
			vertex 40 2.5000000000000004 -7.5
		endloop
	endfacet
	facet normal 0 0 -1
		outer loop
			vertex 23.750000000000004 -2.5 -7.5
			vertex 40 2.5000000000000004 -7.5
			vertex 40 -2.4999999999999996 -7.5
		endloop
	endfacet
	facet normal 0 0 -1
		outer loop
			vertex -40 2.5 -7.5
			vertex -23.750000000000004 2.5 -7.5
			vertex 23.749999999999996 -2.5 -7.5
		endloop
	endfacet
	facet normal 0 0 -1
		outer loop
			vertex -40 2.5 -7.5
			vertex 23.749999999999996 -2.5 -7.5
			vertex -40 -2.5 -7.5
		endloop
	endfacet
	facet normal 0 0 -1
		outer loop
			vertex -40 2.5 -7.5
			vertex -40 -2.5 -7.5
			vertex -45 2.5 -7.5
		endloop
	endfacet
	facet normal 0 0 -1
		outer loop
			vertex -40 -2.5 -7.5
			vertex -45 -2.5 -7.5
			vertex -45 2.5 -7.5
		endloop
	endfacet
	facet normal 0 0 -1
		outer loop
			vertex 45 2.5 -7.5
			vertex 45 -2.5 -7.5
			vertex 40 2.5 -7.5
		endloop
	endfacet
	facet normal 0 0 -1
		outer loop
			vertex 45 -2.5 -7.5
			vertex 40 -2.5 -7.5
			vertex 40 2.5 -7.5
		endloop
	endfacet
endsolid exported
