solid exported
	facet normal 1 0 0
		outer loop
			vertex 155 2.5 7.5
			vertex 155 -2.5 7.5
			vertex 155 2.5 2.5
		endloop
	endfacet
	facet normal 1 0 0
		outer loop
			vertex 155 -2.5 7.5
			vertex 155 -2.5 2.5
			vertex 155 2.5 2.5
		endloop
	endfacet
	facet normal 1 0 0
		outer loop
			vertex 155 2.5 2.5
			vertex 155 -0.833333333333333 2.5
			vertex 155 0.8333333333333335 -2.5
		endloop
	endfacet
	facet normal 1 0 0
		outer loop
			vertex 155 2.5 2.5
			vertex 155 0.8333333333333335 -2.5
			vertex 155 2.5 -2.5
		endloop
	endfacet
	facet normal 1 0 0
		outer loop
			vertex 155 -0.8333333333333335 2.5
			vertex 155 -2.5 2.5
			vertex 155 -2.5 -2.5
		endloop
	endfacet
	facet normal 1 0 0
		outer loop
			vertex 155 -0.8333333333333335 2.5
			vertex 155 -2.5 -2.5
			vertex 155 -1.6666666666666667 -2.5
		endloop
	endfacet
	facet normal 1 0 0
		outer loop
			vertex 155 -0.8333333333333335 2.5
			vertex 155 -1.6666666666666667 -2.5
			vertex 155 0.8333333333333333 -2.5
		endloop
	endfacet
	facet normal 1 0 0
		outer loop
			vertex 157.5 5 -2.5
			vertex 157.5 -5 -2.5
			vertex 157.5 5 -7.5
		endloop
	endfacet
	facet normal 1 0 0
		outer loop
			vertex 157.5 -5 -2.5
			vertex 157.5 -5 -7.5
			vertex 157.5 5 -7.5
		endloop
	endfacet
	facet normal 0 1 0
		outer loop
			vertex 155 5 -7.4603174603174605
			vertex 157.5 5 -7.5
			vertex 155 5 -7.5
		endloop
	endfacet
	facet normal 0 1 0
		outer loop
			vertex 155 5 -2.5
			vertex 157.5 5 -2.5
			vertex 157.5 5 -7.5
		endloop
	endfacet
	facet normal 0 1 0
		outer loop
			vertex 155 5 -2.5
			vertex 157.5 5 -7.5
			vertex 155 5 -7.4603174603174605
		endloop
	endfacet
	facet normal 0 -1 0
		outer loop
			vertex 155 -5 -2.5396825396825395
			vertex 157.5 -5 -2.5
			vertex 155 -5 -2.5
		endloop
	endfacet
	facet normal 0 -1 0
		outer loop
			vertex 155 -5 -7.5
			vertex 157.5 -5 -7.5
			vertex 157.5 -5 -2.5
		endloop
	endfacet
	facet normal 0 -1 0
		outer loop
			vertex 155 -5 -7.5
			vertex 157.5 -5 -2.5
			vertex 155 -5 -2.5396825396825395
		endloop
	endfacet
	facet normal 0 0 1
		outer loop
			vertex 155 4.920634920634921 -2.5
			vertex 157.5 5 -2.5
			vertex 155 5 -2.5
		endloop
	endfacet
	facet normal 0 0 1
		outer loop
			vertex 155 -5 -2.5
			vertex 157.5 -5 -2.5
			vertex 157.5 5 -2.5
		endloop
	endfacet
	facet normal 0 0 1
		outer loop
			vertex 155 -5 -2.5
			vertex 157.5 5 -2.5
			vertex 155 4.920634920634921 -2.5
		endloop
	endfacet
	facet normal 0 0 -1
		outer loop
			vertex 157.5 5 -7.5
			vertex 157.5 -5 -7.5
			vertex 155 -4.920634920634921 -7.5
		endloop
	endfacet
	facet normal 0 0 -1
		outer loop
			vertex 157.5 5 -7.5
			vertex 155 -4.920634920634921 -7.5
			vertex 155 5 -7.5
		endloop
	endfacet
	facet normal 0 0 -1
		outer loop
			vertex 157.5 -5 -7.5
			vertex 155 -5 -7.5
			vertex 155 -4.920634920634921 -7.5
		endloop
	endfacet
	facet normal -1 0 0
		outer loop
			vertex -155 2.5 2.5
			vertex -155 -2.5 2.5
			vertex -155 2.5 7.5
		endloop
	endfacet
	facet normal -1 0 0
		outer loop
			vertex -155 -2.5 2.5
			vertex -155 -2.5 7.5
			vertex -155 2.5 7.5
		endloop
	endfacet
	facet normal -1 0 0
		outer loop
			vertex -155 2.5 2.5
			vertex -155 2.5 -2.5
			vertex -155 0 -2.5
		endloop
	endfacet
	facet normal -1 0 0
		outer loop
			vertex -155 2.5 2.5
			vertex -155 0 -2.5
			vertex -155 -0.8333333333333333 -2.5
		endloop
	endfacet
	facet normal -1 0 0
		outer loop
			vertex -155 2.5 2.5
			vertex -155 -0.8333333333333333 -2.5
			vertex -155 0.8333333333333335 2.5
		endloop
	endfacet
	facet normal -1 0 0
		outer loop
			vertex -155 0.833333333333333 2.5
			vertex -155 -0.8333333333333335 -2.5
			vertex -155 -2.5 -2.5
		endloop
	endfacet
	facet normal -1 0 0
		outer loop
			vertex -155 0.833333333333333 2.5
			vertex -155 -2.5 -2.5
			vertex -155 -2.5 2.5
		endloop
	endfacet
	facet normal -1 0 0
		outer loop
			vertex -157.5 5 -7.5
			vertex -157.5 -5 -7.5
			vertex -157.5 5 -2.5
		endloop
	endfacet
	facet normal -1 0 0
		outer loop
			vertex -157.5 -5 -7.5
			vertex -157.5 -5 -2.5
			vertex -157.5 5 -2.5
		endloop
	endfacet
	facet normal 0 1 0
		outer loop
			vertex -157.5 5 -7.5
			vertex -157.5 5 -2.5
			vertex -155 5 -2.5396825396825395
		endloop
	endfacet
	facet normal 0 1 0
		outer loop
			vertex -157.5 5 -7.5
			vertex -155 5 -2.5396825396825395
			vertex -155 5 -7.5
		endloop
	endfacet
	facet normal 0 1 0
		outer loop
			vertex -157.5 5 -2.5
			vertex -155 5 -2.5
			vertex -155 5 -2.5396825396825395
		endloop
	endfacet
	facet normal 0 -1 0
		outer loop
			vertex -157.5 -5 -2.5
			vertex -157.5 -5 -7.5
			vertex -155 -5 -7.4603174603174605
		endloop
	endfacet
	facet normal 0 -1 0
		outer loop
			vertex -157.5 -5 -2.5
			vertex -155 -5 -7.4603174603174605
			vertex -155 -5 -2.5
		endloop
	endfacet
	facet normal 0 -1 0
		outer loop
			vertex -157.5 -5 -7.5
			vertex -155 -5 -7.5
			vertex -155 -5 -7.4603174603174605
		endloop
	endfacet
	facet normal 0 0 1
		outer loop
			vertex -157.5 5 -2.5
			vertex -157.5 -5 -2.5
			vertex -155 -4.920634920634921 -2.5
		endloop
	endfacet
	facet normal 0 0 1
		outer loop
			vertex -157.5 5 -2.5
			vertex -155 -4.920634920634921 -2.5
			vertex -155 5 -2.5
		endloop
	endfacet
	facet normal 0 0 1
		outer loop
			vertex -157.5 -5 -2.5
			vertex -155 -5 -2.5
			vertex -155 -4.920634920634921 -2.5
		endloop
	endfacet
	facet normal 0 0 -1
		outer loop
			vertex -155 4.920634920634921 -7.5
			vertex -157.5 5 -7.5
			vertex -155 5 -7.5
		endloop
	endfacet
	facet normal 0 0 -1
		outer loop
			vertex -155 -5 -7.5
			vertex -157.5 -5 -7.5
			vertex -157.5 5 -7.5
		endloop
	endfacet
	facet normal 0 0 -1
		outer loop
			vertex -155 -5 -7.5
			vertex -157.5 5 -7.5
			vertex -155 4.920634920634921 -7.5
		endloop
	endfacet
	facet normal 0 1 0
		outer loop
			vertex -150 2.5 7.419354838709677
			vertex 150 2.5 2.580645161290322
			vertex -150 2.5 2.5013220518244315
		endloop
	endfacet
	facet normal 0 1 0
		outer loop
			vertex -150 2.5 2.5013220518244315
			vertex 150 2.5 2.580645161290322
			vertex 150 2.5 2.5
		endloop
	endfacet
	facet normal 0 1 0
		outer loop
			vertex -150 2.5 2.5013220518244315
			vertex 150 2.5 2.5
			vertex -150 2.5 2.5
		endloop
	endfacet
	facet normal 0 1 0
		outer loop
			vertex -150 2.5 7.5
			vertex 150 2.5 7.5
			vertex 150 2.5 2.5806451612903225
		endloop
	endfacet
	facet normal 0 1 0
		outer loop
			vertex -150 2.5 7.5
			vertex 150 2.5 2.5806451612903225
			vertex -150 2.5 7.419354838709678
		endloop
	endfacet
	facet normal 0 1 0
		outer loop
			vertex 150 2.5 2.580645161290322
			vertex 155 2.5 2.5
			vertex 150 2.5 2.5
		endloop
	endfacet
	facet normal 0 1 0
		outer loop
			vertex 150 2.5 7.5
			vertex 155 2.5 7.5
			vertex 155 2.5 2.5
		endloop
	endfacet
	facet normal 0 1 0
		outer loop
			vertex 150 2.5 7.5
			vertex 155 2.5 2.5
			vertex 150 2.5 2.5806451612903225
		endloop
	endfacet
	facet normal 0 1 0
		outer loop
			vertex 150 2.5 -2.5
			vertex 150 2.5 2.5
			vertex 151.66666666666666 2.5 2.5
		endloop
	endfacet
	facet normal 0 1 0
		outer loop
			vertex 150 2.5 -2.5
			vertex 151.66666666666666 2.5 2.5
			vertex 150.83333333333331 2.5 -2.5
		endloop
	endfacet
	facet normal 0 1 0
		outer loop
			vertex 150.83333333333331 2.5 -2.5
			vertex 151.66666666666666 2.5 2.5
			vertex 153.33333333333331 2.5 -2.5
		endloop
	endfacet
	facet normal 0 1 0
		outer loop
			vertex 151.66666666666666 2.5 2.5
			vertex 155 2.5 2.5
			vertex 155 2.5 -2.5
		endloop
	endfacet
	facet normal 0 1 0
		outer loop
			vertex 151.66666666666666 2.5 2.5
			vertex 155 2.5 -2.5
			vertex 153.33333333333331 2.5 -2.5
		endloop
	endfacet
	facet normal 0 1 0
		outer loop
			vertex -155 2.5 2.5
			vertex -155 2.5 7.5
			vertex -150 2.5 7.419354838709677
		endloop
	endfacet
	facet normal 0 1 0
		outer loop
			vertex -155 2.5 2.5
			vertex -150 2.5 7.419354838709677
			vertex -150 2.5 2.5013220518244315
		endloop
	endfacet
	facet normal 0 1 0
		outer loop
			vertex -155 2.5 2.5
			vertex -150 2.5 2.5013220518244315
			vertex -150 2.5 2.5
		endloop
	endfacet
	facet normal 0 1 0
		outer loop
			vertex -155 2.5 7.5
			vertex -150 2.5 7.5
			vertex -150 2.5 7.419354838709678
		endloop
	endfacet
	facet normal 0 1 0
		outer loop
			vertex -155 2.5 -2.5
			vertex -155 2.5 2.5
			vertex -153.33333333333334 2.5 2.5
		endloop
	endfacet
	facet normal 0 1 0
		outer loop
			vertex -155 2.5 -2.5
			vertex -153.33333333333334 2.5 2.5
			vertex -154.16666666666669 2.5 -2.5
		endloop
	endfacet
	facet normal 0 1 0
		outer loop
			vertex -154.16666666666669 2.5 -2.5
			vertex -153.33333333333334 2.5 2.5
			vertex -151.66666666666669 2.5 -2.5
		endloop
	endfacet
	facet normal 0 1 0
		outer loop
			vertex -153.33333333333334 2.5 2.5
			vertex -150 2.5 2.5
			vertex -150 2.5 -2.5
		endloop
	endfacet
	facet normal 0 1 0
		outer loop
			vertex -153.33333333333334 2.5 2.5
			vertex -150 2.5 -2.5
			vertex -151.66666666666669 2.5 -2.5
		endloop
	endfacet
	facet normal 0 1 0
		outer loop
			vertex -155 5 -2.5396825396825395
			vertex 155 5 -7.4603174603174605
			vertex 155 5 -7.5
		endloop
	endfacet
	facet normal 0 1 0
		outer loop
			vertex -155 5 -2.5396825396825395
			vertex 155 5 -7.5
			vertex -155 5 -7.5
		endloop
	endfacet
	facet normal 0 1 0
		outer loop
			vertex -155 5 -2.5
			vertex 155 5 -2.5
			vertex 155 5 -7.4603174603174605
		endloop
	endfacet
	facet normal 0 1 0
		outer loop
			vertex -155 5 -2.5
			vertex 155 5 -7.4603174603174605
			vertex -155 5 -2.5396825396825395
		endloop
	endfacet
	facet normal 0 0 1
		outer loop
			vertex 78.75 2.5 -2.5
			vertex 155 4.920634920634921 -2.5
			vertex 155 5 -2.5
		endloop
	endfacet
	facet normal 0 0 1
		outer loop
			vertex 78.75 2.5 -2.5
			vertex 155 5 -2.5
			vertex -155 5 -2.5
		endloop
	endfacet
	facet normal 0 0 1
		outer loop
			vertex 78.75 2.5 -2.5
			vertex -155 5 -2.5
			vertex -155 2.5 -2.5
		endloop
	endfacet
	facet normal 0 0 1
		outer loop
			vertex 155 2.5 -2.5
			vertex 155 4.920634920634921 -2.5
			vertex 78.75 2.5 -2.5
		endloop
	endfacet
	facet normal 0 0 -1
		outer loop
			vertex -78.75 2.5 -7.5
			vertex -155 4.920634920634921 -7.5
			vertex -155 5 -7.5
		endloop
	endfacet
	facet normal 0 0 -1
		outer loop
			vertex -78.75 2.5 -7.5
			vertex -155 5 -7.5
			vertex 155 5 -7.5
		endloop
	endfacet
	facet normal 0 0 -1
		outer loop
			vertex -78.75 2.5 -7.5
			vertex 155 5 -7.5
			vertex 155 2.5 -7.5
		endloop
	endfacet
	facet normal 0 0 -1
		outer loop
			vertex -155 2.5 -7.5
			vertex -155 4.920634920634921 -7.5
			vertex -78.75 2.5 -7.5
		endloop
	endfacet
	facet normal 0 -1 0
		outer loop
			vertex -150 -2.5 2.5806451612903225
			vertex 150 -2.5 7.419354838709678
			vertex -150 -2.5 7.498677948175568
		endloop
	endfacet
	facet normal 0 -1 0
		outer loop
			vertex -150 -2.5 7.498677948175568
			vertex 150 -2.5 7.419354838709678
			vertex 150 -2.5 7.5
		endloop
	endfacet
	facet normal 0 -1 0
		outer loop
			vertex -150 -2.5 7.498677948175568
			vertex 150 -2.5 7.5
			vertex -150 -2.5 7.5
		endloop
	endfacet
	facet normal 0 -1 0
		outer loop
			vertex -150 -2.5 2.5
			vertex 150 -2.5 2.5
			vertex 150 -2.5 7.419354838709677
		endloop
	endfacet
	facet normal 0 -1 0
		outer loop
			vertex -150 -2.5 2.5
			vertex 150 -2.5 7.419354838709677
			vertex -150 -2.5 2.580645161290323
		endloop
	endfacet
	facet normal 0 -1 0
		outer loop
			vertex 150 -2.5 7.419354838709678
			vertex 155 -2.5 7.5
			vertex 150 -2.5 7.5
		endloop
	endfacet
	facet normal 0 -1 0
		outer loop
			vertex 150 -2.5 2.5
			vertex 155 -2.5 2.5
			vertex 155 -2.5 7.5
		endloop
	endfacet
	facet normal 0 -1 0
		outer loop
			vertex 150 -2.5 2.5
			vertex 155 -2.5 7.5
			vertex 150 -2.5 7.419354838709677
		endloop
	endfacet
	facet normal 0 -1 0
		outer loop
			vertex 150 -2.5 2.5
			vertex 150 -2.5 -2.5
			vertex 151.66666666666669 -2.5 -2.5
		endloop
	endfacet
	facet normal 0 -1 0
		outer loop
			vertex 150 -2.5 2.5
			vertex 151.66666666666669 -2.5 -2.5
			vertex 153.33333333333334 -2.5 2.5
		endloop
	endfacet
	facet normal 0 -1 0
		outer loop
			vertex 153.33333333333334 -2.5 2.5
			vertex 151.66666666666669 -2.5 -2.5
			vertex 154.16666666666669 -2.5 -2.5
		endloop
	endfacet
	facet normal 0 -1 0
		outer loop
			vertex 153.33333333333334 -2.5 2.5
			vertex 154.16666666666669 -2.5 -2.5
			vertex 155 -2.5 -2.5
		endloop
	endfacet
	facet normal 0 -1 0
		outer loop
			vertex 153.33333333333334 -2.5 2.5
			vertex 155 -2.5 -2.5
			vertex 155 -2.5 2.5
		endloop
	endfacet
	facet normal 0 -1 0
		outer loop
			vertex -155 -2.5 7.5
			vertex -155 -2.5 2.5
			vertex -150 -2.5 2.5806451612903225
		endloop
	endfacet
	facet normal 0 -1 0
		outer loop
			vertex -155 -2.5 7.5
			vertex -150 -2.5 2.5806451612903225
			vertex -150 -2.5 7.498677948175568
		endloop
	endfacet
	facet normal 0 -1 0
		outer loop
			vertex -155 -2.5 7.5
			vertex -150 -2.5 7.498677948175568
			vertex -150 -2.5 7.5
		endloop
	endfacet
	facet normal 0 -1 0
		outer loop
			vertex -155 -2.5 2.5
			vertex -150 -2.5 2.5
			vertex -150 -2.5 2.580645161290323
		endloop
	endfacet
	facet normal 0 -1 0
		outer loop
			vertex -155 -2.5 2.5
			vertex -155 -2.5 -2.5
			vertex -153.33333333333331 -2.5 -2.5
		endloop
	endfacet
	facet normal 0 -1 0
		outer loop
			vertex -155 -2.5 2.5
			vertex -153.33333333333331 -2.5 -2.5
			vertex -151.66666666666666 -2.5 2.5
		endloop
	endfacet
	facet normal 0 -1 0
		outer loop
			vertex -151.66666666666666 -2.5 2.5
			vertex -153.33333333333331 -2.5 -2.5
			vertex -150.83333333333331 -2.5 -2.5
		endloop
	endfacet
	facet normal 0 -1 0
		outer loop
			vertex -151.66666666666666 -2.5 2.5
			vertex -150.83333333333331 -2.5 -2.5
			vertex -150 -2.5 -2.5
		endloop
	endfacet
	facet normal 0 -1 0
		outer loop
			vertex -151.66666666666666 -2.5 2.5
			vertex -150 -2.5 -2.5
			vertex -150 -2.5 2.5
		endloop
	endfacet
	facet normal 0 -1 0
		outer loop
			vertex -155 -5 -7.4603174603174605
			vertex 155 -5 -2.5396825396825395
			vertex 155 -5 -2.5
		endloop
	endfacet
	facet normal 0 -1 0
		outer loop
			vertex -155 -5 -7.4603174603174605
			vertex 155 -5 -2.5
			vertex -155 -5 -2.5
		endloop
	endfacet
	facet normal 0 -1 0
		outer loop
			vertex -155 -5 -7.5
			vertex 155 -5 -7.5
			vertex 155 -5 -2.5396825396825395
		endloop
	endfacet
	facet normal 0 -1 0
		outer loop
			vertex -155 -5 -7.5
			vertex 155 -5 -2.5396825396825395
			vertex -155 -5 -7.4603174603174605
		endloop
	endfacet
	facet normal 0 0 1
		outer loop
			vertex -155 -4.920634920634921 -2.5
			vertex -78.75 -2.5 -2.5
			vertex -155 -2.5 -2.5
		endloop
	endfacet
	facet normal 0 0 1
		outer loop
			vertex -155 -5 -2.5
			vertex 155 -5 -2.5
			vertex 155 -2.5 -2.5
		endloop
	endfacet
	facet normal 0 0 1
		outer loop
			vertex -155 -5 -2.5
			vertex 155 -2.5 -2.5
			vertex -78.75 -2.5 -2.5
		endloop
	endfacet
	facet normal 0 0 1
		outer loop
			vertex -155 -5 -2.5
			vertex -78.75 -2.5 -2.5
			vertex -155 -4.920634920634921 -2.5
		endloop
	endfacet
	facet normal 0 0 -1
		outer loop
			vertex 155 -4.920634920634921 -7.5
			vertex 78.75 -2.5 -7.5
			vertex 155 -2.5 -7.5
		endloop
	endfacet
	facet normal 0 0 -1
		outer loop
			vertex 155 -5 -7.5
			vertex -155 -5 -7.5
			vertex -155 -2.5 -7.5
		endloop
	endfacet
	facet normal 0 0 -1
		outer loop
			vertex 155 -5 -7.5
			vertex -155 -2.5 -7.5
			vertex 78.75 -2.5 -7.5
		endloop
	endfacet
	facet normal 0 0 -1
		outer loop
			vertex 155 -5 -7.5
			vertex 78.75 -2.5 -7.5
			vertex 155 -4.920634920634921 -7.5
		endloop
	endfacet
	facet normal 0 0 1
		outer loop
			vertex -150 -2.4193548387096775 7.5
			vertex 150 2.419354838709678 7.5
			vertex -150 2.4986779481755685 7.5
		endloop
	endfacet
	facet normal 0 0 1
		outer loop
			vertex -150 2.4986779481755685 7.5
			vertex 150 2.419354838709678 7.5
			vertex 150 2.5 7.5
		endloop
	endfacet
	facet normal 0 0 1
		outer loop
			vertex -150 2.4986779481755685 7.5
			vertex 150 2.5 7.5
			vertex -150 2.5 7.5
		endloop
	endfacet
	facet normal 0 0 1
		outer loop
			vertex -150 -2.5 7.5
			vertex 150 -2.5 7.5
			vertex 150 2.4193548387096775 7.5
		endloop
	endfacet
	facet normal 0 0 1
		outer loop
			vertex -150 -2.5 7.5
			vertex 150 2.4193548387096775 7.5
			vertex -150 -2.4193548387096775 7.5
		endloop
	endfacet
	facet normal 0 0 1
		outer loop
			vertex 150 2.419354838709678 7.5
			vertex 155 2.5 7.5
			vertex 150 2.5 7.5
		endloop
	endfacet
	facet normal 0 0 1
		outer loop
			vertex 150 -2.5 7.5
			vertex 155 -2.5 7.5
			vertex 155 2.5 7.5
		endloop
	endfacet
	facet normal 0 0 1
		outer loop
			vertex 150 -2.5 7.5
			vertex 155 2.5 7.5
			vertex 150 2.4193548387096775 7.5
		endloop
	endfacet
	facet normal 0 0 1
		outer loop
			vertex -155 2.5 7.5
			vertex -155 -2.5 7.5
			vertex -150 -2.4193548387096775 7.5
		endloop
	endfacet
	facet normal 0 0 1
		outer loop
			vertex -155 2.5 7.5
			vertex -150 -2.4193548387096775 7.5
			vertex -150 2.4986779481755685 7.5
		endloop
	endfacet
	facet normal 0 0 1
		outer loop
			vertex -155 2.5 7.5
			vertex -150 2.4986779481755685 7.5
			vertex -150 2.5 7.5
		endloop
	endfacet
	facet normal 0 0 1
		outer loop
			vertex -155 -2.5 7.5
			vertex -150 -2.5 7.5
			vertex -150 -2.4193548387096775 7.5
		endloop
	endfacet
	facet normal 0 0 -1
		outer loop
			vertex 150 -2.4193548387096775 2.5
			vertex -150 2.4193548387096775 2.5
			vertex -150 2.5 2.5
		endloop
	endfacet
	facet normal 0 0 -1
		outer loop
			vertex 150 -2.4193548387096775 2.5
			vertex -150 2.5 2.5
			vertex 150 2.5 2.5
		endloop
	endfacet
	facet normal 0 0 -1
		outer loop
			vertex 150 -2.5 2.5
			vertex -150 -2.5 2.5
			vertex -150 2.418032786885246 2.5
		endloop
	endfacet
	facet normal 0 0 -1
		outer loop
			vertex 150 -2.5 2.5
			vertex -150 2.418032786885246 2.5
			vertex -150 2.4193548387096775 2.5
		endloop
	endfacet
	facet normal 0 0 -1
		outer loop
			vertex 150 -2.5 2.5
			vertex -150 2.4193548387096775 2.5
			vertex 150 -2.419354838709678 2.5
		endloop
	endfacet
	facet normal -1 0 0
		outer loop
			vertex 150 -0.8333333333333335 -2.5
			vertex 150 0.833333333333333 2.5
			vertex 150 1.6666666666666665 -2.5
		endloop
	endfacet
	facet normal -1 0 0
		outer loop
			vertex 150 1.6666666666666665 -2.5
			vertex 150 0.833333333333333 2.5
			vertex 150 2.5 2.5
		endloop
	endfacet
	facet normal -1 0 0
		outer loop
			vertex 150 1.6666666666666665 -2.5
			vertex 150 2.5 2.5
			vertex 150 2.5 -2.5
		endloop
	endfacet
	facet normal -1 0 0
		outer loop
			vertex 150 -2.5 -2.5
			vertex 150 -2.5 2.5
			vertex 150 0.8333333333333335 2.5
		endloop
	endfacet
	facet normal -1 0 0
		outer loop
			vertex 150 -2.5 -2.5
			vertex 150 0.8333333333333335 2.5
			vertex 150 -0.8333333333333333 -2.5
		endloop
	endfacet
	facet normal 1 0 0
		outer loop
			vertex -150 -0.8333333333333335 2.5
			vertex -150 0.8333333333333333 -2.5
			vertex -150 2.5 -2.5
		endloop
	endfacet
	facet normal 1 0 0
		outer loop
			vertex -150 -0.8333333333333335 2.5
			vertex -150 2.5 -2.5
			vertex -150 2.5 2.5
		endloop
	endfacet
	facet normal 1 0 0
		outer loop
			vertex -150 -2.5 2.5
			vertex -150 -2.5 -2.5
			vertex -150 0 -2.5
		endloop
	endfacet
	facet normal 1 0 0
		outer loop
			vertex -150 -2.5 2.5
			vertex -150 0 -2.5
			vertex -150 0.8333333333333335 -2.5
		endloop
	endfacet
	facet normal 1 0 0
		outer loop
			vertex -150 -2.5 2.5
			vertex -150 0.8333333333333335 -2.5
			vertex -150 -0.833333333333333 2.5
		endloop
	endfacet
	facet normal 0 0 1
		outer loop
			vertex -78.75 -2.5 -2.5
			vertex 78.75 2.5 -2.5
			vertex -150 2.5 -2.5
		endloop
	endfacet
	facet normal 0 0 1
		outer loop
			vertex -78.75 -2.5 -2.5
			vertex -150 2.5 -2.5
			vertex -150 -2.5 -2.5
		endloop
	endfacet
	facet normal 0 0 1
		outer loop
			vertex 150 2.5 -2.5
			vertex 78.75 2.5 -2.5
			vertex -78.75 -2.5 -2.5
		endloop
	endfacet
	facet normal 0 0 1
		outer loop
			vertex 150 2.5 -2.5
			vertex -78.75 -2.5 -2.5
			vertex 150 -2.5 -2.5
		endloop
	endfacet
	facet normal 0 0 -1
		outer loop
			vertex 78.75 -2.5 -7.5
			vertex -78.75 2.5 -7.5
			vertex 150 2.5 -7.5
		endloop
	endfacet
	facet normal 0 0 -1
		outer loop
			vertex 78.75 -2.5 -7.5
			vertex 150 2.5 -7.5
			vertex 150 -2.5 -7.5
		endloop
	endfacet
	facet normal 0 0 -1
		outer loop
			vertex -150 2.5 -7.5
			vertex -78.75 2.5 -7.5
			vertex 78.75 -2.5 -7.5
		endloop
	endfacet
	facet normal 0 0 -1
		outer loop
			vertex -150 2.5 -7.5
			vertex 78.75 -2.5 -7.5
			vertex -150 -2.5 -7.5
		endloop
	endfacet
	facet normal 0 0 -1
		outer loop
			vertex -150 2.5 -7.5
			vertex -150 -2.5 -7.5
			vertex -155 2.5 -7.5
		endloop
	endfacet
	facet normal 0 0 -1
		outer loop
			vertex -150 -2.5 -7.5
			vertex -155 -2.5 -7.5
			vertex -155 2.5 -7.5
		endloop
	endfacet
	facet normal 0 0 -1
		outer loop
			vertex 155 2.5 -7.5
			vertex 155 -2.5 -7.5
			vertex 150 2.5 -7.5
		endloop
	endfacet
	facet normal 0 0 -1
		outer loop
			vertex 155 -2.5 -7.5
			vertex 150 -2.5 -7.5
			vertex 150 2.5 -7.5
		endloop
	endfacet
endsolid exported
