solid exported
	facet normal 1 0 0
		outer loop
			vertex 85 2.5 7.5
			vertex 85 -2.5 7.5
			vertex 85 2.5 2.5
		endloop
	endfacet
	facet normal 1 0 0
		outer loop
			vertex 85 -2.5 7.5
			vertex 85 -2.5 2.5
			vertex 85 2.5 2.5
		endloop
	endfacet
	facet normal 1 0 0
		outer loop
			vertex 85 2.5 2.5
			vertex 85 -0.833333333333333 2.5
			vertex 85 0.8333333333333335 -2.5
		endloop
	endfacet
	facet normal 1 0 0
		outer loop
			vertex 85 2.5 2.5
			vertex 85 0.8333333333333335 -2.5
			vertex 85 2.5 -2.5
		endloop
	endfacet
	facet normal 1 0 0
		outer loop
			vertex 85 -0.8333333333333335 2.5
			vertex 85 -2.5 2.5
			vertex 85 -2.5 -2.5
		endloop
	endfacet
	facet normal 1 0 0
		outer loop
			vertex 85 -0.8333333333333335 2.5
			vertex 85 -2.5 -2.5
			vertex 85 -1.6666666666666667 -2.5
		endloop
	endfacet
	facet normal 1 0 0
		outer loop
			vertex 85 -0.8333333333333335 2.5
			vertex 85 -1.6666666666666667 -2.5
			vertex 85 0.8333333333333333 -2.5
		endloop
	endfacet
	facet normal 1 0 0
		outer loop
			vertex 87.5 5 -2.5
			vertex 87.5 -5 -2.5
			vertex 87.5 5 -7.5
		endloop
	endfacet
	facet normal 1 0 0
		outer loop
			vertex 87.5 -5 -2.5
			vertex 87.5 -5 -7.5
			vertex 87.5 5 -7.5
		endloop
	endfacet
	facet normal 0 1 0
		outer loop
			vertex 85 5 -7.428571428571429
			vertex 87.5 5 -7.5
			vertex 85 5 -7.5
		endloop
	endfacet
	facet normal 0 1 0
		outer loop
			vertex 85 5 -2.5
			vertex 87.5 5 -2.5
			vertex 87.5 5 -7.5
		endloop
	endfacet
	facet normal 0 1 0
		outer loop
			vertex 85 5 -2.5
			vertex 87.5 5 -7.5
			vertex 85 5 -7.428571428571429
		endloop
	endfacet
	facet normal 0 -1 0
		outer loop
			vertex 85 -5 -2.571428571428571
			vertex 87.5 -5 -2.5
			vertex 85 -5 -2.5
		endloop
	endfacet
	facet normal 0 -1 0
		outer loop
			vertex 85 -5 -7.5
			vertex 87.5 -5 -7.5
			vertex 87.5 -5 -2.5
		endloop
	endfacet
	facet normal 0 -1 0
		outer loop
			vertex 85 -5 -7.5
			vertex 87.5 -5 -2.5
			vertex 85 -5 -2.5714285714285716
		endloop
	endfacet
	facet normal 0 0 1
		outer loop
			vertex 85 4.857142857142858 -2.5
			vertex 87.5 5 -2.5
			vertex 85 5 -2.5
		endloop
	endfacet
	facet normal 0 0 1
		outer loop
			vertex 85 -5 -2.5
			vertex 87.5 -5 -2.5
			vertex 87.5 5 -2.5
		endloop
	endfacet
	facet normal 0 0 1
		outer loop
			vertex 85 -5 -2.5
			vertex 87.5 5 -2.5
			vertex 85 4.857142857142857 -2.5
		endloop
	endfacet
	facet normal 0 0 -1
		outer loop
			vertex 87.5 5 -7.5
			vertex 87.5 -5 -7.5
			vertex 85 -4.857142857142857 -7.5
		endloop
	endfacet
	facet normal 0 0 -1
		outer loop
			vertex 87.5 5 -7.5
			vertex 85 -4.857142857142857 -7.5
			vertex 85 5 -7.5
		endloop
	endfacet
	facet normal 0 0 -1
		outer loop
			vertex 87.5 -5 -7.5
			vertex 85 -5 -7.5
			vertex 85 -4.857142857142858 -7.5
		endloop
	endfacet
	facet normal -1 0 0
		outer loop
			vertex -85 2.5 2.5
			vertex -85 -2.5 2.5
			vertex -85 2.5 7.5
		endloop
	endfacet
	facet normal -1 0 0
		outer loop
			vertex -85 -2.5 2.5
			vertex -85 -2.5 7.5
			vertex -85 2.5 7.5
		endloop
	endfacet
	facet normal -1 0 0
		outer loop
			vertex -85 2.5 2.5
			vertex -85 2.5 -2.5
			vertex -85 0 -2.5
		endloop
	endfacet
	facet normal -1 0 0
		outer loop
			vertex -85 2.5 2.5
			vertex -85 0 -2.5
			vertex -85 -0.8333333333333333 -2.5
		endloop
	endfacet
	facet normal -1 0 0
		outer loop
			vertex -85 2.5 2.5
			vertex -85 -0.8333333333333333 -2.5
			vertex -85 0.8333333333333335 2.5
		endloop
	endfacet
	facet normal -1 0 0
		outer loop
			vertex -85 0.833333333333333 2.5
			vertex -85 -0.8333333333333335 -2.5
			vertex -85 -2.5 -2.5
		endloop
	endfacet
	facet normal -1 0 0
		outer loop
			vertex -85 0.833333333333333 2.5
			vertex -85 -2.5 -2.5
			vertex -85 -2.5 2.5
		endloop
	endfacet
	facet normal -1 0 0
		outer loop
			vertex -87.5 5 -7.5
			vertex -87.5 -5 -7.5
			vertex -87.5 5 -2.5
		endloop
	endfacet
	facet normal -1 0 0
		outer loop
			vertex -87.5 -5 -7.5
			vertex -87.5 -5 -2.5
			vertex -87.5 5 -2.5
		endloop
	endfacet
	facet normal 0 1 0
		outer loop
			vertex -87.5 5 -7.5
			vertex -87.5 5 -2.5
			vertex -85 5 -2.5714285714285716
		endloop
	endfacet
	facet normal 0 1 0
		outer loop
			vertex -87.5 5 -7.5
			vertex -85 5 -2.5714285714285716
			vertex -85 5 -7.5
		endloop
	endfacet
	facet normal 0 1 0
		outer loop
			vertex -87.5 5 -2.5
			vertex -85 5 -2.5
			vertex -85 5 -2.571428571428571
		endloop
	endfacet
	facet normal 0 -1 0
		outer loop
			vertex -87.5 -5 -2.5
			vertex -87.5 -5 -7.5
			vertex -85 -5 -7.428571428571429
		endloop
	endfacet
	facet normal 0 -1 0
		outer loop
			vertex -87.5 -5 -2.5
			vertex -85 -5 -7.428571428571429
			vertex -85 -5 -2.5
		endloop
	endfacet
	facet normal 0 -1 0
		outer loop
			vertex -87.5 -5 -7.5
			vertex -85 -5 -7.5
			vertex -85 -5 -7.428571428571429
		endloop
	endfacet
	facet normal 0 0 1
		outer loop
			vertex -87.5 5 -2.5
			vertex -87.5 -5 -2.5
			vertex -85 -4.857142857142857 -2.5
		endloop
	endfacet
	facet normal 0 0 1
		outer loop
			vertex -87.5 5 -2.5
			vertex -85 -4.857142857142857 -2.5
			vertex -85 5 -2.5
		endloop
	endfacet
	facet normal 0 0 1
		outer loop
			vertex -87.5 -5 -2.5
			vertex -85 -5 -2.5
			vertex -85 -4.8571428571428585 -2.5
		endloop
	endfacet
	facet normal 0 0 -1
		outer loop
			vertex -85 4.8571428571428585 -7.5
			vertex -87.5 5 -7.5
			vertex -85 5 -7.5
		endloop
	endfacet
	facet normal 0 0 -1
		outer loop
			vertex -85 -5 -7.5
			vertex -87.5 -5 -7.5
			vertex -87.5 5 -7.5
		endloop
	endfacet
	facet normal 0 0 -1
		outer loop
			vertex -85 -5 -7.5
			vertex -87.5 5 -7.5
			vertex -85 4.857142857142857 -7.5
		endloop
	endfacet
	facet normal 0 1 0
		outer loop
			vertex -80 2.5 7.352941176470588
			vertex 80 2.5 2.647058823529412
			vertex -80 2.5 2.5044563279857397
		endloop
	endfacet
	facet normal 0 1 0
		outer loop
			vertex -80 2.5 2.5044563279857397
			vertex 80 2.5 2.647058823529412
			vertex 80 2.5 2.5
		endloop
	endfacet
	facet normal 0 1 0
		outer loop
			vertex -80 2.5 2.5044563279857397
			vertex 80 2.5 2.5
			vertex -80 2.5 2.5
		endloop
	endfacet
	facet normal 0 1 0
		outer loop
			vertex -80 2.5 7.5
			vertex 80 2.5 7.5
			vertex 80 2.5 2.6470588235294117
		endloop
	endfacet
	facet normal 0 1 0
		outer loop
			vertex -80 2.5 7.5
			vertex 80 2.5 2.6470588235294117
			vertex -80 2.5 7.352941176470589
		endloop
	endfacet
	facet normal 0 1 0
		outer loop
			vertex 80 2.5 2.647058823529412
			vertex 85 2.5 2.5
			vertex 80 2.5 2.5
		endloop
	endfacet
	facet normal 0 1 0
		outer loop
			vertex 80 2.5 7.5
			vertex 85 2.5 7.5
			vertex 85 2.5 2.5
		endloop
	endfacet
	facet normal 0 1 0
		outer loop
			vertex 80 2.5 7.5
			vertex 85 2.5 2.5
			vertex 80 2.5 2.6470588235294117
		endloop
	endfacet
	facet normal 0 1 0
		outer loop
			vertex 80 2.5 -2.5
			vertex 80 2.5 2.5
			vertex 81.66666666666667 2.5 2.5
		endloop
	endfacet
	facet normal 0 1 0
		outer loop
			vertex 80 2.5 -2.5
			vertex 81.66666666666667 2.5 2.5
			vertex 80.83333333333334 2.5 -2.5
		endloop
	endfacet
	facet normal 0 1 0
		outer loop
			vertex 80.83333333333334 2.5 -2.5
			vertex 81.66666666666667 2.5 2.5
			vertex 83.33333333333334 2.5 -2.5
		endloop
	endfacet
	facet normal 0 1 0
		outer loop
			vertex 81.66666666666667 2.5 2.5
			vertex 85 2.5 2.5
			vertex 85 2.5 -2.5
		endloop
	endfacet
	facet normal 0 1 0
		outer loop
			vertex 81.66666666666667 2.5 2.5
			vertex 85 2.5 -2.5
			vertex 83.33333333333334 2.5 -2.5
		endloop
	endfacet
	facet normal 0 1 0
		outer loop
			vertex -85 2.5 2.5
			vertex -85 2.5 7.5
			vertex -80 2.5 7.352941176470588
		endloop
	endfacet
	facet normal 0 1 0
		outer loop
			vertex -85 2.5 2.5
			vertex -80 2.5 7.352941176470588
			vertex -80 2.5 2.5044563279857397
		endloop
	endfacet
	facet normal 0 1 0
		outer loop
			vertex -85 2.5 2.5
			vertex -80 2.5 2.5044563279857397
			vertex -80 2.5 2.5
		endloop
	endfacet
	facet normal 0 1 0
		outer loop
			vertex -85 2.5 7.5
			vertex -80 2.5 7.5
			vertex -80 2.5 7.352941176470589
		endloop
	endfacet
	facet normal 0 1 0
		outer loop
			vertex -85 2.5 -2.5
			vertex -85 2.5 2.5
			vertex -83.33333333333333 2.5 2.5
		endloop
	endfacet
	facet normal 0 1 0
		outer loop
			vertex -85 2.5 -2.5
			vertex -83.33333333333333 2.5 2.5
			vertex -84.16666666666666 2.5 -2.5
		endloop
	endfacet
	facet normal 0 1 0
		outer loop
			vertex -84.16666666666666 2.5 -2.5
			vertex -83.33333333333333 2.5 2.5
			vertex -81.66666666666666 2.5 -2.5
		endloop
	endfacet
	facet normal 0 1 0
		outer loop
			vertex -83.33333333333333 2.5 2.5
			vertex -80 2.5 2.5
			vertex -80 2.5 -2.5
		endloop
	endfacet
	facet normal 0 1 0
		outer loop
			vertex -83.33333333333333 2.5 2.5
			vertex -80 2.5 -2.5
			vertex -81.66666666666666 2.5 -2.5
		endloop
	endfacet
	facet normal 0 1 0
		outer loop
			vertex -85 5 -2.5714285714285716
			vertex 85 5 -7.428571428571429
			vertex 85 5 -7.5
		endloop
	endfacet
	facet normal 0 1 0
		outer loop
			vertex -85 5 -2.5714285714285716
			vertex 85 5 -7.5
			vertex -85 5 -7.5
		endloop
	endfacet
	facet normal 0 1 0
		outer loop
			vertex -85 5 -2.5
			vertex 85 5 -2.5
			vertex 85 5 -7.428571428571429
		endloop
	endfacet
	facet normal 0 1 0
		outer loop
			vertex -85 5 -2.5
			vertex 85 5 -7.428571428571429
			vertex -85 5 -2.571428571428571
		endloop
	endfacet
	facet normal 0 0 1
		outer loop
			vertex 43.74999999999997 2.5 -2.5
			vertex 85 4.857142857142858 -2.5
			vertex 85 5 -2.5
		endloop
	endfacet
	facet normal 0 0 1
		outer loop
			vertex 43.74999999999997 2.5 -2.5
			vertex 85 5 -2.5
			vertex -85 5 -2.5
		endloop
	endfacet
	facet normal 0 0 1
		outer loop
			vertex 43.74999999999997 2.5 -2.5
			vertex -85 5 -2.5
			vertex -85 2.5000000000000004 -2.5
		endloop
	endfacet
	facet normal 0 0 1
		outer loop
			vertex 85 2.5 -2.5
			vertex 85 4.857142857142857 -2.5
			vertex 43.75000000000001 2.5 -2.5
		endloop
	endfacet
	facet normal 0 0 -1
		outer loop
			vertex -43.74999999999997 2.5 -7.5
			vertex -85 4.8571428571428585 -7.5
			vertex -85 5 -7.5
		endloop
	endfacet
	facet normal 0 0 -1
		outer loop
			vertex -43.74999999999997 2.5 -7.5
			vertex -85 5 -7.5
			vertex 85 5 -7.5
		endloop
	endfacet
	facet normal 0 0 -1
		outer loop
			vertex -43.74999999999997 2.5 -7.5
			vertex 85 5 -7.5
			vertex 85 2.5000000000000004 -7.5
		endloop
	endfacet
	facet normal 0 0 -1
		outer loop
			vertex -85 2.5 -7.5
			vertex -85 4.857142857142857 -7.5
			vertex -43.75000000000001 2.5 -7.5
		endloop
	endfacet
	facet normal 0 -1 0
		outer loop
			vertex -80 -2.5 2.6470588235294117
			vertex 80 -2.5 7.352941176470588
			vertex -80 -2.5 7.49554367201426
		endloop
	endfacet
	facet normal 0 -1 0
		outer loop
			vertex -80 -2.5 7.49554367201426
			vertex 80 -2.5 7.352941176470588
			vertex 80 -2.5 7.5
		endloop
	endfacet
	facet normal 0 -1 0
		outer loop
			vertex -80 -2.5 7.49554367201426
			vertex 80 -2.5 7.5
			vertex -80 -2.5 7.5
		endloop
	endfacet
	facet normal 0 -1 0
		outer loop
			vertex -80 -2.5 2.5
			vertex 80 -2.5 2.5
			vertex 80 -2.5 7.352941176470588
		endloop
	endfacet
	facet normal 0 -1 0
		outer loop
			vertex -80 -2.5 2.5
			vertex 80 -2.5 7.352941176470588
			vertex -80 -2.5 2.6470588235294112
		endloop
	endfacet
	facet normal 0 -1 0
		outer loop
			vertex 80 -2.5 7.352941176470588
			vertex 85 -2.5 7.5
			vertex 80 -2.5 7.5
		endloop
	endfacet
	facet normal 0 -1 0
		outer loop
			vertex 80 -2.5 2.5
			vertex 85 -2.5 2.5
			vertex 85 -2.5 7.5
		endloop
	endfacet
	facet normal 0 -1 0
		outer loop
			vertex 80 -2.5 2.5
			vertex 85 -2.5 7.5
			vertex 80 -2.5 7.352941176470588
		endloop
	endfacet
	facet normal 0 -1 0
		outer loop
			vertex 80 -2.5 2.5
			vertex 80 -2.5 -2.5
			vertex 81.66666666666666 -2.5 -2.5
		endloop
	endfacet
	facet normal 0 -1 0
		outer loop
			vertex 80 -2.5 2.5
			vertex 81.66666666666666 -2.5 -2.5
			vertex 83.33333333333333 -2.5 2.5
		endloop
	endfacet
	facet normal 0 -1 0
		outer loop
			vertex 83.33333333333333 -2.5 2.5
			vertex 81.66666666666666 -2.5 -2.5
			vertex 84.16666666666666 -2.5 -2.5
		endloop
	endfacet
	facet normal 0 -1 0
		outer loop
			vertex 83.33333333333333 -2.5 2.5
			vertex 84.16666666666666 -2.5 -2.5
			vertex 85 -2.5 -2.5
		endloop
	endfacet
	facet normal 0 -1 0
		outer loop
			vertex 83.33333333333333 -2.5 2.5
			vertex 85 -2.5 -2.5
			vertex 85 -2.5 2.5
		endloop
	endfacet
	facet normal 0 -1 0
		outer loop
			vertex -85 -2.5 7.5
			vertex -85 -2.5 2.5
			vertex -80 -2.5 2.6470588235294117
		endloop
	endfacet
	facet normal 0 -1 0
		outer loop
			vertex -85 -2.5 7.5
			vertex -80 -2.5 2.6470588235294117
			vertex -80 -2.5 7.49554367201426
		endloop
	endfacet
	facet normal 0 -1 0
		outer loop
			vertex -85 -2.5 7.5
			vertex -80 -2.5 7.49554367201426
			vertex -80 -2.5 7.5
		endloop
	endfacet
	facet normal 0 -1 0
		outer loop
			vertex -85 -2.5 2.5
			vertex -80 -2.5 2.5
			vertex -80 -2.5 2.6470588235294112
		endloop
	endfacet
	facet normal 0 -1 0
		outer loop
			vertex -85 -2.5 2.5
			vertex -85 -2.5 -2.5
			vertex -83.33333333333334 -2.5 -2.5
		endloop
	endfacet
	facet normal 0 -1 0
		outer loop
			vertex -85 -2.5 2.5
			vertex -83.33333333333334 -2.5 -2.5
			vertex -81.66666666666667 -2.5 2.5
		endloop
	endfacet
	facet normal 0 -1 0
		outer loop
			vertex -81.66666666666667 -2.5 2.5
			vertex -83.33333333333334 -2.5 -2.5
			vertex -80.83333333333334 -2.5 -2.5
		endloop
	endfacet
	facet normal 0 -1 0
		outer loop
			vertex -81.66666666666667 -2.5 2.5
			vertex -80.83333333333334 -2.5 -2.5
			vertex -80 -2.5 -2.5
		endloop
	endfacet
	facet normal 0 -1 0
		outer loop
			vertex -81.66666666666667 -2.5 2.5
			vertex -80 -2.5 -2.5
			vertex -80 -2.5 2.5
		endloop
	endfacet
	facet normal 0 -1 0
		outer loop
			vertex -85 -5 -7.428571428571429
			vertex 85 -5 -2.571428571428571
			vertex 85 -5 -2.5
		endloop
	endfacet
	facet normal 0 -1 0
		outer loop
			vertex -85 -5 -7.428571428571429
			vertex 85 -5 -2.5
			vertex -85 -5 -2.5
		endloop
	endfacet
	facet normal 0 -1 0
		outer loop
			vertex -85 -5 -7.5
			vertex 85 -5 -7.5
			vertex 85 -5 -2.5714285714285716
		endloop
	endfacet
	facet normal 0 -1 0
		outer loop
			vertex -85 -5 -7.5
			vertex 85 -5 -2.5714285714285716
			vertex -85 -5 -7.428571428571429
		endloop
	endfacet
	facet normal 0 0 1
		outer loop
			vertex -85 -4.857142857142857 -2.5
			vertex -43.750000000000014 -2.5 -2.5
			vertex -85 -2.4999999999999996 -2.5
		endloop
	endfacet
	facet normal 0 0 1
		outer loop
			vertex -85 -5 -2.5
			vertex 85 -5 -2.5
			vertex 85 -2.5 -2.5
		endloop
	endfacet
	facet normal 0 0 1
		outer loop
			vertex -85 -5 -2.5
			vertex 85 -2.5 -2.5
			vertex -43.74999999999998 -2.5 -2.5
		endloop
	endfacet
	facet normal 0 0 1
		outer loop
			vertex -85 -5 -2.5
			vertex -43.74999999999998 -2.5 -2.5
			vertex -85 -4.8571428571428585 -2.5
		endloop
	endfacet
	facet normal 0 0 -1
		outer loop
			vertex 85 -4.857142857142857 -7.5
			vertex 43.750000000000014 -2.5 -7.5
			vertex 85 -2.4999999999999996 -7.5
		endloop
	endfacet
	facet normal 0 0 -1
		outer loop
			vertex 85 -5 -7.5
			vertex -85 -5 -7.5
			vertex -85 -2.5 -7.5
		endloop
	endfacet
	facet normal 0 0 -1
		outer loop
			vertex 85 -5 -7.5
			vertex -85 -2.5 -7.5
			vertex 43.74999999999998 -2.5 -7.5
		endloop
	endfacet
	facet normal 0 0 -1
		outer loop
			vertex 85 -5 -7.5
			vertex 43.74999999999998 -2.5 -7.5
			vertex 85 -4.857142857142858 -7.5
		endloop
	endfacet
	facet normal 0 0 1
		outer loop
			vertex -80 -2.3529411764705883 7.5
			vertex 80 2.352941176470588 7.5
			vertex -80 2.4955436720142603 7.5
		endloop
	endfacet
	facet normal 0 0 1
		outer loop
			vertex -80 2.4955436720142603 7.5
			vertex 80 2.352941176470588 7.5
			vertex 80 2.5 7.5
		endloop
	endfacet
	facet normal 0 0 1
		outer loop
			vertex -80 2.4955436720142603 7.5
			vertex 80 2.5 7.5
			vertex -80 2.5 7.5
		endloop
	endfacet
	facet normal 0 0 1
		outer loop
			vertex -80 -2.5 7.5
			vertex 80 -2.5 7.5
			vertex 80 2.3529411764705883 7.5
		endloop
	endfacet
	facet normal 0 0 1
		outer loop
			vertex -80 -2.5 7.5
			vertex 80 2.3529411764705883 7.5
			vertex -80 -2.352941176470589 7.5
		endloop
	endfacet
	facet normal 0 0 1
		outer loop
			vertex 80 2.352941176470588 7.5
			vertex 85 2.5 7.5
			vertex 80 2.5 7.5
		endloop
	endfacet
	facet normal 0 0 1
		outer loop
			vertex 80 -2.5 7.5
			vertex 85 -2.5 7.5
			vertex 85 2.5 7.5
		endloop
	endfacet
	facet normal 0 0 1
		outer loop
			vertex 80 -2.5 7.5
			vertex 85 2.5 7.5
			vertex 80 2.3529411764705883 7.5
		endloop
	endfacet
	facet normal 0 0 1
		outer loop
			vertex -85 2.5 7.5
			vertex -85 -2.5 7.5
			vertex -80 -2.3529411764705883 7.5
		endloop
	endfacet
	facet normal 0 0 1
		outer loop
			vertex -85 2.5 7.5
			vertex -80 -2.3529411764705883 7.5
			vertex -80 2.4955436720142603 7.5
		endloop
	endfacet
	facet normal 0 0 1
		outer loop
			vertex -85 2.5 7.5
			vertex -80 2.4955436720142603 7.5
			vertex -80 2.5 7.5
		endloop
	endfacet
	facet normal 0 0 1
		outer loop
			vertex -85 -2.5 7.5
			vertex -80 -2.5 7.5
			vertex -80 -2.352941176470589 7.5
		endloop
	endfacet
	facet normal 0 0 -1
		outer loop
			vertex 80 -2.3529411764705883 2.5
			vertex -80 2.352941176470589 2.5
			vertex -80 2.5 2.5
		endloop
	endfacet
	facet normal 0 0 -1
		outer loop
			vertex 80 -2.3529411764705883 2.5
			vertex -80 2.5 2.5
			vertex 80 2.5 2.5
		endloop
	endfacet
	facet normal 0 0 -1
		outer loop
			vertex 80 -2.5 2.5
			vertex -80 -2.5 2.5
			vertex -80 2.3484848484848486 2.5
		endloop
	endfacet
	facet normal 0 0 -1
		outer loop
			vertex 80 -2.5 2.5
			vertex -80 2.3484848484848486 2.5
			vertex -80 2.3529411764705883 2.5
		endloop
	endfacet
	facet normal 0 0 -1
		outer loop
			vertex 80 -2.5 2.5
			vertex -80 2.3529411764705883 2.5
			vertex 80 -2.352941176470588 2.5
		endloop
	endfacet
	facet normal -1 0 0
		outer loop
			vertex 80 -0.8333333333333335 -2.5
			vertex 80 0.833333333333333 2.5
			vertex 80 1.6666666666666665 -2.5
		endloop
	endfacet
	facet normal -1 0 0
		outer loop
			vertex 80 1.6666666666666665 -2.5
			vertex 80 0.833333333333333 2.5
			vertex 80 2.5 2.5
		endloop
	endfacet
	facet normal -1 0 0
		outer loop
			vertex 80 1.6666666666666665 -2.5
			vertex 80 2.5 2.5
			vertex 80 2.5 -2.5
		endloop
	endfacet
	facet normal -1 0 0
		outer loop
			vertex 80 -2.5 -2.5
			vertex 80 -2.5 2.5
			vertex 80 0.8333333333333335 2.5
		endloop
	endfacet
	facet normal -1 0 0
		outer loop
			vertex 80 -2.5 -2.5
			vertex 80 0.8333333333333335 2.5
			vertex 80 -0.8333333333333333 -2.5
		endloop
	endfacet
	facet normal 1 0 0
		outer loop
			vertex -80 -0.8333333333333335 2.5
			vertex -80 0.8333333333333333 -2.5
			vertex -80 2.5 -2.5
		endloop
	endfacet
	facet normal 1 0 0
		outer loop
			vertex -80 -0.8333333333333335 2.5
			vertex -80 2.5 -2.5
			vertex -80 2.5 2.5
		endloop
	endfacet
	facet normal 1 0 0
		outer loop
			vertex -80 -2.5 2.5
			vertex -80 -2.5 -2.5
			vertex -80 0 -2.5
		endloop
	endfacet
	facet normal 1 0 0
		outer loop
			vertex -80 -2.5 2.5
			vertex -80 0 -2.5
			vertex -80 0.8333333333333335 -2.5
		endloop
	endfacet
	facet normal 1 0 0
		outer loop
			vertex -80 -2.5 2.5
			vertex -80 0.8333333333333335 -2.5
			vertex -80 -0.833333333333333 2.5
		endloop
	endfacet
	facet normal 0 0 1
		outer loop
			vertex -43.750000000000014 -2.5 -2.5
			vertex 43.74999999999997 2.5 -2.5
			vertex -80 2.5000000000000004 -2.5
		endloop
	endfacet
	facet normal 0 0 1
		outer loop
			vertex -43.750000000000014 -2.5 -2.5
			vertex -80 2.5000000000000004 -2.5
			vertex -80 -2.4999999999999996 -2.5
		endloop
	endfacet
	facet normal 0 0 1
		outer loop
			vertex 80 2.5 -2.5
			vertex 43.75000000000001 2.5 -2.5
			vertex -43.74999999999998 -2.5 -2.5
		endloop
	endfacet
	facet normal 0 0 1
		outer loop
			vertex 80 2.5 -2.5
			vertex -43.74999999999998 -2.5 -2.5
			vertex 80 -2.5 -2.5
		endloop
	endfacet
	facet normal 0 0 -1
		outer loop
			vertex 43.750000000000014 -2.5 -7.5
			vertex -43.74999999999997 2.5 -7.5
			vertex 80 2.5000000000000004 -7.5
		endloop
	endfacet
	facet normal 0 0 -1
		outer loop
			vertex 43.750000000000014 -2.5 -7.5
			vertex 80 2.5000000000000004 -7.5
			vertex 80 -2.4999999999999996 -7.5
		endloop
	endfacet
	facet normal 0 0 -1
		outer loop
			vertex -80 2.5 -7.5
			vertex -43.75000000000001 2.5 -7.5
			vertex 43.74999999999998 -2.5 -7.5
		endloop
	endfacet
	facet normal 0 0 -1
		outer loop
			vertex -80 2.5 -7.5
			vertex 43.74999999999998 -2.5 -7.5
			vertex -80 -2.5 -7.5
		endloop
	endfacet
	facet normal 0 0 -1
		outer loop
			vertex -80 2.5 -7.5
			vertex -80 -2.5 -7.5
			vertex -85 2.5 -7.5
		endloop
	endfacet
	facet normal 0 0 -1
		outer loop
			vertex -80 -2.5 -7.5
			vertex -85 -2.5 -7.5
			vertex -85 2.5 -7.5
		endloop
	endfacet
	facet normal 0 0 -1
		outer loop
			vertex 85 2.5 -7.5
			vertex 85 -2.5 -7.5
			vertex 80 2.5 -7.5
		endloop
	endfacet
	facet normal 0 0 -1
		outer loop
			vertex 85 -2.5 -7.5
			vertex 80 -2.5 -7.5
			vertex 80 2.5 -7.5
		endloop
	endfacet
endsolid exported
