solid exported
	facet normal 1 0 0
		outer loop
			vertex 130 2.5 7.5
			vertex 130 -2.5 7.5
			vertex 130 2.5 2.5
		endloop
	endfacet
	facet normal 1 0 0
		outer loop
			vertex 130 -2.5 7.5
			vertex 130 -2.5 2.5
			vertex 130 2.5 2.5
		endloop
	endfacet
	facet normal 1 0 0
		outer loop
			vertex 130 2.5 2.5
			vertex 130 -0.833333333333333 2.5
			vertex 130 0.8333333333333335 -2.5
		endloop
	endfacet
	facet normal 1 0 0
		outer loop
			vertex 130 2.5 2.5
			vertex 130 0.8333333333333335 -2.5
			vertex 130 2.5 -2.5
		endloop
	endfacet
	facet normal 1 0 0
		outer loop
			vertex 130 -0.8333333333333335 2.5
			vertex 130 -2.5 2.5
			vertex 130 -2.5 -2.5
		endloop
	endfacet
	facet normal 1 0 0
		outer loop
			vertex 130 -0.8333333333333335 2.5
			vertex 130 -2.5 -2.5
			vertex 130 -1.6666666666666667 -2.5
		endloop
	endfacet
	facet normal 1 0 0
		outer loop
			vertex 130 -0.8333333333333335 2.5
			vertex 130 -1.6666666666666667 -2.5
			vertex 130 0.8333333333333333 -2.5
		endloop
	endfacet
	facet normal 1 0 0
		outer loop
			vertex 132.5 5 -2.5
			vertex 132.5 -5 -2.5
			vertex 132.5 5 -7.5
		endloop
	endfacet
	facet normal 1 0 0
		outer loop
			vertex 132.5 -5 -2.5
			vertex 132.5 -5 -7.5
			vertex 132.5 5 -7.5
		endloop
	endfacet
	facet normal 0 1 0
		outer loop
			vertex 130 5 -7.452830188679245
			vertex 132.5 5 -7.5
			vertex 130 5 -7.5
		endloop
	endfacet
	facet normal 0 1 0
		outer loop
			vertex 130 5 -2.5
			vertex 132.5 5 -2.5
			vertex 132.5 5 -7.5
		endloop
	endfacet
	facet normal 0 1 0
		outer loop
			vertex 130 5 -2.5
			vertex 132.5 5 -7.5
			vertex 130 5 -7.452830188679245
		endloop
	endfacet
	facet normal 0 -1 0
		outer loop
			vertex 130 -5 -2.547169811320755
			vertex 132.5 -5 -2.5
			vertex 130 -5 -2.5
		endloop
	endfacet
	facet normal 0 -1 0
		outer loop
			vertex 130 -5 -7.5
			vertex 132.5 -5 -7.5
			vertex 132.5 -5 -2.5
		endloop
	endfacet
	facet normal 0 -1 0
		outer loop
			vertex 130 -5 -7.5
			vertex 132.5 -5 -2.5
			vertex 130 -5 -2.547169811320755
		endloop
	endfacet
	facet normal 0 0 1
		outer loop
			vertex 130 4.90566037735849 -2.5
			vertex 132.5 5 -2.5
			vertex 130 5 -2.5
		endloop
	endfacet
	facet normal 0 0 1
		outer loop
			vertex 130 -5 -2.5
			vertex 132.5 -5 -2.5
			vertex 132.5 5 -2.5
		endloop
	endfacet
	facet normal 0 0 1
		outer loop
			vertex 130 -5 -2.5
			vertex 132.5 5 -2.5
			vertex 130 4.90566037735849 -2.5
		endloop
	endfacet
	facet normal 0 0 -1
		outer loop
			vertex 132.5 5 -7.5
			vertex 132.5 -5 -7.5
			vertex 130 -4.90566037735849 -7.5
		endloop
	endfacet
	facet normal 0 0 -1
		outer loop
			vertex 132.5 5 -7.5
			vertex 130 -4.90566037735849 -7.5
			vertex 130 5 -7.5
		endloop
	endfacet
	facet normal 0 0 -1
		outer loop
			vertex 132.5 -5 -7.5
			vertex 130 -5 -7.5
			vertex 130 -4.90566037735849 -7.5
		endloop
	endfacet
	facet normal -1 0 0
		outer loop
			vertex -130 2.5 2.5
			vertex -130 -2.5 2.5
			vertex -130 2.5 7.5
		endloop
	endfacet
	facet normal -1 0 0
		outer loop
			vertex -130 -2.5 2.5
			vertex -130 -2.5 7.5
			vertex -130 2.5 7.5
		endloop
	endfacet
	facet normal -1 0 0
		outer loop
			vertex -130 2.5 2.5
			vertex -130 2.5 -2.5
			vertex -130 0 -2.5
		endloop
	endfacet
	facet normal -1 0 0
		outer loop
			vertex -130 2.5 2.5
			vertex -130 0 -2.5
			vertex -130 -0.8333333333333333 -2.5
		endloop
	endfacet
	facet normal -1 0 0
		outer loop
			vertex -130 2.5 2.5
			vertex -130 -0.8333333333333333 -2.5
			vertex -130 0.8333333333333335 2.5
		endloop
	endfacet
	facet normal -1 0 0
		outer loop
			vertex -130 0.833333333333333 2.5
			vertex -130 -0.8333333333333335 -2.5
			vertex -130 -2.5 -2.5
		endloop
	endfacet
	facet normal -1 0 0
		outer loop
			vertex -130 0.833333333333333 2.5
			vertex -130 -2.5 -2.5
			vertex -130 -2.5 2.5
		endloop
	endfacet
	facet normal -1 0 0
		outer loop
			vertex -132.5 5 -7.5
			vertex -132.5 -5 -7.5
			vertex -132.5 5 -2.5
		endloop
	endfacet
	facet normal -1 0 0
		outer loop
			vertex -132.5 -5 -7.5
			vertex -132.5 -5 -2.5
			vertex -132.5 5 -2.5
		endloop
	endfacet
	facet normal 0 1 0
		outer loop
			vertex -132.5 5 -7.5
			vertex -132.5 5 -2.5
			vertex -130 5 -2.547169811320755
		endloop
	endfacet
	facet normal 0 1 0
		outer loop
			vertex -132.5 5 -7.5
			vertex -130 5 -2.547169811320755
			vertex -130 5 -7.5
		endloop
	endfacet
	facet normal 0 1 0
		outer loop
			vertex -132.5 5 -2.5
			vertex -130 5 -2.5
			vertex -130 5 -2.547169811320755
		endloop
	endfacet
	facet normal 0 -1 0
		outer loop
			vertex -132.5 -5 -2.5
			vertex -132.5 -5 -7.5
			vertex -130 -5 -7.452830188679245
		endloop
	endfacet
	facet normal 0 -1 0
		outer loop
			vertex -132.5 -5 -2.5
			vertex -130 -5 -7.452830188679245
			vertex -130 -5 -2.5
		endloop
	endfacet
	facet normal 0 -1 0
		outer loop
			vertex -132.5 -5 -7.5
			vertex -130 -5 -7.5
			vertex -130 -5 -7.452830188679245
		endloop
	endfacet
	facet normal 0 0 1
		outer loop
			vertex -132.5 5 -2.5
			vertex -132.5 -5 -2.5
			vertex -130 -4.90566037735849 -2.5
		endloop
	endfacet
	facet normal 0 0 1
		outer loop
			vertex -132.5 5 -2.5
			vertex -130 -4.90566037735849 -2.5
			vertex -130 5 -2.5
		endloop
	endfacet
	facet normal 0 0 1
		outer loop
			vertex -132.5 -5 -2.5
			vertex -130 -5 -2.5
			vertex -130 -4.90566037735849 -2.5
		endloop
	endfacet
	facet normal 0 0 -1
		outer loop
			vertex -130 4.90566037735849 -7.5
			vertex -132.5 5 -7.5
			vertex -130 5 -7.5
		endloop
	endfacet
	facet normal 0 0 -1
		outer loop
			vertex -130 -5 -7.5
			vertex -132.5 -5 -7.5
			vertex -132.5 5 -7.5
		endloop
	endfacet
	facet normal 0 0 -1
		outer loop
			vertex -130 -5 -7.5
			vertex -132.5 5 -7.5
			vertex -130 4.90566037735849 -7.5
		endloop
	endfacet
	facet normal 0 1 0
		outer loop
			vertex -125 2.5 7.403846153846154
			vertex 125 2.5 2.5961538461538467
			vertex -125 2.5 2.5018853695324283
		endloop
	endfacet
	facet normal 0 1 0
		outer loop
			vertex -125 2.5 2.5018853695324283
			vertex 125 2.5 2.5961538461538467
			vertex 125 2.5 2.5
		endloop
	endfacet
	facet normal 0 1 0
		outer loop
			vertex -125 2.5 2.5018853695324283
			vertex 125 2.5 2.5
			vertex -125 2.5 2.5
		endloop
	endfacet
	facet normal 0 1 0
		outer loop
			vertex -125 2.5 7.5
			vertex 125 2.5 7.5
			vertex 125 2.5 2.5961538461538463
		endloop
	endfacet
	facet normal 0 1 0
		outer loop
			vertex -125 2.5 7.5
			vertex 125 2.5 2.5961538461538463
			vertex -125 2.5 7.403846153846153
		endloop
	endfacet
	facet normal 0 1 0
		outer loop
			vertex 125 2.5 2.5961538461538467
			vertex 130 2.5 2.5
			vertex 125 2.5 2.5
		endloop
	endfacet
	facet normal 0 1 0
		outer loop
			vertex 125 2.5 7.5
			vertex 130 2.5 7.5
			vertex 130 2.5 2.5
		endloop
	endfacet
	facet normal 0 1 0
		outer loop
			vertex 125 2.5 7.5
			vertex 130 2.5 2.5
			vertex 125 2.5 2.5961538461538463
		endloop
	endfacet
	facet normal 0 1 0
		outer loop
			vertex 125 2.5 -2.5
			vertex 125 2.5 2.5
			vertex 126.66666666666667 2.5 2.5
		endloop
	endfacet
	facet normal 0 1 0
		outer loop
			vertex 125 2.5 -2.5
			vertex 126.66666666666667 2.5 2.5
			vertex 125.83333333333334 2.5 -2.5
		endloop
	endfacet
	facet normal 0 1 0
		outer loop
			vertex 125.83333333333334 2.5 -2.5
			vertex 126.66666666666667 2.5 2.5
			vertex 128.33333333333334 2.5 -2.5
		endloop
	endfacet
	facet normal 0 1 0
		outer loop
			vertex 126.66666666666667 2.5 2.5
			vertex 130 2.5 2.5
			vertex 130 2.5 -2.5
		endloop
	endfacet
	facet normal 0 1 0
		outer loop
			vertex 126.66666666666667 2.5 2.5
			vertex 130 2.5 -2.5
			vertex 128.33333333333334 2.5 -2.5
		endloop
	endfacet
	facet normal 0 1 0
		outer loop
			vertex -130 2.5 2.5
			vertex -130 2.5 7.5
			vertex -125 2.5 7.403846153846154
		endloop
	endfacet
	facet normal 0 1 0
		outer loop
			vertex -130 2.5 2.5
			vertex -125 2.5 7.403846153846154
			vertex -125 2.5 2.5018853695324283
		endloop
	endfacet
	facet normal 0 1 0
		outer loop
			vertex -130 2.5 2.5
			vertex -125 2.5 2.5018853695324283
			vertex -125 2.5 2.5
		endloop
	endfacet
	facet normal 0 1 0
		outer loop
			vertex -130 2.5 7.5
			vertex -125 2.5 7.5
			vertex -125 2.5 7.403846153846153
		endloop
	endfacet
	facet normal 0 1 0
		outer loop
			vertex -130 2.5 -2.5
			vertex -130 2.5 2.5
			vertex -128.33333333333334 2.5 2.5
		endloop
	endfacet
	facet normal 0 1 0
		outer loop
			vertex -130 2.5 -2.5
			vertex -128.33333333333334 2.5 2.5
			vertex -129.16666666666669 2.5 -2.5
		endloop
	endfacet
	facet normal 0 1 0
		outer loop
			vertex -129.16666666666669 2.5 -2.5
			vertex -128.33333333333334 2.5 2.5
			vertex -126.66666666666667 2.5 -2.5
		endloop
	endfacet
	facet normal 0 1 0
		outer loop
			vertex -128.33333333333334 2.5 2.5
			vertex -125 2.5 2.5
			vertex -125 2.5 -2.5
		endloop
	endfacet
	facet normal 0 1 0
		outer loop
			vertex -128.33333333333334 2.5 2.5
			vertex -125 2.5 -2.5
			vertex -126.66666666666667 2.5 -2.5
		endloop
	endfacet
	facet normal 0 1 0
		outer loop
			vertex -130 5 -2.547169811320755
			vertex 130 5 -7.452830188679245
			vertex 130 5 -7.5
		endloop
	endfacet
	facet normal 0 1 0
		outer loop
			vertex -130 5 -2.547169811320755
			vertex 130 5 -7.5
			vertex -130 5 -7.5
		endloop
	endfacet
	facet normal 0 1 0
		outer loop
			vertex -130 5 -2.5
			vertex 130 5 -2.5
			vertex 130 5 -7.452830188679245
		endloop
	endfacet
	facet normal 0 1 0
		outer loop
			vertex -130 5 -2.5
			vertex 130 5 -7.452830188679245
			vertex -130 5 -2.547169811320755
		endloop
	endfacet
	facet normal 0 0 1
		outer loop
			vertex 66.25 2.5 -2.5
			vertex 130 4.90566037735849 -2.5
			vertex 130 5 -2.5
		endloop
	endfacet
	facet normal 0 0 1
		outer loop
			vertex 66.25 2.5 -2.5
			vertex 130 5 -2.5
			vertex -130 5 -2.5
		endloop
	endfacet
	facet normal 0 0 1
		outer loop
			vertex 66.25 2.5 -2.5
			vertex -130 5 -2.5
			vertex -130 2.5 -2.5
		endloop
	endfacet
	facet normal 0 0 1
		outer loop
			vertex 130 2.5 -2.5
			vertex 130 4.90566037735849 -2.5
			vertex 66.25 2.5 -2.5
		endloop
	endfacet
	facet normal 0 0 -1
		outer loop
			vertex -66.25 2.5 -7.5
			vertex -130 4.90566037735849 -7.5
			vertex -130 5 -7.5
		endloop
	endfacet
	facet normal 0 0 -1
		outer loop
			vertex -66.25 2.5 -7.5
			vertex -130 5 -7.5
			vertex 130 5 -7.5
		endloop
	endfacet
	facet normal 0 0 -1
		outer loop
			vertex -66.25 2.5 -7.5
			vertex 130 5 -7.5
			vertex 130 2.5 -7.5
		endloop
	endfacet
	facet normal 0 0 -1
		outer loop
			vertex -130 2.5 -7.5
			vertex -130 4.90566037735849 -7.5
			vertex -66.25 2.5 -7.5
		endloop
	endfacet
	facet normal 0 -1 0
		outer loop
			vertex -125 -2.5 2.5961538461538463
			vertex 125 -2.5 7.403846153846153
			vertex -125 -2.5 7.498114630467572
		endloop
	endfacet
	facet normal 0 -1 0
		outer loop
			vertex -125 -2.5 7.498114630467572
			vertex 125 -2.5 7.403846153846153
			vertex 125 -2.5 7.5
		endloop
	endfacet
	facet normal 0 -1 0
		outer loop
			vertex -125 -2.5 7.498114630467572
			vertex 125 -2.5 7.5
			vertex -125 -2.5 7.5
		endloop
	endfacet
	facet normal 0 -1 0
		outer loop
			vertex -125 -2.5 2.5
			vertex 125 -2.5 2.5
			vertex 125 -2.5 7.403846153846154
		endloop
	endfacet
	facet normal 0 -1 0
		outer loop
			vertex -125 -2.5 2.5
			vertex 125 -2.5 7.403846153846154
			vertex -125 -2.5 2.5961538461538467
		endloop
	endfacet
	facet normal 0 -1 0
		outer loop
			vertex 125 -2.5 7.403846153846153
			vertex 130 -2.5 7.5
			vertex 125 -2.5 7.5
		endloop
	endfacet
	facet normal 0 -1 0
		outer loop
			vertex 125 -2.5 2.5
			vertex 130 -2.5 2.5
			vertex 130 -2.5 7.5
		endloop
	endfacet
	facet normal 0 -1 0
		outer loop
			vertex 125 -2.5 2.5
			vertex 130 -2.5 7.5
			vertex 125 -2.5 7.403846153846154
		endloop
	endfacet
	facet normal 0 -1 0
		outer loop
			vertex 125 -2.5 2.5
			vertex 125 -2.5 -2.5
			vertex 126.66666666666667 -2.5 -2.5
		endloop
	endfacet
	facet normal 0 -1 0
		outer loop
			vertex 125 -2.5 2.5
			vertex 126.66666666666667 -2.5 -2.5
			vertex 128.33333333333334 -2.5 2.5
		endloop
	endfacet
	facet normal 0 -1 0
		outer loop
			vertex 128.33333333333334 -2.5 2.5
			vertex 126.66666666666667 -2.5 -2.5
			vertex 129.16666666666669 -2.5 -2.5
		endloop
	endfacet
	facet normal 0 -1 0
		outer loop
			vertex 128.33333333333334 -2.5 2.5
			vertex 129.16666666666669 -2.5 -2.5
			vertex 130 -2.5 -2.5
		endloop
	endfacet
	facet normal 0 -1 0
		outer loop
			vertex 128.33333333333334 -2.5 2.5
			vertex 130 -2.5 -2.5
			vertex 130 -2.5 2.5
		endloop
	endfacet
	facet normal 0 -1 0
		outer loop
			vertex -130 -2.5 7.5
			vertex -130 -2.5 2.5
			vertex -125 -2.5 2.5961538461538463
		endloop
	endfacet
	facet normal 0 -1 0
		outer loop
			vertex -130 -2.5 7.5
			vertex -125 -2.5 2.5961538461538463
			vertex -125 -2.5 7.498114630467572
		endloop
	endfacet
	facet normal 0 -1 0
		outer loop
			vertex -130 -2.5 7.5
			vertex -125 -2.5 7.498114630467572
			vertex -125 -2.5 7.5
		endloop
	endfacet
	facet normal 0 -1 0
		outer loop
			vertex -130 -2.5 2.5
			vertex -125 -2.5 2.5
			vertex -125 -2.5 2.5961538461538467
		endloop
	endfacet
	facet normal 0 -1 0
		outer loop
			vertex -130 -2.5 2.5
			vertex -130 -2.5 -2.5
			vertex -128.33333333333334 -2.5 -2.5
		endloop
	endfacet
	facet normal 0 -1 0
		outer loop
			vertex -130 -2.5 2.5
			vertex -128.33333333333334 -2.5 -2.5
			vertex -126.66666666666667 -2.5 2.5
		endloop
	endfacet
	facet normal 0 -1 0
		outer loop
			vertex -126.66666666666667 -2.5 2.5
			vertex -128.33333333333334 -2.5 -2.5
			vertex -125.83333333333334 -2.5 -2.5
		endloop
	endfacet
	facet normal 0 -1 0
		outer loop
			vertex -126.66666666666667 -2.5 2.5
			vertex -125.83333333333334 -2.5 -2.5
			vertex -125 -2.5 -2.5
		endloop
	endfacet
	facet normal 0 -1 0
		outer loop
			vertex -126.66666666666667 -2.5 2.5
			vertex -125 -2.5 -2.5
			vertex -125 -2.5 2.5
		endloop
	endfacet
	facet normal 0 -1 0
		outer loop
			vertex -130 -5 -7.452830188679245
			vertex 130 -5 -2.547169811320755
			vertex 130 -5 -2.5
		endloop
	endfacet
	facet normal 0 -1 0
		outer loop
			vertex -130 -5 -7.452830188679245
			vertex 130 -5 -2.5
			vertex -130 -5 -2.5
		endloop
	endfacet
	facet normal 0 -1 0
		outer loop
			vertex -130 -5 -7.5
			vertex 130 -5 -7.5
			vertex 130 -5 -2.547169811320755
		endloop
	endfacet
	facet normal 0 -1 0
		outer loop
			vertex -130 -5 -7.5
			vertex 130 -5 -2.547169811320755
			vertex -130 -5 -7.452830188679245
		endloop
	endfacet
	facet normal 0 0 1
		outer loop
			vertex -130 -4.90566037735849 -2.5
			vertex -66.25 -2.5 -2.5
			vertex -130 -2.5 -2.5
		endloop
	endfacet
	facet normal 0 0 1
		outer loop
			vertex -130 -5 -2.5
			vertex 130 -5 -2.5
			vertex 130 -2.5 -2.5
		endloop
	endfacet
	facet normal 0 0 1
		outer loop
			vertex -130 -5 -2.5
			vertex 130 -2.5 -2.5
			vertex -66.25 -2.5 -2.5
		endloop
	endfacet
	facet normal 0 0 1
		outer loop
			vertex -130 -5 -2.5
			vertex -66.25 -2.5 -2.5
			vertex -130 -4.90566037735849 -2.5
		endloop
	endfacet
	facet normal 0 0 -1
		outer loop
			vertex 130 -4.90566037735849 -7.5
			vertex 66.25 -2.5 -7.5
			vertex 130 -2.5 -7.5
		endloop
	endfacet
	facet normal 0 0 -1
		outer loop
			vertex 130 -5 -7.5
			vertex -130 -5 -7.5
			vertex -130 -2.5 -7.5
		endloop
	endfacet
	facet normal 0 0 -1
		outer loop
			vertex 130 -5 -7.5
			vertex -130 -2.5 -7.5
			vertex 66.25 -2.5 -7.5
		endloop
	endfacet
	facet normal 0 0 -1
		outer loop
			vertex 130 -5 -7.5
			vertex 66.25 -2.5 -7.5
			vertex 130 -4.90566037735849 -7.5
		endloop
	endfacet
	facet normal 0 0 1
		outer loop
			vertex -125 -2.4038461538461537 7.5
			vertex 125 2.4038461538461533 7.5
			vertex -125 2.4981146304675717 7.5
		endloop
	endfacet
	facet normal 0 0 1
		outer loop
			vertex -125 2.4981146304675717 7.5
			vertex 125 2.4038461538461533 7.5
			vertex 125 2.5 7.5
		endloop
	endfacet
	facet normal 0 0 1
		outer loop
			vertex -125 2.4981146304675717 7.5
			vertex 125 2.5 7.5
			vertex -125 2.5 7.5
		endloop
	endfacet
	facet normal 0 0 1
		outer loop
			vertex -125 -2.5 7.5
			vertex 125 -2.5 7.5
			vertex 125 2.4038461538461537 7.5
		endloop
	endfacet
	facet normal 0 0 1
		outer loop
			vertex -125 -2.5 7.5
			vertex 125 2.4038461538461537 7.5
			vertex -125 -2.403846153846153 7.5
		endloop
	endfacet
	facet normal 0 0 1
		outer loop
			vertex 125 2.4038461538461533 7.5
			vertex 130 2.5 7.5
			vertex 125 2.5 7.5
		endloop
	endfacet
	facet normal 0 0 1
		outer loop
			vertex 125 -2.5 7.5
			vertex 130 -2.5 7.5
			vertex 130 2.5 7.5
		endloop
	endfacet
	facet normal 0 0 1
		outer loop
			vertex 125 -2.5 7.5
			vertex 130 2.5 7.5
			vertex 125 2.4038461538461537 7.5
		endloop
	endfacet
	facet normal 0 0 1
		outer loop
			vertex -130 2.5 7.5
			vertex -130 -2.5 7.5
			vertex -125 -2.4038461538461537 7.5
		endloop
	endfacet
	facet normal 0 0 1
		outer loop
			vertex -130 2.5 7.5
			vertex -125 -2.4038461538461537 7.5
			vertex -125 2.4981146304675717 7.5
		endloop
	endfacet
	facet normal 0 0 1
		outer loop
			vertex -130 2.5 7.5
			vertex -125 2.4981146304675717 7.5
			vertex -125 2.5 7.5
		endloop
	endfacet
	facet normal 0 0 1
		outer loop
			vertex -130 -2.5 7.5
			vertex -125 -2.5 7.5
			vertex -125 -2.403846153846153 7.5
		endloop
	endfacet
	facet normal 0 0 -1
		outer loop
			vertex 125 -2.4038461538461537 2.5
			vertex -125 2.403846153846153 2.5
			vertex -125 2.5 2.5
		endloop
	endfacet
	facet normal 0 0 -1
		outer loop
			vertex 125 -2.4038461538461537 2.5
			vertex -125 2.5 2.5
			vertex 125 2.5 2.5
		endloop
	endfacet
	facet normal 0 0 -1
		outer loop
			vertex 125 -2.5 2.5
			vertex -125 -2.5 2.5
			vertex -125 2.4019607843137254 2.5
		endloop
	endfacet
	facet normal 0 0 -1
		outer loop
			vertex 125 -2.5 2.5
			vertex -125 2.401960784313725 2.5
			vertex -125 2.4038461538461537 2.5
		endloop
	endfacet
	facet normal 0 0 -1
		outer loop
			vertex 125 -2.5 2.5
			vertex -125 2.4038461538461537 2.5
			vertex 125 -2.4038461538461533 2.5
		endloop
	endfacet
	facet normal -1 0 0
		outer loop
			vertex 125 -0.8333333333333335 -2.5
			vertex 125 0.833333333333333 2.5
			vertex 125 1.6666666666666665 -2.5
		endloop
	endfacet
	facet normal -1 0 0
		outer loop
			vertex 125 1.6666666666666665 -2.5
			vertex 125 0.833333333333333 2.5
			vertex 125 2.5 2.5
		endloop
	endfacet
	facet normal -1 0 0
		outer loop
			vertex 125 1.6666666666666665 -2.5
			vertex 125 2.5 2.5
			vertex 125 2.5 -2.5
		endloop
	endfacet
	facet normal -1 0 0
		outer loop
			vertex 125 -2.5 -2.5
			vertex 125 -2.5 2.5
			vertex 125 0.8333333333333335 2.5
		endloop
	endfacet
	facet normal -1 0 0
		outer loop
			vertex 125 -2.5 -2.5
			vertex 125 0.8333333333333335 2.5
			vertex 125 -0.8333333333333333 -2.5
		endloop
	endfacet
	facet normal 1 0 0
		outer loop
			vertex -125 -0.8333333333333335 2.5
			vertex -125 0.8333333333333333 -2.5
			vertex -125 2.5 -2.5
		endloop
	endfacet
	facet normal 1 0 0
		outer loop
			vertex -125 -0.8333333333333335 2.5
			vertex -125 2.5 -2.5
			vertex -125 2.5 2.5
		endloop
	endfacet
	facet normal 1 0 0
		outer loop
			vertex -125 -2.5 2.5
			vertex -125 -2.5 -2.5
			vertex -125 0 -2.5
		endloop
	endfacet
	facet normal 1 0 0
		outer loop
			vertex -125 -2.5 2.5
			vertex -125 0 -2.5
			vertex -125 0.8333333333333335 -2.5
		endloop
	endfacet
	facet normal 1 0 0
		outer loop
			vertex -125 -2.5 2.5
			vertex -125 0.8333333333333335 -2.5
			vertex -125 -0.833333333333333 2.5
		endloop
	endfacet
	facet normal 0 0 1
		outer loop
			vertex -66.25 -2.5 -2.5
			vertex 66.25 2.5 -2.5
			vertex -125 2.5 -2.5
		endloop
	endfacet
	facet normal 0 0 1
		outer loop
			vertex -66.25 -2.5 -2.5
			vertex -125 2.5 -2.5
			vertex -125 -2.5 -2.5
		endloop
	endfacet
	facet normal 0 0 1
		outer loop
			vertex 125 2.5 -2.5
			vertex 66.25 2.5 -2.5
			vertex -66.25 -2.5 -2.5
		endloop
	endfacet
	facet normal 0 0 1
		outer loop
			vertex 125 2.5 -2.5
			vertex -66.25 -2.5 -2.5
			vertex 125 -2.5 -2.5
		endloop
	endfacet
	facet normal 0 0 -1
		outer loop
			vertex 66.25 -2.5 -7.5
			vertex -66.25 2.5 -7.5
			vertex 125 2.5 -7.5
		endloop
	endfacet
	facet normal 0 0 -1
		outer loop
			vertex 66.25 -2.5 -7.5
			vertex 125 2.5 -7.5
			vertex 125 -2.5 -7.5
		endloop
	endfacet
	facet normal 0 0 -1
		outer loop
			vertex -125 2.5 -7.5
			vertex -66.25 2.5 -7.5
			vertex 66.25 -2.5 -7.5
		endloop
	endfacet
	facet normal 0 0 -1
		outer loop
			vertex -125 2.5 -7.5
			vertex 66.25 -2.5 -7.5
			vertex -125 -2.5 -7.5
		endloop
	endfacet
	facet normal 0 0 -1
		outer loop
			vertex -125 2.5 -7.5
			vertex -125 -2.5 -7.5
			vertex -130 2.5 -7.5
		endloop
	endfacet
	facet normal 0 0 -1
		outer loop
			vertex -125 -2.5 -7.5
			vertex -130 -2.5 -7.5
			vertex -130 2.5 -7.5
		endloop
	endfacet
	facet normal 0 0 -1
		outer loop
			vertex 130 2.5 -7.5
			vertex 130 -2.5 -7.5
			vertex 125 2.5 -7.5
		endloop
	endfacet
	facet normal 0 0 -1
		outer loop
			vertex 130 -2.5 -7.5
			vertex 125 -2.5 -7.5
			vertex 125 2.5 -7.5
		endloop
	endfacet
endsolid exported
