solid exported
	facet normal 0.07472992146980552 -0.9972038100795226 2.2142372603884356e-16
		outer loop
			vertex 0 -2.5000000000000018 4.000000000000001
			vertex 0 -2.5000000000000027 0
			vertex 0.06774648211219092 -2.494923114776613 4.000000000000001
		endloop
	endfacet
	facet normal 0.0747299214698055 -0.9972038100795226 2.2142372603884356e-16
		outer loop
			vertex 0.06774648211219095 -2.494923114776613 4.000000000000001
			vertex 0 -2.5000000000000027 0
			vertex 0.37260565161705017 -2.472077131271365 0
		endloop
	endfacet
	facet normal 0.0747299214698055 -0.9972038100795226 2.2142372603884356e-16
		outer loop
			vertex 0.06774648211219095 -2.494923114776613 4.000000000000001
			vertex 0.37260565161705017 -2.472077131271365 0
			vertex 0.37260565161705017 -2.472077131271364 4.000000000000001
		endloop
	endfacet
	facet normal 0.22252115859345487 -0.9749278609098351 2.164774717061302e-16
		outer loop
			vertex 0.37260565161705017 -2.472077131271364 4.000000000000001
			vertex 0.37260565161705017 -2.472077131271365 0
			vertex 0.4388387934728102 -2.4569598327983524 4.000000000000001
		endloop
	endfacet
	facet normal 0.22252115859345642 -0.9749278609098346 2.164774717061301e-16
		outer loop
			vertex 0.43883879347281024 -2.4569598327983524 4.000000000000001
			vertex 0.37260565161705017 -2.472077131271365 0
			vertex 0.7368879318237305 -2.3889319896698025 0
		endloop
	endfacet
	facet normal 0.22252115859345642 -0.9749278609098346 2.164774717061301e-16
		outer loop
			vertex 0.43883879347281024 -2.4569598327983524 4.000000000000001
			vertex 0.7368879318237305 -2.3889319896698025 0
			vertex 0.7368879318237305 -2.3889319896698016 4.000000000000001
		endloop
	endfacet
	facet normal 0.365341085035984 -0.9308737248331431 2.0669548846566757e-16
		outer loop
			vertex 0.7368879318237305 -2.3889319896698016 4.000000000000001
			vertex 0.7368879318237305 -2.3889319896698025 0
			vertex 0.8001281998374246 -2.3641120087016727 4.000000000000001
		endloop
	endfacet
	facet normal 0.3653410850359856 -0.9308737248331423 2.066954884656674e-16
		outer loop
			vertex 0.8001281998374246 -2.3641120087016727 4.000000000000001
			vertex 0.7368879318237305 -2.3889319896698025 0
			vertex 1.0847094058990479 -2.2524220943450954 0
		endloop
	endfacet
	facet normal 0.3653410850359856 -0.9308737248331423 2.066954884656674e-16
		outer loop
			vertex 0.8001281998374246 -2.3641120087016727 4.000000000000001
			vertex 1.0847094058990479 -2.2524220943450954 0
			vertex 1.0847094058990479 -2.2524220943450945 4.000000000000001
		endloop
	endfacet
	facet normal 0.5000001317692212 -0.8660253277074301 1.922962517458671e-16
		outer loop
			vertex 1.0847094058990479 -2.2524220943450945 4.000000000000001
			vertex 1.0847094058990479 -2.2524220943450954 0
			vertex 1.143544088710438 -2.2184538624503416 4.000000000000001
		endloop
	endfacet
	facet normal 0.5000001317692231 -0.8660253277074289 1.9229625174586682e-16
		outer loop
			vertex 1.1435440887104382 -2.2184538624503407 4.000000000000001
			vertex 1.0847094058990479 -2.2524220943450954 0
			vertex 1.4083001613616943 -2.065596818923953 0
		endloop
	endfacet
	facet normal 0.5000001317692231 -0.8660253277074289 1.9229625174586682e-16
		outer loop
			vertex 1.1435440887104382 -2.2184538624503407 4.000000000000001
			vertex 1.4083001613616943 -2.065596818923953 0
			vertex 1.4083001613616943 -2.065596818923952 4.000000000000001
		endloop
	endfacet
	facet normal 0.6234896570823623 -0.7818315979233113 1.7360148827878757e-16
		outer loop
			vertex 1.4083001613616943 -2.065596818923952 4.000000000000001
			vertex 1.4083001613616943 -2.065596818923953 0
			vertex 1.461415009065108 -2.0232391574166053 4.000000000000001
		endloop
	endfacet
	facet normal 0.6234896570823644 -0.7818315979233097 1.7360148827878723e-16
		outer loop
			vertex 1.461415009065108 -2.0232391574166053 4.000000000000001
			vertex 1.4083001613616943 -2.065596818923953 0
			vertex 1.7004318237304688 -1.8326296806335474 0
		endloop
	endfacet
	facet normal 0.6234896570823644 -0.7818315979233097 1.7360148827878723e-16
		outer loop
			vertex 1.461415009065108 -2.0232391574166053 4.000000000000001
			vertex 1.7004318237304688 -1.8326296806335474 0
			vertex 1.7004318237304688 -1.8326296806335465 4
		endloop
	endfacet
	facet normal 0.6234896570823645 -0.7818315979233098 1.834141278148804e-16
		outer loop
			vertex 1.4905560018161945 -1.9999999999999976 22
			vertex 1.4905560018161947 -2.000000000000001 6.194564722377169
			vertex 1.7004318237304688 -1.8326296806335425 22
		endloop
	endfacet
	facet normal 0.6234896570823649 -0.7818315979233094 1.7360148827878716e-16
		outer loop
			vertex 1.4905560018161947 -2.000000000000001 6.194564722377171
			vertex 1.4905560018161947 -2.0000000000000018 4
			vertex 1.7004318237304688 -1.8326296806335465 4
		endloop
	endfacet
	facet normal 0.6234896570823649 -0.7818315979233094 1.7360148827878716e-16
		outer loop
			vertex 1.4905560018161947 -2.000000000000001 6.194564722377171
			vertex 1.7004318237304688 -1.8326296806335465 4
			vertex 1.7004318237304688 -1.8326296806335425 22
		endloop
	endfacet
	facet normal 0.7330517550963397 -0.6801728635796758 1.5102871477427632e-16
		outer loop
			vertex 1.7004318237304688 -1.8326296806335465 4
			vertex 1.7004318237304688 -1.8326296806335474 0
			vertex 1.7466403571042148 -1.7828287428075633 4
		endloop
	endfacet
	facet normal 0.7330517550963407 -0.6801728635796745 1.5102871477427605e-16
		outer loop
			vertex 1.7466403571042148 -1.7828287428075633 4
			vertex 1.7004318237304688 -1.8326296806335474 0
			vertex 1.9545787572860718 -1.5587245225906396 0
		endloop
	endfacet
	facet normal 0.7330517550963407 -0.6801728635796745 1.5102871477427605e-16
		outer loop
			vertex 1.7466403571042148 -1.7828287428075633 4
			vertex 1.9545787572860718 -1.5587245225906396 0
			vertex 1.9545787572860718 -1.5587245225906388 4
		endloop
	endfacet
	facet normal 0.7330517550963398 -0.6801728635796754 1.8507471589216829e-16
		outer loop
			vertex 1.7004318237304688 -1.8326296806335425 22
			vertex 1.7004318237304688 -1.8326296806335465 4
			vertex 1.7466403571042148 -1.7828287428075633 4
		endloop
	endfacet
	facet normal 0.7330517550963398 -0.6801728635796754 1.8507471589216829e-16
		outer loop
			vertex 1.7004318237304688 -1.8326296806335425 22
			vertex 1.7466403571042148 -1.7828287428075633 4
			vertex 1.9545787572860718 -1.5587245225906348 22
		endloop
	endfacet
	facet normal 0.7330517550963409 -0.6801728635796743 1.51028714774276e-16
		outer loop
			vertex 1.7466403571042148 -1.7828287428075633 4
			vertex 1.9545787572860718 -1.5587245225906388 4
			vertex 1.9545787572860718 -1.5587245225906348 22
		endloop
	endfacet
	facet normal 0.8262387160163487 -0.5633201435734887 1.250821987260872e-16
		outer loop
			vertex 1.9545787572860718 -1.5587245225906388 4
			vertex 1.9545787572860718 -1.5587245225906396 0
			vertex 1.992848732254722 -1.502592791210523 4
		endloop
	endfacet
	facet normal 0.8262387160163494 -0.5633201435734877 1.25082198726087e-16
		outer loop
			vertex 1.992848732254722 -1.5025927912105228 4
			vertex 1.9545787572860718 -1.5587245225906396 0
			vertex 2.1650636196136475 -1.2500000000000024 0
		endloop
	endfacet
	facet normal 0.8262387160163494 -0.5633201435734877 1.25082198726087e-16
		outer loop
			vertex 1.992848732254722 -1.5025927912105228 4
			vertex 2.1650636196136475 -1.2500000000000024 0
			vertex 2.1650636196136475 -1.2500000000000016 4
		endloop
	endfacet
	facet normal 0.8262387160163487 -0.5633201435734887 1.5345386544241738e-16
		outer loop
			vertex 1.9545787572860718 -1.5587245225906348 22
			vertex 1.9545787572860718 -1.5587245225906388 4
			vertex 1.992848732254722 -1.502592791210523 4
		endloop
	endfacet
	facet normal 0.8262387160163487 -0.5633201435734887 1.5345386544241738e-16
		outer loop
			vertex 1.9545787572860718 -1.5587245225906348 22
			vertex 1.992848732254722 -1.502592791210523 4
			vertex 2.1650636196136475 -1.2499999999999976 22
		endloop
	endfacet
	facet normal 0.8262387160163492 -0.5633201435734878 1.2508219872608701e-16
		outer loop
			vertex 1.992848732254722 -1.5025927912105228 4
			vertex 2.1650636196136475 -1.2500000000000016 4
			vertex 2.1650636196136475 -1.2499999999999976 22
		endloop
	endfacet
	facet normal 0.9009689189148564 -0.43388363318912493 9.634151991491645e-17
		outer loop
			vertex 2.1650636196136475 -1.2500000000000016 4
			vertex 2.1650636196136475 -1.2500000000000024 0
			vertex 2.1945401321757925 -1.188791372559289 4
		endloop
	endfacet
	facet normal 0.9009689189148571 -0.4338836331891233 9.634151991491609e-17
		outer loop
			vertex 2.1945401321757925 -1.188791372559289 4
			vertex 2.1650636196136475 -1.2500000000000024 0
			vertex 2.3271844387054443 -0.9133525490760828 0
		endloop
	endfacet
	facet normal 0.9009689189148571 -0.4338836331891233 9.634151991491609e-17
		outer loop
			vertex 2.1945401321757925 -1.188791372559289 4
			vertex 2.3271844387054443 -0.9133525490760828 0
			vertex 2.3271844387054443 -0.9133525490760819 4
		endloop
	endfacet
	facet normal 0.9009689189148563 -0.433883633189125 1.360618592810783e-16
		outer loop
			vertex 2.1650636196136475 -1.2499999999999976 22
			vertex 2.1650636196136475 -1.2500000000000016 4
			vertex 2.1945401321757925 -1.188791372559289 4
		endloop
	endfacet
	facet normal 0.9009689189148563 -0.433883633189125 1.360618592810783e-16
		outer loop
			vertex 2.1650636196136475 -1.2499999999999976 22
			vertex 2.1945401321757925 -1.188791372559289 4
			vertex 2.3271844387054443 -0.9133525490760779 22
		endloop
	endfacet
	facet normal 0.9009689189148573 -0.43388363318912293 9.6341519914916e-17
		outer loop
			vertex 2.1945401321757925 -1.188791372559289 4
			vertex 2.3271844387054443 -0.9133525490760819 4
			vertex 2.3271844387054443 -0.9133525490760779 22
		endloop
	endfacet
	facet normal 0.9555728783913919 -0.2947549390303585 6.544874398669764e-17
		outer loop
			vertex 2.3271844387054443 -0.9133525490760819 4
			vertex 2.3271844387054443 -0.9133525490760828 0
			vertex 2.3472090417688545 -0.8484343236142955 4
		endloop
	endfacet
	facet normal 0.9555728783913927 -0.2947549390303561 6.544874398669711e-17
		outer loop
			vertex 2.3472090417688545 -0.8484343236142955 4
			vertex 2.3271844387054443 -0.9133525490760828 0
			vertex 2.437319755554199 -0.5563023090362573 0
		endloop
	endfacet
	facet normal 0.9555728783913927 -0.2947549390303561 6.544874398669711e-17
		outer loop
			vertex 2.3472090417688545 -0.8484343236142955 4
			vertex 2.437319755554199 -0.5563023090362573 0
			vertex 2.437319755554199 -0.5563023090362564 4
		endloop
	endfacet
	facet normal 0.9555728783913919 -0.2947549390303584 1.2219208680541016e-16
		outer loop
			vertex 2.3271844387054443 -0.9133525490760779 22
			vertex 2.3271844387054443 -0.9133525490760819 4
			vertex 2.3472090417688545 -0.8484343236142955 4
		endloop
	endfacet
	facet normal 0.9555728783913919 -0.2947549390303584 1.2219208680541016e-16
		outer loop
			vertex 2.3271844387054443 -0.9133525490760779 22
			vertex 2.3472090417688545 -0.8484343236142955 4
			vertex 2.437319755554199 -0.5563023090362524 22
		endloop
	endfacet
	facet normal 0.9555728783913928 -0.29475493903035554 6.544874398669699e-17
		outer loop
			vertex 2.3472090417688545 -0.8484343236142955 4
			vertex 2.437319755554199 -0.5563023090362564 4
			vertex 2.437319755554199 -0.5563023090362524 22
		endloop
	endfacet
	facet normal 0.9888307857508436 -0.14904253470526307 3.309409073565541e-17
		outer loop
			vertex 2.437319755554199 -0.5563023090362564 4
			vertex 2.437319755554199 -0.5563023090362573 0
			vertex 2.44744517586448 -0.4891246584328754 4
		endloop
	endfacet
	facet normal 0.9888307857508439 -0.1490425347052601 3.309409073565475e-17
		outer loop
			vertex 2.44744517586448 -0.48912465843287534 4
			vertex 2.437319755554199 -0.5563023090362573 0
			vertex 2.493009567260742 -0.18682523071766144 0
		endloop
	endfacet
	facet normal 0.9888307857508439 -0.1490425347052601 3.309409073565475e-17
		outer loop
			vertex 2.44744517586448 -0.48912465843287534 4
			vertex 2.493009567260742 -0.18682523071766144 0
			vertex 2.493009567260742 -0.18682523071766055 4
		endloop
	endfacet
	facet normal 0.9888307857508436 -0.14904253470526307 9.267459971359088e-17
		outer loop
			vertex 2.437319755554199 -0.5563023090362524 22
			vertex 2.437319755554199 -0.5563023090362564 4
			vertex 2.44744517586448 -0.4891246584328754 4
		endloop
	endfacet
	facet normal 0.9888307857508436 -0.14904253470526307 9.267459971359088e-17
		outer loop
			vertex 2.437319755554199 -0.5563023090362524 22
			vertex 2.44744517586448 -0.4891246584328754 4
			vertex 2.493009567260742 -0.18682523071765655 22
		endloop
	endfacet
	facet normal 0.988830785750844 -0.14904253470525947 3.3094090735654606e-17
		outer loop
			vertex 2.44744517586448 -0.48912465843287534 4
			vertex 2.493009567260742 -0.18682523071766055 4
			vertex 2.493009567260742 -0.18682523071765655 22
		endloop
	endfacet
	facet normal 1 0 0
		outer loop
			vertex 2.493009567260742 -0.18682523071766055 4
			vertex 2.493009567260742 -0.18682523071766144 0
			vertex 2.493009567260742 -0.1188887831839664 4
		endloop
	endfacet
	facet normal 1 0 0
		outer loop
			vertex 2.493009567260742 -0.11888878318396637 4
			vertex 2.493009567260742 -0.18682523071766144 0
			vertex 2.493009567260742 0.18682523071765655 0
		endloop
	endfacet
	facet normal 1 0 0
		outer loop
			vertex 2.493009567260742 -0.11888878318396637 4
			vertex 2.493009567260742 0.18682523071765655 0
			vertex 2.493009567260742 0.18682523071765744 4
		endloop
	endfacet
	facet normal 1 0 0
		outer loop
			vertex 2.493009567260742 -0.18682523071765655 22
			vertex 2.493009567260742 -0.18682523071766055 4
			vertex 2.493009567260742 -0.1188887831839664 4
		endloop
	endfacet
	facet normal 1 0 0
		outer loop
			vertex 2.493009567260742 -0.18682523071765655 22
			vertex 2.493009567260742 -0.1188887831839664 4
			vertex 2.493009567260742 0.18682523071766144 22
		endloop
	endfacet
	facet normal 1 0 0
		outer loop
			vertex 2.493009567260742 -0.11888878318396637 4
			vertex 2.493009567260742 0.18682523071765744 4
			vertex 2.493009567260742 0.18682523071766144 22
		endloop
	endfacet
	facet normal 0.9888307857508436 0.14904253470526307 -3.309409073565541e-17
		outer loop
			vertex 2.493009567260742 0.18682523071765744 4
			vertex 2.493009567260742 0.18682523071765655 0
			vertex 2.4828841469504614 0.2540028813210385 4
		endloop
	endfacet
	facet normal 0.9888307857508439 0.1490425347052601 -3.309409073565475e-17
		outer loop
			vertex 2.4828841469504614 0.25400288132103854 4
			vertex 2.493009567260742 0.18682523071765655 0
			vertex 2.437319755554199 0.5563023090362524 0
		endloop
	endfacet
	facet normal 0.9888307857508439 0.1490425347052601 -3.309409073565475e-17
		outer loop
			vertex 2.4828841469504614 0.25400288132103854 4
			vertex 2.437319755554199 0.5563023090362524 0
			vertex 2.437319755554199 0.5563023090362533 4
		endloop
	endfacet
	facet normal 0.9888307857508436 0.14904253470526307 -9.267459971359088e-17
		outer loop
			vertex 2.493009567260742 0.18682523071766144 22
			vertex 2.493009567260742 0.18682523071765744 4
			vertex 2.4828841469504614 0.2540028813210385 4
		endloop
	endfacet
	facet normal 0.9888307857508436 0.14904253470526307 -9.267459971359088e-17
		outer loop
			vertex 2.493009567260742 0.18682523071766144 22
			vertex 2.4828841469504614 0.2540028813210385 4
			vertex 2.437319755554199 0.5563023090362573 22
		endloop
	endfacet
	facet normal 0.988830785750844 0.14904253470525947 -3.3094090735654606e-17
		outer loop
			vertex 2.4828841469504614 0.25400288132103854 4
			vertex 2.437319755554199 0.5563023090362533 4
			vertex 2.437319755554199 0.5563023090362573 22
		endloop
	endfacet
	facet normal 0.9555728783913919 0.2947549390303585 -6.544874398669764e-17
		outer loop
			vertex 2.437319755554199 0.5563023090362533 4
			vertex 2.437319755554199 0.5563023090362524 0
			vertex 2.417295152490789 0.6212205344980397 4
		endloop
	endfacet
	facet normal 0.9555728783913927 0.2947549390303561 -6.544874398669711e-17
		outer loop
			vertex 2.417295152490789 0.6212205344980397 4
			vertex 2.437319755554199 0.5563023090362524 0
			vertex 2.3271844387054443 0.9133525490760779 0
		endloop
	endfacet
	facet normal 0.9555728783913927 0.2947549390303561 -6.544874398669711e-17
		outer loop
			vertex 2.417295152490789 0.6212205344980397 4
			vertex 2.3271844387054443 0.9133525490760779 0
			vertex 2.3271844387054443 0.9133525490760788 4
		endloop
	endfacet
	facet normal 0.9555728783913919 0.2947549390303584 -1.2219208680541016e-16
		outer loop
			vertex 2.437319755554199 0.5563023090362573 22
			vertex 2.437319755554199 0.5563023090362533 4
			vertex 2.417295152490789 0.6212205344980397 4
		endloop
	endfacet
	facet normal 0.9555728783913919 0.2947549390303584 -1.2219208680541016e-16
		outer loop
			vertex 2.437319755554199 0.5563023090362573 22
			vertex 2.417295152490789 0.6212205344980397 4
			vertex 2.3271844387054443 0.9133525490760828 22
		endloop
	endfacet
	facet normal 0.9555728783913928 0.29475493903035554 -6.544874398669699e-17
		outer loop
			vertex 2.417295152490789 0.6212205344980397 4
			vertex 2.3271844387054443 0.9133525490760788 4
			vertex 2.3271844387054443 0.9133525490760828 22
		endloop
	endfacet
	facet normal 0.9009689189148564 0.43388363318912493 -9.634151991491645e-17
		outer loop
			vertex 2.3271844387054443 0.9133525490760788 4
			vertex 2.3271844387054443 0.9133525490760779 0
			vertex 2.2977079261432993 0.9745611765167914 4
		endloop
	endfacet
	facet normal 0.9009689189148571 0.4338836331891233 -9.634151991491609e-17
		outer loop
			vertex 2.2977079261432993 0.9745611765167914 4
			vertex 2.3271844387054443 0.9133525490760779 0
			vertex 2.1650636196136475 1.2499999999999976 0
		endloop
	endfacet
	facet normal 0.9009689189148571 0.4338836331891233 -9.634151991491609e-17
		outer loop
			vertex 2.2977079261432993 0.9745611765167914 4
			vertex 2.1650636196136475 1.2499999999999976 0
			vertex 2.1650636196136475 1.2499999999999984 4
		endloop
	endfacet
	facet normal 0.9009689189148563 0.433883633189125 -1.360618592810783e-16
		outer loop
			vertex 2.3271844387054443 0.9133525490760828 22
			vertex 2.3271844387054443 0.9133525490760788 4
			vertex 2.2977079261432993 0.9745611765167914 4
		endloop
	endfacet
	facet normal 0.9009689189148563 0.433883633189125 -1.360618592810783e-16
		outer loop
			vertex 2.3271844387054443 0.9133525490760828 22
			vertex 2.2977079261432993 0.9745611765167914 4
			vertex 2.1650636196136475 1.2500000000000024 22
		endloop
	endfacet
	facet normal 0.9009689189148573 0.43388363318912293 -9.6341519914916e-17
		outer loop
			vertex 2.2977079261432993 0.9745611765167914 4
			vertex 2.1650636196136475 1.2499999999999984 4
			vertex 2.1650636196136475 1.2500000000000024 22
		endloop
	endfacet
	facet normal 0.82623871601635 0.5633201435734864 -1.250821987260867e-16
		outer loop
			vertex 2.1650636196136475 1.2499999999999984 4
			vertex 2.1650636196136475 1.2499999999999976 0
			vertex 2.1267936446449975 1.3061317313801142 4
		endloop
	endfacet
	facet normal 0.8262387160163494 0.5633201435734877 -1.25082198726087e-16
		outer loop
			vertex 2.1267936446449975 1.3061317313801144 4
			vertex 2.1650636196136475 1.2499999999999976 0
			vertex 1.9545787572860718 1.5587245225906348 0
		endloop
	endfacet
	facet normal 0.8262387160163494 0.5633201435734877 -1.25082198726087e-16
		outer loop
			vertex 2.1267936446449975 1.3061317313801144 4
			vertex 1.9545787572860718 1.5587245225906348 0
			vertex 1.9545787572860718 1.5587245225906357 4
		endloop
	endfacet
	facet normal 0.82623871601635 0.5633201435734865 -9.67105320097565e-17
		outer loop
			vertex 2.1650636196136475 1.2500000000000024 22
			vertex 2.1650636196136475 1.2499999999999984 4
			vertex 2.1267936446449975 1.3061317313801142 4
		endloop
	endfacet
	facet normal 0.82623871601635 0.5633201435734865 -9.67105320097565e-17
		outer loop
			vertex 2.1650636196136475 1.2500000000000024 22
			vertex 2.1267936446449975 1.3061317313801142 4
			vertex 1.9545787572860718 1.5587245225906396 22
		endloop
	endfacet
	facet normal 0.8262387160163488 0.5633201435734883 -1.2508219872608711e-16
		outer loop
			vertex 2.1267936446449975 1.3061317313801144 4
			vertex 1.9545787572860718 1.5587245225906357 4
			vertex 1.9545787572860718 1.5587245225906396 22
		endloop
	endfacet
	facet normal 0.7330517550963397 0.6801728635796758 -1.5102871477427632e-16
		outer loop
			vertex 1.9545787572860718 1.5587245225906357 4
			vertex 1.9545787572860718 1.5587245225906348 0
			vertex 1.9083702239123257 1.6085254604166188 4
		endloop
	endfacet
	facet normal 0.7330517550963407 0.6801728635796745 -1.5102871477427605e-16
		outer loop
			vertex 1.9083702239123257 1.6085254604166188 4
			vertex 1.9545787572860718 1.5587245225906348 0
			vertex 1.7004318237304688 1.8326296806335425 0
		endloop
	endfacet
	facet normal 0.7330517550963407 0.6801728635796745 -1.5102871477427605e-16
		outer loop
			vertex 1.9083702239123257 1.6085254604166188 4
			vertex 1.7004318237304688 1.8326296806335425 0
			vertex 1.7004318237304688 1.8326296806335434 4
		endloop
	endfacet
	facet normal 0.7330517550963398 0.6801728635796754 -1.8507471589216829e-16
		outer loop
			vertex 1.9545787572860718 1.5587245225906396 22
			vertex 1.9545787572860718 1.5587245225906357 4
			vertex 1.9083702239123257 1.6085254604166188 4
		endloop
	endfacet
	facet normal 0.7330517550963398 0.6801728635796754 -1.8507471589216829e-16
		outer loop
			vertex 1.9545787572860718 1.5587245225906396 22
			vertex 1.9083702239123257 1.6085254604166188 4
			vertex 1.7004318237304688 1.8326296806335474 22
		endloop
	endfacet
	facet normal 0.7330517550963409 0.6801728635796743 -1.51028714774276e-16
		outer loop
			vertex 1.9083702239123257 1.6085254604166188 4
			vertex 1.7004318237304688 1.8326296806335434 4
			vertex 1.7004318237304688 1.8326296806335474 22
		endloop
	endfacet
	facet normal 0.6234896570823644 0.7818315979233098 -1.7360148827878725e-16
		outer loop
			vertex 1.7004318237304688 1.8326296806335434 4
			vertex 1.7004318237304688 1.8326296806335425 0
			vertex 1.6473169760270552 1.8749873421408898 4
		endloop
	endfacet
	facet normal 0.6234896570823644 0.7818315979233097 -1.7360148827878723e-16
		outer loop
			vertex 1.6473169760270552 1.8749873421408898 4
			vertex 1.7004318237304688 1.8326296806335425 0
			vertex 1.4083001613616943 2.0655968189239475 0
		endloop
	endfacet
	facet normal 0.6234896570823644 0.7818315979233097 -1.7360148827878723e-16
		outer loop
			vertex 1.6473169760270552 1.8749873421408898 4
			vertex 1.4083001613616943 2.0655968189239475 0
			vertex 1.4083001613616943 2.0655968189239484 3.999999999999999
		endloop
	endfacet
	facet normal 0.6234896570823644 0.7818315979233098 -1.7360148827878725e-16
		outer loop
			vertex 1.7004318237304688 1.8326296806335474 22
			vertex 1.7004318237304688 1.8326296806335434 4
			vertex 1.6473169760270552 1.8749873421408898 4
		endloop
	endfacet
	facet normal 0.6234896570823644 0.7818315979233098 -1.7360148827878725e-16
		outer loop
			vertex 1.7004318237304688 1.8326296806335474 22
			vertex 1.6473169760270552 1.8749873421408898 4
			vertex 1.4083001613616943 2.065596818923953 22
		endloop
	endfacet
	facet normal 0.6234896570823645 0.7818315979233098 -1.7360148827878725e-16
		outer loop
			vertex 1.6473169760270552 1.8749873421408898 4
			vertex 1.4083001613616943 2.0655968189239484 3.999999999999999
			vertex 1.4083001613616943 2.065596818923953 22
		endloop
	endfacet
	facet normal 0.5000001317692212 0.8660253277074301 -1.922962517458671e-16
		outer loop
			vertex 1.4083001613616943 2.0655968189239484 3.999999999999999
			vertex 1.4083001613616943 2.0655968189239475 0
			vertex 1.3494654785503042 2.0995650508187014 3.999999999999999
		endloop
	endfacet
	facet normal 0.5000001317692231 0.8660253277074289 -1.9229625174586682e-16
		outer loop
			vertex 1.349465478550304 2.0995650508187023 3.999999999999999
			vertex 1.4083001613616943 2.0655968189239475 0
			vertex 1.0847094058990479 2.25242209434509 0
		endloop
	endfacet
	facet normal 0.5000001317692231 0.8660253277074289 -1.9229625174586682e-16
		outer loop
			vertex 1.349465478550304 2.0995650508187023 3.999999999999999
			vertex 1.0847094058990479 2.25242209434509 0
			vertex 1.0847094058990479 2.252422094345091 3.999999999999999
		endloop
	endfacet
	facet normal 0.5000001317692211 0.86602532770743 -2.376909262240152e-16
		outer loop
			vertex 1.4083001613616943 2.065596818923953 22
			vertex 1.4083001613616943 2.0655968189239484 3.999999999999999
			vertex 1.3494654785503042 2.0995650508187014 3.999999999999999
		endloop
	endfacet
	facet normal 0.5000001317692211 0.86602532770743 -2.376909262240152e-16
		outer loop
			vertex 1.4083001613616943 2.065596818923953 22
			vertex 1.3494654785503042 2.0995650508187014 3.999999999999999
			vertex 1.0847094058990479 2.2524220943450954 22
		endloop
	endfacet
	facet normal 0.5000001317692228 0.8660253277074292 -1.922962517458669e-16
		outer loop
			vertex 1.349465478550304 2.0995650508187023 3.999999999999999
			vertex 1.0847094058990479 2.252422094345091 3.999999999999999
			vertex 1.0847094058990479 2.2524220943450954 22
		endloop
	endfacet
	facet normal 0.365341085035984 0.9308737248331431 -2.0669548846566757e-16
		outer loop
			vertex 1.0847094058990479 2.252422094345091 3.999999999999999
			vertex 1.0847094058990479 2.25242209434509 0
			vertex 1.0214691378853538 2.27724207531322 3.999999999999999
		endloop
	endfacet
	facet normal 0.3653410850359856 0.9308737248331423 -2.066954884656674e-16
		outer loop
			vertex 1.0214691378853538 2.27724207531322 3.999999999999999
			vertex 1.0847094058990479 2.25242209434509 0
			vertex 0.7368879318237305 2.388931989669797 0
		endloop
	endfacet
	facet normal 0.3653410850359856 0.9308737248331423 -2.066954884656674e-16
		outer loop
			vertex 1.0214691378853538 2.27724207531322 3.999999999999999
			vertex 0.7368879318237305 2.388931989669797 0
			vertex 0.7368879318237305 2.388931989669798 3.999999999999999
		endloop
	endfacet
	facet normal 0.36534108503598384 0.930873724833143 -2.40741485936527e-16
		outer loop
			vertex 1.0847094058990479 2.2524220943450954 22
			vertex 1.0847094058990479 2.252422094345091 3.999999999999999
			vertex 1.0214691378853538 2.27724207531322 3.999999999999999
		endloop
	endfacet
	facet normal 0.36534108503598384 0.930873724833143 -2.40741485936527e-16
		outer loop
			vertex 1.0847094058990479 2.2524220943450954 22
			vertex 1.0214691378853538 2.27724207531322 3.999999999999999
			vertex 0.7368879318237305 2.3889319896698025 22
		endloop
	endfacet
	facet normal 0.36534108503598606 0.9308737248331423 -2.066954884656674e-16
		outer loop
			vertex 1.0214691378853538 2.27724207531322 3.999999999999999
			vertex 0.7368879318237305 2.388931989669798 3.999999999999999
			vertex 0.7368879318237305 2.3889319896698025 22
		endloop
	endfacet
	facet normal 0.22252115859345487 0.9749278609098351 -2.164774717061302e-16
		outer loop
			vertex 0.7368879318237305 2.388931989669798 3.999999999999999
			vertex 0.7368879318237305 2.388931989669797 0
			vertex 0.6706547899679705 2.4040492881428097 3.999999999999999
		endloop
	endfacet
	facet normal 0.22252115859345642 0.9749278609098346 -2.164774717061301e-16
		outer loop
			vertex 0.6706547899679705 2.4040492881428097 3.999999999999999
			vertex 0.7368879318237305 2.388931989669797 0
			vertex 0.37260565161705017 2.4720771312713596 0
		endloop
	endfacet
	facet normal 0.22252115859345642 0.9749278609098346 -2.164774717061301e-16
		outer loop
			vertex 0.6706547899679705 2.4040492881428097 3.999999999999999
			vertex 0.37260565161705017 2.4720771312713596 0
			vertex 0.37260565161705017 2.4720771312713605 3.999999999999999
		endloop
	endfacet
	facet normal 0.22252115859345487 0.9749278609098351 -2.505234734572825e-16
		outer loop
			vertex 0.7368879318237305 2.3889319896698025 22
			vertex 0.7368879318237305 2.388931989669798 3.999999999999999
			vertex 0.6706547899679705 2.4040492881428097 3.999999999999999
		endloop
	endfacet
	facet normal 0.22252115859345487 0.9749278609098351 -2.505234734572825e-16
		outer loop
			vertex 0.7368879318237305 2.3889319896698025 22
			vertex 0.6706547899679705 2.4040492881428097 3.999999999999999
			vertex 0.37260565161705017 2.472077131271365 22
		endloop
	endfacet
	facet normal 0.22252115859345675 0.9749278609098345 -2.1647747170613008e-16
		outer loop
			vertex 0.6706547899679705 2.4040492881428097 3.999999999999999
			vertex 0.37260565161705017 2.4720771312713605 3.999999999999999
			vertex 0.37260565161705017 2.472077131271365 22
		endloop
	endfacet
	facet normal 0.07472992146980559 0.9972038100795226 -2.2142372603884356e-16
		outer loop
			vertex 0.37260565161705017 2.4720771312713605 3.999999999999999
			vertex 0.37260565161705017 2.4720771312713596 0
			vertex 0.3048591695048593 2.477154016494749 3.999999999999999
		endloop
	endfacet
	facet normal 0.07472992146980556 0.9972038100795226 -2.2142372603884356e-16
		outer loop
			vertex 0.3048591695048593 2.477154016494749 3.999999999999999
			vertex 0.37260565161705017 2.4720771312713596 0
			vertex 3.0616169991140216e-16 2.4999999999999973 0
		endloop
	endfacet
	facet normal 0.07472992146980556 0.9972038100795226 -2.2142372603884356e-16
		outer loop
			vertex 0.3048591695048593 2.477154016494749 3.999999999999999
			vertex 3.0616169991140216e-16 2.4999999999999973 0
			vertex 3.0616169991140216e-16 2.4999999999999982 3.999999999999999
		endloop
	endfacet
	facet normal 0.07472992146980562 0.9972038100795227 -2.2142372603884358e-16
		outer loop
			vertex 0.37260565161705017 2.472077131271365 22
			vertex 0.37260565161705017 2.4720771312713605 3.999999999999999
			vertex 0.3048591695048593 2.477154016494749 3.999999999999999
		endloop
	endfacet
	facet normal 0.07472992146980562 0.9972038100795227 -2.2142372603884358e-16
		outer loop
			vertex 0.37260565161705017 2.472077131271365 22
			vertex 0.3048591695048593 2.477154016494749 3.999999999999999
			vertex 3.0616169991140216e-16 2.5000000000000027 22
		endloop
	endfacet
	facet normal 0.07472992146980556 0.9972038100795227 -2.2142372603884358e-16
		outer loop
			vertex 0.3048591695048593 2.477154016494749 3.999999999999999
			vertex 3.0616169991140216e-16 2.4999999999999982 3.999999999999999
			vertex 3.0616169991140216e-16 2.5000000000000027 22
		endloop
	endfacet
	facet normal -0.07472992146980549 0.9972038100795226 -2.2142372603884356e-16
		outer loop
			vertex 3.0616169991140216e-16 2.4999999999999982 3.999999999999999
			vertex 3.0616169991140216e-16 2.4999999999999973 0
			vertex -0.06774648211219064 2.4949231147766096 3.999999999999999
		endloop
	endfacet
	facet normal -0.07472992146980544 0.9972038100795226 -2.2142372603884356e-16
		outer loop
			vertex -0.0677464821121907 2.4949231147766096 3.999999999999999
			vertex 3.0616169991140216e-16 2.4999999999999973 0
			vertex -0.37260565161705017 2.4720771312713596 0
		endloop
	endfacet
	facet normal -0.07472992146980544 0.9972038100795226 -2.2142372603884356e-16
		outer loop
			vertex -0.0677464821121907 2.4949231147766096 3.999999999999999
			vertex -0.37260565161705017 2.4720771312713596 0
			vertex -0.37260565161705017 2.4720771312713605 3.999999999999999
		endloop
	endfacet
	facet normal -0.07472992146980545 0.9972038100795227 -2.2284230962818423e-16
		outer loop
			vertex 3.0616169991140216e-16 2.5000000000000027 22
			vertex 3.0616169991140216e-16 2.4999999999999982 3.999999999999999
			vertex -0.06774648211219064 2.4949231147766096 3.999999999999999
		endloop
	endfacet
	facet normal -0.07472992146980545 0.9972038100795227 -2.2284230962818423e-16
		outer loop
			vertex 3.0616169991140216e-16 2.5000000000000027 22
			vertex -0.06774648211219064 2.4949231147766096 3.999999999999999
			vertex -0.37260565161705017 2.472077131271365 22
		endloop
	endfacet
	facet normal -0.07472992146980545 0.9972038100795227 -2.2142372603884358e-16
		outer loop
			vertex -0.0677464821121907 2.4949231147766096 3.999999999999999
			vertex -0.37260565161705017 2.4720771312713605 3.999999999999999
			vertex -0.37260565161705017 2.472077131271365 22
		endloop
	endfacet
	facet normal -0.22252115859345487 0.9749278609098351 -2.164774717061302e-16
		outer loop
			vertex -0.37260565161705017 2.4720771312713605 3.999999999999999
			vertex -0.37260565161705017 2.4720771312713596 0
			vertex -0.4388387934728102 2.4569598327983497 3.999999999999999
		endloop
	endfacet
	facet normal -0.22252115859345642 0.9749278609098346 -2.164774717061301e-16
		outer loop
			vertex -0.43883879347281024 2.4569598327983497 3.999999999999999
			vertex -0.37260565161705017 2.4720771312713596 0
			vertex -0.7368879318237305 2.388931989669797 0
		endloop
	endfacet
	facet normal -0.22252115859345642 0.9749278609098346 -2.164774717061301e-16
		outer loop
			vertex -0.43883879347281024 2.4569598327983497 3.999999999999999
			vertex -0.7368879318237305 2.388931989669797 0
			vertex -0.7368879318237305 2.388931989669798 3.999999999999999
		endloop
	endfacet
	facet normal -0.22252115859345487 0.9749278609098351 -1.8243146995497793e-16
		outer loop
			vertex -0.37260565161705017 2.472077131271365 22
			vertex -0.37260565161705017 2.4720771312713605 3.999999999999999
			vertex -0.4388387934728102 2.4569598327983497 3.999999999999999
		endloop
	endfacet
	facet normal -0.22252115859345487 0.9749278609098351 -1.8243146995497793e-16
		outer loop
			vertex -0.37260565161705017 2.472077131271365 22
			vertex -0.4388387934728102 2.4569598327983497 3.999999999999999
			vertex -0.7368879318237305 2.3889319896698025 22
		endloop
	endfacet
	facet normal -0.22252115859345678 0.9749278609098345 -2.1647747170613008e-16
		outer loop
			vertex -0.43883879347281024 2.4569598327983497 3.999999999999999
			vertex -0.7368879318237305 2.388931989669798 3.999999999999999
			vertex -0.7368879318237305 2.3889319896698025 22
		endloop
	endfacet
	facet normal -0.365341085035984 0.9308737248331431 -2.0669548846566757e-16
		outer loop
			vertex -0.7368879318237305 2.388931989669798 3.999999999999999
			vertex -0.7368879318237305 2.388931989669797 0
			vertex -0.8001281998374246 2.36411200870167 3.999999999999999
		endloop
	endfacet
	facet normal -0.3653410850359856 0.9308737248331423 -2.066954884656674e-16
		outer loop
			vertex -0.8001281998374246 2.36411200870167 3.999999999999999
			vertex -0.7368879318237305 2.388931989669797 0
			vertex -1.0847094058990479 2.25242209434509 0
		endloop
	endfacet
	facet normal -0.3653410850359856 0.9308737248331423 -2.066954884656674e-16
		outer loop
			vertex -0.8001281998374246 2.36411200870167 3.999999999999999
			vertex -1.0847094058990479 2.25242209434509 0
			vertex -1.0847094058990479 2.252422094345091 3.999999999999999
		endloop
	endfacet
	facet normal -0.36534108503598384 0.930873724833143 -1.726494909948081e-16
		outer loop
			vertex -0.7368879318237305 2.3889319896698025 22
			vertex -0.7368879318237305 2.388931989669798 3.999999999999999
			vertex -0.8001281998374246 2.36411200870167 3.999999999999999
		endloop
	endfacet
	facet normal -0.36534108503598384 0.930873724833143 -1.726494909948081e-16
		outer loop
			vertex -0.7368879318237305 2.3889319896698025 22
			vertex -0.8001281998374246 2.36411200870167 3.999999999999999
			vertex -1.0847094058990479 2.2524220943450954 22
		endloop
	endfacet
	facet normal -0.36534108503598606 0.9308737248331423 -2.066954884656674e-16
		outer loop
			vertex -0.8001281998374246 2.36411200870167 3.999999999999999
			vertex -1.0847094058990479 2.252422094345091 3.999999999999999
			vertex -1.0847094058990479 2.2524220943450954 22
		endloop
	endfacet
	facet normal -0.5000001317692212 0.8660253277074301 -1.922962517458671e-16
		outer loop
			vertex -1.0847094058990479 2.252422094345091 3.999999999999999
			vertex -1.0847094058990479 2.25242209434509 0
			vertex -1.143544088710438 2.218453862450338 3.999999999999999
		endloop
	endfacet
	facet normal -0.5000001317692231 0.8660253277074289 -1.9229625174586682e-16
		outer loop
			vertex -1.1435440887104382 2.218453862450338 3.999999999999999
			vertex -1.0847094058990479 2.25242209434509 0
			vertex -1.4083001613616943 2.0655968189239475 0
		endloop
	endfacet
	facet normal -0.5000001317692231 0.8660253277074289 -1.9229625174586682e-16
		outer loop
			vertex -1.1435440887104382 2.218453862450338 3.999999999999999
			vertex -1.4083001613616943 2.0655968189239475 0
			vertex -1.4083001613616943 2.0655968189239484 3.999999999999999
		endloop
	endfacet
	facet normal -0.5000001317692211 0.86602532770743 -1.4690157726771891e-16
		outer loop
			vertex -1.0847094058990479 2.2524220943450954 22
			vertex -1.0847094058990479 2.252422094345091 3.999999999999999
			vertex -1.143544088710438 2.218453862450338 3.999999999999999
		endloop
	endfacet
	facet normal -0.5000001317692211 0.86602532770743 -1.4690157726771891e-16
		outer loop
			vertex -1.0847094058990479 2.2524220943450954 22
			vertex -1.143544088710438 2.218453862450338 3.999999999999999
			vertex -1.4083001613616943 2.065596818923953 22
		endloop
	endfacet
	facet normal -0.5000001317692228 0.8660253277074292 -1.922962517458669e-16
		outer loop
			vertex -1.1435440887104382 2.218453862450338 3.999999999999999
			vertex -1.4083001613616943 2.0655968189239484 3.999999999999999
			vertex -1.4083001613616943 2.065596818923953 22
		endloop
	endfacet
	facet normal -0.6234896570823623 0.7818315979233113 -1.7360148827878757e-16
		outer loop
			vertex -1.4083001613616943 2.0655968189239484 3.999999999999999
			vertex -1.4083001613616943 2.0655968189239475 0
			vertex -1.461415009065108 2.0232391574166027 3.999999999999999
		endloop
	endfacet
	facet normal -0.6234896570823644 0.7818315979233097 -1.7360148827878723e-16
		outer loop
			vertex -1.461415009065108 2.0232391574166027 3.999999999999999
			vertex -1.4083001613616943 2.0655968189239475 0
			vertex -1.7004318237304688 1.8326296806335425 0
		endloop
	endfacet
	facet normal -0.6234896570823644 0.7818315979233097 -1.7360148827878723e-16
		outer loop
			vertex -1.461415009065108 2.0232391574166027 3.999999999999999
			vertex -1.7004318237304688 1.8326296806335425 0
			vertex -1.7004318237304688 1.8326296806335434 4
		endloop
	endfacet
	facet normal -0.6234896570823623 0.7818315979233114 -1.1685813199747818e-16
		outer loop
			vertex -1.4083001613616943 2.065596818923953 22
			vertex -1.4083001613616943 2.0655968189239484 3.999999999999999
			vertex -1.461415009065108 2.0232391574166027 3.999999999999999
		endloop
	endfacet
	facet normal -0.6234896570823623 0.7818315979233114 -1.1685813199747818e-16
		outer loop
			vertex -1.4083001613616943 2.065596818923953 22
			vertex -1.461415009065108 2.0232391574166027 3.999999999999999
			vertex -1.7004318237304688 1.8326296806335474 22
		endloop
	endfacet
	facet normal -0.6234896570823649 0.7818315979233094 -1.7360148827878716e-16
		outer loop
			vertex -1.461415009065108 2.0232391574166027 3.999999999999999
			vertex -1.7004318237304688 1.8326296806335434 4
			vertex -1.7004318237304688 1.8326296806335474 22
		endloop
	endfacet
	facet normal -0.7330517550963397 0.6801728635796758 -1.5102871477427632e-16
		outer loop
			vertex -1.7004318237304688 1.8326296806335434 4
			vertex -1.7004318237304688 1.8326296806335425 0
			vertex -1.7466403571042148 1.7828287428075602 4
		endloop
	endfacet
	facet normal -0.7330517550963407 0.6801728635796745 -1.5102871477427605e-16
		outer loop
			vertex -1.7466403571042148 1.7828287428075602 4
			vertex -1.7004318237304688 1.8326296806335425 0
			vertex -1.9545787572860718 1.5587245225906348 0
		endloop
	endfacet
	facet normal -0.7330517550963407 0.6801728635796745 -1.5102871477427605e-16
		outer loop
			vertex -1.7466403571042148 1.7828287428075602 4
			vertex -1.9545787572860718 1.5587245225906348 0
			vertex -1.9545787572860718 1.5587245225906357 4
		endloop
	endfacet
	facet normal -0.7330517550963398 0.6801728635796754 -1.169827136563842e-16
		outer loop
			vertex -1.7004318237304688 1.8326296806335474 22
			vertex -1.7004318237304688 1.8326296806335434 4
			vertex -1.7466403571042148 1.7828287428075602 4
		endloop
	endfacet
	facet normal -0.7330517550963398 0.6801728635796754 -1.169827136563842e-16
		outer loop
			vertex -1.7004318237304688 1.8326296806335474 22
			vertex -1.7466403571042148 1.7828287428075602 4
			vertex -1.9545787572860718 1.5587245225906396 22
		endloop
	endfacet
	facet normal -0.7330517550963409 0.6801728635796743 -1.51028714774276e-16
		outer loop
			vertex -1.7466403571042148 1.7828287428075602 4
			vertex -1.9545787572860718 1.5587245225906357 4
			vertex -1.9545787572860718 1.5587245225906396 22
		endloop
	endfacet
	facet normal -0.8262387160163487 0.5633201435734887 -1.250821987260872e-16
		outer loop
			vertex -1.9545787572860718 1.5587245225906357 4
			vertex -1.9545787572860718 1.5587245225906348 0
			vertex -1.992848732254722 1.50259279121052 4
		endloop
	endfacet
	facet normal -0.8262387160163494 0.5633201435734877 -1.25082198726087e-16
		outer loop
			vertex -1.992848732254722 1.5025927912105197 4
			vertex -1.9545787572860718 1.5587245225906348 0
			vertex -2.1650636196136475 1.2499999999999976 0
		endloop
	endfacet
	facet normal -0.8262387160163494 0.5633201435734877 -1.25082198726087e-16
		outer loop
			vertex -1.992848732254722 1.5025927912105197 4
			vertex -2.1650636196136475 1.2499999999999976 0
			vertex -2.1650636196136475 1.2499999999999984 4
		endloop
	endfacet
	facet normal -0.8262387160163487 0.5633201435734887 -9.671053200975704e-17
		outer loop
			vertex -1.9545787572860718 1.5587245225906396 22
			vertex -1.9545787572860718 1.5587245225906357 4
			vertex -1.992848732254722 1.50259279121052 4
		endloop
	endfacet
	facet normal -0.8262387160163487 0.5633201435734887 -9.671053200975704e-17
		outer loop
			vertex -1.9545787572860718 1.5587245225906396 22
			vertex -1.992848732254722 1.50259279121052 4
			vertex -2.1650636196136475 1.2500000000000024 22
		endloop
	endfacet
	facet normal -0.8262387160163492 0.5633201435734878 -1.2508219872608701e-16
		outer loop
			vertex -1.992848732254722 1.5025927912105197 4
			vertex -2.1650636196136475 1.2499999999999984 4
			vertex -2.1650636196136475 1.2500000000000024 22
		endloop
	endfacet
	facet normal -0.9009689189148564 0.43388363318912493 -9.634151991491645e-17
		outer loop
			vertex -2.1650636196136475 1.2499999999999984 4
			vertex -2.1650636196136475 1.2499999999999976 0
			vertex -2.1945401321757925 1.1887913725592858 4
		endloop
	endfacet
	facet normal -0.9009689189148571 0.4338836331891233 -9.634151991491609e-17
		outer loop
			vertex -2.1945401321757925 1.1887913725592858 4
			vertex -2.1650636196136475 1.2499999999999976 0
			vertex -2.3271844387054443 0.9133525490760779 0
		endloop
	endfacet
	facet normal -0.9009689189148571 0.4338836331891233 -9.634151991491609e-17
		outer loop
			vertex -2.1945401321757925 1.1887913725592858 4
			vertex -2.3271844387054443 0.9133525490760779 0
			vertex -2.3271844387054443 0.9133525490760788 4
		endloop
	endfacet
	facet normal -0.9009689189148563 0.433883633189125 -5.662118054875463e-17
		outer loop
			vertex -2.1650636196136475 1.2500000000000024 22
			vertex -2.1650636196136475 1.2499999999999984 4
			vertex -2.1945401321757925 1.1887913725592858 4
		endloop
	endfacet
	facet normal -0.9009689189148563 0.433883633189125 -5.662118054875463e-17
		outer loop
			vertex -2.1650636196136475 1.2500000000000024 22
			vertex -2.1945401321757925 1.1887913725592858 4
			vertex -2.3271844387054443 0.9133525490760828 22
		endloop
	endfacet
	facet normal -0.9009689189148573 0.43388363318912293 -9.6341519914916e-17
		outer loop
			vertex -2.1945401321757925 1.1887913725592858 4
			vertex -2.3271844387054443 0.9133525490760788 4
			vertex -2.3271844387054443 0.9133525490760828 22
		endloop
	endfacet
	facet normal -0.9555728783913919 0.2947549390303585 -6.544874398669764e-17
		outer loop
			vertex -2.3271844387054443 0.9133525490760788 4
			vertex -2.3271844387054443 0.9133525490760779 0
			vertex -2.3472090417688545 0.8484343236142924 4
		endloop
	endfacet
	facet normal -0.9555728783913927 0.2947549390303561 -6.544874398669711e-17
		outer loop
			vertex -2.3472090417688545 0.8484343236142924 4
			vertex -2.3271844387054443 0.9133525490760779 0
			vertex -2.437319755554199 0.5563023090362524 0
		endloop
	endfacet
	facet normal -0.9555728783913927 0.2947549390303561 -6.544874398669711e-17
		outer loop
			vertex -2.3472090417688545 0.8484343236142924 4
			vertex -2.437319755554199 0.5563023090362524 0
			vertex -2.437319755554199 0.5563023090362533 4
		endloop
	endfacet
	facet normal -0.9555728783913919 0.2947549390303584 -8.705401167985091e-18
		outer loop
			vertex -2.3271844387054443 0.9133525490760828 22
			vertex -2.3271844387054443 0.9133525490760788 4
			vertex -2.3472090417688545 0.8484343236142924 4
		endloop
	endfacet
	facet normal -0.9555728783913919 0.2947549390303584 -8.705401167985091e-18
		outer loop
			vertex -2.3271844387054443 0.9133525490760828 22
			vertex -2.3472090417688545 0.8484343236142924 4
			vertex -2.437319755554199 0.5563023090362573 22
		endloop
	endfacet
	facet normal -0.9555728783913928 0.29475493903035554 -6.544874398669699e-17
		outer loop
			vertex -2.3472090417688545 0.8484343236142924 4
			vertex -2.437319755554199 0.5563023090362533 4
			vertex -2.437319755554199 0.5563023090362573 22
		endloop
	endfacet
	facet normal -0.9888307857508436 0.14904253470526307 -3.309409073565541e-17
		outer loop
			vertex -2.437319755554199 0.5563023090362533 4
			vertex -2.437319755554199 0.5563023090362524 0
			vertex -2.44744517586448 0.4891246584328723 4
		endloop
	endfacet
	facet normal -0.9888307857508439 0.1490425347052601 -3.309409073565475e-17
		outer loop
			vertex -2.44744517586448 0.48912465843287223 4
			vertex -2.437319755554199 0.5563023090362524 0
			vertex -2.493009567260742 0.18682523071765655 0
		endloop
	endfacet
	facet normal -0.9888307857508439 0.1490425347052601 -3.309409073565475e-17
		outer loop
			vertex -2.44744517586448 0.48912465843287223 4
			vertex -2.493009567260742 0.18682523071765655 0
			vertex -2.493009567260742 0.18682523071765744 4
		endloop
	endfacet
	facet normal -0.9888307857508436 0.14904253470526307 2.6486418242280053e-17
		outer loop
			vertex -2.437319755554199 0.5563023090362573 22
			vertex -2.437319755554199 0.5563023090362533 4
			vertex -2.44744517586448 0.4891246584328723 4
		endloop
	endfacet
	facet normal -0.9888307857508436 0.14904253470526307 2.6486418242280053e-17
		outer loop
			vertex -2.437319755554199 0.5563023090362573 22
			vertex -2.44744517586448 0.4891246584328723 4
			vertex -2.493009567260742 0.18682523071766144 22
		endloop
	endfacet
	facet normal -0.988830785750844 0.14904253470525947 -3.3094090735654606e-17
		outer loop
			vertex -2.44744517586448 0.48912465843287223 4
			vertex -2.493009567260742 0.18682523071765744 4
			vertex -2.493009567260742 0.18682523071766144 22
		endloop
	endfacet
	facet normal -1 0 0
		outer loop
			vertex -2.493009567260742 0.18682523071765744 4
			vertex -2.493009567260742 0.18682523071765655 0
			vertex -2.493009567260742 0.11888878318396329 4
		endloop
	endfacet
	facet normal -1 0 0
		outer loop
			vertex -2.493009567260742 0.11888878318396326 4
			vertex -2.493009567260742 0.18682523071765655 0
			vertex -2.493009567260742 -0.18682523071766144 0
		endloop
	endfacet
	facet normal -1 0 0
		outer loop
			vertex -2.493009567260742 0.11888878318396326 4
			vertex -2.493009567260742 -0.18682523071766144 0
			vertex -2.493009567260742 -0.18682523071766055 4
		endloop
	endfacet
	facet normal -1 0 0
		outer loop
			vertex -2.493009567260742 0.18682523071766144 22
			vertex -2.493009567260742 0.18682523071765744 4
			vertex -2.493009567260742 0.11888878318396329 4
		endloop
	endfacet
	facet normal -1 0 0
		outer loop
			vertex -2.493009567260742 0.18682523071766144 22
			vertex -2.493009567260742 0.11888878318396329 4
			vertex -2.493009567260742 -0.18682523071765655 22
		endloop
	endfacet
	facet normal -1 0 0
		outer loop
			vertex -2.493009567260742 0.11888878318396326 4
			vertex -2.493009567260742 -0.18682523071766055 4
			vertex -2.493009567260742 -0.18682523071765655 22
		endloop
	endfacet
	facet normal -0.9888307857508436 -0.14904253470526307 3.309409073565541e-17
		outer loop
			vertex -2.493009567260742 -0.18682523071766055 4
			vertex -2.493009567260742 -0.18682523071766144 0
			vertex -2.4828841469504614 -0.2540028813210416 4
		endloop
	endfacet
	facet normal -0.9888307857508439 -0.1490425347052601 3.309409073565475e-17
		outer loop
			vertex -2.4828841469504614 -0.25400288132104165 4
			vertex -2.493009567260742 -0.18682523071766144 0
			vertex -2.437319755554199 -0.5563023090362573 0
		endloop
	endfacet
	facet normal -0.9888307857508439 -0.1490425347052601 3.309409073565475e-17
		outer loop
			vertex -2.4828841469504614 -0.25400288132104165 4
			vertex -2.437319755554199 -0.5563023090362573 0
			vertex -2.437319755554199 -0.5563023090362564 4
		endloop
	endfacet
	facet normal -0.9888307857508436 -0.14904253470526307 -2.6486418242280053e-17
		outer loop
			vertex -2.493009567260742 -0.18682523071765655 22
			vertex -2.493009567260742 -0.18682523071766055 4
			vertex -2.4828841469504614 -0.2540028813210416 4
		endloop
	endfacet
	facet normal -0.9888307857508436 -0.14904253470526307 -2.6486418242280053e-17
		outer loop
			vertex -2.493009567260742 -0.18682523071765655 22
			vertex -2.4828841469504614 -0.2540028813210416 4
			vertex -2.437319755554199 -0.5563023090362524 22
		endloop
	endfacet
	facet normal -0.988830785750844 -0.14904253470525947 3.3094090735654606e-17
		outer loop
			vertex -2.4828841469504614 -0.25400288132104165 4
			vertex -2.437319755554199 -0.5563023090362564 4
			vertex -2.437319755554199 -0.5563023090362524 22
		endloop
	endfacet
	facet normal -0.9555728783913919 -0.2947549390303585 6.544874398669764e-17
		outer loop
			vertex -2.437319755554199 -0.5563023090362564 4
			vertex -2.437319755554199 -0.5563023090362573 0
			vertex -2.417295152490789 -0.6212205344980428 4
		endloop
	endfacet
	facet normal -0.9555728783913927 -0.2947549390303561 6.544874398669711e-17
		outer loop
			vertex -2.417295152490789 -0.6212205344980428 4
			vertex -2.437319755554199 -0.5563023090362573 0
			vertex -2.3271844387054443 -0.9133525490760828 0
		endloop
	endfacet
	facet normal -0.9555728783913927 -0.2947549390303561 6.544874398669711e-17
		outer loop
			vertex -2.417295152490789 -0.6212205344980428 4
			vertex -2.3271844387054443 -0.9133525490760828 0
			vertex -2.3271844387054443 -0.9133525490760819 4
		endloop
	endfacet
	facet normal -0.9555728783913919 -0.2947549390303584 8.705401167985091e-18
		outer loop
			vertex -2.437319755554199 -0.5563023090362524 22
			vertex -2.437319755554199 -0.5563023090362564 4
			vertex -2.417295152490789 -0.6212205344980428 4
		endloop
	endfacet
	facet normal -0.9555728783913919 -0.2947549390303584 8.705401167985091e-18
		outer loop
			vertex -2.437319755554199 -0.5563023090362524 22
			vertex -2.417295152490789 -0.6212205344980428 4
			vertex -2.3271844387054443 -0.9133525490760779 22
		endloop
	endfacet
	facet normal -0.9555728783913928 -0.29475493903035554 6.544874398669699e-17
		outer loop
			vertex -2.417295152490789 -0.6212205344980428 4
			vertex -2.3271844387054443 -0.9133525490760819 4
			vertex -2.3271844387054443 -0.9133525490760779 22
		endloop
	endfacet
	facet normal -0.9009689189148564 -0.43388363318912493 9.634151991491645e-17
		outer loop
			vertex -2.3271844387054443 -0.9133525490760819 4
			vertex -2.3271844387054443 -0.9133525490760828 0
			vertex -2.2977079261432993 -0.9745611765167945 4
		endloop
	endfacet
	facet normal -0.9009689189148571 -0.4338836331891233 9.634151991491609e-17
		outer loop
			vertex -2.2977079261432993 -0.9745611765167945 4
			vertex -2.3271844387054443 -0.9133525490760828 0
			vertex -2.1650636196136475 -1.2500000000000024 0
		endloop
	endfacet
	facet normal -0.9009689189148571 -0.4338836331891233 9.634151991491609e-17
		outer loop
			vertex -2.2977079261432993 -0.9745611765167945 4
			vertex -2.1650636196136475 -1.2500000000000024 0
			vertex -2.1650636196136475 -1.2500000000000016 4
		endloop
	endfacet
	facet normal -0.9009689189148563 -0.433883633189125 5.662118054875463e-17
		outer loop
			vertex -2.3271844387054443 -0.9133525490760779 22
			vertex -2.3271844387054443 -0.9133525490760819 4
			vertex -2.2977079261432993 -0.9745611765167945 4
		endloop
	endfacet
	facet normal -0.9009689189148563 -0.433883633189125 5.662118054875463e-17
		outer loop
			vertex -2.3271844387054443 -0.9133525490760779 22
			vertex -2.2977079261432993 -0.9745611765167945 4
			vertex -2.1650636196136475 -1.2499999999999976 22
		endloop
	endfacet
	facet normal -0.9009689189148573 -0.43388363318912293 9.6341519914916e-17
		outer loop
			vertex -2.2977079261432993 -0.9745611765167945 4
			vertex -2.1650636196136475 -1.2500000000000016 4
			vertex -2.1650636196136475 -1.2499999999999976 22
		endloop
	endfacet
	facet normal -0.82623871601635 -0.5633201435734864 1.250821987260867e-16
		outer loop
			vertex -2.1650636196136475 -1.2500000000000016 4
			vertex -2.1650636196136475 -1.2500000000000024 0
			vertex -2.1267936446449975 -1.3061317313801173 4
		endloop
	endfacet
	facet normal -0.8262387160163494 -0.5633201435734877 1.25082198726087e-16
		outer loop
			vertex -2.1267936446449975 -1.3061317313801175 4
			vertex -2.1650636196136475 -1.2500000000000024 0
			vertex -1.9545787572860718 -1.5587245225906396 0
		endloop
	endfacet
	facet normal -0.8262387160163494 -0.5633201435734877 1.25082198726087e-16
		outer loop
			vertex -2.1267936446449975 -1.3061317313801175 4
			vertex -1.9545787572860718 -1.5587245225906396 0
			vertex -1.9545787572860718 -1.5587245225906388 4
		endloop
	endfacet
	facet normal -0.82623871601635 -0.5633201435734865 1.5345386544241694e-16
		outer loop
			vertex -2.1650636196136475 -1.2499999999999976 22
			vertex -2.1650636196136475 -1.2500000000000016 4
			vertex -2.1267936446449975 -1.3061317313801173 4
		endloop
	endfacet
	facet normal -0.82623871601635 -0.5633201435734865 1.5345386544241694e-16
		outer loop
			vertex -2.1650636196136475 -1.2499999999999976 22
			vertex -2.1267936446449975 -1.3061317313801173 4
			vertex -1.9545787572860718 -1.5587245225906348 22
		endloop
	endfacet
	facet normal -0.8262387160163488 -0.5633201435734883 1.2508219872608711e-16
		outer loop
			vertex -2.1267936446449975 -1.3061317313801175 4
			vertex -1.9545787572860718 -1.5587245225906388 4
			vertex -1.9545787572860718 -1.5587245225906348 22
		endloop
	endfacet
	facet normal -0.7330517550963397 -0.6801728635796758 1.5102871477427632e-16
		outer loop
			vertex -1.9545787572860718 -1.5587245225906388 4
			vertex -1.9545787572860718 -1.5587245225906396 0
			vertex -1.9083702239123257 -1.608525460416622 4
		endloop
	endfacet
	facet normal -0.7330517550963407 -0.6801728635796745 1.5102871477427605e-16
		outer loop
			vertex -1.9083702239123257 -1.608525460416622 4
			vertex -1.9545787572860718 -1.5587245225906396 0
			vertex -1.7004318237304688 -1.8326296806335474 0
		endloop
	endfacet
	facet normal -0.7330517550963407 -0.6801728635796745 1.5102871477427605e-16
		outer loop
			vertex -1.9083702239123257 -1.608525460416622 4
			vertex -1.7004318237304688 -1.8326296806335474 0
			vertex -1.7004318237304688 -1.8326296806335465 4
		endloop
	endfacet
	facet normal -0.7330517550963398 -0.6801728635796754 1.169827136563842e-16
		outer loop
			vertex -1.9545787572860718 -1.5587245225906348 22
			vertex -1.9545787572860718 -1.5587245225906388 4
			vertex -1.9083702239123257 -1.608525460416622 4
		endloop
	endfacet
	facet normal -0.7330517550963398 -0.6801728635796754 1.169827136563842e-16
		outer loop
			vertex -1.9545787572860718 -1.5587245225906348 22
			vertex -1.9083702239123257 -1.608525460416622 4
			vertex -1.7004318237304688 -1.8326296806335425 22
		endloop
	endfacet
	facet normal -0.7330517550963409 -0.6801728635796743 1.51028714774276e-16
		outer loop
			vertex -1.9083702239123257 -1.608525460416622 4
			vertex -1.7004318237304688 -1.8326296806335465 4
			vertex -1.7004318237304688 -1.8326296806335425 22
		endloop
	endfacet
	facet normal -0.6234896570823644 -0.7818315979233098 1.7360148827878725e-16
		outer loop
			vertex -1.7004318237304688 -1.8326296806335465 4
			vertex -1.7004318237304688 -1.8326296806335474 0
			vertex -1.6473169760270552 -1.874987342140893 4
		endloop
	endfacet
	facet normal -0.6234896570823644 -0.7818315979233097 1.7360148827878723e-16
		outer loop
			vertex -1.6473169760270552 -1.874987342140893 4
			vertex -1.7004318237304688 -1.8326296806335474 0
			vertex -1.4083001613616943 -2.065596818923953 0
		endloop
	endfacet
	facet normal -0.6234896570823644 -0.7818315979233097 1.7360148827878723e-16
		outer loop
			vertex -1.6473169760270552 -1.874987342140893 4
			vertex -1.4083001613616943 -2.065596818923953 0
			vertex -1.4083001613616943 -2.065596818923952 4.000000000000001
		endloop
	endfacet
	facet normal -0.6234896570823643 -0.7818315979233099 1.692755977502119e-16
		outer loop
			vertex -1.4905560018161945 -1.9999999999999976 22
			vertex -1.7004318237304688 -1.8326296806335425 22
			vertex -1.7004318237304688 -1.8326296806335465 4
		endloop
	endfacet
	facet normal -0.6234896570823643 -0.7818315979233099 1.692755977502119e-16
		outer loop
			vertex -1.4905560018161945 -1.9999999999999976 22
			vertex -1.7004318237304688 -1.8326296806335465 4
			vertex -1.6473169760270552 -1.874987342140893 4
		endloop
	endfacet
	facet normal -0.6234896570823643 -0.7818315979233099 1.692755977502119e-16
		outer loop
			vertex -1.4905560018161945 -1.9999999999999976 22
			vertex -1.6473169760270552 -1.874987342140893 4
			vertex -1.4905560018161945 -1.999999999999999 15.805435277622847
		endloop
	endfacet
	facet normal -0.6234896570823645 -0.7818315979233096 1.736014882787872e-16
		outer loop
			vertex -1.4905560018161945 -1.999999999999999 15.805435277622847
			vertex -1.6473169760270552 -1.874987342140893 4
			vertex -1.4905560018161945 -2.0000000000000018 4
		endloop
	endfacet
	facet normal -0.5000001317692212 -0.8660253277074301 1.922962517458671e-16
		outer loop
			vertex -1.4083001613616943 -2.065596818923952 4.000000000000001
			vertex -1.4083001613616943 -2.065596818923953 0
			vertex -1.3494654785503042 -2.099565050818705 4.000000000000001
		endloop
	endfacet
	facet normal -0.5000001317692231 -0.8660253277074289 1.9229625174586682e-16
		outer loop
			vertex -1.349465478550304 -2.099565050818705 4.000000000000001
			vertex -1.4083001613616943 -2.065596818923953 0
			vertex -1.0847094058990479 -2.2524220943450954 0
		endloop
	endfacet
	facet normal -0.5000001317692231 -0.8660253277074289 1.9229625174586682e-16
		outer loop
			vertex -1.349465478550304 -2.099565050818705 4.000000000000001
			vertex -1.0847094058990479 -2.2524220943450954 0
			vertex -1.0847094058990479 -2.2524220943450945 4.000000000000001
		endloop
	endfacet
	facet normal -0.365341085035984 -0.9308737248331431 2.0669548846566757e-16
		outer loop
			vertex -1.0847094058990479 -2.2524220943450945 4.000000000000001
			vertex -1.0847094058990479 -2.2524220943450954 0
			vertex -1.0214691378853538 -2.2772420753132225 4.000000000000001
		endloop
	endfacet
	facet normal -0.3653410850359856 -0.9308737248331423 2.066954884656674e-16
		outer loop
			vertex -1.0214691378853538 -2.2772420753132225 4.000000000000001
			vertex -1.0847094058990479 -2.2524220943450954 0
			vertex -0.7368879318237305 -2.3889319896698025 0
		endloop
	endfacet
	facet normal -0.3653410850359856 -0.9308737248331423 2.066954884656674e-16
		outer loop
			vertex -1.0214691378853538 -2.2772420753132225 4.000000000000001
			vertex -0.7368879318237305 -2.3889319896698025 0
			vertex -0.7368879318237305 -2.3889319896698016 4.000000000000001
		endloop
	endfacet
	facet normal -0.22252115859345487 -0.9749278609098351 2.164774717061302e-16
		outer loop
			vertex -0.7368879318237305 -2.3889319896698016 4.000000000000001
			vertex -0.7368879318237305 -2.3889319896698025 0
			vertex -0.6706547899679705 -2.4040492881428124 4.000000000000001
		endloop
	endfacet
	facet normal -0.22252115859345642 -0.9749278609098346 2.164774717061301e-16
		outer loop
			vertex -0.6706547899679705 -2.4040492881428124 4.000000000000001
			vertex -0.7368879318237305 -2.3889319896698025 0
			vertex -0.37260565161705017 -2.472077131271365 0
		endloop
	endfacet
	facet normal -0.22252115859345642 -0.9749278609098346 2.164774717061301e-16
		outer loop
			vertex -0.6706547899679705 -2.4040492881428124 4.000000000000001
			vertex -0.37260565161705017 -2.472077131271365 0
			vertex -0.37260565161705017 -2.472077131271364 4.000000000000001
		endloop
	endfacet
	facet normal -0.07472992146980552 -0.9972038100795226 2.2142372603884356e-16
		outer loop
			vertex -0.37260565161705017 -2.472077131271364 4.000000000000001
			vertex -0.37260565161705017 -2.472077131271365 0
			vertex -0.30485916950485925 -2.4771540164947528 4.000000000000001
		endloop
	endfacet
	facet normal -0.0747299214698055 -0.9972038100795226 2.2142372603884356e-16
		outer loop
			vertex -0.30485916950485925 -2.4771540164947528 4.000000000000001
			vertex -0.37260565161705017 -2.472077131271365 0
			vertex 0 -2.5000000000000027 0
		endloop
	endfacet
	facet normal -0.0747299214698055 -0.9972038100795226 2.2142372603884356e-16
		outer loop
			vertex -0.30485916950485925 -2.4771540164947528 4.000000000000001
			vertex 0 -2.5000000000000027 0
			vertex 0 -2.5000000000000018 4.000000000000001
		endloop
	endfacet
	facet normal 0 2.220446049250313e-16 1
		outer loop
			vertex 0 -1.9999999999999976 22
			vertex 0.3014514773051787 -1.9999999999999976 22
			vertex 0 2.4424906541753444e-15 22
		endloop
	endfacet
	facet normal 0 2.220446049250313e-16 1
		outer loop
			vertex 0.3014514773051787 -1.9999999999999976 22
			vertex 0.6169183007387194 -1.9999999999999976 22
			vertex 0 2.4424906541753444e-15 22
		endloop
	endfacet
	facet normal 0 2.220446049250313e-16 1
		outer loop
			vertex 0.6169183007387194 -1.9999999999999976 22
			vertex 0.9631493214547202 -1.9999999999999976 22
			vertex 0 2.4424906541753444e-15 22
		endloop
	endfacet
	facet normal 0 2.220446049250313e-16 1
		outer loop
			vertex 0.9631493214547201 -1.9999999999999976 22
			vertex 1.3635770044372286 -1.9999999999999976 22
			vertex 0 2.4424906541753444e-15 22
		endloop
	endfacet
	facet normal 0 2.220446049250313e-16 1
		outer loop
			vertex 1.3635770044372286 -1.9999999999999976 22
			vertex 1.4905560018161945 -1.9999999999999976 22
			vertex 1.7004318237304688 -1.8326296806335425 22
		endloop
	endfacet
	facet normal 0 2.220446049250313e-16 1
		outer loop
			vertex 1.3635770044372286 -1.9999999999999976 22
			vertex 1.7004318237304688 -1.8326296806335425 22
			vertex 0 2.4424906541753444e-15 22
		endloop
	endfacet
	facet normal 0 2.220446049250313e-16 1
		outer loop
			vertex 1.7004318237304688 -1.8326296806335425 22
			vertex 1.9545787572860718 -1.5587245225906348 22
			vertex 0 2.4424906541753444e-15 22
		endloop
	endfacet
	facet normal 0 2.220446049250313e-16 1
		outer loop
			vertex 1.9545787572860718 -1.5587245225906348 22
			vertex 2.1650636196136475 -1.2499999999999976 22
			vertex 0 2.4424906541753444e-15 22
		endloop
	endfacet
	facet normal 0 2.220446049250313e-16 1
		outer loop
			vertex 2.1650636196136475 -1.2499999999999976 22
			vertex 2.3271844387054443 -0.9133525490760779 22
			vertex 0 2.4424906541753444e-15 22
		endloop
	endfacet
	facet normal 0 2.220446049250313e-16 1
		outer loop
			vertex 2.3271844387054443 -0.9133525490760779 22
			vertex 2.437319755554199 -0.5563023090362524 22
			vertex 0 2.4424906541753444e-15 22
		endloop
	endfacet
	facet normal 0 2.220446049250313e-16 1
		outer loop
			vertex 2.437319755554199 -0.5563023090362524 22
			vertex 2.493009567260742 -0.18682523071765655 22
			vertex 0 2.4424906541753444e-15 22
		endloop
	endfacet
	facet normal 0 2.220446049250313e-16 1
		outer loop
			vertex 2.493009567260742 -0.18682523071765655 22
			vertex 2.493009567260742 0.18682523071766144 22
			vertex 0 2.4424906541753444e-15 22
		endloop
	endfacet
	facet normal 0 2.220446049250313e-16 1
		outer loop
			vertex 2.493009567260742 0.18682523071766144 22
			vertex 2.437319755554199 0.5563023090362573 22
			vertex 0 2.4424906541753444e-15 22
		endloop
	endfacet
	facet normal 0 2.220446049250313e-16 1
		outer loop
			vertex 2.437319755554199 0.5563023090362573 22
			vertex 2.3271844387054443 0.9133525490760828 22
			vertex 0 2.4424906541753444e-15 22
		endloop
	endfacet
	facet normal 0 2.220446049250313e-16 1
		outer loop
			vertex 2.3271844387054443 0.9133525490760828 22
			vertex 2.1650636196136475 1.2500000000000024 22
			vertex 0 2.4424906541753444e-15 22
		endloop
	endfacet
	facet normal 0 2.220446049250313e-16 1
		outer loop
			vertex 2.1650636196136475 1.2500000000000024 22
			vertex 1.9545787572860718 1.5587245225906396 22
			vertex 0 2.4424906541753444e-15 22
		endloop
	endfacet
	facet normal 0 2.220446049250313e-16 1
		outer loop
			vertex 1.9545787572860718 1.5587245225906396 22
			vertex 1.7004318237304688 1.8326296806335474 22
			vertex 0 2.4424906541753444e-15 22
		endloop
	endfacet
	facet normal 0 2.220446049250313e-16 1
		outer loop
			vertex 1.7004318237304688 1.8326296806335474 22
			vertex 1.4083001613616943 2.065596818923953 22
			vertex 0 2.4424906541753444e-15 22
		endloop
	endfacet
	facet normal 0 2.220446049250313e-16 1
		outer loop
			vertex 1.4083001613616943 2.065596818923953 22
			vertex 1.0847094058990479 2.2524220943450954 22
			vertex 0 2.4424906541753444e-15 22
		endloop
	endfacet
	facet normal 0 2.220446049250313e-16 1
		outer loop
			vertex 1.0847094058990479 2.2524220943450954 22
			vertex 0.7368879318237305 2.3889319896698025 22
			vertex 0 2.4424906541753444e-15 22
		endloop
	endfacet
	facet normal 0 2.220446049250313e-16 1
		outer loop
			vertex 0.7368879318237305 2.3889319896698025 22
			vertex 0.37260565161705017 2.472077131271365 22
			vertex 0 2.4424906541753444e-15 22
		endloop
	endfacet
	facet normal 0 2.220446049250313e-16 1
		outer loop
			vertex 0.37260565161705017 2.472077131271365 22
			vertex 3.0616169991140216e-16 2.5000000000000027 22
			vertex 0 2.4424906541753444e-15 22
		endloop
	endfacet
	facet normal 0 2.220446049250313e-16 1
		outer loop
			vertex 3.0616169991140216e-16 2.5000000000000027 22
			vertex -0.37260565161705017 2.472077131271365 22
			vertex 0 2.4424906541753444e-15 22
		endloop
	endfacet
	facet normal 0 2.220446049250313e-16 1
		outer loop
			vertex -0.37260565161705017 2.472077131271365 22
			vertex -0.7368879318237305 2.3889319896698025 22
			vertex 0 2.4424906541753444e-15 22
		endloop
	endfacet
	facet normal 0 2.220446049250313e-16 1
		outer loop
			vertex -0.7368879318237305 2.3889319896698025 22
			vertex -1.0847094058990479 2.2524220943450954 22
			vertex 0 2.4424906541753444e-15 22
		endloop
	endfacet
	facet normal 0 2.220446049250313e-16 1
		outer loop
			vertex -1.0847094058990479 2.2524220943450954 22
			vertex -1.4083001613616943 2.065596818923953 22
			vertex 0 2.4424906541753444e-15 22
		endloop
	endfacet
	facet normal 0 2.220446049250313e-16 1
		outer loop
			vertex -1.4083001613616943 2.065596818923953 22
			vertex -1.7004318237304688 1.8326296806335474 22
			vertex 0 2.4424906541753444e-15 22
		endloop
	endfacet
	facet normal 0 2.220446049250313e-16 1
		outer loop
			vertex -1.7004318237304688 1.8326296806335474 22
			vertex -1.9545787572860718 1.5587245225906396 22
			vertex 0 2.4424906541753444e-15 22
		endloop
	endfacet
	facet normal 0 2.220446049250313e-16 1
		outer loop
			vertex -1.9545787572860718 1.5587245225906396 22
			vertex -2.1650636196136475 1.2500000000000024 22
			vertex 0 2.4424906541753444e-15 22
		endloop
	endfacet
	facet normal 0 2.220446049250313e-16 1
		outer loop
			vertex -2.1650636196136475 1.2500000000000024 22
			vertex -2.3271844387054443 0.9133525490760828 22
			vertex 0 2.4424906541753444e-15 22
		endloop
	endfacet
	facet normal 0 2.220446049250313e-16 1
		outer loop
			vertex -2.3271844387054443 0.9133525490760828 22
			vertex -2.437319755554199 0.5563023090362573 22
			vertex 0 2.4424906541753444e-15 22
		endloop
	endfacet
	facet normal 0 2.220446049250313e-16 1
		outer loop
			vertex -2.437319755554199 0.5563023090362573 22
			vertex -2.493009567260742 0.18682523071766144 22
			vertex 0 2.4424906541753444e-15 22
		endloop
	endfacet
	facet normal 0 2.220446049250313e-16 1
		outer loop
			vertex -2.493009567260742 0.18682523071766144 22
			vertex -2.493009567260742 -0.18682523071765655 22
			vertex 0 2.4424906541753444e-15 22
		endloop
	endfacet
	facet normal 0 2.220446049250313e-16 1
		outer loop
			vertex -2.493009567260742 -0.18682523071765655 22
			vertex -2.437319755554199 -0.5563023090362524 22
			vertex 0 2.4424906541753444e-15 22
		endloop
	endfacet
	facet normal 0 2.220446049250313e-16 1
		outer loop
			vertex -2.437319755554199 -0.5563023090362524 22
			vertex -2.3271844387054443 -0.9133525490760779 22
			vertex 0 2.4424906541753444e-15 22
		endloop
	endfacet
	facet normal 0 2.220446049250313e-16 1
		outer loop
			vertex -2.3271844387054443 -0.9133525490760779 22
			vertex -2.1650636196136475 -1.2499999999999976 22
			vertex 0 2.4424906541753444e-15 22
		endloop
	endfacet
	facet normal 0 2.220446049250313e-16 1
		outer loop
			vertex -2.1650636196136475 -1.2499999999999976 22
			vertex -1.9545787572860718 -1.5587245225906348 22
			vertex 0 2.4424906541753444e-15 22
		endloop
	endfacet
	facet normal 0 2.220446049250313e-16 1
		outer loop
			vertex -1.9545787572860718 -1.5587245225906348 22
			vertex -1.7004318237304688 -1.8326296806335425 22
			vertex 0 2.4424906541753444e-15 22
		endloop
	endfacet
	facet normal 0 2.220446049250313e-16 1
		outer loop
			vertex -1.7004318237304688 -1.8326296806335425 22
			vertex -1.4905560018161945 -1.9999999999999976 22
			vertex -1.3635770044372286 -1.9999999999999976 22
		endloop
	endfacet
	facet normal 0 2.220446049250313e-16 1
		outer loop
			vertex -1.7004318237304688 -1.8326296806335425 22
			vertex -1.3635770044372286 -1.9999999999999976 22
			vertex 0 2.4424906541753444e-15 22
		endloop
	endfacet
	facet normal 0 2.220446049250313e-16 1
		outer loop
			vertex -1.3635770044372286 -1.9999999999999976 22
			vertex -0.9631493214547202 -1.9999999999999976 22
			vertex 0 2.4424906541753444e-15 22
		endloop
	endfacet
	facet normal 0 2.220446049250313e-16 1
		outer loop
			vertex -0.9631493214547201 -1.9999999999999976 22
			vertex -0.6169183007387194 -1.9999999999999976 22
			vertex 0 2.4424906541753444e-15 22
		endloop
	endfacet
	facet normal 0 2.220446049250313e-16 1
		outer loop
			vertex -0.6169183007387194 -1.9999999999999976 22
			vertex -0.3014514773051787 -1.9999999999999976 22
			vertex 0 2.4424906541753444e-15 22
		endloop
	endfacet
	facet normal 0 2.220446049250313e-16 1
		outer loop
			vertex -0.3014514773051787 -1.9999999999999976 22
			vertex 0 -1.9999999999999976 22
			vertex 0 2.4424906541753444e-15 22
		endloop
	endfacet
	facet normal 0 -2.220446049250313e-16 -1
		outer loop
			vertex 0.37260565161705017 -2.472077131271365 0
			vertex 0 -2.5000000000000027 0
			vertex 0 -2.4424906541753444e-15 0
		endloop
	endfacet
	facet normal 0 -2.220446049250313e-16 -1
		outer loop
			vertex 0.7368879318237305 -2.3889319896698025 0
			vertex 0.37260565161705017 -2.472077131271365 0
			vertex 0 -2.4424906541753444e-15 0
		endloop
	endfacet
	facet normal 0 -2.220446049250313e-16 -1
		outer loop
			vertex 1.0847094058990479 -2.2524220943450954 0
			vertex 0.7368879318237305 -2.3889319896698025 0
			vertex 0 -2.4424906541753444e-15 0
		endloop
	endfacet
	facet normal 0 -2.220446049250313e-16 -1
		outer loop
			vertex 1.4083001613616943 -2.065596818923953 0
			vertex 1.0847094058990479 -2.2524220943450954 0
			vertex 0 -2.4424906541753444e-15 0
		endloop
	endfacet
	facet normal 0 -2.220446049250313e-16 -1
		outer loop
			vertex 1.7004318237304688 -1.8326296806335474 0
			vertex 1.4083001613616943 -2.065596818923953 0
			vertex 0 -2.4424906541753444e-15 0
		endloop
	endfacet
	facet normal 0 -2.220446049250313e-16 -1
		outer loop
			vertex 1.9545787572860718 -1.5587245225906396 0
			vertex 1.7004318237304688 -1.8326296806335474 0
			vertex 0 -2.4424906541753444e-15 0
		endloop
	endfacet
	facet normal 0 -2.220446049250313e-16 -1
		outer loop
			vertex 2.1650636196136475 -1.2500000000000024 0
			vertex 1.9545787572860718 -1.5587245225906396 0
			vertex 0 -2.4424906541753444e-15 0
		endloop
	endfacet
	facet normal 0 -2.220446049250313e-16 -1
		outer loop
			vertex 2.3271844387054443 -0.9133525490760828 0
			vertex 2.1650636196136475 -1.2500000000000024 0
			vertex 0 -2.4424906541753444e-15 0
		endloop
	endfacet
	facet normal 0 -2.220446049250313e-16 -1
		outer loop
			vertex 2.437319755554199 -0.5563023090362573 0
			vertex 2.3271844387054443 -0.9133525490760828 0
			vertex 0 -2.4424906541753444e-15 0
		endloop
	endfacet
	facet normal 0 -2.220446049250313e-16 -1
		outer loop
			vertex 2.493009567260742 -0.18682523071766144 0
			vertex 2.437319755554199 -0.5563023090362573 0
			vertex 0 -2.4424906541753444e-15 0
		endloop
	endfacet
	facet normal 0 -2.220446049250313e-16 -1
		outer loop
			vertex 2.493009567260742 0.18682523071765655 0
			vertex 2.493009567260742 -0.18682523071766144 0
			vertex 0 -2.4424906541753444e-15 0
		endloop
	endfacet
	facet normal 0 -2.220446049250313e-16 -1
		outer loop
			vertex 2.437319755554199 0.5563023090362524 0
			vertex 2.493009567260742 0.18682523071765655 0
			vertex 0 -2.4424906541753444e-15 0
		endloop
	endfacet
	facet normal 0 -2.220446049250313e-16 -1
		outer loop
			vertex 2.3271844387054443 0.9133525490760779 0
			vertex 2.437319755554199 0.5563023090362524 0
			vertex 0 -2.4424906541753444e-15 0
		endloop
	endfacet
	facet normal 0 -2.220446049250313e-16 -1
		outer loop
			vertex 2.1650636196136475 1.2499999999999976 0
			vertex 2.3271844387054443 0.9133525490760779 0
			vertex 0 -2.4424906541753444e-15 0
		endloop
	endfacet
	facet normal 0 -2.220446049250313e-16 -1
		outer loop
			vertex 1.9545787572860718 1.5587245225906348 0
			vertex 2.1650636196136475 1.2499999999999976 0
			vertex 0 -2.4424906541753444e-15 0
		endloop
	endfacet
	facet normal 0 -2.220446049250313e-16 -1
		outer loop
			vertex 1.7004318237304688 1.8326296806335425 0
			vertex 1.9545787572860718 1.5587245225906348 0
			vertex 0 -2.4424906541753444e-15 0
		endloop
	endfacet
	facet normal 0 -2.220446049250313e-16 -1
		outer loop
			vertex 1.4083001613616943 2.0655968189239475 0
			vertex 1.7004318237304688 1.8326296806335425 0
			vertex 0 -2.4424906541753444e-15 0
		endloop
	endfacet
	facet normal 0 -2.220446049250313e-16 -1
		outer loop
			vertex 1.0847094058990479 2.25242209434509 0
			vertex 1.4083001613616943 2.0655968189239475 0
			vertex 0 -2.4424906541753444e-15 0
		endloop
	endfacet
	facet normal 0 -2.220446049250313e-16 -1
		outer loop
			vertex 0.7368879318237305 2.388931989669797 0
			vertex 1.0847094058990479 2.25242209434509 0
			vertex 0 -2.4424906541753444e-15 0
		endloop
	endfacet
	facet normal 0 -2.220446049250313e-16 -1
		outer loop
			vertex 0.37260565161705017 2.4720771312713596 0
			vertex 0.7368879318237305 2.388931989669797 0
			vertex 0 -2.4424906541753444e-15 0
		endloop
	endfacet
	facet normal 0 -2.220446049250313e-16 -1
		outer loop
			vertex 3.0616169991140216e-16 2.4999999999999973 0
			vertex 0.37260565161705017 2.4720771312713596 0
			vertex 0 -2.4424906541753444e-15 0
		endloop
	endfacet
	facet normal 0 -2.220446049250313e-16 -1
		outer loop
			vertex -0.37260565161705017 2.4720771312713596 0
			vertex 3.0616169991140216e-16 2.4999999999999973 0
			vertex 0 -2.4424906541753444e-15 0
		endloop
	endfacet
	facet normal 0 -2.220446049250313e-16 -1
		outer loop
			vertex -0.7368879318237305 2.388931989669797 0
			vertex -0.37260565161705017 2.4720771312713596 0
			vertex 0 -2.4424906541753444e-15 0
		endloop
	endfacet
	facet normal 0 -2.220446049250313e-16 -1
		outer loop
			vertex -1.0847094058990479 2.25242209434509 0
			vertex -0.7368879318237305 2.388931989669797 0
			vertex 0 -2.4424906541753444e-15 0
		endloop
	endfacet
	facet normal 0 -2.220446049250313e-16 -1
		outer loop
			vertex -1.4083001613616943 2.0655968189239475 0
			vertex -1.0847094058990479 2.25242209434509 0
			vertex 0 -2.4424906541753444e-15 0
		endloop
	endfacet
	facet normal 0 -2.220446049250313e-16 -1
		outer loop
			vertex -1.7004318237304688 1.8326296806335425 0
			vertex -1.4083001613616943 2.0655968189239475 0
			vertex 0 -2.4424906541753444e-15 0
		endloop
	endfacet
	facet normal 0 -2.220446049250313e-16 -1
		outer loop
			vertex -1.9545787572860718 1.5587245225906348 0
			vertex -1.7004318237304688 1.8326296806335425 0
			vertex 0 -2.4424906541753444e-15 0
		endloop
	endfacet
	facet normal 0 -2.220446049250313e-16 -1
		outer loop
			vertex -2.1650636196136475 1.2499999999999976 0
			vertex -1.9545787572860718 1.5587245225906348 0
			vertex 0 -2.4424906541753444e-15 0
		endloop
	endfacet
	facet normal 0 -2.220446049250313e-16 -1
		outer loop
			vertex -2.3271844387054443 0.9133525490760779 0
			vertex -2.1650636196136475 1.2499999999999976 0
			vertex 0 -2.4424906541753444e-15 0
		endloop
	endfacet
	facet normal 0 -2.220446049250313e-16 -1
		outer loop
			vertex -2.437319755554199 0.5563023090362524 0
			vertex -2.3271844387054443 0.9133525490760779 0
			vertex 0 -2.4424906541753444e-15 0
		endloop
	endfacet
	facet normal 0 -2.220446049250313e-16 -1
		outer loop
			vertex -2.493009567260742 0.18682523071765655 0
			vertex -2.437319755554199 0.5563023090362524 0
			vertex 0 -2.4424906541753444e-15 0
		endloop
	endfacet
	facet normal 0 -2.220446049250313e-16 -1
		outer loop
			vertex -2.493009567260742 -0.18682523071766144 0
			vertex -2.493009567260742 0.18682523071765655 0
			vertex 0 -2.4424906541753444e-15 0
		endloop
	endfacet
	facet normal 0 -2.220446049250313e-16 -1
		outer loop
			vertex -2.437319755554199 -0.5563023090362573 0
			vertex -2.493009567260742 -0.18682523071766144 0
			vertex 0 -2.4424906541753444e-15 0
		endloop
	endfacet
	facet normal 0 -2.220446049250313e-16 -1
		outer loop
			vertex -2.3271844387054443 -0.9133525490760828 0
			vertex -2.437319755554199 -0.5563023090362573 0
			vertex 0 -2.4424906541753444e-15 0
		endloop
	endfacet
	facet normal 0 -2.220446049250313e-16 -1
		outer loop
			vertex -2.1650636196136475 -1.2500000000000024 0
			vertex -2.3271844387054443 -0.9133525490760828 0
			vertex 0 -2.4424906541753444e-15 0
		endloop
	endfacet
	facet normal 0 -2.220446049250313e-16 -1
		outer loop
			vertex -1.9545787572860718 -1.5587245225906396 0
			vertex -2.1650636196136475 -1.2500000000000024 0
			vertex 0 -2.4424906541753444e-15 0
		endloop
	endfacet
	facet normal 0 -2.220446049250313e-16 -1
		outer loop
			vertex -1.7004318237304688 -1.8326296806335474 0
			vertex -1.9545787572860718 -1.5587245225906396 0
			vertex 0 -2.4424906541753444e-15 0
		endloop
	endfacet
	facet normal 0 -2.220446049250313e-16 -1
		outer loop
			vertex -1.4083001613616943 -2.065596818923953 0
			vertex -1.7004318237304688 -1.8326296806335474 0
			vertex 0 -2.4424906541753444e-15 0
		endloop
	endfacet
	facet normal 0 -2.220446049250313e-16 -1
		outer loop
			vertex -1.0847094058990479 -2.2524220943450954 0
			vertex -1.4083001613616943 -2.065596818923953 0
			vertex 0 -2.4424906541753444e-15 0
		endloop
	endfacet
	facet normal 0 -2.220446049250313e-16 -1
		outer loop
			vertex -0.7368879318237305 -2.3889319896698025 0
			vertex -1.0847094058990479 -2.2524220943450954 0
			vertex 0 -2.4424906541753444e-15 0
		endloop
	endfacet
	facet normal 0 -2.220446049250313e-16 -1
		outer loop
			vertex -0.37260565161705017 -2.472077131271365 0
			vertex -0.7368879318237305 -2.3889319896698025 0
			vertex 0 -2.4424906541753444e-15 0
		endloop
	endfacet
	facet normal 0 -2.220446049250313e-16 -1
		outer loop
			vertex 0 -2.5000000000000027 0
			vertex -0.37260565161705017 -2.472077131271365 0
			vertex 0 -2.4424906541753444e-15 0
		endloop
	endfacet
	facet normal 0 2.220446049250313e-16 1
		outer loop
			vertex -1.4083001613616917 -2.0655968189239537 4.000000000000001
			vertex -1.084709405899047 -2.2524220943450954 4.000000000000001
			vertex -0.7368879318237331 -2.3889319896698007 4.000000000000001
		endloop
	endfacet
	facet normal 0 2.220446049250313e-16 1
		outer loop
			vertex -1.4083001613616917 -2.0655968189239537 4.000000000000001
			vertex -0.7368879318237331 -2.3889319896698007 4.000000000000001
			vertex -0.37260565161705095 -2.472077131271364 4.000000000000001
		endloop
	endfacet
	facet normal 0 2.220446049250313e-16 1
		outer loop
			vertex -1.4083001613616917 -2.0655968189239537 4.000000000000001
			vertex -0.37260565161705095 -2.472077131271364 4.000000000000001
			vertex 3.219646771412954e-15 -2.5000000000000018 4.000000000000001
		endloop
	endfacet
	facet normal 0 2.220446049250313e-16 1
		outer loop
			vertex -1.4083001613616917 -2.0655968189239537 4.000000000000001
			vertex 3.219646771412954e-15 -2.5000000000000018 4.000000000000001
			vertex 0.3726056516170484 -2.472077131271364 4.000000000000001
		endloop
	endfacet
	facet normal 0 2.220446049250313e-16 1
		outer loop
			vertex -1.4083001613616917 -2.0655968189239537 4.000000000000001
			vertex 0.3726056516170484 -2.472077131271364 4.000000000000001
			vertex 0.7368879318237296 -2.3889319896698016 4.000000000000001
		endloop
	endfacet
	facet normal 0 2.220446049250313e-16 1
		outer loop
			vertex -1.4083001613616917 -2.0655968189239537 4.000000000000001
			vertex 0.7368879318237296 -2.3889319896698016 4.000000000000001
			vertex 1.0847094058990472 -2.2524220943450945 4.000000000000001
		endloop
	endfacet
	facet normal 0 2.220446049250313e-16 1
		outer loop
			vertex -1.4083001613616917 -2.0655968189239537 4.000000000000001
			vertex 1.0847094058990472 -2.2524220943450945 4.000000000000001
			vertex 1.4083001613616966 -2.06559681892395 4.000000000000001
		endloop
	endfacet
	facet normal 0 2.220446049250313e-16 1
		outer loop
			vertex -1.4083001613616917 -2.0655968189239537 4.000000000000001
			vertex 1.4083001613616966 -2.06559681892395 4.000000000000001
			vertex 1.490556001816195 -2.0000000000000018 4
		endloop
	endfacet
	facet normal 0 2.220446049250313e-16 1
		outer loop
			vertex -1.4083001613616917 -2.0655968189239537 4.000000000000001
			vertex 1.490556001816195 -2.0000000000000018 4
			vertex -1.4905560018161939 -2.0000000000000018 4
		endloop
	endfacet
	facet normal 0 -1 2.220446049250313e-16
		outer loop
			vertex 1.4905560018161947 -1.9999999999999976 22
			vertex -1.490556001816194 -1.9999999999999976 22
			vertex -1.4905560018161945 -1.999999999999999 16.490556001816195
		endloop
	endfacet
	facet normal 0 -1 2.220446049250313e-16
		outer loop
			vertex 1.4905560018161947 -1.9999999999999976 22
			vertex -1.4905560018161945 -1.999999999999999 16.490556001816195
			vertex 1.490556001816194 -1.9999999999999993 13.509443998183807
		endloop
	endfacet
	facet normal 0 -1 2.220446049250313e-16
		outer loop
			vertex 1.490556001816195 -1.9999999999999993 13.509443998183805
			vertex -1.4905560018161939 -1.999999999999999 16.490556001816195
			vertex -1.4905560018161945 -2.0000000000000018 4
		endloop
	endfacet
	facet normal 0 -1 2.220446049250313e-16
		outer loop
			vertex 1.490556001816195 -1.9999999999999993 13.509443998183805
			vertex -1.4905560018161945 -2.0000000000000018 4
			vertex 1.490556001816194 -2.0000000000000018 4
		endloop
	endfacet
endsolid exported
