<?xml version="1.0" standalone="no"?>
<!DOCTYPE svg PUBLIC "-//W3C//DTD SVG 20010904//EN"
 "http://www.w3.org/TR/2001/REC-SVG-20010904/DTD/svg10.dtd">
<svg version="1.0" xmlns="http://www.w3.org/2000/svg"
 width="570.000000pt" height="570.000000pt" viewBox="0 0 570.000000 570.000000"
 preserveAspectRatio="xMidYMid meet">
<metadata>
Created by potrace 1.16, written by Peter Selinger 2001-2019
</metadata>
<g transform="translate(0.000000,570.000000) scale(0.100000,-0.100000)"
fill="#000000" stroke="none">
<path d="M258 5293 c-10 -2 -18 -8 -18 -13 0 -5 -13 -11 -29 -15 -40 -8 -135
-92 -147 -127 -3 -10 -9 -18 -14 -18 -5 0 -16 -23 -25 -52 -13 -46 -15 -297
-15 -2213 0 -1916 2 -2167 15 -2213 9 -29 20 -52 25 -52 5 0 11 -8 14 -17 6
-17 29 -42 84 -93 13 -12 38 -26 55 -32 18 -6 35 -16 39 -22 10 -16 5206 -16
5216 0 4 6 21 16 39 22 17 6 40 19 51 29 11 10 32 28 46 40 14 11 31 33 37 47
7 14 16 26 20 26 5 0 15 23 24 52 13 46 15 297 15 2213 0 1916 -2 2167 -15
2213 -9 29 -19 52 -24 52 -4 0 -13 12 -20 26 -6 14 -23 36 -37 47 -14 12 -35
30 -46 40 -11 10 -34 23 -51 29 -18 6 -35 16 -39 22 -5 8 -745 11 -2595 12
-1423 1 -2596 0 -2605 -3z m4922 -439 c14 -7 38 -29 52 -50 l26 -39 4 -1647 3
-1648 -39 43 c-22 23 -87 93 -145 156 -58 63 -131 142 -163 175 -31 34 -67 74
-81 89 -34 38 -200 216 -262 281 -27 29 -90 97 -140 151 -325 357 -448 482
-484 490 -17 3 -33 11 -36 16 -8 12 -105 12 -105 0 0 -5 -14 -12 -30 -16 -17
-4 -40 -15 -53 -26 -12 -10 -53 -44 -92 -76 -99 -82 -115 -96 -134 -114 -9 -8
-37 -31 -63 -49 -54 -38 -131 -50 -190 -31 -35 12 -136 111 -338 332 -52 57
-120 130 -150 163 -30 32 -64 69 -75 81 -11 12 -60 65 -110 119 -83 90 -126
134 -175 177 -30 28 -91 43 -171 43 -130 -1 -167 -27 -351 -254 -74 -92 -80
-99 -105 -126 -12 -13 -26 -30 -30 -37 -4 -8 -28 -38 -53 -66 -25 -29 -54 -63
-65 -76 -11 -13 -31 -38 -45 -56 -14 -18 -36 -44 -50 -60 -14 -15 -37 -42 -52
-60 -14 -19 -35 -44 -45 -56 -10 -12 -29 -36 -43 -54 -32 -41 -58 -72 -117
-139 -26 -31 -61 -73 -78 -94 -42 -55 -66 -84 -95 -116 -14 -16 -34 -39 -44
-52 -11 -13 -31 -37 -45 -54 -14 -17 -37 -46 -51 -64 -32 -42 -70 -87 -95
-114 -12 -11 -39 -43 -60 -71 -22 -27 -44 -55 -50 -61 -5 -7 -21 -27 -35 -44
-14 -18 -36 -46 -50 -61 -14 -15 -34 -38 -44 -51 -11 -13 -31 -37 -45 -54 -14
-17 -37 -46 -51 -64 -14 -19 -35 -44 -47 -56 -12 -13 -28 -33 -37 -46 -15 -21
-16 118 -16 1607 0 898 4 1644 9 1661 13 46 61 92 106 103 62 14 4603 9 4635
-5z"/>
<path d="M4140 4482 c0 -5 -26 -15 -57 -21 -107 -24 -244 -120 -322 -226 -21
-30 -71 -124 -71 -136 0 -8 -8 -27 -18 -44 -14 -25 -17 -56 -17 -186 0 -99 4
-161 11 -170 6 -8 19 -40 29 -71 10 -32 21 -58 25 -58 3 0 13 -15 22 -33 21
-45 107 -137 160 -172 24 -15 55 -36 69 -46 14 -9 46 -23 70 -29 24 -7 50 -17
58 -23 19 -16 322 -16 342 -1 8 6 32 17 54 24 41 13 117 54 145 78 91 78 180
186 180 220 0 6 7 17 15 26 38 38 59 289 34 408 -13 60 -49 143 -90 202 -50
75 -169 181 -216 192 -12 4 -23 10 -23 14 0 4 -30 16 -67 25 -38 10 -72 22
-77 27 -13 11 -256 11 -256 0z"/>
</g>
</svg>
